%TF.GenerationSoftware,KiCad,Pcbnew,6.0.4*%
%TF.CreationDate,2022-05-03T23:03:23+02:00*%
%TF.ProjectId,hdmi brd,68646d69-2062-4726-942e-6b696361645f,rev?*%
%TF.SameCoordinates,Original*%
%TF.FileFunction,Copper,L2,Bot*%
%TF.FilePolarity,Positive*%
%FSLAX46Y46*%
G04 Gerber Fmt 4.6, Leading zero omitted, Abs format (unit mm)*
G04 Created by KiCad (PCBNEW 6.0.4) date 2022-05-03 23:03:23*
%MOMM*%
%LPD*%
G01*
G04 APERTURE LIST*
%TA.AperFunction,ComponentPad*%
%ADD10O,1.778000X3.556000*%
%TD*%
%TA.AperFunction,ComponentPad*%
%ADD11C,5.600000*%
%TD*%
%TA.AperFunction,ComponentPad*%
%ADD12R,1.700000X1.700000*%
%TD*%
%TA.AperFunction,ComponentPad*%
%ADD13O,1.700000X1.700000*%
%TD*%
%TA.AperFunction,ViaPad*%
%ADD14C,0.800000*%
%TD*%
%TA.AperFunction,Conductor*%
%ADD15C,0.400000*%
%TD*%
%TA.AperFunction,Conductor*%
%ADD16C,0.250000*%
%TD*%
G04 APERTURE END LIST*
D10*
%TO.P,J2,Z1*%
%TO.N,N/C*%
X106056000Y-55715000D03*
%TO.P,J2,Z4*%
X91556000Y-55715000D03*
%TO.P,J2,Z2*%
X106056000Y-49715000D03*
%TO.P,J2,Z3*%
X91556000Y-49715000D03*
%TD*%
D11*
%TO.P,H2,1*%
%TO.N,N/C*%
X112014000Y-125730000D03*
%TD*%
%TO.P,H1,1*%
%TO.N,N/C*%
X112268000Y-50038000D03*
%TD*%
D12*
%TO.P,J1,1,Pin_1*%
%TO.N,GND*%
X76200000Y-48260000D03*
D13*
%TO.P,J1,2,Pin_2*%
X78740000Y-48260000D03*
%TO.P,J1,3,Pin_3*%
%TO.N,3V3*%
X76200000Y-50800000D03*
%TO.P,J1,4,Pin_4*%
X78740000Y-50800000D03*
%TO.P,J1,5,Pin_5*%
%TO.N,GND*%
X76200000Y-53340000D03*
%TO.P,J1,6,Pin_6*%
X78740000Y-53340000D03*
%TO.P,J1,7,Pin_7*%
%TO.N,unconnected-(J1-Pad7)*%
X76200000Y-55880000D03*
%TO.P,J1,8,Pin_8*%
%TO.N,unconnected-(J1-Pad8)*%
X78740000Y-55880000D03*
%TO.P,J1,9,Pin_9*%
%TO.N,unconnected-(J1-Pad9)*%
X76200000Y-58420000D03*
%TO.P,J1,10,Pin_10*%
%TO.N,unconnected-(J1-Pad10)*%
X78740000Y-58420000D03*
%TO.P,J1,11,Pin_11*%
%TO.N,unconnected-(J1-Pad11)*%
X76200000Y-60960000D03*
%TO.P,J1,12,Pin_12*%
%TO.N,unconnected-(J1-Pad12)*%
X78740000Y-60960000D03*
%TO.P,J1,13,Pin_13*%
%TO.N,SDA*%
X76200000Y-63500000D03*
%TO.P,J1,14,Pin_14*%
%TO.N,SCL*%
X78740000Y-63500000D03*
%TO.P,J1,15,Pin_15*%
%TO.N,B6*%
X76200000Y-66040000D03*
%TO.P,J1,16,Pin_16*%
%TO.N,B7*%
X78740000Y-66040000D03*
%TO.P,J1,17,Pin_17*%
%TO.N,B4*%
X76200000Y-68580000D03*
%TO.P,J1,18,Pin_18*%
%TO.N,B5*%
X78740000Y-68580000D03*
%TO.P,J1,19,Pin_19*%
%TO.N,B2*%
X76200000Y-71120000D03*
%TO.P,J1,20,Pin_20*%
%TO.N,B3*%
X78740000Y-71120000D03*
%TO.P,J1,21,Pin_21*%
%TO.N,B0*%
X76200000Y-73660000D03*
%TO.P,J1,22,Pin_22*%
%TO.N,B1*%
X78740000Y-73660000D03*
%TO.P,J1,23,Pin_23*%
%TO.N,G6*%
X76200000Y-76200000D03*
%TO.P,J1,24,Pin_24*%
%TO.N,G7*%
X78740000Y-76200000D03*
%TO.P,J1,25,Pin_25*%
%TO.N,G4*%
X76200000Y-78740000D03*
%TO.P,J1,26,Pin_26*%
%TO.N,G5*%
X78740000Y-78740000D03*
%TO.P,J1,27,Pin_27*%
%TO.N,G2*%
X76200000Y-81280000D03*
%TO.P,J1,28,Pin_28*%
%TO.N,G3*%
X78740000Y-81280000D03*
%TO.P,J1,29,Pin_29*%
%TO.N,IDCK*%
X76200000Y-83820000D03*
%TO.P,J1,30,Pin_30*%
%TO.N,G1*%
X78740000Y-83820000D03*
%TO.P,J1,31,Pin_31*%
%TO.N,R7*%
X76200000Y-86360000D03*
%TO.P,J1,32,Pin_32*%
%TO.N,G0*%
X78740000Y-86360000D03*
%TO.P,J1,33,Pin_33*%
%TO.N,R5*%
X76200000Y-88900000D03*
%TO.P,J1,34,Pin_34*%
%TO.N,R6*%
X78740000Y-88900000D03*
%TO.P,J1,35,Pin_35*%
%TO.N,R3*%
X76200000Y-91440000D03*
%TO.P,J1,36,Pin_36*%
%TO.N,R4*%
X78740000Y-91440000D03*
%TO.P,J1,37,Pin_37*%
%TO.N,R1*%
X76200000Y-93980000D03*
%TO.P,J1,38,Pin_38*%
%TO.N,R2*%
X78740000Y-93980000D03*
%TO.P,J1,39,Pin_39*%
%TO.N,DE*%
X76200000Y-96520000D03*
%TO.P,J1,40,Pin_40*%
%TO.N,R0*%
X78740000Y-96520000D03*
%TO.P,J1,41,Pin_41*%
%TO.N,VSYNC*%
X76200000Y-99060000D03*
%TO.P,J1,42,Pin_42*%
%TO.N,HSYNC*%
X78740000Y-99060000D03*
%TO.P,J1,43,Pin_43*%
%TO.N,SD0*%
X76200000Y-101600000D03*
%TO.P,J1,44,Pin_44*%
%TO.N,MCLK*%
X78740000Y-101600000D03*
%TO.P,J1,45,Pin_45*%
%TO.N,SCK*%
X76200000Y-104140000D03*
%TO.P,J1,46,Pin_46*%
%TO.N,WS*%
X78740000Y-104140000D03*
%TO.P,J1,47,Pin_47*%
%TO.N,unconnected-(J1-Pad47)*%
X76200000Y-106680000D03*
%TO.P,J1,48,Pin_48*%
%TO.N,INT*%
X78740000Y-106680000D03*
%TO.P,J1,49,Pin_49*%
%TO.N,unconnected-(J1-Pad49)*%
X76200000Y-109220000D03*
%TO.P,J1,50,Pin_50*%
%TO.N,unconnected-(J1-Pad50)*%
X78740000Y-109220000D03*
%TO.P,J1,51,Pin_51*%
%TO.N,unconnected-(J1-Pad51)*%
X76200000Y-111760000D03*
%TO.P,J1,52,Pin_52*%
%TO.N,unconnected-(J1-Pad52)*%
X78740000Y-111760000D03*
%TO.P,J1,53,Pin_53*%
%TO.N,unconnected-(J1-Pad53)*%
X76200000Y-114300000D03*
%TO.P,J1,54,Pin_54*%
%TO.N,unconnected-(J1-Pad54)*%
X78740000Y-114300000D03*
%TO.P,J1,55,Pin_55*%
%TO.N,unconnected-(J1-Pad55)*%
X76200000Y-116840000D03*
%TO.P,J1,56,Pin_56*%
%TO.N,unconnected-(J1-Pad56)*%
X78740000Y-116840000D03*
%TO.P,J1,57,Pin_57*%
%TO.N,unconnected-(J1-Pad57)*%
X76200000Y-119380000D03*
%TO.P,J1,58,Pin_58*%
%TO.N,unconnected-(J1-Pad58)*%
X78740000Y-119380000D03*
%TO.P,J1,59,Pin_59*%
%TO.N,unconnected-(J1-Pad59)*%
X76200000Y-121920000D03*
%TO.P,J1,60,Pin_60*%
%TO.N,unconnected-(J1-Pad60)*%
X78740000Y-121920000D03*
%TO.P,J1,61,Pin_61*%
%TO.N,GND*%
X76200000Y-124460000D03*
%TO.P,J1,62,Pin_62*%
X78740000Y-124460000D03*
%TO.P,J1,63,Pin_63*%
%TO.N,VIN*%
X76200000Y-127000000D03*
%TO.P,J1,64,Pin_64*%
X78740000Y-127000000D03*
%TD*%
D14*
%TO.N,GND*%
X102362000Y-52578000D03*
X85090000Y-115062000D03*
X101346000Y-64770000D03*
X98552000Y-52578000D03*
X113538000Y-73152000D03*
X89916000Y-83566000D03*
X94742000Y-76708000D03*
X113538000Y-88138000D03*
X94488000Y-85090000D03*
X108204000Y-120650000D03*
X98298000Y-73152000D03*
X105156000Y-78740000D03*
X94742000Y-73152000D03*
X84328000Y-60198000D03*
X106426000Y-75692000D03*
X102616000Y-78232000D03*
X106934000Y-122174000D03*
X85344000Y-58928000D03*
X98806000Y-64769999D03*
X95504000Y-52578000D03*
X113538000Y-69088000D03*
X102616000Y-67056000D03*
X94742000Y-74930000D03*
X85090000Y-119126000D03*
X113538000Y-84074000D03*
X113538000Y-86106000D03*
X85090000Y-117094000D03*
X108458000Y-94234000D03*
X88646000Y-82296000D03*
X86106000Y-75946000D03*
X101849701Y-81021701D03*
X96520000Y-76708000D03*
X85344000Y-56388000D03*
X104648000Y-80518000D03*
X94742000Y-64770000D03*
X86106000Y-71882000D03*
X113538000Y-75184000D03*
X109474000Y-119126000D03*
X113538000Y-71120000D03*
X98298000Y-74930000D03*
X108458000Y-90170000D03*
X96774000Y-64770000D03*
X92710000Y-68072000D03*
X84328000Y-55118000D03*
X95250000Y-84328000D03*
X84328000Y-57658000D03*
X105156000Y-69342000D03*
X108458000Y-92202000D03*
X113538000Y-82042000D03*
X88646000Y-83566000D03*
X85090000Y-113030000D03*
X96520000Y-74930000D03*
X96520000Y-73152000D03*
X108458000Y-88138000D03*
X91186000Y-83566000D03*
X86106000Y-69596000D03*
X98298000Y-76708000D03*
%TO.N,3V3*%
X91186000Y-82042000D03*
X103124000Y-72036460D03*
X103632000Y-74676000D03*
X88392000Y-69088000D03*
X93980000Y-99314000D03*
%TO.N,1V2*%
X98552000Y-67818000D03*
X96266000Y-99314000D03*
X104140000Y-78740000D03*
X104394000Y-73660000D03*
X89154137Y-76317547D03*
X94747017Y-67812983D03*
X96266000Y-82550000D03*
X103886000Y-69088000D03*
X89154000Y-71882000D03*
%TO.N,/HPD*%
X105664000Y-59690000D03*
X103886000Y-67818000D03*
%TO.N,INT*%
X105156000Y-71374000D03*
X107188000Y-71374000D03*
%TO.N,CEC_A*%
X91186000Y-67056000D03*
X100584000Y-59944000D03*
%TD*%
D15*
%TO.N,3V3*%
X93980000Y-99314000D02*
X93980000Y-86106000D01*
D16*
X103128398Y-74172398D02*
X103632000Y-74676000D01*
X100937540Y-69850000D02*
X89154000Y-69850000D01*
X103128398Y-72040858D02*
X103128398Y-74172398D01*
D15*
X88392000Y-54102000D02*
X85090000Y-50800000D01*
D16*
X103124000Y-72036460D02*
X103128398Y-72040858D01*
X103124000Y-72036460D02*
X100937540Y-69850000D01*
D15*
X88392000Y-69088000D02*
X88392000Y-54102000D01*
X87122000Y-77978000D02*
X91186000Y-82042000D01*
X85090000Y-50800000D02*
X78740000Y-50800000D01*
X93218000Y-84074000D02*
X91186000Y-82042000D01*
X88392000Y-69088000D02*
X87122000Y-70358000D01*
X87122000Y-70358000D02*
X87122000Y-77978000D01*
X93218000Y-85344000D02*
X93218000Y-84074000D01*
X93980000Y-86106000D02*
X93218000Y-85344000D01*
D16*
X89154000Y-69850000D02*
X88392000Y-69088000D01*
%TO.N,1V2*%
X104140000Y-78740000D02*
X104140000Y-79756000D01*
X94752034Y-67818000D02*
X102616000Y-67818000D01*
X89154000Y-76317410D02*
X89154137Y-76317547D01*
D15*
X96266000Y-82550000D02*
X96266000Y-99314000D01*
D16*
X90033547Y-76317547D02*
X96266000Y-82550000D01*
X101346000Y-82550000D02*
X96266000Y-82550000D01*
X94747017Y-67812983D02*
X94752034Y-67818000D01*
X103886000Y-69088000D02*
X104394000Y-69596000D01*
X89154137Y-76317547D02*
X90033547Y-76317547D01*
X104394000Y-73660000D02*
X104394000Y-78486000D01*
X104394000Y-69596000D02*
X104394000Y-73660000D01*
X104394000Y-78486000D02*
X104140000Y-78740000D01*
X104140000Y-79756000D02*
X101346000Y-82550000D01*
X102616000Y-67818000D02*
X103886000Y-69088000D01*
X89154000Y-71882000D02*
X89154000Y-76317410D01*
%TO.N,/HPD*%
X103886000Y-61468000D02*
X103886000Y-67818000D01*
X105664000Y-59690000D02*
X103886000Y-61468000D01*
%TO.N,INT*%
X105156000Y-71374000D02*
X107188000Y-71374000D01*
%TO.N,CEC_A*%
X91186000Y-67056000D02*
X91186000Y-63246000D01*
X91186000Y-63246000D02*
X94488000Y-59944000D01*
X94488000Y-59944000D02*
X100584000Y-59944000D01*
%TD*%
%TA.AperFunction,Conductor*%
%TO.N,GND*%
G36*
X115765621Y-46248502D02*
G01*
X115812114Y-46302158D01*
X115823500Y-46354500D01*
X115823500Y-49852542D01*
X115803498Y-49920663D01*
X115749842Y-49967156D01*
X115679568Y-49977260D01*
X115614988Y-49947766D01*
X115576604Y-49888040D01*
X115571684Y-49859356D01*
X115567532Y-49782694D01*
X115561979Y-49680159D01*
X115504066Y-49326505D01*
X115408297Y-48981173D01*
X115405243Y-48973497D01*
X115300299Y-48709787D01*
X115275793Y-48648205D01*
X115225337Y-48552910D01*
X115109702Y-48334513D01*
X115109698Y-48334506D01*
X115108103Y-48331494D01*
X114907190Y-48034746D01*
X114904510Y-48031585D01*
X114811506Y-47921919D01*
X114675403Y-47761432D01*
X114415454Y-47514750D01*
X114209635Y-47357958D01*
X114133091Y-47299647D01*
X114133089Y-47299646D01*
X114130384Y-47297585D01*
X114127472Y-47295828D01*
X114127467Y-47295825D01*
X113826443Y-47114236D01*
X113826437Y-47114233D01*
X113823528Y-47112478D01*
X113498475Y-46961593D01*
X113322414Y-46902000D01*
X113162255Y-46847789D01*
X113162250Y-46847788D01*
X113159028Y-46846697D01*
X112960681Y-46802724D01*
X112812493Y-46769871D01*
X112812487Y-46769870D01*
X112809158Y-46769132D01*
X112805769Y-46768758D01*
X112805764Y-46768757D01*
X112456338Y-46730180D01*
X112456333Y-46730180D01*
X112452957Y-46729807D01*
X112449558Y-46729801D01*
X112449557Y-46729801D01*
X112280080Y-46729505D01*
X112094592Y-46729182D01*
X111981413Y-46741277D01*
X111741639Y-46766901D01*
X111741631Y-46766902D01*
X111738256Y-46767263D01*
X111388117Y-46843606D01*
X111048271Y-46957317D01*
X111045178Y-46958739D01*
X111045177Y-46958740D01*
X110864777Y-47041715D01*
X110722694Y-47107066D01*
X110719760Y-47108822D01*
X110719758Y-47108823D01*
X110428455Y-47283164D01*
X110415193Y-47291101D01*
X110412467Y-47293163D01*
X110412465Y-47293164D01*
X110161983Y-47482603D01*
X110129367Y-47507270D01*
X110126882Y-47509612D01*
X110126877Y-47509616D01*
X110029626Y-47601261D01*
X109868559Y-47753043D01*
X109635819Y-48025546D01*
X109633900Y-48028358D01*
X109633897Y-48028363D01*
X109558109Y-48139464D01*
X109433871Y-48321591D01*
X109265077Y-48637714D01*
X109131411Y-48970218D01*
X109130491Y-48973492D01*
X109130489Y-48973497D01*
X109056455Y-49236883D01*
X109034437Y-49315213D01*
X108975290Y-49668663D01*
X108954661Y-50026434D01*
X108954833Y-50029829D01*
X108954833Y-50029830D01*
X108961845Y-50168249D01*
X108972792Y-50384340D01*
X108973329Y-50387695D01*
X108973330Y-50387701D01*
X108999279Y-50549707D01*
X109029470Y-50738195D01*
X109124033Y-51083859D01*
X109255374Y-51417288D01*
X109277723Y-51459857D01*
X109397048Y-51687137D01*
X109421957Y-51734582D01*
X109423858Y-51737411D01*
X109423864Y-51737421D01*
X109536534Y-51905090D01*
X109621834Y-52032029D01*
X109852665Y-52306150D01*
X110111751Y-52553738D01*
X110396061Y-52771897D01*
X110428056Y-52791350D01*
X110699355Y-52956303D01*
X110699360Y-52956306D01*
X110702270Y-52958075D01*
X110705358Y-52959521D01*
X110705357Y-52959521D01*
X111023710Y-53108649D01*
X111023720Y-53108653D01*
X111026794Y-53110093D01*
X111030012Y-53111195D01*
X111030015Y-53111196D01*
X111362615Y-53225071D01*
X111362623Y-53225073D01*
X111365838Y-53226174D01*
X111715435Y-53304959D01*
X111767728Y-53310917D01*
X112068114Y-53345142D01*
X112068122Y-53345142D01*
X112071497Y-53345527D01*
X112074901Y-53345545D01*
X112074904Y-53345545D01*
X112269227Y-53346562D01*
X112429857Y-53347403D01*
X112433243Y-53347053D01*
X112433245Y-53347053D01*
X112782932Y-53310917D01*
X112782941Y-53310916D01*
X112786324Y-53310566D01*
X112789657Y-53309852D01*
X112789660Y-53309851D01*
X112962186Y-53272864D01*
X113136727Y-53235446D01*
X113476968Y-53122922D01*
X113803066Y-52974311D01*
X113987532Y-52864783D01*
X114108262Y-52793099D01*
X114108267Y-52793096D01*
X114111207Y-52791350D01*
X114397786Y-52576180D01*
X114659451Y-52331319D01*
X114893140Y-52059630D01*
X115000441Y-51903506D01*
X115094190Y-51767101D01*
X115094195Y-51767094D01*
X115096120Y-51764292D01*
X115097732Y-51761298D01*
X115097737Y-51761290D01*
X115250048Y-51478418D01*
X115266017Y-51448760D01*
X115361982Y-51212425D01*
X115399562Y-51119877D01*
X115399564Y-51119872D01*
X115400842Y-51116724D01*
X115411142Y-51080568D01*
X115444313Y-50964120D01*
X115499020Y-50772070D01*
X115505896Y-50731845D01*
X115558829Y-50422175D01*
X115558829Y-50422173D01*
X115559401Y-50418828D01*
X115561511Y-50384340D01*
X115571735Y-50217163D01*
X115595858Y-50150390D01*
X115652252Y-50107260D01*
X115723012Y-50101465D01*
X115785672Y-50134845D01*
X115820338Y-50196803D01*
X115823500Y-50224855D01*
X115823500Y-128905500D01*
X115803498Y-128973621D01*
X115749842Y-129020114D01*
X115697500Y-129031500D01*
X113328051Y-129031500D01*
X113259930Y-129011498D01*
X113213437Y-128957842D01*
X113203333Y-128887568D01*
X113232827Y-128822988D01*
X113275800Y-128790845D01*
X113545954Y-128667729D01*
X113549066Y-128666311D01*
X113643052Y-128610506D01*
X113854262Y-128485099D01*
X113854267Y-128485096D01*
X113857207Y-128483350D01*
X114143786Y-128268180D01*
X114405451Y-128023319D01*
X114639140Y-127751630D01*
X114745750Y-127596512D01*
X114840190Y-127459101D01*
X114840195Y-127459094D01*
X114842120Y-127456292D01*
X114843732Y-127453298D01*
X114843737Y-127453290D01*
X115010395Y-127143772D01*
X115012017Y-127140760D01*
X115146842Y-126808724D01*
X115157142Y-126772568D01*
X115226437Y-126529305D01*
X115245020Y-126464070D01*
X115305401Y-126110828D01*
X115307511Y-126076340D01*
X115324956Y-125791097D01*
X115327278Y-125753131D01*
X115327359Y-125730000D01*
X115307979Y-125372159D01*
X115250066Y-125018505D01*
X115154297Y-124673173D01*
X115151243Y-124665497D01*
X115023052Y-124343369D01*
X115021793Y-124340205D01*
X114948939Y-124202607D01*
X114855702Y-124026513D01*
X114855698Y-124026506D01*
X114854103Y-124023494D01*
X114653190Y-123726746D01*
X114421403Y-123453432D01*
X114161454Y-123206750D01*
X113876384Y-122989585D01*
X113873472Y-122987828D01*
X113873467Y-122987825D01*
X113572443Y-122806236D01*
X113572437Y-122806233D01*
X113569528Y-122804478D01*
X113244475Y-122653593D01*
X113071794Y-122595144D01*
X112908255Y-122539789D01*
X112908250Y-122539788D01*
X112905028Y-122538697D01*
X112706681Y-122494724D01*
X112558493Y-122461871D01*
X112558487Y-122461870D01*
X112555158Y-122461132D01*
X112551769Y-122460758D01*
X112551764Y-122460757D01*
X112202338Y-122422180D01*
X112202333Y-122422180D01*
X112198957Y-122421807D01*
X112195558Y-122421801D01*
X112195557Y-122421801D01*
X112026080Y-122421505D01*
X111840592Y-122421182D01*
X111727413Y-122433277D01*
X111487639Y-122458901D01*
X111487631Y-122458902D01*
X111484256Y-122459263D01*
X111134117Y-122535606D01*
X110794271Y-122649317D01*
X110791178Y-122650739D01*
X110791177Y-122650740D01*
X110784974Y-122653593D01*
X110468694Y-122799066D01*
X110465760Y-122800822D01*
X110465758Y-122800823D01*
X110192823Y-122964171D01*
X110161193Y-122983101D01*
X110158467Y-122985163D01*
X110158465Y-122985164D01*
X109941389Y-123149338D01*
X109875367Y-123199270D01*
X109872882Y-123201612D01*
X109872877Y-123201616D01*
X109803529Y-123266967D01*
X109614559Y-123445043D01*
X109381819Y-123717546D01*
X109379900Y-123720358D01*
X109379897Y-123720363D01*
X109317565Y-123811739D01*
X109179871Y-124013591D01*
X109011077Y-124329714D01*
X108877411Y-124662218D01*
X108876491Y-124665492D01*
X108876489Y-124665497D01*
X108851919Y-124752910D01*
X108780437Y-125007213D01*
X108779875Y-125010570D01*
X108779875Y-125010571D01*
X108769997Y-125069603D01*
X108721290Y-125360663D01*
X108700661Y-125718434D01*
X108718792Y-126076340D01*
X108719329Y-126079695D01*
X108719330Y-126079701D01*
X108724316Y-126110828D01*
X108775470Y-126430195D01*
X108870033Y-126775859D01*
X109001374Y-127109288D01*
X109032151Y-127167909D01*
X109158012Y-127407639D01*
X109167957Y-127426582D01*
X109169858Y-127429411D01*
X109169864Y-127429421D01*
X109353083Y-127702077D01*
X109367834Y-127724029D01*
X109598665Y-127998150D01*
X109857751Y-128245738D01*
X110142061Y-128463897D01*
X110174056Y-128483350D01*
X110445355Y-128648303D01*
X110445360Y-128648306D01*
X110448270Y-128650075D01*
X110451358Y-128651521D01*
X110451357Y-128651521D01*
X110749963Y-128791398D01*
X110803166Y-128838408D01*
X110822508Y-128906719D01*
X110801848Y-128974643D01*
X110747745Y-129020615D01*
X110696514Y-129031500D01*
X74294500Y-129031500D01*
X74226379Y-129011498D01*
X74179886Y-128957842D01*
X74168500Y-128905500D01*
X74168500Y-126966695D01*
X74837251Y-126966695D01*
X74837548Y-126971848D01*
X74837548Y-126971851D01*
X74847105Y-127137594D01*
X74850110Y-127189715D01*
X74851247Y-127194761D01*
X74851248Y-127194767D01*
X74871119Y-127282939D01*
X74899222Y-127407639D01*
X74983266Y-127614616D01*
X75034019Y-127697438D01*
X75097291Y-127800688D01*
X75099987Y-127805088D01*
X75246250Y-127973938D01*
X75418126Y-128116632D01*
X75611000Y-128229338D01*
X75819692Y-128309030D01*
X75824760Y-128310061D01*
X75824763Y-128310062D01*
X75932017Y-128331883D01*
X76038597Y-128353567D01*
X76043772Y-128353757D01*
X76043774Y-128353757D01*
X76256673Y-128361564D01*
X76256677Y-128361564D01*
X76261837Y-128361753D01*
X76266957Y-128361097D01*
X76266959Y-128361097D01*
X76478288Y-128334025D01*
X76478289Y-128334025D01*
X76483416Y-128333368D01*
X76488366Y-128331883D01*
X76692429Y-128270661D01*
X76692434Y-128270659D01*
X76697384Y-128269174D01*
X76897994Y-128170896D01*
X77079860Y-128041173D01*
X77095446Y-128025642D01*
X77234435Y-127887137D01*
X77238096Y-127883489D01*
X77297594Y-127800689D01*
X77368453Y-127702077D01*
X77369776Y-127703028D01*
X77416645Y-127659857D01*
X77486580Y-127647625D01*
X77552026Y-127675144D01*
X77579875Y-127706994D01*
X77639987Y-127805088D01*
X77786250Y-127973938D01*
X77958126Y-128116632D01*
X78151000Y-128229338D01*
X78359692Y-128309030D01*
X78364760Y-128310061D01*
X78364763Y-128310062D01*
X78472017Y-128331883D01*
X78578597Y-128353567D01*
X78583772Y-128353757D01*
X78583774Y-128353757D01*
X78796673Y-128361564D01*
X78796677Y-128361564D01*
X78801837Y-128361753D01*
X78806957Y-128361097D01*
X78806959Y-128361097D01*
X79018288Y-128334025D01*
X79018289Y-128334025D01*
X79023416Y-128333368D01*
X79028366Y-128331883D01*
X79232429Y-128270661D01*
X79232434Y-128270659D01*
X79237384Y-128269174D01*
X79437994Y-128170896D01*
X79619860Y-128041173D01*
X79635446Y-128025642D01*
X79774435Y-127887137D01*
X79778096Y-127883489D01*
X79837594Y-127800689D01*
X79905435Y-127706277D01*
X79908453Y-127702077D01*
X79929320Y-127659857D01*
X80005136Y-127506453D01*
X80005137Y-127506451D01*
X80007430Y-127501811D01*
X80072370Y-127288069D01*
X80101529Y-127066590D01*
X80103156Y-127000000D01*
X80084852Y-126777361D01*
X80030431Y-126560702D01*
X79941354Y-126355840D01*
X79820014Y-126168277D01*
X79669670Y-126003051D01*
X79665619Y-125999852D01*
X79665615Y-125999848D01*
X79498414Y-125867800D01*
X79498410Y-125867798D01*
X79494359Y-125864598D01*
X79452569Y-125841529D01*
X79402598Y-125791097D01*
X79387826Y-125721654D01*
X79412942Y-125655248D01*
X79440294Y-125628641D01*
X79615328Y-125503792D01*
X79623200Y-125497139D01*
X79774052Y-125346812D01*
X79780730Y-125338965D01*
X79905003Y-125166020D01*
X79910313Y-125157183D01*
X80004670Y-124966267D01*
X80008469Y-124956672D01*
X80070377Y-124752910D01*
X80072555Y-124742837D01*
X80073986Y-124731962D01*
X80071775Y-124717778D01*
X80058617Y-124714000D01*
X74883225Y-124714000D01*
X74869694Y-124717973D01*
X74868257Y-124727966D01*
X74898565Y-124862446D01*
X74901645Y-124872275D01*
X74981770Y-125069603D01*
X74986413Y-125078794D01*
X75097694Y-125260388D01*
X75103777Y-125268699D01*
X75243213Y-125429667D01*
X75250580Y-125436883D01*
X75414434Y-125572916D01*
X75422881Y-125578831D01*
X75491969Y-125619203D01*
X75540693Y-125670842D01*
X75553764Y-125740625D01*
X75527033Y-125806396D01*
X75486584Y-125839752D01*
X75473607Y-125846507D01*
X75469474Y-125849610D01*
X75469471Y-125849612D01*
X75445247Y-125867800D01*
X75294965Y-125980635D01*
X75291393Y-125984373D01*
X75170550Y-126110828D01*
X75140629Y-126142138D01*
X75014743Y-126326680D01*
X74920688Y-126529305D01*
X74860989Y-126744570D01*
X74837251Y-126966695D01*
X74168500Y-126966695D01*
X74168500Y-121886695D01*
X74837251Y-121886695D01*
X74837548Y-121891848D01*
X74837548Y-121891851D01*
X74843011Y-121986590D01*
X74850110Y-122109715D01*
X74851247Y-122114761D01*
X74851248Y-122114767D01*
X74871119Y-122202939D01*
X74899222Y-122327639D01*
X74983266Y-122534616D01*
X75034019Y-122617438D01*
X75097291Y-122720688D01*
X75099987Y-122725088D01*
X75246250Y-122893938D01*
X75418126Y-123036632D01*
X75491955Y-123079774D01*
X75540679Y-123131412D01*
X75553750Y-123201195D01*
X75527019Y-123266967D01*
X75486562Y-123300327D01*
X75478457Y-123304546D01*
X75469738Y-123310036D01*
X75299433Y-123437905D01*
X75291726Y-123444748D01*
X75144590Y-123598717D01*
X75138104Y-123606727D01*
X75018098Y-123782649D01*
X75013000Y-123791623D01*
X74923338Y-123984783D01*
X74919775Y-123994470D01*
X74864389Y-124194183D01*
X74865912Y-124202607D01*
X74878292Y-124206000D01*
X80058344Y-124206000D01*
X80071875Y-124202027D01*
X80073180Y-124192947D01*
X80031214Y-124025875D01*
X80027894Y-124016124D01*
X79942972Y-123820814D01*
X79938105Y-123811739D01*
X79822426Y-123632926D01*
X79816136Y-123624757D01*
X79672806Y-123467240D01*
X79665273Y-123460215D01*
X79498139Y-123328222D01*
X79489556Y-123322520D01*
X79452602Y-123302120D01*
X79402631Y-123251687D01*
X79387859Y-123182245D01*
X79412975Y-123115839D01*
X79440327Y-123089232D01*
X79463797Y-123072491D01*
X79619860Y-122961173D01*
X79778096Y-122803489D01*
X79837594Y-122720689D01*
X79905435Y-122626277D01*
X79908453Y-122622077D01*
X79929320Y-122579857D01*
X80005136Y-122426453D01*
X80005137Y-122426451D01*
X80007430Y-122421811D01*
X80072370Y-122208069D01*
X80101529Y-121986590D01*
X80103156Y-121920000D01*
X80084852Y-121697361D01*
X80030431Y-121480702D01*
X79941354Y-121275840D01*
X79820014Y-121088277D01*
X79669670Y-120923051D01*
X79665619Y-120919852D01*
X79665615Y-120919848D01*
X79498414Y-120787800D01*
X79498410Y-120787798D01*
X79494359Y-120784598D01*
X79453053Y-120761796D01*
X79403084Y-120711364D01*
X79388312Y-120641921D01*
X79413428Y-120575516D01*
X79440780Y-120548909D01*
X79484603Y-120517650D01*
X79619860Y-120421173D01*
X79778096Y-120263489D01*
X79837594Y-120180689D01*
X79905435Y-120086277D01*
X79908453Y-120082077D01*
X79929320Y-120039857D01*
X80005136Y-119886453D01*
X80005137Y-119886451D01*
X80007430Y-119881811D01*
X80072370Y-119668069D01*
X80101529Y-119446590D01*
X80103156Y-119380000D01*
X80084852Y-119157361D01*
X80030431Y-118940702D01*
X79941354Y-118735840D01*
X79820014Y-118548277D01*
X79669670Y-118383051D01*
X79665619Y-118379852D01*
X79665615Y-118379848D01*
X79498414Y-118247800D01*
X79498410Y-118247798D01*
X79494359Y-118244598D01*
X79453053Y-118221796D01*
X79403084Y-118171364D01*
X79388312Y-118101921D01*
X79413428Y-118035516D01*
X79440780Y-118008909D01*
X79484603Y-117977650D01*
X79619860Y-117881173D01*
X79778096Y-117723489D01*
X79837594Y-117640689D01*
X79905435Y-117546277D01*
X79908453Y-117542077D01*
X79929320Y-117499857D01*
X80005136Y-117346453D01*
X80005137Y-117346451D01*
X80007430Y-117341811D01*
X80072370Y-117128069D01*
X80101529Y-116906590D01*
X80103156Y-116840000D01*
X80084852Y-116617361D01*
X80030431Y-116400702D01*
X79941354Y-116195840D01*
X79820014Y-116008277D01*
X79669670Y-115843051D01*
X79665619Y-115839852D01*
X79665615Y-115839848D01*
X79498414Y-115707800D01*
X79498410Y-115707798D01*
X79494359Y-115704598D01*
X79453053Y-115681796D01*
X79403084Y-115631364D01*
X79388312Y-115561921D01*
X79413428Y-115495516D01*
X79440780Y-115468909D01*
X79484603Y-115437650D01*
X79619860Y-115341173D01*
X79778096Y-115183489D01*
X79837594Y-115100689D01*
X79905435Y-115006277D01*
X79908453Y-115002077D01*
X79929320Y-114959857D01*
X80005136Y-114806453D01*
X80005137Y-114806451D01*
X80007430Y-114801811D01*
X80072370Y-114588069D01*
X80101529Y-114366590D01*
X80103156Y-114300000D01*
X80084852Y-114077361D01*
X80030431Y-113860702D01*
X79941354Y-113655840D01*
X79820014Y-113468277D01*
X79669670Y-113303051D01*
X79665619Y-113299852D01*
X79665615Y-113299848D01*
X79498414Y-113167800D01*
X79498410Y-113167798D01*
X79494359Y-113164598D01*
X79453053Y-113141796D01*
X79403084Y-113091364D01*
X79388312Y-113021921D01*
X79413428Y-112955516D01*
X79440780Y-112928909D01*
X79484603Y-112897650D01*
X79619860Y-112801173D01*
X79778096Y-112643489D01*
X79837594Y-112560689D01*
X79905435Y-112466277D01*
X79908453Y-112462077D01*
X79929320Y-112419857D01*
X80005136Y-112266453D01*
X80005137Y-112266451D01*
X80007430Y-112261811D01*
X80072370Y-112048069D01*
X80101529Y-111826590D01*
X80103156Y-111760000D01*
X80084852Y-111537361D01*
X80030431Y-111320702D01*
X79941354Y-111115840D01*
X79820014Y-110928277D01*
X79669670Y-110763051D01*
X79665619Y-110759852D01*
X79665615Y-110759848D01*
X79498414Y-110627800D01*
X79498410Y-110627798D01*
X79494359Y-110624598D01*
X79453053Y-110601796D01*
X79403084Y-110551364D01*
X79388312Y-110481921D01*
X79413428Y-110415516D01*
X79440780Y-110388909D01*
X79484603Y-110357650D01*
X79619860Y-110261173D01*
X79778096Y-110103489D01*
X79837594Y-110020689D01*
X79905435Y-109926277D01*
X79908453Y-109922077D01*
X79929320Y-109879857D01*
X80005136Y-109726453D01*
X80005137Y-109726451D01*
X80007430Y-109721811D01*
X80072370Y-109508069D01*
X80101529Y-109286590D01*
X80103156Y-109220000D01*
X80084852Y-108997361D01*
X80030431Y-108780702D01*
X79941354Y-108575840D01*
X79820014Y-108388277D01*
X79669670Y-108223051D01*
X79665619Y-108219852D01*
X79665615Y-108219848D01*
X79498414Y-108087800D01*
X79498410Y-108087798D01*
X79494359Y-108084598D01*
X79453053Y-108061796D01*
X79403084Y-108011364D01*
X79388312Y-107941921D01*
X79413428Y-107875516D01*
X79440780Y-107848909D01*
X79484603Y-107817650D01*
X79619860Y-107721173D01*
X79778096Y-107563489D01*
X79837594Y-107480689D01*
X79905435Y-107386277D01*
X79908453Y-107382077D01*
X79929320Y-107339857D01*
X80005136Y-107186453D01*
X80005137Y-107186451D01*
X80007430Y-107181811D01*
X80072370Y-106968069D01*
X80101529Y-106746590D01*
X80103156Y-106680000D01*
X80084852Y-106457361D01*
X80030431Y-106240702D01*
X79941354Y-106035840D01*
X79820014Y-105848277D01*
X79669670Y-105683051D01*
X79665619Y-105679852D01*
X79665615Y-105679848D01*
X79498414Y-105547800D01*
X79498410Y-105547798D01*
X79494359Y-105544598D01*
X79453053Y-105521796D01*
X79403084Y-105471364D01*
X79388312Y-105401921D01*
X79413428Y-105335516D01*
X79440780Y-105308909D01*
X79484603Y-105277650D01*
X79619860Y-105181173D01*
X79778096Y-105023489D01*
X79837594Y-104940689D01*
X79905435Y-104846277D01*
X79908453Y-104842077D01*
X79929320Y-104799857D01*
X80005136Y-104646453D01*
X80005137Y-104646451D01*
X80007430Y-104641811D01*
X80072370Y-104428069D01*
X80101529Y-104206590D01*
X80103156Y-104140000D01*
X80084852Y-103917361D01*
X80030431Y-103700702D01*
X79941354Y-103495840D01*
X79820014Y-103308277D01*
X79669670Y-103143051D01*
X79665619Y-103139852D01*
X79665615Y-103139848D01*
X79498414Y-103007800D01*
X79498410Y-103007798D01*
X79494359Y-103004598D01*
X79453053Y-102981796D01*
X79403084Y-102931364D01*
X79388312Y-102861921D01*
X79413428Y-102795516D01*
X79440780Y-102768909D01*
X79484603Y-102737650D01*
X79619860Y-102641173D01*
X79778096Y-102483489D01*
X79837594Y-102400689D01*
X79905435Y-102306277D01*
X79908453Y-102302077D01*
X79929320Y-102259857D01*
X80005136Y-102106453D01*
X80005137Y-102106451D01*
X80007430Y-102101811D01*
X80072370Y-101888069D01*
X80101529Y-101666590D01*
X80103156Y-101600000D01*
X80084852Y-101377361D01*
X80030431Y-101160702D01*
X79941354Y-100955840D01*
X79820014Y-100768277D01*
X79669670Y-100603051D01*
X79665619Y-100599852D01*
X79665615Y-100599848D01*
X79498414Y-100467800D01*
X79498410Y-100467798D01*
X79494359Y-100464598D01*
X79453053Y-100441796D01*
X79403084Y-100391364D01*
X79388312Y-100321921D01*
X79413428Y-100255516D01*
X79440780Y-100228909D01*
X79509195Y-100180109D01*
X79619860Y-100101173D01*
X79778096Y-99943489D01*
X79837594Y-99860689D01*
X79905435Y-99766277D01*
X79908453Y-99762077D01*
X79929320Y-99719857D01*
X80005136Y-99566453D01*
X80005137Y-99566451D01*
X80007430Y-99561811D01*
X80072370Y-99348069D01*
X80101529Y-99126590D01*
X80103156Y-99060000D01*
X80084852Y-98837361D01*
X80030431Y-98620702D01*
X79941354Y-98415840D01*
X79820014Y-98228277D01*
X79669670Y-98063051D01*
X79665619Y-98059852D01*
X79665615Y-98059848D01*
X79498414Y-97927800D01*
X79498410Y-97927798D01*
X79494359Y-97924598D01*
X79453053Y-97901796D01*
X79403084Y-97851364D01*
X79388312Y-97781921D01*
X79413428Y-97715516D01*
X79440780Y-97688909D01*
X79484603Y-97657650D01*
X79619860Y-97561173D01*
X79778096Y-97403489D01*
X79837594Y-97320689D01*
X79905435Y-97226277D01*
X79908453Y-97222077D01*
X79929320Y-97179857D01*
X80005136Y-97026453D01*
X80005137Y-97026451D01*
X80007430Y-97021811D01*
X80072370Y-96808069D01*
X80101529Y-96586590D01*
X80103156Y-96520000D01*
X80084852Y-96297361D01*
X80030431Y-96080702D01*
X79941354Y-95875840D01*
X79820014Y-95688277D01*
X79669670Y-95523051D01*
X79665619Y-95519852D01*
X79665615Y-95519848D01*
X79498414Y-95387800D01*
X79498410Y-95387798D01*
X79494359Y-95384598D01*
X79453053Y-95361796D01*
X79403084Y-95311364D01*
X79388312Y-95241921D01*
X79413428Y-95175516D01*
X79440780Y-95148909D01*
X79484603Y-95117650D01*
X79619860Y-95021173D01*
X79778096Y-94863489D01*
X79837594Y-94780689D01*
X79905435Y-94686277D01*
X79908453Y-94682077D01*
X79929320Y-94639857D01*
X80005136Y-94486453D01*
X80005137Y-94486451D01*
X80007430Y-94481811D01*
X80072370Y-94268069D01*
X80101529Y-94046590D01*
X80103156Y-93980000D01*
X80084852Y-93757361D01*
X80030431Y-93540702D01*
X79941354Y-93335840D01*
X79820014Y-93148277D01*
X79669670Y-92983051D01*
X79665619Y-92979852D01*
X79665615Y-92979848D01*
X79498414Y-92847800D01*
X79498410Y-92847798D01*
X79494359Y-92844598D01*
X79453053Y-92821796D01*
X79403084Y-92771364D01*
X79388312Y-92701921D01*
X79413428Y-92635516D01*
X79440780Y-92608909D01*
X79484603Y-92577650D01*
X79619860Y-92481173D01*
X79778096Y-92323489D01*
X79837594Y-92240689D01*
X79905435Y-92146277D01*
X79908453Y-92142077D01*
X79929320Y-92099857D01*
X80005136Y-91946453D01*
X80005137Y-91946451D01*
X80007430Y-91941811D01*
X80072370Y-91728069D01*
X80101529Y-91506590D01*
X80103156Y-91440000D01*
X80084852Y-91217361D01*
X80030431Y-91000702D01*
X79941354Y-90795840D01*
X79820014Y-90608277D01*
X79669670Y-90443051D01*
X79665619Y-90439852D01*
X79665615Y-90439848D01*
X79498414Y-90307800D01*
X79498410Y-90307798D01*
X79494359Y-90304598D01*
X79453053Y-90281796D01*
X79403084Y-90231364D01*
X79388312Y-90161921D01*
X79413428Y-90095516D01*
X79440780Y-90068909D01*
X79484603Y-90037650D01*
X79619860Y-89941173D01*
X79778096Y-89783489D01*
X79837594Y-89700689D01*
X79905435Y-89606277D01*
X79908453Y-89602077D01*
X79929320Y-89559857D01*
X80005136Y-89406453D01*
X80005137Y-89406451D01*
X80007430Y-89401811D01*
X80072370Y-89188069D01*
X80101529Y-88966590D01*
X80103156Y-88900000D01*
X80084852Y-88677361D01*
X80030431Y-88460702D01*
X79941354Y-88255840D01*
X79820014Y-88068277D01*
X79669670Y-87903051D01*
X79665619Y-87899852D01*
X79665615Y-87899848D01*
X79498414Y-87767800D01*
X79498410Y-87767798D01*
X79494359Y-87764598D01*
X79453053Y-87741796D01*
X79403084Y-87691364D01*
X79388312Y-87621921D01*
X79413428Y-87555516D01*
X79440780Y-87528909D01*
X79484603Y-87497650D01*
X79619860Y-87401173D01*
X79778096Y-87243489D01*
X79837594Y-87160689D01*
X79905435Y-87066277D01*
X79908453Y-87062077D01*
X79929320Y-87019857D01*
X80005136Y-86866453D01*
X80005137Y-86866451D01*
X80007430Y-86861811D01*
X80072370Y-86648069D01*
X80101529Y-86426590D01*
X80103156Y-86360000D01*
X80084852Y-86137361D01*
X80030431Y-85920702D01*
X79941354Y-85715840D01*
X79874058Y-85611816D01*
X79822822Y-85532617D01*
X79822820Y-85532614D01*
X79820014Y-85528277D01*
X79669670Y-85363051D01*
X79665619Y-85359852D01*
X79665615Y-85359848D01*
X79498414Y-85227800D01*
X79498410Y-85227798D01*
X79494359Y-85224598D01*
X79453053Y-85201796D01*
X79403084Y-85151364D01*
X79388312Y-85081921D01*
X79413428Y-85015516D01*
X79440780Y-84988909D01*
X79484603Y-84957650D01*
X79619860Y-84861173D01*
X79778096Y-84703489D01*
X79837594Y-84620689D01*
X79905435Y-84526277D01*
X79908453Y-84522077D01*
X79929320Y-84479857D01*
X80005136Y-84326453D01*
X80005137Y-84326451D01*
X80007430Y-84321811D01*
X80072370Y-84108069D01*
X80101529Y-83886590D01*
X80103156Y-83820000D01*
X80084852Y-83597361D01*
X80030431Y-83380702D01*
X79941354Y-83175840D01*
X79845311Y-83027380D01*
X79822822Y-82992617D01*
X79822820Y-82992614D01*
X79820014Y-82988277D01*
X79669670Y-82823051D01*
X79665619Y-82819852D01*
X79665615Y-82819848D01*
X79498414Y-82687800D01*
X79498410Y-82687798D01*
X79494359Y-82684598D01*
X79453053Y-82661796D01*
X79403084Y-82611364D01*
X79388312Y-82541921D01*
X79413428Y-82475516D01*
X79440780Y-82448909D01*
X79499154Y-82407271D01*
X79619860Y-82321173D01*
X79778096Y-82163489D01*
X79794360Y-82140856D01*
X79905435Y-81986277D01*
X79908453Y-81982077D01*
X79912102Y-81974695D01*
X80005136Y-81786453D01*
X80005137Y-81786451D01*
X80007430Y-81781811D01*
X80072370Y-81568069D01*
X80101529Y-81346590D01*
X80103156Y-81280000D01*
X80084852Y-81057361D01*
X80030431Y-80840702D01*
X79941354Y-80635840D01*
X79820014Y-80448277D01*
X79669670Y-80283051D01*
X79665619Y-80279852D01*
X79665615Y-80279848D01*
X79498414Y-80147800D01*
X79498410Y-80147798D01*
X79494359Y-80144598D01*
X79453053Y-80121796D01*
X79403084Y-80071364D01*
X79388312Y-80001921D01*
X79413428Y-79935516D01*
X79440780Y-79908909D01*
X79484603Y-79877650D01*
X79619860Y-79781173D01*
X79778096Y-79623489D01*
X79837594Y-79540689D01*
X79905435Y-79446277D01*
X79908453Y-79442077D01*
X79929320Y-79399857D01*
X80005136Y-79246453D01*
X80005137Y-79246451D01*
X80007430Y-79241811D01*
X80072370Y-79028069D01*
X80101529Y-78806590D01*
X80103156Y-78740000D01*
X80084852Y-78517361D01*
X80030431Y-78300702D01*
X79941354Y-78095840D01*
X79849189Y-77953375D01*
X79822822Y-77912617D01*
X79822820Y-77912614D01*
X79820014Y-77908277D01*
X79669670Y-77743051D01*
X79665619Y-77739852D01*
X79665615Y-77739848D01*
X79498414Y-77607800D01*
X79498410Y-77607798D01*
X79494359Y-77604598D01*
X79453053Y-77581796D01*
X79403084Y-77531364D01*
X79388312Y-77461921D01*
X79413428Y-77395516D01*
X79440780Y-77368909D01*
X79484603Y-77337650D01*
X79619860Y-77241173D01*
X79778096Y-77083489D01*
X79837594Y-77000689D01*
X79905435Y-76906277D01*
X79908453Y-76902077D01*
X79929320Y-76859857D01*
X80005136Y-76706453D01*
X80005137Y-76706451D01*
X80007430Y-76701811D01*
X80072370Y-76488069D01*
X80101529Y-76266590D01*
X80103156Y-76200000D01*
X80084852Y-75977361D01*
X80030431Y-75760702D01*
X79941354Y-75555840D01*
X79820014Y-75368277D01*
X79669670Y-75203051D01*
X79665619Y-75199852D01*
X79665615Y-75199848D01*
X79498414Y-75067800D01*
X79498410Y-75067798D01*
X79494359Y-75064598D01*
X79453053Y-75041796D01*
X79403084Y-74991364D01*
X79388312Y-74921921D01*
X79413428Y-74855516D01*
X79440780Y-74828909D01*
X79484603Y-74797650D01*
X79619860Y-74701173D01*
X79778096Y-74543489D01*
X79823707Y-74480015D01*
X79905435Y-74366277D01*
X79908453Y-74362077D01*
X79929320Y-74319857D01*
X80005136Y-74166453D01*
X80005137Y-74166451D01*
X80007430Y-74161811D01*
X80072370Y-73948069D01*
X80101529Y-73726590D01*
X80103156Y-73660000D01*
X80084852Y-73437361D01*
X80030431Y-73220702D01*
X79941354Y-73015840D01*
X79820014Y-72828277D01*
X79669670Y-72663051D01*
X79665619Y-72659852D01*
X79665615Y-72659848D01*
X79498414Y-72527800D01*
X79498410Y-72527798D01*
X79494359Y-72524598D01*
X79453053Y-72501796D01*
X79403084Y-72451364D01*
X79388312Y-72381921D01*
X79413428Y-72315516D01*
X79440780Y-72288909D01*
X79509195Y-72240109D01*
X79619860Y-72161173D01*
X79778096Y-72003489D01*
X79837594Y-71920689D01*
X79905435Y-71826277D01*
X79908453Y-71822077D01*
X79929320Y-71779857D01*
X80005136Y-71626453D01*
X80005137Y-71626451D01*
X80007430Y-71621811D01*
X80072370Y-71408069D01*
X80101529Y-71186590D01*
X80101926Y-71170351D01*
X80103074Y-71123365D01*
X80103074Y-71123361D01*
X80103156Y-71120000D01*
X80084852Y-70897361D01*
X80030431Y-70680702D01*
X79941354Y-70475840D01*
X79873146Y-70370407D01*
X79822822Y-70292617D01*
X79822820Y-70292614D01*
X79820014Y-70288277D01*
X79669670Y-70123051D01*
X79665619Y-70119852D01*
X79665615Y-70119848D01*
X79498414Y-69987800D01*
X79498410Y-69987798D01*
X79494359Y-69984598D01*
X79453053Y-69961796D01*
X79403084Y-69911364D01*
X79388312Y-69841921D01*
X79413428Y-69775516D01*
X79440780Y-69748909D01*
X79484603Y-69717650D01*
X79619860Y-69621173D01*
X79778096Y-69463489D01*
X79786710Y-69451502D01*
X79905435Y-69286277D01*
X79908453Y-69282077D01*
X79919305Y-69260121D01*
X80005136Y-69086453D01*
X80005137Y-69086451D01*
X80007430Y-69081811D01*
X80072370Y-68868069D01*
X80101529Y-68646590D01*
X80102502Y-68606786D01*
X80103074Y-68583365D01*
X80103074Y-68583361D01*
X80103156Y-68580000D01*
X80084852Y-68357361D01*
X80030431Y-68140702D01*
X79941354Y-67935840D01*
X79820014Y-67748277D01*
X79669670Y-67583051D01*
X79665619Y-67579852D01*
X79665615Y-67579848D01*
X79498414Y-67447800D01*
X79498410Y-67447798D01*
X79494359Y-67444598D01*
X79453053Y-67421796D01*
X79403084Y-67371364D01*
X79388312Y-67301921D01*
X79413428Y-67235516D01*
X79440780Y-67208909D01*
X79503962Y-67163842D01*
X79619860Y-67081173D01*
X79670447Y-67030763D01*
X79701209Y-67000107D01*
X79778096Y-66923489D01*
X79837594Y-66840689D01*
X79905435Y-66746277D01*
X79908453Y-66742077D01*
X79929320Y-66699857D01*
X80005136Y-66546453D01*
X80005137Y-66546451D01*
X80007430Y-66541811D01*
X80072370Y-66328069D01*
X80101529Y-66106590D01*
X80103156Y-66040000D01*
X80084852Y-65817361D01*
X80030431Y-65600702D01*
X79941354Y-65395840D01*
X79820014Y-65208277D01*
X79669670Y-65043051D01*
X79665619Y-65039852D01*
X79665615Y-65039848D01*
X79498414Y-64907800D01*
X79498410Y-64907798D01*
X79494359Y-64904598D01*
X79453053Y-64881796D01*
X79403084Y-64831364D01*
X79388312Y-64761921D01*
X79413428Y-64695516D01*
X79440780Y-64668909D01*
X79484603Y-64637650D01*
X79619860Y-64541173D01*
X79778096Y-64383489D01*
X79837594Y-64300689D01*
X79905435Y-64206277D01*
X79908453Y-64202077D01*
X79929320Y-64159857D01*
X80005136Y-64006453D01*
X80005137Y-64006451D01*
X80007430Y-64001811D01*
X80072370Y-63788069D01*
X80101529Y-63566590D01*
X80103156Y-63500000D01*
X80084852Y-63277361D01*
X80030431Y-63060702D01*
X79941354Y-62855840D01*
X79820014Y-62668277D01*
X79669670Y-62503051D01*
X79665619Y-62499852D01*
X79665615Y-62499848D01*
X79498414Y-62367800D01*
X79498410Y-62367798D01*
X79494359Y-62364598D01*
X79453053Y-62341796D01*
X79403084Y-62291364D01*
X79388312Y-62221921D01*
X79413428Y-62155516D01*
X79440780Y-62128909D01*
X79484603Y-62097650D01*
X79619860Y-62001173D01*
X79778096Y-61843489D01*
X79837594Y-61760689D01*
X79905435Y-61666277D01*
X79908453Y-61662077D01*
X79929320Y-61619857D01*
X80005136Y-61466453D01*
X80005137Y-61466451D01*
X80007430Y-61461811D01*
X80072370Y-61248069D01*
X80101529Y-61026590D01*
X80103156Y-60960000D01*
X80084852Y-60737361D01*
X80030431Y-60520702D01*
X79941354Y-60315840D01*
X79883845Y-60226944D01*
X79822822Y-60132617D01*
X79822820Y-60132614D01*
X79820014Y-60128277D01*
X79669670Y-59963051D01*
X79665619Y-59959852D01*
X79665615Y-59959848D01*
X79498414Y-59827800D01*
X79498410Y-59827798D01*
X79494359Y-59824598D01*
X79453053Y-59801796D01*
X79403084Y-59751364D01*
X79388312Y-59681921D01*
X79413428Y-59615516D01*
X79440780Y-59588909D01*
X79484603Y-59557650D01*
X79619860Y-59461173D01*
X79636026Y-59445064D01*
X79739651Y-59341800D01*
X79778096Y-59303489D01*
X79837594Y-59220689D01*
X79905435Y-59126277D01*
X79908453Y-59122077D01*
X79929320Y-59079857D01*
X80005136Y-58926453D01*
X80005137Y-58926451D01*
X80007430Y-58921811D01*
X80072370Y-58708069D01*
X80101529Y-58486590D01*
X80103156Y-58420000D01*
X80084852Y-58197361D01*
X80030431Y-57980702D01*
X79941354Y-57775840D01*
X79901906Y-57714862D01*
X79822822Y-57592617D01*
X79822820Y-57592614D01*
X79820014Y-57588277D01*
X79669670Y-57423051D01*
X79665619Y-57419852D01*
X79665615Y-57419848D01*
X79498414Y-57287800D01*
X79498410Y-57287798D01*
X79494359Y-57284598D01*
X79453053Y-57261796D01*
X79403084Y-57211364D01*
X79388312Y-57141921D01*
X79413428Y-57075516D01*
X79440780Y-57048909D01*
X79484603Y-57017650D01*
X79619860Y-56921173D01*
X79778096Y-56763489D01*
X79797855Y-56735992D01*
X79905435Y-56586277D01*
X79908453Y-56582077D01*
X79929320Y-56539857D01*
X80005136Y-56386453D01*
X80005137Y-56386451D01*
X80007430Y-56381811D01*
X80072370Y-56168069D01*
X80101529Y-55946590D01*
X80103156Y-55880000D01*
X80084852Y-55657361D01*
X80030431Y-55440702D01*
X79941354Y-55235840D01*
X79820014Y-55048277D01*
X79669670Y-54883051D01*
X79665619Y-54879852D01*
X79665615Y-54879848D01*
X79498414Y-54747800D01*
X79498410Y-54747798D01*
X79494359Y-54744598D01*
X79452569Y-54721529D01*
X79402598Y-54671097D01*
X79387826Y-54601654D01*
X79412942Y-54535248D01*
X79440294Y-54508641D01*
X79615328Y-54383792D01*
X79623200Y-54377139D01*
X79774052Y-54226812D01*
X79780730Y-54218965D01*
X79905003Y-54046020D01*
X79910313Y-54037183D01*
X80004670Y-53846267D01*
X80008469Y-53836672D01*
X80070377Y-53632910D01*
X80072555Y-53622837D01*
X80073986Y-53611962D01*
X80071775Y-53597778D01*
X80058617Y-53594000D01*
X74883225Y-53594000D01*
X74869694Y-53597973D01*
X74868257Y-53607966D01*
X74898565Y-53742446D01*
X74901645Y-53752275D01*
X74981770Y-53949603D01*
X74986413Y-53958794D01*
X75097694Y-54140388D01*
X75103777Y-54148699D01*
X75243213Y-54309667D01*
X75250580Y-54316883D01*
X75414434Y-54452916D01*
X75422881Y-54458831D01*
X75491969Y-54499203D01*
X75540693Y-54550842D01*
X75553764Y-54620625D01*
X75527033Y-54686396D01*
X75486584Y-54719752D01*
X75473607Y-54726507D01*
X75469474Y-54729610D01*
X75469471Y-54729612D01*
X75416865Y-54769110D01*
X75294965Y-54860635D01*
X75140629Y-55022138D01*
X75014743Y-55206680D01*
X74920688Y-55409305D01*
X74860989Y-55624570D01*
X74837251Y-55846695D01*
X74837548Y-55851848D01*
X74837548Y-55851851D01*
X74843011Y-55946590D01*
X74850110Y-56069715D01*
X74851247Y-56074761D01*
X74851248Y-56074767D01*
X74871119Y-56162939D01*
X74899222Y-56287639D01*
X74983266Y-56494616D01*
X75034019Y-56577438D01*
X75097291Y-56680688D01*
X75099987Y-56685088D01*
X75246250Y-56853938D01*
X75418126Y-56996632D01*
X75488595Y-57037811D01*
X75491445Y-57039476D01*
X75540169Y-57091114D01*
X75553240Y-57160897D01*
X75526509Y-57226669D01*
X75486055Y-57260027D01*
X75473607Y-57266507D01*
X75469474Y-57269610D01*
X75469471Y-57269612D01*
X75445247Y-57287800D01*
X75294965Y-57400635D01*
X75140629Y-57562138D01*
X75014743Y-57746680D01*
X74920688Y-57949305D01*
X74860989Y-58164570D01*
X74837251Y-58386695D01*
X74837548Y-58391848D01*
X74837548Y-58391851D01*
X74843011Y-58486590D01*
X74850110Y-58609715D01*
X74851247Y-58614761D01*
X74851248Y-58614767D01*
X74871119Y-58702939D01*
X74899222Y-58827639D01*
X74983266Y-59034616D01*
X75034019Y-59117438D01*
X75097291Y-59220688D01*
X75099987Y-59225088D01*
X75246250Y-59393938D01*
X75418126Y-59536632D01*
X75479411Y-59572444D01*
X75491445Y-59579476D01*
X75540169Y-59631114D01*
X75553240Y-59700897D01*
X75526509Y-59766669D01*
X75486055Y-59800027D01*
X75473607Y-59806507D01*
X75469474Y-59809610D01*
X75469471Y-59809612D01*
X75299227Y-59937435D01*
X75294965Y-59940635D01*
X75140629Y-60102138D01*
X75014743Y-60286680D01*
X74999003Y-60320590D01*
X74926290Y-60477237D01*
X74920688Y-60489305D01*
X74860989Y-60704570D01*
X74837251Y-60926695D01*
X74837548Y-60931848D01*
X74837548Y-60931851D01*
X74849720Y-61142959D01*
X74850110Y-61149715D01*
X74851247Y-61154761D01*
X74851248Y-61154767D01*
X74868866Y-61232940D01*
X74899222Y-61367639D01*
X74983266Y-61574616D01*
X75034019Y-61657438D01*
X75097291Y-61760688D01*
X75099987Y-61765088D01*
X75246250Y-61933938D01*
X75418126Y-62076632D01*
X75488595Y-62117811D01*
X75491445Y-62119476D01*
X75540169Y-62171114D01*
X75553240Y-62240897D01*
X75526509Y-62306669D01*
X75486055Y-62340027D01*
X75473607Y-62346507D01*
X75469474Y-62349610D01*
X75469471Y-62349612D01*
X75445247Y-62367800D01*
X75294965Y-62480635D01*
X75140629Y-62642138D01*
X75014743Y-62826680D01*
X74991094Y-62877628D01*
X74925650Y-63018616D01*
X74920688Y-63029305D01*
X74860989Y-63244570D01*
X74837251Y-63466695D01*
X74837548Y-63471848D01*
X74837548Y-63471851D01*
X74843011Y-63566590D01*
X74850110Y-63689715D01*
X74851247Y-63694761D01*
X74851248Y-63694767D01*
X74871119Y-63782939D01*
X74899222Y-63907639D01*
X74983266Y-64114616D01*
X75034019Y-64197438D01*
X75097291Y-64300688D01*
X75099987Y-64305088D01*
X75246250Y-64473938D01*
X75418126Y-64616632D01*
X75488595Y-64657811D01*
X75491445Y-64659476D01*
X75540169Y-64711114D01*
X75553240Y-64780897D01*
X75526509Y-64846669D01*
X75486055Y-64880027D01*
X75473607Y-64886507D01*
X75469474Y-64889610D01*
X75469471Y-64889612D01*
X75445247Y-64907800D01*
X75294965Y-65020635D01*
X75140629Y-65182138D01*
X75014743Y-65366680D01*
X74920688Y-65569305D01*
X74860989Y-65784570D01*
X74837251Y-66006695D01*
X74837548Y-66011848D01*
X74837548Y-66011851D01*
X74843011Y-66106590D01*
X74850110Y-66229715D01*
X74851247Y-66234761D01*
X74851248Y-66234767D01*
X74871119Y-66322939D01*
X74899222Y-66447639D01*
X74983266Y-66654616D01*
X75034019Y-66737438D01*
X75097291Y-66840688D01*
X75099987Y-66845088D01*
X75246250Y-67013938D01*
X75418126Y-67156632D01*
X75464271Y-67183597D01*
X75491445Y-67199476D01*
X75540169Y-67251114D01*
X75553240Y-67320897D01*
X75526509Y-67386669D01*
X75486055Y-67420027D01*
X75473607Y-67426507D01*
X75469474Y-67429610D01*
X75469471Y-67429612D01*
X75299100Y-67557530D01*
X75294965Y-67560635D01*
X75140629Y-67722138D01*
X75137720Y-67726403D01*
X75137714Y-67726411D01*
X75129298Y-67738749D01*
X75014743Y-67906680D01*
X74920688Y-68109305D01*
X74860989Y-68324570D01*
X74837251Y-68546695D01*
X74837548Y-68551848D01*
X74837548Y-68551851D01*
X74843011Y-68646590D01*
X74850110Y-68769715D01*
X74851247Y-68774761D01*
X74851248Y-68774767D01*
X74871119Y-68862939D01*
X74899222Y-68987639D01*
X74955781Y-69126928D01*
X74978671Y-69183299D01*
X74983266Y-69194616D01*
X75021069Y-69256305D01*
X75097291Y-69380688D01*
X75099987Y-69385088D01*
X75246250Y-69553938D01*
X75418126Y-69696632D01*
X75488595Y-69737811D01*
X75491445Y-69739476D01*
X75540169Y-69791114D01*
X75553240Y-69860897D01*
X75526509Y-69926669D01*
X75486055Y-69960027D01*
X75473607Y-69966507D01*
X75469474Y-69969610D01*
X75469471Y-69969612D01*
X75322082Y-70080275D01*
X75294965Y-70100635D01*
X75291393Y-70104373D01*
X75158104Y-70243852D01*
X75140629Y-70262138D01*
X75014743Y-70446680D01*
X74920688Y-70649305D01*
X74860989Y-70864570D01*
X74837251Y-71086695D01*
X74837548Y-71091848D01*
X74837548Y-71091851D01*
X74843011Y-71186590D01*
X74850110Y-71309715D01*
X74851247Y-71314761D01*
X74851248Y-71314767D01*
X74859363Y-71350774D01*
X74899222Y-71527639D01*
X74983266Y-71734616D01*
X75034019Y-71817438D01*
X75097291Y-71920688D01*
X75099987Y-71925088D01*
X75246250Y-72093938D01*
X75418126Y-72236632D01*
X75428671Y-72242794D01*
X75491445Y-72279476D01*
X75540169Y-72331114D01*
X75553240Y-72400897D01*
X75526509Y-72466669D01*
X75486055Y-72500027D01*
X75473607Y-72506507D01*
X75469474Y-72509610D01*
X75469471Y-72509612D01*
X75299100Y-72637530D01*
X75294965Y-72640635D01*
X75140629Y-72802138D01*
X75014743Y-72986680D01*
X74999003Y-73020590D01*
X74953716Y-73118153D01*
X74920688Y-73189305D01*
X74860989Y-73404570D01*
X74837251Y-73626695D01*
X74837548Y-73631848D01*
X74837548Y-73631851D01*
X74843011Y-73726590D01*
X74850110Y-73849715D01*
X74851247Y-73854761D01*
X74851248Y-73854767D01*
X74871119Y-73942939D01*
X74899222Y-74067639D01*
X74983266Y-74274616D01*
X75022456Y-74338568D01*
X75097291Y-74460688D01*
X75099987Y-74465088D01*
X75246250Y-74633938D01*
X75418126Y-74776632D01*
X75488595Y-74817811D01*
X75491445Y-74819476D01*
X75540169Y-74871114D01*
X75553240Y-74940897D01*
X75526509Y-75006669D01*
X75486055Y-75040027D01*
X75473607Y-75046507D01*
X75469474Y-75049610D01*
X75469471Y-75049612D01*
X75445247Y-75067800D01*
X75294965Y-75180635D01*
X75140629Y-75342138D01*
X75137720Y-75346403D01*
X75137714Y-75346411D01*
X75129298Y-75358749D01*
X75014743Y-75526680D01*
X75000183Y-75558047D01*
X74925558Y-75718814D01*
X74920688Y-75729305D01*
X74860989Y-75944570D01*
X74837251Y-76166695D01*
X74837548Y-76171848D01*
X74837548Y-76171851D01*
X74843011Y-76266590D01*
X74850110Y-76389715D01*
X74851247Y-76394761D01*
X74851248Y-76394767D01*
X74871119Y-76482939D01*
X74899222Y-76607639D01*
X74983266Y-76814616D01*
X75034019Y-76897438D01*
X75097291Y-77000688D01*
X75099987Y-77005088D01*
X75246250Y-77173938D01*
X75418126Y-77316632D01*
X75488595Y-77357811D01*
X75491445Y-77359476D01*
X75540169Y-77411114D01*
X75553240Y-77480897D01*
X75526509Y-77546669D01*
X75486055Y-77580027D01*
X75473607Y-77586507D01*
X75469474Y-77589610D01*
X75469471Y-77589612D01*
X75445247Y-77607800D01*
X75294965Y-77720635D01*
X75140629Y-77882138D01*
X75014743Y-78066680D01*
X74920688Y-78269305D01*
X74860989Y-78484570D01*
X74837251Y-78706695D01*
X74837548Y-78711848D01*
X74837548Y-78711851D01*
X74843011Y-78806590D01*
X74850110Y-78929715D01*
X74851247Y-78934761D01*
X74851248Y-78934767D01*
X74871119Y-79022939D01*
X74899222Y-79147639D01*
X74983266Y-79354616D01*
X75024334Y-79421633D01*
X75097291Y-79540688D01*
X75099987Y-79545088D01*
X75246250Y-79713938D01*
X75418126Y-79856632D01*
X75456158Y-79878856D01*
X75491445Y-79899476D01*
X75540169Y-79951114D01*
X75553240Y-80020897D01*
X75526509Y-80086669D01*
X75486055Y-80120027D01*
X75473607Y-80126507D01*
X75469474Y-80129610D01*
X75469471Y-80129612D01*
X75304589Y-80253409D01*
X75294965Y-80260635D01*
X75140629Y-80422138D01*
X75014743Y-80606680D01*
X74920688Y-80809305D01*
X74860989Y-81024570D01*
X74837251Y-81246695D01*
X74837548Y-81251848D01*
X74837548Y-81251851D01*
X74843011Y-81346590D01*
X74850110Y-81469715D01*
X74851247Y-81474761D01*
X74851248Y-81474767D01*
X74859363Y-81510774D01*
X74899222Y-81687639D01*
X74937461Y-81781811D01*
X74977167Y-81879595D01*
X74983266Y-81894616D01*
X75032338Y-81974695D01*
X75097291Y-82080688D01*
X75099987Y-82085088D01*
X75246250Y-82253938D01*
X75418126Y-82396632D01*
X75436333Y-82407271D01*
X75491445Y-82439476D01*
X75540169Y-82491114D01*
X75553240Y-82560897D01*
X75526509Y-82626669D01*
X75486055Y-82660027D01*
X75473607Y-82666507D01*
X75469474Y-82669610D01*
X75469471Y-82669612D01*
X75299100Y-82797530D01*
X75294965Y-82800635D01*
X75261358Y-82835803D01*
X75151751Y-82950500D01*
X75140629Y-82962138D01*
X75014743Y-83146680D01*
X74920688Y-83349305D01*
X74860989Y-83564570D01*
X74837251Y-83786695D01*
X74837548Y-83791848D01*
X74837548Y-83791851D01*
X74842989Y-83886207D01*
X74850110Y-84009715D01*
X74851247Y-84014761D01*
X74851248Y-84014767D01*
X74857887Y-84044224D01*
X74899222Y-84227639D01*
X74983266Y-84434616D01*
X75034019Y-84517438D01*
X75097291Y-84620688D01*
X75099987Y-84625088D01*
X75246250Y-84793938D01*
X75418126Y-84936632D01*
X75488595Y-84977811D01*
X75491445Y-84979476D01*
X75540169Y-85031114D01*
X75553240Y-85100897D01*
X75526509Y-85166669D01*
X75486055Y-85200027D01*
X75473607Y-85206507D01*
X75469474Y-85209610D01*
X75469471Y-85209612D01*
X75317576Y-85323658D01*
X75294965Y-85340635D01*
X75140629Y-85502138D01*
X75137720Y-85506403D01*
X75137714Y-85506411D01*
X75107786Y-85550284D01*
X75014743Y-85686680D01*
X74977591Y-85766717D01*
X74943016Y-85841204D01*
X74920688Y-85889305D01*
X74860989Y-86104570D01*
X74837251Y-86326695D01*
X74837548Y-86331848D01*
X74837548Y-86331851D01*
X74842912Y-86424877D01*
X74850110Y-86549715D01*
X74851247Y-86554761D01*
X74851248Y-86554767D01*
X74871119Y-86642939D01*
X74899222Y-86767639D01*
X74983266Y-86974616D01*
X75034019Y-87057438D01*
X75097291Y-87160688D01*
X75099987Y-87165088D01*
X75246250Y-87333938D01*
X75418126Y-87476632D01*
X75488595Y-87517811D01*
X75491445Y-87519476D01*
X75540169Y-87571114D01*
X75553240Y-87640897D01*
X75526509Y-87706669D01*
X75486055Y-87740027D01*
X75473607Y-87746507D01*
X75469474Y-87749610D01*
X75469471Y-87749612D01*
X75445247Y-87767800D01*
X75294965Y-87880635D01*
X75140629Y-88042138D01*
X75014743Y-88226680D01*
X74920688Y-88429305D01*
X74860989Y-88644570D01*
X74837251Y-88866695D01*
X74837548Y-88871848D01*
X74837548Y-88871851D01*
X74843011Y-88966590D01*
X74850110Y-89089715D01*
X74851247Y-89094761D01*
X74851248Y-89094767D01*
X74871119Y-89182939D01*
X74899222Y-89307639D01*
X74983266Y-89514616D01*
X75034019Y-89597438D01*
X75097291Y-89700688D01*
X75099987Y-89705088D01*
X75246250Y-89873938D01*
X75418126Y-90016632D01*
X75488595Y-90057811D01*
X75491445Y-90059476D01*
X75540169Y-90111114D01*
X75553240Y-90180897D01*
X75526509Y-90246669D01*
X75486055Y-90280027D01*
X75473607Y-90286507D01*
X75469474Y-90289610D01*
X75469471Y-90289612D01*
X75445247Y-90307800D01*
X75294965Y-90420635D01*
X75140629Y-90582138D01*
X75014743Y-90766680D01*
X74920688Y-90969305D01*
X74860989Y-91184570D01*
X74837251Y-91406695D01*
X74837548Y-91411848D01*
X74837548Y-91411851D01*
X74843011Y-91506590D01*
X74850110Y-91629715D01*
X74851247Y-91634761D01*
X74851248Y-91634767D01*
X74871119Y-91722939D01*
X74899222Y-91847639D01*
X74983266Y-92054616D01*
X75034019Y-92137438D01*
X75097291Y-92240688D01*
X75099987Y-92245088D01*
X75246250Y-92413938D01*
X75418126Y-92556632D01*
X75488595Y-92597811D01*
X75491445Y-92599476D01*
X75540169Y-92651114D01*
X75553240Y-92720897D01*
X75526509Y-92786669D01*
X75486055Y-92820027D01*
X75473607Y-92826507D01*
X75469474Y-92829610D01*
X75469471Y-92829612D01*
X75445247Y-92847800D01*
X75294965Y-92960635D01*
X75140629Y-93122138D01*
X75014743Y-93306680D01*
X74920688Y-93509305D01*
X74860989Y-93724570D01*
X74837251Y-93946695D01*
X74837548Y-93951848D01*
X74837548Y-93951851D01*
X74843011Y-94046590D01*
X74850110Y-94169715D01*
X74851247Y-94174761D01*
X74851248Y-94174767D01*
X74871119Y-94262939D01*
X74899222Y-94387639D01*
X74983266Y-94594616D01*
X75034019Y-94677438D01*
X75097291Y-94780688D01*
X75099987Y-94785088D01*
X75246250Y-94953938D01*
X75418126Y-95096632D01*
X75488595Y-95137811D01*
X75491445Y-95139476D01*
X75540169Y-95191114D01*
X75553240Y-95260897D01*
X75526509Y-95326669D01*
X75486055Y-95360027D01*
X75473607Y-95366507D01*
X75469474Y-95369610D01*
X75469471Y-95369612D01*
X75445247Y-95387800D01*
X75294965Y-95500635D01*
X75140629Y-95662138D01*
X75014743Y-95846680D01*
X74920688Y-96049305D01*
X74860989Y-96264570D01*
X74837251Y-96486695D01*
X74837548Y-96491848D01*
X74837548Y-96491851D01*
X74843011Y-96586590D01*
X74850110Y-96709715D01*
X74851247Y-96714761D01*
X74851248Y-96714767D01*
X74871119Y-96802939D01*
X74899222Y-96927639D01*
X74983266Y-97134616D01*
X75034019Y-97217438D01*
X75097291Y-97320688D01*
X75099987Y-97325088D01*
X75246250Y-97493938D01*
X75418126Y-97636632D01*
X75488595Y-97677811D01*
X75491445Y-97679476D01*
X75540169Y-97731114D01*
X75553240Y-97800897D01*
X75526509Y-97866669D01*
X75486055Y-97900027D01*
X75473607Y-97906507D01*
X75469474Y-97909610D01*
X75469471Y-97909612D01*
X75445247Y-97927800D01*
X75294965Y-98040635D01*
X75140629Y-98202138D01*
X75014743Y-98386680D01*
X74920688Y-98589305D01*
X74860989Y-98804570D01*
X74837251Y-99026695D01*
X74837548Y-99031848D01*
X74837548Y-99031851D01*
X74843011Y-99126590D01*
X74850110Y-99249715D01*
X74851247Y-99254761D01*
X74851248Y-99254767D01*
X74863118Y-99307435D01*
X74899222Y-99467639D01*
X74983266Y-99674616D01*
X75034019Y-99757438D01*
X75097291Y-99860688D01*
X75099987Y-99865088D01*
X75246250Y-100033938D01*
X75418126Y-100176632D01*
X75428671Y-100182794D01*
X75491445Y-100219476D01*
X75540169Y-100271114D01*
X75553240Y-100340897D01*
X75526509Y-100406669D01*
X75486055Y-100440027D01*
X75473607Y-100446507D01*
X75469474Y-100449610D01*
X75469471Y-100449612D01*
X75445247Y-100467800D01*
X75294965Y-100580635D01*
X75140629Y-100742138D01*
X75014743Y-100926680D01*
X74920688Y-101129305D01*
X74860989Y-101344570D01*
X74837251Y-101566695D01*
X74837548Y-101571848D01*
X74837548Y-101571851D01*
X74843011Y-101666590D01*
X74850110Y-101789715D01*
X74851247Y-101794761D01*
X74851248Y-101794767D01*
X74871119Y-101882939D01*
X74899222Y-102007639D01*
X74983266Y-102214616D01*
X75034019Y-102297438D01*
X75097291Y-102400688D01*
X75099987Y-102405088D01*
X75246250Y-102573938D01*
X75418126Y-102716632D01*
X75488595Y-102757811D01*
X75491445Y-102759476D01*
X75540169Y-102811114D01*
X75553240Y-102880897D01*
X75526509Y-102946669D01*
X75486055Y-102980027D01*
X75473607Y-102986507D01*
X75469474Y-102989610D01*
X75469471Y-102989612D01*
X75445247Y-103007800D01*
X75294965Y-103120635D01*
X75140629Y-103282138D01*
X75014743Y-103466680D01*
X74920688Y-103669305D01*
X74860989Y-103884570D01*
X74837251Y-104106695D01*
X74837548Y-104111848D01*
X74837548Y-104111851D01*
X74843011Y-104206590D01*
X74850110Y-104329715D01*
X74851247Y-104334761D01*
X74851248Y-104334767D01*
X74871119Y-104422939D01*
X74899222Y-104547639D01*
X74983266Y-104754616D01*
X75034019Y-104837438D01*
X75097291Y-104940688D01*
X75099987Y-104945088D01*
X75246250Y-105113938D01*
X75418126Y-105256632D01*
X75488595Y-105297811D01*
X75491445Y-105299476D01*
X75540169Y-105351114D01*
X75553240Y-105420897D01*
X75526509Y-105486669D01*
X75486055Y-105520027D01*
X75473607Y-105526507D01*
X75469474Y-105529610D01*
X75469471Y-105529612D01*
X75445247Y-105547800D01*
X75294965Y-105660635D01*
X75140629Y-105822138D01*
X75014743Y-106006680D01*
X74920688Y-106209305D01*
X74860989Y-106424570D01*
X74837251Y-106646695D01*
X74837548Y-106651848D01*
X74837548Y-106651851D01*
X74843011Y-106746590D01*
X74850110Y-106869715D01*
X74851247Y-106874761D01*
X74851248Y-106874767D01*
X74871119Y-106962939D01*
X74899222Y-107087639D01*
X74983266Y-107294616D01*
X75034019Y-107377438D01*
X75097291Y-107480688D01*
X75099987Y-107485088D01*
X75246250Y-107653938D01*
X75418126Y-107796632D01*
X75488595Y-107837811D01*
X75491445Y-107839476D01*
X75540169Y-107891114D01*
X75553240Y-107960897D01*
X75526509Y-108026669D01*
X75486055Y-108060027D01*
X75473607Y-108066507D01*
X75469474Y-108069610D01*
X75469471Y-108069612D01*
X75445247Y-108087800D01*
X75294965Y-108200635D01*
X75140629Y-108362138D01*
X75014743Y-108546680D01*
X74920688Y-108749305D01*
X74860989Y-108964570D01*
X74837251Y-109186695D01*
X74837548Y-109191848D01*
X74837548Y-109191851D01*
X74843011Y-109286590D01*
X74850110Y-109409715D01*
X74851247Y-109414761D01*
X74851248Y-109414767D01*
X74871119Y-109502939D01*
X74899222Y-109627639D01*
X74983266Y-109834616D01*
X75034019Y-109917438D01*
X75097291Y-110020688D01*
X75099987Y-110025088D01*
X75246250Y-110193938D01*
X75418126Y-110336632D01*
X75488595Y-110377811D01*
X75491445Y-110379476D01*
X75540169Y-110431114D01*
X75553240Y-110500897D01*
X75526509Y-110566669D01*
X75486055Y-110600027D01*
X75473607Y-110606507D01*
X75469474Y-110609610D01*
X75469471Y-110609612D01*
X75445247Y-110627800D01*
X75294965Y-110740635D01*
X75140629Y-110902138D01*
X75014743Y-111086680D01*
X74920688Y-111289305D01*
X74860989Y-111504570D01*
X74837251Y-111726695D01*
X74837548Y-111731848D01*
X74837548Y-111731851D01*
X74843011Y-111826590D01*
X74850110Y-111949715D01*
X74851247Y-111954761D01*
X74851248Y-111954767D01*
X74871119Y-112042939D01*
X74899222Y-112167639D01*
X74983266Y-112374616D01*
X75034019Y-112457438D01*
X75097291Y-112560688D01*
X75099987Y-112565088D01*
X75246250Y-112733938D01*
X75418126Y-112876632D01*
X75488595Y-112917811D01*
X75491445Y-112919476D01*
X75540169Y-112971114D01*
X75553240Y-113040897D01*
X75526509Y-113106669D01*
X75486055Y-113140027D01*
X75473607Y-113146507D01*
X75469474Y-113149610D01*
X75469471Y-113149612D01*
X75445247Y-113167800D01*
X75294965Y-113280635D01*
X75140629Y-113442138D01*
X75014743Y-113626680D01*
X74920688Y-113829305D01*
X74860989Y-114044570D01*
X74837251Y-114266695D01*
X74837548Y-114271848D01*
X74837548Y-114271851D01*
X74843011Y-114366590D01*
X74850110Y-114489715D01*
X74851247Y-114494761D01*
X74851248Y-114494767D01*
X74871119Y-114582939D01*
X74899222Y-114707639D01*
X74983266Y-114914616D01*
X75034019Y-114997438D01*
X75097291Y-115100688D01*
X75099987Y-115105088D01*
X75246250Y-115273938D01*
X75418126Y-115416632D01*
X75488595Y-115457811D01*
X75491445Y-115459476D01*
X75540169Y-115511114D01*
X75553240Y-115580897D01*
X75526509Y-115646669D01*
X75486055Y-115680027D01*
X75473607Y-115686507D01*
X75469474Y-115689610D01*
X75469471Y-115689612D01*
X75445247Y-115707800D01*
X75294965Y-115820635D01*
X75140629Y-115982138D01*
X75014743Y-116166680D01*
X74920688Y-116369305D01*
X74860989Y-116584570D01*
X74837251Y-116806695D01*
X74837548Y-116811848D01*
X74837548Y-116811851D01*
X74843011Y-116906590D01*
X74850110Y-117029715D01*
X74851247Y-117034761D01*
X74851248Y-117034767D01*
X74871119Y-117122939D01*
X74899222Y-117247639D01*
X74983266Y-117454616D01*
X75034019Y-117537438D01*
X75097291Y-117640688D01*
X75099987Y-117645088D01*
X75246250Y-117813938D01*
X75418126Y-117956632D01*
X75488595Y-117997811D01*
X75491445Y-117999476D01*
X75540169Y-118051114D01*
X75553240Y-118120897D01*
X75526509Y-118186669D01*
X75486055Y-118220027D01*
X75473607Y-118226507D01*
X75469474Y-118229610D01*
X75469471Y-118229612D01*
X75445247Y-118247800D01*
X75294965Y-118360635D01*
X75140629Y-118522138D01*
X75014743Y-118706680D01*
X74920688Y-118909305D01*
X74860989Y-119124570D01*
X74837251Y-119346695D01*
X74837548Y-119351848D01*
X74837548Y-119351851D01*
X74843011Y-119446590D01*
X74850110Y-119569715D01*
X74851247Y-119574761D01*
X74851248Y-119574767D01*
X74871119Y-119662939D01*
X74899222Y-119787639D01*
X74983266Y-119994616D01*
X75034019Y-120077438D01*
X75097291Y-120180688D01*
X75099987Y-120185088D01*
X75246250Y-120353938D01*
X75418126Y-120496632D01*
X75488595Y-120537811D01*
X75491445Y-120539476D01*
X75540169Y-120591114D01*
X75553240Y-120660897D01*
X75526509Y-120726669D01*
X75486055Y-120760027D01*
X75473607Y-120766507D01*
X75469474Y-120769610D01*
X75469471Y-120769612D01*
X75445247Y-120787800D01*
X75294965Y-120900635D01*
X75140629Y-121062138D01*
X75014743Y-121246680D01*
X74920688Y-121449305D01*
X74860989Y-121664570D01*
X74837251Y-121886695D01*
X74168500Y-121886695D01*
X74168500Y-50766695D01*
X74837251Y-50766695D01*
X74837548Y-50771848D01*
X74837548Y-50771851D01*
X74841496Y-50840315D01*
X74850110Y-50989715D01*
X74851247Y-50994761D01*
X74851248Y-50994767D01*
X74872041Y-51087029D01*
X74899222Y-51207639D01*
X74929112Y-51281250D01*
X74976688Y-51398415D01*
X74983266Y-51414616D01*
X75022364Y-51478418D01*
X75097291Y-51600688D01*
X75099987Y-51605088D01*
X75246250Y-51773938D01*
X75418126Y-51916632D01*
X75467422Y-51945438D01*
X75491955Y-51959774D01*
X75540679Y-52011412D01*
X75553750Y-52081195D01*
X75527019Y-52146967D01*
X75486562Y-52180327D01*
X75478457Y-52184546D01*
X75469738Y-52190036D01*
X75299433Y-52317905D01*
X75291726Y-52324748D01*
X75144590Y-52478717D01*
X75138104Y-52486727D01*
X75018098Y-52662649D01*
X75013000Y-52671623D01*
X74923338Y-52864783D01*
X74919775Y-52874470D01*
X74864389Y-53074183D01*
X74865912Y-53082607D01*
X74878292Y-53086000D01*
X80058344Y-53086000D01*
X80071875Y-53082027D01*
X80073180Y-53072947D01*
X80031214Y-52905875D01*
X80027894Y-52896124D01*
X79942972Y-52700814D01*
X79938105Y-52691739D01*
X79822426Y-52512926D01*
X79816136Y-52504757D01*
X79672806Y-52347240D01*
X79665273Y-52340215D01*
X79498139Y-52208222D01*
X79489556Y-52202520D01*
X79452602Y-52182120D01*
X79402631Y-52131687D01*
X79387859Y-52062245D01*
X79412975Y-51995839D01*
X79440327Y-51969232D01*
X79473685Y-51945438D01*
X79619860Y-51841173D01*
X79778096Y-51683489D01*
X79781112Y-51679292D01*
X79866132Y-51560974D01*
X79922127Y-51517326D01*
X79968455Y-51508500D01*
X84744340Y-51508500D01*
X84812461Y-51528502D01*
X84833435Y-51545405D01*
X87646595Y-54358566D01*
X87680621Y-54420878D01*
X87683500Y-54447661D01*
X87683500Y-68469256D01*
X87663498Y-68537377D01*
X87659436Y-68543317D01*
X87657379Y-68546148D01*
X87652960Y-68551056D01*
X87649659Y-68556774D01*
X87649658Y-68556775D01*
X87576142Y-68684109D01*
X87557473Y-68716444D01*
X87498458Y-68898072D01*
X87497768Y-68904635D01*
X87497768Y-68904637D01*
X87493550Y-68944770D01*
X87466537Y-69010427D01*
X87457335Y-69020695D01*
X86641480Y-69836550D01*
X86635215Y-69842404D01*
X86591615Y-69880439D01*
X86587248Y-69886653D01*
X86554872Y-69932719D01*
X86550939Y-69938014D01*
X86511524Y-69988282D01*
X86508401Y-69995198D01*
X86507017Y-69997484D01*
X86498643Y-70012165D01*
X86497378Y-70014525D01*
X86493010Y-70020739D01*
X86490250Y-70027818D01*
X86490249Y-70027820D01*
X86469798Y-70080275D01*
X86467247Y-70086344D01*
X86440955Y-70144573D01*
X86439571Y-70152040D01*
X86438770Y-70154595D01*
X86434141Y-70170848D01*
X86433478Y-70173428D01*
X86430718Y-70180509D01*
X86429727Y-70188040D01*
X86429726Y-70188042D01*
X86422379Y-70243852D01*
X86421348Y-70250359D01*
X86409704Y-70313186D01*
X86410141Y-70320766D01*
X86410141Y-70320767D01*
X86413291Y-70375392D01*
X86413500Y-70382646D01*
X86413500Y-77949088D01*
X86413208Y-77957658D01*
X86409275Y-78015352D01*
X86419053Y-78071375D01*
X86420261Y-78078299D01*
X86421223Y-78084821D01*
X86428898Y-78148242D01*
X86431581Y-78155343D01*
X86432222Y-78157952D01*
X86436685Y-78174262D01*
X86437450Y-78176798D01*
X86438757Y-78184284D01*
X86449508Y-78208774D01*
X86464442Y-78242795D01*
X86466933Y-78248899D01*
X86489513Y-78308656D01*
X86493817Y-78314919D01*
X86495054Y-78317285D01*
X86503299Y-78332097D01*
X86504632Y-78334351D01*
X86507685Y-78341305D01*
X86524119Y-78362721D01*
X86546579Y-78391991D01*
X86550459Y-78397332D01*
X86582339Y-78443720D01*
X86582344Y-78443725D01*
X86586643Y-78449981D01*
X86592313Y-78455032D01*
X86592314Y-78455034D01*
X86619873Y-78479588D01*
X86631231Y-78489707D01*
X86633170Y-78491435D01*
X86638446Y-78496416D01*
X90251335Y-82109305D01*
X90285361Y-82171617D01*
X90287550Y-82185228D01*
X90292458Y-82231928D01*
X90294498Y-82238205D01*
X90294498Y-82238207D01*
X90300682Y-82257240D01*
X90351473Y-82413556D01*
X90446960Y-82578944D01*
X90451378Y-82583851D01*
X90451379Y-82583852D01*
X90542091Y-82684598D01*
X90574747Y-82720866D01*
X90673843Y-82792864D01*
X90680266Y-82797530D01*
X90729248Y-82833118D01*
X90735276Y-82835802D01*
X90735278Y-82835803D01*
X90897681Y-82908109D01*
X90903712Y-82910794D01*
X91040411Y-82939850D01*
X91056569Y-82943285D01*
X91119467Y-82977437D01*
X92472595Y-84330565D01*
X92506621Y-84392877D01*
X92509500Y-84419660D01*
X92509500Y-85315088D01*
X92509208Y-85323658D01*
X92506523Y-85363051D01*
X92505275Y-85381352D01*
X92506580Y-85388829D01*
X92506580Y-85388830D01*
X92516261Y-85444299D01*
X92517223Y-85450821D01*
X92524898Y-85514242D01*
X92527581Y-85521343D01*
X92528222Y-85523952D01*
X92532685Y-85540262D01*
X92533450Y-85542798D01*
X92534757Y-85550284D01*
X92537811Y-85557241D01*
X92560442Y-85608795D01*
X92562933Y-85614899D01*
X92585513Y-85674656D01*
X92589817Y-85680919D01*
X92591054Y-85683285D01*
X92599299Y-85698097D01*
X92600632Y-85700351D01*
X92603685Y-85707305D01*
X92630842Y-85742695D01*
X92642579Y-85757991D01*
X92646459Y-85763332D01*
X92678339Y-85809720D01*
X92678344Y-85809725D01*
X92682643Y-85815981D01*
X92688313Y-85821032D01*
X92688314Y-85821034D01*
X92729170Y-85857435D01*
X92734446Y-85862416D01*
X93234595Y-86362565D01*
X93268621Y-86424877D01*
X93271500Y-86451660D01*
X93271500Y-98695256D01*
X93251498Y-98763377D01*
X93247436Y-98769317D01*
X93245379Y-98772148D01*
X93240960Y-98777056D01*
X93237659Y-98782774D01*
X93237658Y-98782775D01*
X93209041Y-98832342D01*
X93145473Y-98942444D01*
X93086458Y-99124072D01*
X93085768Y-99130633D01*
X93085768Y-99130635D01*
X93072722Y-99254767D01*
X93066496Y-99314000D01*
X93086458Y-99503928D01*
X93145473Y-99685556D01*
X93148776Y-99691278D01*
X93148777Y-99691279D01*
X93165277Y-99719857D01*
X93240960Y-99850944D01*
X93245378Y-99855851D01*
X93245379Y-99855852D01*
X93249734Y-99860689D01*
X93368747Y-99992866D01*
X93467843Y-100064864D01*
X93512803Y-100097529D01*
X93523248Y-100105118D01*
X93529276Y-100107802D01*
X93529278Y-100107803D01*
X93689734Y-100179242D01*
X93697712Y-100182794D01*
X93791112Y-100202647D01*
X93878056Y-100221128D01*
X93878061Y-100221128D01*
X93884513Y-100222500D01*
X94075487Y-100222500D01*
X94081939Y-100221128D01*
X94081944Y-100221128D01*
X94168887Y-100202647D01*
X94262288Y-100182794D01*
X94270266Y-100179242D01*
X94430722Y-100107803D01*
X94430724Y-100107802D01*
X94436752Y-100105118D01*
X94447198Y-100097529D01*
X94492157Y-100064864D01*
X94591253Y-99992866D01*
X94710266Y-99860689D01*
X94714621Y-99855852D01*
X94714622Y-99855851D01*
X94719040Y-99850944D01*
X94794723Y-99719857D01*
X94811223Y-99691279D01*
X94811224Y-99691278D01*
X94814527Y-99685556D01*
X94873542Y-99503928D01*
X94893504Y-99314000D01*
X94887278Y-99254767D01*
X94874232Y-99130635D01*
X94874232Y-99130633D01*
X94873542Y-99124072D01*
X94814527Y-98942444D01*
X94750960Y-98832342D01*
X94722342Y-98782775D01*
X94722341Y-98782774D01*
X94719040Y-98777056D01*
X94714621Y-98772148D01*
X94712564Y-98769317D01*
X94688705Y-98702449D01*
X94688500Y-98695256D01*
X94688500Y-86134927D01*
X94688792Y-86126358D01*
X94692210Y-86076225D01*
X94692210Y-86076221D01*
X94692726Y-86068648D01*
X94681736Y-86005681D01*
X94680775Y-85999165D01*
X94674014Y-85943298D01*
X94673102Y-85935758D01*
X94670419Y-85928657D01*
X94669778Y-85926048D01*
X94665309Y-85909715D01*
X94664548Y-85907195D01*
X94663243Y-85899717D01*
X94656612Y-85884610D01*
X94637559Y-85841204D01*
X94635068Y-85835099D01*
X94615175Y-85782456D01*
X94615173Y-85782452D01*
X94612487Y-85775344D01*
X94608184Y-85769083D01*
X94606947Y-85766717D01*
X94598720Y-85751937D01*
X94597369Y-85749652D01*
X94594315Y-85742695D01*
X94589695Y-85736675D01*
X94589692Y-85736669D01*
X94555421Y-85692009D01*
X94551541Y-85686668D01*
X94519661Y-85640280D01*
X94519656Y-85640275D01*
X94515357Y-85634019D01*
X94468829Y-85592564D01*
X94463554Y-85587584D01*
X93963405Y-85087435D01*
X93929379Y-85025123D01*
X93926500Y-84998340D01*
X93926500Y-84102912D01*
X93926792Y-84094342D01*
X93930209Y-84044224D01*
X93930209Y-84044220D01*
X93930725Y-84036648D01*
X93926025Y-84009715D01*
X93919739Y-83973701D01*
X93918776Y-83967175D01*
X93912014Y-83911298D01*
X93911102Y-83903758D01*
X93908419Y-83896657D01*
X93907778Y-83894048D01*
X93903315Y-83877738D01*
X93902550Y-83875202D01*
X93901243Y-83867716D01*
X93875556Y-83809200D01*
X93873065Y-83803096D01*
X93853173Y-83750452D01*
X93853172Y-83750451D01*
X93850487Y-83743344D01*
X93846183Y-83737081D01*
X93844946Y-83734715D01*
X93836701Y-83719903D01*
X93835368Y-83717649D01*
X93832315Y-83710695D01*
X93793413Y-83659998D01*
X93789541Y-83654668D01*
X93757661Y-83608280D01*
X93757656Y-83608275D01*
X93753357Y-83602019D01*
X93706829Y-83560564D01*
X93701554Y-83555584D01*
X92120665Y-81974695D01*
X92086639Y-81912383D01*
X92084450Y-81898770D01*
X92084014Y-81894616D01*
X92079542Y-81852072D01*
X92049263Y-81758882D01*
X92022569Y-81676729D01*
X92020527Y-81670444D01*
X91925040Y-81505056D01*
X91797253Y-81363134D01*
X91642752Y-81250882D01*
X91636724Y-81248198D01*
X91636722Y-81248197D01*
X91474319Y-81175891D01*
X91474318Y-81175891D01*
X91468288Y-81173206D01*
X91315431Y-81140715D01*
X91252533Y-81106563D01*
X87867405Y-77721435D01*
X87833379Y-77659123D01*
X87830500Y-77632340D01*
X87830500Y-70703661D01*
X87850502Y-70635540D01*
X87867405Y-70614566D01*
X88355938Y-70126033D01*
X88418250Y-70092007D01*
X88489065Y-70097072D01*
X88534128Y-70126033D01*
X88650348Y-70242253D01*
X88657888Y-70250539D01*
X88662000Y-70257018D01*
X88667777Y-70262443D01*
X88711651Y-70303643D01*
X88714493Y-70306398D01*
X88734230Y-70326135D01*
X88737427Y-70328615D01*
X88746447Y-70336318D01*
X88778679Y-70366586D01*
X88785625Y-70370405D01*
X88785628Y-70370407D01*
X88796434Y-70376348D01*
X88812953Y-70387199D01*
X88828959Y-70399614D01*
X88836228Y-70402759D01*
X88836232Y-70402762D01*
X88869537Y-70417174D01*
X88880187Y-70422391D01*
X88918940Y-70443695D01*
X88926615Y-70445666D01*
X88926616Y-70445666D01*
X88938562Y-70448733D01*
X88957267Y-70455137D01*
X88975855Y-70463181D01*
X88983678Y-70464420D01*
X88983688Y-70464423D01*
X89019524Y-70470099D01*
X89031144Y-70472505D01*
X89066289Y-70481528D01*
X89073970Y-70483500D01*
X89094224Y-70483500D01*
X89113934Y-70485051D01*
X89133943Y-70488220D01*
X89141835Y-70487474D01*
X89177961Y-70484059D01*
X89189819Y-70483500D01*
X100622946Y-70483500D01*
X100691067Y-70503502D01*
X100712041Y-70520405D01*
X102176878Y-71985242D01*
X102210904Y-72047554D01*
X102213092Y-72061163D01*
X102216537Y-72093938D01*
X102224301Y-72167803D01*
X102230458Y-72226388D01*
X102289473Y-72408016D01*
X102384960Y-72573404D01*
X102389378Y-72578311D01*
X102389379Y-72578312D01*
X102462534Y-72659559D01*
X102493252Y-72723566D01*
X102494898Y-72743869D01*
X102494898Y-74093631D01*
X102494371Y-74104814D01*
X102492696Y-74112307D01*
X102492945Y-74120233D01*
X102492945Y-74120234D01*
X102494836Y-74180384D01*
X102494898Y-74184343D01*
X102494898Y-74212254D01*
X102495395Y-74216188D01*
X102495395Y-74216189D01*
X102495403Y-74216254D01*
X102496336Y-74228091D01*
X102497725Y-74272287D01*
X102503376Y-74291737D01*
X102507385Y-74311098D01*
X102509924Y-74331195D01*
X102512843Y-74338566D01*
X102512843Y-74338568D01*
X102526202Y-74372310D01*
X102530047Y-74383540D01*
X102542380Y-74425991D01*
X102546413Y-74432810D01*
X102546415Y-74432815D01*
X102552691Y-74443426D01*
X102561386Y-74461174D01*
X102568846Y-74480015D01*
X102573508Y-74486431D01*
X102573508Y-74486432D01*
X102594834Y-74515785D01*
X102601350Y-74525705D01*
X102611868Y-74543489D01*
X102623856Y-74563760D01*
X102638177Y-74578081D01*
X102651017Y-74593114D01*
X102662926Y-74609505D01*
X102669034Y-74614558D01*
X102676513Y-74620745D01*
X102716251Y-74679578D01*
X102721508Y-74704659D01*
X102737364Y-74855516D01*
X102738458Y-74865928D01*
X102797473Y-75047556D01*
X102892960Y-75212944D01*
X103020747Y-75354866D01*
X103175248Y-75467118D01*
X103181276Y-75469802D01*
X103181278Y-75469803D01*
X103299416Y-75522401D01*
X103349712Y-75544794D01*
X103424026Y-75560590D01*
X103530056Y-75583128D01*
X103530061Y-75583128D01*
X103536513Y-75584500D01*
X103634500Y-75584500D01*
X103702621Y-75604502D01*
X103749114Y-75658158D01*
X103760500Y-75710500D01*
X103760500Y-77832661D01*
X103740498Y-77900782D01*
X103693820Y-77940847D01*
X103695001Y-77942893D01*
X103689278Y-77946197D01*
X103683248Y-77948882D01*
X103528747Y-78061134D01*
X103524326Y-78066044D01*
X103524325Y-78066045D01*
X103497498Y-78095840D01*
X103400960Y-78203056D01*
X103305473Y-78368444D01*
X103246458Y-78550072D01*
X103226496Y-78740000D01*
X103227186Y-78746565D01*
X103233844Y-78809908D01*
X103246458Y-78929928D01*
X103305473Y-79111556D01*
X103308776Y-79117278D01*
X103308777Y-79117279D01*
X103329069Y-79152425D01*
X103400960Y-79276944D01*
X103405375Y-79281847D01*
X103405379Y-79281852D01*
X103473606Y-79357626D01*
X103504324Y-79421633D01*
X103495559Y-79492087D01*
X103469065Y-79531031D01*
X101120500Y-81879595D01*
X101058188Y-81913621D01*
X101031405Y-81916500D01*
X96974200Y-81916500D01*
X96906079Y-81896498D01*
X96886853Y-81880157D01*
X96886580Y-81880460D01*
X96881668Y-81876037D01*
X96877253Y-81871134D01*
X96754311Y-81781811D01*
X96728094Y-81762763D01*
X96728093Y-81762762D01*
X96722752Y-81758882D01*
X96716724Y-81756198D01*
X96716722Y-81756197D01*
X96554319Y-81683891D01*
X96554318Y-81683891D01*
X96548288Y-81681206D01*
X96454888Y-81661353D01*
X96367944Y-81642872D01*
X96367939Y-81642872D01*
X96361487Y-81641500D01*
X96305594Y-81641500D01*
X96237473Y-81621498D01*
X96216499Y-81604595D01*
X90537199Y-75925294D01*
X90529659Y-75917008D01*
X90525547Y-75910529D01*
X90475895Y-75863903D01*
X90473054Y-75861149D01*
X90453317Y-75841412D01*
X90450120Y-75838932D01*
X90441098Y-75831227D01*
X90414647Y-75806388D01*
X90408868Y-75800961D01*
X90401922Y-75797142D01*
X90401919Y-75797140D01*
X90391113Y-75791199D01*
X90374594Y-75780348D01*
X90368595Y-75775695D01*
X90358588Y-75767933D01*
X90351319Y-75764788D01*
X90351315Y-75764785D01*
X90318010Y-75750373D01*
X90307360Y-75745156D01*
X90268607Y-75723852D01*
X90248984Y-75718814D01*
X90230281Y-75712410D01*
X90218967Y-75707514D01*
X90218966Y-75707514D01*
X90211692Y-75704366D01*
X90203869Y-75703127D01*
X90203859Y-75703124D01*
X90168023Y-75697448D01*
X90156403Y-75695042D01*
X90121258Y-75686019D01*
X90121257Y-75686019D01*
X90113577Y-75684047D01*
X90093323Y-75684047D01*
X90073612Y-75682496D01*
X90061433Y-75680567D01*
X90053604Y-75679327D01*
X90045712Y-75680073D01*
X90009586Y-75683488D01*
X89997728Y-75684047D01*
X89913500Y-75684047D01*
X89845379Y-75664045D01*
X89798886Y-75610389D01*
X89787500Y-75558047D01*
X89787500Y-72584524D01*
X89807502Y-72516403D01*
X89819858Y-72500221D01*
X89893040Y-72418944D01*
X89973562Y-72279476D01*
X89985223Y-72259279D01*
X89985224Y-72259278D01*
X89988527Y-72253556D01*
X90047542Y-72071928D01*
X90049138Y-72056749D01*
X90066814Y-71888565D01*
X90067504Y-71882000D01*
X90058375Y-71795144D01*
X90048232Y-71698635D01*
X90048232Y-71698633D01*
X90047542Y-71692072D01*
X89988527Y-71510444D01*
X89893040Y-71345056D01*
X89765253Y-71203134D01*
X89610752Y-71090882D01*
X89604724Y-71088198D01*
X89604722Y-71088197D01*
X89442319Y-71015891D01*
X89442318Y-71015891D01*
X89436288Y-71013206D01*
X89342888Y-70993353D01*
X89255944Y-70974872D01*
X89255939Y-70974872D01*
X89249487Y-70973500D01*
X89058513Y-70973500D01*
X89052061Y-70974872D01*
X89052056Y-70974872D01*
X88965112Y-70993353D01*
X88871712Y-71013206D01*
X88865682Y-71015891D01*
X88865681Y-71015891D01*
X88703278Y-71088197D01*
X88703276Y-71088198D01*
X88697248Y-71090882D01*
X88542747Y-71203134D01*
X88414960Y-71345056D01*
X88319473Y-71510444D01*
X88260458Y-71692072D01*
X88259768Y-71698633D01*
X88259768Y-71698635D01*
X88249625Y-71795144D01*
X88240496Y-71882000D01*
X88241186Y-71888565D01*
X88258863Y-72056749D01*
X88260458Y-72071928D01*
X88319473Y-72253556D01*
X88322776Y-72259278D01*
X88322777Y-72259279D01*
X88334438Y-72279476D01*
X88414960Y-72418944D01*
X88488137Y-72500215D01*
X88518853Y-72564221D01*
X88520500Y-72584524D01*
X88520500Y-75615175D01*
X88500498Y-75683296D01*
X88488136Y-75699485D01*
X88429340Y-75764785D01*
X88415097Y-75780603D01*
X88319610Y-75945991D01*
X88260595Y-76127619D01*
X88259905Y-76134180D01*
X88259905Y-76134182D01*
X88252634Y-76203365D01*
X88240633Y-76317547D01*
X88260595Y-76507475D01*
X88319610Y-76689103D01*
X88415097Y-76854491D01*
X88419515Y-76859398D01*
X88419516Y-76859399D01*
X88458800Y-76903028D01*
X88542884Y-76996413D01*
X88697385Y-77108665D01*
X88703413Y-77111349D01*
X88703415Y-77111350D01*
X88865818Y-77183656D01*
X88871849Y-77186341D01*
X88965250Y-77206194D01*
X89052193Y-77224675D01*
X89052198Y-77224675D01*
X89058650Y-77226047D01*
X89249624Y-77226047D01*
X89256076Y-77224675D01*
X89256081Y-77224675D01*
X89343024Y-77206194D01*
X89436425Y-77186341D01*
X89442456Y-77183656D01*
X89604859Y-77111350D01*
X89604861Y-77111349D01*
X89610889Y-77108665D01*
X89645541Y-77083489D01*
X89707937Y-77038156D01*
X89774805Y-77014297D01*
X89843957Y-77030378D01*
X89871093Y-77050997D01*
X95318878Y-82498782D01*
X95352904Y-82561094D01*
X95355093Y-82574707D01*
X95370863Y-82724749D01*
X95372458Y-82739928D01*
X95431473Y-82921556D01*
X95434776Y-82927278D01*
X95434777Y-82927279D01*
X95522993Y-83080073D01*
X95526960Y-83086944D01*
X95531379Y-83091852D01*
X95533436Y-83094683D01*
X95557295Y-83161551D01*
X95557500Y-83168744D01*
X95557500Y-98695256D01*
X95537498Y-98763377D01*
X95533436Y-98769317D01*
X95531379Y-98772148D01*
X95526960Y-98777056D01*
X95523659Y-98782774D01*
X95523658Y-98782775D01*
X95495041Y-98832342D01*
X95431473Y-98942444D01*
X95372458Y-99124072D01*
X95371768Y-99130633D01*
X95371768Y-99130635D01*
X95358722Y-99254767D01*
X95352496Y-99314000D01*
X95372458Y-99503928D01*
X95431473Y-99685556D01*
X95434776Y-99691278D01*
X95434777Y-99691279D01*
X95451277Y-99719857D01*
X95526960Y-99850944D01*
X95531378Y-99855851D01*
X95531379Y-99855852D01*
X95535734Y-99860689D01*
X95654747Y-99992866D01*
X95753843Y-100064864D01*
X95798803Y-100097529D01*
X95809248Y-100105118D01*
X95815276Y-100107802D01*
X95815278Y-100107803D01*
X95975734Y-100179242D01*
X95983712Y-100182794D01*
X96077112Y-100202647D01*
X96164056Y-100221128D01*
X96164061Y-100221128D01*
X96170513Y-100222500D01*
X96361487Y-100222500D01*
X96367939Y-100221128D01*
X96367944Y-100221128D01*
X96454887Y-100202647D01*
X96548288Y-100182794D01*
X96556266Y-100179242D01*
X96716722Y-100107803D01*
X96716724Y-100107802D01*
X96722752Y-100105118D01*
X96733198Y-100097529D01*
X96778157Y-100064864D01*
X96877253Y-99992866D01*
X96996266Y-99860689D01*
X97000621Y-99855852D01*
X97000622Y-99855851D01*
X97005040Y-99850944D01*
X97080723Y-99719857D01*
X97097223Y-99691279D01*
X97097224Y-99691278D01*
X97100527Y-99685556D01*
X97159542Y-99503928D01*
X97179504Y-99314000D01*
X97173278Y-99254767D01*
X97160232Y-99130635D01*
X97160232Y-99130633D01*
X97159542Y-99124072D01*
X97100527Y-98942444D01*
X97036960Y-98832342D01*
X97008342Y-98782775D01*
X97008341Y-98782774D01*
X97005040Y-98777056D01*
X97000621Y-98772148D01*
X96998564Y-98769317D01*
X96974705Y-98702449D01*
X96974500Y-98695256D01*
X96974500Y-83309500D01*
X96994502Y-83241379D01*
X97048158Y-83194886D01*
X97100500Y-83183500D01*
X101267233Y-83183500D01*
X101278416Y-83184027D01*
X101285909Y-83185702D01*
X101293835Y-83185453D01*
X101293836Y-83185453D01*
X101353986Y-83183562D01*
X101357945Y-83183500D01*
X101385856Y-83183500D01*
X101389791Y-83183003D01*
X101389856Y-83182995D01*
X101401693Y-83182062D01*
X101433951Y-83181048D01*
X101437970Y-83180922D01*
X101445889Y-83180673D01*
X101465343Y-83175021D01*
X101484700Y-83171013D01*
X101496930Y-83169468D01*
X101496931Y-83169468D01*
X101504797Y-83168474D01*
X101512168Y-83165555D01*
X101512170Y-83165555D01*
X101545912Y-83152196D01*
X101557142Y-83148351D01*
X101591983Y-83138229D01*
X101591984Y-83138229D01*
X101599593Y-83136018D01*
X101606412Y-83131985D01*
X101606417Y-83131983D01*
X101617028Y-83125707D01*
X101634776Y-83117012D01*
X101653617Y-83109552D01*
X101689387Y-83083564D01*
X101699307Y-83077048D01*
X101730535Y-83058580D01*
X101730538Y-83058578D01*
X101737362Y-83054542D01*
X101751683Y-83040221D01*
X101766717Y-83027380D01*
X101776694Y-83020131D01*
X101783107Y-83015472D01*
X101811298Y-82981395D01*
X101819288Y-82972616D01*
X104532247Y-80259657D01*
X104540537Y-80252113D01*
X104547018Y-80248000D01*
X104593659Y-80198332D01*
X104596413Y-80195491D01*
X104616135Y-80175769D01*
X104618619Y-80172567D01*
X104626317Y-80163555D01*
X104651161Y-80137098D01*
X104656586Y-80131321D01*
X104666347Y-80113566D01*
X104677198Y-80097047D01*
X104689614Y-80081041D01*
X104707174Y-80040463D01*
X104712391Y-80029813D01*
X104733695Y-79991060D01*
X104738733Y-79971437D01*
X104745137Y-79952734D01*
X104750033Y-79941420D01*
X104750033Y-79941419D01*
X104753181Y-79934145D01*
X104754420Y-79926322D01*
X104754423Y-79926312D01*
X104760099Y-79890476D01*
X104762505Y-79878856D01*
X104771528Y-79843711D01*
X104771528Y-79843710D01*
X104773500Y-79836030D01*
X104773500Y-79815776D01*
X104775051Y-79796065D01*
X104776980Y-79783886D01*
X104778220Y-79776057D01*
X104774059Y-79732038D01*
X104773500Y-79720181D01*
X104773500Y-79442524D01*
X104793502Y-79374403D01*
X104805858Y-79358221D01*
X104879040Y-79276944D01*
X104950931Y-79152425D01*
X104971223Y-79117279D01*
X104971224Y-79117278D01*
X104974527Y-79111556D01*
X105033542Y-78929928D01*
X105046157Y-78809908D01*
X105052814Y-78746565D01*
X105053504Y-78740000D01*
X105052814Y-78733435D01*
X105034233Y-78556643D01*
X105034232Y-78556640D01*
X105033542Y-78550072D01*
X105033259Y-78549200D01*
X105032545Y-78521866D01*
X105030730Y-78521809D01*
X105030979Y-78513890D01*
X105032220Y-78506057D01*
X105030675Y-78489707D01*
X105028059Y-78462039D01*
X105027500Y-78450181D01*
X105027500Y-74362524D01*
X105047502Y-74294403D01*
X105059858Y-74278221D01*
X105133040Y-74196944D01*
X105204931Y-74072425D01*
X105225223Y-74037279D01*
X105225224Y-74037278D01*
X105228527Y-74031556D01*
X105287542Y-73849928D01*
X105300157Y-73729908D01*
X105306814Y-73666565D01*
X105307504Y-73660000D01*
X105287542Y-73470072D01*
X105228527Y-73288444D01*
X105133040Y-73123056D01*
X105059863Y-73041785D01*
X105029147Y-72977779D01*
X105027500Y-72957476D01*
X105027500Y-72408500D01*
X105047502Y-72340379D01*
X105101158Y-72293886D01*
X105153500Y-72282500D01*
X105251487Y-72282500D01*
X105257939Y-72281128D01*
X105257944Y-72281128D01*
X105344887Y-72262647D01*
X105438288Y-72242794D01*
X105446266Y-72239242D01*
X105606722Y-72167803D01*
X105606724Y-72167802D01*
X105612752Y-72165118D01*
X105623198Y-72157529D01*
X105755828Y-72061167D01*
X105767253Y-72052866D01*
X105771668Y-72047963D01*
X105776580Y-72043540D01*
X105777705Y-72044789D01*
X105831014Y-72011949D01*
X105864200Y-72007500D01*
X106479800Y-72007500D01*
X106547921Y-72027502D01*
X106567147Y-72043843D01*
X106567420Y-72043540D01*
X106572332Y-72047963D01*
X106576747Y-72052866D01*
X106588172Y-72061167D01*
X106720803Y-72157529D01*
X106731248Y-72165118D01*
X106737276Y-72167802D01*
X106737278Y-72167803D01*
X106897734Y-72239242D01*
X106905712Y-72242794D01*
X106999113Y-72262647D01*
X107086056Y-72281128D01*
X107086061Y-72281128D01*
X107092513Y-72282500D01*
X107283487Y-72282500D01*
X107289939Y-72281128D01*
X107289944Y-72281128D01*
X107376887Y-72262647D01*
X107470288Y-72242794D01*
X107478266Y-72239242D01*
X107638722Y-72167803D01*
X107638724Y-72167802D01*
X107644752Y-72165118D01*
X107655198Y-72157529D01*
X107700157Y-72124864D01*
X107799253Y-72052866D01*
X107918266Y-71920689D01*
X107922621Y-71915852D01*
X107922622Y-71915851D01*
X107927040Y-71910944D01*
X108002723Y-71779857D01*
X108019223Y-71751279D01*
X108019224Y-71751278D01*
X108022527Y-71745556D01*
X108081542Y-71563928D01*
X108101504Y-71374000D01*
X108095278Y-71314767D01*
X108082232Y-71190635D01*
X108082232Y-71190633D01*
X108081542Y-71184072D01*
X108022527Y-71002444D01*
X107927040Y-70837056D01*
X107799253Y-70695134D01*
X107644752Y-70582882D01*
X107638724Y-70580198D01*
X107638722Y-70580197D01*
X107476319Y-70507891D01*
X107476318Y-70507891D01*
X107470288Y-70505206D01*
X107368170Y-70483500D01*
X107289944Y-70466872D01*
X107289939Y-70466872D01*
X107283487Y-70465500D01*
X107092513Y-70465500D01*
X107086061Y-70466872D01*
X107086056Y-70466872D01*
X107007830Y-70483500D01*
X106905712Y-70505206D01*
X106899682Y-70507891D01*
X106899681Y-70507891D01*
X106737278Y-70580197D01*
X106737276Y-70580198D01*
X106731248Y-70582882D01*
X106576747Y-70695134D01*
X106572332Y-70700037D01*
X106567420Y-70704460D01*
X106566295Y-70703211D01*
X106512986Y-70736051D01*
X106479800Y-70740500D01*
X105864200Y-70740500D01*
X105796079Y-70720498D01*
X105776853Y-70704157D01*
X105776580Y-70704460D01*
X105771668Y-70700037D01*
X105767253Y-70695134D01*
X105612752Y-70582882D01*
X105606724Y-70580198D01*
X105606722Y-70580197D01*
X105444319Y-70507891D01*
X105444318Y-70507891D01*
X105438288Y-70505206D01*
X105336170Y-70483500D01*
X105257944Y-70466872D01*
X105257939Y-70466872D01*
X105251487Y-70465500D01*
X105153500Y-70465500D01*
X105085379Y-70445498D01*
X105038886Y-70391842D01*
X105027500Y-70339500D01*
X105027500Y-69674763D01*
X105028027Y-69663579D01*
X105029701Y-69656091D01*
X105027562Y-69588032D01*
X105027500Y-69584075D01*
X105027500Y-69556144D01*
X105026994Y-69552138D01*
X105026061Y-69540292D01*
X105024922Y-69504037D01*
X105024673Y-69496110D01*
X105019022Y-69476658D01*
X105015014Y-69457306D01*
X105013468Y-69445068D01*
X105013467Y-69445066D01*
X105012474Y-69437203D01*
X104996194Y-69396086D01*
X104992359Y-69384885D01*
X104980018Y-69342406D01*
X104975985Y-69335587D01*
X104975983Y-69335582D01*
X104969707Y-69324971D01*
X104961010Y-69307221D01*
X104953552Y-69288383D01*
X104927571Y-69252623D01*
X104921053Y-69242701D01*
X104902578Y-69211460D01*
X104902574Y-69211455D01*
X104898542Y-69204637D01*
X104884218Y-69190313D01*
X104871376Y-69175278D01*
X104859472Y-69158893D01*
X104841574Y-69144086D01*
X104801836Y-69085255D01*
X104796579Y-69060172D01*
X104780232Y-68904635D01*
X104780232Y-68904633D01*
X104779542Y-68898072D01*
X104720527Y-68716444D01*
X104625040Y-68551056D01*
X104612662Y-68537309D01*
X104581946Y-68473303D01*
X104590710Y-68402850D01*
X104612661Y-68368693D01*
X104625040Y-68354944D01*
X104720527Y-68189556D01*
X104779542Y-68007928D01*
X104784107Y-67964500D01*
X104798814Y-67824565D01*
X104799504Y-67818000D01*
X104791774Y-67744457D01*
X104780232Y-67634635D01*
X104780232Y-67634633D01*
X104779542Y-67628072D01*
X104720527Y-67446444D01*
X104625040Y-67281056D01*
X104551863Y-67199785D01*
X104521147Y-67135779D01*
X104519500Y-67115476D01*
X104519500Y-61782594D01*
X104539502Y-61714473D01*
X104556405Y-61693499D01*
X105614499Y-60635405D01*
X105676811Y-60601379D01*
X105703594Y-60598500D01*
X105759487Y-60598500D01*
X105765939Y-60597128D01*
X105765944Y-60597128D01*
X105858284Y-60577500D01*
X105946288Y-60558794D01*
X106020574Y-60525720D01*
X106114722Y-60483803D01*
X106114724Y-60483802D01*
X106120752Y-60481118D01*
X106134120Y-60471406D01*
X106176157Y-60440864D01*
X106275253Y-60368866D01*
X106279675Y-60363955D01*
X106398621Y-60231852D01*
X106398622Y-60231851D01*
X106403040Y-60226944D01*
X106475097Y-60102138D01*
X106495223Y-60067279D01*
X106495224Y-60067278D01*
X106498527Y-60061556D01*
X106557542Y-59879928D01*
X106563620Y-59822104D01*
X106576814Y-59696565D01*
X106577504Y-59690000D01*
X106557542Y-59500072D01*
X106498527Y-59318444D01*
X106494228Y-59310997D01*
X106406341Y-59158774D01*
X106403040Y-59153056D01*
X106375147Y-59122077D01*
X106279675Y-59016045D01*
X106279674Y-59016044D01*
X106275253Y-59011134D01*
X106152311Y-58921811D01*
X106126094Y-58902763D01*
X106126093Y-58902762D01*
X106120752Y-58898882D01*
X106114724Y-58896198D01*
X106114722Y-58896197D01*
X105952319Y-58823891D01*
X105952318Y-58823891D01*
X105946288Y-58821206D01*
X105852887Y-58801353D01*
X105765944Y-58782872D01*
X105765939Y-58782872D01*
X105759487Y-58781500D01*
X105568513Y-58781500D01*
X105562061Y-58782872D01*
X105562056Y-58782872D01*
X105475113Y-58801353D01*
X105381712Y-58821206D01*
X105375682Y-58823891D01*
X105375681Y-58823891D01*
X105213278Y-58896197D01*
X105213276Y-58896198D01*
X105207248Y-58898882D01*
X105201907Y-58902762D01*
X105201906Y-58902763D01*
X105175689Y-58921811D01*
X105052747Y-59011134D01*
X105048326Y-59016044D01*
X105048325Y-59016045D01*
X104952854Y-59122077D01*
X104924960Y-59153056D01*
X104921659Y-59158774D01*
X104833773Y-59310997D01*
X104829473Y-59318444D01*
X104770458Y-59500072D01*
X104758325Y-59615516D01*
X104753093Y-59665293D01*
X104726080Y-59730950D01*
X104716878Y-59741218D01*
X103493747Y-60964348D01*
X103485461Y-60971888D01*
X103478982Y-60976000D01*
X103473557Y-60981777D01*
X103432357Y-61025651D01*
X103429602Y-61028493D01*
X103409865Y-61048230D01*
X103407385Y-61051427D01*
X103399682Y-61060447D01*
X103369414Y-61092679D01*
X103365595Y-61099625D01*
X103365593Y-61099628D01*
X103359652Y-61110434D01*
X103348801Y-61126953D01*
X103336386Y-61142959D01*
X103333241Y-61150228D01*
X103333238Y-61150232D01*
X103318826Y-61183537D01*
X103313609Y-61194187D01*
X103292305Y-61232940D01*
X103290334Y-61240615D01*
X103290334Y-61240616D01*
X103287267Y-61252562D01*
X103280863Y-61271266D01*
X103272819Y-61289855D01*
X103271580Y-61297678D01*
X103271577Y-61297688D01*
X103265901Y-61333524D01*
X103263495Y-61345144D01*
X103257720Y-61367639D01*
X103252500Y-61387970D01*
X103252500Y-61408224D01*
X103250949Y-61427934D01*
X103247780Y-61447943D01*
X103248526Y-61455835D01*
X103251941Y-61491961D01*
X103252500Y-61503819D01*
X103252500Y-67115476D01*
X103232498Y-67183597D01*
X103220142Y-67199779D01*
X103173920Y-67251114D01*
X103149573Y-67278154D01*
X103089126Y-67315393D01*
X103018143Y-67314041D01*
X102991698Y-67300725D01*
X102991320Y-67301413D01*
X102973566Y-67291652D01*
X102957047Y-67280801D01*
X102953634Y-67278154D01*
X102941041Y-67268386D01*
X102933772Y-67265241D01*
X102933768Y-67265238D01*
X102900463Y-67250826D01*
X102889813Y-67245609D01*
X102851060Y-67224305D01*
X102831437Y-67219267D01*
X102812734Y-67212863D01*
X102801420Y-67207967D01*
X102801419Y-67207967D01*
X102794145Y-67204819D01*
X102786322Y-67203580D01*
X102786312Y-67203577D01*
X102750476Y-67197901D01*
X102738856Y-67195495D01*
X102703711Y-67186472D01*
X102703710Y-67186472D01*
X102696030Y-67184500D01*
X102675776Y-67184500D01*
X102656065Y-67182949D01*
X102643886Y-67181020D01*
X102636057Y-67179780D01*
X102628165Y-67180526D01*
X102592039Y-67183941D01*
X102580181Y-67184500D01*
X99260200Y-67184500D01*
X99192079Y-67164498D01*
X99172853Y-67148157D01*
X99172580Y-67148460D01*
X99167668Y-67144037D01*
X99163253Y-67139134D01*
X99057865Y-67062565D01*
X99014094Y-67030763D01*
X99014093Y-67030762D01*
X99008752Y-67026882D01*
X99002724Y-67024198D01*
X99002722Y-67024197D01*
X98840319Y-66951891D01*
X98840318Y-66951891D01*
X98834288Y-66949206D01*
X98713300Y-66923489D01*
X98653944Y-66910872D01*
X98653939Y-66910872D01*
X98647487Y-66909500D01*
X98456513Y-66909500D01*
X98450061Y-66910872D01*
X98450056Y-66910872D01*
X98390700Y-66923489D01*
X98269712Y-66949206D01*
X98263682Y-66951891D01*
X98263681Y-66951891D01*
X98101278Y-67024197D01*
X98101276Y-67024198D01*
X98095248Y-67026882D01*
X98089907Y-67030762D01*
X98089906Y-67030763D01*
X98046135Y-67062565D01*
X97940747Y-67139134D01*
X97936332Y-67144037D01*
X97931420Y-67148460D01*
X97930295Y-67147211D01*
X97876986Y-67180051D01*
X97843800Y-67184500D01*
X95459733Y-67184500D01*
X95391612Y-67164498D01*
X95366096Y-67142809D01*
X95362691Y-67139027D01*
X95358270Y-67134117D01*
X95216016Y-67030763D01*
X95209111Y-67025746D01*
X95209110Y-67025745D01*
X95203769Y-67021865D01*
X95197741Y-67019181D01*
X95197739Y-67019180D01*
X95035336Y-66946874D01*
X95035335Y-66946874D01*
X95029305Y-66944189D01*
X94931920Y-66923489D01*
X94848961Y-66905855D01*
X94848956Y-66905855D01*
X94842504Y-66904483D01*
X94651530Y-66904483D01*
X94645078Y-66905855D01*
X94645073Y-66905855D01*
X94562114Y-66923489D01*
X94464729Y-66944189D01*
X94458699Y-66946874D01*
X94458698Y-66946874D01*
X94296295Y-67019180D01*
X94296293Y-67019181D01*
X94290265Y-67021865D01*
X94284924Y-67025745D01*
X94284923Y-67025746D01*
X94278018Y-67030763D01*
X94135764Y-67134117D01*
X94131343Y-67139027D01*
X94131342Y-67139028D01*
X94014011Y-67269338D01*
X94007977Y-67276039D01*
X93912490Y-67441427D01*
X93853475Y-67623055D01*
X93833513Y-67812983D01*
X93834203Y-67819548D01*
X93846426Y-67935840D01*
X93853475Y-68002911D01*
X93912490Y-68184539D01*
X94007977Y-68349927D01*
X94012395Y-68354834D01*
X94012396Y-68354835D01*
X94115421Y-68469256D01*
X94135764Y-68491849D01*
X94198337Y-68537311D01*
X94252477Y-68576646D01*
X94290265Y-68604101D01*
X94296293Y-68606785D01*
X94296295Y-68606786D01*
X94458698Y-68679092D01*
X94464729Y-68681777D01*
X94558130Y-68701630D01*
X94645073Y-68720111D01*
X94645078Y-68720111D01*
X94651530Y-68721483D01*
X94842504Y-68721483D01*
X94848956Y-68720111D01*
X94848961Y-68720111D01*
X94935904Y-68701630D01*
X95029305Y-68681777D01*
X95035336Y-68679092D01*
X95197739Y-68606786D01*
X95197741Y-68606785D01*
X95203769Y-68604101D01*
X95236941Y-68580000D01*
X95352926Y-68495732D01*
X95352928Y-68495730D01*
X95358270Y-68491849D01*
X95362688Y-68486942D01*
X95366109Y-68483862D01*
X95430117Y-68453146D01*
X95450418Y-68451500D01*
X97843800Y-68451500D01*
X97911921Y-68471502D01*
X97931147Y-68487843D01*
X97931420Y-68487540D01*
X97936332Y-68491963D01*
X97940747Y-68496866D01*
X97946086Y-68500745D01*
X98088343Y-68604101D01*
X98095248Y-68609118D01*
X98101276Y-68611802D01*
X98101278Y-68611803D01*
X98261525Y-68683149D01*
X98269712Y-68686794D01*
X98363112Y-68706647D01*
X98450056Y-68725128D01*
X98450061Y-68725128D01*
X98456513Y-68726500D01*
X98647487Y-68726500D01*
X98653939Y-68725128D01*
X98653944Y-68725128D01*
X98740888Y-68706647D01*
X98834288Y-68686794D01*
X98842475Y-68683149D01*
X99002722Y-68611803D01*
X99002724Y-68611802D01*
X99008752Y-68609118D01*
X99015658Y-68604101D01*
X99157914Y-68500745D01*
X99163253Y-68496866D01*
X99167668Y-68491963D01*
X99172580Y-68487540D01*
X99173705Y-68488789D01*
X99227014Y-68455949D01*
X99260200Y-68451500D01*
X102301406Y-68451500D01*
X102369527Y-68471502D01*
X102390501Y-68488405D01*
X102938878Y-69036782D01*
X102972904Y-69099094D01*
X102975092Y-69112703D01*
X102977879Y-69139218D01*
X102989799Y-69252625D01*
X102992458Y-69277928D01*
X103051473Y-69459556D01*
X103054776Y-69465278D01*
X103054777Y-69465279D01*
X103077154Y-69504037D01*
X103146960Y-69624944D01*
X103151378Y-69629851D01*
X103151379Y-69629852D01*
X103270325Y-69761955D01*
X103274747Y-69766866D01*
X103429248Y-69879118D01*
X103435276Y-69881802D01*
X103435278Y-69881803D01*
X103501674Y-69911364D01*
X103603712Y-69956794D01*
X103649407Y-69966507D01*
X103660698Y-69968907D01*
X103723171Y-70002635D01*
X103757492Y-70064785D01*
X103760500Y-70092153D01*
X103760500Y-71131678D01*
X103740498Y-71199799D01*
X103686842Y-71246292D01*
X103616568Y-71256396D01*
X103581270Y-71244178D01*
X103580752Y-71245342D01*
X103412319Y-71170351D01*
X103412318Y-71170351D01*
X103406288Y-71167666D01*
X103312887Y-71147813D01*
X103225944Y-71129332D01*
X103225939Y-71129332D01*
X103219487Y-71127960D01*
X103163595Y-71127960D01*
X103095474Y-71107958D01*
X103074500Y-71091055D01*
X101441192Y-69457747D01*
X101433652Y-69449461D01*
X101429540Y-69442982D01*
X101379888Y-69396356D01*
X101377047Y-69393602D01*
X101357310Y-69373865D01*
X101354113Y-69371385D01*
X101345091Y-69363680D01*
X101330536Y-69350012D01*
X101312861Y-69333414D01*
X101305915Y-69329595D01*
X101305912Y-69329593D01*
X101295106Y-69323652D01*
X101278587Y-69312801D01*
X101271381Y-69307212D01*
X101262581Y-69300386D01*
X101255312Y-69297241D01*
X101255308Y-69297238D01*
X101222003Y-69282826D01*
X101211353Y-69277609D01*
X101172600Y-69256305D01*
X101152977Y-69251267D01*
X101134274Y-69244863D01*
X101122960Y-69239967D01*
X101122959Y-69239967D01*
X101115685Y-69236819D01*
X101107862Y-69235580D01*
X101107852Y-69235577D01*
X101072016Y-69229901D01*
X101060396Y-69227495D01*
X101025251Y-69218472D01*
X101025250Y-69218472D01*
X101017570Y-69216500D01*
X100997316Y-69216500D01*
X100977605Y-69214949D01*
X100965426Y-69213020D01*
X100957597Y-69211780D01*
X100949705Y-69212526D01*
X100913579Y-69215941D01*
X100901721Y-69216500D01*
X89468594Y-69216500D01*
X89400473Y-69196498D01*
X89379499Y-69179595D01*
X89339122Y-69139218D01*
X89305096Y-69076906D01*
X89302907Y-69063293D01*
X89286232Y-68904635D01*
X89286232Y-68904633D01*
X89285542Y-68898072D01*
X89226527Y-68716444D01*
X89207859Y-68684109D01*
X89134342Y-68556775D01*
X89134341Y-68556774D01*
X89131040Y-68551056D01*
X89126621Y-68546148D01*
X89124564Y-68543317D01*
X89100705Y-68476449D01*
X89100500Y-68469256D01*
X89100500Y-67056000D01*
X90272496Y-67056000D01*
X90273186Y-67062565D01*
X90291364Y-67235516D01*
X90292458Y-67245928D01*
X90351473Y-67427556D01*
X90446960Y-67592944D01*
X90451378Y-67597851D01*
X90451379Y-67597852D01*
X90474072Y-67623055D01*
X90574747Y-67734866D01*
X90587948Y-67744457D01*
X90698207Y-67824565D01*
X90729248Y-67847118D01*
X90735276Y-67849802D01*
X90735278Y-67849803D01*
X90853416Y-67902401D01*
X90903712Y-67924794D01*
X90978026Y-67940590D01*
X91084056Y-67963128D01*
X91084061Y-67963128D01*
X91090513Y-67964500D01*
X91281487Y-67964500D01*
X91287939Y-67963128D01*
X91287944Y-67963128D01*
X91393974Y-67940590D01*
X91468288Y-67924794D01*
X91518584Y-67902401D01*
X91636722Y-67849803D01*
X91636724Y-67849802D01*
X91642752Y-67847118D01*
X91673794Y-67824565D01*
X91784052Y-67744457D01*
X91797253Y-67734866D01*
X91897928Y-67623055D01*
X91920621Y-67597852D01*
X91920622Y-67597851D01*
X91925040Y-67592944D01*
X92020527Y-67427556D01*
X92079542Y-67245928D01*
X92080637Y-67235516D01*
X92098814Y-67062565D01*
X92099504Y-67056000D01*
X92088280Y-66949206D01*
X92080232Y-66872635D01*
X92080232Y-66872633D01*
X92079542Y-66866072D01*
X92020527Y-66684444D01*
X92005849Y-66659020D01*
X91983314Y-66619990D01*
X91925040Y-66519056D01*
X91851863Y-66437785D01*
X91821147Y-66373779D01*
X91819500Y-66353476D01*
X91819500Y-63560594D01*
X91839502Y-63492473D01*
X91856405Y-63471499D01*
X94713499Y-60614405D01*
X94775811Y-60580379D01*
X94802594Y-60577500D01*
X99875800Y-60577500D01*
X99943921Y-60597502D01*
X99963147Y-60613843D01*
X99963420Y-60613540D01*
X99968332Y-60617963D01*
X99972747Y-60622866D01*
X100127248Y-60735118D01*
X100133276Y-60737802D01*
X100133278Y-60737803D01*
X100295681Y-60810109D01*
X100301712Y-60812794D01*
X100395113Y-60832647D01*
X100482056Y-60851128D01*
X100482061Y-60851128D01*
X100488513Y-60852500D01*
X100679487Y-60852500D01*
X100685939Y-60851128D01*
X100685944Y-60851128D01*
X100772887Y-60832647D01*
X100866288Y-60812794D01*
X100872319Y-60810109D01*
X101034722Y-60737803D01*
X101034724Y-60737802D01*
X101040752Y-60735118D01*
X101195253Y-60622866D01*
X101218428Y-60597128D01*
X101318621Y-60485852D01*
X101318622Y-60485851D01*
X101323040Y-60480944D01*
X101418527Y-60315556D01*
X101477542Y-60133928D01*
X101478538Y-60124457D01*
X101496814Y-59950565D01*
X101497504Y-59944000D01*
X101485291Y-59827800D01*
X101478232Y-59760635D01*
X101478232Y-59760633D01*
X101477542Y-59754072D01*
X101418527Y-59572444D01*
X101323040Y-59407056D01*
X101306881Y-59389109D01*
X101199675Y-59270045D01*
X101199674Y-59270044D01*
X101195253Y-59265134D01*
X101040752Y-59152882D01*
X101034724Y-59150198D01*
X101034722Y-59150197D01*
X100872319Y-59077891D01*
X100872318Y-59077891D01*
X100866288Y-59075206D01*
X100772888Y-59055353D01*
X100685944Y-59036872D01*
X100685939Y-59036872D01*
X100679487Y-59035500D01*
X100488513Y-59035500D01*
X100482061Y-59036872D01*
X100482056Y-59036872D01*
X100395112Y-59055353D01*
X100301712Y-59075206D01*
X100295682Y-59077891D01*
X100295681Y-59077891D01*
X100133278Y-59150197D01*
X100133276Y-59150198D01*
X100127248Y-59152882D01*
X99972747Y-59265134D01*
X99968332Y-59270037D01*
X99963420Y-59274460D01*
X99962295Y-59273211D01*
X99908986Y-59306051D01*
X99875800Y-59310500D01*
X94566767Y-59310500D01*
X94555584Y-59309973D01*
X94548091Y-59308298D01*
X94540165Y-59308547D01*
X94540164Y-59308547D01*
X94480014Y-59310438D01*
X94476055Y-59310500D01*
X94448144Y-59310500D01*
X94444210Y-59310997D01*
X94444209Y-59310997D01*
X94444144Y-59311005D01*
X94432307Y-59311938D01*
X94400490Y-59312938D01*
X94396029Y-59313078D01*
X94388110Y-59313327D01*
X94370496Y-59318444D01*
X94368658Y-59318978D01*
X94349306Y-59322986D01*
X94342235Y-59323880D01*
X94329203Y-59325526D01*
X94321834Y-59328443D01*
X94321832Y-59328444D01*
X94288097Y-59341800D01*
X94276869Y-59345645D01*
X94234407Y-59357982D01*
X94227585Y-59362016D01*
X94227579Y-59362019D01*
X94216968Y-59368294D01*
X94199218Y-59376990D01*
X94187756Y-59381528D01*
X94187751Y-59381531D01*
X94180383Y-59384448D01*
X94173968Y-59389109D01*
X94144625Y-59410427D01*
X94134707Y-59416943D01*
X94116019Y-59427995D01*
X94096637Y-59439458D01*
X94082313Y-59453782D01*
X94067281Y-59466621D01*
X94050893Y-59478528D01*
X94027641Y-59506635D01*
X94022712Y-59512593D01*
X94014722Y-59521373D01*
X90793747Y-62742348D01*
X90785461Y-62749888D01*
X90778982Y-62754000D01*
X90773557Y-62759777D01*
X90732357Y-62803651D01*
X90729602Y-62806493D01*
X90709865Y-62826230D01*
X90707385Y-62829427D01*
X90699682Y-62838447D01*
X90669414Y-62870679D01*
X90665595Y-62877625D01*
X90665593Y-62877628D01*
X90659652Y-62888434D01*
X90648801Y-62904953D01*
X90636386Y-62920959D01*
X90633241Y-62928228D01*
X90633238Y-62928232D01*
X90618826Y-62961537D01*
X90613609Y-62972187D01*
X90592305Y-63010940D01*
X90590334Y-63018615D01*
X90590334Y-63018616D01*
X90587267Y-63030562D01*
X90580863Y-63049266D01*
X90572819Y-63067855D01*
X90571580Y-63075678D01*
X90571577Y-63075688D01*
X90565901Y-63111524D01*
X90563495Y-63123144D01*
X90552500Y-63165970D01*
X90552500Y-63186224D01*
X90550949Y-63205934D01*
X90547780Y-63225943D01*
X90548526Y-63233835D01*
X90551941Y-63269961D01*
X90552500Y-63281819D01*
X90552500Y-66353476D01*
X90532498Y-66421597D01*
X90520142Y-66437779D01*
X90446960Y-66519056D01*
X90388686Y-66619990D01*
X90366152Y-66659020D01*
X90351473Y-66684444D01*
X90292458Y-66866072D01*
X90291768Y-66872633D01*
X90291768Y-66872635D01*
X90283720Y-66949206D01*
X90272496Y-67056000D01*
X89100500Y-67056000D01*
X89100500Y-56663550D01*
X90158500Y-56663550D01*
X90173499Y-56840315D01*
X90174837Y-56845470D01*
X90174838Y-56845476D01*
X90214070Y-56996632D01*
X90233080Y-57069874D01*
X90296817Y-57211364D01*
X90323056Y-57269612D01*
X90330488Y-57286111D01*
X90462937Y-57482845D01*
X90626640Y-57654450D01*
X90816917Y-57796020D01*
X90821668Y-57798436D01*
X90821672Y-57798438D01*
X91023568Y-57901087D01*
X91028326Y-57903506D01*
X91118179Y-57931406D01*
X91249719Y-57972251D01*
X91249725Y-57972252D01*
X91254822Y-57973835D01*
X91362951Y-57988166D01*
X91484646Y-58004296D01*
X91484651Y-58004296D01*
X91489931Y-58004996D01*
X91495260Y-58004796D01*
X91495262Y-58004796D01*
X91608429Y-58000548D01*
X91726928Y-57996099D01*
X91959038Y-57947397D01*
X91963994Y-57945440D01*
X91964000Y-57945438D01*
X92121386Y-57883282D01*
X92179624Y-57860283D01*
X92359100Y-57751375D01*
X92377818Y-57740017D01*
X92377821Y-57740015D01*
X92382379Y-57737249D01*
X92482241Y-57650593D01*
X92557472Y-57585311D01*
X92557474Y-57585309D01*
X92561505Y-57581811D01*
X92597412Y-57538019D01*
X92708497Y-57402543D01*
X92708501Y-57402537D01*
X92711881Y-57398415D01*
X92829206Y-57192304D01*
X92910127Y-56969371D01*
X92952328Y-56735992D01*
X92953500Y-56711141D01*
X92953500Y-56663550D01*
X104658500Y-56663550D01*
X104673499Y-56840315D01*
X104674837Y-56845470D01*
X104674838Y-56845476D01*
X104714070Y-56996632D01*
X104733080Y-57069874D01*
X104796817Y-57211364D01*
X104823056Y-57269612D01*
X104830488Y-57286111D01*
X104962937Y-57482845D01*
X105126640Y-57654450D01*
X105316917Y-57796020D01*
X105321668Y-57798436D01*
X105321672Y-57798438D01*
X105523568Y-57901087D01*
X105528326Y-57903506D01*
X105618179Y-57931406D01*
X105749719Y-57972251D01*
X105749725Y-57972252D01*
X105754822Y-57973835D01*
X105862951Y-57988166D01*
X105984646Y-58004296D01*
X105984651Y-58004296D01*
X105989931Y-58004996D01*
X105995260Y-58004796D01*
X105995262Y-58004796D01*
X106108429Y-58000548D01*
X106226928Y-57996099D01*
X106459038Y-57947397D01*
X106463994Y-57945440D01*
X106464000Y-57945438D01*
X106621386Y-57883282D01*
X106679624Y-57860283D01*
X106859100Y-57751375D01*
X106877818Y-57740017D01*
X106877821Y-57740015D01*
X106882379Y-57737249D01*
X106982241Y-57650593D01*
X107057472Y-57585311D01*
X107057474Y-57585309D01*
X107061505Y-57581811D01*
X107097412Y-57538019D01*
X107208497Y-57402543D01*
X107208501Y-57402537D01*
X107211881Y-57398415D01*
X107329206Y-57192304D01*
X107410127Y-56969371D01*
X107452328Y-56735992D01*
X107453500Y-56711141D01*
X107453500Y-54766450D01*
X107441358Y-54623357D01*
X107438952Y-54594996D01*
X107438951Y-54594992D01*
X107438501Y-54589685D01*
X107437163Y-54584530D01*
X107437162Y-54584524D01*
X107380262Y-54365297D01*
X107378920Y-54360126D01*
X107281512Y-54143889D01*
X107149063Y-53947155D01*
X106985360Y-53775550D01*
X106795083Y-53633980D01*
X106790332Y-53631564D01*
X106790328Y-53631562D01*
X106588432Y-53528913D01*
X106588431Y-53528913D01*
X106583674Y-53526494D01*
X106448631Y-53484562D01*
X106362281Y-53457749D01*
X106362275Y-53457748D01*
X106357178Y-53456165D01*
X106249049Y-53441834D01*
X106127354Y-53425704D01*
X106127349Y-53425704D01*
X106122069Y-53425004D01*
X106116740Y-53425204D01*
X106116738Y-53425204D01*
X106003570Y-53429453D01*
X105885072Y-53433901D01*
X105652962Y-53482603D01*
X105648006Y-53484560D01*
X105648000Y-53484562D01*
X105545834Y-53524910D01*
X105432376Y-53569717D01*
X105369343Y-53607966D01*
X105234182Y-53689983D01*
X105234179Y-53689985D01*
X105229621Y-53692751D01*
X105225593Y-53696246D01*
X105225592Y-53696247D01*
X105130860Y-53778452D01*
X105050495Y-53848189D01*
X105047108Y-53852320D01*
X104903503Y-54027457D01*
X104903499Y-54027463D01*
X104900119Y-54031585D01*
X104782794Y-54237696D01*
X104701873Y-54460629D01*
X104659672Y-54694008D01*
X104658500Y-54718859D01*
X104658500Y-56663550D01*
X92953500Y-56663550D01*
X92953500Y-54766450D01*
X92941358Y-54623357D01*
X92938952Y-54594996D01*
X92938951Y-54594992D01*
X92938501Y-54589685D01*
X92937163Y-54584530D01*
X92937162Y-54584524D01*
X92880262Y-54365297D01*
X92878920Y-54360126D01*
X92781512Y-54143889D01*
X92649063Y-53947155D01*
X92485360Y-53775550D01*
X92295083Y-53633980D01*
X92290332Y-53631564D01*
X92290328Y-53631562D01*
X92088432Y-53528913D01*
X92088431Y-53528913D01*
X92083674Y-53526494D01*
X91948631Y-53484562D01*
X91862281Y-53457749D01*
X91862275Y-53457748D01*
X91857178Y-53456165D01*
X91749049Y-53441834D01*
X91627354Y-53425704D01*
X91627349Y-53425704D01*
X91622069Y-53425004D01*
X91616740Y-53425204D01*
X91616738Y-53425204D01*
X91503570Y-53429453D01*
X91385072Y-53433901D01*
X91152962Y-53482603D01*
X91148006Y-53484560D01*
X91148000Y-53484562D01*
X91045834Y-53524910D01*
X90932376Y-53569717D01*
X90869343Y-53607966D01*
X90734182Y-53689983D01*
X90734179Y-53689985D01*
X90729621Y-53692751D01*
X90725593Y-53696246D01*
X90725592Y-53696247D01*
X90630860Y-53778452D01*
X90550495Y-53848189D01*
X90547108Y-53852320D01*
X90403503Y-54027457D01*
X90403499Y-54027463D01*
X90400119Y-54031585D01*
X90282794Y-54237696D01*
X90201873Y-54460629D01*
X90159672Y-54694008D01*
X90158500Y-54718859D01*
X90158500Y-56663550D01*
X89100500Y-56663550D01*
X89100500Y-54130912D01*
X89100792Y-54122342D01*
X89104209Y-54072224D01*
X89104209Y-54072220D01*
X89104725Y-54064648D01*
X89093738Y-54001697D01*
X89092776Y-53995175D01*
X89091746Y-53986661D01*
X89085102Y-53931758D01*
X89082419Y-53924657D01*
X89081778Y-53922048D01*
X89077315Y-53905738D01*
X89076550Y-53903202D01*
X89075243Y-53895716D01*
X89049556Y-53837200D01*
X89047065Y-53831096D01*
X89027173Y-53778452D01*
X89027172Y-53778451D01*
X89024487Y-53771344D01*
X89020183Y-53765081D01*
X89018946Y-53762715D01*
X89010701Y-53747903D01*
X89009368Y-53745649D01*
X89006315Y-53738695D01*
X88967413Y-53687998D01*
X88963541Y-53682668D01*
X88931661Y-53636280D01*
X88931656Y-53636275D01*
X88927357Y-53630019D01*
X88891171Y-53597778D01*
X88880830Y-53588565D01*
X88875554Y-53583584D01*
X85955520Y-50663550D01*
X90158500Y-50663550D01*
X90173499Y-50840315D01*
X90174837Y-50845470D01*
X90174838Y-50845476D01*
X90205632Y-50964120D01*
X90233080Y-51069874D01*
X90330488Y-51286111D01*
X90462937Y-51482845D01*
X90466616Y-51486702D01*
X90466618Y-51486704D01*
X90522616Y-51545405D01*
X90626640Y-51654450D01*
X90816917Y-51796020D01*
X90821668Y-51798436D01*
X90821672Y-51798438D01*
X91023568Y-51901087D01*
X91028326Y-51903506D01*
X91141574Y-51938671D01*
X91249719Y-51972251D01*
X91249725Y-51972252D01*
X91254822Y-51973835D01*
X91362951Y-51988166D01*
X91484646Y-52004296D01*
X91484651Y-52004296D01*
X91489931Y-52004996D01*
X91495260Y-52004796D01*
X91495262Y-52004796D01*
X91608430Y-52000547D01*
X91726928Y-51996099D01*
X91959038Y-51947397D01*
X91963994Y-51945440D01*
X91964000Y-51945438D01*
X92121386Y-51883282D01*
X92179624Y-51860283D01*
X92290777Y-51792834D01*
X92377818Y-51740017D01*
X92377821Y-51740015D01*
X92382379Y-51737249D01*
X92444332Y-51683489D01*
X92557472Y-51585311D01*
X92557474Y-51585309D01*
X92561505Y-51581811D01*
X92621617Y-51508500D01*
X92708497Y-51402543D01*
X92708501Y-51402537D01*
X92711881Y-51398415D01*
X92829206Y-51192304D01*
X92910127Y-50969371D01*
X92952328Y-50735992D01*
X92953500Y-50711141D01*
X92953500Y-50663550D01*
X104658500Y-50663550D01*
X104673499Y-50840315D01*
X104674837Y-50845470D01*
X104674838Y-50845476D01*
X104705632Y-50964120D01*
X104733080Y-51069874D01*
X104830488Y-51286111D01*
X104962937Y-51482845D01*
X104966616Y-51486702D01*
X104966618Y-51486704D01*
X105022616Y-51545405D01*
X105126640Y-51654450D01*
X105316917Y-51796020D01*
X105321668Y-51798436D01*
X105321672Y-51798438D01*
X105523568Y-51901087D01*
X105528326Y-51903506D01*
X105641574Y-51938671D01*
X105749719Y-51972251D01*
X105749725Y-51972252D01*
X105754822Y-51973835D01*
X105862951Y-51988166D01*
X105984646Y-52004296D01*
X105984651Y-52004296D01*
X105989931Y-52004996D01*
X105995260Y-52004796D01*
X105995262Y-52004796D01*
X106108430Y-52000547D01*
X106226928Y-51996099D01*
X106459038Y-51947397D01*
X106463994Y-51945440D01*
X106464000Y-51945438D01*
X106621386Y-51883282D01*
X106679624Y-51860283D01*
X106790777Y-51792834D01*
X106877818Y-51740017D01*
X106877821Y-51740015D01*
X106882379Y-51737249D01*
X106944332Y-51683489D01*
X107057472Y-51585311D01*
X107057474Y-51585309D01*
X107061505Y-51581811D01*
X107121617Y-51508500D01*
X107208497Y-51402543D01*
X107208501Y-51402537D01*
X107211881Y-51398415D01*
X107329206Y-51192304D01*
X107410127Y-50969371D01*
X107452328Y-50735992D01*
X107453500Y-50711141D01*
X107453500Y-48766450D01*
X107442845Y-48640876D01*
X107438952Y-48594996D01*
X107438951Y-48594992D01*
X107438501Y-48589685D01*
X107437163Y-48584530D01*
X107437162Y-48584524D01*
X107380262Y-48365297D01*
X107378920Y-48360126D01*
X107281512Y-48143889D01*
X107149063Y-47947155D01*
X106985360Y-47775550D01*
X106955110Y-47753043D01*
X106799365Y-47637166D01*
X106795083Y-47633980D01*
X106790332Y-47631564D01*
X106790328Y-47631562D01*
X106588432Y-47528913D01*
X106588431Y-47528913D01*
X106583674Y-47526494D01*
X106448631Y-47484562D01*
X106362281Y-47457749D01*
X106362275Y-47457748D01*
X106357178Y-47456165D01*
X106249049Y-47441834D01*
X106127354Y-47425704D01*
X106127349Y-47425704D01*
X106122069Y-47425004D01*
X106116740Y-47425204D01*
X106116738Y-47425204D01*
X106003571Y-47429452D01*
X105885072Y-47433901D01*
X105652962Y-47482603D01*
X105648006Y-47484560D01*
X105648000Y-47484562D01*
X105545834Y-47524910D01*
X105432376Y-47569717D01*
X105348170Y-47620814D01*
X105234182Y-47689983D01*
X105234179Y-47689985D01*
X105229621Y-47692751D01*
X105225593Y-47696246D01*
X105225592Y-47696247D01*
X105076210Y-47825875D01*
X105050495Y-47848189D01*
X105047108Y-47852320D01*
X104903503Y-48027457D01*
X104903499Y-48027463D01*
X104900119Y-48031585D01*
X104782794Y-48237696D01*
X104701873Y-48460629D01*
X104659672Y-48694008D01*
X104658500Y-48718859D01*
X104658500Y-50663550D01*
X92953500Y-50663550D01*
X92953500Y-48766450D01*
X92942845Y-48640876D01*
X92938952Y-48594996D01*
X92938951Y-48594992D01*
X92938501Y-48589685D01*
X92937163Y-48584530D01*
X92937162Y-48584524D01*
X92880262Y-48365297D01*
X92878920Y-48360126D01*
X92781512Y-48143889D01*
X92649063Y-47947155D01*
X92485360Y-47775550D01*
X92455110Y-47753043D01*
X92299365Y-47637166D01*
X92295083Y-47633980D01*
X92290332Y-47631564D01*
X92290328Y-47631562D01*
X92088432Y-47528913D01*
X92088431Y-47528913D01*
X92083674Y-47526494D01*
X91948631Y-47484562D01*
X91862281Y-47457749D01*
X91862275Y-47457748D01*
X91857178Y-47456165D01*
X91749049Y-47441834D01*
X91627354Y-47425704D01*
X91627349Y-47425704D01*
X91622069Y-47425004D01*
X91616740Y-47425204D01*
X91616738Y-47425204D01*
X91503571Y-47429452D01*
X91385072Y-47433901D01*
X91152962Y-47482603D01*
X91148006Y-47484560D01*
X91148000Y-47484562D01*
X91045834Y-47524910D01*
X90932376Y-47569717D01*
X90848170Y-47620814D01*
X90734182Y-47689983D01*
X90734179Y-47689985D01*
X90729621Y-47692751D01*
X90725593Y-47696246D01*
X90725592Y-47696247D01*
X90576210Y-47825875D01*
X90550495Y-47848189D01*
X90547108Y-47852320D01*
X90403503Y-48027457D01*
X90403499Y-48027463D01*
X90400119Y-48031585D01*
X90282794Y-48237696D01*
X90201873Y-48460629D01*
X90159672Y-48694008D01*
X90158500Y-48718859D01*
X90158500Y-50663550D01*
X85955520Y-50663550D01*
X85611450Y-50319480D01*
X85605596Y-50313215D01*
X85604018Y-50311406D01*
X85567561Y-50269615D01*
X85515280Y-50232871D01*
X85509986Y-50228939D01*
X85465693Y-50194209D01*
X85459718Y-50189524D01*
X85452802Y-50186401D01*
X85450516Y-50185017D01*
X85435835Y-50176643D01*
X85433475Y-50175378D01*
X85427261Y-50171010D01*
X85420182Y-50168250D01*
X85420180Y-50168249D01*
X85367725Y-50147798D01*
X85361656Y-50145247D01*
X85303427Y-50118955D01*
X85295960Y-50117571D01*
X85293405Y-50116770D01*
X85277152Y-50112141D01*
X85274572Y-50111478D01*
X85267491Y-50108718D01*
X85259960Y-50107727D01*
X85259958Y-50107726D01*
X85230339Y-50103827D01*
X85204139Y-50100378D01*
X85197641Y-50099348D01*
X85134814Y-50087704D01*
X85127234Y-50088141D01*
X85127233Y-50088141D01*
X85072608Y-50091291D01*
X85065354Y-50091500D01*
X79968286Y-50091500D01*
X79900165Y-50071498D01*
X79862494Y-50033941D01*
X79820014Y-49968277D01*
X79669670Y-49803051D01*
X79665619Y-49799852D01*
X79665615Y-49799848D01*
X79498414Y-49667800D01*
X79498410Y-49667798D01*
X79494359Y-49664598D01*
X79452569Y-49641529D01*
X79402598Y-49591097D01*
X79387826Y-49521654D01*
X79412942Y-49455248D01*
X79440294Y-49428641D01*
X79615328Y-49303792D01*
X79623200Y-49297139D01*
X79774052Y-49146812D01*
X79780730Y-49138965D01*
X79905003Y-48966020D01*
X79910313Y-48957183D01*
X80004670Y-48766267D01*
X80008469Y-48756672D01*
X80070377Y-48552910D01*
X80072555Y-48542837D01*
X80073986Y-48531962D01*
X80071775Y-48517778D01*
X80058617Y-48514000D01*
X74860116Y-48514000D01*
X74844877Y-48518475D01*
X74843672Y-48519865D01*
X74842001Y-48527548D01*
X74842001Y-49154669D01*
X74842371Y-49161490D01*
X74847895Y-49212352D01*
X74851521Y-49227604D01*
X74896676Y-49348054D01*
X74905214Y-49363649D01*
X74981715Y-49465724D01*
X74994276Y-49478285D01*
X75096351Y-49554786D01*
X75111946Y-49563324D01*
X75220827Y-49604142D01*
X75277591Y-49646784D01*
X75302291Y-49713345D01*
X75287083Y-49782694D01*
X75267691Y-49809175D01*
X75226249Y-49852542D01*
X75140629Y-49942138D01*
X75014743Y-50126680D01*
X74994166Y-50171010D01*
X74925249Y-50319480D01*
X74920688Y-50329305D01*
X74860989Y-50544570D01*
X74837251Y-50766695D01*
X74168500Y-50766695D01*
X74168500Y-47987885D01*
X74842000Y-47987885D01*
X74846475Y-48003124D01*
X74847865Y-48004329D01*
X74855548Y-48006000D01*
X75927885Y-48006000D01*
X75943124Y-48001525D01*
X75944329Y-48000135D01*
X75946000Y-47992452D01*
X75946000Y-47987885D01*
X76454000Y-47987885D01*
X76458475Y-48003124D01*
X76459865Y-48004329D01*
X76467548Y-48006000D01*
X78467885Y-48006000D01*
X78483124Y-48001525D01*
X78484329Y-48000135D01*
X78486000Y-47992452D01*
X78486000Y-47987885D01*
X78994000Y-47987885D01*
X78998475Y-48003124D01*
X78999865Y-48004329D01*
X79007548Y-48006000D01*
X80058344Y-48006000D01*
X80071875Y-48002027D01*
X80073180Y-47992947D01*
X80031214Y-47825875D01*
X80027894Y-47816124D01*
X79942972Y-47620814D01*
X79938105Y-47611739D01*
X79822426Y-47432926D01*
X79816136Y-47424757D01*
X79672806Y-47267240D01*
X79665273Y-47260215D01*
X79498139Y-47128222D01*
X79489552Y-47122517D01*
X79303117Y-47019599D01*
X79293705Y-47015369D01*
X79092959Y-46944280D01*
X79082988Y-46941646D01*
X79011837Y-46928972D01*
X78998540Y-46930432D01*
X78994000Y-46944989D01*
X78994000Y-47987885D01*
X78486000Y-47987885D01*
X78486000Y-46943102D01*
X78482082Y-46929758D01*
X78467806Y-46927771D01*
X78429324Y-46933660D01*
X78419288Y-46936051D01*
X78216868Y-47002212D01*
X78207359Y-47006209D01*
X78018463Y-47104542D01*
X78009738Y-47110036D01*
X77839433Y-47237905D01*
X77831726Y-47244748D01*
X77754094Y-47325985D01*
X77692570Y-47361415D01*
X77621657Y-47357958D01*
X77563871Y-47316712D01*
X77545018Y-47283164D01*
X77503324Y-47171946D01*
X77494786Y-47156351D01*
X77418285Y-47054276D01*
X77405724Y-47041715D01*
X77303649Y-46965214D01*
X77288054Y-46956676D01*
X77167606Y-46911522D01*
X77152351Y-46907895D01*
X77101486Y-46902369D01*
X77094672Y-46902000D01*
X76472115Y-46902000D01*
X76456876Y-46906475D01*
X76455671Y-46907865D01*
X76454000Y-46915548D01*
X76454000Y-47987885D01*
X75946000Y-47987885D01*
X75946000Y-46920116D01*
X75941525Y-46904877D01*
X75940135Y-46903672D01*
X75932452Y-46902001D01*
X75305331Y-46902001D01*
X75298510Y-46902371D01*
X75247648Y-46907895D01*
X75232396Y-46911521D01*
X75111946Y-46956676D01*
X75096351Y-46965214D01*
X74994276Y-47041715D01*
X74981715Y-47054276D01*
X74905214Y-47156351D01*
X74896676Y-47171946D01*
X74851522Y-47292394D01*
X74847895Y-47307649D01*
X74842369Y-47358514D01*
X74842000Y-47365328D01*
X74842000Y-47987885D01*
X74168500Y-47987885D01*
X74168500Y-46354500D01*
X74188502Y-46286379D01*
X74242158Y-46239886D01*
X74294500Y-46228500D01*
X115697500Y-46228500D01*
X115765621Y-46248502D01*
G37*
%TD.AperFunction*%
%TD*%
M02*
