M48
; DRILL file {KiCad 6.0.4} date Tue 03 May 2022 11:03:21 PM CEST
; FORMAT={-:-/ absolute / inch / decimal}
; #@! TF.CreationDate,2022-05-03T23:03:21+02:00
; #@! TF.GenerationSoftware,Kicad,Pcbnew,6.0.4
; #@! TF.FileFunction,Plated,1,2,PTH
FMAT,2
INCH
; #@! TA.AperFunction,Plated,PTH,ViaDrill
T1C0.0157
; #@! TA.AperFunction,Plated,PTH,ComponentDrill
T2C0.0354
; #@! TA.AperFunction,Plated,PTH,ComponentDrill
T3C0.0394
; #@! TA.AperFunction,Plated,PTH,ComponentDrill
T4C0.1260
%
G90
G05
T1
X3.32Y-2.17
X3.32Y-2.27
X3.32Y-2.37
X3.35Y-4.45
X3.35Y-4.53
X3.35Y-4.61
X3.35Y-4.69
X3.36Y-2.22
X3.36Y-2.32
X3.39Y-2.74
X3.39Y-2.83
X3.39Y-2.99
X3.48Y-2.72
X3.49Y-3.24
X3.49Y-3.29
X3.51Y-2.83
X3.51Y-3.0046
X3.54Y-3.29
X3.59Y-2.64
X3.59Y-3.23
X3.59Y-3.29
X3.65Y-2.68
X3.7Y-3.91
X3.72Y-3.35
X3.73Y-2.55
X3.73Y-2.88
X3.73Y-2.95
X3.73Y-3.02
X3.7302Y-2.6698
X3.75Y-3.32
X3.76Y-2.07
X3.79Y-3.25
X3.79Y-3.91
X3.8Y-2.88
X3.8Y-2.95
X3.8Y-3.02
X3.81Y-2.55
X3.87Y-2.88
X3.87Y-2.95
X3.87Y-3.02
X3.88Y-2.07
X3.88Y-2.67
X3.89Y-2.55
X3.96Y-2.36
X3.99Y-2.55
X4.0098Y-3.1898
X4.03Y-2.07
X4.04Y-2.64
X4.04Y-3.08
X4.06Y-2.8361
X4.08Y-2.94
X4.09Y-2.67
X4.09Y-2.72
X4.1Y-3.1
X4.11Y-2.9
X4.12Y-3.17
X4.14Y-2.73
X4.14Y-2.81
X4.14Y-3.1
X4.16Y-2.35
X4.19Y-2.98
X4.21Y-4.81
X4.22Y-2.81
X4.26Y-4.75
X4.27Y-3.47
X4.27Y-3.55
X4.27Y-3.63
X4.27Y-3.71
X4.31Y-4.69
X4.47Y-2.72
X4.47Y-2.8
X4.47Y-2.88
X4.47Y-2.96
X4.47Y-3.23
X4.47Y-3.31
X4.47Y-3.39
X4.47Y-3.47
T3
X3.0Y-1.9
X3.0Y-2.0
X3.0Y-2.1
X3.0Y-2.2
X3.0Y-2.3
X3.0Y-2.4
X3.0Y-2.5
X3.0Y-2.6
X3.0Y-2.7
X3.0Y-2.8
X3.0Y-2.9
X3.0Y-3.0
X3.0Y-3.1
X3.0Y-3.2
X3.0Y-3.3
X3.0Y-3.4
X3.0Y-3.5
X3.0Y-3.6
X3.0Y-3.7
X3.0Y-3.8
X3.0Y-3.9
X3.0Y-4.0
X3.0Y-4.1
X3.0Y-4.2
X3.0Y-4.3
X3.0Y-4.4
X3.0Y-4.5
X3.0Y-4.6
X3.0Y-4.7
X3.0Y-4.8
X3.0Y-4.9
X3.0Y-5.0
X3.1Y-1.9
X3.1Y-2.0
X3.1Y-2.1
X3.1Y-2.2
X3.1Y-2.3
X3.1Y-2.4
X3.1Y-2.5
X3.1Y-2.6
X3.1Y-2.7
X3.1Y-2.8
X3.1Y-2.9
X3.1Y-3.0
X3.1Y-3.1
X3.1Y-3.2
X3.1Y-3.3
X3.1Y-3.4
X3.1Y-3.5
X3.1Y-3.6
X3.1Y-3.7
X3.1Y-3.8
X3.1Y-3.9
X3.1Y-4.0
X3.1Y-4.1
X3.1Y-4.2
X3.1Y-4.3
X3.1Y-4.4
X3.1Y-4.5
X3.1Y-4.6
X3.1Y-4.7
X3.1Y-4.8
X3.1Y-4.9
X3.1Y-5.0
T4
X4.41Y-4.95
X4.42Y-1.97
T2
G00X3.6046Y-1.9809
M15
G01X3.6046Y-1.9337
M16
G05
G00X3.6046Y-2.2289
M15
G01X3.6046Y-2.1581
M16
G05
G00X4.1754Y-1.9809
M15
G01X4.1754Y-1.9337
M16
G05
G00X4.1754Y-2.2289
M15
G01X4.1754Y-2.1581
M16
G05
T0
M30
