%TF.GenerationSoftware,KiCad,Pcbnew,6.0.4*%
%TF.CreationDate,2022-05-03T23:03:23+02:00*%
%TF.ProjectId,hdmi brd,68646d69-2062-4726-942e-6b696361645f,rev?*%
%TF.SameCoordinates,Original*%
%TF.FileFunction,Soldermask,Top*%
%TF.FilePolarity,Negative*%
%FSLAX46Y46*%
G04 Gerber Fmt 4.6, Leading zero omitted, Abs format (unit mm)*
G04 Created by KiCad (PCBNEW 6.0.4) date 2022-05-03 23:03:23*
%MOMM*%
%LPD*%
G01*
G04 APERTURE LIST*
G04 Aperture macros list*
%AMRoundRect*
0 Rectangle with rounded corners*
0 $1 Rounding radius*
0 $2 $3 $4 $5 $6 $7 $8 $9 X,Y pos of 4 corners*
0 Add a 4 corners polygon primitive as box body*
4,1,4,$2,$3,$4,$5,$6,$7,$8,$9,$2,$3,0*
0 Add four circle primitives for the rounded corners*
1,1,$1+$1,$2,$3*
1,1,$1+$1,$4,$5*
1,1,$1+$1,$6,$7*
1,1,$1+$1,$8,$9*
0 Add four rect primitives between the rounded corners*
20,1,$1+$1,$2,$3,$4,$5,0*
20,1,$1+$1,$4,$5,$6,$7,0*
20,1,$1+$1,$6,$7,$8,$9,0*
20,1,$1+$1,$8,$9,$2,$3,0*%
G04 Aperture macros list end*
%ADD10O,1.778000X3.556000*%
%ADD11R,0.280000X2.600000*%
%ADD12RoundRect,0.140000X0.170000X-0.140000X0.170000X0.140000X-0.170000X0.140000X-0.170000X-0.140000X0*%
%ADD13RoundRect,0.140000X-0.140000X-0.170000X0.140000X-0.170000X0.140000X0.170000X-0.140000X0.170000X0*%
%ADD14RoundRect,0.140000X0.140000X0.170000X-0.140000X0.170000X-0.140000X-0.170000X0.140000X-0.170000X0*%
%ADD15RoundRect,0.135000X0.185000X-0.135000X0.185000X0.135000X-0.185000X0.135000X-0.185000X-0.135000X0*%
%ADD16RoundRect,0.250000X-1.250000X-0.550000X1.250000X-0.550000X1.250000X0.550000X-1.250000X0.550000X0*%
%ADD17RoundRect,0.140000X-0.170000X0.140000X-0.170000X-0.140000X0.170000X-0.140000X0.170000X0.140000X0*%
%ADD18RoundRect,0.250000X-0.337500X-0.475000X0.337500X-0.475000X0.337500X0.475000X-0.337500X0.475000X0*%
%ADD19RoundRect,0.250000X0.275000X0.350000X-0.275000X0.350000X-0.275000X-0.350000X0.275000X-0.350000X0*%
%ADD20R,1.500000X2.000000*%
%ADD21R,3.800000X2.000000*%
%ADD22RoundRect,0.062500X-0.375000X-0.062500X0.375000X-0.062500X0.375000X0.062500X-0.375000X0.062500X0*%
%ADD23RoundRect,0.062500X-0.062500X-0.375000X0.062500X-0.375000X0.062500X0.375000X-0.062500X0.375000X0*%
%ADD24R,6.000000X6.000000*%
%ADD25RoundRect,0.250000X-0.350000X-0.450000X0.350000X-0.450000X0.350000X0.450000X-0.350000X0.450000X0*%
%ADD26C,5.600000*%
%ADD27R,1.700000X1.700000*%
%ADD28O,1.700000X1.700000*%
G04 APERTURE END LIST*
D10*
%TO.C,J2*%
X106056000Y-55715000D03*
X91556000Y-55715000D03*
X106056000Y-49715000D03*
X91556000Y-49715000D03*
D11*
X98806000Y-56515000D03*
X98306000Y-56515000D03*
X97806000Y-56515000D03*
X97306000Y-56515000D03*
X96806000Y-56515000D03*
X96306000Y-56515000D03*
X95806000Y-56515000D03*
X95306000Y-56515000D03*
X99306000Y-56515000D03*
X99806000Y-56515000D03*
X100306000Y-56515000D03*
X100806000Y-56515000D03*
X101306000Y-56515000D03*
X101806000Y-56515000D03*
X102306000Y-56515000D03*
X94806000Y-56515000D03*
X94306000Y-56515000D03*
X102806000Y-56515000D03*
X103306000Y-56515000D03*
%TD*%
D12*
%TO.C,C2*%
X94742000Y-66774000D03*
X94742000Y-65814000D03*
%TD*%
D13*
%TO.C,C11*%
X103914000Y-70358000D03*
X104874000Y-70358000D03*
%TD*%
D14*
%TO.C,C15*%
X88872000Y-70104000D03*
X87912000Y-70104000D03*
%TD*%
D15*
%TO.C,R3*%
X89916000Y-66296000D03*
X89916000Y-65276000D03*
%TD*%
D16*
%TO.C,C5*%
X103210000Y-108966000D03*
X107610000Y-108966000D03*
%TD*%
D17*
%TO.C,C9*%
X95250000Y-82324000D03*
X95250000Y-83284000D03*
%TD*%
D14*
%TO.C,C7*%
X88110000Y-71882000D03*
X87150000Y-71882000D03*
%TD*%
D17*
%TO.C,C14*%
X92202000Y-81562000D03*
X92202000Y-82522000D03*
%TD*%
D13*
%TO.C,C13*%
X105438000Y-74676000D03*
X106398000Y-74676000D03*
%TD*%
D18*
%TO.C,C3*%
X108690500Y-64516000D03*
X110765500Y-64516000D03*
%TD*%
D15*
%TO.C,R1*%
X101346000Y-67058000D03*
X101346000Y-66038000D03*
%TD*%
D19*
%TO.C,L1*%
X110878000Y-66802000D03*
X108578000Y-66802000D03*
%TD*%
D13*
%TO.C,C10*%
X105438000Y-73660000D03*
X106398000Y-73660000D03*
%TD*%
D16*
%TO.C,C6*%
X103210000Y-101346000D03*
X107610000Y-101346000D03*
%TD*%
D20*
%TO.C,U2*%
X93966000Y-108306000D03*
X96266000Y-108306000D03*
D21*
X96266000Y-102006000D03*
D20*
X98566000Y-108306000D03*
%TD*%
D14*
%TO.C,C8*%
X88110000Y-75946000D03*
X87150000Y-75946000D03*
%TD*%
D22*
%TO.C,U1*%
X91582500Y-70680000D03*
X91582500Y-71180000D03*
X91582500Y-71680000D03*
X91582500Y-72180000D03*
X91582500Y-72680000D03*
X91582500Y-73180000D03*
X91582500Y-73680000D03*
X91582500Y-74180000D03*
X91582500Y-74680000D03*
X91582500Y-75180000D03*
X91582500Y-75680000D03*
X91582500Y-76180000D03*
X91582500Y-76680000D03*
X91582500Y-77180000D03*
X91582500Y-77680000D03*
X91582500Y-78180000D03*
X91582500Y-78680000D03*
X91582500Y-79180000D03*
D23*
X92270000Y-79867500D03*
X92770000Y-79867500D03*
X93270000Y-79867500D03*
X93770000Y-79867500D03*
X94270000Y-79867500D03*
X94770000Y-79867500D03*
X95270000Y-79867500D03*
X95770000Y-79867500D03*
X96270000Y-79867500D03*
X96770000Y-79867500D03*
X97270000Y-79867500D03*
X97770000Y-79867500D03*
X98270000Y-79867500D03*
X98770000Y-79867500D03*
X99270000Y-79867500D03*
X99770000Y-79867500D03*
X100270000Y-79867500D03*
X100770000Y-79867500D03*
D22*
X101457500Y-79180000D03*
X101457500Y-78680000D03*
X101457500Y-78180000D03*
X101457500Y-77680000D03*
X101457500Y-77180000D03*
X101457500Y-76680000D03*
X101457500Y-76180000D03*
X101457500Y-75680000D03*
X101457500Y-75180000D03*
X101457500Y-74680000D03*
X101457500Y-74180000D03*
X101457500Y-73680000D03*
X101457500Y-73180000D03*
X101457500Y-72680000D03*
X101457500Y-72180000D03*
X101457500Y-71680000D03*
X101457500Y-71180000D03*
X101457500Y-70680000D03*
D23*
X100770000Y-69992500D03*
X100270000Y-69992500D03*
X99770000Y-69992500D03*
X99270000Y-69992500D03*
X98770000Y-69992500D03*
X98270000Y-69992500D03*
X97770000Y-69992500D03*
X97270000Y-69992500D03*
X96770000Y-69992500D03*
X96270000Y-69992500D03*
X95770000Y-69992500D03*
X95270000Y-69992500D03*
X94770000Y-69992500D03*
X94270000Y-69992500D03*
X93770000Y-69992500D03*
X93270000Y-69992500D03*
X92770000Y-69992500D03*
X92270000Y-69992500D03*
D24*
X96520000Y-74930000D03*
%TD*%
D25*
%TO.C,R2*%
X108728000Y-59944000D03*
X110728000Y-59944000D03*
%TD*%
D12*
%TO.C,C1*%
X98552000Y-66774000D03*
X98552000Y-65814000D03*
%TD*%
D18*
%TO.C,C4*%
X108690500Y-62230000D03*
X110765500Y-62230000D03*
%TD*%
D26*
%TO.C,H2*%
X112014000Y-125730000D03*
%TD*%
%TO.C,H1*%
X112268000Y-50038000D03*
%TD*%
D13*
%TO.C,C12*%
X104168000Y-77216000D03*
X105128000Y-77216000D03*
%TD*%
D27*
%TO.C,J1*%
X76200000Y-48260000D03*
D28*
X78740000Y-48260000D03*
X76200000Y-50800000D03*
X78740000Y-50800000D03*
X76200000Y-53340000D03*
X78740000Y-53340000D03*
X76200000Y-55880000D03*
X78740000Y-55880000D03*
X76200000Y-58420000D03*
X78740000Y-58420000D03*
X76200000Y-60960000D03*
X78740000Y-60960000D03*
X76200000Y-63500000D03*
X78740000Y-63500000D03*
X76200000Y-66040000D03*
X78740000Y-66040000D03*
X76200000Y-68580000D03*
X78740000Y-68580000D03*
X76200000Y-71120000D03*
X78740000Y-71120000D03*
X76200000Y-73660000D03*
X78740000Y-73660000D03*
X76200000Y-76200000D03*
X78740000Y-76200000D03*
X76200000Y-78740000D03*
X78740000Y-78740000D03*
X76200000Y-81280000D03*
X78740000Y-81280000D03*
X76200000Y-83820000D03*
X78740000Y-83820000D03*
X76200000Y-86360000D03*
X78740000Y-86360000D03*
X76200000Y-88900000D03*
X78740000Y-88900000D03*
X76200000Y-91440000D03*
X78740000Y-91440000D03*
X76200000Y-93980000D03*
X78740000Y-93980000D03*
X76200000Y-96520000D03*
X78740000Y-96520000D03*
X76200000Y-99060000D03*
X78740000Y-99060000D03*
X76200000Y-101600000D03*
X78740000Y-101600000D03*
X76200000Y-104140000D03*
X78740000Y-104140000D03*
X76200000Y-106680000D03*
X78740000Y-106680000D03*
X76200000Y-109220000D03*
X78740000Y-109220000D03*
X76200000Y-111760000D03*
X78740000Y-111760000D03*
X76200000Y-114300000D03*
X78740000Y-114300000D03*
X76200000Y-116840000D03*
X78740000Y-116840000D03*
X76200000Y-119380000D03*
X78740000Y-119380000D03*
X76200000Y-121920000D03*
X78740000Y-121920000D03*
X76200000Y-124460000D03*
X78740000Y-124460000D03*
X76200000Y-127000000D03*
X78740000Y-127000000D03*
%TD*%
M02*
