M48
; DRILL file {KiCad 6.0.6} date Tue 05 Jul 2022 09:26:11 PM CEST
; FORMAT={-:-/ absolute / metric / decimal}
; #@! TF.CreationDate,2022-07-05T21:26:11+02:00
; #@! TF.GenerationSoftware,Kicad,Pcbnew,6.0.6
; #@! TF.FileFunction,Plated,1,2,PTH
FMAT,2
METRIC
; #@! TA.AperFunction,Plated,PTH,ViaDrill
T1C0.350
; #@! TA.AperFunction,Plated,PTH,ComponentDrill
T2C0.920
; #@! TA.AperFunction,Plated,PTH,ComponentDrill
T3C0.950
; #@! TA.AperFunction,Plated,PTH,ComponentDrill
T4C1.000
; #@! TA.AperFunction,Plated,PTH,ComponentDrill
T5C2.300
; #@! TA.AperFunction,Plated,PTH,ComponentDrill
T6C3.200
%
G90
G05
T1
X54.432Y-73.609
X55.601Y-72.441
X56.693Y-73.66
X57.912Y-89.916
X59.436Y-88.392
X59.436Y-91.44
X60.96Y-90.043
X62.484Y-88.392
X62.484Y-91.44
X63.805Y-77.038
X63.805Y-78.384
X63.805Y-79.858
X67.767Y-90.526
X67.767Y-92.913
X68.58Y-64.567
X68.91Y-78.562
X68.91Y-81.026
X68.936Y-91.694
X68.936Y-94.132
X68.961Y-76.302
X69.748Y-63.398
X70.053Y-79.959
X70.053Y-82.474
X70.129Y-77.47
X70.841Y-64.618
X72.238Y-63.475
X73.304Y-64.618
X73.457Y-91.11
X74.625Y-92.253
X74.752Y-63.475
X75.794Y-91.084
X77.013Y-92.253
X78.181Y-89.807
X80.0Y-71.6
X81.331Y-64.661
X81.331Y-66.845
X82.0Y-77.1
X82.1Y-81.9
X82.1Y-83.2
X82.804Y-64.661
X83.769Y-66.845
X84.176Y-72.891
X84.176Y-77.463
X87.1Y-68.8
X87.732Y-83.101
X87.893Y-76.403
X87.893Y-77.445
X87.893Y-78.486
X88.697Y-84.93
X88.748Y-75.082
X88.934Y-76.403
X88.934Y-77.445
X88.96Y-78.461
X89.154Y-72.891
X89.3Y-67.2
X89.51Y-79.807
X89.611Y-84.93
X89.976Y-77.445
X89.976Y-78.486
X90.026Y-76.403
X90.729Y-75.082
X91.44Y-69.843
X91.694Y-60.604
X92.71Y-73.653
X92.71Y-81.273
X93.726Y-72.891
X93.828Y-60.604
X94.6Y-71.1
X95.3Y-80.8
X95.9Y-60.604
X96.3Y-76.6
X96.3Y-81.9
X97.1Y-70.7
X97.4Y-80.8
X99.6Y-85.4
X99.6Y-88.9
X99.6Y-92.5
X99.8Y-71.4
X99.9Y-67.0
X100.415Y-73.85
X100.415Y-74.65
X100.415Y-75.45
X101.4Y-67.0
X101.5Y-81.4
X102.9Y-81.4
X103.2Y-77.8
X104.3Y-81.4
X105.6Y-81.4
X105.654Y-70.8
X107.0Y-81.4
X107.9Y-66.7
X108.143Y-69.936
X108.4Y-81.4
X109.315Y-78.55
X115.476Y-83.127
X116.467Y-81.603
X116.611Y-68.478
X117.381Y-83.203
X117.602Y-66.954
X118.516Y-68.555
X137.117Y-83.0
X138.209Y-81.349
X139.2Y-83.0
X158.86Y-83.0
X160.155Y-81.247
X161.323Y-83.0
T2
X108.514Y-88.855
X111.014Y-88.855
X113.014Y-88.855
X115.514Y-88.855
X130.358Y-88.855
X132.858Y-88.855
X134.858Y-88.855
X137.358Y-88.855
X152.202Y-88.9
X154.702Y-88.9
X156.702Y-88.9
X159.202Y-88.9
T3
X66.414Y-70.104
X68.914Y-70.104
X71.414Y-70.104
X73.914Y-70.104
T4
X66.396Y-87.02
X68.936Y-87.02
X71.476Y-87.02
X74.016Y-87.02
T5
X105.444Y-91.566
X118.584Y-91.566
X127.288Y-91.566
X140.428Y-91.566
X149.132Y-91.61
X162.272Y-91.61
T6
X54.356Y-60.96
X54.356Y-93.472
X173.736Y-60.96
X173.736Y-93.472
T0
M30
