%TF.GenerationSoftware,KiCad,Pcbnew,6.0.5*%
%TF.CreationDate,2022-06-14T18:54:29+02:00*%
%TF.ProjectId,usb host hub,75736220-686f-4737-9420-6875622e6b69,rev?*%
%TF.SameCoordinates,Original*%
%TF.FileFunction,Copper,L2,Bot*%
%TF.FilePolarity,Positive*%
%FSLAX46Y46*%
G04 Gerber Fmt 4.6, Leading zero omitted, Abs format (unit mm)*
G04 Created by KiCad (PCBNEW 6.0.5) date 2022-06-14 18:54:29*
%MOMM*%
%LPD*%
G01*
G04 APERTURE LIST*
G04 Aperture macros list*
%AMRoundRect*
0 Rectangle with rounded corners*
0 $1 Rounding radius*
0 $2 $3 $4 $5 $6 $7 $8 $9 X,Y pos of 4 corners*
0 Add a 4 corners polygon primitive as box body*
4,1,4,$2,$3,$4,$5,$6,$7,$8,$9,$2,$3,0*
0 Add four circle primitives for the rounded corners*
1,1,$1+$1,$2,$3*
1,1,$1+$1,$4,$5*
1,1,$1+$1,$6,$7*
1,1,$1+$1,$8,$9*
0 Add four rect primitives between the rounded corners*
20,1,$1+$1,$2,$3,$4,$5,0*
20,1,$1+$1,$4,$5,$6,$7,0*
20,1,$1+$1,$6,$7,$8,$9,0*
20,1,$1+$1,$8,$9,$2,$3,0*%
G04 Aperture macros list end*
%TA.AperFunction,ComponentPad*%
%ADD10R,1.428000X1.428000*%
%TD*%
%TA.AperFunction,ComponentPad*%
%ADD11C,1.428000*%
%TD*%
%TA.AperFunction,ComponentPad*%
%ADD12C,3.316000*%
%TD*%
%TA.AperFunction,ComponentPad*%
%ADD13RoundRect,0.250000X0.600000X0.725000X-0.600000X0.725000X-0.600000X-0.725000X0.600000X-0.725000X0*%
%TD*%
%TA.AperFunction,ComponentPad*%
%ADD14O,1.700000X1.950000*%
%TD*%
%TA.AperFunction,ComponentPad*%
%ADD15C,5.600000*%
%TD*%
%TA.AperFunction,ComponentPad*%
%ADD16R,1.700000X1.700000*%
%TD*%
%TA.AperFunction,ComponentPad*%
%ADD17O,1.700000X1.700000*%
%TD*%
%TA.AperFunction,ViaPad*%
%ADD18C,0.600000*%
%TD*%
%TA.AperFunction,Conductor*%
%ADD19C,0.150000*%
%TD*%
G04 APERTURE END LIST*
D10*
%TO.P,J6,1,P1*%
%TO.N,VBUS*%
X152202000Y-88900000D03*
D11*
%TO.P,J6,2,P2*%
%TO.N,ESD_USB_D1-*%
X154702000Y-88900000D03*
%TO.P,J6,3,P3*%
%TO.N,ESD_USB_D1+*%
X156702000Y-88900000D03*
%TO.P,J6,4,P4*%
%TO.N,GND*%
X159202000Y-88900000D03*
D12*
%TO.P,J6,SH1,SHIELD*%
%TO.N,unconnected-(J6-PadSH1)*%
X149132000Y-91610000D03*
%TO.P,J6,SH2,SHIELD*%
X162272000Y-91610000D03*
%TD*%
D10*
%TO.P,J2,1,P1*%
%TO.N,VBUS*%
X108514000Y-88855500D03*
D11*
%TO.P,J2,2,P2*%
%TO.N,ESD_USB_D3-*%
X111014000Y-88855500D03*
%TO.P,J2,3,P3*%
%TO.N,ESD_USB_D3+*%
X113014000Y-88855500D03*
%TO.P,J2,4,P4*%
%TO.N,GND*%
X115514000Y-88855500D03*
D12*
%TO.P,J2,SH1,SHIELD*%
%TO.N,unconnected-(J2-PadSH1)*%
X105444000Y-91565500D03*
%TO.P,J2,SH2,SHIELD*%
X118584000Y-91565500D03*
%TD*%
D10*
%TO.P,J1,1,P1*%
%TO.N,VBUS*%
X130358000Y-88855500D03*
D11*
%TO.P,J1,2,P2*%
%TO.N,ESD_USB_D2-*%
X132858000Y-88855500D03*
%TO.P,J1,3,P3*%
%TO.N,ESD_USB_D2+*%
X134858000Y-88855500D03*
%TO.P,J1,4,P4*%
%TO.N,GND*%
X137358000Y-88855500D03*
D12*
%TO.P,J1,SH1,SHIELD*%
%TO.N,unconnected-(J1-PadSH1)*%
X127288000Y-91565500D03*
%TO.P,J1,SH2,SHIELD*%
X140428000Y-91565500D03*
%TD*%
D13*
%TO.P,J5,1,Pin_1*%
%TO.N,GND*%
X73914000Y-70104000D03*
D14*
%TO.P,J5,2,Pin_2*%
%TO.N,UART_TX*%
X71414000Y-70104000D03*
%TO.P,J5,3,Pin_3*%
%TO.N,UART_RX*%
X68914000Y-70104000D03*
%TO.P,J5,4,Pin_4*%
%TO.N,VBUS*%
X66414000Y-70104000D03*
%TD*%
D15*
%TO.P,H4,1*%
%TO.N,N/C*%
X173736000Y-60960000D03*
%TD*%
%TO.P,H2,1*%
%TO.N,N/C*%
X173736000Y-93472000D03*
%TD*%
%TO.P,H3,1*%
%TO.N,N/C*%
X54356000Y-60960000D03*
%TD*%
D16*
%TO.P,J4,1,Pin_1*%
%TO.N,VBUS*%
X66395600Y-87020400D03*
D17*
%TO.P,J4,2,Pin_2*%
%TO.N,SWD*%
X68935600Y-87020400D03*
%TO.P,J4,3,Pin_3*%
%TO.N,SWCLK*%
X71475600Y-87020400D03*
%TO.P,J4,4,Pin_4*%
%TO.N,GND*%
X74015600Y-87020400D03*
%TD*%
D15*
%TO.P,H1,1*%
%TO.N,N/C*%
X54356000Y-93472000D03*
%TD*%
D18*
%TO.N,GND*%
X68910200Y-81026000D03*
X142748000Y-85344000D03*
X62484000Y-88392000D03*
X78181200Y-89806943D03*
X74625200Y-92252800D03*
X99695000Y-83921600D03*
X73456800Y-91109800D03*
X69748400Y-63398400D03*
X92710000Y-73652543D03*
X117602000Y-66954400D03*
X141757400Y-83693000D03*
X87892889Y-78486000D03*
X88696800Y-84930143D03*
X59436000Y-88392000D03*
X81330800Y-64660943D03*
X162407600Y-85344000D03*
X164871400Y-85344000D03*
X88959689Y-78460600D03*
X56692800Y-73660000D03*
X120015000Y-83947000D03*
X118516400Y-68554600D03*
X91440000Y-69842543D03*
X68935600Y-91694000D03*
X68935600Y-94132400D03*
X99644200Y-86182200D03*
X55600600Y-72440800D03*
X83769200Y-66845343D03*
X60960000Y-90043000D03*
X67767200Y-90525600D03*
X87892889Y-77444600D03*
X88934289Y-77444600D03*
X91694000Y-60604400D03*
X100863400Y-85090000D03*
X67767200Y-92913200D03*
X99644200Y-88646000D03*
X68961000Y-76301600D03*
X63804800Y-77038200D03*
X70053200Y-82473800D03*
X119024400Y-85471000D03*
X93827600Y-60604400D03*
X63804800Y-79857600D03*
X92710000Y-81272543D03*
X89975689Y-78486000D03*
X100787200Y-87579200D03*
X87892889Y-76403200D03*
X77012800Y-92252800D03*
X163703000Y-83591400D03*
X81330800Y-66845343D03*
X82804000Y-64660943D03*
X100787200Y-90093800D03*
X79959200Y-71264943D03*
X70053200Y-79959200D03*
X89560400Y-60604400D03*
X70129400Y-77470000D03*
X57912000Y-89916000D03*
X70840600Y-64617600D03*
X89975689Y-77444600D03*
X89611200Y-84930143D03*
X72237600Y-63474600D03*
X63804800Y-78384400D03*
X75793600Y-91084400D03*
X62484000Y-91440000D03*
X54432200Y-73609200D03*
X80873600Y-72179343D03*
X88934289Y-76403200D03*
X140665200Y-85344000D03*
X74752200Y-63474600D03*
X73304400Y-64617600D03*
X68580000Y-64566800D03*
X116611400Y-68478400D03*
X120929400Y-85547200D03*
X59436000Y-91440000D03*
X90026489Y-76403200D03*
X68910200Y-78562200D03*
%TO.N,+3V3*%
X93726000Y-72890543D03*
X89154000Y-72890543D03*
X84175600Y-77462543D03*
X99796600Y-74218800D03*
X84175600Y-72890543D03*
X87731600Y-83101343D03*
X108127800Y-72186800D03*
%TO.N,+1V1*%
X89509600Y-79806800D03*
X88747600Y-75082400D03*
X90728800Y-75082400D03*
%TO.N,/VD18*%
X105638600Y-73050400D03*
X102793800Y-80010000D03*
%TD*%
D19*
%TO.N,+3V3*%
X105587800Y-72186800D02*
X108127800Y-72186800D01*
X84175600Y-77462543D02*
X84175600Y-82186943D01*
X84175600Y-72890543D02*
X89154000Y-72890543D01*
X85090000Y-83101343D02*
X87731600Y-83101343D01*
X103555800Y-74218800D02*
X105587800Y-72186800D01*
X84175600Y-77462543D02*
X84175600Y-72890543D01*
X93726000Y-72890543D02*
X89154000Y-72890543D01*
X99796600Y-74218800D02*
X103555800Y-74218800D01*
X84175600Y-82186943D02*
X85090000Y-83101343D01*
%TO.N,+1V1*%
X90373200Y-79806800D02*
X90728800Y-79451200D01*
X90728800Y-79451200D02*
X90728800Y-75082400D01*
X89509600Y-79806800D02*
X90373200Y-79806800D01*
X88747600Y-75082400D02*
X90728800Y-75082400D01*
%TO.N,/VD18*%
X104013000Y-78790800D02*
X104013000Y-74676000D01*
X104013000Y-74676000D02*
X105638600Y-73050400D01*
X102793800Y-80010000D02*
X104013000Y-78790800D01*
%TD*%
%TA.AperFunction,Conductor*%
%TO.N,GND*%
G36*
X177995621Y-56662502D02*
G01*
X178042114Y-56716158D01*
X178053500Y-56768500D01*
X178053500Y-97434900D01*
X178033498Y-97503021D01*
X177979842Y-97549514D01*
X177927500Y-97560900D01*
X50164500Y-97560900D01*
X50096379Y-97540898D01*
X50049886Y-97487242D01*
X50038500Y-97434900D01*
X50038500Y-93460434D01*
X51042661Y-93460434D01*
X51042833Y-93463829D01*
X51042833Y-93463830D01*
X51049686Y-93599100D01*
X51060792Y-93818340D01*
X51061329Y-93821695D01*
X51061330Y-93821701D01*
X51066316Y-93852828D01*
X51117470Y-94172195D01*
X51212033Y-94517859D01*
X51343374Y-94851288D01*
X51509957Y-95168582D01*
X51511858Y-95171411D01*
X51511864Y-95171421D01*
X51695569Y-95444800D01*
X51709834Y-95466029D01*
X51940665Y-95740150D01*
X52199751Y-95987738D01*
X52484061Y-96205897D01*
X52516056Y-96225350D01*
X52787355Y-96390303D01*
X52787360Y-96390306D01*
X52790270Y-96392075D01*
X52793358Y-96393521D01*
X52793357Y-96393521D01*
X53111710Y-96542649D01*
X53111720Y-96542653D01*
X53114794Y-96544093D01*
X53118012Y-96545195D01*
X53118015Y-96545196D01*
X53450615Y-96659071D01*
X53450623Y-96659073D01*
X53453838Y-96660174D01*
X53803435Y-96738959D01*
X53855728Y-96744917D01*
X54156114Y-96779142D01*
X54156122Y-96779142D01*
X54159497Y-96779527D01*
X54162901Y-96779545D01*
X54162904Y-96779545D01*
X54357227Y-96780562D01*
X54517857Y-96781403D01*
X54521243Y-96781053D01*
X54521245Y-96781053D01*
X54870932Y-96744917D01*
X54870941Y-96744916D01*
X54874324Y-96744566D01*
X54877657Y-96743852D01*
X54877660Y-96743851D01*
X55050186Y-96706864D01*
X55224727Y-96669446D01*
X55564968Y-96556922D01*
X55891066Y-96408311D01*
X55985052Y-96352506D01*
X56196262Y-96227099D01*
X56196267Y-96227096D01*
X56199207Y-96225350D01*
X56485786Y-96010180D01*
X56747451Y-95765319D01*
X56981140Y-95493630D01*
X57087750Y-95338512D01*
X57182190Y-95201101D01*
X57182195Y-95201094D01*
X57184120Y-95198292D01*
X57185732Y-95195298D01*
X57185737Y-95195290D01*
X57352395Y-94885772D01*
X57354017Y-94882760D01*
X57488842Y-94550724D01*
X57499142Y-94514568D01*
X57519527Y-94443006D01*
X57587020Y-94206070D01*
X57647401Y-93852828D01*
X57649511Y-93818340D01*
X57669168Y-93496928D01*
X57669278Y-93495131D01*
X57669327Y-93481071D01*
X57669353Y-93473819D01*
X57669353Y-93473806D01*
X57669359Y-93472000D01*
X57649979Y-93114159D01*
X57592066Y-92760505D01*
X57496297Y-92415173D01*
X57493243Y-92407497D01*
X57365052Y-92085369D01*
X57363793Y-92082205D01*
X57272293Y-91909391D01*
X57197702Y-91768513D01*
X57197698Y-91768506D01*
X57196103Y-91765494D01*
X57045301Y-91542760D01*
X103272557Y-91542760D01*
X103289561Y-91837669D01*
X103290386Y-91841874D01*
X103290387Y-91841882D01*
X103299118Y-91886382D01*
X103346432Y-92127542D01*
X103347819Y-92131592D01*
X103347820Y-92131597D01*
X103385506Y-92241668D01*
X103442117Y-92407014D01*
X103574845Y-92670915D01*
X103577271Y-92674444D01*
X103577274Y-92674450D01*
X103638737Y-92763878D01*
X103742161Y-92914361D01*
X103745042Y-92917527D01*
X103927059Y-93117561D01*
X103940968Y-93132847D01*
X103944256Y-93135596D01*
X104164296Y-93319579D01*
X104164301Y-93319583D01*
X104167588Y-93322331D01*
X104242167Y-93369114D01*
X104414187Y-93477022D01*
X104414191Y-93477024D01*
X104417827Y-93479305D01*
X104520295Y-93525571D01*
X104683142Y-93599100D01*
X104683146Y-93599102D01*
X104687054Y-93600866D01*
X104691173Y-93602086D01*
X104966175Y-93683546D01*
X104966180Y-93683547D01*
X104970288Y-93684764D01*
X104974522Y-93685412D01*
X104974527Y-93685413D01*
X105258046Y-93728797D01*
X105258048Y-93728797D01*
X105262288Y-93729446D01*
X105412669Y-93731808D01*
X105553360Y-93734019D01*
X105553366Y-93734019D01*
X105557651Y-93734086D01*
X105850910Y-93698598D01*
X106136640Y-93623638D01*
X106409553Y-93510594D01*
X106664599Y-93361557D01*
X106897059Y-93179285D01*
X106939397Y-93135596D01*
X107099647Y-92970229D01*
X107102630Y-92967151D01*
X107105163Y-92963703D01*
X107105167Y-92963698D01*
X107274972Y-92732536D01*
X107277510Y-92729081D01*
X107418463Y-92469480D01*
X107506064Y-92237650D01*
X107521361Y-92197168D01*
X107521362Y-92197164D01*
X107522879Y-92193150D01*
X107588826Y-91905207D01*
X107595237Y-91833382D01*
X107614866Y-91613442D01*
X107615086Y-91610978D01*
X107615290Y-91591540D01*
X107615536Y-91567985D01*
X107615562Y-91565500D01*
X107614012Y-91542760D01*
X116412557Y-91542760D01*
X116429561Y-91837669D01*
X116430386Y-91841874D01*
X116430387Y-91841882D01*
X116439118Y-91886382D01*
X116486432Y-92127542D01*
X116487819Y-92131592D01*
X116487820Y-92131597D01*
X116525506Y-92241668D01*
X116582117Y-92407014D01*
X116714845Y-92670915D01*
X116717271Y-92674444D01*
X116717274Y-92674450D01*
X116778737Y-92763878D01*
X116882161Y-92914361D01*
X116885042Y-92917527D01*
X117067059Y-93117561D01*
X117080968Y-93132847D01*
X117084256Y-93135596D01*
X117304296Y-93319579D01*
X117304301Y-93319583D01*
X117307588Y-93322331D01*
X117382167Y-93369114D01*
X117554187Y-93477022D01*
X117554191Y-93477024D01*
X117557827Y-93479305D01*
X117660295Y-93525571D01*
X117823142Y-93599100D01*
X117823146Y-93599102D01*
X117827054Y-93600866D01*
X117831173Y-93602086D01*
X118106175Y-93683546D01*
X118106180Y-93683547D01*
X118110288Y-93684764D01*
X118114522Y-93685412D01*
X118114527Y-93685413D01*
X118398046Y-93728797D01*
X118398048Y-93728797D01*
X118402288Y-93729446D01*
X118552669Y-93731808D01*
X118693360Y-93734019D01*
X118693366Y-93734019D01*
X118697651Y-93734086D01*
X118990910Y-93698598D01*
X119276640Y-93623638D01*
X119549553Y-93510594D01*
X119804599Y-93361557D01*
X120037059Y-93179285D01*
X120079397Y-93135596D01*
X120239647Y-92970229D01*
X120242630Y-92967151D01*
X120245163Y-92963703D01*
X120245167Y-92963698D01*
X120414972Y-92732536D01*
X120417510Y-92729081D01*
X120558463Y-92469480D01*
X120646064Y-92237650D01*
X120661361Y-92197168D01*
X120661362Y-92197164D01*
X120662879Y-92193150D01*
X120728826Y-91905207D01*
X120735237Y-91833382D01*
X120754866Y-91613442D01*
X120755086Y-91610978D01*
X120755290Y-91591540D01*
X120755536Y-91567985D01*
X120755562Y-91565500D01*
X120754012Y-91542760D01*
X125116557Y-91542760D01*
X125133561Y-91837669D01*
X125134386Y-91841874D01*
X125134387Y-91841882D01*
X125143118Y-91886382D01*
X125190432Y-92127542D01*
X125191819Y-92131592D01*
X125191820Y-92131597D01*
X125229506Y-92241668D01*
X125286117Y-92407014D01*
X125418845Y-92670915D01*
X125421271Y-92674444D01*
X125421274Y-92674450D01*
X125482737Y-92763878D01*
X125586161Y-92914361D01*
X125589042Y-92917527D01*
X125771059Y-93117561D01*
X125784968Y-93132847D01*
X125788256Y-93135596D01*
X126008296Y-93319579D01*
X126008301Y-93319583D01*
X126011588Y-93322331D01*
X126086167Y-93369114D01*
X126258187Y-93477022D01*
X126258191Y-93477024D01*
X126261827Y-93479305D01*
X126364295Y-93525571D01*
X126527142Y-93599100D01*
X126527146Y-93599102D01*
X126531054Y-93600866D01*
X126535173Y-93602086D01*
X126810175Y-93683546D01*
X126810180Y-93683547D01*
X126814288Y-93684764D01*
X126818522Y-93685412D01*
X126818527Y-93685413D01*
X127102046Y-93728797D01*
X127102048Y-93728797D01*
X127106288Y-93729446D01*
X127256669Y-93731808D01*
X127397360Y-93734019D01*
X127397366Y-93734019D01*
X127401651Y-93734086D01*
X127694910Y-93698598D01*
X127980640Y-93623638D01*
X128253553Y-93510594D01*
X128508599Y-93361557D01*
X128741059Y-93179285D01*
X128783397Y-93135596D01*
X128943647Y-92970229D01*
X128946630Y-92967151D01*
X128949163Y-92963703D01*
X128949167Y-92963698D01*
X129118972Y-92732536D01*
X129121510Y-92729081D01*
X129262463Y-92469480D01*
X129350064Y-92237650D01*
X129365361Y-92197168D01*
X129365362Y-92197164D01*
X129366879Y-92193150D01*
X129432826Y-91905207D01*
X129439237Y-91833382D01*
X129458866Y-91613442D01*
X129459086Y-91610978D01*
X129459290Y-91591540D01*
X129459536Y-91567985D01*
X129459562Y-91565500D01*
X129458012Y-91542760D01*
X138256557Y-91542760D01*
X138273561Y-91837669D01*
X138274386Y-91841874D01*
X138274387Y-91841882D01*
X138283118Y-91886382D01*
X138330432Y-92127542D01*
X138331819Y-92131592D01*
X138331820Y-92131597D01*
X138369506Y-92241668D01*
X138426117Y-92407014D01*
X138558845Y-92670915D01*
X138561271Y-92674444D01*
X138561274Y-92674450D01*
X138622737Y-92763878D01*
X138726161Y-92914361D01*
X138729042Y-92917527D01*
X138911059Y-93117561D01*
X138924968Y-93132847D01*
X138928256Y-93135596D01*
X139148296Y-93319579D01*
X139148301Y-93319583D01*
X139151588Y-93322331D01*
X139226167Y-93369114D01*
X139398187Y-93477022D01*
X139398191Y-93477024D01*
X139401827Y-93479305D01*
X139504295Y-93525571D01*
X139667142Y-93599100D01*
X139667146Y-93599102D01*
X139671054Y-93600866D01*
X139675173Y-93602086D01*
X139950175Y-93683546D01*
X139950180Y-93683547D01*
X139954288Y-93684764D01*
X139958522Y-93685412D01*
X139958527Y-93685413D01*
X140242046Y-93728797D01*
X140242048Y-93728797D01*
X140246288Y-93729446D01*
X140396669Y-93731808D01*
X140537360Y-93734019D01*
X140537366Y-93734019D01*
X140541651Y-93734086D01*
X140834910Y-93698598D01*
X141120640Y-93623638D01*
X141393553Y-93510594D01*
X141648599Y-93361557D01*
X141881059Y-93179285D01*
X141923397Y-93135596D01*
X142083647Y-92970229D01*
X142086630Y-92967151D01*
X142089163Y-92963703D01*
X142089167Y-92963698D01*
X142258972Y-92732536D01*
X142261510Y-92729081D01*
X142402463Y-92469480D01*
X142490064Y-92237650D01*
X142505361Y-92197168D01*
X142505362Y-92197164D01*
X142506879Y-92193150D01*
X142572826Y-91905207D01*
X142579237Y-91833382D01*
X142598866Y-91613442D01*
X142599086Y-91610978D01*
X142599290Y-91591540D01*
X142599335Y-91587260D01*
X146960557Y-91587260D01*
X146977561Y-91882169D01*
X146978386Y-91886374D01*
X146978387Y-91886382D01*
X146989972Y-91945430D01*
X147034432Y-92172042D01*
X147035819Y-92176092D01*
X147035820Y-92176097D01*
X147118802Y-92418466D01*
X147130117Y-92451514D01*
X147262845Y-92715415D01*
X147265271Y-92718944D01*
X147265274Y-92718950D01*
X147300231Y-92769812D01*
X147430161Y-92958861D01*
X147433042Y-92962027D01*
X147590978Y-93135596D01*
X147628968Y-93177347D01*
X147632256Y-93180096D01*
X147852296Y-93364079D01*
X147852301Y-93364083D01*
X147855588Y-93366831D01*
X147980708Y-93445318D01*
X148102187Y-93521522D01*
X148102191Y-93521524D01*
X148105827Y-93523805D01*
X148178761Y-93556736D01*
X148371142Y-93643600D01*
X148371146Y-93643602D01*
X148375054Y-93645366D01*
X148379173Y-93646586D01*
X148654175Y-93728046D01*
X148654180Y-93728047D01*
X148658288Y-93729264D01*
X148662522Y-93729912D01*
X148662527Y-93729913D01*
X148946046Y-93773297D01*
X148946048Y-93773297D01*
X148950288Y-93773946D01*
X149100669Y-93776308D01*
X149241360Y-93778519D01*
X149241366Y-93778519D01*
X149245651Y-93778586D01*
X149538910Y-93743098D01*
X149761266Y-93684764D01*
X149820497Y-93669225D01*
X149820498Y-93669225D01*
X149824640Y-93668138D01*
X150097553Y-93555094D01*
X150352599Y-93406057D01*
X150585059Y-93223785D01*
X150627397Y-93180096D01*
X150787647Y-93014729D01*
X150790630Y-93011651D01*
X150793163Y-93008203D01*
X150793167Y-93008198D01*
X150962972Y-92777036D01*
X150965510Y-92773581D01*
X151106463Y-92513980D01*
X151210879Y-92237650D01*
X151276826Y-91949707D01*
X151281180Y-91900930D01*
X151302866Y-91657942D01*
X151303086Y-91655478D01*
X151303562Y-91610000D01*
X151302012Y-91587260D01*
X160100557Y-91587260D01*
X160117561Y-91882169D01*
X160118386Y-91886374D01*
X160118387Y-91886382D01*
X160129972Y-91945430D01*
X160174432Y-92172042D01*
X160175819Y-92176092D01*
X160175820Y-92176097D01*
X160258802Y-92418466D01*
X160270117Y-92451514D01*
X160402845Y-92715415D01*
X160405271Y-92718944D01*
X160405274Y-92718950D01*
X160440231Y-92769812D01*
X160570161Y-92958861D01*
X160573042Y-92962027D01*
X160730978Y-93135596D01*
X160768968Y-93177347D01*
X160772256Y-93180096D01*
X160992296Y-93364079D01*
X160992301Y-93364083D01*
X160995588Y-93366831D01*
X161120708Y-93445318D01*
X161242187Y-93521522D01*
X161242191Y-93521524D01*
X161245827Y-93523805D01*
X161318761Y-93556736D01*
X161511142Y-93643600D01*
X161511146Y-93643602D01*
X161515054Y-93645366D01*
X161519173Y-93646586D01*
X161794175Y-93728046D01*
X161794180Y-93728047D01*
X161798288Y-93729264D01*
X161802522Y-93729912D01*
X161802527Y-93729913D01*
X162086046Y-93773297D01*
X162086048Y-93773297D01*
X162090288Y-93773946D01*
X162240669Y-93776308D01*
X162381360Y-93778519D01*
X162381366Y-93778519D01*
X162385651Y-93778586D01*
X162678910Y-93743098D01*
X162901266Y-93684764D01*
X162960497Y-93669225D01*
X162960498Y-93669225D01*
X162964640Y-93668138D01*
X163237553Y-93555094D01*
X163399544Y-93460434D01*
X170422661Y-93460434D01*
X170422833Y-93463829D01*
X170422833Y-93463830D01*
X170429686Y-93599100D01*
X170440792Y-93818340D01*
X170441329Y-93821695D01*
X170441330Y-93821701D01*
X170446316Y-93852828D01*
X170497470Y-94172195D01*
X170592033Y-94517859D01*
X170723374Y-94851288D01*
X170889957Y-95168582D01*
X170891858Y-95171411D01*
X170891864Y-95171421D01*
X171075569Y-95444800D01*
X171089834Y-95466029D01*
X171320665Y-95740150D01*
X171579751Y-95987738D01*
X171864061Y-96205897D01*
X171896056Y-96225350D01*
X172167355Y-96390303D01*
X172167360Y-96390306D01*
X172170270Y-96392075D01*
X172173358Y-96393521D01*
X172173357Y-96393521D01*
X172491710Y-96542649D01*
X172491720Y-96542653D01*
X172494794Y-96544093D01*
X172498012Y-96545195D01*
X172498015Y-96545196D01*
X172830615Y-96659071D01*
X172830623Y-96659073D01*
X172833838Y-96660174D01*
X173183435Y-96738959D01*
X173235728Y-96744917D01*
X173536114Y-96779142D01*
X173536122Y-96779142D01*
X173539497Y-96779527D01*
X173542901Y-96779545D01*
X173542904Y-96779545D01*
X173737227Y-96780562D01*
X173897857Y-96781403D01*
X173901243Y-96781053D01*
X173901245Y-96781053D01*
X174250932Y-96744917D01*
X174250941Y-96744916D01*
X174254324Y-96744566D01*
X174257657Y-96743852D01*
X174257660Y-96743851D01*
X174430186Y-96706864D01*
X174604727Y-96669446D01*
X174944968Y-96556922D01*
X175271066Y-96408311D01*
X175365052Y-96352506D01*
X175576262Y-96227099D01*
X175576267Y-96227096D01*
X175579207Y-96225350D01*
X175865786Y-96010180D01*
X176127451Y-95765319D01*
X176361140Y-95493630D01*
X176467750Y-95338512D01*
X176562190Y-95201101D01*
X176562195Y-95201094D01*
X176564120Y-95198292D01*
X176565732Y-95195298D01*
X176565737Y-95195290D01*
X176732395Y-94885772D01*
X176734017Y-94882760D01*
X176868842Y-94550724D01*
X176879142Y-94514568D01*
X176899527Y-94443006D01*
X176967020Y-94206070D01*
X177027401Y-93852828D01*
X177029511Y-93818340D01*
X177049168Y-93496928D01*
X177049278Y-93495131D01*
X177049327Y-93481071D01*
X177049353Y-93473819D01*
X177049353Y-93473806D01*
X177049359Y-93472000D01*
X177029979Y-93114159D01*
X176972066Y-92760505D01*
X176876297Y-92415173D01*
X176873243Y-92407497D01*
X176745052Y-92085369D01*
X176743793Y-92082205D01*
X176652293Y-91909391D01*
X176577702Y-91768513D01*
X176577698Y-91768506D01*
X176576103Y-91765494D01*
X176375190Y-91468746D01*
X176143403Y-91195432D01*
X175883454Y-90948750D01*
X175598384Y-90731585D01*
X175595472Y-90729828D01*
X175595467Y-90729825D01*
X175294443Y-90548236D01*
X175294437Y-90548233D01*
X175291528Y-90546478D01*
X175021604Y-90421183D01*
X174969571Y-90397030D01*
X174969569Y-90397029D01*
X174966475Y-90395593D01*
X174796751Y-90338145D01*
X174630255Y-90281789D01*
X174630250Y-90281788D01*
X174627028Y-90280697D01*
X174365360Y-90222686D01*
X174280493Y-90203871D01*
X174280487Y-90203870D01*
X174277158Y-90203132D01*
X174273769Y-90202758D01*
X174273764Y-90202757D01*
X173924338Y-90164180D01*
X173924333Y-90164180D01*
X173920957Y-90163807D01*
X173917558Y-90163801D01*
X173917557Y-90163801D01*
X173748080Y-90163505D01*
X173562592Y-90163182D01*
X173449413Y-90175277D01*
X173209639Y-90200901D01*
X173209631Y-90200902D01*
X173206256Y-90201263D01*
X172856117Y-90277606D01*
X172516271Y-90391317D01*
X172513178Y-90392739D01*
X172513177Y-90392740D01*
X172409183Y-90440572D01*
X172190694Y-90541066D01*
X172187760Y-90542822D01*
X172187758Y-90542823D01*
X171886789Y-90722949D01*
X171883193Y-90725101D01*
X171880467Y-90727163D01*
X171880465Y-90727164D01*
X171874620Y-90731585D01*
X171597367Y-90941270D01*
X171594882Y-90943612D01*
X171594877Y-90943616D01*
X171534914Y-91000123D01*
X171336559Y-91187043D01*
X171103819Y-91459546D01*
X171101900Y-91462358D01*
X171101897Y-91462363D01*
X171013779Y-91591540D01*
X170901871Y-91755591D01*
X170733077Y-92071714D01*
X170599411Y-92404218D01*
X170598491Y-92407492D01*
X170598489Y-92407497D01*
X170507125Y-92732536D01*
X170502437Y-92749213D01*
X170443290Y-93102663D01*
X170422661Y-93460434D01*
X163399544Y-93460434D01*
X163492599Y-93406057D01*
X163725059Y-93223785D01*
X163767397Y-93180096D01*
X163927647Y-93014729D01*
X163930630Y-93011651D01*
X163933163Y-93008203D01*
X163933167Y-93008198D01*
X164102972Y-92777036D01*
X164105510Y-92773581D01*
X164246463Y-92513980D01*
X164350879Y-92237650D01*
X164416826Y-91949707D01*
X164421180Y-91900930D01*
X164442866Y-91657942D01*
X164443086Y-91655478D01*
X164443562Y-91610000D01*
X164433305Y-91459546D01*
X164423762Y-91319562D01*
X164423761Y-91319556D01*
X164423470Y-91315285D01*
X164363567Y-91026024D01*
X164264961Y-90747569D01*
X164257776Y-90733647D01*
X164131442Y-90488879D01*
X164131442Y-90488878D01*
X164129477Y-90485072D01*
X164100878Y-90444379D01*
X163962084Y-90246897D01*
X163959621Y-90243392D01*
X163792930Y-90064011D01*
X163761457Y-90030142D01*
X163761454Y-90030139D01*
X163758536Y-90026999D01*
X163755221Y-90024285D01*
X163755217Y-90024282D01*
X163593388Y-89891827D01*
X163529945Y-89839899D01*
X163278076Y-89685554D01*
X163265005Y-89679816D01*
X163011522Y-89568545D01*
X163007590Y-89566819D01*
X162990761Y-89562025D01*
X162907838Y-89538404D01*
X162723493Y-89485892D01*
X162719251Y-89485288D01*
X162719245Y-89485287D01*
X162435292Y-89444875D01*
X162431041Y-89444270D01*
X162275386Y-89443455D01*
X162139932Y-89442745D01*
X162139925Y-89442745D01*
X162135646Y-89442723D01*
X162131402Y-89443282D01*
X162131398Y-89443282D01*
X162002557Y-89460244D01*
X161842775Y-89481280D01*
X161838635Y-89482413D01*
X161838633Y-89482413D01*
X161561991Y-89558094D01*
X161557846Y-89559228D01*
X161286131Y-89675124D01*
X161217064Y-89716460D01*
X161036342Y-89824620D01*
X161036338Y-89824623D01*
X161032660Y-89826824D01*
X161029317Y-89829502D01*
X161029313Y-89829505D01*
X160951523Y-89891827D01*
X160802122Y-90011520D01*
X160799178Y-90014622D01*
X160799174Y-90014626D01*
X160734603Y-90082670D01*
X160598783Y-90225794D01*
X160478820Y-90392740D01*
X160441714Y-90444379D01*
X160426405Y-90465683D01*
X160288179Y-90726746D01*
X160286704Y-90730777D01*
X160201414Y-90963846D01*
X160186663Y-91004154D01*
X160123734Y-91292772D01*
X160100557Y-91587260D01*
X151302012Y-91587260D01*
X151293305Y-91459546D01*
X151283762Y-91319562D01*
X151283761Y-91319556D01*
X151283470Y-91315285D01*
X151223567Y-91026024D01*
X151124961Y-90747569D01*
X151117776Y-90733647D01*
X150991442Y-90488879D01*
X150991442Y-90488878D01*
X150989477Y-90485072D01*
X150960878Y-90444379D01*
X150822084Y-90246897D01*
X150819621Y-90243392D01*
X150652930Y-90064011D01*
X150621457Y-90030142D01*
X150621454Y-90030139D01*
X150618536Y-90026999D01*
X150615221Y-90024285D01*
X150615217Y-90024282D01*
X150453388Y-89891827D01*
X150389945Y-89839899D01*
X150138076Y-89685554D01*
X150125005Y-89679816D01*
X150084724Y-89662134D01*
X150979500Y-89662134D01*
X150986255Y-89724316D01*
X151037385Y-89860705D01*
X151124739Y-89977261D01*
X151241295Y-90064615D01*
X151377684Y-90115745D01*
X151439866Y-90122500D01*
X152964134Y-90122500D01*
X153026316Y-90115745D01*
X153162705Y-90064615D01*
X153279261Y-89977261D01*
X153366615Y-89860705D01*
X153417745Y-89724316D01*
X153424500Y-89662134D01*
X153424500Y-89606525D01*
X153444502Y-89538404D01*
X153498158Y-89491911D01*
X153568432Y-89481807D01*
X153633012Y-89511301D01*
X153653713Y-89534255D01*
X153667068Y-89553328D01*
X153761933Y-89688810D01*
X153913190Y-89840067D01*
X154088415Y-89962760D01*
X154093393Y-89965081D01*
X154093396Y-89965083D01*
X154276289Y-90050368D01*
X154282283Y-90053163D01*
X154287591Y-90054585D01*
X154287593Y-90054586D01*
X154325022Y-90064615D01*
X154488904Y-90108527D01*
X154702000Y-90127170D01*
X154915096Y-90108527D01*
X155078978Y-90064615D01*
X155116407Y-90054586D01*
X155116409Y-90054585D01*
X155121717Y-90053163D01*
X155127711Y-90050368D01*
X155310604Y-89965083D01*
X155310607Y-89965081D01*
X155315585Y-89962760D01*
X155490810Y-89840067D01*
X155612905Y-89717972D01*
X155675217Y-89683946D01*
X155746032Y-89689011D01*
X155791095Y-89717972D01*
X155913190Y-89840067D01*
X156088415Y-89962760D01*
X156093393Y-89965081D01*
X156093396Y-89965083D01*
X156276289Y-90050368D01*
X156282283Y-90053163D01*
X156287591Y-90054585D01*
X156287593Y-90054586D01*
X156325022Y-90064615D01*
X156488904Y-90108527D01*
X156702000Y-90127170D01*
X156915096Y-90108527D01*
X157078978Y-90064615D01*
X157116407Y-90054586D01*
X157116409Y-90054585D01*
X157121717Y-90053163D01*
X157127711Y-90050368D01*
X157310604Y-89965083D01*
X157310607Y-89965081D01*
X157315585Y-89962760D01*
X157370493Y-89924313D01*
X158542242Y-89924313D01*
X158551536Y-89936327D01*
X158584154Y-89959167D01*
X158593656Y-89964653D01*
X158777473Y-90050368D01*
X158787765Y-90054114D01*
X158983676Y-90106608D01*
X158994471Y-90108511D01*
X159196525Y-90126189D01*
X159207475Y-90126189D01*
X159409529Y-90108511D01*
X159420324Y-90106608D01*
X159616235Y-90054114D01*
X159626527Y-90050368D01*
X159810344Y-89964653D01*
X159819846Y-89959167D01*
X159853300Y-89935741D01*
X159861675Y-89925264D01*
X159854606Y-89911816D01*
X159214812Y-89272022D01*
X159200868Y-89264408D01*
X159199035Y-89264539D01*
X159192420Y-89268790D01*
X158548672Y-89912538D01*
X158542242Y-89924313D01*
X157370493Y-89924313D01*
X157490810Y-89840067D01*
X157642067Y-89688810D01*
X157764760Y-89513585D01*
X157773938Y-89493904D01*
X157838081Y-89356349D01*
X157884999Y-89303064D01*
X157953276Y-89283603D01*
X158021236Y-89304145D01*
X158066471Y-89356349D01*
X158137347Y-89508344D01*
X158142833Y-89517846D01*
X158166259Y-89551300D01*
X158176736Y-89559675D01*
X158190184Y-89552606D01*
X158829978Y-88912812D01*
X158836356Y-88901132D01*
X159566408Y-88901132D01*
X159566539Y-88902965D01*
X159570790Y-88909580D01*
X160214538Y-89553328D01*
X160226313Y-89559758D01*
X160238327Y-89550464D01*
X160261167Y-89517846D01*
X160266653Y-89508344D01*
X160352368Y-89324527D01*
X160356114Y-89314235D01*
X160408608Y-89118324D01*
X160410511Y-89107529D01*
X160428189Y-88905475D01*
X160428189Y-88894525D01*
X160410511Y-88692471D01*
X160408608Y-88681676D01*
X160356114Y-88485765D01*
X160352368Y-88475473D01*
X160266653Y-88291656D01*
X160261167Y-88282154D01*
X160237741Y-88248700D01*
X160227264Y-88240325D01*
X160213816Y-88247394D01*
X159574022Y-88887188D01*
X159566408Y-88901132D01*
X158836356Y-88901132D01*
X158837592Y-88898868D01*
X158837461Y-88897035D01*
X158833210Y-88890420D01*
X158189462Y-88246672D01*
X158177687Y-88240242D01*
X158165673Y-88249536D01*
X158142833Y-88282154D01*
X158137347Y-88291656D01*
X158066471Y-88443651D01*
X158019554Y-88496936D01*
X157951277Y-88516397D01*
X157883317Y-88495855D01*
X157838081Y-88443651D01*
X157767083Y-88291396D01*
X157767081Y-88291393D01*
X157764760Y-88286415D01*
X157642067Y-88111190D01*
X157490810Y-87959933D01*
X157369135Y-87874736D01*
X158542325Y-87874736D01*
X158549394Y-87888184D01*
X159189188Y-88527978D01*
X159203132Y-88535592D01*
X159204965Y-88535461D01*
X159211580Y-88531210D01*
X159855328Y-87887462D01*
X159861758Y-87875687D01*
X159852464Y-87863673D01*
X159819846Y-87840833D01*
X159810344Y-87835347D01*
X159626527Y-87749632D01*
X159616235Y-87745886D01*
X159420324Y-87693392D01*
X159409529Y-87691489D01*
X159207475Y-87673811D01*
X159196525Y-87673811D01*
X158994471Y-87691489D01*
X158983676Y-87693392D01*
X158787765Y-87745886D01*
X158777473Y-87749632D01*
X158593656Y-87835347D01*
X158584154Y-87840833D01*
X158550700Y-87864259D01*
X158542325Y-87874736D01*
X157369135Y-87874736D01*
X157315585Y-87837240D01*
X157310607Y-87834919D01*
X157310604Y-87834917D01*
X157126699Y-87749160D01*
X157126697Y-87749159D01*
X157121717Y-87746837D01*
X157116409Y-87745415D01*
X157116407Y-87745414D01*
X157045520Y-87726420D01*
X156915096Y-87691473D01*
X156702000Y-87672830D01*
X156488904Y-87691473D01*
X156358480Y-87726420D01*
X156287593Y-87745414D01*
X156287591Y-87745415D01*
X156282283Y-87746837D01*
X156277303Y-87749159D01*
X156277301Y-87749160D01*
X156093396Y-87834917D01*
X156093393Y-87834919D01*
X156088415Y-87837240D01*
X155913190Y-87959933D01*
X155791095Y-88082028D01*
X155728783Y-88116054D01*
X155657968Y-88110989D01*
X155612905Y-88082028D01*
X155490810Y-87959933D01*
X155315585Y-87837240D01*
X155310607Y-87834919D01*
X155310604Y-87834917D01*
X155126699Y-87749160D01*
X155126697Y-87749159D01*
X155121717Y-87746837D01*
X155116409Y-87745415D01*
X155116407Y-87745414D01*
X155045520Y-87726420D01*
X154915096Y-87691473D01*
X154702000Y-87672830D01*
X154488904Y-87691473D01*
X154358480Y-87726420D01*
X154287593Y-87745414D01*
X154287591Y-87745415D01*
X154282283Y-87746837D01*
X154277303Y-87749159D01*
X154277301Y-87749160D01*
X154093396Y-87834917D01*
X154093393Y-87834919D01*
X154088415Y-87837240D01*
X153913190Y-87959933D01*
X153761933Y-88111190D01*
X153702671Y-88195825D01*
X153653713Y-88265745D01*
X153598256Y-88310074D01*
X153527637Y-88317383D01*
X153464276Y-88285353D01*
X153428291Y-88224151D01*
X153424500Y-88193475D01*
X153424500Y-88137866D01*
X153417745Y-88075684D01*
X153366615Y-87939295D01*
X153279261Y-87822739D01*
X153162705Y-87735385D01*
X153026316Y-87684255D01*
X152964134Y-87677500D01*
X151439866Y-87677500D01*
X151377684Y-87684255D01*
X151241295Y-87735385D01*
X151124739Y-87822739D01*
X151037385Y-87939295D01*
X150986255Y-88075684D01*
X150979500Y-88137866D01*
X150979500Y-89662134D01*
X150084724Y-89662134D01*
X149871522Y-89568545D01*
X149867590Y-89566819D01*
X149850761Y-89562025D01*
X149767838Y-89538404D01*
X149583493Y-89485892D01*
X149579251Y-89485288D01*
X149579245Y-89485287D01*
X149295292Y-89444875D01*
X149291041Y-89444270D01*
X149135386Y-89443455D01*
X148999932Y-89442745D01*
X148999925Y-89442745D01*
X148995646Y-89442723D01*
X148991402Y-89443282D01*
X148991398Y-89443282D01*
X148862557Y-89460244D01*
X148702775Y-89481280D01*
X148698635Y-89482413D01*
X148698633Y-89482413D01*
X148421991Y-89558094D01*
X148417846Y-89559228D01*
X148146131Y-89675124D01*
X148077064Y-89716460D01*
X147896342Y-89824620D01*
X147896338Y-89824623D01*
X147892660Y-89826824D01*
X147889317Y-89829502D01*
X147889313Y-89829505D01*
X147811523Y-89891827D01*
X147662122Y-90011520D01*
X147659178Y-90014622D01*
X147659174Y-90014626D01*
X147594603Y-90082670D01*
X147458783Y-90225794D01*
X147338820Y-90392740D01*
X147301714Y-90444379D01*
X147286405Y-90465683D01*
X147148179Y-90726746D01*
X147146704Y-90730777D01*
X147061414Y-90963846D01*
X147046663Y-91004154D01*
X146983734Y-91292772D01*
X146960557Y-91587260D01*
X142599335Y-91587260D01*
X142599536Y-91567985D01*
X142599562Y-91565500D01*
X142597721Y-91538490D01*
X142579762Y-91275062D01*
X142579761Y-91275056D01*
X142579470Y-91270785D01*
X142519567Y-90981524D01*
X142420961Y-90703069D01*
X142412295Y-90686277D01*
X142287442Y-90444379D01*
X142287442Y-90444378D01*
X142285477Y-90440572D01*
X142115621Y-90198892D01*
X141985838Y-90059229D01*
X141917457Y-89985642D01*
X141917454Y-89985639D01*
X141914536Y-89982499D01*
X141911221Y-89979785D01*
X141911217Y-89979782D01*
X141744378Y-89843226D01*
X141685945Y-89795399D01*
X141434076Y-89641054D01*
X141415335Y-89632827D01*
X141167522Y-89524045D01*
X141163590Y-89522319D01*
X141147888Y-89517846D01*
X141063838Y-89493904D01*
X140879493Y-89441392D01*
X140875251Y-89440788D01*
X140875245Y-89440787D01*
X140591292Y-89400375D01*
X140587041Y-89399770D01*
X140431386Y-89398955D01*
X140295932Y-89398245D01*
X140295925Y-89398245D01*
X140291646Y-89398223D01*
X140287402Y-89398782D01*
X140287398Y-89398782D01*
X140158557Y-89415744D01*
X139998775Y-89436780D01*
X139994635Y-89437913D01*
X139994633Y-89437913D01*
X139726373Y-89511301D01*
X139713846Y-89514728D01*
X139442131Y-89630624D01*
X139359938Y-89679816D01*
X139192342Y-89780120D01*
X139192338Y-89780123D01*
X139188660Y-89782324D01*
X139185317Y-89785002D01*
X139185313Y-89785005D01*
X139090825Y-89860705D01*
X138958122Y-89967020D01*
X138955178Y-89970122D01*
X138955174Y-89970126D01*
X138876375Y-90053163D01*
X138754783Y-90181294D01*
X138582405Y-90421183D01*
X138444179Y-90682246D01*
X138426768Y-90729825D01*
X138345797Y-90951091D01*
X138342663Y-90959654D01*
X138279734Y-91248272D01*
X138256557Y-91542760D01*
X129458012Y-91542760D01*
X129457721Y-91538490D01*
X129439762Y-91275062D01*
X129439761Y-91275056D01*
X129439470Y-91270785D01*
X129379567Y-90981524D01*
X129280961Y-90703069D01*
X129272295Y-90686277D01*
X129147442Y-90444379D01*
X129147442Y-90444378D01*
X129145477Y-90440572D01*
X128975621Y-90198892D01*
X128845838Y-90059229D01*
X128777457Y-89985642D01*
X128777454Y-89985639D01*
X128774536Y-89982499D01*
X128771221Y-89979785D01*
X128771217Y-89979782D01*
X128604378Y-89843226D01*
X128545945Y-89795399D01*
X128294076Y-89641054D01*
X128275335Y-89632827D01*
X128240724Y-89617634D01*
X129135500Y-89617634D01*
X129142255Y-89679816D01*
X129193385Y-89816205D01*
X129280739Y-89932761D01*
X129397295Y-90020115D01*
X129533684Y-90071245D01*
X129595866Y-90078000D01*
X131120134Y-90078000D01*
X131182316Y-90071245D01*
X131318705Y-90020115D01*
X131435261Y-89932761D01*
X131522615Y-89816205D01*
X131573745Y-89679816D01*
X131580500Y-89617634D01*
X131580500Y-89562025D01*
X131600502Y-89493904D01*
X131654158Y-89447411D01*
X131724432Y-89437307D01*
X131789012Y-89466801D01*
X131809713Y-89489755D01*
X131829553Y-89518090D01*
X131917933Y-89644310D01*
X132069190Y-89795567D01*
X132244415Y-89918260D01*
X132249393Y-89920581D01*
X132249396Y-89920583D01*
X132432289Y-90005868D01*
X132438283Y-90008663D01*
X132443591Y-90010085D01*
X132443593Y-90010086D01*
X132481022Y-90020115D01*
X132644904Y-90064027D01*
X132858000Y-90082670D01*
X133071096Y-90064027D01*
X133234978Y-90020115D01*
X133272407Y-90010086D01*
X133272409Y-90010085D01*
X133277717Y-90008663D01*
X133283711Y-90005868D01*
X133466604Y-89920583D01*
X133466607Y-89920581D01*
X133471585Y-89918260D01*
X133646810Y-89795567D01*
X133768905Y-89673472D01*
X133831217Y-89639446D01*
X133902032Y-89644511D01*
X133947095Y-89673472D01*
X134069190Y-89795567D01*
X134244415Y-89918260D01*
X134249393Y-89920581D01*
X134249396Y-89920583D01*
X134432289Y-90005868D01*
X134438283Y-90008663D01*
X134443591Y-90010085D01*
X134443593Y-90010086D01*
X134481022Y-90020115D01*
X134644904Y-90064027D01*
X134858000Y-90082670D01*
X135071096Y-90064027D01*
X135234978Y-90020115D01*
X135272407Y-90010086D01*
X135272409Y-90010085D01*
X135277717Y-90008663D01*
X135283711Y-90005868D01*
X135466604Y-89920583D01*
X135466607Y-89920581D01*
X135471585Y-89918260D01*
X135526493Y-89879813D01*
X136698242Y-89879813D01*
X136707536Y-89891827D01*
X136740154Y-89914667D01*
X136749656Y-89920153D01*
X136933473Y-90005868D01*
X136943765Y-90009614D01*
X137139676Y-90062108D01*
X137150471Y-90064011D01*
X137352525Y-90081689D01*
X137363475Y-90081689D01*
X137565529Y-90064011D01*
X137576324Y-90062108D01*
X137772235Y-90009614D01*
X137782527Y-90005868D01*
X137966344Y-89920153D01*
X137975846Y-89914667D01*
X138009300Y-89891241D01*
X138017675Y-89880764D01*
X138010606Y-89867316D01*
X137370812Y-89227522D01*
X137356868Y-89219908D01*
X137355035Y-89220039D01*
X137348420Y-89224290D01*
X136704672Y-89868038D01*
X136698242Y-89879813D01*
X135526493Y-89879813D01*
X135646810Y-89795567D01*
X135798067Y-89644310D01*
X135920760Y-89469085D01*
X135932050Y-89444875D01*
X135994081Y-89311849D01*
X136040999Y-89258564D01*
X136109276Y-89239103D01*
X136177236Y-89259645D01*
X136222471Y-89311849D01*
X136293347Y-89463844D01*
X136298833Y-89473346D01*
X136322259Y-89506800D01*
X136332736Y-89515175D01*
X136346184Y-89508106D01*
X136985978Y-88868312D01*
X136992356Y-88856632D01*
X137722408Y-88856632D01*
X137722539Y-88858465D01*
X137726790Y-88865080D01*
X138370538Y-89508828D01*
X138382313Y-89515258D01*
X138394327Y-89505964D01*
X138417167Y-89473346D01*
X138422653Y-89463844D01*
X138508368Y-89280027D01*
X138512114Y-89269735D01*
X138564608Y-89073824D01*
X138566511Y-89063029D01*
X138584189Y-88860975D01*
X138584189Y-88850025D01*
X138566511Y-88647971D01*
X138564608Y-88637176D01*
X138512114Y-88441265D01*
X138508368Y-88430973D01*
X138422653Y-88247156D01*
X138417167Y-88237654D01*
X138393741Y-88204200D01*
X138383264Y-88195825D01*
X138369816Y-88202894D01*
X137730022Y-88842688D01*
X137722408Y-88856632D01*
X136992356Y-88856632D01*
X136993592Y-88854368D01*
X136993461Y-88852535D01*
X136989210Y-88845920D01*
X136345462Y-88202172D01*
X136333687Y-88195742D01*
X136321673Y-88205036D01*
X136298833Y-88237654D01*
X136293347Y-88247156D01*
X136222471Y-88399151D01*
X136175554Y-88452436D01*
X136107277Y-88471897D01*
X136039317Y-88451355D01*
X135994081Y-88399151D01*
X135923083Y-88246896D01*
X135923081Y-88246893D01*
X135920760Y-88241915D01*
X135798067Y-88066690D01*
X135646810Y-87915433D01*
X135525135Y-87830236D01*
X136698325Y-87830236D01*
X136705394Y-87843684D01*
X137345188Y-88483478D01*
X137359132Y-88491092D01*
X137360965Y-88490961D01*
X137367580Y-88486710D01*
X138011328Y-87842962D01*
X138017758Y-87831187D01*
X138008464Y-87819173D01*
X137975846Y-87796333D01*
X137966344Y-87790847D01*
X137782527Y-87705132D01*
X137772235Y-87701386D01*
X137576324Y-87648892D01*
X137565529Y-87646989D01*
X137363475Y-87629311D01*
X137352525Y-87629311D01*
X137150471Y-87646989D01*
X137139676Y-87648892D01*
X136943765Y-87701386D01*
X136933473Y-87705132D01*
X136749656Y-87790847D01*
X136740154Y-87796333D01*
X136706700Y-87819759D01*
X136698325Y-87830236D01*
X135525135Y-87830236D01*
X135471585Y-87792740D01*
X135466607Y-87790419D01*
X135466604Y-87790417D01*
X135282699Y-87704660D01*
X135282697Y-87704659D01*
X135277717Y-87702337D01*
X135272409Y-87700915D01*
X135272407Y-87700914D01*
X135185024Y-87677500D01*
X135071096Y-87646973D01*
X134858000Y-87628330D01*
X134644904Y-87646973D01*
X134530976Y-87677500D01*
X134443593Y-87700914D01*
X134443591Y-87700915D01*
X134438283Y-87702337D01*
X134433303Y-87704659D01*
X134433301Y-87704660D01*
X134249396Y-87790417D01*
X134249393Y-87790419D01*
X134244415Y-87792740D01*
X134069190Y-87915433D01*
X133947095Y-88037528D01*
X133884783Y-88071554D01*
X133813968Y-88066489D01*
X133768905Y-88037528D01*
X133646810Y-87915433D01*
X133471585Y-87792740D01*
X133466607Y-87790419D01*
X133466604Y-87790417D01*
X133282699Y-87704660D01*
X133282697Y-87704659D01*
X133277717Y-87702337D01*
X133272409Y-87700915D01*
X133272407Y-87700914D01*
X133185024Y-87677500D01*
X133071096Y-87646973D01*
X132858000Y-87628330D01*
X132644904Y-87646973D01*
X132530976Y-87677500D01*
X132443593Y-87700914D01*
X132443591Y-87700915D01*
X132438283Y-87702337D01*
X132433303Y-87704659D01*
X132433301Y-87704660D01*
X132249396Y-87790417D01*
X132249393Y-87790419D01*
X132244415Y-87792740D01*
X132069190Y-87915433D01*
X131917933Y-88066690D01*
X131896862Y-88096783D01*
X131809713Y-88221245D01*
X131754256Y-88265574D01*
X131683637Y-88272883D01*
X131620276Y-88240853D01*
X131584291Y-88179651D01*
X131580500Y-88148975D01*
X131580500Y-88093366D01*
X131573745Y-88031184D01*
X131522615Y-87894795D01*
X131435261Y-87778239D01*
X131318705Y-87690885D01*
X131182316Y-87639755D01*
X131120134Y-87633000D01*
X129595866Y-87633000D01*
X129533684Y-87639755D01*
X129397295Y-87690885D01*
X129280739Y-87778239D01*
X129193385Y-87894795D01*
X129142255Y-88031184D01*
X129135500Y-88093366D01*
X129135500Y-89617634D01*
X128240724Y-89617634D01*
X128027522Y-89524045D01*
X128023590Y-89522319D01*
X128007888Y-89517846D01*
X127923838Y-89493904D01*
X127739493Y-89441392D01*
X127735251Y-89440788D01*
X127735245Y-89440787D01*
X127451292Y-89400375D01*
X127447041Y-89399770D01*
X127291386Y-89398955D01*
X127155932Y-89398245D01*
X127155925Y-89398245D01*
X127151646Y-89398223D01*
X127147402Y-89398782D01*
X127147398Y-89398782D01*
X127018557Y-89415744D01*
X126858775Y-89436780D01*
X126854635Y-89437913D01*
X126854633Y-89437913D01*
X126586373Y-89511301D01*
X126573846Y-89514728D01*
X126302131Y-89630624D01*
X126219938Y-89679816D01*
X126052342Y-89780120D01*
X126052338Y-89780123D01*
X126048660Y-89782324D01*
X126045317Y-89785002D01*
X126045313Y-89785005D01*
X125950825Y-89860705D01*
X125818122Y-89967020D01*
X125815178Y-89970122D01*
X125815174Y-89970126D01*
X125736375Y-90053163D01*
X125614783Y-90181294D01*
X125442405Y-90421183D01*
X125304179Y-90682246D01*
X125286768Y-90729825D01*
X125205797Y-90951091D01*
X125202663Y-90959654D01*
X125139734Y-91248272D01*
X125116557Y-91542760D01*
X120754012Y-91542760D01*
X120753721Y-91538490D01*
X120735762Y-91275062D01*
X120735761Y-91275056D01*
X120735470Y-91270785D01*
X120675567Y-90981524D01*
X120576961Y-90703069D01*
X120568295Y-90686277D01*
X120443442Y-90444379D01*
X120443442Y-90444378D01*
X120441477Y-90440572D01*
X120271621Y-90198892D01*
X120141838Y-90059229D01*
X120073457Y-89985642D01*
X120073454Y-89985639D01*
X120070536Y-89982499D01*
X120067221Y-89979785D01*
X120067217Y-89979782D01*
X119900378Y-89843226D01*
X119841945Y-89795399D01*
X119590076Y-89641054D01*
X119571335Y-89632827D01*
X119323522Y-89524045D01*
X119319590Y-89522319D01*
X119303888Y-89517846D01*
X119219838Y-89493904D01*
X119035493Y-89441392D01*
X119031251Y-89440788D01*
X119031245Y-89440787D01*
X118747292Y-89400375D01*
X118743041Y-89399770D01*
X118587386Y-89398955D01*
X118451932Y-89398245D01*
X118451925Y-89398245D01*
X118447646Y-89398223D01*
X118443402Y-89398782D01*
X118443398Y-89398782D01*
X118314557Y-89415744D01*
X118154775Y-89436780D01*
X118150635Y-89437913D01*
X118150633Y-89437913D01*
X117882373Y-89511301D01*
X117869846Y-89514728D01*
X117598131Y-89630624D01*
X117515938Y-89679816D01*
X117348342Y-89780120D01*
X117348338Y-89780123D01*
X117344660Y-89782324D01*
X117341317Y-89785002D01*
X117341313Y-89785005D01*
X117246825Y-89860705D01*
X117114122Y-89967020D01*
X117111178Y-89970122D01*
X117111174Y-89970126D01*
X117032375Y-90053163D01*
X116910783Y-90181294D01*
X116738405Y-90421183D01*
X116600179Y-90682246D01*
X116582768Y-90729825D01*
X116501797Y-90951091D01*
X116498663Y-90959654D01*
X116435734Y-91248272D01*
X116412557Y-91542760D01*
X107614012Y-91542760D01*
X107613721Y-91538490D01*
X107595762Y-91275062D01*
X107595761Y-91275056D01*
X107595470Y-91270785D01*
X107535567Y-90981524D01*
X107436961Y-90703069D01*
X107428295Y-90686277D01*
X107303442Y-90444379D01*
X107303442Y-90444378D01*
X107301477Y-90440572D01*
X107131621Y-90198892D01*
X107001838Y-90059229D01*
X106933457Y-89985642D01*
X106933454Y-89985639D01*
X106930536Y-89982499D01*
X106927221Y-89979785D01*
X106927217Y-89979782D01*
X106760378Y-89843226D01*
X106701945Y-89795399D01*
X106450076Y-89641054D01*
X106431335Y-89632827D01*
X106396724Y-89617634D01*
X107291500Y-89617634D01*
X107298255Y-89679816D01*
X107349385Y-89816205D01*
X107436739Y-89932761D01*
X107553295Y-90020115D01*
X107689684Y-90071245D01*
X107751866Y-90078000D01*
X109276134Y-90078000D01*
X109338316Y-90071245D01*
X109474705Y-90020115D01*
X109591261Y-89932761D01*
X109678615Y-89816205D01*
X109729745Y-89679816D01*
X109736500Y-89617634D01*
X109736500Y-89562025D01*
X109756502Y-89493904D01*
X109810158Y-89447411D01*
X109880432Y-89437307D01*
X109945012Y-89466801D01*
X109965713Y-89489755D01*
X109985553Y-89518090D01*
X110073933Y-89644310D01*
X110225190Y-89795567D01*
X110400415Y-89918260D01*
X110405393Y-89920581D01*
X110405396Y-89920583D01*
X110588289Y-90005868D01*
X110594283Y-90008663D01*
X110599591Y-90010085D01*
X110599593Y-90010086D01*
X110637022Y-90020115D01*
X110800904Y-90064027D01*
X111014000Y-90082670D01*
X111227096Y-90064027D01*
X111390978Y-90020115D01*
X111428407Y-90010086D01*
X111428409Y-90010085D01*
X111433717Y-90008663D01*
X111439711Y-90005868D01*
X111622604Y-89920583D01*
X111622607Y-89920581D01*
X111627585Y-89918260D01*
X111802810Y-89795567D01*
X111924905Y-89673472D01*
X111987217Y-89639446D01*
X112058032Y-89644511D01*
X112103095Y-89673472D01*
X112225190Y-89795567D01*
X112400415Y-89918260D01*
X112405393Y-89920581D01*
X112405396Y-89920583D01*
X112588289Y-90005868D01*
X112594283Y-90008663D01*
X112599591Y-90010085D01*
X112599593Y-90010086D01*
X112637022Y-90020115D01*
X112800904Y-90064027D01*
X113014000Y-90082670D01*
X113227096Y-90064027D01*
X113390978Y-90020115D01*
X113428407Y-90010086D01*
X113428409Y-90010085D01*
X113433717Y-90008663D01*
X113439711Y-90005868D01*
X113622604Y-89920583D01*
X113622607Y-89920581D01*
X113627585Y-89918260D01*
X113682493Y-89879813D01*
X114854242Y-89879813D01*
X114863536Y-89891827D01*
X114896154Y-89914667D01*
X114905656Y-89920153D01*
X115089473Y-90005868D01*
X115099765Y-90009614D01*
X115295676Y-90062108D01*
X115306471Y-90064011D01*
X115508525Y-90081689D01*
X115519475Y-90081689D01*
X115721529Y-90064011D01*
X115732324Y-90062108D01*
X115928235Y-90009614D01*
X115938527Y-90005868D01*
X116122344Y-89920153D01*
X116131846Y-89914667D01*
X116165300Y-89891241D01*
X116173675Y-89880764D01*
X116166606Y-89867316D01*
X115526812Y-89227522D01*
X115512868Y-89219908D01*
X115511035Y-89220039D01*
X115504420Y-89224290D01*
X114860672Y-89868038D01*
X114854242Y-89879813D01*
X113682493Y-89879813D01*
X113802810Y-89795567D01*
X113954067Y-89644310D01*
X114076760Y-89469085D01*
X114088050Y-89444875D01*
X114150081Y-89311849D01*
X114196999Y-89258564D01*
X114265276Y-89239103D01*
X114333236Y-89259645D01*
X114378471Y-89311849D01*
X114449347Y-89463844D01*
X114454833Y-89473346D01*
X114478259Y-89506800D01*
X114488736Y-89515175D01*
X114502184Y-89508106D01*
X115141978Y-88868312D01*
X115148356Y-88856632D01*
X115878408Y-88856632D01*
X115878539Y-88858465D01*
X115882790Y-88865080D01*
X116526538Y-89508828D01*
X116538313Y-89515258D01*
X116550327Y-89505964D01*
X116573167Y-89473346D01*
X116578653Y-89463844D01*
X116664368Y-89280027D01*
X116668114Y-89269735D01*
X116720608Y-89073824D01*
X116722511Y-89063029D01*
X116740189Y-88860975D01*
X116740189Y-88850025D01*
X116722511Y-88647971D01*
X116720608Y-88637176D01*
X116668114Y-88441265D01*
X116664368Y-88430973D01*
X116578653Y-88247156D01*
X116573167Y-88237654D01*
X116549741Y-88204200D01*
X116539264Y-88195825D01*
X116525816Y-88202894D01*
X115886022Y-88842688D01*
X115878408Y-88856632D01*
X115148356Y-88856632D01*
X115149592Y-88854368D01*
X115149461Y-88852535D01*
X115145210Y-88845920D01*
X114501462Y-88202172D01*
X114489687Y-88195742D01*
X114477673Y-88205036D01*
X114454833Y-88237654D01*
X114449347Y-88247156D01*
X114378471Y-88399151D01*
X114331554Y-88452436D01*
X114263277Y-88471897D01*
X114195317Y-88451355D01*
X114150081Y-88399151D01*
X114079083Y-88246896D01*
X114079081Y-88246893D01*
X114076760Y-88241915D01*
X113954067Y-88066690D01*
X113802810Y-87915433D01*
X113681135Y-87830236D01*
X114854325Y-87830236D01*
X114861394Y-87843684D01*
X115501188Y-88483478D01*
X115515132Y-88491092D01*
X115516965Y-88490961D01*
X115523580Y-88486710D01*
X116167328Y-87842962D01*
X116173758Y-87831187D01*
X116164464Y-87819173D01*
X116131846Y-87796333D01*
X116122344Y-87790847D01*
X115938527Y-87705132D01*
X115928235Y-87701386D01*
X115732324Y-87648892D01*
X115721529Y-87646989D01*
X115519475Y-87629311D01*
X115508525Y-87629311D01*
X115306471Y-87646989D01*
X115295676Y-87648892D01*
X115099765Y-87701386D01*
X115089473Y-87705132D01*
X114905656Y-87790847D01*
X114896154Y-87796333D01*
X114862700Y-87819759D01*
X114854325Y-87830236D01*
X113681135Y-87830236D01*
X113627585Y-87792740D01*
X113622607Y-87790419D01*
X113622604Y-87790417D01*
X113438699Y-87704660D01*
X113438697Y-87704659D01*
X113433717Y-87702337D01*
X113428409Y-87700915D01*
X113428407Y-87700914D01*
X113341024Y-87677500D01*
X113227096Y-87646973D01*
X113014000Y-87628330D01*
X112800904Y-87646973D01*
X112686976Y-87677500D01*
X112599593Y-87700914D01*
X112599591Y-87700915D01*
X112594283Y-87702337D01*
X112589303Y-87704659D01*
X112589301Y-87704660D01*
X112405396Y-87790417D01*
X112405393Y-87790419D01*
X112400415Y-87792740D01*
X112225190Y-87915433D01*
X112103095Y-88037528D01*
X112040783Y-88071554D01*
X111969968Y-88066489D01*
X111924905Y-88037528D01*
X111802810Y-87915433D01*
X111627585Y-87792740D01*
X111622607Y-87790419D01*
X111622604Y-87790417D01*
X111438699Y-87704660D01*
X111438697Y-87704659D01*
X111433717Y-87702337D01*
X111428409Y-87700915D01*
X111428407Y-87700914D01*
X111341024Y-87677500D01*
X111227096Y-87646973D01*
X111014000Y-87628330D01*
X110800904Y-87646973D01*
X110686976Y-87677500D01*
X110599593Y-87700914D01*
X110599591Y-87700915D01*
X110594283Y-87702337D01*
X110589303Y-87704659D01*
X110589301Y-87704660D01*
X110405396Y-87790417D01*
X110405393Y-87790419D01*
X110400415Y-87792740D01*
X110225190Y-87915433D01*
X110073933Y-88066690D01*
X110052862Y-88096783D01*
X109965713Y-88221245D01*
X109910256Y-88265574D01*
X109839637Y-88272883D01*
X109776276Y-88240853D01*
X109740291Y-88179651D01*
X109736500Y-88148975D01*
X109736500Y-88093366D01*
X109729745Y-88031184D01*
X109678615Y-87894795D01*
X109591261Y-87778239D01*
X109474705Y-87690885D01*
X109338316Y-87639755D01*
X109276134Y-87633000D01*
X107751866Y-87633000D01*
X107689684Y-87639755D01*
X107553295Y-87690885D01*
X107436739Y-87778239D01*
X107349385Y-87894795D01*
X107298255Y-88031184D01*
X107291500Y-88093366D01*
X107291500Y-89617634D01*
X106396724Y-89617634D01*
X106183522Y-89524045D01*
X106179590Y-89522319D01*
X106163888Y-89517846D01*
X106079838Y-89493904D01*
X105895493Y-89441392D01*
X105891251Y-89440788D01*
X105891245Y-89440787D01*
X105607292Y-89400375D01*
X105603041Y-89399770D01*
X105447386Y-89398955D01*
X105311932Y-89398245D01*
X105311925Y-89398245D01*
X105307646Y-89398223D01*
X105303402Y-89398782D01*
X105303398Y-89398782D01*
X105174557Y-89415744D01*
X105014775Y-89436780D01*
X105010635Y-89437913D01*
X105010633Y-89437913D01*
X104742373Y-89511301D01*
X104729846Y-89514728D01*
X104458131Y-89630624D01*
X104375938Y-89679816D01*
X104208342Y-89780120D01*
X104208338Y-89780123D01*
X104204660Y-89782324D01*
X104201317Y-89785002D01*
X104201313Y-89785005D01*
X104106825Y-89860705D01*
X103974122Y-89967020D01*
X103971178Y-89970122D01*
X103971174Y-89970126D01*
X103892375Y-90053163D01*
X103770783Y-90181294D01*
X103598405Y-90421183D01*
X103460179Y-90682246D01*
X103442768Y-90729825D01*
X103361797Y-90951091D01*
X103358663Y-90959654D01*
X103295734Y-91248272D01*
X103272557Y-91542760D01*
X57045301Y-91542760D01*
X56995190Y-91468746D01*
X56763403Y-91195432D01*
X56503454Y-90948750D01*
X56218384Y-90731585D01*
X56215472Y-90729828D01*
X56215467Y-90729825D01*
X55914443Y-90548236D01*
X55914437Y-90548233D01*
X55911528Y-90546478D01*
X55641604Y-90421183D01*
X55589571Y-90397030D01*
X55589569Y-90397029D01*
X55586475Y-90395593D01*
X55416751Y-90338145D01*
X55250255Y-90281789D01*
X55250250Y-90281788D01*
X55247028Y-90280697D01*
X54985360Y-90222686D01*
X54900493Y-90203871D01*
X54900487Y-90203870D01*
X54897158Y-90203132D01*
X54893769Y-90202758D01*
X54893764Y-90202757D01*
X54544338Y-90164180D01*
X54544333Y-90164180D01*
X54540957Y-90163807D01*
X54537558Y-90163801D01*
X54537557Y-90163801D01*
X54368080Y-90163505D01*
X54182592Y-90163182D01*
X54069413Y-90175277D01*
X53829639Y-90200901D01*
X53829631Y-90200902D01*
X53826256Y-90201263D01*
X53476117Y-90277606D01*
X53136271Y-90391317D01*
X53133178Y-90392739D01*
X53133177Y-90392740D01*
X53029183Y-90440572D01*
X52810694Y-90541066D01*
X52807760Y-90542822D01*
X52807758Y-90542823D01*
X52506789Y-90722949D01*
X52503193Y-90725101D01*
X52500467Y-90727163D01*
X52500465Y-90727164D01*
X52494620Y-90731585D01*
X52217367Y-90941270D01*
X52214882Y-90943612D01*
X52214877Y-90943616D01*
X52154914Y-91000123D01*
X51956559Y-91187043D01*
X51723819Y-91459546D01*
X51721900Y-91462358D01*
X51721897Y-91462363D01*
X51633779Y-91591540D01*
X51521871Y-91755591D01*
X51353077Y-92071714D01*
X51219411Y-92404218D01*
X51218491Y-92407492D01*
X51218489Y-92407497D01*
X51127125Y-92732536D01*
X51122437Y-92749213D01*
X51063290Y-93102663D01*
X51042661Y-93460434D01*
X50038500Y-93460434D01*
X50038500Y-87918534D01*
X65037100Y-87918534D01*
X65043855Y-87980716D01*
X65094985Y-88117105D01*
X65182339Y-88233661D01*
X65298895Y-88321015D01*
X65435284Y-88372145D01*
X65497466Y-88378900D01*
X67293734Y-88378900D01*
X67355916Y-88372145D01*
X67492305Y-88321015D01*
X67608861Y-88233661D01*
X67696215Y-88117105D01*
X67718399Y-88057929D01*
X67740198Y-87999782D01*
X67782840Y-87943018D01*
X67849402Y-87918318D01*
X67918750Y-87933526D01*
X67953417Y-87961514D01*
X67981850Y-87994338D01*
X68153726Y-88137032D01*
X68346600Y-88249738D01*
X68351425Y-88251580D01*
X68351426Y-88251581D01*
X68424212Y-88279375D01*
X68555292Y-88329430D01*
X68560360Y-88330461D01*
X68560363Y-88330462D01*
X68655462Y-88349810D01*
X68774197Y-88373967D01*
X68779372Y-88374157D01*
X68779374Y-88374157D01*
X68992273Y-88381964D01*
X68992277Y-88381964D01*
X68997437Y-88382153D01*
X69002557Y-88381497D01*
X69002559Y-88381497D01*
X69213888Y-88354425D01*
X69213889Y-88354425D01*
X69219016Y-88353768D01*
X69223966Y-88352283D01*
X69428029Y-88291061D01*
X69428034Y-88291059D01*
X69432984Y-88289574D01*
X69633594Y-88191296D01*
X69815460Y-88061573D01*
X69845956Y-88031184D01*
X69959216Y-87918318D01*
X69973696Y-87903889D01*
X69994645Y-87874736D01*
X70104053Y-87722477D01*
X70105376Y-87723428D01*
X70152245Y-87680257D01*
X70222180Y-87668025D01*
X70287626Y-87695544D01*
X70315475Y-87727394D01*
X70326518Y-87745414D01*
X70375587Y-87825488D01*
X70521850Y-87994338D01*
X70693726Y-88137032D01*
X70886600Y-88249738D01*
X70891425Y-88251580D01*
X70891426Y-88251581D01*
X70964212Y-88279375D01*
X71095292Y-88329430D01*
X71100360Y-88330461D01*
X71100363Y-88330462D01*
X71195462Y-88349810D01*
X71314197Y-88373967D01*
X71319372Y-88374157D01*
X71319374Y-88374157D01*
X71532273Y-88381964D01*
X71532277Y-88381964D01*
X71537437Y-88382153D01*
X71542557Y-88381497D01*
X71542559Y-88381497D01*
X71753888Y-88354425D01*
X71753889Y-88354425D01*
X71759016Y-88353768D01*
X71763966Y-88352283D01*
X71968029Y-88291061D01*
X71968034Y-88291059D01*
X71972984Y-88289574D01*
X72173594Y-88191296D01*
X72355460Y-88061573D01*
X72385956Y-88031184D01*
X72499216Y-87918318D01*
X72513696Y-87903889D01*
X72534645Y-87874736D01*
X72644053Y-87722477D01*
X72645240Y-87723330D01*
X72692560Y-87679762D01*
X72762497Y-87667545D01*
X72827938Y-87695078D01*
X72855766Y-87726911D01*
X72913294Y-87820788D01*
X72919377Y-87829099D01*
X73058813Y-87990067D01*
X73066180Y-87997283D01*
X73230034Y-88133316D01*
X73238481Y-88139231D01*
X73422356Y-88246679D01*
X73431642Y-88251129D01*
X73630601Y-88327103D01*
X73640499Y-88329979D01*
X73743850Y-88351006D01*
X73757899Y-88349810D01*
X73761600Y-88339465D01*
X73761600Y-88338917D01*
X74269600Y-88338917D01*
X74273664Y-88352759D01*
X74287078Y-88354793D01*
X74293784Y-88353934D01*
X74303862Y-88351792D01*
X74507855Y-88290591D01*
X74517442Y-88286833D01*
X74708695Y-88193139D01*
X74717545Y-88187864D01*
X74890928Y-88064192D01*
X74898800Y-88057539D01*
X75049652Y-87907212D01*
X75056330Y-87899365D01*
X75180603Y-87726420D01*
X75185913Y-87717583D01*
X75280270Y-87526667D01*
X75284069Y-87517072D01*
X75345977Y-87313310D01*
X75348155Y-87303237D01*
X75349586Y-87292362D01*
X75347375Y-87278178D01*
X75334217Y-87274400D01*
X74287715Y-87274400D01*
X74272476Y-87278875D01*
X74271271Y-87280265D01*
X74269600Y-87287948D01*
X74269600Y-88338917D01*
X73761600Y-88338917D01*
X73761600Y-86748285D01*
X74269600Y-86748285D01*
X74274075Y-86763524D01*
X74275465Y-86764729D01*
X74283148Y-86766400D01*
X75333944Y-86766400D01*
X75347475Y-86762427D01*
X75348780Y-86753347D01*
X75306814Y-86586275D01*
X75303494Y-86576524D01*
X75218572Y-86381214D01*
X75213705Y-86372139D01*
X75098026Y-86193326D01*
X75091736Y-86185157D01*
X74948406Y-86027640D01*
X74940873Y-86020615D01*
X74773739Y-85888622D01*
X74765152Y-85882917D01*
X74578717Y-85779999D01*
X74569305Y-85775769D01*
X74368559Y-85704680D01*
X74358588Y-85702046D01*
X74287437Y-85689372D01*
X74274140Y-85690832D01*
X74269600Y-85705389D01*
X74269600Y-86748285D01*
X73761600Y-86748285D01*
X73761600Y-85703502D01*
X73757682Y-85690158D01*
X73743406Y-85688171D01*
X73704924Y-85694060D01*
X73694888Y-85696451D01*
X73492468Y-85762612D01*
X73482959Y-85766609D01*
X73294063Y-85864942D01*
X73285338Y-85870436D01*
X73115033Y-85998305D01*
X73107326Y-86005148D01*
X72960190Y-86159117D01*
X72953709Y-86167122D01*
X72849098Y-86320474D01*
X72794187Y-86365476D01*
X72723662Y-86373647D01*
X72659915Y-86342393D01*
X72639218Y-86317909D01*
X72558422Y-86193017D01*
X72558420Y-86193014D01*
X72555614Y-86188677D01*
X72405270Y-86023451D01*
X72401219Y-86020252D01*
X72401215Y-86020248D01*
X72234014Y-85888200D01*
X72234010Y-85888198D01*
X72229959Y-85884998D01*
X72193628Y-85864942D01*
X72177736Y-85856169D01*
X72034389Y-85777038D01*
X72029520Y-85775314D01*
X72029516Y-85775312D01*
X71828687Y-85704195D01*
X71828683Y-85704194D01*
X71823812Y-85702469D01*
X71818719Y-85701562D01*
X71818716Y-85701561D01*
X71608973Y-85664200D01*
X71608967Y-85664199D01*
X71603884Y-85663294D01*
X71530052Y-85662392D01*
X71385681Y-85660628D01*
X71385679Y-85660628D01*
X71380511Y-85660565D01*
X71159691Y-85694355D01*
X70947356Y-85763757D01*
X70749207Y-85866907D01*
X70745074Y-85870010D01*
X70745071Y-85870012D01*
X70574700Y-85997930D01*
X70570565Y-86001035D01*
X70566993Y-86004773D01*
X70459329Y-86117437D01*
X70416229Y-86162538D01*
X70308801Y-86320021D01*
X70253893Y-86365021D01*
X70183368Y-86373192D01*
X70119621Y-86341938D01*
X70098924Y-86317454D01*
X70018422Y-86193017D01*
X70018420Y-86193014D01*
X70015614Y-86188677D01*
X69865270Y-86023451D01*
X69861219Y-86020252D01*
X69861215Y-86020248D01*
X69694014Y-85888200D01*
X69694010Y-85888198D01*
X69689959Y-85884998D01*
X69653628Y-85864942D01*
X69637736Y-85856169D01*
X69494389Y-85777038D01*
X69489520Y-85775314D01*
X69489516Y-85775312D01*
X69288687Y-85704195D01*
X69288683Y-85704194D01*
X69283812Y-85702469D01*
X69278719Y-85701562D01*
X69278716Y-85701561D01*
X69068973Y-85664200D01*
X69068967Y-85664199D01*
X69063884Y-85663294D01*
X68990052Y-85662392D01*
X68845681Y-85660628D01*
X68845679Y-85660628D01*
X68840511Y-85660565D01*
X68619691Y-85694355D01*
X68407356Y-85763757D01*
X68209207Y-85866907D01*
X68205074Y-85870010D01*
X68205071Y-85870012D01*
X68034700Y-85997930D01*
X68030565Y-86001035D01*
X67974137Y-86060084D01*
X67949883Y-86085464D01*
X67888359Y-86120894D01*
X67817446Y-86117437D01*
X67759660Y-86076191D01*
X67740807Y-86042643D01*
X67699367Y-85932103D01*
X67696215Y-85923695D01*
X67608861Y-85807139D01*
X67492305Y-85719785D01*
X67355916Y-85668655D01*
X67293734Y-85661900D01*
X65497466Y-85661900D01*
X65435284Y-85668655D01*
X65298895Y-85719785D01*
X65182339Y-85807139D01*
X65094985Y-85923695D01*
X65043855Y-86060084D01*
X65037100Y-86122266D01*
X65037100Y-87918534D01*
X50038500Y-87918534D01*
X50038500Y-77451183D01*
X83362063Y-77451183D01*
X83379763Y-77631703D01*
X83437018Y-77803816D01*
X83440665Y-77809838D01*
X83440666Y-77809840D01*
X83527330Y-77952941D01*
X83527333Y-77952944D01*
X83530980Y-77958967D01*
X83556738Y-77985640D01*
X83589669Y-78048534D01*
X83592100Y-78073165D01*
X83592100Y-82140440D01*
X83591022Y-82156887D01*
X83587065Y-82186943D01*
X83592100Y-82225187D01*
X83607119Y-82339267D01*
X83665914Y-82481210D01*
X83759443Y-82603100D01*
X83765989Y-82608123D01*
X83783502Y-82621561D01*
X83795893Y-82632429D01*
X84644514Y-83481050D01*
X84655381Y-83493440D01*
X84673843Y-83517500D01*
X84734966Y-83564401D01*
X84795733Y-83611029D01*
X84937676Y-83669824D01*
X85090000Y-83689878D01*
X85098188Y-83688800D01*
X85120056Y-83685921D01*
X85136503Y-83684843D01*
X87117585Y-83684843D01*
X87185706Y-83704845D01*
X87202626Y-83718725D01*
X87202659Y-83718686D01*
X87208088Y-83723177D01*
X87212982Y-83728245D01*
X87364759Y-83827565D01*
X87371363Y-83830021D01*
X87371365Y-83830022D01*
X87528158Y-83888333D01*
X87528160Y-83888333D01*
X87534768Y-83890791D01*
X87618595Y-83901976D01*
X87707580Y-83913850D01*
X87707584Y-83913850D01*
X87714561Y-83914781D01*
X87721572Y-83914143D01*
X87721576Y-83914143D01*
X87864059Y-83901175D01*
X87895200Y-83898341D01*
X87901902Y-83896163D01*
X87901904Y-83896163D01*
X88061009Y-83844467D01*
X88061012Y-83844466D01*
X88067708Y-83842290D01*
X88223512Y-83749412D01*
X88354866Y-83624325D01*
X88455243Y-83473245D01*
X88519655Y-83303681D01*
X88544899Y-83124060D01*
X88545216Y-83101343D01*
X88524997Y-82921088D01*
X88465345Y-82749791D01*
X88392010Y-82632429D01*
X88372959Y-82601941D01*
X88369226Y-82595967D01*
X88364264Y-82590970D01*
X88246378Y-82472258D01*
X88246374Y-82472255D01*
X88241415Y-82467261D01*
X88230297Y-82460205D01*
X88182138Y-82429643D01*
X88088266Y-82370070D01*
X88059063Y-82359671D01*
X87924025Y-82311586D01*
X87924020Y-82311585D01*
X87917390Y-82309224D01*
X87910402Y-82308391D01*
X87910399Y-82308390D01*
X87787298Y-82293711D01*
X87737280Y-82287747D01*
X87730277Y-82288483D01*
X87730276Y-82288483D01*
X87563888Y-82305971D01*
X87563886Y-82305972D01*
X87556888Y-82306707D01*
X87385179Y-82365161D01*
X87230688Y-82460205D01*
X87225658Y-82465130D01*
X87225655Y-82465133D01*
X87208566Y-82481868D01*
X87145900Y-82515238D01*
X87120409Y-82517843D01*
X85383883Y-82517843D01*
X85315762Y-82497841D01*
X85294788Y-82480938D01*
X84796005Y-81982155D01*
X84761979Y-81919843D01*
X84759100Y-81893060D01*
X84759100Y-78077397D01*
X84779102Y-78009276D01*
X84789836Y-77996280D01*
X84789237Y-77995778D01*
X84793761Y-77990386D01*
X84798866Y-77985525D01*
X84899243Y-77834445D01*
X84963655Y-77664881D01*
X84964635Y-77657909D01*
X84988348Y-77489182D01*
X84988348Y-77489179D01*
X84988899Y-77485260D01*
X84989216Y-77462543D01*
X84968997Y-77282288D01*
X84966680Y-77275634D01*
X84911664Y-77117649D01*
X84911662Y-77117646D01*
X84909345Y-77110991D01*
X84813226Y-76957167D01*
X84808265Y-76952171D01*
X84808260Y-76952165D01*
X84795694Y-76939511D01*
X84761887Y-76877081D01*
X84759100Y-76850728D01*
X84759100Y-75071040D01*
X87934063Y-75071040D01*
X87951763Y-75251560D01*
X88009018Y-75423673D01*
X88012665Y-75429695D01*
X88012666Y-75429697D01*
X88023578Y-75447714D01*
X88102980Y-75578824D01*
X88228982Y-75709302D01*
X88380759Y-75808622D01*
X88387363Y-75811078D01*
X88387365Y-75811079D01*
X88544158Y-75869390D01*
X88544160Y-75869390D01*
X88550768Y-75871848D01*
X88634595Y-75883033D01*
X88723580Y-75894907D01*
X88723584Y-75894907D01*
X88730561Y-75895838D01*
X88737572Y-75895200D01*
X88737576Y-75895200D01*
X88880059Y-75882232D01*
X88911200Y-75879398D01*
X88917902Y-75877220D01*
X88917904Y-75877220D01*
X89077009Y-75825524D01*
X89077012Y-75825523D01*
X89083708Y-75823347D01*
X89239512Y-75730469D01*
X89261262Y-75709756D01*
X89270821Y-75700654D01*
X89333946Y-75668162D01*
X89357713Y-75665900D01*
X90019300Y-75665900D01*
X90087421Y-75685902D01*
X90133914Y-75739558D01*
X90145300Y-75791900D01*
X90145300Y-79023414D01*
X90125298Y-79091535D01*
X90071642Y-79138028D01*
X90001368Y-79148132D01*
X89951788Y-79129801D01*
X89866266Y-79075527D01*
X89837063Y-79065128D01*
X89702025Y-79017043D01*
X89702020Y-79017042D01*
X89695390Y-79014681D01*
X89688402Y-79013848D01*
X89688399Y-79013847D01*
X89565298Y-78999168D01*
X89515280Y-78993204D01*
X89508277Y-78993940D01*
X89508276Y-78993940D01*
X89341888Y-79011428D01*
X89341886Y-79011429D01*
X89334888Y-79012164D01*
X89163179Y-79070618D01*
X89139691Y-79085068D01*
X89014695Y-79161966D01*
X89014692Y-79161968D01*
X89008688Y-79165662D01*
X89003653Y-79170593D01*
X89003650Y-79170595D01*
X88884125Y-79287643D01*
X88879093Y-79292571D01*
X88780835Y-79445038D01*
X88778426Y-79451658D01*
X88778424Y-79451661D01*
X88760214Y-79501693D01*
X88718797Y-79615485D01*
X88696063Y-79795440D01*
X88713763Y-79975960D01*
X88771018Y-80148073D01*
X88774665Y-80154095D01*
X88774666Y-80154097D01*
X88812405Y-80216411D01*
X88864980Y-80303224D01*
X88869869Y-80308287D01*
X88869870Y-80308288D01*
X88934565Y-80375281D01*
X88990982Y-80433702D01*
X88996878Y-80437560D01*
X89109852Y-80511488D01*
X89142759Y-80533022D01*
X89149363Y-80535478D01*
X89149365Y-80535479D01*
X89306158Y-80593790D01*
X89306160Y-80593790D01*
X89312768Y-80596248D01*
X89396595Y-80607433D01*
X89485580Y-80619307D01*
X89485584Y-80619307D01*
X89492561Y-80620238D01*
X89499572Y-80619600D01*
X89499576Y-80619600D01*
X89642059Y-80606632D01*
X89673200Y-80603798D01*
X89679902Y-80601620D01*
X89679904Y-80601620D01*
X89839009Y-80549924D01*
X89839012Y-80549923D01*
X89845708Y-80547747D01*
X90001512Y-80454869D01*
X90023262Y-80434156D01*
X90032821Y-80425054D01*
X90095946Y-80392562D01*
X90119713Y-80390300D01*
X90326697Y-80390300D01*
X90343144Y-80391378D01*
X90373200Y-80395335D01*
X90381388Y-80394257D01*
X90411444Y-80390300D01*
X90430638Y-80387773D01*
X90525524Y-80375281D01*
X90667467Y-80316486D01*
X90789357Y-80222957D01*
X90807819Y-80198897D01*
X90818686Y-80186507D01*
X91108507Y-79896686D01*
X91120898Y-79885818D01*
X91138406Y-79872384D01*
X91138407Y-79872383D01*
X91144957Y-79867357D01*
X91200141Y-79795440D01*
X91238486Y-79745468D01*
X91267625Y-79675119D01*
X91297281Y-79603524D01*
X91312300Y-79489444D01*
X91312300Y-79489442D01*
X91317335Y-79451200D01*
X91313378Y-79421144D01*
X91312300Y-79404697D01*
X91312300Y-75697254D01*
X91332302Y-75629133D01*
X91343036Y-75616137D01*
X91342437Y-75615635D01*
X91346961Y-75610243D01*
X91352066Y-75605382D01*
X91452443Y-75454302D01*
X91516855Y-75284738D01*
X91517835Y-75277766D01*
X91541548Y-75109039D01*
X91541548Y-75109036D01*
X91542099Y-75105117D01*
X91542416Y-75082400D01*
X91522197Y-74902145D01*
X91519880Y-74895491D01*
X91464864Y-74737506D01*
X91464862Y-74737503D01*
X91462545Y-74730848D01*
X91456165Y-74720638D01*
X91370159Y-74582998D01*
X91366426Y-74577024D01*
X91349593Y-74560073D01*
X91243578Y-74453315D01*
X91243574Y-74453312D01*
X91238615Y-74448318D01*
X91227497Y-74441262D01*
X91154038Y-74394644D01*
X91085466Y-74351127D01*
X91056263Y-74340728D01*
X90921225Y-74292643D01*
X90921220Y-74292642D01*
X90914590Y-74290281D01*
X90907602Y-74289448D01*
X90907599Y-74289447D01*
X90784498Y-74274768D01*
X90734480Y-74268804D01*
X90727477Y-74269540D01*
X90727476Y-74269540D01*
X90561088Y-74287028D01*
X90561086Y-74287029D01*
X90554088Y-74287764D01*
X90382379Y-74346218D01*
X90376375Y-74349912D01*
X90233896Y-74437566D01*
X90227888Y-74441262D01*
X90222858Y-74446187D01*
X90222855Y-74446190D01*
X90205766Y-74462925D01*
X90143100Y-74496295D01*
X90117609Y-74498900D01*
X89360094Y-74498900D01*
X89291973Y-74478898D01*
X89270688Y-74461684D01*
X89262377Y-74453315D01*
X89257415Y-74448318D01*
X89246297Y-74441262D01*
X89172838Y-74394644D01*
X89104266Y-74351127D01*
X89075063Y-74340728D01*
X88940025Y-74292643D01*
X88940020Y-74292642D01*
X88933390Y-74290281D01*
X88926402Y-74289448D01*
X88926399Y-74289447D01*
X88803298Y-74274768D01*
X88753280Y-74268804D01*
X88746277Y-74269540D01*
X88746276Y-74269540D01*
X88579888Y-74287028D01*
X88579886Y-74287029D01*
X88572888Y-74287764D01*
X88401179Y-74346218D01*
X88395175Y-74349912D01*
X88252695Y-74437566D01*
X88252692Y-74437568D01*
X88246688Y-74441262D01*
X88241656Y-74446190D01*
X88241650Y-74446195D01*
X88208255Y-74478898D01*
X88117093Y-74568171D01*
X88018835Y-74720638D01*
X88016426Y-74727258D01*
X88016424Y-74727261D01*
X87989112Y-74802300D01*
X87956797Y-74891085D01*
X87934063Y-75071040D01*
X84759100Y-75071040D01*
X84759100Y-74207440D01*
X98983063Y-74207440D01*
X99000763Y-74387960D01*
X99058018Y-74560073D01*
X99061665Y-74566095D01*
X99061666Y-74566097D01*
X99065258Y-74572027D01*
X99151980Y-74715224D01*
X99156869Y-74720287D01*
X99156870Y-74720288D01*
X99233721Y-74799868D01*
X99277982Y-74845702D01*
X99429759Y-74945022D01*
X99436363Y-74947478D01*
X99436365Y-74947479D01*
X99593158Y-75005790D01*
X99593160Y-75005790D01*
X99599768Y-75008248D01*
X99683595Y-75019433D01*
X99772580Y-75031307D01*
X99772584Y-75031307D01*
X99779561Y-75032238D01*
X99786572Y-75031600D01*
X99786576Y-75031600D01*
X99929059Y-75018632D01*
X99960200Y-75015798D01*
X99966902Y-75013620D01*
X99966904Y-75013620D01*
X100126009Y-74961924D01*
X100126012Y-74961923D01*
X100132708Y-74959747D01*
X100240498Y-74895491D01*
X100282460Y-74870477D01*
X100282462Y-74870476D01*
X100288512Y-74866869D01*
X100310262Y-74846156D01*
X100319821Y-74837054D01*
X100382946Y-74804562D01*
X100406713Y-74802300D01*
X103303500Y-74802300D01*
X103371621Y-74822302D01*
X103418114Y-74875958D01*
X103429500Y-74928300D01*
X103429500Y-78496917D01*
X103409498Y-78565038D01*
X103392595Y-78586012D01*
X102811725Y-79166882D01*
X102749413Y-79200908D01*
X102735804Y-79203097D01*
X102694192Y-79207470D01*
X102626088Y-79214628D01*
X102626086Y-79214629D01*
X102619088Y-79215364D01*
X102447379Y-79273818D01*
X102441375Y-79277512D01*
X102298895Y-79365166D01*
X102298892Y-79365168D01*
X102292888Y-79368862D01*
X102287853Y-79373793D01*
X102287850Y-79373795D01*
X102200446Y-79459388D01*
X102163293Y-79495771D01*
X102065035Y-79648238D01*
X102062626Y-79654858D01*
X102062624Y-79654861D01*
X102008905Y-79802453D01*
X102002997Y-79818685D01*
X101980263Y-79998640D01*
X101997963Y-80179160D01*
X102055218Y-80351273D01*
X102058865Y-80357295D01*
X102058866Y-80357297D01*
X102120143Y-80458477D01*
X102149180Y-80506424D01*
X102154069Y-80511487D01*
X102154070Y-80511488D01*
X102177238Y-80535479D01*
X102275182Y-80636902D01*
X102426959Y-80736222D01*
X102433563Y-80738678D01*
X102433565Y-80738679D01*
X102590358Y-80796990D01*
X102590360Y-80796990D01*
X102596968Y-80799448D01*
X102680795Y-80810633D01*
X102769780Y-80822507D01*
X102769784Y-80822507D01*
X102776761Y-80823438D01*
X102783772Y-80822800D01*
X102783776Y-80822800D01*
X102926259Y-80809832D01*
X102957400Y-80806998D01*
X102964102Y-80804820D01*
X102964104Y-80804820D01*
X103123209Y-80753124D01*
X103123212Y-80753123D01*
X103129908Y-80750947D01*
X103285712Y-80658069D01*
X103417066Y-80532982D01*
X103517443Y-80381902D01*
X103581855Y-80212338D01*
X103585485Y-80186507D01*
X103603002Y-80061871D01*
X103632290Y-79997197D01*
X103638681Y-79990312D01*
X104392707Y-79236286D01*
X104405098Y-79225418D01*
X104422611Y-79211980D01*
X104429157Y-79206957D01*
X104478556Y-79142579D01*
X104522686Y-79085068D01*
X104551841Y-79014681D01*
X104581481Y-78943124D01*
X104596500Y-78829044D01*
X104596500Y-78829042D01*
X104601535Y-78790800D01*
X104597578Y-78760744D01*
X104596500Y-78744297D01*
X104596500Y-74969883D01*
X104616502Y-74901762D01*
X104633405Y-74880788D01*
X105126234Y-74387960D01*
X105620987Y-73893207D01*
X105683299Y-73859181D01*
X105698662Y-73856821D01*
X105761391Y-73851112D01*
X105802200Y-73847398D01*
X105808902Y-73845220D01*
X105808904Y-73845220D01*
X105968009Y-73793524D01*
X105968012Y-73793523D01*
X105974708Y-73791347D01*
X106122336Y-73703343D01*
X106124460Y-73702077D01*
X106124462Y-73702076D01*
X106130512Y-73698469D01*
X106261866Y-73573382D01*
X106362243Y-73422302D01*
X106404023Y-73312317D01*
X106424155Y-73259320D01*
X106424156Y-73259318D01*
X106426655Y-73252738D01*
X106428749Y-73237840D01*
X106451348Y-73077039D01*
X106451348Y-73077036D01*
X106451899Y-73073117D01*
X106452216Y-73050400D01*
X106436506Y-72910344D01*
X106448790Y-72840420D01*
X106496929Y-72788235D01*
X106561721Y-72770300D01*
X107513785Y-72770300D01*
X107581906Y-72790302D01*
X107598826Y-72804182D01*
X107598859Y-72804143D01*
X107604288Y-72808634D01*
X107609182Y-72813702D01*
X107685070Y-72863362D01*
X107720590Y-72886605D01*
X107760959Y-72913022D01*
X107767563Y-72915478D01*
X107767565Y-72915479D01*
X107924358Y-72973790D01*
X107924360Y-72973790D01*
X107930968Y-72976248D01*
X108014795Y-72987433D01*
X108103780Y-72999307D01*
X108103784Y-72999307D01*
X108110761Y-73000238D01*
X108117772Y-72999600D01*
X108117776Y-72999600D01*
X108260259Y-72986632D01*
X108291400Y-72983798D01*
X108298102Y-72981620D01*
X108298104Y-72981620D01*
X108457209Y-72929924D01*
X108457212Y-72929923D01*
X108463908Y-72927747D01*
X108560536Y-72870145D01*
X108613660Y-72838477D01*
X108613662Y-72838476D01*
X108619712Y-72834869D01*
X108751066Y-72709782D01*
X108851443Y-72558702D01*
X108915855Y-72389138D01*
X108916835Y-72382166D01*
X108940548Y-72213439D01*
X108940548Y-72213436D01*
X108941099Y-72209517D01*
X108941416Y-72186800D01*
X108921197Y-72006545D01*
X108861545Y-71835248D01*
X108765426Y-71681424D01*
X108702760Y-71618319D01*
X108642578Y-71557715D01*
X108642574Y-71557712D01*
X108637615Y-71552718D01*
X108626497Y-71545662D01*
X108544811Y-71493823D01*
X108484466Y-71455527D01*
X108417695Y-71431751D01*
X108320225Y-71397043D01*
X108320220Y-71397042D01*
X108313590Y-71394681D01*
X108306602Y-71393848D01*
X108306599Y-71393847D01*
X108183498Y-71379168D01*
X108133480Y-71373204D01*
X108126477Y-71373940D01*
X108126476Y-71373940D01*
X107960088Y-71391428D01*
X107960086Y-71391429D01*
X107953088Y-71392164D01*
X107781379Y-71450618D01*
X107775375Y-71454312D01*
X107663785Y-71522963D01*
X107626888Y-71545662D01*
X107621858Y-71550587D01*
X107621855Y-71550590D01*
X107604766Y-71567325D01*
X107542100Y-71600695D01*
X107516609Y-71603300D01*
X105634303Y-71603300D01*
X105617856Y-71602222D01*
X105595988Y-71599343D01*
X105587800Y-71598265D01*
X105549556Y-71603300D01*
X105435476Y-71618319D01*
X105293533Y-71677114D01*
X105171643Y-71770643D01*
X105166620Y-71777189D01*
X105153182Y-71794702D01*
X105142314Y-71807093D01*
X103351012Y-73598395D01*
X103288700Y-73632421D01*
X103261917Y-73635300D01*
X100409094Y-73635300D01*
X100340973Y-73615298D01*
X100319688Y-73598084D01*
X100311377Y-73589715D01*
X100306415Y-73584718D01*
X100295297Y-73577662D01*
X100226108Y-73533754D01*
X100153266Y-73487527D01*
X100121751Y-73476305D01*
X99989025Y-73429043D01*
X99989020Y-73429042D01*
X99982390Y-73426681D01*
X99975402Y-73425848D01*
X99975399Y-73425847D01*
X99852298Y-73411168D01*
X99802280Y-73405204D01*
X99795277Y-73405940D01*
X99795276Y-73405940D01*
X99628888Y-73423428D01*
X99628886Y-73423429D01*
X99621888Y-73424164D01*
X99450179Y-73482618D01*
X99409107Y-73507886D01*
X99301695Y-73573966D01*
X99301692Y-73573968D01*
X99295688Y-73577662D01*
X99290653Y-73582593D01*
X99290650Y-73582595D01*
X99183483Y-73687541D01*
X99166093Y-73704571D01*
X99067835Y-73857038D01*
X99005797Y-74027485D01*
X98983063Y-74207440D01*
X84759100Y-74207440D01*
X84759100Y-73600043D01*
X84779102Y-73531922D01*
X84832758Y-73485429D01*
X84885100Y-73474043D01*
X88539985Y-73474043D01*
X88608106Y-73494045D01*
X88625026Y-73507925D01*
X88625059Y-73507886D01*
X88630488Y-73512377D01*
X88635382Y-73517445D01*
X88641278Y-73521303D01*
X88759087Y-73598395D01*
X88787159Y-73616765D01*
X88793763Y-73619221D01*
X88793765Y-73619222D01*
X88950558Y-73677533D01*
X88950560Y-73677533D01*
X88957168Y-73679991D01*
X89040995Y-73691176D01*
X89129980Y-73703050D01*
X89129984Y-73703050D01*
X89136961Y-73703981D01*
X89143972Y-73703343D01*
X89143976Y-73703343D01*
X89286459Y-73690375D01*
X89317600Y-73687541D01*
X89324302Y-73685363D01*
X89324304Y-73685363D01*
X89483409Y-73633667D01*
X89483412Y-73633666D01*
X89490108Y-73631490D01*
X89645912Y-73538612D01*
X89667662Y-73517899D01*
X89677221Y-73508797D01*
X89740346Y-73476305D01*
X89764113Y-73474043D01*
X93111985Y-73474043D01*
X93180106Y-73494045D01*
X93197026Y-73507925D01*
X93197059Y-73507886D01*
X93202488Y-73512377D01*
X93207382Y-73517445D01*
X93213278Y-73521303D01*
X93331087Y-73598395D01*
X93359159Y-73616765D01*
X93365763Y-73619221D01*
X93365765Y-73619222D01*
X93522558Y-73677533D01*
X93522560Y-73677533D01*
X93529168Y-73679991D01*
X93612995Y-73691176D01*
X93701980Y-73703050D01*
X93701984Y-73703050D01*
X93708961Y-73703981D01*
X93715972Y-73703343D01*
X93715976Y-73703343D01*
X93858459Y-73690375D01*
X93889600Y-73687541D01*
X93896302Y-73685363D01*
X93896304Y-73685363D01*
X94055409Y-73633667D01*
X94055412Y-73633666D01*
X94062108Y-73631490D01*
X94217912Y-73538612D01*
X94349266Y-73413525D01*
X94449643Y-73262445D01*
X94514055Y-73092881D01*
X94515035Y-73085909D01*
X94538748Y-72917182D01*
X94538748Y-72917179D01*
X94539299Y-72913260D01*
X94539616Y-72890543D01*
X94519397Y-72710288D01*
X94517080Y-72703634D01*
X94462064Y-72545649D01*
X94462062Y-72545646D01*
X94459745Y-72538991D01*
X94363626Y-72385167D01*
X94349941Y-72371386D01*
X94240778Y-72261458D01*
X94240774Y-72261455D01*
X94235815Y-72256461D01*
X94224697Y-72249405D01*
X94155603Y-72205557D01*
X94082666Y-72159270D01*
X94053463Y-72148871D01*
X93918425Y-72100786D01*
X93918420Y-72100785D01*
X93911790Y-72098424D01*
X93904802Y-72097591D01*
X93904799Y-72097590D01*
X93781698Y-72082911D01*
X93731680Y-72076947D01*
X93724677Y-72077683D01*
X93724676Y-72077683D01*
X93558288Y-72095171D01*
X93558286Y-72095172D01*
X93551288Y-72095907D01*
X93379579Y-72154361D01*
X93320410Y-72190762D01*
X93231096Y-72245709D01*
X93225088Y-72249405D01*
X93220058Y-72254330D01*
X93220055Y-72254333D01*
X93202966Y-72271068D01*
X93140300Y-72304438D01*
X93114809Y-72307043D01*
X89766494Y-72307043D01*
X89698373Y-72287041D01*
X89677088Y-72269827D01*
X89668777Y-72261458D01*
X89663815Y-72256461D01*
X89652697Y-72249405D01*
X89583603Y-72205557D01*
X89510666Y-72159270D01*
X89481463Y-72148871D01*
X89346425Y-72100786D01*
X89346420Y-72100785D01*
X89339790Y-72098424D01*
X89332802Y-72097591D01*
X89332799Y-72097590D01*
X89209698Y-72082911D01*
X89159680Y-72076947D01*
X89152677Y-72077683D01*
X89152676Y-72077683D01*
X88986288Y-72095171D01*
X88986286Y-72095172D01*
X88979288Y-72095907D01*
X88807579Y-72154361D01*
X88748410Y-72190762D01*
X88659096Y-72245709D01*
X88653088Y-72249405D01*
X88648058Y-72254330D01*
X88648055Y-72254333D01*
X88630966Y-72271068D01*
X88568300Y-72304438D01*
X88542809Y-72307043D01*
X84788094Y-72307043D01*
X84719973Y-72287041D01*
X84698688Y-72269827D01*
X84690377Y-72261458D01*
X84685415Y-72256461D01*
X84674297Y-72249405D01*
X84605203Y-72205557D01*
X84532266Y-72159270D01*
X84503063Y-72148871D01*
X84368025Y-72100786D01*
X84368020Y-72100785D01*
X84361390Y-72098424D01*
X84354402Y-72097591D01*
X84354399Y-72097590D01*
X84231298Y-72082911D01*
X84181280Y-72076947D01*
X84174277Y-72077683D01*
X84174276Y-72077683D01*
X84007888Y-72095171D01*
X84007886Y-72095172D01*
X84000888Y-72095907D01*
X83829179Y-72154361D01*
X83770010Y-72190762D01*
X83680695Y-72245709D01*
X83680692Y-72245711D01*
X83674688Y-72249405D01*
X83669656Y-72254333D01*
X83669650Y-72254338D01*
X83636255Y-72287041D01*
X83545093Y-72376314D01*
X83446835Y-72528781D01*
X83444426Y-72535401D01*
X83444424Y-72535404D01*
X83387206Y-72692609D01*
X83384797Y-72699228D01*
X83362063Y-72879183D01*
X83379763Y-73059703D01*
X83437018Y-73231816D01*
X83440665Y-73237838D01*
X83440666Y-73237840D01*
X83527330Y-73380941D01*
X83527333Y-73380944D01*
X83530980Y-73386967D01*
X83556738Y-73413640D01*
X83589669Y-73476534D01*
X83592100Y-73501165D01*
X83592100Y-76849316D01*
X83572098Y-76917437D01*
X83554257Y-76939339D01*
X83545093Y-76948314D01*
X83446835Y-77100781D01*
X83444426Y-77107401D01*
X83444424Y-77107404D01*
X83387206Y-77264609D01*
X83384797Y-77271228D01*
X83362063Y-77451183D01*
X50038500Y-77451183D01*
X50038500Y-70286890D01*
X65055500Y-70286890D01*
X65070080Y-70458720D01*
X65071418Y-70463875D01*
X65071419Y-70463881D01*
X65126657Y-70676703D01*
X65127999Y-70681872D01*
X65222688Y-70892075D01*
X65351441Y-71083319D01*
X65510576Y-71250135D01*
X65695542Y-71387754D01*
X65700293Y-71390170D01*
X65700297Y-71390172D01*
X65762704Y-71421901D01*
X65901051Y-71492240D01*
X65906145Y-71493822D01*
X65906148Y-71493823D01*
X66083663Y-71548943D01*
X66121227Y-71560607D01*
X66126516Y-71561308D01*
X66344489Y-71590198D01*
X66344494Y-71590198D01*
X66349774Y-71590898D01*
X66355103Y-71590698D01*
X66355105Y-71590698D01*
X66464966Y-71586573D01*
X66580158Y-71582249D01*
X66585468Y-71581135D01*
X66800572Y-71536002D01*
X66805791Y-71534907D01*
X66810750Y-71532949D01*
X66810752Y-71532948D01*
X67015256Y-71452185D01*
X67015258Y-71452184D01*
X67020221Y-71450224D01*
X67107861Y-71397043D01*
X67212757Y-71333390D01*
X67212756Y-71333390D01*
X67217317Y-71330623D01*
X67257493Y-71295760D01*
X67387412Y-71183023D01*
X67387414Y-71183021D01*
X67391445Y-71179523D01*
X67455383Y-71101545D01*
X67534240Y-71005373D01*
X67534244Y-71005367D01*
X67537624Y-71001245D01*
X67555552Y-70969750D01*
X67606632Y-70920445D01*
X67676262Y-70906583D01*
X67742333Y-70932566D01*
X67769573Y-70961716D01*
X67851441Y-71083319D01*
X68010576Y-71250135D01*
X68195542Y-71387754D01*
X68200293Y-71390170D01*
X68200297Y-71390172D01*
X68262704Y-71421901D01*
X68401051Y-71492240D01*
X68406145Y-71493822D01*
X68406148Y-71493823D01*
X68583663Y-71548943D01*
X68621227Y-71560607D01*
X68626516Y-71561308D01*
X68844489Y-71590198D01*
X68844494Y-71590198D01*
X68849774Y-71590898D01*
X68855103Y-71590698D01*
X68855105Y-71590698D01*
X68964966Y-71586573D01*
X69080158Y-71582249D01*
X69085468Y-71581135D01*
X69300572Y-71536002D01*
X69305791Y-71534907D01*
X69310750Y-71532949D01*
X69310752Y-71532948D01*
X69515256Y-71452185D01*
X69515258Y-71452184D01*
X69520221Y-71450224D01*
X69607861Y-71397043D01*
X69712757Y-71333390D01*
X69712756Y-71333390D01*
X69717317Y-71330623D01*
X69757493Y-71295760D01*
X69887412Y-71183023D01*
X69887414Y-71183021D01*
X69891445Y-71179523D01*
X69955383Y-71101545D01*
X70034240Y-71005373D01*
X70034244Y-71005367D01*
X70037624Y-71001245D01*
X70055552Y-70969750D01*
X70106632Y-70920445D01*
X70176262Y-70906583D01*
X70242333Y-70932566D01*
X70269573Y-70961716D01*
X70351441Y-71083319D01*
X70510576Y-71250135D01*
X70695542Y-71387754D01*
X70700293Y-71390170D01*
X70700297Y-71390172D01*
X70762704Y-71421901D01*
X70901051Y-71492240D01*
X70906145Y-71493822D01*
X70906148Y-71493823D01*
X71083663Y-71548943D01*
X71121227Y-71560607D01*
X71126516Y-71561308D01*
X71344489Y-71590198D01*
X71344494Y-71590198D01*
X71349774Y-71590898D01*
X71355103Y-71590698D01*
X71355105Y-71590698D01*
X71464966Y-71586573D01*
X71580158Y-71582249D01*
X71585468Y-71581135D01*
X71800572Y-71536002D01*
X71805791Y-71534907D01*
X71810750Y-71532949D01*
X71810752Y-71532948D01*
X72015256Y-71452185D01*
X72015258Y-71452184D01*
X72020221Y-71450224D01*
X72107861Y-71397043D01*
X72212757Y-71333390D01*
X72212756Y-71333390D01*
X72217317Y-71330623D01*
X72257493Y-71295760D01*
X72387412Y-71183023D01*
X72387414Y-71183021D01*
X72391445Y-71179523D01*
X72421006Y-71143471D01*
X72479666Y-71103476D01*
X72550636Y-71101545D01*
X72611384Y-71138290D01*
X72625584Y-71157059D01*
X72712063Y-71296807D01*
X72721099Y-71308208D01*
X72835829Y-71422739D01*
X72847240Y-71431751D01*
X72985243Y-71516816D01*
X72998424Y-71522963D01*
X73152710Y-71574138D01*
X73166086Y-71577005D01*
X73260438Y-71586672D01*
X73266854Y-71587000D01*
X73641885Y-71587000D01*
X73657124Y-71582525D01*
X73658329Y-71581135D01*
X73660000Y-71573452D01*
X73660000Y-71568884D01*
X74168000Y-71568884D01*
X74172475Y-71584123D01*
X74173865Y-71585328D01*
X74181548Y-71586999D01*
X74561095Y-71586999D01*
X74567614Y-71586662D01*
X74663206Y-71576743D01*
X74676600Y-71573851D01*
X74830784Y-71522412D01*
X74843962Y-71516239D01*
X74981807Y-71430937D01*
X74993208Y-71421901D01*
X75107739Y-71307171D01*
X75116751Y-71295760D01*
X75201816Y-71157757D01*
X75207963Y-71144576D01*
X75259138Y-70990290D01*
X75262005Y-70976914D01*
X75271672Y-70882562D01*
X75272000Y-70876146D01*
X75272000Y-70376115D01*
X75267525Y-70360876D01*
X75266135Y-70359671D01*
X75258452Y-70358000D01*
X74186115Y-70358000D01*
X74170876Y-70362475D01*
X74169671Y-70363865D01*
X74168000Y-70371548D01*
X74168000Y-71568884D01*
X73660000Y-71568884D01*
X73660000Y-69831885D01*
X74168000Y-69831885D01*
X74172475Y-69847124D01*
X74173865Y-69848329D01*
X74181548Y-69850000D01*
X75253884Y-69850000D01*
X75269123Y-69845525D01*
X75270328Y-69844135D01*
X75271999Y-69836452D01*
X75271999Y-69331905D01*
X75271662Y-69325386D01*
X75261743Y-69229794D01*
X75258851Y-69216400D01*
X75207412Y-69062216D01*
X75201239Y-69049038D01*
X75115937Y-68911193D01*
X75106901Y-68899792D01*
X74992171Y-68785261D01*
X74980760Y-68776249D01*
X74842757Y-68691184D01*
X74829576Y-68685037D01*
X74675290Y-68633862D01*
X74661914Y-68630995D01*
X74567562Y-68621328D01*
X74561145Y-68621000D01*
X74186115Y-68621000D01*
X74170876Y-68625475D01*
X74169671Y-68626865D01*
X74168000Y-68634548D01*
X74168000Y-69831885D01*
X73660000Y-69831885D01*
X73660000Y-68639116D01*
X73655525Y-68623877D01*
X73654135Y-68622672D01*
X73646452Y-68621001D01*
X73266905Y-68621001D01*
X73260386Y-68621338D01*
X73164794Y-68631257D01*
X73151400Y-68634149D01*
X72997216Y-68685588D01*
X72984038Y-68691761D01*
X72846193Y-68777063D01*
X72834792Y-68786099D01*
X72720261Y-68900829D01*
X72711247Y-68912243D01*
X72625277Y-69051713D01*
X72572505Y-69099207D01*
X72502434Y-69110631D01*
X72437310Y-69082357D01*
X72426847Y-69072570D01*
X72406951Y-69051713D01*
X72317424Y-68957865D01*
X72132458Y-68820246D01*
X72127707Y-68817830D01*
X72127703Y-68817828D01*
X72005731Y-68755815D01*
X71926949Y-68715760D01*
X71921855Y-68714178D01*
X71921852Y-68714177D01*
X71711871Y-68648976D01*
X71706773Y-68647393D01*
X71701484Y-68646692D01*
X71483511Y-68617802D01*
X71483506Y-68617802D01*
X71478226Y-68617102D01*
X71472897Y-68617302D01*
X71472895Y-68617302D01*
X71374368Y-68621001D01*
X71247842Y-68625751D01*
X71242623Y-68626846D01*
X71222849Y-68630995D01*
X71022209Y-68673093D01*
X71017250Y-68675051D01*
X71017248Y-68675052D01*
X70812744Y-68755815D01*
X70812742Y-68755816D01*
X70807779Y-68757776D01*
X70803220Y-68760543D01*
X70803217Y-68760544D01*
X70704832Y-68820246D01*
X70610683Y-68877377D01*
X70606653Y-68880874D01*
X70513484Y-68961722D01*
X70436555Y-69028477D01*
X70433168Y-69032608D01*
X70293760Y-69202627D01*
X70293756Y-69202633D01*
X70290376Y-69206755D01*
X70272448Y-69238250D01*
X70221368Y-69287555D01*
X70151738Y-69301417D01*
X70085667Y-69275434D01*
X70058427Y-69246284D01*
X69979539Y-69129108D01*
X69976559Y-69124681D01*
X69926848Y-69072570D01*
X69821103Y-68961722D01*
X69817424Y-68957865D01*
X69632458Y-68820246D01*
X69627707Y-68817830D01*
X69627703Y-68817828D01*
X69505731Y-68755815D01*
X69426949Y-68715760D01*
X69421855Y-68714178D01*
X69421852Y-68714177D01*
X69211871Y-68648976D01*
X69206773Y-68647393D01*
X69201484Y-68646692D01*
X68983511Y-68617802D01*
X68983506Y-68617802D01*
X68978226Y-68617102D01*
X68972897Y-68617302D01*
X68972895Y-68617302D01*
X68874368Y-68621001D01*
X68747842Y-68625751D01*
X68742623Y-68626846D01*
X68722849Y-68630995D01*
X68522209Y-68673093D01*
X68517250Y-68675051D01*
X68517248Y-68675052D01*
X68312744Y-68755815D01*
X68312742Y-68755816D01*
X68307779Y-68757776D01*
X68303220Y-68760543D01*
X68303217Y-68760544D01*
X68204832Y-68820246D01*
X68110683Y-68877377D01*
X68106653Y-68880874D01*
X68013484Y-68961722D01*
X67936555Y-69028477D01*
X67933168Y-69032608D01*
X67793760Y-69202627D01*
X67793756Y-69202633D01*
X67790376Y-69206755D01*
X67772448Y-69238250D01*
X67721368Y-69287555D01*
X67651738Y-69301417D01*
X67585667Y-69275434D01*
X67558427Y-69246284D01*
X67479539Y-69129108D01*
X67476559Y-69124681D01*
X67426848Y-69072570D01*
X67321103Y-68961722D01*
X67317424Y-68957865D01*
X67132458Y-68820246D01*
X67127707Y-68817830D01*
X67127703Y-68817828D01*
X67005731Y-68755815D01*
X66926949Y-68715760D01*
X66921855Y-68714178D01*
X66921852Y-68714177D01*
X66711871Y-68648976D01*
X66706773Y-68647393D01*
X66701484Y-68646692D01*
X66483511Y-68617802D01*
X66483506Y-68617802D01*
X66478226Y-68617102D01*
X66472897Y-68617302D01*
X66472895Y-68617302D01*
X66374368Y-68621001D01*
X66247842Y-68625751D01*
X66242623Y-68626846D01*
X66222849Y-68630995D01*
X66022209Y-68673093D01*
X66017250Y-68675051D01*
X66017248Y-68675052D01*
X65812744Y-68755815D01*
X65812742Y-68755816D01*
X65807779Y-68757776D01*
X65803220Y-68760543D01*
X65803217Y-68760544D01*
X65704832Y-68820246D01*
X65610683Y-68877377D01*
X65606653Y-68880874D01*
X65513484Y-68961722D01*
X65436555Y-69028477D01*
X65433168Y-69032608D01*
X65293760Y-69202627D01*
X65293756Y-69202633D01*
X65290376Y-69206755D01*
X65287738Y-69211390D01*
X65287735Y-69211394D01*
X65244382Y-69287555D01*
X65176325Y-69407114D01*
X65097663Y-69623825D01*
X65096714Y-69629074D01*
X65096713Y-69629077D01*
X65057377Y-69846608D01*
X65057376Y-69846615D01*
X65056639Y-69850692D01*
X65055500Y-69874844D01*
X65055500Y-70286890D01*
X50038500Y-70286890D01*
X50038500Y-60948434D01*
X51042661Y-60948434D01*
X51060792Y-61306340D01*
X51061329Y-61309695D01*
X51061330Y-61309701D01*
X51066316Y-61340828D01*
X51117470Y-61660195D01*
X51212033Y-62005859D01*
X51343374Y-62339288D01*
X51509957Y-62656582D01*
X51511858Y-62659411D01*
X51511864Y-62659421D01*
X51695569Y-62932800D01*
X51709834Y-62954029D01*
X51940665Y-63228150D01*
X52199751Y-63475738D01*
X52484061Y-63693897D01*
X52516056Y-63713350D01*
X52787355Y-63878303D01*
X52787360Y-63878306D01*
X52790270Y-63880075D01*
X52793358Y-63881521D01*
X52793357Y-63881521D01*
X53111710Y-64030649D01*
X53111720Y-64030653D01*
X53114794Y-64032093D01*
X53118012Y-64033195D01*
X53118015Y-64033196D01*
X53450615Y-64147071D01*
X53450623Y-64147073D01*
X53453838Y-64148174D01*
X53803435Y-64226959D01*
X53855728Y-64232917D01*
X54156114Y-64267142D01*
X54156122Y-64267142D01*
X54159497Y-64267527D01*
X54162901Y-64267545D01*
X54162904Y-64267545D01*
X54357227Y-64268562D01*
X54517857Y-64269403D01*
X54521243Y-64269053D01*
X54521245Y-64269053D01*
X54870932Y-64232917D01*
X54870941Y-64232916D01*
X54874324Y-64232566D01*
X54877657Y-64231852D01*
X54877660Y-64231851D01*
X55050186Y-64194864D01*
X55224727Y-64157446D01*
X55564968Y-64044922D01*
X55891066Y-63896311D01*
X55985052Y-63840506D01*
X56196262Y-63715099D01*
X56196267Y-63715096D01*
X56199207Y-63713350D01*
X56485786Y-63498180D01*
X56747451Y-63253319D01*
X56981140Y-62981630D01*
X57087750Y-62826512D01*
X57182190Y-62689101D01*
X57182195Y-62689094D01*
X57184120Y-62686292D01*
X57185732Y-62683298D01*
X57185737Y-62683290D01*
X57352395Y-62373772D01*
X57354017Y-62370760D01*
X57488842Y-62038724D01*
X57499142Y-62002568D01*
X57519527Y-61931006D01*
X57587020Y-61694070D01*
X57647401Y-61340828D01*
X57649511Y-61306340D01*
X57669168Y-60984928D01*
X57669278Y-60983131D01*
X57669359Y-60960000D01*
X57668733Y-60948434D01*
X170422661Y-60948434D01*
X170440792Y-61306340D01*
X170441329Y-61309695D01*
X170441330Y-61309701D01*
X170446316Y-61340828D01*
X170497470Y-61660195D01*
X170592033Y-62005859D01*
X170723374Y-62339288D01*
X170889957Y-62656582D01*
X170891858Y-62659411D01*
X170891864Y-62659421D01*
X171075569Y-62932800D01*
X171089834Y-62954029D01*
X171320665Y-63228150D01*
X171579751Y-63475738D01*
X171864061Y-63693897D01*
X171896056Y-63713350D01*
X172167355Y-63878303D01*
X172167360Y-63878306D01*
X172170270Y-63880075D01*
X172173358Y-63881521D01*
X172173357Y-63881521D01*
X172491710Y-64030649D01*
X172491720Y-64030653D01*
X172494794Y-64032093D01*
X172498012Y-64033195D01*
X172498015Y-64033196D01*
X172830615Y-64147071D01*
X172830623Y-64147073D01*
X172833838Y-64148174D01*
X173183435Y-64226959D01*
X173235728Y-64232917D01*
X173536114Y-64267142D01*
X173536122Y-64267142D01*
X173539497Y-64267527D01*
X173542901Y-64267545D01*
X173542904Y-64267545D01*
X173737227Y-64268562D01*
X173897857Y-64269403D01*
X173901243Y-64269053D01*
X173901245Y-64269053D01*
X174250932Y-64232917D01*
X174250941Y-64232916D01*
X174254324Y-64232566D01*
X174257657Y-64231852D01*
X174257660Y-64231851D01*
X174430186Y-64194864D01*
X174604727Y-64157446D01*
X174944968Y-64044922D01*
X175271066Y-63896311D01*
X175365052Y-63840506D01*
X175576262Y-63715099D01*
X175576267Y-63715096D01*
X175579207Y-63713350D01*
X175865786Y-63498180D01*
X176127451Y-63253319D01*
X176361140Y-62981630D01*
X176467750Y-62826512D01*
X176562190Y-62689101D01*
X176562195Y-62689094D01*
X176564120Y-62686292D01*
X176565732Y-62683298D01*
X176565737Y-62683290D01*
X176732395Y-62373772D01*
X176734017Y-62370760D01*
X176868842Y-62038724D01*
X176879142Y-62002568D01*
X176899527Y-61931006D01*
X176967020Y-61694070D01*
X177027401Y-61340828D01*
X177029511Y-61306340D01*
X177049168Y-60984928D01*
X177049278Y-60983131D01*
X177049359Y-60960000D01*
X177029979Y-60602159D01*
X176972066Y-60248505D01*
X176876297Y-59903173D01*
X176873243Y-59895497D01*
X176745052Y-59573369D01*
X176743793Y-59570205D01*
X176713768Y-59513498D01*
X176577702Y-59256513D01*
X176577698Y-59256506D01*
X176576103Y-59253494D01*
X176375190Y-58956746D01*
X176143403Y-58683432D01*
X175883454Y-58436750D01*
X175598384Y-58219585D01*
X175595472Y-58217828D01*
X175595467Y-58217825D01*
X175294443Y-58036236D01*
X175294437Y-58036233D01*
X175291528Y-58034478D01*
X174966475Y-57883593D01*
X174796751Y-57826145D01*
X174630255Y-57769789D01*
X174630250Y-57769788D01*
X174627028Y-57768697D01*
X174428681Y-57724724D01*
X174280493Y-57691871D01*
X174280487Y-57691870D01*
X174277158Y-57691132D01*
X174273769Y-57690758D01*
X174273764Y-57690757D01*
X173924338Y-57652180D01*
X173924333Y-57652180D01*
X173920957Y-57651807D01*
X173917558Y-57651801D01*
X173917557Y-57651801D01*
X173748080Y-57651505D01*
X173562592Y-57651182D01*
X173449413Y-57663277D01*
X173209639Y-57688901D01*
X173209631Y-57688902D01*
X173206256Y-57689263D01*
X172856117Y-57765606D01*
X172516271Y-57879317D01*
X172513178Y-57880739D01*
X172513177Y-57880740D01*
X172506974Y-57883593D01*
X172190694Y-58029066D01*
X171883193Y-58213101D01*
X171880467Y-58215163D01*
X171880465Y-58215164D01*
X171874620Y-58219585D01*
X171597367Y-58429270D01*
X171336559Y-58675043D01*
X171103819Y-58947546D01*
X171101900Y-58950358D01*
X171101897Y-58950363D01*
X171008624Y-59087097D01*
X170901871Y-59243591D01*
X170733077Y-59559714D01*
X170599411Y-59892218D01*
X170598491Y-59895492D01*
X170598489Y-59895497D01*
X170596332Y-59903173D01*
X170502437Y-60237213D01*
X170443290Y-60590663D01*
X170422661Y-60948434D01*
X57668733Y-60948434D01*
X57649979Y-60602159D01*
X57592066Y-60248505D01*
X57496297Y-59903173D01*
X57493243Y-59895497D01*
X57365052Y-59573369D01*
X57363793Y-59570205D01*
X57333768Y-59513498D01*
X57197702Y-59256513D01*
X57197698Y-59256506D01*
X57196103Y-59253494D01*
X56995190Y-58956746D01*
X56763403Y-58683432D01*
X56503454Y-58436750D01*
X56218384Y-58219585D01*
X56215472Y-58217828D01*
X56215467Y-58217825D01*
X55914443Y-58036236D01*
X55914437Y-58036233D01*
X55911528Y-58034478D01*
X55586475Y-57883593D01*
X55416751Y-57826145D01*
X55250255Y-57769789D01*
X55250250Y-57769788D01*
X55247028Y-57768697D01*
X55048681Y-57724724D01*
X54900493Y-57691871D01*
X54900487Y-57691870D01*
X54897158Y-57691132D01*
X54893769Y-57690758D01*
X54893764Y-57690757D01*
X54544338Y-57652180D01*
X54544333Y-57652180D01*
X54540957Y-57651807D01*
X54537558Y-57651801D01*
X54537557Y-57651801D01*
X54368080Y-57651505D01*
X54182592Y-57651182D01*
X54069413Y-57663277D01*
X53829639Y-57688901D01*
X53829631Y-57688902D01*
X53826256Y-57689263D01*
X53476117Y-57765606D01*
X53136271Y-57879317D01*
X53133178Y-57880739D01*
X53133177Y-57880740D01*
X53126974Y-57883593D01*
X52810694Y-58029066D01*
X52503193Y-58213101D01*
X52500467Y-58215163D01*
X52500465Y-58215164D01*
X52494620Y-58219585D01*
X52217367Y-58429270D01*
X51956559Y-58675043D01*
X51723819Y-58947546D01*
X51721900Y-58950358D01*
X51721897Y-58950363D01*
X51628624Y-59087097D01*
X51521871Y-59243591D01*
X51353077Y-59559714D01*
X51219411Y-59892218D01*
X51218491Y-59895492D01*
X51218489Y-59895497D01*
X51216332Y-59903173D01*
X51122437Y-60237213D01*
X51063290Y-60590663D01*
X51042661Y-60948434D01*
X50038500Y-60948434D01*
X50038500Y-56768500D01*
X50058502Y-56700379D01*
X50112158Y-56653886D01*
X50164500Y-56642500D01*
X177927500Y-56642500D01*
X177995621Y-56662502D01*
G37*
%TD.AperFunction*%
%TD*%
M02*
