%TF.GenerationSoftware,KiCad,Pcbnew,6.0.5*%
%TF.CreationDate,2022-06-14T18:54:29+02:00*%
%TF.ProjectId,usb host hub,75736220-686f-4737-9420-6875622e6b69,rev?*%
%TF.SameCoordinates,Original*%
%TF.FileFunction,Legend,Top*%
%TF.FilePolarity,Positive*%
%FSLAX46Y46*%
G04 Gerber Fmt 4.6, Leading zero omitted, Abs format (unit mm)*
G04 Created by KiCad (PCBNEW 6.0.5) date 2022-06-14 18:54:29*
%MOMM*%
%LPD*%
G01*
G04 APERTURE LIST*
%ADD10C,0.278200*%
%ADD11C,0.150000*%
%ADD12C,0.200000*%
%ADD13C,0.127000*%
%ADD14C,0.300000*%
%ADD15C,0.120000*%
G04 APERTURE END LIST*
D10*
X79387100Y-69342000D02*
G75*
G03*
X79387100Y-69342000I-139100J0D01*
G01*
D11*
G36*
X73888600Y-67208400D02*
G01*
X73380600Y-66192400D01*
X74396600Y-66192400D01*
X73888600Y-67208400D01*
G37*
X73888600Y-67208400D02*
X73380600Y-66192400D01*
X74396600Y-66192400D01*
X73888600Y-67208400D01*
X87731600Y-65016543D02*
X87731600Y-70553743D01*
D10*
X108444700Y-80010000D02*
G75*
G03*
X108444700Y-80010000I-139100J0D01*
G01*
D11*
X111395200Y-71005700D02*
X113909800Y-71005700D01*
X93218000Y-65016543D02*
X87731600Y-65016543D01*
X111395200Y-73850500D02*
X113020800Y-73850500D01*
G36*
X74015600Y-85039200D02*
G01*
X73507600Y-84023200D01*
X74523600Y-84023200D01*
X74015600Y-85039200D01*
G37*
X74015600Y-85039200D02*
X73507600Y-84023200D01*
X74523600Y-84023200D01*
X74015600Y-85039200D01*
X111395200Y-76695300D02*
X113020800Y-76695300D01*
X126731904Y-67000380D02*
X126160476Y-67000380D01*
X126446190Y-67000380D02*
X126446190Y-66000380D01*
X126350952Y-66143238D01*
X126255714Y-66238476D01*
X126160476Y-66286095D01*
X127684285Y-67000380D02*
X127112857Y-67000380D01*
X127398571Y-67000380D02*
X127398571Y-66000380D01*
X127303333Y-66143238D01*
X127208095Y-66238476D01*
X127112857Y-66286095D01*
X128589047Y-66000380D02*
X128112857Y-66000380D01*
X128065238Y-66476571D01*
X128112857Y-66428952D01*
X128208095Y-66381333D01*
X128446190Y-66381333D01*
X128541428Y-66428952D01*
X128589047Y-66476571D01*
X128636666Y-66571809D01*
X128636666Y-66809904D01*
X128589047Y-66905142D01*
X128541428Y-66952761D01*
X128446190Y-67000380D01*
X128208095Y-67000380D01*
X128112857Y-66952761D01*
X128065238Y-66905142D01*
X129017619Y-66095619D02*
X129065238Y-66048000D01*
X129160476Y-66000380D01*
X129398571Y-66000380D01*
X129493809Y-66048000D01*
X129541428Y-66095619D01*
X129589047Y-66190857D01*
X129589047Y-66286095D01*
X129541428Y-66428952D01*
X128970000Y-67000380D01*
X129589047Y-67000380D01*
X130208095Y-66000380D02*
X130303333Y-66000380D01*
X130398571Y-66048000D01*
X130446190Y-66095619D01*
X130493809Y-66190857D01*
X130541428Y-66381333D01*
X130541428Y-66619428D01*
X130493809Y-66809904D01*
X130446190Y-66905142D01*
X130398571Y-66952761D01*
X130303333Y-67000380D01*
X130208095Y-67000380D01*
X130112857Y-66952761D01*
X130065238Y-66905142D01*
X130017619Y-66809904D01*
X129970000Y-66619428D01*
X129970000Y-66381333D01*
X130017619Y-66190857D01*
X130065238Y-66095619D01*
X130112857Y-66048000D01*
X130208095Y-66000380D01*
X131160476Y-66000380D02*
X131255714Y-66000380D01*
X131350952Y-66048000D01*
X131398571Y-66095619D01*
X131446190Y-66190857D01*
X131493809Y-66381333D01*
X131493809Y-66619428D01*
X131446190Y-66809904D01*
X131398571Y-66905142D01*
X131350952Y-66952761D01*
X131255714Y-67000380D01*
X131160476Y-67000380D01*
X131065238Y-66952761D01*
X131017619Y-66905142D01*
X130970000Y-66809904D01*
X130922380Y-66619428D01*
X130922380Y-66381333D01*
X130970000Y-66190857D01*
X131017619Y-66095619D01*
X131065238Y-66048000D01*
X131160476Y-66000380D01*
X132684285Y-67000380D02*
X132684285Y-66000380D01*
X132684285Y-66381333D02*
X132779523Y-66333714D01*
X132970000Y-66333714D01*
X133065238Y-66381333D01*
X133112857Y-66428952D01*
X133160476Y-66524190D01*
X133160476Y-66809904D01*
X133112857Y-66905142D01*
X133065238Y-66952761D01*
X132970000Y-67000380D01*
X132779523Y-67000380D01*
X132684285Y-66952761D01*
X134017619Y-67000380D02*
X134017619Y-66476571D01*
X133970000Y-66381333D01*
X133874761Y-66333714D01*
X133684285Y-66333714D01*
X133589047Y-66381333D01*
X134017619Y-66952761D02*
X133922380Y-67000380D01*
X133684285Y-67000380D01*
X133589047Y-66952761D01*
X133541428Y-66857523D01*
X133541428Y-66762285D01*
X133589047Y-66667047D01*
X133684285Y-66619428D01*
X133922380Y-66619428D01*
X134017619Y-66571809D01*
X134922380Y-66333714D02*
X134922380Y-67000380D01*
X134493809Y-66333714D02*
X134493809Y-66857523D01*
X134541428Y-66952761D01*
X134636666Y-67000380D01*
X134779523Y-67000380D01*
X134874761Y-66952761D01*
X134922380Y-66905142D01*
X135827142Y-67000380D02*
X135827142Y-66000380D01*
X135827142Y-66952761D02*
X135731904Y-67000380D01*
X135541428Y-67000380D01*
X135446190Y-66952761D01*
X135398571Y-66905142D01*
X135350952Y-66809904D01*
X135350952Y-66524190D01*
X135398571Y-66428952D01*
X135446190Y-66381333D01*
X135541428Y-66333714D01*
X135731904Y-66333714D01*
X135827142Y-66381333D01*
X136350952Y-66952761D02*
X136350952Y-67000380D01*
X136303333Y-67095619D01*
X136255714Y-67143238D01*
X137684285Y-66428952D02*
X137589047Y-66381333D01*
X137541428Y-66333714D01*
X137493809Y-66238476D01*
X137493809Y-66190857D01*
X137541428Y-66095619D01*
X137589047Y-66048000D01*
X137684285Y-66000380D01*
X137874761Y-66000380D01*
X137970000Y-66048000D01*
X138017619Y-66095619D01*
X138065238Y-66190857D01*
X138065238Y-66238476D01*
X138017619Y-66333714D01*
X137970000Y-66381333D01*
X137874761Y-66428952D01*
X137684285Y-66428952D01*
X137589047Y-66476571D01*
X137541428Y-66524190D01*
X137493809Y-66619428D01*
X137493809Y-66809904D01*
X137541428Y-66905142D01*
X137589047Y-66952761D01*
X137684285Y-67000380D01*
X137874761Y-67000380D01*
X137970000Y-66952761D01*
X138017619Y-66905142D01*
X138065238Y-66809904D01*
X138065238Y-66619428D01*
X138017619Y-66524190D01*
X137970000Y-66476571D01*
X137874761Y-66428952D01*
X139255714Y-67000380D02*
X139255714Y-66000380D01*
X139255714Y-66381333D02*
X139350952Y-66333714D01*
X139541428Y-66333714D01*
X139636666Y-66381333D01*
X139684285Y-66428952D01*
X139731904Y-66524190D01*
X139731904Y-66809904D01*
X139684285Y-66905142D01*
X139636666Y-66952761D01*
X139541428Y-67000380D01*
X139350952Y-67000380D01*
X139255714Y-66952761D01*
X140160476Y-67000380D02*
X140160476Y-66333714D01*
X140160476Y-66000380D02*
X140112857Y-66048000D01*
X140160476Y-66095619D01*
X140208095Y-66048000D01*
X140160476Y-66000380D01*
X140160476Y-66095619D01*
X140493809Y-66333714D02*
X140874761Y-66333714D01*
X140636666Y-66000380D02*
X140636666Y-66857523D01*
X140684285Y-66952761D01*
X140779523Y-67000380D01*
X140874761Y-67000380D01*
X141160476Y-66952761D02*
X141255714Y-67000380D01*
X141446190Y-67000380D01*
X141541428Y-66952761D01*
X141589047Y-66857523D01*
X141589047Y-66809904D01*
X141541428Y-66714666D01*
X141446190Y-66667047D01*
X141303333Y-66667047D01*
X141208095Y-66619428D01*
X141160476Y-66524190D01*
X141160476Y-66476571D01*
X141208095Y-66381333D01*
X141303333Y-66333714D01*
X141446190Y-66333714D01*
X141541428Y-66381333D01*
X142065238Y-66952761D02*
X142065238Y-67000380D01*
X142017619Y-67095619D01*
X141970000Y-67143238D01*
X143255714Y-66333714D02*
X143255714Y-67000380D01*
X143255714Y-66428952D02*
X143303333Y-66381333D01*
X143398571Y-66333714D01*
X143541428Y-66333714D01*
X143636666Y-66381333D01*
X143684285Y-66476571D01*
X143684285Y-67000380D01*
X144303333Y-67000380D02*
X144208095Y-66952761D01*
X144160476Y-66905142D01*
X144112857Y-66809904D01*
X144112857Y-66524190D01*
X144160476Y-66428952D01*
X144208095Y-66381333D01*
X144303333Y-66333714D01*
X144446190Y-66333714D01*
X144541428Y-66381333D01*
X144589047Y-66428952D01*
X144636666Y-66524190D01*
X144636666Y-66809904D01*
X144589047Y-66905142D01*
X144541428Y-66952761D01*
X144446190Y-67000380D01*
X144303333Y-67000380D01*
X145827142Y-66333714D02*
X145827142Y-67333714D01*
X145827142Y-66381333D02*
X145922380Y-66333714D01*
X146112857Y-66333714D01*
X146208095Y-66381333D01*
X146255714Y-66428952D01*
X146303333Y-66524190D01*
X146303333Y-66809904D01*
X146255714Y-66905142D01*
X146208095Y-66952761D01*
X146112857Y-67000380D01*
X145922380Y-67000380D01*
X145827142Y-66952761D01*
X147160476Y-67000380D02*
X147160476Y-66476571D01*
X147112857Y-66381333D01*
X147017619Y-66333714D01*
X146827142Y-66333714D01*
X146731904Y-66381333D01*
X147160476Y-66952761D02*
X147065238Y-67000380D01*
X146827142Y-67000380D01*
X146731904Y-66952761D01*
X146684285Y-66857523D01*
X146684285Y-66762285D01*
X146731904Y-66667047D01*
X146827142Y-66619428D01*
X147065238Y-66619428D01*
X147160476Y-66571809D01*
X147636666Y-67000380D02*
X147636666Y-66333714D01*
X147636666Y-66524190D02*
X147684285Y-66428952D01*
X147731904Y-66381333D01*
X147827142Y-66333714D01*
X147922380Y-66333714D01*
X148255714Y-67000380D02*
X148255714Y-66333714D01*
X148255714Y-66000380D02*
X148208095Y-66048000D01*
X148255714Y-66095619D01*
X148303333Y-66048000D01*
X148255714Y-66000380D01*
X148255714Y-66095619D01*
X148589047Y-66333714D02*
X148970000Y-66333714D01*
X148731904Y-66000380D02*
X148731904Y-66857523D01*
X148779523Y-66952761D01*
X148874761Y-67000380D01*
X148970000Y-67000380D01*
X149208095Y-66333714D02*
X149446190Y-67000380D01*
X149684285Y-66333714D02*
X149446190Y-67000380D01*
X149350952Y-67238476D01*
X149303333Y-67286095D01*
X149208095Y-67333714D01*
X150112857Y-66952761D02*
X150112857Y-67000380D01*
X150065238Y-67095619D01*
X150017619Y-67143238D01*
X151827142Y-67000380D02*
X151255714Y-67000380D01*
X151541428Y-67000380D02*
X151541428Y-66000380D01*
X151446190Y-66143238D01*
X151350952Y-66238476D01*
X151255714Y-66286095D01*
X152970000Y-66952761D02*
X153065238Y-67000380D01*
X153255714Y-67000380D01*
X153350952Y-66952761D01*
X153398571Y-66857523D01*
X153398571Y-66809904D01*
X153350952Y-66714666D01*
X153255714Y-66667047D01*
X153112857Y-66667047D01*
X153017619Y-66619428D01*
X152970000Y-66524190D01*
X152970000Y-66476571D01*
X153017619Y-66381333D01*
X153112857Y-66333714D01*
X153255714Y-66333714D01*
X153350952Y-66381333D01*
X153684285Y-66333714D02*
X154065238Y-66333714D01*
X153827142Y-66000380D02*
X153827142Y-66857523D01*
X153874761Y-66952761D01*
X153970000Y-67000380D01*
X154065238Y-67000380D01*
X154541428Y-67000380D02*
X154446190Y-66952761D01*
X154398571Y-66905142D01*
X154350952Y-66809904D01*
X154350952Y-66524190D01*
X154398571Y-66428952D01*
X154446190Y-66381333D01*
X154541428Y-66333714D01*
X154684285Y-66333714D01*
X154779523Y-66381333D01*
X154827142Y-66428952D01*
X154874761Y-66524190D01*
X154874761Y-66809904D01*
X154827142Y-66905142D01*
X154779523Y-66952761D01*
X154684285Y-67000380D01*
X154541428Y-67000380D01*
X155303333Y-66333714D02*
X155303333Y-67333714D01*
X155303333Y-66381333D02*
X155398571Y-66333714D01*
X155589047Y-66333714D01*
X155684285Y-66381333D01*
X155731904Y-66428952D01*
X155779523Y-66524190D01*
X155779523Y-66809904D01*
X155731904Y-66905142D01*
X155684285Y-66952761D01*
X155589047Y-67000380D01*
X155398571Y-67000380D01*
X155303333Y-66952761D01*
X65746380Y-67117261D02*
X66746380Y-66783928D01*
X65746380Y-66450595D01*
X66222571Y-65783928D02*
X66270190Y-65641071D01*
X66317809Y-65593452D01*
X66413047Y-65545833D01*
X66555904Y-65545833D01*
X66651142Y-65593452D01*
X66698761Y-65641071D01*
X66746380Y-65736309D01*
X66746380Y-66117261D01*
X65746380Y-66117261D01*
X65746380Y-65783928D01*
X65794000Y-65688690D01*
X65841619Y-65641071D01*
X65936857Y-65593452D01*
X66032095Y-65593452D01*
X66127333Y-65641071D01*
X66174952Y-65688690D01*
X66222571Y-65783928D01*
X66222571Y-66117261D01*
X65746380Y-65117261D02*
X66555904Y-65117261D01*
X66651142Y-65069642D01*
X66698761Y-65022023D01*
X66746380Y-64926785D01*
X66746380Y-64736309D01*
X66698761Y-64641071D01*
X66651142Y-64593452D01*
X66555904Y-64545833D01*
X65746380Y-64545833D01*
X66698761Y-64117261D02*
X66746380Y-63974404D01*
X66746380Y-63736309D01*
X66698761Y-63641071D01*
X66651142Y-63593452D01*
X66555904Y-63545833D01*
X66460666Y-63545833D01*
X66365428Y-63593452D01*
X66317809Y-63641071D01*
X66270190Y-63736309D01*
X66222571Y-63926785D01*
X66174952Y-64022023D01*
X66127333Y-64069642D01*
X66032095Y-64117261D01*
X65936857Y-64117261D01*
X65841619Y-64069642D01*
X65794000Y-64022023D01*
X65746380Y-63926785D01*
X65746380Y-63688690D01*
X65794000Y-63545833D01*
X69286380Y-66402976D02*
X68810190Y-66736309D01*
X69286380Y-66974404D02*
X68286380Y-66974404D01*
X68286380Y-66593452D01*
X68334000Y-66498214D01*
X68381619Y-66450595D01*
X68476857Y-66402976D01*
X68619714Y-66402976D01*
X68714952Y-66450595D01*
X68762571Y-66498214D01*
X68810190Y-66593452D01*
X68810190Y-66974404D01*
X68286380Y-66069642D02*
X69286380Y-65402976D01*
X68286380Y-65402976D02*
X69286380Y-66069642D01*
X71778761Y-84802023D02*
X71826380Y-84659166D01*
X71826380Y-84421071D01*
X71778761Y-84325833D01*
X71731142Y-84278214D01*
X71635904Y-84230595D01*
X71540666Y-84230595D01*
X71445428Y-84278214D01*
X71397809Y-84325833D01*
X71350190Y-84421071D01*
X71302571Y-84611547D01*
X71254952Y-84706785D01*
X71207333Y-84754404D01*
X71112095Y-84802023D01*
X71016857Y-84802023D01*
X70921619Y-84754404D01*
X70874000Y-84706785D01*
X70826380Y-84611547D01*
X70826380Y-84373452D01*
X70874000Y-84230595D01*
X70826380Y-83897261D02*
X71826380Y-83659166D01*
X71112095Y-83468690D01*
X71826380Y-83278214D01*
X70826380Y-83040119D01*
X71731142Y-82087738D02*
X71778761Y-82135357D01*
X71826380Y-82278214D01*
X71826380Y-82373452D01*
X71778761Y-82516309D01*
X71683523Y-82611547D01*
X71588285Y-82659166D01*
X71397809Y-82706785D01*
X71254952Y-82706785D01*
X71064476Y-82659166D01*
X70969238Y-82611547D01*
X70874000Y-82516309D01*
X70826380Y-82373452D01*
X70826380Y-82278214D01*
X70874000Y-82135357D01*
X70921619Y-82087738D01*
X71826380Y-81182976D02*
X71826380Y-81659166D01*
X70826380Y-81659166D01*
X71826380Y-80849642D02*
X70826380Y-80849642D01*
X71826380Y-80278214D02*
X71254952Y-80706785D01*
X70826380Y-80278214D02*
X71397809Y-80849642D01*
X66338914Y-89660361D02*
X66481771Y-89707980D01*
X66719866Y-89707980D01*
X66815104Y-89660361D01*
X66862723Y-89612742D01*
X66910342Y-89517504D01*
X66910342Y-89422266D01*
X66862723Y-89327028D01*
X66815104Y-89279409D01*
X66719866Y-89231790D01*
X66529390Y-89184171D01*
X66434152Y-89136552D01*
X66386533Y-89088933D01*
X66338914Y-88993695D01*
X66338914Y-88898457D01*
X66386533Y-88803219D01*
X66434152Y-88755600D01*
X66529390Y-88707980D01*
X66767485Y-88707980D01*
X66910342Y-88755600D01*
X67243676Y-88707980D02*
X67481771Y-89707980D01*
X67672247Y-88993695D01*
X67862723Y-89707980D01*
X68100819Y-88707980D01*
X69243676Y-89707980D02*
X69243676Y-88707980D01*
X69481771Y-88707980D01*
X69624628Y-88755600D01*
X69719866Y-88850838D01*
X69767485Y-88946076D01*
X69815104Y-89136552D01*
X69815104Y-89279409D01*
X69767485Y-89469885D01*
X69719866Y-89565123D01*
X69624628Y-89660361D01*
X69481771Y-89707980D01*
X69243676Y-89707980D01*
X70243676Y-89184171D02*
X70577009Y-89184171D01*
X70719866Y-89707980D02*
X70243676Y-89707980D01*
X70243676Y-88707980D01*
X70719866Y-88707980D01*
X71481771Y-89184171D02*
X71624628Y-89231790D01*
X71672247Y-89279409D01*
X71719866Y-89374647D01*
X71719866Y-89517504D01*
X71672247Y-89612742D01*
X71624628Y-89660361D01*
X71529390Y-89707980D01*
X71148438Y-89707980D01*
X71148438Y-88707980D01*
X71481771Y-88707980D01*
X71577009Y-88755600D01*
X71624628Y-88803219D01*
X71672247Y-88898457D01*
X71672247Y-88993695D01*
X71624628Y-89088933D01*
X71577009Y-89136552D01*
X71481771Y-89184171D01*
X71148438Y-89184171D01*
X72148438Y-88707980D02*
X72148438Y-89517504D01*
X72196057Y-89612742D01*
X72243676Y-89660361D01*
X72338914Y-89707980D01*
X72529390Y-89707980D01*
X72624628Y-89660361D01*
X72672247Y-89612742D01*
X72719866Y-89517504D01*
X72719866Y-88707980D01*
X73719866Y-88755600D02*
X73624628Y-88707980D01*
X73481771Y-88707980D01*
X73338914Y-88755600D01*
X73243676Y-88850838D01*
X73196057Y-88946076D01*
X73148438Y-89136552D01*
X73148438Y-89279409D01*
X73196057Y-89469885D01*
X73243676Y-89565123D01*
X73338914Y-89660361D01*
X73481771Y-89707980D01*
X73577009Y-89707980D01*
X73719866Y-89660361D01*
X73767485Y-89612742D01*
X73767485Y-89279409D01*
X73577009Y-89279409D01*
X69238761Y-84802023D02*
X69286380Y-84659166D01*
X69286380Y-84421071D01*
X69238761Y-84325833D01*
X69191142Y-84278214D01*
X69095904Y-84230595D01*
X69000666Y-84230595D01*
X68905428Y-84278214D01*
X68857809Y-84325833D01*
X68810190Y-84421071D01*
X68762571Y-84611547D01*
X68714952Y-84706785D01*
X68667333Y-84754404D01*
X68572095Y-84802023D01*
X68476857Y-84802023D01*
X68381619Y-84754404D01*
X68334000Y-84706785D01*
X68286380Y-84611547D01*
X68286380Y-84373452D01*
X68334000Y-84230595D01*
X68286380Y-83897261D02*
X69286380Y-83659166D01*
X68572095Y-83468690D01*
X69286380Y-83278214D01*
X68286380Y-83040119D01*
X69286380Y-82659166D02*
X68286380Y-82659166D01*
X68286380Y-82421071D01*
X68334000Y-82278214D01*
X68429238Y-82182976D01*
X68524476Y-82135357D01*
X68714952Y-82087738D01*
X68857809Y-82087738D01*
X69048285Y-82135357D01*
X69143523Y-82182976D01*
X69238761Y-82278214D01*
X69286380Y-82421071D01*
X69286380Y-82659166D01*
X65746380Y-84643261D02*
X66746380Y-84309928D01*
X65746380Y-83976595D01*
X66222571Y-83309928D02*
X66270190Y-83167071D01*
X66317809Y-83119452D01*
X66413047Y-83071833D01*
X66555904Y-83071833D01*
X66651142Y-83119452D01*
X66698761Y-83167071D01*
X66746380Y-83262309D01*
X66746380Y-83643261D01*
X65746380Y-83643261D01*
X65746380Y-83309928D01*
X65794000Y-83214690D01*
X65841619Y-83167071D01*
X65936857Y-83119452D01*
X66032095Y-83119452D01*
X66127333Y-83167071D01*
X66174952Y-83214690D01*
X66222571Y-83309928D01*
X66222571Y-83643261D01*
X65746380Y-82643261D02*
X66555904Y-82643261D01*
X66651142Y-82595642D01*
X66698761Y-82548023D01*
X66746380Y-82452785D01*
X66746380Y-82262309D01*
X66698761Y-82167071D01*
X66651142Y-82119452D01*
X66555904Y-82071833D01*
X65746380Y-82071833D01*
X66698761Y-81643261D02*
X66746380Y-81500404D01*
X66746380Y-81262309D01*
X66698761Y-81167071D01*
X66651142Y-81119452D01*
X66555904Y-81071833D01*
X66460666Y-81071833D01*
X66365428Y-81119452D01*
X66317809Y-81167071D01*
X66270190Y-81262309D01*
X66222571Y-81452785D01*
X66174952Y-81548023D01*
X66127333Y-81595642D01*
X66032095Y-81643261D01*
X65936857Y-81643261D01*
X65841619Y-81595642D01*
X65794000Y-81548023D01*
X65746380Y-81452785D01*
X65746380Y-81214690D01*
X65794000Y-81071833D01*
X126319595Y-61385380D02*
X126319595Y-62194904D01*
X126367214Y-62290142D01*
X126414833Y-62337761D01*
X126510071Y-62385380D01*
X126700547Y-62385380D01*
X126795785Y-62337761D01*
X126843404Y-62290142D01*
X126891023Y-62194904D01*
X126891023Y-61385380D01*
X127319595Y-62337761D02*
X127462452Y-62385380D01*
X127700547Y-62385380D01*
X127795785Y-62337761D01*
X127843404Y-62290142D01*
X127891023Y-62194904D01*
X127891023Y-62099666D01*
X127843404Y-62004428D01*
X127795785Y-61956809D01*
X127700547Y-61909190D01*
X127510071Y-61861571D01*
X127414833Y-61813952D01*
X127367214Y-61766333D01*
X127319595Y-61671095D01*
X127319595Y-61575857D01*
X127367214Y-61480619D01*
X127414833Y-61433000D01*
X127510071Y-61385380D01*
X127748166Y-61385380D01*
X127891023Y-61433000D01*
X128652928Y-61861571D02*
X128795785Y-61909190D01*
X128843404Y-61956809D01*
X128891023Y-62052047D01*
X128891023Y-62194904D01*
X128843404Y-62290142D01*
X128795785Y-62337761D01*
X128700547Y-62385380D01*
X128319595Y-62385380D01*
X128319595Y-61385380D01*
X128652928Y-61385380D01*
X128748166Y-61433000D01*
X128795785Y-61480619D01*
X128843404Y-61575857D01*
X128843404Y-61671095D01*
X128795785Y-61766333D01*
X128748166Y-61813952D01*
X128652928Y-61861571D01*
X128319595Y-61861571D01*
X130081500Y-62385380D02*
X130081500Y-61385380D01*
X130081500Y-61861571D02*
X130652928Y-61861571D01*
X130652928Y-62385380D02*
X130652928Y-61385380D01*
X131129119Y-62385380D02*
X131129119Y-61385380D01*
X131605309Y-62385380D02*
X131605309Y-61385380D01*
X131843404Y-61385380D01*
X131986261Y-61433000D01*
X132081500Y-61528238D01*
X132129119Y-61623476D01*
X132176738Y-61813952D01*
X132176738Y-61956809D01*
X132129119Y-62147285D01*
X132081500Y-62242523D01*
X131986261Y-62337761D01*
X131843404Y-62385380D01*
X131605309Y-62385380D01*
X133938642Y-62290142D02*
X133891023Y-62337761D01*
X133748166Y-62385380D01*
X133652928Y-62385380D01*
X133510071Y-62337761D01*
X133414833Y-62242523D01*
X133367214Y-62147285D01*
X133319595Y-61956809D01*
X133319595Y-61813952D01*
X133367214Y-61623476D01*
X133414833Y-61528238D01*
X133510071Y-61433000D01*
X133652928Y-61385380D01*
X133748166Y-61385380D01*
X133891023Y-61433000D01*
X133938642Y-61480619D01*
X134510071Y-62385380D02*
X134414833Y-62337761D01*
X134367214Y-62290142D01*
X134319595Y-62194904D01*
X134319595Y-61909190D01*
X134367214Y-61813952D01*
X134414833Y-61766333D01*
X134510071Y-61718714D01*
X134652928Y-61718714D01*
X134748166Y-61766333D01*
X134795785Y-61813952D01*
X134843404Y-61909190D01*
X134843404Y-62194904D01*
X134795785Y-62290142D01*
X134748166Y-62337761D01*
X134652928Y-62385380D01*
X134510071Y-62385380D01*
X135271976Y-61718714D02*
X135271976Y-62385380D01*
X135271976Y-61813952D02*
X135319595Y-61766333D01*
X135414833Y-61718714D01*
X135557690Y-61718714D01*
X135652928Y-61766333D01*
X135700547Y-61861571D01*
X135700547Y-62385380D01*
X136176738Y-61718714D02*
X136176738Y-62385380D01*
X136176738Y-61813952D02*
X136224357Y-61766333D01*
X136319595Y-61718714D01*
X136462452Y-61718714D01*
X136557690Y-61766333D01*
X136605309Y-61861571D01*
X136605309Y-62385380D01*
X137462452Y-62337761D02*
X137367214Y-62385380D01*
X137176738Y-62385380D01*
X137081500Y-62337761D01*
X137033880Y-62242523D01*
X137033880Y-61861571D01*
X137081500Y-61766333D01*
X137176738Y-61718714D01*
X137367214Y-61718714D01*
X137462452Y-61766333D01*
X137510071Y-61861571D01*
X137510071Y-61956809D01*
X137033880Y-62052047D01*
X138367214Y-62337761D02*
X138271976Y-62385380D01*
X138081500Y-62385380D01*
X137986261Y-62337761D01*
X137938642Y-62290142D01*
X137891023Y-62194904D01*
X137891023Y-61909190D01*
X137938642Y-61813952D01*
X137986261Y-61766333D01*
X138081500Y-61718714D01*
X138271976Y-61718714D01*
X138367214Y-61766333D01*
X138652928Y-61718714D02*
X139033880Y-61718714D01*
X138795785Y-61385380D02*
X138795785Y-62242523D01*
X138843404Y-62337761D01*
X138938642Y-62385380D01*
X139033880Y-62385380D01*
X139510071Y-62385380D02*
X139414833Y-62337761D01*
X139367214Y-62290142D01*
X139319595Y-62194904D01*
X139319595Y-61909190D01*
X139367214Y-61813952D01*
X139414833Y-61766333D01*
X139510071Y-61718714D01*
X139652928Y-61718714D01*
X139748166Y-61766333D01*
X139795785Y-61813952D01*
X139843404Y-61909190D01*
X139843404Y-62194904D01*
X139795785Y-62290142D01*
X139748166Y-62337761D01*
X139652928Y-62385380D01*
X139510071Y-62385380D01*
X140271976Y-62385380D02*
X140271976Y-61718714D01*
X140271976Y-61909190D02*
X140319595Y-61813952D01*
X140367214Y-61766333D01*
X140462452Y-61718714D01*
X140557690Y-61718714D01*
X141986261Y-61861571D02*
X142129119Y-61909190D01*
X142176738Y-61956809D01*
X142224357Y-62052047D01*
X142224357Y-62194904D01*
X142176738Y-62290142D01*
X142129119Y-62337761D01*
X142033880Y-62385380D01*
X141652928Y-62385380D01*
X141652928Y-61385380D01*
X141986261Y-61385380D01*
X142081500Y-61433000D01*
X142129119Y-61480619D01*
X142176738Y-61575857D01*
X142176738Y-61671095D01*
X142129119Y-61766333D01*
X142081500Y-61813952D01*
X141986261Y-61861571D01*
X141652928Y-61861571D01*
X142795785Y-62385380D02*
X142700547Y-62337761D01*
X142652928Y-62290142D01*
X142605309Y-62194904D01*
X142605309Y-61909190D01*
X142652928Y-61813952D01*
X142700547Y-61766333D01*
X142795785Y-61718714D01*
X142938642Y-61718714D01*
X143033880Y-61766333D01*
X143081500Y-61813952D01*
X143129119Y-61909190D01*
X143129119Y-62194904D01*
X143081500Y-62290142D01*
X143033880Y-62337761D01*
X142938642Y-62385380D01*
X142795785Y-62385380D01*
X143986261Y-62385380D02*
X143986261Y-61861571D01*
X143938642Y-61766333D01*
X143843404Y-61718714D01*
X143652928Y-61718714D01*
X143557690Y-61766333D01*
X143986261Y-62337761D02*
X143891023Y-62385380D01*
X143652928Y-62385380D01*
X143557690Y-62337761D01*
X143510071Y-62242523D01*
X143510071Y-62147285D01*
X143557690Y-62052047D01*
X143652928Y-62004428D01*
X143891023Y-62004428D01*
X143986261Y-61956809D01*
X144462452Y-62385380D02*
X144462452Y-61718714D01*
X144462452Y-61909190D02*
X144510071Y-61813952D01*
X144557690Y-61766333D01*
X144652928Y-61718714D01*
X144748166Y-61718714D01*
X145510071Y-62385380D02*
X145510071Y-61385380D01*
X145510071Y-62337761D02*
X145414833Y-62385380D01*
X145224357Y-62385380D01*
X145129119Y-62337761D01*
X145081500Y-62290142D01*
X145033880Y-62194904D01*
X145033880Y-61909190D01*
X145081500Y-61813952D01*
X145129119Y-61766333D01*
X145224357Y-61718714D01*
X145414833Y-61718714D01*
X145510071Y-61766333D01*
X146748166Y-62004428D02*
X147510071Y-62004428D01*
X149319595Y-62385380D02*
X148986261Y-61909190D01*
X148748166Y-62385380D02*
X148748166Y-61385380D01*
X149129119Y-61385380D01*
X149224357Y-61433000D01*
X149271976Y-61480619D01*
X149319595Y-61575857D01*
X149319595Y-61718714D01*
X149271976Y-61813952D01*
X149224357Y-61861571D01*
X149129119Y-61909190D01*
X148748166Y-61909190D01*
X150129119Y-62337761D02*
X150033880Y-62385380D01*
X149843404Y-62385380D01*
X149748166Y-62337761D01*
X149700547Y-62242523D01*
X149700547Y-61861571D01*
X149748166Y-61766333D01*
X149843404Y-61718714D01*
X150033880Y-61718714D01*
X150129119Y-61766333D01*
X150176738Y-61861571D01*
X150176738Y-61956809D01*
X149700547Y-62052047D01*
X150510071Y-61718714D02*
X150748166Y-62385380D01*
X150986261Y-61718714D01*
X152652928Y-62385380D02*
X152081500Y-62385380D01*
X152367214Y-62385380D02*
X152367214Y-61385380D01*
X152271976Y-61528238D01*
X152176738Y-61623476D01*
X152081500Y-61671095D01*
X153843404Y-62004428D02*
X154605309Y-62004428D01*
X155795785Y-61480619D02*
X155843404Y-61433000D01*
X155938642Y-61385380D01*
X156176738Y-61385380D01*
X156271976Y-61433000D01*
X156319595Y-61480619D01*
X156367214Y-61575857D01*
X156367214Y-61671095D01*
X156319595Y-61813952D01*
X155748166Y-62385380D01*
X156367214Y-62385380D01*
X156986261Y-61385380D02*
X157081500Y-61385380D01*
X157176738Y-61433000D01*
X157224357Y-61480619D01*
X157271976Y-61575857D01*
X157319595Y-61766333D01*
X157319595Y-62004428D01*
X157271976Y-62194904D01*
X157224357Y-62290142D01*
X157176738Y-62337761D01*
X157081500Y-62385380D01*
X156986261Y-62385380D01*
X156891023Y-62337761D01*
X156843404Y-62290142D01*
X156795785Y-62194904D01*
X156748166Y-62004428D01*
X156748166Y-61766333D01*
X156795785Y-61575857D01*
X156843404Y-61480619D01*
X156891023Y-61433000D01*
X156986261Y-61385380D01*
X157700547Y-61480619D02*
X157748166Y-61433000D01*
X157843404Y-61385380D01*
X158081500Y-61385380D01*
X158176738Y-61433000D01*
X158224357Y-61480619D01*
X158271976Y-61575857D01*
X158271976Y-61671095D01*
X158224357Y-61813952D01*
X157652928Y-62385380D01*
X158271976Y-62385380D01*
X158652928Y-61480619D02*
X158700547Y-61433000D01*
X158795785Y-61385380D01*
X159033880Y-61385380D01*
X159129119Y-61433000D01*
X159176738Y-61480619D01*
X159224357Y-61575857D01*
X159224357Y-61671095D01*
X159176738Y-61813952D01*
X158605309Y-62385380D01*
X159224357Y-62385380D01*
X126271976Y-63709666D02*
X126748166Y-63709666D01*
X126176738Y-63995380D02*
X126510071Y-62995380D01*
X126843404Y-63995380D01*
X127176738Y-63328714D02*
X127176738Y-63995380D01*
X127176738Y-63423952D02*
X127224357Y-63376333D01*
X127319595Y-63328714D01*
X127462452Y-63328714D01*
X127557690Y-63376333D01*
X127605309Y-63471571D01*
X127605309Y-63995380D01*
X128510071Y-63995380D02*
X128510071Y-62995380D01*
X128510071Y-63947761D02*
X128414833Y-63995380D01*
X128224357Y-63995380D01*
X128129119Y-63947761D01*
X128081500Y-63900142D01*
X128033880Y-63804904D01*
X128033880Y-63519190D01*
X128081500Y-63423952D01*
X128129119Y-63376333D01*
X128224357Y-63328714D01*
X128414833Y-63328714D01*
X128510071Y-63376333D01*
X129367214Y-63947761D02*
X129271976Y-63995380D01*
X129081500Y-63995380D01*
X128986261Y-63947761D01*
X128938642Y-63852523D01*
X128938642Y-63471571D01*
X128986261Y-63376333D01*
X129081500Y-63328714D01*
X129271976Y-63328714D01*
X129367214Y-63376333D01*
X129414833Y-63471571D01*
X129414833Y-63566809D01*
X128938642Y-63662047D01*
X129843404Y-63995380D02*
X129843404Y-63328714D01*
X129843404Y-63519190D02*
X129891023Y-63423952D01*
X129938642Y-63376333D01*
X130033880Y-63328714D01*
X130129119Y-63328714D01*
X130414833Y-63947761D02*
X130510071Y-63995380D01*
X130700547Y-63995380D01*
X130795785Y-63947761D01*
X130843404Y-63852523D01*
X130843404Y-63804904D01*
X130795785Y-63709666D01*
X130700547Y-63662047D01*
X130557690Y-63662047D01*
X130462452Y-63614428D01*
X130414833Y-63519190D01*
X130414833Y-63471571D01*
X130462452Y-63376333D01*
X130557690Y-63328714D01*
X130700547Y-63328714D01*
X130795785Y-63376333D01*
X132033880Y-63995380D02*
X132033880Y-62995380D01*
X132414833Y-62995380D01*
X132510071Y-63043000D01*
X132557690Y-63090619D01*
X132605309Y-63185857D01*
X132605309Y-63328714D01*
X132557690Y-63423952D01*
X132510071Y-63471571D01*
X132414833Y-63519190D01*
X132033880Y-63519190D01*
X133033880Y-63995380D02*
X133033880Y-63328714D01*
X133033880Y-62995380D02*
X132986261Y-63043000D01*
X133033880Y-63090619D01*
X133081500Y-63043000D01*
X133033880Y-62995380D01*
X133033880Y-63090619D01*
X133462452Y-63947761D02*
X133557690Y-63995380D01*
X133748166Y-63995380D01*
X133843404Y-63947761D01*
X133891023Y-63852523D01*
X133891023Y-63804904D01*
X133843404Y-63709666D01*
X133748166Y-63662047D01*
X133605309Y-63662047D01*
X133510071Y-63614428D01*
X133462452Y-63519190D01*
X133462452Y-63471571D01*
X133510071Y-63376333D01*
X133605309Y-63328714D01*
X133748166Y-63328714D01*
X133843404Y-63376333D01*
X134176738Y-63328714D02*
X134557690Y-63328714D01*
X134319595Y-62995380D02*
X134319595Y-63852523D01*
X134367214Y-63947761D01*
X134462452Y-63995380D01*
X134557690Y-63995380D01*
X135033880Y-63995380D02*
X134938642Y-63947761D01*
X134891023Y-63900142D01*
X134843404Y-63804904D01*
X134843404Y-63519190D01*
X134891023Y-63423952D01*
X134938642Y-63376333D01*
X135033880Y-63328714D01*
X135176738Y-63328714D01*
X135271976Y-63376333D01*
X135319595Y-63423952D01*
X135367214Y-63519190D01*
X135367214Y-63804904D01*
X135319595Y-63900142D01*
X135271976Y-63947761D01*
X135176738Y-63995380D01*
X135033880Y-63995380D01*
X135938642Y-63995380D02*
X135843404Y-63947761D01*
X135795785Y-63852523D01*
X135795785Y-62995380D01*
X70826380Y-67117261D02*
X70826380Y-66545833D01*
X71826380Y-66831547D02*
X70826380Y-66831547D01*
X70826380Y-66307738D02*
X71826380Y-65641071D01*
X70826380Y-65641071D02*
X71826380Y-66307738D01*
%TO.C,U1*%
X85138095Y-71156980D02*
X85138095Y-71966504D01*
X85185714Y-72061742D01*
X85233333Y-72109361D01*
X85328571Y-72156980D01*
X85519047Y-72156980D01*
X85614285Y-72109361D01*
X85661904Y-72061742D01*
X85709523Y-71966504D01*
X85709523Y-71156980D01*
X86709523Y-72156980D02*
X86138095Y-72156980D01*
X86423809Y-72156980D02*
X86423809Y-71156980D01*
X86328571Y-71299838D01*
X86233333Y-71395076D01*
X86138095Y-71442695D01*
%TO.C,J6*%
X160266328Y-86151824D02*
X160266328Y-86866836D01*
X160218660Y-87009838D01*
X160123325Y-87105173D01*
X159980323Y-87152840D01*
X159884988Y-87152840D01*
X161172009Y-86151824D02*
X160981339Y-86151824D01*
X160886004Y-86199492D01*
X160838337Y-86247159D01*
X160743002Y-86390161D01*
X160695334Y-86580831D01*
X160695334Y-86962170D01*
X160743002Y-87057505D01*
X160790669Y-87105173D01*
X160886004Y-87152840D01*
X161076674Y-87152840D01*
X161172009Y-87105173D01*
X161219676Y-87057505D01*
X161267344Y-86962170D01*
X161267344Y-86723833D01*
X161219676Y-86628498D01*
X161172009Y-86580831D01*
X161076674Y-86533164D01*
X160886004Y-86533164D01*
X160790669Y-86580831D01*
X160743002Y-86628498D01*
X160695334Y-86723833D01*
%TO.C,J2*%
X116566328Y-86151824D02*
X116566328Y-86866836D01*
X116518660Y-87009838D01*
X116423325Y-87105173D01*
X116280323Y-87152840D01*
X116184988Y-87152840D01*
X116995334Y-86247159D02*
X117043002Y-86199492D01*
X117138337Y-86151824D01*
X117376674Y-86151824D01*
X117472009Y-86199492D01*
X117519676Y-86247159D01*
X117567344Y-86342494D01*
X117567344Y-86437829D01*
X117519676Y-86580831D01*
X116947667Y-87152840D01*
X117567344Y-87152840D01*
%TO.C,J1*%
X138366328Y-86151824D02*
X138366328Y-86866836D01*
X138318660Y-87009838D01*
X138223325Y-87105173D01*
X138080323Y-87152840D01*
X137984988Y-87152840D01*
X139367344Y-87152840D02*
X138795334Y-87152840D01*
X139081339Y-87152840D02*
X139081339Y-86151824D01*
X138986004Y-86294826D01*
X138890669Y-86390161D01*
X138795334Y-86437829D01*
%TO.C,J5*%
X69830666Y-72356380D02*
X69830666Y-73070666D01*
X69783047Y-73213523D01*
X69687809Y-73308761D01*
X69544952Y-73356380D01*
X69449714Y-73356380D01*
X70783047Y-72356380D02*
X70306857Y-72356380D01*
X70259238Y-72832571D01*
X70306857Y-72784952D01*
X70402095Y-72737333D01*
X70640190Y-72737333D01*
X70735428Y-72784952D01*
X70783047Y-72832571D01*
X70830666Y-72927809D01*
X70830666Y-73165904D01*
X70783047Y-73261142D01*
X70735428Y-73308761D01*
X70640190Y-73356380D01*
X70402095Y-73356380D01*
X70306857Y-73308761D01*
X70259238Y-73261142D01*
%TO.C,U6*%
X130764880Y-85558304D02*
X131574404Y-85558304D01*
X131669642Y-85510685D01*
X131717261Y-85463066D01*
X131764880Y-85367828D01*
X131764880Y-85177352D01*
X131717261Y-85082114D01*
X131669642Y-85034495D01*
X131574404Y-84986876D01*
X130764880Y-84986876D01*
X130764880Y-84082114D02*
X130764880Y-84272590D01*
X130812500Y-84367828D01*
X130860119Y-84415447D01*
X131002976Y-84510685D01*
X131193452Y-84558304D01*
X131574404Y-84558304D01*
X131669642Y-84510685D01*
X131717261Y-84463066D01*
X131764880Y-84367828D01*
X131764880Y-84177352D01*
X131717261Y-84082114D01*
X131669642Y-84034495D01*
X131574404Y-83986876D01*
X131336309Y-83986876D01*
X131241071Y-84034495D01*
X131193452Y-84082114D01*
X131145833Y-84177352D01*
X131145833Y-84367828D01*
X131193452Y-84463066D01*
X131241071Y-84510685D01*
X131336309Y-84558304D01*
%TO.C,R4*%
X111990533Y-72321680D02*
X111657200Y-71845490D01*
X111419104Y-72321680D02*
X111419104Y-71321680D01*
X111800057Y-71321680D01*
X111895295Y-71369300D01*
X111942914Y-71416919D01*
X111990533Y-71512157D01*
X111990533Y-71655014D01*
X111942914Y-71750252D01*
X111895295Y-71797871D01*
X111800057Y-71845490D01*
X111419104Y-71845490D01*
X112847676Y-71655014D02*
X112847676Y-72321680D01*
X112609580Y-71274061D02*
X112371485Y-71988347D01*
X112990533Y-71988347D01*
%TO.C,C1*%
X82509631Y-86958466D02*
X82557250Y-87006085D01*
X82604869Y-87148942D01*
X82604869Y-87244180D01*
X82557250Y-87387038D01*
X82462012Y-87482276D01*
X82366774Y-87529895D01*
X82176298Y-87577514D01*
X82033441Y-87577514D01*
X81842965Y-87529895D01*
X81747727Y-87482276D01*
X81652489Y-87387038D01*
X81604869Y-87244180D01*
X81604869Y-87148942D01*
X81652489Y-87006085D01*
X81700108Y-86958466D01*
X82604869Y-86006085D02*
X82604869Y-86577514D01*
X82604869Y-86291800D02*
X81604869Y-86291800D01*
X81747727Y-86387038D01*
X81842965Y-86482276D01*
X81890584Y-86577514D01*
%TO.C,D1*%
X74321204Y-79446380D02*
X74321204Y-78446380D01*
X74559300Y-78446380D01*
X74702157Y-78494000D01*
X74797395Y-78589238D01*
X74845014Y-78684476D01*
X74892633Y-78874952D01*
X74892633Y-79017809D01*
X74845014Y-79208285D01*
X74797395Y-79303523D01*
X74702157Y-79398761D01*
X74559300Y-79446380D01*
X74321204Y-79446380D01*
X75845014Y-79446380D02*
X75273585Y-79446380D01*
X75559300Y-79446380D02*
X75559300Y-78446380D01*
X75464061Y-78589238D01*
X75368823Y-78684476D01*
X75273585Y-78732095D01*
%TO.C,C13*%
X92284514Y-64159228D02*
X92322609Y-64197323D01*
X92360704Y-64311609D01*
X92360704Y-64387800D01*
X92322609Y-64502085D01*
X92246419Y-64578276D01*
X92170228Y-64616371D01*
X92017847Y-64654466D01*
X91903561Y-64654466D01*
X91751180Y-64616371D01*
X91674990Y-64578276D01*
X91598800Y-64502085D01*
X91560704Y-64387800D01*
X91560704Y-64311609D01*
X91598800Y-64197323D01*
X91636895Y-64159228D01*
X92360704Y-63397323D02*
X92360704Y-63854466D01*
X92360704Y-63625895D02*
X91560704Y-63625895D01*
X91674990Y-63702085D01*
X91751180Y-63778276D01*
X91789276Y-63854466D01*
X91560704Y-63130657D02*
X91560704Y-62635419D01*
X91865466Y-62902085D01*
X91865466Y-62787800D01*
X91903561Y-62711609D01*
X91941657Y-62673514D01*
X92017847Y-62635419D01*
X92208323Y-62635419D01*
X92284514Y-62673514D01*
X92322609Y-62711609D01*
X92360704Y-62787800D01*
X92360704Y-63016371D01*
X92322609Y-63092562D01*
X92284514Y-63130657D01*
%TO.C,Y1*%
X88585098Y-94616590D02*
X88585098Y-95092780D01*
X88251765Y-94092780D02*
X88585098Y-94616590D01*
X88918431Y-94092780D01*
X89775574Y-95092780D02*
X89204146Y-95092780D01*
X89489860Y-95092780D02*
X89489860Y-94092780D01*
X89394622Y-94235638D01*
X89299384Y-94330876D01*
X89204146Y-94378495D01*
%TO.C,C4*%
X96223733Y-78875999D02*
X96176114Y-78923618D01*
X96033257Y-78971237D01*
X95938019Y-78971237D01*
X95795161Y-78923618D01*
X95699923Y-78828380D01*
X95652304Y-78733142D01*
X95604685Y-78542666D01*
X95604685Y-78399809D01*
X95652304Y-78209333D01*
X95699923Y-78114095D01*
X95795161Y-78018857D01*
X95938019Y-77971237D01*
X96033257Y-77971237D01*
X96176114Y-78018857D01*
X96223733Y-78066476D01*
X97080876Y-78304571D02*
X97080876Y-78971237D01*
X96842780Y-77923618D02*
X96604685Y-78637904D01*
X97223733Y-78637904D01*
%TO.C,TP1*%
X61526895Y-92546380D02*
X62098323Y-92546380D01*
X61812609Y-93546380D02*
X61812609Y-92546380D01*
X62431657Y-93546380D02*
X62431657Y-92546380D01*
X62812609Y-92546380D01*
X62907847Y-92594000D01*
X62955466Y-92641619D01*
X63003085Y-92736857D01*
X63003085Y-92879714D01*
X62955466Y-92974952D01*
X62907847Y-93022571D01*
X62812609Y-93070190D01*
X62431657Y-93070190D01*
X63955466Y-93546380D02*
X63384038Y-93546380D01*
X63669752Y-93546380D02*
X63669752Y-92546380D01*
X63574514Y-92689238D01*
X63479276Y-92784476D01*
X63384038Y-92832095D01*
%TO.C,C6*%
X93300514Y-64141333D02*
X93338609Y-64179428D01*
X93376704Y-64293714D01*
X93376704Y-64369904D01*
X93338609Y-64484190D01*
X93262419Y-64560380D01*
X93186228Y-64598476D01*
X93033847Y-64636571D01*
X92919561Y-64636571D01*
X92767180Y-64598476D01*
X92690990Y-64560380D01*
X92614800Y-64484190D01*
X92576704Y-64369904D01*
X92576704Y-64293714D01*
X92614800Y-64179428D01*
X92652895Y-64141333D01*
X92576704Y-63455619D02*
X92576704Y-63608000D01*
X92614800Y-63684190D01*
X92652895Y-63722285D01*
X92767180Y-63798476D01*
X92919561Y-63836571D01*
X93224323Y-63836571D01*
X93300514Y-63798476D01*
X93338609Y-63760380D01*
X93376704Y-63684190D01*
X93376704Y-63531809D01*
X93338609Y-63455619D01*
X93300514Y-63417523D01*
X93224323Y-63379428D01*
X93033847Y-63379428D01*
X92957657Y-63417523D01*
X92919561Y-63455619D01*
X92881466Y-63531809D01*
X92881466Y-63684190D01*
X92919561Y-63760380D01*
X92957657Y-63798476D01*
X93033847Y-63836571D01*
%TO.C,U2*%
X103394295Y-81234880D02*
X103394295Y-82044404D01*
X103441914Y-82139642D01*
X103489533Y-82187261D01*
X103584771Y-82234880D01*
X103775247Y-82234880D01*
X103870485Y-82187261D01*
X103918104Y-82139642D01*
X103965723Y-82044404D01*
X103965723Y-81234880D01*
X104394295Y-81330119D02*
X104441914Y-81282500D01*
X104537152Y-81234880D01*
X104775247Y-81234880D01*
X104870485Y-81282500D01*
X104918104Y-81330119D01*
X104965723Y-81425357D01*
X104965723Y-81520595D01*
X104918104Y-81663452D01*
X104346676Y-82234880D01*
X104965723Y-82234880D01*
%TO.C,C15*%
X52443142Y-72391542D02*
X52395523Y-72439161D01*
X52252666Y-72486780D01*
X52157428Y-72486780D01*
X52014571Y-72439161D01*
X51919333Y-72343923D01*
X51871714Y-72248685D01*
X51824095Y-72058209D01*
X51824095Y-71915352D01*
X51871714Y-71724876D01*
X51919333Y-71629638D01*
X52014571Y-71534400D01*
X52157428Y-71486780D01*
X52252666Y-71486780D01*
X52395523Y-71534400D01*
X52443142Y-71582019D01*
X53395523Y-72486780D02*
X52824095Y-72486780D01*
X53109809Y-72486780D02*
X53109809Y-71486780D01*
X53014571Y-71629638D01*
X52919333Y-71724876D01*
X52824095Y-71772495D01*
X54300285Y-71486780D02*
X53824095Y-71486780D01*
X53776476Y-71962971D01*
X53824095Y-71915352D01*
X53919333Y-71867733D01*
X54157428Y-71867733D01*
X54252666Y-71915352D01*
X54300285Y-71962971D01*
X54347904Y-72058209D01*
X54347904Y-72296304D01*
X54300285Y-72391542D01*
X54252666Y-72439161D01*
X54157428Y-72486780D01*
X53919333Y-72486780D01*
X53824095Y-72439161D01*
X53776476Y-72391542D01*
%TO.C,R12*%
X103395542Y-68625980D02*
X103062209Y-68149790D01*
X102824114Y-68625980D02*
X102824114Y-67625980D01*
X103205066Y-67625980D01*
X103300304Y-67673600D01*
X103347923Y-67721219D01*
X103395542Y-67816457D01*
X103395542Y-67959314D01*
X103347923Y-68054552D01*
X103300304Y-68102171D01*
X103205066Y-68149790D01*
X102824114Y-68149790D01*
X104347923Y-68625980D02*
X103776495Y-68625980D01*
X104062209Y-68625980D02*
X104062209Y-67625980D01*
X103966971Y-67768838D01*
X103871733Y-67864076D01*
X103776495Y-67911695D01*
X104728876Y-67721219D02*
X104776495Y-67673600D01*
X104871733Y-67625980D01*
X105109828Y-67625980D01*
X105205066Y-67673600D01*
X105252685Y-67721219D01*
X105300304Y-67816457D01*
X105300304Y-67911695D01*
X105252685Y-68054552D01*
X104681257Y-68625980D01*
X105300304Y-68625980D01*
%TO.C,R9*%
X111990533Y-79281280D02*
X111657200Y-78805090D01*
X111419104Y-79281280D02*
X111419104Y-78281280D01*
X111800057Y-78281280D01*
X111895295Y-78328900D01*
X111942914Y-78376519D01*
X111990533Y-78471757D01*
X111990533Y-78614614D01*
X111942914Y-78709852D01*
X111895295Y-78757471D01*
X111800057Y-78805090D01*
X111419104Y-78805090D01*
X112466723Y-79281280D02*
X112657200Y-79281280D01*
X112752438Y-79233661D01*
X112800057Y-79186042D01*
X112895295Y-79043185D01*
X112942914Y-78852709D01*
X112942914Y-78471757D01*
X112895295Y-78376519D01*
X112847676Y-78328900D01*
X112752438Y-78281280D01*
X112561961Y-78281280D01*
X112466723Y-78328900D01*
X112419104Y-78376519D01*
X112371485Y-78471757D01*
X112371485Y-78709852D01*
X112419104Y-78805090D01*
X112466723Y-78852709D01*
X112561961Y-78900328D01*
X112752438Y-78900328D01*
X112847676Y-78852709D01*
X112895295Y-78805090D01*
X112942914Y-78709852D01*
%TO.C,R2*%
X90638333Y-69278923D02*
X90305000Y-68802733D01*
X90066904Y-69278923D02*
X90066904Y-68278923D01*
X90447857Y-68278923D01*
X90543095Y-68326543D01*
X90590714Y-68374162D01*
X90638333Y-68469400D01*
X90638333Y-68612257D01*
X90590714Y-68707495D01*
X90543095Y-68755114D01*
X90447857Y-68802733D01*
X90066904Y-68802733D01*
X91019285Y-68374162D02*
X91066904Y-68326543D01*
X91162142Y-68278923D01*
X91400238Y-68278923D01*
X91495476Y-68326543D01*
X91543095Y-68374162D01*
X91590714Y-68469400D01*
X91590714Y-68564638D01*
X91543095Y-68707495D01*
X90971666Y-69278923D01*
X91590714Y-69278923D01*
%TO.C,C2*%
X95641431Y-87009266D02*
X95689050Y-87056885D01*
X95736669Y-87199742D01*
X95736669Y-87294980D01*
X95689050Y-87437838D01*
X95593812Y-87533076D01*
X95498574Y-87580695D01*
X95308098Y-87628314D01*
X95165241Y-87628314D01*
X94974765Y-87580695D01*
X94879527Y-87533076D01*
X94784289Y-87437838D01*
X94736669Y-87294980D01*
X94736669Y-87199742D01*
X94784289Y-87056885D01*
X94831908Y-87009266D01*
X94831908Y-86628314D02*
X94784289Y-86580695D01*
X94736669Y-86485457D01*
X94736669Y-86247361D01*
X94784289Y-86152123D01*
X94831908Y-86104504D01*
X94927146Y-86056885D01*
X95022384Y-86056885D01*
X95165241Y-86104504D01*
X95736669Y-86675933D01*
X95736669Y-86056885D01*
%TO.C,H4*%
X172974095Y-65476380D02*
X172974095Y-64476380D01*
X172974095Y-64952571D02*
X173545523Y-64952571D01*
X173545523Y-65476380D02*
X173545523Y-64476380D01*
X174450285Y-64809714D02*
X174450285Y-65476380D01*
X174212190Y-64428761D02*
X173974095Y-65143047D01*
X174593142Y-65143047D01*
%TO.C,C8*%
X81011733Y-74466885D02*
X80964114Y-74514504D01*
X80821257Y-74562123D01*
X80726019Y-74562123D01*
X80583161Y-74514504D01*
X80487923Y-74419266D01*
X80440304Y-74324028D01*
X80392685Y-74133552D01*
X80392685Y-73990695D01*
X80440304Y-73800219D01*
X80487923Y-73704981D01*
X80583161Y-73609743D01*
X80726019Y-73562123D01*
X80821257Y-73562123D01*
X80964114Y-73609743D01*
X81011733Y-73657362D01*
X81583161Y-73990695D02*
X81487923Y-73943076D01*
X81440304Y-73895457D01*
X81392685Y-73800219D01*
X81392685Y-73752600D01*
X81440304Y-73657362D01*
X81487923Y-73609743D01*
X81583161Y-73562123D01*
X81773638Y-73562123D01*
X81868876Y-73609743D01*
X81916495Y-73657362D01*
X81964114Y-73752600D01*
X81964114Y-73800219D01*
X81916495Y-73895457D01*
X81868876Y-73943076D01*
X81773638Y-73990695D01*
X81583161Y-73990695D01*
X81487923Y-74038314D01*
X81440304Y-74085933D01*
X81392685Y-74181171D01*
X81392685Y-74371647D01*
X81440304Y-74466885D01*
X81487923Y-74514504D01*
X81583161Y-74562123D01*
X81773638Y-74562123D01*
X81868876Y-74514504D01*
X81916495Y-74466885D01*
X81964114Y-74371647D01*
X81964114Y-74181171D01*
X81916495Y-74085933D01*
X81868876Y-74038314D01*
X81773638Y-73990695D01*
%TO.C,C10*%
X85794914Y-82835714D02*
X85756819Y-82873809D01*
X85642533Y-82911904D01*
X85566342Y-82911904D01*
X85452057Y-82873809D01*
X85375866Y-82797619D01*
X85337771Y-82721428D01*
X85299676Y-82569047D01*
X85299676Y-82454761D01*
X85337771Y-82302380D01*
X85375866Y-82226190D01*
X85452057Y-82150000D01*
X85566342Y-82111904D01*
X85642533Y-82111904D01*
X85756819Y-82150000D01*
X85794914Y-82188095D01*
X86556819Y-82911904D02*
X86099676Y-82911904D01*
X86328247Y-82911904D02*
X86328247Y-82111904D01*
X86252057Y-82226190D01*
X86175866Y-82302380D01*
X86099676Y-82340476D01*
X87052057Y-82111904D02*
X87128247Y-82111904D01*
X87204438Y-82150000D01*
X87242533Y-82188095D01*
X87280628Y-82264285D01*
X87318723Y-82416666D01*
X87318723Y-82607142D01*
X87280628Y-82759523D01*
X87242533Y-82835714D01*
X87204438Y-82873809D01*
X87128247Y-82911904D01*
X87052057Y-82911904D01*
X86975866Y-82873809D01*
X86937771Y-82835714D01*
X86899676Y-82759523D01*
X86861580Y-82607142D01*
X86861580Y-82416666D01*
X86899676Y-82264285D01*
X86937771Y-82188095D01*
X86975866Y-82150000D01*
X87052057Y-82111904D01*
%TO.C,C14*%
X91252003Y-64159228D02*
X91290098Y-64197323D01*
X91328193Y-64311609D01*
X91328193Y-64387800D01*
X91290098Y-64502085D01*
X91213908Y-64578276D01*
X91137717Y-64616371D01*
X90985336Y-64654466D01*
X90871050Y-64654466D01*
X90718669Y-64616371D01*
X90642479Y-64578276D01*
X90566289Y-64502085D01*
X90528193Y-64387800D01*
X90528193Y-64311609D01*
X90566289Y-64197323D01*
X90604384Y-64159228D01*
X91328193Y-63397323D02*
X91328193Y-63854466D01*
X91328193Y-63625895D02*
X90528193Y-63625895D01*
X90642479Y-63702085D01*
X90718669Y-63778276D01*
X90756765Y-63854466D01*
X90794860Y-62711609D02*
X91328193Y-62711609D01*
X90490098Y-62902085D02*
X91061527Y-63092562D01*
X91061527Y-62597323D01*
%TO.C,R5*%
X111990533Y-73591680D02*
X111657200Y-73115490D01*
X111419104Y-73591680D02*
X111419104Y-72591680D01*
X111800057Y-72591680D01*
X111895295Y-72639300D01*
X111942914Y-72686919D01*
X111990533Y-72782157D01*
X111990533Y-72925014D01*
X111942914Y-73020252D01*
X111895295Y-73067871D01*
X111800057Y-73115490D01*
X111419104Y-73115490D01*
X112895295Y-72591680D02*
X112419104Y-72591680D01*
X112371485Y-73067871D01*
X112419104Y-73020252D01*
X112514342Y-72972633D01*
X112752438Y-72972633D01*
X112847676Y-73020252D01*
X112895295Y-73067871D01*
X112942914Y-73163109D01*
X112942914Y-73401204D01*
X112895295Y-73496442D01*
X112847676Y-73544061D01*
X112752438Y-73591680D01*
X112514342Y-73591680D01*
X112419104Y-73544061D01*
X112371485Y-73496442D01*
%TO.C,U4*%
X51522380Y-77673104D02*
X52331904Y-77673104D01*
X52427142Y-77625485D01*
X52474761Y-77577866D01*
X52522380Y-77482628D01*
X52522380Y-77292152D01*
X52474761Y-77196914D01*
X52427142Y-77149295D01*
X52331904Y-77101676D01*
X51522380Y-77101676D01*
X51855714Y-76196914D02*
X52522380Y-76196914D01*
X51474761Y-76435009D02*
X52189047Y-76673104D01*
X52189047Y-76054057D01*
%TO.C,C18*%
X113602542Y-66479657D02*
X113650161Y-66527276D01*
X113697780Y-66670133D01*
X113697780Y-66765371D01*
X113650161Y-66908228D01*
X113554923Y-67003466D01*
X113459685Y-67051085D01*
X113269209Y-67098704D01*
X113126352Y-67098704D01*
X112935876Y-67051085D01*
X112840638Y-67003466D01*
X112745400Y-66908228D01*
X112697780Y-66765371D01*
X112697780Y-66670133D01*
X112745400Y-66527276D01*
X112793019Y-66479657D01*
X113697780Y-65527276D02*
X113697780Y-66098704D01*
X113697780Y-65812990D02*
X112697780Y-65812990D01*
X112840638Y-65908228D01*
X112935876Y-66003466D01*
X112983495Y-66098704D01*
X113126352Y-64955847D02*
X113078733Y-65051085D01*
X113031114Y-65098704D01*
X112935876Y-65146323D01*
X112888257Y-65146323D01*
X112793019Y-65098704D01*
X112745400Y-65051085D01*
X112697780Y-64955847D01*
X112697780Y-64765371D01*
X112745400Y-64670133D01*
X112793019Y-64622514D01*
X112888257Y-64574895D01*
X112935876Y-64574895D01*
X113031114Y-64622514D01*
X113078733Y-64670133D01*
X113126352Y-64765371D01*
X113126352Y-64955847D01*
X113173971Y-65051085D01*
X113221590Y-65098704D01*
X113316828Y-65146323D01*
X113507304Y-65146323D01*
X113602542Y-65098704D01*
X113650161Y-65051085D01*
X113697780Y-64955847D01*
X113697780Y-64765371D01*
X113650161Y-64670133D01*
X113602542Y-64622514D01*
X113507304Y-64574895D01*
X113316828Y-64574895D01*
X113221590Y-64622514D01*
X113173971Y-64670133D01*
X113126352Y-64765371D01*
%TO.C,U3*%
X78543980Y-66540447D02*
X79353504Y-66540447D01*
X79448742Y-66492828D01*
X79496361Y-66445209D01*
X79543980Y-66349971D01*
X79543980Y-66159495D01*
X79496361Y-66064257D01*
X79448742Y-66016638D01*
X79353504Y-65969019D01*
X78543980Y-65969019D01*
X78543980Y-65588066D02*
X78543980Y-64969019D01*
X78924933Y-65302352D01*
X78924933Y-65159495D01*
X78972552Y-65064257D01*
X79020171Y-65016638D01*
X79115409Y-64969019D01*
X79353504Y-64969019D01*
X79448742Y-65016638D01*
X79496361Y-65064257D01*
X79543980Y-65159495D01*
X79543980Y-65445209D01*
X79496361Y-65540447D01*
X79448742Y-65588066D01*
%TO.C,R8*%
X111990533Y-78011280D02*
X111657200Y-77535090D01*
X111419104Y-78011280D02*
X111419104Y-77011280D01*
X111800057Y-77011280D01*
X111895295Y-77058900D01*
X111942914Y-77106519D01*
X111990533Y-77201757D01*
X111990533Y-77344614D01*
X111942914Y-77439852D01*
X111895295Y-77487471D01*
X111800057Y-77535090D01*
X111419104Y-77535090D01*
X112561961Y-77439852D02*
X112466723Y-77392233D01*
X112419104Y-77344614D01*
X112371485Y-77249376D01*
X112371485Y-77201757D01*
X112419104Y-77106519D01*
X112466723Y-77058900D01*
X112561961Y-77011280D01*
X112752438Y-77011280D01*
X112847676Y-77058900D01*
X112895295Y-77106519D01*
X112942914Y-77201757D01*
X112942914Y-77249376D01*
X112895295Y-77344614D01*
X112847676Y-77392233D01*
X112752438Y-77439852D01*
X112561961Y-77439852D01*
X112466723Y-77487471D01*
X112419104Y-77535090D01*
X112371485Y-77630328D01*
X112371485Y-77820804D01*
X112419104Y-77916042D01*
X112466723Y-77963661D01*
X112561961Y-78011280D01*
X112752438Y-78011280D01*
X112847676Y-77963661D01*
X112895295Y-77916042D01*
X112942914Y-77820804D01*
X112942914Y-77630328D01*
X112895295Y-77535090D01*
X112847676Y-77487471D01*
X112752438Y-77439852D01*
%TO.C,C23*%
X148521142Y-84431142D02*
X148473523Y-84478761D01*
X148330666Y-84526380D01*
X148235428Y-84526380D01*
X148092571Y-84478761D01*
X147997333Y-84383523D01*
X147949714Y-84288285D01*
X147902095Y-84097809D01*
X147902095Y-83954952D01*
X147949714Y-83764476D01*
X147997333Y-83669238D01*
X148092571Y-83574000D01*
X148235428Y-83526380D01*
X148330666Y-83526380D01*
X148473523Y-83574000D01*
X148521142Y-83621619D01*
X148902095Y-83621619D02*
X148949714Y-83574000D01*
X149044952Y-83526380D01*
X149283047Y-83526380D01*
X149378285Y-83574000D01*
X149425904Y-83621619D01*
X149473523Y-83716857D01*
X149473523Y-83812095D01*
X149425904Y-83954952D01*
X148854476Y-84526380D01*
X149473523Y-84526380D01*
X149806857Y-83526380D02*
X150425904Y-83526380D01*
X150092571Y-83907333D01*
X150235428Y-83907333D01*
X150330666Y-83954952D01*
X150378285Y-84002571D01*
X150425904Y-84097809D01*
X150425904Y-84335904D01*
X150378285Y-84431142D01*
X150330666Y-84478761D01*
X150235428Y-84526380D01*
X149949714Y-84526380D01*
X149854476Y-84478761D01*
X149806857Y-84431142D01*
%TO.C,H2*%
X172974095Y-90124380D02*
X172974095Y-89124380D01*
X172974095Y-89600571D02*
X173545523Y-89600571D01*
X173545523Y-90124380D02*
X173545523Y-89124380D01*
X173974095Y-89219619D02*
X174021714Y-89172000D01*
X174116952Y-89124380D01*
X174355047Y-89124380D01*
X174450285Y-89172000D01*
X174497904Y-89219619D01*
X174545523Y-89314857D01*
X174545523Y-89410095D01*
X174497904Y-89552952D01*
X173926476Y-90124380D01*
X174545523Y-90124380D01*
%TO.C,C3*%
X79918342Y-59900009D02*
X79965961Y-59947628D01*
X80013580Y-60090485D01*
X80013580Y-60185723D01*
X79965961Y-60328581D01*
X79870723Y-60423819D01*
X79775485Y-60471438D01*
X79585009Y-60519057D01*
X79442152Y-60519057D01*
X79251676Y-60471438D01*
X79156438Y-60423819D01*
X79061200Y-60328581D01*
X79013580Y-60185723D01*
X79013580Y-60090485D01*
X79061200Y-59947628D01*
X79108819Y-59900009D01*
X79013580Y-59566676D02*
X79013580Y-58947628D01*
X79394533Y-59280962D01*
X79394533Y-59138104D01*
X79442152Y-59042866D01*
X79489771Y-58995247D01*
X79585009Y-58947628D01*
X79823104Y-58947628D01*
X79918342Y-58995247D01*
X79965961Y-59042866D01*
X80013580Y-59138104D01*
X80013580Y-59423819D01*
X79965961Y-59519057D01*
X79918342Y-59566676D01*
%TO.C,C16*%
X52595542Y-86158342D02*
X52547923Y-86205961D01*
X52405066Y-86253580D01*
X52309828Y-86253580D01*
X52166971Y-86205961D01*
X52071733Y-86110723D01*
X52024114Y-86015485D01*
X51976495Y-85825009D01*
X51976495Y-85682152D01*
X52024114Y-85491676D01*
X52071733Y-85396438D01*
X52166971Y-85301200D01*
X52309828Y-85253580D01*
X52405066Y-85253580D01*
X52547923Y-85301200D01*
X52595542Y-85348819D01*
X53547923Y-86253580D02*
X52976495Y-86253580D01*
X53262209Y-86253580D02*
X53262209Y-85253580D01*
X53166971Y-85396438D01*
X53071733Y-85491676D01*
X52976495Y-85539295D01*
X54405066Y-85253580D02*
X54214590Y-85253580D01*
X54119352Y-85301200D01*
X54071733Y-85348819D01*
X53976495Y-85491676D01*
X53928876Y-85682152D01*
X53928876Y-86063104D01*
X53976495Y-86158342D01*
X54024114Y-86205961D01*
X54119352Y-86253580D01*
X54309828Y-86253580D01*
X54405066Y-86205961D01*
X54452685Y-86158342D01*
X54500304Y-86063104D01*
X54500304Y-85825009D01*
X54452685Y-85729771D01*
X54405066Y-85682152D01*
X54309828Y-85634533D01*
X54119352Y-85634533D01*
X54024114Y-85682152D01*
X53976495Y-85729771D01*
X53928876Y-85825009D01*
%TO.C,C19*%
X98712742Y-81675242D02*
X98665123Y-81722861D01*
X98522266Y-81770480D01*
X98427028Y-81770480D01*
X98284171Y-81722861D01*
X98188933Y-81627623D01*
X98141314Y-81532385D01*
X98093695Y-81341909D01*
X98093695Y-81199052D01*
X98141314Y-81008576D01*
X98188933Y-80913338D01*
X98284171Y-80818100D01*
X98427028Y-80770480D01*
X98522266Y-80770480D01*
X98665123Y-80818100D01*
X98712742Y-80865719D01*
X99665123Y-81770480D02*
X99093695Y-81770480D01*
X99379409Y-81770480D02*
X99379409Y-80770480D01*
X99284171Y-80913338D01*
X99188933Y-81008576D01*
X99093695Y-81056195D01*
X100141314Y-81770480D02*
X100331790Y-81770480D01*
X100427028Y-81722861D01*
X100474647Y-81675242D01*
X100569885Y-81532385D01*
X100617504Y-81341909D01*
X100617504Y-80960957D01*
X100569885Y-80865719D01*
X100522266Y-80818100D01*
X100427028Y-80770480D01*
X100236552Y-80770480D01*
X100141314Y-80818100D01*
X100093695Y-80865719D01*
X100046076Y-80960957D01*
X100046076Y-81199052D01*
X100093695Y-81294290D01*
X100141314Y-81341909D01*
X100236552Y-81389528D01*
X100427028Y-81389528D01*
X100522266Y-81341909D01*
X100569885Y-81294290D01*
X100617504Y-81199052D01*
%TO.C,R6*%
X111990533Y-75115680D02*
X111657200Y-74639490D01*
X111419104Y-75115680D02*
X111419104Y-74115680D01*
X111800057Y-74115680D01*
X111895295Y-74163300D01*
X111942914Y-74210919D01*
X111990533Y-74306157D01*
X111990533Y-74449014D01*
X111942914Y-74544252D01*
X111895295Y-74591871D01*
X111800057Y-74639490D01*
X111419104Y-74639490D01*
X112847676Y-74115680D02*
X112657200Y-74115680D01*
X112561961Y-74163300D01*
X112514342Y-74210919D01*
X112419104Y-74353776D01*
X112371485Y-74544252D01*
X112371485Y-74925204D01*
X112419104Y-75020442D01*
X112466723Y-75068061D01*
X112561961Y-75115680D01*
X112752438Y-75115680D01*
X112847676Y-75068061D01*
X112895295Y-75020442D01*
X112942914Y-74925204D01*
X112942914Y-74687109D01*
X112895295Y-74591871D01*
X112847676Y-74544252D01*
X112752438Y-74496633D01*
X112561961Y-74496633D01*
X112466723Y-74544252D01*
X112419104Y-74591871D01*
X112371485Y-74687109D01*
%TO.C,C20*%
X98687342Y-74732642D02*
X98639723Y-74780261D01*
X98496866Y-74827880D01*
X98401628Y-74827880D01*
X98258771Y-74780261D01*
X98163533Y-74685023D01*
X98115914Y-74589785D01*
X98068295Y-74399309D01*
X98068295Y-74256452D01*
X98115914Y-74065976D01*
X98163533Y-73970738D01*
X98258771Y-73875500D01*
X98401628Y-73827880D01*
X98496866Y-73827880D01*
X98639723Y-73875500D01*
X98687342Y-73923119D01*
X99068295Y-73923119D02*
X99115914Y-73875500D01*
X99211152Y-73827880D01*
X99449247Y-73827880D01*
X99544485Y-73875500D01*
X99592104Y-73923119D01*
X99639723Y-74018357D01*
X99639723Y-74113595D01*
X99592104Y-74256452D01*
X99020676Y-74827880D01*
X99639723Y-74827880D01*
X100258771Y-73827880D02*
X100354009Y-73827880D01*
X100449247Y-73875500D01*
X100496866Y-73923119D01*
X100544485Y-74018357D01*
X100592104Y-74208833D01*
X100592104Y-74446928D01*
X100544485Y-74637404D01*
X100496866Y-74732642D01*
X100449247Y-74780261D01*
X100354009Y-74827880D01*
X100258771Y-74827880D01*
X100163533Y-74780261D01*
X100115914Y-74732642D01*
X100068295Y-74637404D01*
X100020676Y-74446928D01*
X100020676Y-74208833D01*
X100068295Y-74018357D01*
X100115914Y-73923119D01*
X100163533Y-73875500D01*
X100258771Y-73827880D01*
%TO.C,R1*%
X88648555Y-85680504D02*
X88381889Y-85299552D01*
X88191412Y-85680504D02*
X88191412Y-84880504D01*
X88496174Y-84880504D01*
X88572365Y-84918600D01*
X88610460Y-84956695D01*
X88648555Y-85032885D01*
X88648555Y-85147171D01*
X88610460Y-85223361D01*
X88572365Y-85261457D01*
X88496174Y-85299552D01*
X88191412Y-85299552D01*
X89410460Y-85680504D02*
X88953317Y-85680504D01*
X89181889Y-85680504D02*
X89181889Y-84880504D01*
X89105698Y-84994790D01*
X89029508Y-85070980D01*
X88953317Y-85109076D01*
%TO.C,U7*%
X109053380Y-85476404D02*
X109862904Y-85476404D01*
X109958142Y-85428785D01*
X110005761Y-85381166D01*
X110053380Y-85285928D01*
X110053380Y-85095452D01*
X110005761Y-85000214D01*
X109958142Y-84952595D01*
X109862904Y-84904976D01*
X109053380Y-84904976D01*
X109053380Y-84524023D02*
X109053380Y-83857357D01*
X110053380Y-84285928D01*
%TO.C,C5*%
X96251733Y-75185542D02*
X96204114Y-75233161D01*
X96061257Y-75280780D01*
X95966019Y-75280780D01*
X95823161Y-75233161D01*
X95727923Y-75137923D01*
X95680304Y-75042685D01*
X95632685Y-74852209D01*
X95632685Y-74709352D01*
X95680304Y-74518876D01*
X95727923Y-74423638D01*
X95823161Y-74328400D01*
X95966019Y-74280780D01*
X96061257Y-74280780D01*
X96204114Y-74328400D01*
X96251733Y-74376019D01*
X97156495Y-74280780D02*
X96680304Y-74280780D01*
X96632685Y-74756971D01*
X96680304Y-74709352D01*
X96775542Y-74661733D01*
X97013638Y-74661733D01*
X97108876Y-74709352D01*
X97156495Y-74756971D01*
X97204114Y-74852209D01*
X97204114Y-75090304D01*
X97156495Y-75185542D01*
X97108876Y-75233161D01*
X97013638Y-75280780D01*
X96775542Y-75280780D01*
X96680304Y-75233161D01*
X96632685Y-75185542D01*
%TO.C,R3*%
X90638333Y-66992923D02*
X90305000Y-66516733D01*
X90066904Y-66992923D02*
X90066904Y-65992923D01*
X90447857Y-65992923D01*
X90543095Y-66040543D01*
X90590714Y-66088162D01*
X90638333Y-66183400D01*
X90638333Y-66326257D01*
X90590714Y-66421495D01*
X90543095Y-66469114D01*
X90447857Y-66516733D01*
X90066904Y-66516733D01*
X90971666Y-65992923D02*
X91590714Y-65992923D01*
X91257380Y-66373876D01*
X91400238Y-66373876D01*
X91495476Y-66421495D01*
X91543095Y-66469114D01*
X91590714Y-66564352D01*
X91590714Y-66802447D01*
X91543095Y-66897685D01*
X91495476Y-66945304D01*
X91400238Y-66992923D01*
X91114523Y-66992923D01*
X91019285Y-66945304D01*
X90971666Y-66897685D01*
%TO.C,Y2*%
X105119809Y-58910190D02*
X105119809Y-59386380D01*
X104786476Y-58386380D02*
X105119809Y-58910190D01*
X105453142Y-58386380D01*
X105738857Y-58481619D02*
X105786476Y-58434000D01*
X105881714Y-58386380D01*
X106119809Y-58386380D01*
X106215047Y-58434000D01*
X106262666Y-58481619D01*
X106310285Y-58576857D01*
X106310285Y-58672095D01*
X106262666Y-58814952D01*
X105691238Y-59386380D01*
X106310285Y-59386380D01*
%TO.C,C21*%
X104767142Y-84431142D02*
X104719523Y-84478761D01*
X104576666Y-84526380D01*
X104481428Y-84526380D01*
X104338571Y-84478761D01*
X104243333Y-84383523D01*
X104195714Y-84288285D01*
X104148095Y-84097809D01*
X104148095Y-83954952D01*
X104195714Y-83764476D01*
X104243333Y-83669238D01*
X104338571Y-83574000D01*
X104481428Y-83526380D01*
X104576666Y-83526380D01*
X104719523Y-83574000D01*
X104767142Y-83621619D01*
X105148095Y-83621619D02*
X105195714Y-83574000D01*
X105290952Y-83526380D01*
X105529047Y-83526380D01*
X105624285Y-83574000D01*
X105671904Y-83621619D01*
X105719523Y-83716857D01*
X105719523Y-83812095D01*
X105671904Y-83954952D01*
X105100476Y-84526380D01*
X105719523Y-84526380D01*
X106671904Y-84526380D02*
X106100476Y-84526380D01*
X106386190Y-84526380D02*
X106386190Y-83526380D01*
X106290952Y-83669238D01*
X106195714Y-83764476D01*
X106100476Y-83812095D01*
%TO.C,U5*%
X152614380Y-85476404D02*
X153423904Y-85476404D01*
X153519142Y-85428785D01*
X153566761Y-85381166D01*
X153614380Y-85285928D01*
X153614380Y-85095452D01*
X153566761Y-85000214D01*
X153519142Y-84952595D01*
X153423904Y-84904976D01*
X152614380Y-84904976D01*
X152614380Y-83952595D02*
X152614380Y-84428785D01*
X153090571Y-84476404D01*
X153042952Y-84428785D01*
X152995333Y-84333547D01*
X152995333Y-84095452D01*
X153042952Y-84000214D01*
X153090571Y-83952595D01*
X153185809Y-83904976D01*
X153423904Y-83904976D01*
X153519142Y-83952595D01*
X153566761Y-84000214D01*
X153614380Y-84095452D01*
X153614380Y-84333547D01*
X153566761Y-84428785D01*
X153519142Y-84476404D01*
%TO.C,C22*%
X126677142Y-84431142D02*
X126629523Y-84478761D01*
X126486666Y-84526380D01*
X126391428Y-84526380D01*
X126248571Y-84478761D01*
X126153333Y-84383523D01*
X126105714Y-84288285D01*
X126058095Y-84097809D01*
X126058095Y-83954952D01*
X126105714Y-83764476D01*
X126153333Y-83669238D01*
X126248571Y-83574000D01*
X126391428Y-83526380D01*
X126486666Y-83526380D01*
X126629523Y-83574000D01*
X126677142Y-83621619D01*
X127058095Y-83621619D02*
X127105714Y-83574000D01*
X127200952Y-83526380D01*
X127439047Y-83526380D01*
X127534285Y-83574000D01*
X127581904Y-83621619D01*
X127629523Y-83716857D01*
X127629523Y-83812095D01*
X127581904Y-83954952D01*
X127010476Y-84526380D01*
X127629523Y-84526380D01*
X128010476Y-83621619D02*
X128058095Y-83574000D01*
X128153333Y-83526380D01*
X128391428Y-83526380D01*
X128486666Y-83574000D01*
X128534285Y-83621619D01*
X128581904Y-83716857D01*
X128581904Y-83812095D01*
X128534285Y-83954952D01*
X127962857Y-84526380D01*
X128581904Y-84526380D01*
%TO.C,C11*%
X88525314Y-64149171D02*
X88563409Y-64187266D01*
X88601504Y-64301552D01*
X88601504Y-64377743D01*
X88563409Y-64492028D01*
X88487219Y-64568219D01*
X88411028Y-64606314D01*
X88258647Y-64644409D01*
X88144361Y-64644409D01*
X87991980Y-64606314D01*
X87915790Y-64568219D01*
X87839600Y-64492028D01*
X87801504Y-64377743D01*
X87801504Y-64301552D01*
X87839600Y-64187266D01*
X87877695Y-64149171D01*
X88601504Y-63387266D02*
X88601504Y-63844409D01*
X88601504Y-63615838D02*
X87801504Y-63615838D01*
X87915790Y-63692028D01*
X87991980Y-63768219D01*
X88030076Y-63844409D01*
X88601504Y-62625362D02*
X88601504Y-63082505D01*
X88601504Y-62853933D02*
X87801504Y-62853933D01*
X87915790Y-62930124D01*
X87991980Y-63006314D01*
X88030076Y-63082505D01*
%TO.C,R7*%
X111990533Y-76385680D02*
X111657200Y-75909490D01*
X111419104Y-76385680D02*
X111419104Y-75385680D01*
X111800057Y-75385680D01*
X111895295Y-75433300D01*
X111942914Y-75480919D01*
X111990533Y-75576157D01*
X111990533Y-75719014D01*
X111942914Y-75814252D01*
X111895295Y-75861871D01*
X111800057Y-75909490D01*
X111419104Y-75909490D01*
X112323866Y-75385680D02*
X112990533Y-75385680D01*
X112561961Y-76385680D01*
%TO.C,R13*%
X111971542Y-70696080D02*
X111638209Y-70219890D01*
X111400114Y-70696080D02*
X111400114Y-69696080D01*
X111781066Y-69696080D01*
X111876304Y-69743700D01*
X111923923Y-69791319D01*
X111971542Y-69886557D01*
X111971542Y-70029414D01*
X111923923Y-70124652D01*
X111876304Y-70172271D01*
X111781066Y-70219890D01*
X111400114Y-70219890D01*
X112923923Y-70696080D02*
X112352495Y-70696080D01*
X112638209Y-70696080D02*
X112638209Y-69696080D01*
X112542971Y-69838938D01*
X112447733Y-69934176D01*
X112352495Y-69981795D01*
X113257257Y-69696080D02*
X113876304Y-69696080D01*
X113542971Y-70077033D01*
X113685828Y-70077033D01*
X113781066Y-70124652D01*
X113828685Y-70172271D01*
X113876304Y-70267509D01*
X113876304Y-70505604D01*
X113828685Y-70600842D01*
X113781066Y-70648461D01*
X113685828Y-70696080D01*
X113400114Y-70696080D01*
X113304876Y-70648461D01*
X113257257Y-70600842D01*
%TO.C,C17*%
X98362542Y-65253000D02*
X98410161Y-65300619D01*
X98457780Y-65443476D01*
X98457780Y-65538714D01*
X98410161Y-65681571D01*
X98314923Y-65776809D01*
X98219685Y-65824428D01*
X98029209Y-65872047D01*
X97886352Y-65872047D01*
X97695876Y-65824428D01*
X97600638Y-65776809D01*
X97505400Y-65681571D01*
X97457780Y-65538714D01*
X97457780Y-65443476D01*
X97505400Y-65300619D01*
X97553019Y-65253000D01*
X98457780Y-64300619D02*
X98457780Y-64872047D01*
X98457780Y-64586333D02*
X97457780Y-64586333D01*
X97600638Y-64681571D01*
X97695876Y-64776809D01*
X97743495Y-64872047D01*
X97457780Y-63967285D02*
X97457780Y-63300619D01*
X98457780Y-63729190D01*
%TO.C,H3*%
X53594095Y-65476380D02*
X53594095Y-64476380D01*
X53594095Y-64952571D02*
X54165523Y-64952571D01*
X54165523Y-65476380D02*
X54165523Y-64476380D01*
X54546476Y-64476380D02*
X55165523Y-64476380D01*
X54832190Y-64857333D01*
X54975047Y-64857333D01*
X55070285Y-64904952D01*
X55117904Y-64952571D01*
X55165523Y-65047809D01*
X55165523Y-65285904D01*
X55117904Y-65381142D01*
X55070285Y-65428761D01*
X54975047Y-65476380D01*
X54689333Y-65476380D01*
X54594095Y-65428761D01*
X54546476Y-65381142D01*
%TO.C,C12*%
X85845714Y-83953314D02*
X85807619Y-83991409D01*
X85693333Y-84029504D01*
X85617142Y-84029504D01*
X85502857Y-83991409D01*
X85426666Y-83915219D01*
X85388571Y-83839028D01*
X85350476Y-83686647D01*
X85350476Y-83572361D01*
X85388571Y-83419980D01*
X85426666Y-83343790D01*
X85502857Y-83267600D01*
X85617142Y-83229504D01*
X85693333Y-83229504D01*
X85807619Y-83267600D01*
X85845714Y-83305695D01*
X86607619Y-84029504D02*
X86150476Y-84029504D01*
X86379047Y-84029504D02*
X86379047Y-83229504D01*
X86302857Y-83343790D01*
X86226666Y-83419980D01*
X86150476Y-83458076D01*
X86912380Y-83305695D02*
X86950476Y-83267600D01*
X87026666Y-83229504D01*
X87217142Y-83229504D01*
X87293333Y-83267600D01*
X87331428Y-83305695D01*
X87369523Y-83381885D01*
X87369523Y-83458076D01*
X87331428Y-83572361D01*
X86874285Y-84029504D01*
X87369523Y-84029504D01*
%TO.C,C9*%
X81011733Y-78817742D02*
X80964114Y-78865361D01*
X80821257Y-78912980D01*
X80726019Y-78912980D01*
X80583161Y-78865361D01*
X80487923Y-78770123D01*
X80440304Y-78674885D01*
X80392685Y-78484409D01*
X80392685Y-78341552D01*
X80440304Y-78151076D01*
X80487923Y-78055838D01*
X80583161Y-77960600D01*
X80726019Y-77912980D01*
X80821257Y-77912980D01*
X80964114Y-77960600D01*
X81011733Y-78008219D01*
X81487923Y-78912980D02*
X81678400Y-78912980D01*
X81773638Y-78865361D01*
X81821257Y-78817742D01*
X81916495Y-78674885D01*
X81964114Y-78484409D01*
X81964114Y-78103457D01*
X81916495Y-78008219D01*
X81868876Y-77960600D01*
X81773638Y-77912980D01*
X81583161Y-77912980D01*
X81487923Y-77960600D01*
X81440304Y-78008219D01*
X81392685Y-78103457D01*
X81392685Y-78341552D01*
X81440304Y-78436790D01*
X81487923Y-78484409D01*
X81583161Y-78532028D01*
X81773638Y-78532028D01*
X81868876Y-78484409D01*
X81916495Y-78436790D01*
X81964114Y-78341552D01*
%TO.C,R11*%
X73982342Y-81783180D02*
X73649009Y-81306990D01*
X73410914Y-81783180D02*
X73410914Y-80783180D01*
X73791866Y-80783180D01*
X73887104Y-80830800D01*
X73934723Y-80878419D01*
X73982342Y-80973657D01*
X73982342Y-81116514D01*
X73934723Y-81211752D01*
X73887104Y-81259371D01*
X73791866Y-81306990D01*
X73410914Y-81306990D01*
X74934723Y-81783180D02*
X74363295Y-81783180D01*
X74649009Y-81783180D02*
X74649009Y-80783180D01*
X74553771Y-80926038D01*
X74458533Y-81021276D01*
X74363295Y-81068895D01*
X75887104Y-81783180D02*
X75315676Y-81783180D01*
X75601390Y-81783180D02*
X75601390Y-80783180D01*
X75506152Y-80926038D01*
X75410914Y-81021276D01*
X75315676Y-81068895D01*
%TO.C,J4*%
X63517980Y-87353733D02*
X64232266Y-87353733D01*
X64375123Y-87401352D01*
X64470361Y-87496590D01*
X64517980Y-87639447D01*
X64517980Y-87734685D01*
X63851314Y-86448971D02*
X64517980Y-86448971D01*
X63470361Y-86687066D02*
X64184647Y-86925161D01*
X64184647Y-86306114D01*
%TO.C,C7*%
X89541314Y-64141333D02*
X89579409Y-64179428D01*
X89617504Y-64293714D01*
X89617504Y-64369904D01*
X89579409Y-64484190D01*
X89503219Y-64560380D01*
X89427028Y-64598476D01*
X89274647Y-64636571D01*
X89160361Y-64636571D01*
X89007980Y-64598476D01*
X88931790Y-64560380D01*
X88855600Y-64484190D01*
X88817504Y-64369904D01*
X88817504Y-64293714D01*
X88855600Y-64179428D01*
X88893695Y-64141333D01*
X88817504Y-63874666D02*
X88817504Y-63341333D01*
X89617504Y-63684190D01*
%TO.C,R10*%
X92879942Y-83561180D02*
X92546609Y-83084990D01*
X92308514Y-83561180D02*
X92308514Y-82561180D01*
X92689466Y-82561180D01*
X92784704Y-82608800D01*
X92832323Y-82656419D01*
X92879942Y-82751657D01*
X92879942Y-82894514D01*
X92832323Y-82989752D01*
X92784704Y-83037371D01*
X92689466Y-83084990D01*
X92308514Y-83084990D01*
X93832323Y-83561180D02*
X93260895Y-83561180D01*
X93546609Y-83561180D02*
X93546609Y-82561180D01*
X93451371Y-82704038D01*
X93356133Y-82799276D01*
X93260895Y-82846895D01*
X94451371Y-82561180D02*
X94546609Y-82561180D01*
X94641847Y-82608800D01*
X94689466Y-82656419D01*
X94737085Y-82751657D01*
X94784704Y-82942133D01*
X94784704Y-83180228D01*
X94737085Y-83370704D01*
X94689466Y-83465942D01*
X94641847Y-83513561D01*
X94546609Y-83561180D01*
X94451371Y-83561180D01*
X94356133Y-83513561D01*
X94308514Y-83465942D01*
X94260895Y-83370704D01*
X94213276Y-83180228D01*
X94213276Y-82942133D01*
X94260895Y-82751657D01*
X94308514Y-82656419D01*
X94356133Y-82608800D01*
X94451371Y-82561180D01*
%TO.C,H1*%
X53594095Y-90124380D02*
X53594095Y-89124380D01*
X53594095Y-89600571D02*
X54165523Y-89600571D01*
X54165523Y-90124380D02*
X54165523Y-89124380D01*
X55165523Y-90124380D02*
X54594095Y-90124380D01*
X54879809Y-90124380D02*
X54879809Y-89124380D01*
X54784571Y-89267238D01*
X54689333Y-89362476D01*
X54594095Y-89410095D01*
D12*
%TO.C,U1*%
X84559289Y-74844600D02*
G75*
G03*
X84559289Y-74844600I-100000J0D01*
G01*
D13*
X92434289Y-80944600D02*
X91954289Y-80944600D01*
X92434289Y-73944600D02*
X91954289Y-73944600D01*
X85434289Y-80944600D02*
X85914289Y-80944600D01*
X85434289Y-73944600D02*
X85914289Y-73944600D01*
X92434289Y-80944600D02*
X92434289Y-80464600D01*
X92434289Y-73944600D02*
X92434289Y-74424600D01*
X85434289Y-80944600D02*
X85434289Y-80464600D01*
X85434289Y-73944600D02*
X85434289Y-74424600D01*
%TO.C,J6*%
X149137000Y-87890000D02*
X162267000Y-87890000D01*
X162267000Y-87890000D02*
X162267000Y-89400000D01*
X162267000Y-93980000D02*
X162267000Y-101890000D01*
X162267000Y-101890000D02*
X149137000Y-101890000D01*
X149137000Y-101890000D02*
X149137000Y-93980000D01*
X149137000Y-89400000D02*
X149137000Y-87890000D01*
D14*
X152352000Y-87200000D02*
G75*
G03*
X152352000Y-87200000I-150000J0D01*
G01*
D13*
%TO.C,J2*%
X105449000Y-87845500D02*
X118579000Y-87845500D01*
X118579000Y-87845500D02*
X118579000Y-89355500D01*
X118579000Y-93935500D02*
X118579000Y-101845500D01*
X118579000Y-101845500D02*
X105449000Y-101845500D01*
X105449000Y-101845500D02*
X105449000Y-93935500D01*
X105449000Y-89355500D02*
X105449000Y-87845500D01*
D14*
X108664000Y-87155500D02*
G75*
G03*
X108664000Y-87155500I-150000J0D01*
G01*
D13*
%TO.C,J1*%
X127293000Y-87845500D02*
X140423000Y-87845500D01*
X140423000Y-87845500D02*
X140423000Y-89355500D01*
X140423000Y-93935500D02*
X140423000Y-101845500D01*
X140423000Y-101845500D02*
X127293000Y-101845500D01*
X127293000Y-101845500D02*
X127293000Y-93935500D01*
X127293000Y-89355500D02*
X127293000Y-87845500D01*
D14*
X130508000Y-87155500D02*
G75*
G03*
X130508000Y-87155500I-150000J0D01*
G01*
D15*
%TO.C,J5*%
X64804000Y-69294000D02*
X64804000Y-67794000D01*
X76824000Y-69994000D02*
X76824000Y-67494000D01*
X64304000Y-71314000D02*
X64304000Y-70104000D01*
X76024000Y-71314000D02*
X64304000Y-71314000D01*
X76024000Y-70104000D02*
X76024000Y-71314000D01*
X76824000Y-67494000D02*
X74324000Y-67494000D01*
X63804000Y-71814000D02*
X76524000Y-71814000D01*
X76524000Y-69294000D02*
X75524000Y-69294000D01*
X76524000Y-67794000D02*
X63804000Y-67794000D01*
X63804000Y-67794000D02*
X63804000Y-71814000D01*
X64304000Y-70104000D02*
X63804000Y-70104000D01*
X76524000Y-71814000D02*
X76524000Y-67794000D01*
X63804000Y-69294000D02*
X64804000Y-69294000D01*
X76524000Y-70104000D02*
X76024000Y-70104000D01*
X75524000Y-69294000D02*
X75524000Y-67794000D01*
%TO.C,U6*%
X132298000Y-84730400D02*
X132298000Y-85530400D01*
X132298000Y-84730400D02*
X132298000Y-83930400D01*
X135418000Y-84730400D02*
X135418000Y-82930400D01*
X135418000Y-84730400D02*
X135418000Y-85530400D01*
%TO.C,R4*%
X109590559Y-72452500D02*
X109897841Y-72452500D01*
X109590559Y-71692500D02*
X109897841Y-71692500D01*
%TO.C,C1*%
X85055341Y-87603000D02*
X84532837Y-87603000D01*
X85055341Y-86133000D02*
X84532837Y-86133000D01*
%TO.C,D1*%
X76140600Y-79954000D02*
X78825600Y-79954000D01*
X76140600Y-78034000D02*
X76140600Y-79954000D01*
X78825600Y-78034000D02*
X76140600Y-78034000D01*
%TO.C,C13*%
X92358800Y-71710436D02*
X92358800Y-71494764D01*
X91638800Y-71710436D02*
X91638800Y-71494764D01*
%TO.C,Y1*%
X82361289Y-93380400D02*
X94961289Y-93380400D01*
X82361289Y-88280400D02*
X82361289Y-93380400D01*
X94961289Y-88280400D02*
X82361289Y-88280400D01*
%TO.C,C4*%
X94075364Y-78100600D02*
X94291036Y-78100600D01*
X94075364Y-78820600D02*
X94291036Y-78820600D01*
%TO.C,TP1*%
X63738800Y-94742000D02*
G75*
G03*
X63738800Y-94742000I-950000J0D01*
G01*
%TO.C,C6*%
X92654800Y-71710436D02*
X92654800Y-71494764D01*
X93374800Y-71710436D02*
X93374800Y-71494764D01*
D11*
%TO.C,U2*%
X102081200Y-70802500D02*
X102081200Y-71282500D01*
X106231200Y-70802500D02*
X102081200Y-70802500D01*
X106231200Y-80962500D02*
X102081200Y-80962500D01*
X106231200Y-80482500D02*
X107356200Y-80482500D01*
X106231200Y-80962500D02*
X106231200Y-80482500D01*
X106231200Y-70802500D02*
X106231200Y-71282500D01*
X102081200Y-80962500D02*
X102081200Y-80482500D01*
D15*
%TO.C,C15*%
X60570400Y-68306837D02*
X59505963Y-67242400D01*
X55050400Y-67242400D02*
X55050400Y-68942400D01*
X59505963Y-67242400D02*
X55050400Y-67242400D01*
X60570400Y-68306837D02*
X60570400Y-68942400D01*
X59505963Y-72762400D02*
X55050400Y-72762400D01*
X61122900Y-71999900D02*
X61122900Y-71374900D01*
X61435400Y-71687400D02*
X60810400Y-71687400D01*
X55050400Y-72762400D02*
X55050400Y-71062400D01*
X60570400Y-71697963D02*
X59505963Y-72762400D01*
X60570400Y-71697963D02*
X60570400Y-71062400D01*
%TO.C,R12*%
X103811336Y-66978200D02*
X104265464Y-66978200D01*
X103811336Y-65508200D02*
X104265464Y-65508200D01*
%TO.C,R9*%
X109590559Y-78042500D02*
X109897841Y-78042500D01*
X109590559Y-78802500D02*
X109897841Y-78802500D01*
%TO.C,R2*%
X93371936Y-68091543D02*
X93826064Y-68091543D01*
X93371936Y-69561543D02*
X93826064Y-69561543D01*
%TO.C,C2*%
X92244237Y-87577600D02*
X92766741Y-87577600D01*
X92244237Y-86107600D02*
X92766741Y-86107600D01*
%TO.C,C8*%
X83826236Y-74469743D02*
X83610564Y-74469743D01*
X83826236Y-73749743D02*
X83610564Y-73749743D01*
%TO.C,C10*%
X88904400Y-82993507D02*
X88904400Y-83209179D01*
X88184400Y-82993507D02*
X88184400Y-83209179D01*
%TO.C,C14*%
X90606289Y-71710436D02*
X90606289Y-71494764D01*
X91326289Y-71710436D02*
X91326289Y-71494764D01*
%TO.C,R5*%
X109590559Y-73595500D02*
X109897841Y-73595500D01*
X109590559Y-72835500D02*
X109897841Y-72835500D01*
%TO.C,U4*%
X55392400Y-80321200D02*
X55392400Y-79061200D01*
X55392400Y-73501200D02*
X55392400Y-74761200D01*
X61402400Y-80321200D02*
X55392400Y-80321200D01*
X59152400Y-73501200D02*
X55392400Y-73501200D01*
%TO.C,C18*%
X110431948Y-66978200D02*
X110954452Y-66978200D01*
X110431948Y-65508200D02*
X110954452Y-65508200D01*
%TO.C,U3*%
X85376600Y-63053543D02*
X85116600Y-63053543D01*
X85376600Y-68503543D02*
X85116600Y-68503543D01*
X79926600Y-68503543D02*
X80186600Y-68503543D01*
X79926600Y-65778543D02*
X79926600Y-63053543D01*
X79926600Y-65778543D02*
X79926600Y-68503543D01*
X80186600Y-68503543D02*
X80186600Y-70178543D01*
X79926600Y-63053543D02*
X80186600Y-63053543D01*
X85376600Y-65778543D02*
X85376600Y-68503543D01*
X85376600Y-65778543D02*
X85376600Y-63053543D01*
%TO.C,R8*%
X109590559Y-76899500D02*
X109897841Y-76899500D01*
X109590559Y-77659500D02*
X109897841Y-77659500D01*
%TO.C,C23*%
X149425252Y-85117000D02*
X148902748Y-85117000D01*
X149425252Y-86587000D02*
X148902748Y-86587000D01*
%TO.C,C3*%
X80361200Y-59841179D02*
X80361200Y-59625507D01*
X81081200Y-59841179D02*
X81081200Y-59625507D01*
%TO.C,C16*%
X55050400Y-85413963D02*
X56114837Y-86478400D01*
X60570400Y-86478400D02*
X60570400Y-84778400D01*
X56114837Y-80958400D02*
X60570400Y-80958400D01*
X56114837Y-86478400D02*
X60570400Y-86478400D01*
X54185400Y-82033400D02*
X54810400Y-82033400D01*
X60570400Y-80958400D02*
X60570400Y-82658400D01*
X54497900Y-81720900D02*
X54497900Y-82345900D01*
X55050400Y-82022837D02*
X56114837Y-80958400D01*
X55050400Y-85413963D02*
X55050400Y-84778400D01*
X55050400Y-82022837D02*
X55050400Y-82658400D01*
%TO.C,C19*%
X99463436Y-80408100D02*
X99247764Y-80408100D01*
X99463436Y-79688100D02*
X99247764Y-79688100D01*
%TO.C,R6*%
X109590559Y-74992500D02*
X109897841Y-74992500D01*
X109590559Y-74232500D02*
X109897841Y-74232500D01*
%TO.C,C20*%
X99438036Y-73575500D02*
X99222364Y-73575500D01*
X99438036Y-72855500D02*
X99222364Y-72855500D01*
%TO.C,R1*%
X88880053Y-86107600D02*
X88425925Y-86107600D01*
X88880053Y-87577600D02*
X88425925Y-87577600D01*
%TO.C,U7*%
X113574000Y-84714500D02*
X113574000Y-82914500D01*
X110454000Y-84714500D02*
X110454000Y-83914500D01*
X113574000Y-84714500D02*
X113574000Y-85514500D01*
X110454000Y-84714500D02*
X110454000Y-85514500D01*
%TO.C,C5*%
X94075364Y-75130143D02*
X94291036Y-75130143D01*
X94075364Y-74410143D02*
X94291036Y-74410143D01*
%TO.C,R3*%
X93371936Y-67275543D02*
X93826064Y-67275543D01*
X93371936Y-65805543D02*
X93826064Y-65805543D01*
%TO.C,Y2*%
X111496000Y-59934000D02*
X98896000Y-59934000D01*
X98896000Y-65034000D02*
X111496000Y-65034000D01*
X98896000Y-59934000D02*
X98896000Y-65034000D01*
%TO.C,C21*%
X105671252Y-85117000D02*
X105148748Y-85117000D01*
X105671252Y-86587000D02*
X105148748Y-86587000D01*
%TO.C,U5*%
X154142000Y-84714500D02*
X154142000Y-83914500D01*
X157262000Y-84714500D02*
X157262000Y-85514500D01*
X154142000Y-84714500D02*
X154142000Y-85514500D01*
X157262000Y-84714500D02*
X157262000Y-82914500D01*
%TO.C,C22*%
X127581252Y-85117000D02*
X127058748Y-85117000D01*
X127581252Y-86587000D02*
X127058748Y-86587000D01*
%TO.C,C11*%
X87879600Y-71728379D02*
X87879600Y-71512707D01*
X88599600Y-71728379D02*
X88599600Y-71512707D01*
%TO.C,R7*%
X109590559Y-75375500D02*
X109897841Y-75375500D01*
X109590559Y-76135500D02*
X109897841Y-76135500D01*
%TO.C,R13*%
X109942841Y-70084500D02*
X109635559Y-70084500D01*
X109942841Y-70844500D02*
X109635559Y-70844500D01*
%TO.C,C17*%
X100743652Y-66978200D02*
X100221148Y-66978200D01*
X100743652Y-65508200D02*
X100221148Y-65508200D01*
%TO.C,C12*%
X89251200Y-82993507D02*
X89251200Y-83209179D01*
X89971200Y-82993507D02*
X89971200Y-83209179D01*
%TO.C,C9*%
X83826236Y-78100600D02*
X83610564Y-78100600D01*
X83826236Y-78820600D02*
X83610564Y-78820600D01*
%TO.C,R11*%
X78052664Y-82015000D02*
X77598536Y-82015000D01*
X78052664Y-80545000D02*
X77598536Y-80545000D01*
%TO.C,J4*%
X67665600Y-88350400D02*
X67665600Y-85690400D01*
X65065600Y-88350400D02*
X65065600Y-87020400D01*
X66395600Y-88350400D02*
X65065600Y-88350400D01*
X75345600Y-88350400D02*
X75345600Y-85690400D01*
X67665600Y-85690400D02*
X75345600Y-85690400D01*
X67665600Y-88350400D02*
X75345600Y-88350400D01*
%TO.C,C7*%
X89615600Y-71728379D02*
X89615600Y-71512707D01*
X88895600Y-71728379D02*
X88895600Y-71512707D01*
%TO.C,R10*%
X91060000Y-82947702D02*
X91060000Y-83254984D01*
X91820000Y-82947702D02*
X91820000Y-83254984D01*
%TD*%
M02*
