M48
; DRILL file {KiCad 6.0.5} date Tue 14 Jun 2022 06:54:32 PM CEST
; FORMAT={-:-/ absolute / metric / decimal}
; #@! TF.CreationDate,2022-06-14T18:54:32+02:00
; #@! TF.GenerationSoftware,Kicad,Pcbnew,6.0.5
; #@! TF.FileFunction,Plated,1,2,PTH
FMAT,2
METRIC
; #@! TA.AperFunction,Plated,PTH,ViaDrill
T1C0.350
; #@! TA.AperFunction,Plated,PTH,ComponentDrill
T2C0.920
; #@! TA.AperFunction,Plated,PTH,ComponentDrill
T3C0.950
; #@! TA.AperFunction,Plated,PTH,ComponentDrill
T4C1.000
; #@! TA.AperFunction,Plated,PTH,ComponentDrill
T5C2.300
; #@! TA.AperFunction,Plated,PTH,ComponentDrill
T6C3.200
%
G90
G05
T1
X54.432Y-73.609
X55.601Y-72.441
X56.693Y-73.66
X57.912Y-89.916
X59.436Y-88.392
X59.436Y-91.44
X60.96Y-90.043
X62.484Y-88.392
X62.484Y-91.44
X63.805Y-77.038
X63.805Y-78.384
X63.805Y-79.858
X67.767Y-90.526
X67.767Y-92.913
X68.58Y-64.567
X68.91Y-78.562
X68.91Y-81.026
X68.936Y-91.694
X68.936Y-94.132
X68.961Y-76.302
X69.748Y-63.398
X70.053Y-79.959
X70.053Y-82.474
X70.129Y-77.47
X70.841Y-64.618
X72.238Y-63.475
X73.304Y-64.618
X73.457Y-91.11
X74.625Y-92.253
X74.752Y-63.475
X75.794Y-91.084
X77.013Y-92.253
X78.181Y-89.807
X79.959Y-71.265
X80.874Y-72.179
X81.331Y-64.661
X81.331Y-66.845
X82.804Y-64.661
X83.769Y-66.845
X84.176Y-72.891
X84.176Y-77.463
X87.732Y-83.101
X87.893Y-76.403
X87.893Y-77.445
X87.893Y-78.486
X88.697Y-84.93
X88.748Y-75.082
X88.934Y-76.403
X88.934Y-77.445
X88.96Y-78.461
X89.154Y-72.891
X89.51Y-79.807
X89.56Y-60.604
X89.611Y-84.93
X89.976Y-77.445
X89.976Y-78.486
X90.026Y-76.403
X90.729Y-75.082
X91.44Y-69.843
X91.694Y-60.604
X92.71Y-73.653
X92.71Y-81.273
X93.726Y-72.891
X93.828Y-60.604
X99.644Y-86.182
X99.644Y-88.646
X99.695Y-83.922
X99.797Y-74.219
X100.787Y-87.579
X100.787Y-90.094
X100.863Y-85.09
X102.794Y-80.01
X105.639Y-73.05
X108.128Y-72.187
X116.611Y-68.478
X117.602Y-66.954
X118.516Y-68.555
X119.024Y-85.471
X120.015Y-83.947
X120.929Y-85.547
X140.665Y-85.344
X141.757Y-83.693
X142.748Y-85.344
X162.408Y-85.344
X163.703Y-83.591
X164.871Y-85.344
T2
X108.514Y-88.855
X111.014Y-88.855
X113.014Y-88.855
X115.514Y-88.855
X130.358Y-88.855
X132.858Y-88.855
X134.858Y-88.855
X137.358Y-88.855
X152.202Y-88.9
X154.702Y-88.9
X156.702Y-88.9
X159.202Y-88.9
T3
X66.414Y-70.104
X68.914Y-70.104
X71.414Y-70.104
X73.914Y-70.104
T4
X66.396Y-87.02
X68.936Y-87.02
X71.476Y-87.02
X74.016Y-87.02
T5
X105.444Y-91.566
X118.584Y-91.566
X127.288Y-91.566
X140.428Y-91.566
X149.132Y-91.61
X162.272Y-91.61
T6
X54.356Y-60.96
X54.356Y-93.472
X173.736Y-60.96
X173.736Y-93.472
T0
M30
