%TF.GenerationSoftware,KiCad,Pcbnew,6.0.6*%
%TF.CreationDate,2022-07-05T21:26:13+02:00*%
%TF.ProjectId,usb host hub,75736220-686f-4737-9420-6875622e6b69,rev?*%
%TF.SameCoordinates,Original*%
%TF.FileFunction,Paste,Top*%
%TF.FilePolarity,Positive*%
%FSLAX46Y46*%
G04 Gerber Fmt 4.6, Leading zero omitted, Abs format (unit mm)*
G04 Created by KiCad (PCBNEW 6.0.6) date 2022-07-05 21:26:13*
%MOMM*%
%LPD*%
G01*
G04 APERTURE LIST*
G04 Aperture macros list*
%AMRoundRect*
0 Rectangle with rounded corners*
0 $1 Rounding radius*
0 $2 $3 $4 $5 $6 $7 $8 $9 X,Y pos of 4 corners*
0 Add a 4 corners polygon primitive as box body*
4,1,4,$2,$3,$4,$5,$6,$7,$8,$9,$2,$3,0*
0 Add four circle primitives for the rounded corners*
1,1,$1+$1,$2,$3*
1,1,$1+$1,$4,$5*
1,1,$1+$1,$6,$7*
1,1,$1+$1,$8,$9*
0 Add four rect primitives between the rounded corners*
20,1,$1+$1,$2,$3,$4,$5,0*
20,1,$1+$1,$4,$5,$6,$7,0*
20,1,$1+$1,$6,$7,$8,$9,0*
20,1,$1+$1,$8,$9,$2,$3,0*%
G04 Aperture macros list end*
%ADD10C,0.010000*%
%ADD11RoundRect,0.250000X-0.262500X-0.450000X0.262500X-0.450000X0.262500X0.450000X-0.262500X0.450000X0*%
%ADD12RoundRect,0.150000X-0.150000X0.512500X-0.150000X-0.512500X0.150000X-0.512500X0.150000X0.512500X0*%
%ADD13RoundRect,0.135000X-0.135000X-0.185000X0.135000X-0.185000X0.135000X0.185000X-0.135000X0.185000X0*%
%ADD14RoundRect,0.250000X0.250000X0.475000X-0.250000X0.475000X-0.250000X-0.475000X0.250000X-0.475000X0*%
%ADD15RoundRect,0.243750X-0.243750X-0.456250X0.243750X-0.456250X0.243750X0.456250X-0.243750X0.456250X0*%
%ADD16RoundRect,0.140000X0.170000X-0.140000X0.170000X0.140000X-0.170000X0.140000X-0.170000X-0.140000X0*%
%ADD17R,4.500000X2.000000*%
%ADD18RoundRect,0.140000X-0.140000X-0.170000X0.140000X-0.170000X0.140000X0.170000X-0.140000X0.170000X0*%
%ADD19R,1.200000X0.400000*%
%ADD20RoundRect,0.250000X1.250000X0.550000X-1.250000X0.550000X-1.250000X-0.550000X1.250000X-0.550000X0*%
%ADD21RoundRect,0.250000X-0.250000X-0.475000X0.250000X-0.475000X0.250000X0.475000X-0.250000X0.475000X0*%
%ADD22RoundRect,0.140000X0.140000X0.170000X-0.140000X0.170000X-0.140000X-0.170000X0.140000X-0.170000X0*%
%ADD23RoundRect,0.140000X-0.170000X0.140000X-0.170000X-0.140000X0.170000X-0.140000X0.170000X0.140000X0*%
%ADD24R,2.000000X1.500000*%
%ADD25R,2.000000X3.800000*%
%ADD26RoundRect,0.150000X0.150000X-0.650000X0.150000X0.650000X-0.150000X0.650000X-0.150000X-0.650000X0*%
%ADD27RoundRect,0.250000X-1.250000X-0.550000X1.250000X-0.550000X1.250000X0.550000X-1.250000X0.550000X0*%
%ADD28RoundRect,0.250000X0.262500X0.450000X-0.262500X0.450000X-0.262500X-0.450000X0.262500X-0.450000X0*%
%ADD29RoundRect,0.135000X0.135000X0.185000X-0.135000X0.185000X-0.135000X-0.185000X0.135000X-0.185000X0*%
%ADD30RoundRect,0.006000X-0.414000X-0.094000X0.414000X-0.094000X0.414000X0.094000X-0.414000X0.094000X0*%
%ADD31RoundRect,0.020000X-0.080000X-0.400000X0.080000X-0.400000X0.080000X0.400000X-0.080000X0.400000X0*%
%ADD32RoundRect,0.135000X-0.185000X0.135000X-0.185000X-0.135000X0.185000X-0.135000X0.185000X0.135000X0*%
G04 APERTURE END LIST*
%TO.C,U1*%
G36*
X89914289Y-78424600D02*
G01*
X87954289Y-78424600D01*
X87954289Y-76464600D01*
X89914289Y-76464600D01*
X89914289Y-78424600D01*
G37*
D10*
X89914289Y-78424600D02*
X87954289Y-78424600D01*
X87954289Y-76464600D01*
X89914289Y-76464600D01*
X89914289Y-78424600D01*
%TD*%
D11*
%TO.C,R15*%
X119337500Y-86000000D03*
X121162500Y-86000000D03*
%TD*%
%TO.C,R14*%
X141287500Y-86000000D03*
X143112500Y-86000000D03*
%TD*%
%TO.C,R12*%
X163187500Y-85750000D03*
X165012500Y-85750000D03*
%TD*%
D12*
%TO.C,U6*%
X134808000Y-83592900D03*
X133858000Y-83592900D03*
X132908000Y-83592900D03*
X132908000Y-85867900D03*
X133858000Y-85867900D03*
X134808000Y-85867900D03*
%TD*%
D13*
%TO.C,R4*%
X109249500Y-69822100D03*
X110269500Y-69822100D03*
%TD*%
D14*
%TO.C,C1*%
X85744089Y-86868000D03*
X83844089Y-86868000D03*
%TD*%
D15*
%TO.C,D1*%
X76888100Y-78994000D03*
X78763100Y-78994000D03*
%TD*%
D16*
%TO.C,C13*%
X91998800Y-72082600D03*
X91998800Y-71122600D03*
%TD*%
D17*
%TO.C,Y1*%
X84811289Y-90830400D03*
X93311289Y-90830400D03*
%TD*%
D18*
%TO.C,C4*%
X93703200Y-78460600D03*
X94663200Y-78460600D03*
%TD*%
D16*
%TO.C,C6*%
X93014800Y-72082600D03*
X93014800Y-71122600D03*
%TD*%
D19*
%TO.C,U2*%
X106771500Y-77759600D03*
X106771500Y-77124600D03*
X106771500Y-76489600D03*
X106771500Y-75854600D03*
X106771500Y-75219600D03*
X106771500Y-74584600D03*
X106771500Y-73949600D03*
X106771500Y-73314600D03*
X106771500Y-72679600D03*
X106771500Y-72044600D03*
X106771500Y-71409600D03*
X106771500Y-70774600D03*
X106771500Y-70139600D03*
X106771500Y-69504600D03*
X101571500Y-69504600D03*
X101571500Y-70139600D03*
X101571500Y-70774600D03*
X101571500Y-71409600D03*
X101571500Y-72044600D03*
X101571500Y-72679600D03*
X101571500Y-73314600D03*
X101571500Y-73949600D03*
X101571500Y-74584600D03*
X101571500Y-75219600D03*
X101571500Y-75854600D03*
X101571500Y-76489600D03*
X101571500Y-77124600D03*
X101571500Y-77759600D03*
%TD*%
D20*
%TO.C,C15*%
X60010400Y-70002400D03*
X55610400Y-70002400D03*
%TD*%
D13*
%TO.C,R9*%
X109249500Y-76172100D03*
X110269500Y-76172100D03*
%TD*%
D11*
%TO.C,R2*%
X92686500Y-68826543D03*
X94511500Y-68826543D03*
%TD*%
D21*
%TO.C,C2*%
X91555489Y-86842600D03*
X93455489Y-86842600D03*
%TD*%
D22*
%TO.C,C8*%
X84198400Y-74109743D03*
X83238400Y-74109743D03*
%TD*%
D23*
%TO.C,C10*%
X88544400Y-82621343D03*
X88544400Y-83581343D03*
%TD*%
D16*
%TO.C,C14*%
X90966289Y-72082600D03*
X90966289Y-71122600D03*
%TD*%
D13*
%TO.C,R5*%
X109249500Y-70965100D03*
X110269500Y-70965100D03*
%TD*%
D24*
%TO.C,U4*%
X60452400Y-79211200D03*
X60452400Y-76911200D03*
D25*
X54152400Y-76911200D03*
D24*
X60452400Y-74611200D03*
%TD*%
D26*
%TO.C,U3*%
X80746600Y-69378543D03*
X82016600Y-69378543D03*
X83286600Y-69378543D03*
X84556600Y-69378543D03*
X84556600Y-62178543D03*
X83286600Y-62178543D03*
X82016600Y-62178543D03*
X80746600Y-62178543D03*
%TD*%
D13*
%TO.C,R8*%
X109249500Y-75029100D03*
X110269500Y-75029100D03*
%TD*%
D14*
%TO.C,C23*%
X150114000Y-85852000D03*
X148214000Y-85852000D03*
%TD*%
D16*
%TO.C,C3*%
X80721200Y-60213343D03*
X80721200Y-59253343D03*
%TD*%
D27*
%TO.C,C16*%
X55610400Y-83718400D03*
X60010400Y-83718400D03*
%TD*%
D18*
%TO.C,C19*%
X105720000Y-67700000D03*
X106680000Y-67700000D03*
%TD*%
D13*
%TO.C,R6*%
X109249500Y-72362100D03*
X110269500Y-72362100D03*
%TD*%
D18*
%TO.C,C20*%
X109320000Y-68500000D03*
X110280000Y-68500000D03*
%TD*%
D28*
%TO.C,R1*%
X89565489Y-86842600D03*
X87740489Y-86842600D03*
%TD*%
D12*
%TO.C,U7*%
X112964000Y-83577000D03*
X112014000Y-83577000D03*
X111064000Y-83577000D03*
X111064000Y-85852000D03*
X112014000Y-85852000D03*
X112964000Y-85852000D03*
%TD*%
D18*
%TO.C,C5*%
X93703200Y-74770143D03*
X94663200Y-74770143D03*
%TD*%
D11*
%TO.C,R3*%
X92686500Y-66540543D03*
X94511500Y-66540543D03*
%TD*%
D17*
%TO.C,Y2*%
X101346000Y-62484000D03*
X109846000Y-62484000D03*
%TD*%
D14*
%TO.C,C21*%
X106360000Y-85852000D03*
X104460000Y-85852000D03*
%TD*%
D12*
%TO.C,U5*%
X156652000Y-83577000D03*
X155702000Y-83577000D03*
X154752000Y-83577000D03*
X154752000Y-85852000D03*
X155702000Y-85852000D03*
X156652000Y-85852000D03*
%TD*%
D14*
%TO.C,C22*%
X128270000Y-85852000D03*
X126370000Y-85852000D03*
%TD*%
D16*
%TO.C,C11*%
X88239600Y-72100543D03*
X88239600Y-71140543D03*
%TD*%
D13*
%TO.C,R7*%
X109249500Y-73505100D03*
X110269500Y-73505100D03*
%TD*%
D29*
%TO.C,R13*%
X110314500Y-67300000D03*
X109294500Y-67300000D03*
%TD*%
D22*
%TO.C,C17*%
X99880000Y-77749600D03*
X98920000Y-77749600D03*
%TD*%
D23*
%TO.C,C12*%
X89611200Y-82621343D03*
X89611200Y-83581343D03*
%TD*%
D22*
%TO.C,C9*%
X84198400Y-78460600D03*
X83238400Y-78460600D03*
%TD*%
D30*
%TO.C,U1*%
X85499289Y-74844600D03*
X85499289Y-75244600D03*
X85499289Y-75644600D03*
X85499289Y-76044600D03*
X85499289Y-76444600D03*
X85499289Y-76844600D03*
X85499289Y-77244600D03*
X85499289Y-77644600D03*
X85499289Y-78044600D03*
X85499289Y-78444600D03*
X85499289Y-78844600D03*
X85499289Y-79244600D03*
X85499289Y-79644600D03*
X85499289Y-80044600D03*
D31*
X86334289Y-80879600D03*
X86734289Y-80879600D03*
X87134289Y-80879600D03*
X87534289Y-80879600D03*
X87934289Y-80879600D03*
X88334289Y-80879600D03*
X88734289Y-80879600D03*
X89134289Y-80879600D03*
X89534289Y-80879600D03*
X89934289Y-80879600D03*
X90334289Y-80879600D03*
X90734289Y-80879600D03*
X91134289Y-80879600D03*
X91534289Y-80879600D03*
D30*
X92369289Y-80044600D03*
X92369289Y-79644600D03*
X92369289Y-79244600D03*
X92369289Y-78844600D03*
X92369289Y-78444600D03*
X92369289Y-78044600D03*
X92369289Y-77644600D03*
X92369289Y-77244600D03*
X92369289Y-76844600D03*
X92369289Y-76444600D03*
X92369289Y-76044600D03*
X92369289Y-75644600D03*
X92369289Y-75244600D03*
X92369289Y-74844600D03*
D31*
X91534289Y-74009600D03*
X91134289Y-74009600D03*
X90734289Y-74009600D03*
X90334289Y-74009600D03*
X89934289Y-74009600D03*
X89534289Y-74009600D03*
X89134289Y-74009600D03*
X88734289Y-74009600D03*
X88334289Y-74009600D03*
X87934289Y-74009600D03*
X87534289Y-74009600D03*
X87134289Y-74009600D03*
X86734289Y-74009600D03*
X86334289Y-74009600D03*
%TD*%
D28*
%TO.C,R11*%
X78738100Y-81280000D03*
X76913100Y-81280000D03*
%TD*%
D16*
%TO.C,C7*%
X89255600Y-72100543D03*
X89255600Y-71140543D03*
%TD*%
D32*
%TO.C,R10*%
X91440000Y-82591343D03*
X91440000Y-83611343D03*
%TD*%
M02*
