%TF.GenerationSoftware,KiCad,Pcbnew,6.0.4*%
%TF.CreationDate,2022-05-03T23:03:23+02:00*%
%TF.ProjectId,hdmi brd,68646d69-2062-4726-942e-6b696361645f,rev?*%
%TF.SameCoordinates,Original*%
%TF.FileFunction,Legend,Top*%
%TF.FilePolarity,Positive*%
%FSLAX46Y46*%
G04 Gerber Fmt 4.6, Leading zero omitted, Abs format (unit mm)*
G04 Created by KiCad (PCBNEW 6.0.4) date 2022-05-03 23:03:23*
%MOMM*%
%LPD*%
G01*
G04 APERTURE LIST*
%ADD10C,0.475000*%
%ADD11C,0.150000*%
%ADD12C,0.127000*%
%ADD13C,0.120000*%
G04 APERTURE END LIST*
D10*
X90807500Y-68834000D02*
G75*
G03*
X90807500Y-68834000I-237500J0D01*
G01*
D11*
X89369047Y-117503380D02*
X89369047Y-116503380D01*
X89369047Y-116979571D02*
X89940476Y-116979571D01*
X89940476Y-117503380D02*
X89940476Y-116503380D01*
X90416666Y-117503380D02*
X90416666Y-116503380D01*
X90654761Y-116503380D01*
X90797619Y-116551000D01*
X90892857Y-116646238D01*
X90940476Y-116741476D01*
X90988095Y-116931952D01*
X90988095Y-117074809D01*
X90940476Y-117265285D01*
X90892857Y-117360523D01*
X90797619Y-117455761D01*
X90654761Y-117503380D01*
X90416666Y-117503380D01*
X91416666Y-117503380D02*
X91416666Y-116503380D01*
X91749999Y-117217666D01*
X92083333Y-116503380D01*
X92083333Y-117503380D01*
X92559523Y-117503380D02*
X92559523Y-116503380D01*
X93797619Y-117503380D02*
X93797619Y-116503380D01*
X94130952Y-117217666D01*
X94464285Y-116503380D01*
X94464285Y-117503380D01*
X95083333Y-117503380D02*
X94988095Y-117455761D01*
X94940476Y-117408142D01*
X94892857Y-117312904D01*
X94892857Y-117027190D01*
X94940476Y-116931952D01*
X94988095Y-116884333D01*
X95083333Y-116836714D01*
X95226190Y-116836714D01*
X95321428Y-116884333D01*
X95369047Y-116931952D01*
X95416666Y-117027190D01*
X95416666Y-117312904D01*
X95369047Y-117408142D01*
X95321428Y-117455761D01*
X95226190Y-117503380D01*
X95083333Y-117503380D01*
X96273809Y-117503380D02*
X96273809Y-116503380D01*
X96273809Y-117455761D02*
X96178571Y-117503380D01*
X95988095Y-117503380D01*
X95892857Y-117455761D01*
X95845238Y-117408142D01*
X95797619Y-117312904D01*
X95797619Y-117027190D01*
X95845238Y-116931952D01*
X95892857Y-116884333D01*
X95988095Y-116836714D01*
X96178571Y-116836714D01*
X96273809Y-116884333D01*
X97178571Y-116836714D02*
X97178571Y-117503380D01*
X96749999Y-116836714D02*
X96749999Y-117360523D01*
X96797619Y-117455761D01*
X96892857Y-117503380D01*
X97035714Y-117503380D01*
X97130952Y-117455761D01*
X97178571Y-117408142D01*
X97797619Y-117503380D02*
X97702380Y-117455761D01*
X97654761Y-117360523D01*
X97654761Y-116503380D01*
X98559523Y-117455761D02*
X98464285Y-117503380D01*
X98273809Y-117503380D01*
X98178571Y-117455761D01*
X98130952Y-117360523D01*
X98130952Y-116979571D01*
X98178571Y-116884333D01*
X98273809Y-116836714D01*
X98464285Y-116836714D01*
X98559523Y-116884333D01*
X98607142Y-116979571D01*
X98607142Y-117074809D01*
X98130952Y-117170047D01*
X99654761Y-116503380D02*
X99988095Y-117503380D01*
X100321428Y-116503380D01*
X101178571Y-117503380D02*
X100607142Y-117503380D01*
X100892857Y-117503380D02*
X100892857Y-116503380D01*
X100797619Y-116646238D01*
X100702380Y-116741476D01*
X100607142Y-116789095D01*
X90440476Y-118827666D02*
X90916666Y-118827666D01*
X90345238Y-119113380D02*
X90678571Y-118113380D01*
X91011904Y-119113380D01*
X91345238Y-118446714D02*
X91345238Y-119113380D01*
X91345238Y-118541952D02*
X91392857Y-118494333D01*
X91488095Y-118446714D01*
X91630952Y-118446714D01*
X91726190Y-118494333D01*
X91773809Y-118589571D01*
X91773809Y-119113380D01*
X92678571Y-119113380D02*
X92678571Y-118113380D01*
X92678571Y-119065761D02*
X92583333Y-119113380D01*
X92392857Y-119113380D01*
X92297619Y-119065761D01*
X92250000Y-119018142D01*
X92202380Y-118922904D01*
X92202380Y-118637190D01*
X92250000Y-118541952D01*
X92297619Y-118494333D01*
X92392857Y-118446714D01*
X92583333Y-118446714D01*
X92678571Y-118494333D01*
X93535714Y-119065761D02*
X93440476Y-119113380D01*
X93250000Y-119113380D01*
X93154761Y-119065761D01*
X93107142Y-118970523D01*
X93107142Y-118589571D01*
X93154761Y-118494333D01*
X93250000Y-118446714D01*
X93440476Y-118446714D01*
X93535714Y-118494333D01*
X93583333Y-118589571D01*
X93583333Y-118684809D01*
X93107142Y-118780047D01*
X94011904Y-119113380D02*
X94011904Y-118446714D01*
X94011904Y-118637190D02*
X94059523Y-118541952D01*
X94107142Y-118494333D01*
X94202380Y-118446714D01*
X94297619Y-118446714D01*
X94583333Y-119065761D02*
X94678571Y-119113380D01*
X94869047Y-119113380D01*
X94964285Y-119065761D01*
X95011904Y-118970523D01*
X95011904Y-118922904D01*
X94964285Y-118827666D01*
X94869047Y-118780047D01*
X94726190Y-118780047D01*
X94630952Y-118732428D01*
X94583333Y-118637190D01*
X94583333Y-118589571D01*
X94630952Y-118494333D01*
X94726190Y-118446714D01*
X94869047Y-118446714D01*
X94964285Y-118494333D01*
X96202380Y-119113380D02*
X96202380Y-118113380D01*
X96583333Y-118113380D01*
X96678571Y-118161000D01*
X96726190Y-118208619D01*
X96773809Y-118303857D01*
X96773809Y-118446714D01*
X96726190Y-118541952D01*
X96678571Y-118589571D01*
X96583333Y-118637190D01*
X96202380Y-118637190D01*
X97202380Y-119113380D02*
X97202380Y-118446714D01*
X97202380Y-118113380D02*
X97154761Y-118161000D01*
X97202380Y-118208619D01*
X97250000Y-118161000D01*
X97202380Y-118113380D01*
X97202380Y-118208619D01*
X97630952Y-119065761D02*
X97726190Y-119113380D01*
X97916666Y-119113380D01*
X98011904Y-119065761D01*
X98059523Y-118970523D01*
X98059523Y-118922904D01*
X98011904Y-118827666D01*
X97916666Y-118780047D01*
X97773809Y-118780047D01*
X97678571Y-118732428D01*
X97630952Y-118637190D01*
X97630952Y-118589571D01*
X97678571Y-118494333D01*
X97773809Y-118446714D01*
X97916666Y-118446714D01*
X98011904Y-118494333D01*
X98345238Y-118446714D02*
X98726190Y-118446714D01*
X98488095Y-118113380D02*
X98488095Y-118970523D01*
X98535714Y-119065761D01*
X98630952Y-119113380D01*
X98726190Y-119113380D01*
X99202380Y-119113380D02*
X99107142Y-119065761D01*
X99059523Y-119018142D01*
X99011904Y-118922904D01*
X99011904Y-118637190D01*
X99059523Y-118541952D01*
X99107142Y-118494333D01*
X99202380Y-118446714D01*
X99345238Y-118446714D01*
X99440476Y-118494333D01*
X99488095Y-118541952D01*
X99535714Y-118637190D01*
X99535714Y-118922904D01*
X99488095Y-119018142D01*
X99440476Y-119065761D01*
X99345238Y-119113380D01*
X99202380Y-119113380D01*
X100107142Y-119113380D02*
X100011904Y-119065761D01*
X99964285Y-118970523D01*
X99964285Y-118113380D01*
%TO.C,J2*%
X98599666Y-58833280D02*
X98599666Y-59547566D01*
X98552047Y-59690423D01*
X98456809Y-59785661D01*
X98313952Y-59833280D01*
X98218714Y-59833280D01*
X99028238Y-58928519D02*
X99075857Y-58880900D01*
X99171095Y-58833280D01*
X99409190Y-58833280D01*
X99504428Y-58880900D01*
X99552047Y-58928519D01*
X99599666Y-59023757D01*
X99599666Y-59118995D01*
X99552047Y-59261852D01*
X98980619Y-59833280D01*
X99599666Y-59833280D01*
%TO.C,C2*%
X93939142Y-66460666D02*
X93986761Y-66508285D01*
X94034380Y-66651142D01*
X94034380Y-66746380D01*
X93986761Y-66889238D01*
X93891523Y-66984476D01*
X93796285Y-67032095D01*
X93605809Y-67079714D01*
X93462952Y-67079714D01*
X93272476Y-67032095D01*
X93177238Y-66984476D01*
X93082000Y-66889238D01*
X93034380Y-66746380D01*
X93034380Y-66651142D01*
X93082000Y-66508285D01*
X93129619Y-66460666D01*
X93129619Y-66079714D02*
X93082000Y-66032095D01*
X93034380Y-65936857D01*
X93034380Y-65698761D01*
X93082000Y-65603523D01*
X93129619Y-65555904D01*
X93224857Y-65508285D01*
X93320095Y-65508285D01*
X93462952Y-65555904D01*
X94034380Y-66127333D01*
X94034380Y-65508285D01*
%TO.C,C11*%
X106545142Y-70461142D02*
X106497523Y-70508761D01*
X106354666Y-70556380D01*
X106259428Y-70556380D01*
X106116571Y-70508761D01*
X106021333Y-70413523D01*
X105973714Y-70318285D01*
X105926095Y-70127809D01*
X105926095Y-69984952D01*
X105973714Y-69794476D01*
X106021333Y-69699238D01*
X106116571Y-69604000D01*
X106259428Y-69556380D01*
X106354666Y-69556380D01*
X106497523Y-69604000D01*
X106545142Y-69651619D01*
X107497523Y-70556380D02*
X106926095Y-70556380D01*
X107211809Y-70556380D02*
X107211809Y-69556380D01*
X107116571Y-69699238D01*
X107021333Y-69794476D01*
X106926095Y-69842095D01*
X108449904Y-70556380D02*
X107878476Y-70556380D01*
X108164190Y-70556380D02*
X108164190Y-69556380D01*
X108068952Y-69699238D01*
X107973714Y-69794476D01*
X107878476Y-69842095D01*
%TO.C,C15*%
X85209142Y-68683142D02*
X85161523Y-68730761D01*
X85018666Y-68778380D01*
X84923428Y-68778380D01*
X84780571Y-68730761D01*
X84685333Y-68635523D01*
X84637714Y-68540285D01*
X84590095Y-68349809D01*
X84590095Y-68206952D01*
X84637714Y-68016476D01*
X84685333Y-67921238D01*
X84780571Y-67826000D01*
X84923428Y-67778380D01*
X85018666Y-67778380D01*
X85161523Y-67826000D01*
X85209142Y-67873619D01*
X86161523Y-68778380D02*
X85590095Y-68778380D01*
X85875809Y-68778380D02*
X85875809Y-67778380D01*
X85780571Y-67921238D01*
X85685333Y-68016476D01*
X85590095Y-68064095D01*
X87066285Y-67778380D02*
X86590095Y-67778380D01*
X86542476Y-68254571D01*
X86590095Y-68206952D01*
X86685333Y-68159333D01*
X86923428Y-68159333D01*
X87018666Y-68206952D01*
X87066285Y-68254571D01*
X87113904Y-68349809D01*
X87113904Y-68587904D01*
X87066285Y-68683142D01*
X87018666Y-68730761D01*
X86923428Y-68778380D01*
X86685333Y-68778380D01*
X86590095Y-68730761D01*
X86542476Y-68683142D01*
%TO.C,R3*%
X89198380Y-65952666D02*
X88722190Y-66286000D01*
X89198380Y-66524095D02*
X88198380Y-66524095D01*
X88198380Y-66143142D01*
X88246000Y-66047904D01*
X88293619Y-66000285D01*
X88388857Y-65952666D01*
X88531714Y-65952666D01*
X88626952Y-66000285D01*
X88674571Y-66047904D01*
X88722190Y-66143142D01*
X88722190Y-66524095D01*
X88198380Y-65619333D02*
X88198380Y-65000285D01*
X88579333Y-65333619D01*
X88579333Y-65190761D01*
X88626952Y-65095523D01*
X88674571Y-65047904D01*
X88769809Y-65000285D01*
X89007904Y-65000285D01*
X89103142Y-65047904D01*
X89150761Y-65095523D01*
X89198380Y-65190761D01*
X89198380Y-65476476D01*
X89150761Y-65571714D01*
X89103142Y-65619333D01*
%TO.C,C5*%
X105243333Y-105623142D02*
X105195714Y-105670761D01*
X105052857Y-105718380D01*
X104957619Y-105718380D01*
X104814761Y-105670761D01*
X104719523Y-105575523D01*
X104671904Y-105480285D01*
X104624285Y-105289809D01*
X104624285Y-105146952D01*
X104671904Y-104956476D01*
X104719523Y-104861238D01*
X104814761Y-104766000D01*
X104957619Y-104718380D01*
X105052857Y-104718380D01*
X105195714Y-104766000D01*
X105243333Y-104813619D01*
X106148095Y-104718380D02*
X105671904Y-104718380D01*
X105624285Y-105194571D01*
X105671904Y-105146952D01*
X105767142Y-105099333D01*
X106005238Y-105099333D01*
X106100476Y-105146952D01*
X106148095Y-105194571D01*
X106195714Y-105289809D01*
X106195714Y-105527904D01*
X106148095Y-105623142D01*
X106100476Y-105670761D01*
X106005238Y-105718380D01*
X105767142Y-105718380D01*
X105671904Y-105670761D01*
X105624285Y-105623142D01*
%TO.C,C9*%
X97385142Y-85002666D02*
X97432761Y-85050285D01*
X97480380Y-85193142D01*
X97480380Y-85288380D01*
X97432761Y-85431238D01*
X97337523Y-85526476D01*
X97242285Y-85574095D01*
X97051809Y-85621714D01*
X96908952Y-85621714D01*
X96718476Y-85574095D01*
X96623238Y-85526476D01*
X96528000Y-85431238D01*
X96480380Y-85288380D01*
X96480380Y-85193142D01*
X96528000Y-85050285D01*
X96575619Y-85002666D01*
X97480380Y-84526476D02*
X97480380Y-84336000D01*
X97432761Y-84240761D01*
X97385142Y-84193142D01*
X97242285Y-84097904D01*
X97051809Y-84050285D01*
X96670857Y-84050285D01*
X96575619Y-84097904D01*
X96528000Y-84145523D01*
X96480380Y-84240761D01*
X96480380Y-84431238D01*
X96528000Y-84526476D01*
X96575619Y-84574095D01*
X96670857Y-84621714D01*
X96908952Y-84621714D01*
X97004190Y-84574095D01*
X97051809Y-84526476D01*
X97099428Y-84431238D01*
X97099428Y-84240761D01*
X97051809Y-84145523D01*
X97004190Y-84097904D01*
X96908952Y-84050285D01*
%TO.C,C7*%
X87463333Y-73509142D02*
X87415714Y-73556761D01*
X87272857Y-73604380D01*
X87177619Y-73604380D01*
X87034761Y-73556761D01*
X86939523Y-73461523D01*
X86891904Y-73366285D01*
X86844285Y-73175809D01*
X86844285Y-73032952D01*
X86891904Y-72842476D01*
X86939523Y-72747238D01*
X87034761Y-72652000D01*
X87177619Y-72604380D01*
X87272857Y-72604380D01*
X87415714Y-72652000D01*
X87463333Y-72699619D01*
X87796666Y-72604380D02*
X88463333Y-72604380D01*
X88034761Y-73604380D01*
%TO.C,C14*%
X92559142Y-85478857D02*
X92606761Y-85526476D01*
X92654380Y-85669333D01*
X92654380Y-85764571D01*
X92606761Y-85907428D01*
X92511523Y-86002666D01*
X92416285Y-86050285D01*
X92225809Y-86097904D01*
X92082952Y-86097904D01*
X91892476Y-86050285D01*
X91797238Y-86002666D01*
X91702000Y-85907428D01*
X91654380Y-85764571D01*
X91654380Y-85669333D01*
X91702000Y-85526476D01*
X91749619Y-85478857D01*
X92654380Y-84526476D02*
X92654380Y-85097904D01*
X92654380Y-84812190D02*
X91654380Y-84812190D01*
X91797238Y-84907428D01*
X91892476Y-85002666D01*
X91940095Y-85097904D01*
X91987714Y-83669333D02*
X92654380Y-83669333D01*
X91606761Y-83907428D02*
X92321047Y-84145523D01*
X92321047Y-83526476D01*
%TO.C,C13*%
X108069142Y-75287142D02*
X108021523Y-75334761D01*
X107878666Y-75382380D01*
X107783428Y-75382380D01*
X107640571Y-75334761D01*
X107545333Y-75239523D01*
X107497714Y-75144285D01*
X107450095Y-74953809D01*
X107450095Y-74810952D01*
X107497714Y-74620476D01*
X107545333Y-74525238D01*
X107640571Y-74430000D01*
X107783428Y-74382380D01*
X107878666Y-74382380D01*
X108021523Y-74430000D01*
X108069142Y-74477619D01*
X109021523Y-75382380D02*
X108450095Y-75382380D01*
X108735809Y-75382380D02*
X108735809Y-74382380D01*
X108640571Y-74525238D01*
X108545333Y-74620476D01*
X108450095Y-74668095D01*
X109354857Y-74382380D02*
X109973904Y-74382380D01*
X109640571Y-74763333D01*
X109783428Y-74763333D01*
X109878666Y-74810952D01*
X109926285Y-74858571D01*
X109973904Y-74953809D01*
X109973904Y-75191904D01*
X109926285Y-75287142D01*
X109878666Y-75334761D01*
X109783428Y-75382380D01*
X109497714Y-75382380D01*
X109402476Y-75334761D01*
X109354857Y-75287142D01*
%TO.C,C3*%
X112609333Y-64873142D02*
X112561714Y-64920761D01*
X112418857Y-64968380D01*
X112323619Y-64968380D01*
X112180761Y-64920761D01*
X112085523Y-64825523D01*
X112037904Y-64730285D01*
X111990285Y-64539809D01*
X111990285Y-64396952D01*
X112037904Y-64206476D01*
X112085523Y-64111238D01*
X112180761Y-64016000D01*
X112323619Y-63968380D01*
X112418857Y-63968380D01*
X112561714Y-64016000D01*
X112609333Y-64063619D01*
X112942666Y-63968380D02*
X113561714Y-63968380D01*
X113228380Y-64349333D01*
X113371238Y-64349333D01*
X113466476Y-64396952D01*
X113514095Y-64444571D01*
X113561714Y-64539809D01*
X113561714Y-64777904D01*
X113514095Y-64873142D01*
X113466476Y-64920761D01*
X113371238Y-64968380D01*
X113085523Y-64968380D01*
X112990285Y-64920761D01*
X112942666Y-64873142D01*
%TO.C,R1*%
X100628380Y-66714666D02*
X100152190Y-67048000D01*
X100628380Y-67286095D02*
X99628380Y-67286095D01*
X99628380Y-66905142D01*
X99676000Y-66809904D01*
X99723619Y-66762285D01*
X99818857Y-66714666D01*
X99961714Y-66714666D01*
X100056952Y-66762285D01*
X100104571Y-66809904D01*
X100152190Y-66905142D01*
X100152190Y-67286095D01*
X100628380Y-65762285D02*
X100628380Y-66333714D01*
X100628380Y-66048000D02*
X99628380Y-66048000D01*
X99771238Y-66143238D01*
X99866476Y-66238476D01*
X99914095Y-66333714D01*
%TO.C,L1*%
X112609333Y-67254380D02*
X112133142Y-67254380D01*
X112133142Y-66254380D01*
X113466476Y-67254380D02*
X112895047Y-67254380D01*
X113180761Y-67254380D02*
X113180761Y-66254380D01*
X113085523Y-66397238D01*
X112990285Y-66492476D01*
X112895047Y-66540095D01*
%TO.C,C10*%
X108069142Y-73763142D02*
X108021523Y-73810761D01*
X107878666Y-73858380D01*
X107783428Y-73858380D01*
X107640571Y-73810761D01*
X107545333Y-73715523D01*
X107497714Y-73620285D01*
X107450095Y-73429809D01*
X107450095Y-73286952D01*
X107497714Y-73096476D01*
X107545333Y-73001238D01*
X107640571Y-72906000D01*
X107783428Y-72858380D01*
X107878666Y-72858380D01*
X108021523Y-72906000D01*
X108069142Y-72953619D01*
X109021523Y-73858380D02*
X108450095Y-73858380D01*
X108735809Y-73858380D02*
X108735809Y-72858380D01*
X108640571Y-73001238D01*
X108545333Y-73096476D01*
X108450095Y-73144095D01*
X109640571Y-72858380D02*
X109735809Y-72858380D01*
X109831047Y-72906000D01*
X109878666Y-72953619D01*
X109926285Y-73048857D01*
X109973904Y-73239333D01*
X109973904Y-73477428D01*
X109926285Y-73667904D01*
X109878666Y-73763142D01*
X109831047Y-73810761D01*
X109735809Y-73858380D01*
X109640571Y-73858380D01*
X109545333Y-73810761D01*
X109497714Y-73763142D01*
X109450095Y-73667904D01*
X109402476Y-73477428D01*
X109402476Y-73239333D01*
X109450095Y-73048857D01*
X109497714Y-72953619D01*
X109545333Y-72906000D01*
X109640571Y-72858380D01*
%TO.C,C6*%
X105243333Y-98003142D02*
X105195714Y-98050761D01*
X105052857Y-98098380D01*
X104957619Y-98098380D01*
X104814761Y-98050761D01*
X104719523Y-97955523D01*
X104671904Y-97860285D01*
X104624285Y-97669809D01*
X104624285Y-97526952D01*
X104671904Y-97336476D01*
X104719523Y-97241238D01*
X104814761Y-97146000D01*
X104957619Y-97098380D01*
X105052857Y-97098380D01*
X105195714Y-97146000D01*
X105243333Y-97193619D01*
X106100476Y-97098380D02*
X105910000Y-97098380D01*
X105814761Y-97146000D01*
X105767142Y-97193619D01*
X105671904Y-97336476D01*
X105624285Y-97526952D01*
X105624285Y-97907904D01*
X105671904Y-98003142D01*
X105719523Y-98050761D01*
X105814761Y-98098380D01*
X106005238Y-98098380D01*
X106100476Y-98050761D01*
X106148095Y-98003142D01*
X106195714Y-97907904D01*
X106195714Y-97669809D01*
X106148095Y-97574571D01*
X106100476Y-97526952D01*
X106005238Y-97479333D01*
X105814761Y-97479333D01*
X105719523Y-97526952D01*
X105671904Y-97574571D01*
X105624285Y-97669809D01*
%TO.C,U2*%
X91218380Y-105917904D02*
X92027904Y-105917904D01*
X92123142Y-105870285D01*
X92170761Y-105822666D01*
X92218380Y-105727428D01*
X92218380Y-105536952D01*
X92170761Y-105441714D01*
X92123142Y-105394095D01*
X92027904Y-105346476D01*
X91218380Y-105346476D01*
X91313619Y-104917904D02*
X91266000Y-104870285D01*
X91218380Y-104775047D01*
X91218380Y-104536952D01*
X91266000Y-104441714D01*
X91313619Y-104394095D01*
X91408857Y-104346476D01*
X91504095Y-104346476D01*
X91646952Y-104394095D01*
X92218380Y-104965523D01*
X92218380Y-104346476D01*
%TO.C,C8*%
X87463333Y-77463142D02*
X87415714Y-77510761D01*
X87272857Y-77558380D01*
X87177619Y-77558380D01*
X87034761Y-77510761D01*
X86939523Y-77415523D01*
X86891904Y-77320285D01*
X86844285Y-77129809D01*
X86844285Y-76986952D01*
X86891904Y-76796476D01*
X86939523Y-76701238D01*
X87034761Y-76606000D01*
X87177619Y-76558380D01*
X87272857Y-76558380D01*
X87415714Y-76606000D01*
X87463333Y-76653619D01*
X88034761Y-76986952D02*
X87939523Y-76939333D01*
X87891904Y-76891714D01*
X87844285Y-76796476D01*
X87844285Y-76748857D01*
X87891904Y-76653619D01*
X87939523Y-76606000D01*
X88034761Y-76558380D01*
X88225238Y-76558380D01*
X88320476Y-76606000D01*
X88368095Y-76653619D01*
X88415714Y-76748857D01*
X88415714Y-76796476D01*
X88368095Y-76891714D01*
X88320476Y-76939333D01*
X88225238Y-76986952D01*
X88034761Y-76986952D01*
X87939523Y-77034571D01*
X87891904Y-77082190D01*
X87844285Y-77177428D01*
X87844285Y-77367904D01*
X87891904Y-77463142D01*
X87939523Y-77510761D01*
X88034761Y-77558380D01*
X88225238Y-77558380D01*
X88320476Y-77510761D01*
X88368095Y-77463142D01*
X88415714Y-77367904D01*
X88415714Y-77177428D01*
X88368095Y-77082190D01*
X88320476Y-77034571D01*
X88225238Y-76986952D01*
%TO.C,U1*%
X95758095Y-68062380D02*
X95758095Y-68871904D01*
X95805714Y-68967142D01*
X95853333Y-69014761D01*
X95948571Y-69062380D01*
X96139047Y-69062380D01*
X96234285Y-69014761D01*
X96281904Y-68967142D01*
X96329523Y-68871904D01*
X96329523Y-68062380D01*
X97329523Y-69062380D02*
X96758095Y-69062380D01*
X97043809Y-69062380D02*
X97043809Y-68062380D01*
X96948571Y-68205238D01*
X96853333Y-68300476D01*
X96758095Y-68348095D01*
%TO.C,R2*%
X112609333Y-60396380D02*
X112276000Y-59920190D01*
X112037904Y-60396380D02*
X112037904Y-59396380D01*
X112418857Y-59396380D01*
X112514095Y-59444000D01*
X112561714Y-59491619D01*
X112609333Y-59586857D01*
X112609333Y-59729714D01*
X112561714Y-59824952D01*
X112514095Y-59872571D01*
X112418857Y-59920190D01*
X112037904Y-59920190D01*
X112990285Y-59491619D02*
X113037904Y-59444000D01*
X113133142Y-59396380D01*
X113371238Y-59396380D01*
X113466476Y-59444000D01*
X113514095Y-59491619D01*
X113561714Y-59586857D01*
X113561714Y-59682095D01*
X113514095Y-59824952D01*
X112942666Y-60396380D01*
X113561714Y-60396380D01*
%TO.C,C1*%
X97749142Y-66460666D02*
X97796761Y-66508285D01*
X97844380Y-66651142D01*
X97844380Y-66746380D01*
X97796761Y-66889238D01*
X97701523Y-66984476D01*
X97606285Y-67032095D01*
X97415809Y-67079714D01*
X97272952Y-67079714D01*
X97082476Y-67032095D01*
X96987238Y-66984476D01*
X96892000Y-66889238D01*
X96844380Y-66746380D01*
X96844380Y-66651142D01*
X96892000Y-66508285D01*
X96939619Y-66460666D01*
X97844380Y-65508285D02*
X97844380Y-66079714D01*
X97844380Y-65794000D02*
X96844380Y-65794000D01*
X96987238Y-65889238D01*
X97082476Y-65984476D01*
X97130095Y-66079714D01*
%TO.C,C4*%
X112609333Y-62587142D02*
X112561714Y-62634761D01*
X112418857Y-62682380D01*
X112323619Y-62682380D01*
X112180761Y-62634761D01*
X112085523Y-62539523D01*
X112037904Y-62444285D01*
X111990285Y-62253809D01*
X111990285Y-62110952D01*
X112037904Y-61920476D01*
X112085523Y-61825238D01*
X112180761Y-61730000D01*
X112323619Y-61682380D01*
X112418857Y-61682380D01*
X112561714Y-61730000D01*
X112609333Y-61777619D01*
X113466476Y-62015714D02*
X113466476Y-62682380D01*
X113228380Y-61634761D02*
X112990285Y-62349047D01*
X113609333Y-62349047D01*
%TO.C,H2*%
X111252095Y-122382380D02*
X111252095Y-121382380D01*
X111252095Y-121858571D02*
X111823523Y-121858571D01*
X111823523Y-122382380D02*
X111823523Y-121382380D01*
X112252095Y-121477619D02*
X112299714Y-121430000D01*
X112394952Y-121382380D01*
X112633047Y-121382380D01*
X112728285Y-121430000D01*
X112775904Y-121477619D01*
X112823523Y-121572857D01*
X112823523Y-121668095D01*
X112775904Y-121810952D01*
X112204476Y-122382380D01*
X112823523Y-122382380D01*
%TO.C,H1*%
X111506095Y-54808380D02*
X111506095Y-53808380D01*
X111506095Y-54284571D02*
X112077523Y-54284571D01*
X112077523Y-54808380D02*
X112077523Y-53808380D01*
X113077523Y-54808380D02*
X112506095Y-54808380D01*
X112791809Y-54808380D02*
X112791809Y-53808380D01*
X112696571Y-53951238D01*
X112601333Y-54046476D01*
X112506095Y-54094095D01*
%TO.C,C12*%
X106545142Y-77827142D02*
X106497523Y-77874761D01*
X106354666Y-77922380D01*
X106259428Y-77922380D01*
X106116571Y-77874761D01*
X106021333Y-77779523D01*
X105973714Y-77684285D01*
X105926095Y-77493809D01*
X105926095Y-77350952D01*
X105973714Y-77160476D01*
X106021333Y-77065238D01*
X106116571Y-76970000D01*
X106259428Y-76922380D01*
X106354666Y-76922380D01*
X106497523Y-76970000D01*
X106545142Y-77017619D01*
X107497523Y-77922380D02*
X106926095Y-77922380D01*
X107211809Y-77922380D02*
X107211809Y-76922380D01*
X107116571Y-77065238D01*
X107021333Y-77160476D01*
X106926095Y-77208095D01*
X107878476Y-77017619D02*
X107926095Y-76970000D01*
X108021333Y-76922380D01*
X108259428Y-76922380D01*
X108354666Y-76970000D01*
X108402285Y-77017619D01*
X108449904Y-77112857D01*
X108449904Y-77208095D01*
X108402285Y-77350952D01*
X107830857Y-77922380D01*
X108449904Y-77922380D01*
%TO.C,J1*%
X80946666Y-47712380D02*
X80946666Y-48426666D01*
X80899047Y-48569523D01*
X80803809Y-48664761D01*
X80660952Y-48712380D01*
X80565714Y-48712380D01*
X81946666Y-48712380D02*
X81375238Y-48712380D01*
X81660952Y-48712380D02*
X81660952Y-47712380D01*
X81565714Y-47855238D01*
X81470476Y-47950476D01*
X81375238Y-47998095D01*
D12*
%TO.C,J2*%
X107206000Y-58315000D02*
X90406000Y-58315000D01*
X90406000Y-58315000D02*
X90406000Y-46165000D01*
X90406000Y-46165000D02*
X107206000Y-46165000D01*
X107206000Y-46165000D02*
X107206000Y-58315000D01*
D13*
%TO.C,C2*%
X94382000Y-66401836D02*
X94382000Y-66186164D01*
X95102000Y-66401836D02*
X95102000Y-66186164D01*
%TO.C,C11*%
X104286164Y-69998000D02*
X104501836Y-69998000D01*
X104286164Y-70718000D02*
X104501836Y-70718000D01*
%TO.C,C15*%
X88499836Y-70464000D02*
X88284164Y-70464000D01*
X88499836Y-69744000D02*
X88284164Y-69744000D01*
%TO.C,R3*%
X89536000Y-65939641D02*
X89536000Y-65632359D01*
X90296000Y-65939641D02*
X90296000Y-65632359D01*
%TO.C,C5*%
X103714437Y-111726000D02*
X108170000Y-111726000D01*
X103714437Y-106206000D02*
X108170000Y-106206000D01*
X108170000Y-106206000D02*
X108170000Y-107906000D01*
X102650000Y-107270437D02*
X102650000Y-107906000D01*
X101785000Y-107281000D02*
X102410000Y-107281000D01*
X102650000Y-107270437D02*
X103714437Y-106206000D01*
X108170000Y-111726000D02*
X108170000Y-110026000D01*
X102650000Y-110661563D02*
X102650000Y-110026000D01*
X102650000Y-110661563D02*
X103714437Y-111726000D01*
X102097500Y-106968500D02*
X102097500Y-107593500D01*
%TO.C,C9*%
X95610000Y-82696164D02*
X95610000Y-82911836D01*
X94890000Y-82696164D02*
X94890000Y-82911836D01*
%TO.C,C7*%
X87737836Y-72242000D02*
X87522164Y-72242000D01*
X87737836Y-71522000D02*
X87522164Y-71522000D01*
%TO.C,C14*%
X91842000Y-81934164D02*
X91842000Y-82149836D01*
X92562000Y-81934164D02*
X92562000Y-82149836D01*
%TO.C,C13*%
X105810164Y-74316000D02*
X106025836Y-74316000D01*
X105810164Y-75036000D02*
X106025836Y-75036000D01*
%TO.C,C3*%
X109466748Y-65251000D02*
X109989252Y-65251000D01*
X109466748Y-63781000D02*
X109989252Y-63781000D01*
%TO.C,R1*%
X101726000Y-66701641D02*
X101726000Y-66394359D01*
X100966000Y-66701641D02*
X100966000Y-66394359D01*
%TO.C,L1*%
X110138242Y-67362000D02*
X109317758Y-67362000D01*
X110138242Y-66242000D02*
X109317758Y-66242000D01*
%TO.C,C10*%
X105810164Y-74020000D02*
X106025836Y-74020000D01*
X105810164Y-73300000D02*
X106025836Y-73300000D01*
%TO.C,C6*%
X101785000Y-99661000D02*
X102410000Y-99661000D01*
X103714437Y-104106000D02*
X108170000Y-104106000D01*
X108170000Y-98586000D02*
X108170000Y-100286000D01*
X103714437Y-98586000D02*
X108170000Y-98586000D01*
X102650000Y-103041563D02*
X102650000Y-102406000D01*
X108170000Y-104106000D02*
X108170000Y-102406000D01*
X102650000Y-103041563D02*
X103714437Y-104106000D01*
X102650000Y-99650437D02*
X103714437Y-98586000D01*
X102097500Y-99348500D02*
X102097500Y-99973500D01*
X102650000Y-99650437D02*
X102650000Y-100286000D01*
%TO.C,U2*%
X92856000Y-103246000D02*
X94116000Y-103246000D01*
X99676000Y-103246000D02*
X98416000Y-103246000D01*
X92856000Y-109256000D02*
X92856000Y-103246000D01*
X99676000Y-107006000D02*
X99676000Y-103246000D01*
%TO.C,C8*%
X87737836Y-76306000D02*
X87522164Y-76306000D01*
X87737836Y-75586000D02*
X87522164Y-75586000D01*
%TO.C,U1*%
X91885000Y-80040000D02*
X91410000Y-80040000D01*
X101630000Y-69820000D02*
X101630000Y-70295000D01*
X101155000Y-69820000D02*
X101630000Y-69820000D01*
X101630000Y-80040000D02*
X101630000Y-79565000D01*
X101155000Y-80040000D02*
X101630000Y-80040000D01*
X91410000Y-80040000D02*
X91410000Y-79565000D01*
X91885000Y-69820000D02*
X91410000Y-69820000D01*
%TO.C,R2*%
X109500936Y-60679000D02*
X109955064Y-60679000D01*
X109500936Y-59209000D02*
X109955064Y-59209000D01*
%TO.C,C1*%
X98912000Y-66401836D02*
X98912000Y-66186164D01*
X98192000Y-66401836D02*
X98192000Y-66186164D01*
%TO.C,C4*%
X109466748Y-62965000D02*
X109989252Y-62965000D01*
X109466748Y-61495000D02*
X109989252Y-61495000D01*
%TO.C,C12*%
X104540164Y-77576000D02*
X104755836Y-77576000D01*
X104540164Y-76856000D02*
X104755836Y-76856000D01*
%TD*%
M02*
