M48
; DRILL file {KiCad 6.0.4-6f826c9f35~116~ubuntu21.10.1} date Sat 23 Apr 2022 10:39:43 PM CEST
; FORMAT={-:-/ absolute / inch / decimal}
; #@! TF.CreationDate,2022-04-23T22:39:43+02:00
; #@! TF.GenerationSoftware,Kicad,Pcbnew,6.0.4-6f826c9f35~116~ubuntu21.10.1
; #@! TF.FileFunction,Plated,1,2,PTH
FMAT,2
INCH
; #@! TA.AperFunction,Plated,PTH,ViaDrill
T1C0.0157
; #@! TA.AperFunction,Plated,PTH,ComponentDrill
T2C0.0394
%
G90
G05
T1
X5.38Y-2.97
X5.38Y-3.09
X5.38Y-3.21
X5.38Y-4.44
X5.38Y-4.59
X5.38Y-4.74
T2
X4.93Y-2.74
X4.93Y-2.84
X4.93Y-2.94
X4.93Y-3.04
X4.93Y-3.14
X4.93Y-3.24
X4.93Y-3.34
X4.93Y-3.44
X4.93Y-3.54
X4.93Y-3.64
X4.93Y-3.74
X4.93Y-3.84
X4.93Y-3.94
X4.93Y-4.04
X4.93Y-4.14
X4.93Y-4.24
X4.93Y-4.34
X4.93Y-4.44
X4.93Y-4.54
X4.93Y-4.64
X4.93Y-4.74
X4.93Y-4.84
X4.93Y-4.94
X4.93Y-5.04
X5.83Y-2.74
X5.83Y-2.84
X5.83Y-2.94
X5.83Y-3.04
X5.83Y-3.14
X5.83Y-3.24
X5.83Y-3.34
X5.83Y-3.44
X5.83Y-3.54
X5.83Y-3.64
X5.83Y-3.74
X5.83Y-3.84
X5.83Y-3.94
X5.83Y-4.04
X5.83Y-4.14
X5.83Y-4.24
X5.83Y-4.34
X5.83Y-4.44
X5.83Y-4.54
X5.83Y-4.64
X5.83Y-4.74
X5.83Y-4.84
X5.83Y-4.94
X5.83Y-5.04
T0
M30
