%TF.GenerationSoftware,KiCad,Pcbnew,6.0.4-6f826c9f35~116~ubuntu21.10.1*%
%TF.CreationDate,2022-04-23T22:39:38+02:00*%
%TF.ProjectId,stm32f breakout,73746d33-3266-4206-9272-65616b6f7574,rev?*%
%TF.SameCoordinates,Original*%
%TF.FileFunction,Copper,L2,Bot*%
%TF.FilePolarity,Positive*%
%FSLAX46Y46*%
G04 Gerber Fmt 4.6, Leading zero omitted, Abs format (unit mm)*
G04 Created by KiCad (PCBNEW 6.0.4-6f826c9f35~116~ubuntu21.10.1) date 2022-04-23 22:39:38*
%MOMM*%
%LPD*%
G01*
G04 APERTURE LIST*
%TA.AperFunction,ComponentPad*%
%ADD10R,1.700000X1.700000*%
%TD*%
%TA.AperFunction,ComponentPad*%
%ADD11O,1.700000X1.700000*%
%TD*%
%TA.AperFunction,ViaPad*%
%ADD12C,0.800000*%
%TD*%
G04 APERTURE END LIST*
D10*
%TO.P,J2,1,Pin_1*%
%TO.N,Net-(U1-Pad37)*%
X125222000Y-69596000D03*
D11*
%TO.P,J2,2,Pin_2*%
%TO.N,Net-(U1-Pad38)*%
X125222000Y-72136000D03*
%TO.P,J2,3,Pin_3*%
%TO.N,Net-(U1-Pad39)*%
X125222000Y-74676000D03*
%TO.P,J2,4,Pin_4*%
%TO.N,Net-(U1-Pad40)*%
X125222000Y-77216000D03*
%TO.P,J2,5,Pin_5*%
%TO.N,Net-(J2-Pad5)*%
X125222000Y-79756000D03*
%TO.P,J2,6,Pin_6*%
%TO.N,Net-(J2-Pad6)*%
X125222000Y-82296000D03*
%TO.P,J2,7,Pin_7*%
%TO.N,Net-(J2-Pad7)*%
X125222000Y-84836000D03*
%TO.P,J2,8,Pin_8*%
%TO.N,Net-(J2-Pad8)*%
X125222000Y-87376000D03*
%TO.P,J2,9,Pin_9*%
%TO.N,Net-(J2-Pad9)*%
X125222000Y-89916000D03*
%TO.P,J2,10,Pin_10*%
%TO.N,Net-(J2-Pad10)*%
X125222000Y-92456000D03*
%TO.P,J2,11,Pin_11*%
%TO.N,GND*%
X125222000Y-94996000D03*
%TO.P,J2,12,Pin_12*%
%TO.N,Net-(J2-Pad12)*%
X125222000Y-97536000D03*
%TO.P,J2,13,Pin_13*%
%TO.N,Net-(J2-Pad13)*%
X125222000Y-100076000D03*
%TO.P,J2,14,Pin_14*%
%TO.N,Net-(J2-Pad14)*%
X125222000Y-102616000D03*
%TO.P,J2,15,Pin_15*%
%TO.N,Net-(J2-Pad15)*%
X125222000Y-105156000D03*
%TO.P,J2,16,Pin_16*%
%TO.N,Net-(J2-Pad16)*%
X125222000Y-107696000D03*
%TO.P,J2,17,Pin_17*%
%TO.N,Net-(J2-Pad17)*%
X125222000Y-110236000D03*
%TO.P,J2,18,Pin_18*%
%TO.N,Net-(U1-Pad6)*%
X125222000Y-112776000D03*
%TO.P,J2,19,Pin_19*%
%TO.N,Net-(U1-Pad7)*%
X125222000Y-115316000D03*
%TO.P,J2,20,Pin_20*%
%TO.N,Net-(U1-Pad8)*%
X125222000Y-117856000D03*
%TO.P,J2,21,Pin_21*%
%TO.N,Net-(U1-Pad9)*%
X125222000Y-120396000D03*
%TO.P,J2,22,Pin_22*%
%TO.N,Net-(J2-Pad22)*%
X125222000Y-122936000D03*
%TO.P,J2,23,Pin_23*%
%TO.N,Net-(J2-Pad23)*%
X125222000Y-125476000D03*
%TO.P,J2,24,Pin_24*%
%TO.N,Net-(J2-Pad24)*%
X125222000Y-128016000D03*
%TD*%
%TO.P,J1,24,Pin_24*%
%TO.N,Net-(U1-Pad13)*%
X148082000Y-128016000D03*
%TO.P,J1,23,Pin_23*%
%TO.N,Net-(U1-Pad14)*%
X148082000Y-125476000D03*
%TO.P,J1,22,Pin_22*%
%TO.N,Net-(U1-Pad15)*%
X148082000Y-122936000D03*
%TO.P,J1,21,Pin_21*%
%TO.N,Net-(U1-Pad16)*%
X148082000Y-120396000D03*
%TO.P,J1,20,Pin_20*%
%TO.N,Net-(U1-Pad17)*%
X148082000Y-117856000D03*
%TO.P,J1,19,Pin_19*%
%TO.N,Net-(J1-Pad19)*%
X148082000Y-115316000D03*
%TO.P,J1,18,Pin_18*%
%TO.N,Net-(J1-Pad18)*%
X148082000Y-112776000D03*
%TO.P,J1,17,Pin_17*%
%TO.N,Net-(J1-Pad17)*%
X148082000Y-110236000D03*
%TO.P,J1,16,Pin_16*%
%TO.N,Net-(J1-Pad16)*%
X148082000Y-107696000D03*
%TO.P,J1,15,Pin_15*%
%TO.N,Net-(J1-Pad15)*%
X148082000Y-105156000D03*
%TO.P,J1,14,Pin_14*%
%TO.N,GND*%
X148082000Y-102616000D03*
%TO.P,J1,13,Pin_13*%
%TO.N,Net-(U1-Pad24)*%
X148082000Y-100076000D03*
%TO.P,J1,12,Pin_12*%
%TO.N,Net-(J1-Pad12)*%
X148082000Y-97536000D03*
%TO.P,J1,11,Pin_11*%
%TO.N,Net-(U1-Pad26)*%
X148082000Y-94996000D03*
%TO.P,J1,10,Pin_10*%
%TO.N,Net-(U1-Pad27)*%
X148082000Y-92456000D03*
%TO.P,J1,9,Pin_9*%
%TO.N,Net-(U1-Pad28)*%
X148082000Y-89916000D03*
%TO.P,J1,8,Pin_8*%
%TO.N,Net-(U1-Pad29)*%
X148082000Y-87376000D03*
%TO.P,J1,7,Pin_7*%
%TO.N,Net-(U1-Pad30)*%
X148082000Y-84836000D03*
%TO.P,J1,6,Pin_6*%
%TO.N,Net-(U1-Pad31)*%
X148082000Y-82296000D03*
%TO.P,J1,5,Pin_5*%
%TO.N,Net-(J1-Pad5)*%
X148082000Y-79756000D03*
%TO.P,J1,4,Pin_4*%
%TO.N,Net-(J1-Pad4)*%
X148082000Y-77216000D03*
%TO.P,J1,3,Pin_3*%
%TO.N,Net-(J1-Pad3)*%
X148082000Y-74676000D03*
%TO.P,J1,2,Pin_2*%
%TO.N,GND*%
X148082000Y-72136000D03*
D10*
%TO.P,J1,1,Pin_1*%
%TO.N,Net-(U1-Pad36)*%
X148082000Y-69596000D03*
%TD*%
D12*
%TO.N,GND*%
X136652000Y-120396000D03*
X136652000Y-116586000D03*
X136652000Y-112776000D03*
X136652000Y-81534000D03*
X136652000Y-78486000D03*
X136652000Y-75438000D03*
%TD*%
%TA.AperFunction,Conductor*%
%TO.N,GND*%
G36*
X149801621Y-67584502D02*
G01*
X149848114Y-67638158D01*
X149859500Y-67690500D01*
X149859500Y-129667500D01*
X149839498Y-129735621D01*
X149785842Y-129782114D01*
X149733500Y-129793500D01*
X123570500Y-129793500D01*
X123502379Y-129773498D01*
X123455886Y-129719842D01*
X123444500Y-129667500D01*
X123444500Y-127982695D01*
X123859251Y-127982695D01*
X123859548Y-127987848D01*
X123859548Y-127987851D01*
X123865011Y-128082590D01*
X123872110Y-128205715D01*
X123873247Y-128210761D01*
X123873248Y-128210767D01*
X123893119Y-128298939D01*
X123921222Y-128423639D01*
X124005266Y-128630616D01*
X124121987Y-128821088D01*
X124268250Y-128989938D01*
X124440126Y-129132632D01*
X124633000Y-129245338D01*
X124841692Y-129325030D01*
X124846760Y-129326061D01*
X124846763Y-129326062D01*
X124954017Y-129347883D01*
X125060597Y-129369567D01*
X125065772Y-129369757D01*
X125065774Y-129369757D01*
X125278673Y-129377564D01*
X125278677Y-129377564D01*
X125283837Y-129377753D01*
X125288957Y-129377097D01*
X125288959Y-129377097D01*
X125500288Y-129350025D01*
X125500289Y-129350025D01*
X125505416Y-129349368D01*
X125510366Y-129347883D01*
X125714429Y-129286661D01*
X125714434Y-129286659D01*
X125719384Y-129285174D01*
X125919994Y-129186896D01*
X126101860Y-129057173D01*
X126260096Y-128899489D01*
X126319594Y-128816689D01*
X126387435Y-128722277D01*
X126390453Y-128718077D01*
X126489430Y-128517811D01*
X126554370Y-128304069D01*
X126583529Y-128082590D01*
X126585156Y-128016000D01*
X126582418Y-127982695D01*
X146719251Y-127982695D01*
X146719548Y-127987848D01*
X146719548Y-127987851D01*
X146725011Y-128082590D01*
X146732110Y-128205715D01*
X146733247Y-128210761D01*
X146733248Y-128210767D01*
X146753119Y-128298939D01*
X146781222Y-128423639D01*
X146865266Y-128630616D01*
X146981987Y-128821088D01*
X147128250Y-128989938D01*
X147300126Y-129132632D01*
X147493000Y-129245338D01*
X147701692Y-129325030D01*
X147706760Y-129326061D01*
X147706763Y-129326062D01*
X147814017Y-129347883D01*
X147920597Y-129369567D01*
X147925772Y-129369757D01*
X147925774Y-129369757D01*
X148138673Y-129377564D01*
X148138677Y-129377564D01*
X148143837Y-129377753D01*
X148148957Y-129377097D01*
X148148959Y-129377097D01*
X148360288Y-129350025D01*
X148360289Y-129350025D01*
X148365416Y-129349368D01*
X148370366Y-129347883D01*
X148574429Y-129286661D01*
X148574434Y-129286659D01*
X148579384Y-129285174D01*
X148779994Y-129186896D01*
X148961860Y-129057173D01*
X149120096Y-128899489D01*
X149179594Y-128816689D01*
X149247435Y-128722277D01*
X149250453Y-128718077D01*
X149349430Y-128517811D01*
X149414370Y-128304069D01*
X149443529Y-128082590D01*
X149445156Y-128016000D01*
X149426852Y-127793361D01*
X149372431Y-127576702D01*
X149283354Y-127371840D01*
X149162014Y-127184277D01*
X149011670Y-127019051D01*
X149007619Y-127015852D01*
X149007615Y-127015848D01*
X148840414Y-126883800D01*
X148840410Y-126883798D01*
X148836359Y-126880598D01*
X148795053Y-126857796D01*
X148745084Y-126807364D01*
X148730312Y-126737921D01*
X148755428Y-126671516D01*
X148782780Y-126644909D01*
X148826603Y-126613650D01*
X148961860Y-126517173D01*
X149120096Y-126359489D01*
X149179594Y-126276689D01*
X149247435Y-126182277D01*
X149250453Y-126178077D01*
X149349430Y-125977811D01*
X149414370Y-125764069D01*
X149443529Y-125542590D01*
X149445156Y-125476000D01*
X149426852Y-125253361D01*
X149372431Y-125036702D01*
X149283354Y-124831840D01*
X149162014Y-124644277D01*
X149011670Y-124479051D01*
X149007619Y-124475852D01*
X149007615Y-124475848D01*
X148840414Y-124343800D01*
X148840410Y-124343798D01*
X148836359Y-124340598D01*
X148795053Y-124317796D01*
X148745084Y-124267364D01*
X148730312Y-124197921D01*
X148755428Y-124131516D01*
X148782780Y-124104909D01*
X148826603Y-124073650D01*
X148961860Y-123977173D01*
X149120096Y-123819489D01*
X149179594Y-123736689D01*
X149247435Y-123642277D01*
X149250453Y-123638077D01*
X149349430Y-123437811D01*
X149414370Y-123224069D01*
X149443529Y-123002590D01*
X149445156Y-122936000D01*
X149426852Y-122713361D01*
X149372431Y-122496702D01*
X149283354Y-122291840D01*
X149162014Y-122104277D01*
X149011670Y-121939051D01*
X149007619Y-121935852D01*
X149007615Y-121935848D01*
X148840414Y-121803800D01*
X148840410Y-121803798D01*
X148836359Y-121800598D01*
X148795053Y-121777796D01*
X148745084Y-121727364D01*
X148730312Y-121657921D01*
X148755428Y-121591516D01*
X148782780Y-121564909D01*
X148826603Y-121533650D01*
X148961860Y-121437173D01*
X149120096Y-121279489D01*
X149179594Y-121196689D01*
X149247435Y-121102277D01*
X149250453Y-121098077D01*
X149349430Y-120897811D01*
X149414370Y-120684069D01*
X149443529Y-120462590D01*
X149445156Y-120396000D01*
X149426852Y-120173361D01*
X149372431Y-119956702D01*
X149283354Y-119751840D01*
X149162014Y-119564277D01*
X149011670Y-119399051D01*
X149007619Y-119395852D01*
X149007615Y-119395848D01*
X148840414Y-119263800D01*
X148840410Y-119263798D01*
X148836359Y-119260598D01*
X148795053Y-119237796D01*
X148745084Y-119187364D01*
X148730312Y-119117921D01*
X148755428Y-119051516D01*
X148782780Y-119024909D01*
X148826603Y-118993650D01*
X148961860Y-118897173D01*
X149120096Y-118739489D01*
X149179594Y-118656689D01*
X149247435Y-118562277D01*
X149250453Y-118558077D01*
X149349430Y-118357811D01*
X149414370Y-118144069D01*
X149443529Y-117922590D01*
X149445156Y-117856000D01*
X149426852Y-117633361D01*
X149372431Y-117416702D01*
X149283354Y-117211840D01*
X149162014Y-117024277D01*
X149011670Y-116859051D01*
X149007619Y-116855852D01*
X149007615Y-116855848D01*
X148840414Y-116723800D01*
X148840410Y-116723798D01*
X148836359Y-116720598D01*
X148795053Y-116697796D01*
X148745084Y-116647364D01*
X148730312Y-116577921D01*
X148755428Y-116511516D01*
X148782780Y-116484909D01*
X148826603Y-116453650D01*
X148961860Y-116357173D01*
X149120096Y-116199489D01*
X149179594Y-116116689D01*
X149247435Y-116022277D01*
X149250453Y-116018077D01*
X149349430Y-115817811D01*
X149414370Y-115604069D01*
X149443529Y-115382590D01*
X149445156Y-115316000D01*
X149426852Y-115093361D01*
X149372431Y-114876702D01*
X149283354Y-114671840D01*
X149162014Y-114484277D01*
X149011670Y-114319051D01*
X149007619Y-114315852D01*
X149007615Y-114315848D01*
X148840414Y-114183800D01*
X148840410Y-114183798D01*
X148836359Y-114180598D01*
X148795053Y-114157796D01*
X148745084Y-114107364D01*
X148730312Y-114037921D01*
X148755428Y-113971516D01*
X148782780Y-113944909D01*
X148826603Y-113913650D01*
X148961860Y-113817173D01*
X149120096Y-113659489D01*
X149179594Y-113576689D01*
X149247435Y-113482277D01*
X149250453Y-113478077D01*
X149349430Y-113277811D01*
X149414370Y-113064069D01*
X149443529Y-112842590D01*
X149445156Y-112776000D01*
X149426852Y-112553361D01*
X149372431Y-112336702D01*
X149283354Y-112131840D01*
X149162014Y-111944277D01*
X149011670Y-111779051D01*
X149007619Y-111775852D01*
X149007615Y-111775848D01*
X148840414Y-111643800D01*
X148840410Y-111643798D01*
X148836359Y-111640598D01*
X148795053Y-111617796D01*
X148745084Y-111567364D01*
X148730312Y-111497921D01*
X148755428Y-111431516D01*
X148782780Y-111404909D01*
X148826603Y-111373650D01*
X148961860Y-111277173D01*
X149120096Y-111119489D01*
X149179594Y-111036689D01*
X149247435Y-110942277D01*
X149250453Y-110938077D01*
X149349430Y-110737811D01*
X149414370Y-110524069D01*
X149443529Y-110302590D01*
X149445156Y-110236000D01*
X149426852Y-110013361D01*
X149372431Y-109796702D01*
X149283354Y-109591840D01*
X149162014Y-109404277D01*
X149011670Y-109239051D01*
X149007619Y-109235852D01*
X149007615Y-109235848D01*
X148840414Y-109103800D01*
X148840410Y-109103798D01*
X148836359Y-109100598D01*
X148795053Y-109077796D01*
X148745084Y-109027364D01*
X148730312Y-108957921D01*
X148755428Y-108891516D01*
X148782780Y-108864909D01*
X148826603Y-108833650D01*
X148961860Y-108737173D01*
X149120096Y-108579489D01*
X149179594Y-108496689D01*
X149247435Y-108402277D01*
X149250453Y-108398077D01*
X149349430Y-108197811D01*
X149414370Y-107984069D01*
X149443529Y-107762590D01*
X149445156Y-107696000D01*
X149426852Y-107473361D01*
X149372431Y-107256702D01*
X149283354Y-107051840D01*
X149162014Y-106864277D01*
X149011670Y-106699051D01*
X149007619Y-106695852D01*
X149007615Y-106695848D01*
X148840414Y-106563800D01*
X148840410Y-106563798D01*
X148836359Y-106560598D01*
X148795053Y-106537796D01*
X148745084Y-106487364D01*
X148730312Y-106417921D01*
X148755428Y-106351516D01*
X148782780Y-106324909D01*
X148826603Y-106293650D01*
X148961860Y-106197173D01*
X149120096Y-106039489D01*
X149179594Y-105956689D01*
X149247435Y-105862277D01*
X149250453Y-105858077D01*
X149349430Y-105657811D01*
X149414370Y-105444069D01*
X149443529Y-105222590D01*
X149445156Y-105156000D01*
X149426852Y-104933361D01*
X149372431Y-104716702D01*
X149283354Y-104511840D01*
X149162014Y-104324277D01*
X149011670Y-104159051D01*
X149007619Y-104155852D01*
X149007615Y-104155848D01*
X148840414Y-104023800D01*
X148840410Y-104023798D01*
X148836359Y-104020598D01*
X148794569Y-103997529D01*
X148744598Y-103947097D01*
X148729826Y-103877654D01*
X148754942Y-103811248D01*
X148782294Y-103784641D01*
X148957328Y-103659792D01*
X148965200Y-103653139D01*
X149116052Y-103502812D01*
X149122730Y-103494965D01*
X149247003Y-103322020D01*
X149252313Y-103313183D01*
X149346670Y-103122267D01*
X149350469Y-103112672D01*
X149412377Y-102908910D01*
X149414555Y-102898837D01*
X149415986Y-102887962D01*
X149413775Y-102873778D01*
X149400617Y-102870000D01*
X146765225Y-102870000D01*
X146751694Y-102873973D01*
X146750257Y-102883966D01*
X146780565Y-103018446D01*
X146783645Y-103028275D01*
X146863770Y-103225603D01*
X146868413Y-103234794D01*
X146979694Y-103416388D01*
X146985777Y-103424699D01*
X147125213Y-103585667D01*
X147132580Y-103592883D01*
X147296434Y-103728916D01*
X147304881Y-103734831D01*
X147373969Y-103775203D01*
X147422693Y-103826842D01*
X147435764Y-103896625D01*
X147409033Y-103962396D01*
X147368584Y-103995752D01*
X147355607Y-104002507D01*
X147351474Y-104005610D01*
X147351471Y-104005612D01*
X147327247Y-104023800D01*
X147176965Y-104136635D01*
X147022629Y-104298138D01*
X146896743Y-104482680D01*
X146802688Y-104685305D01*
X146742989Y-104900570D01*
X146719251Y-105122695D01*
X146719548Y-105127848D01*
X146719548Y-105127851D01*
X146725011Y-105222590D01*
X146732110Y-105345715D01*
X146733247Y-105350761D01*
X146733248Y-105350767D01*
X146753119Y-105438939D01*
X146781222Y-105563639D01*
X146865266Y-105770616D01*
X146981987Y-105961088D01*
X147128250Y-106129938D01*
X147300126Y-106272632D01*
X147370595Y-106313811D01*
X147373445Y-106315476D01*
X147422169Y-106367114D01*
X147435240Y-106436897D01*
X147408509Y-106502669D01*
X147368055Y-106536027D01*
X147355607Y-106542507D01*
X147351474Y-106545610D01*
X147351471Y-106545612D01*
X147327247Y-106563800D01*
X147176965Y-106676635D01*
X147022629Y-106838138D01*
X146896743Y-107022680D01*
X146802688Y-107225305D01*
X146742989Y-107440570D01*
X146719251Y-107662695D01*
X146719548Y-107667848D01*
X146719548Y-107667851D01*
X146725011Y-107762590D01*
X146732110Y-107885715D01*
X146733247Y-107890761D01*
X146733248Y-107890767D01*
X146753119Y-107978939D01*
X146781222Y-108103639D01*
X146865266Y-108310616D01*
X146981987Y-108501088D01*
X147128250Y-108669938D01*
X147300126Y-108812632D01*
X147370595Y-108853811D01*
X147373445Y-108855476D01*
X147422169Y-108907114D01*
X147435240Y-108976897D01*
X147408509Y-109042669D01*
X147368055Y-109076027D01*
X147355607Y-109082507D01*
X147351474Y-109085610D01*
X147351471Y-109085612D01*
X147327247Y-109103800D01*
X147176965Y-109216635D01*
X147022629Y-109378138D01*
X146896743Y-109562680D01*
X146802688Y-109765305D01*
X146742989Y-109980570D01*
X146719251Y-110202695D01*
X146719548Y-110207848D01*
X146719548Y-110207851D01*
X146725011Y-110302590D01*
X146732110Y-110425715D01*
X146733247Y-110430761D01*
X146733248Y-110430767D01*
X146753119Y-110518939D01*
X146781222Y-110643639D01*
X146865266Y-110850616D01*
X146981987Y-111041088D01*
X147128250Y-111209938D01*
X147300126Y-111352632D01*
X147370595Y-111393811D01*
X147373445Y-111395476D01*
X147422169Y-111447114D01*
X147435240Y-111516897D01*
X147408509Y-111582669D01*
X147368055Y-111616027D01*
X147355607Y-111622507D01*
X147351474Y-111625610D01*
X147351471Y-111625612D01*
X147327247Y-111643800D01*
X147176965Y-111756635D01*
X147022629Y-111918138D01*
X146896743Y-112102680D01*
X146802688Y-112305305D01*
X146742989Y-112520570D01*
X146719251Y-112742695D01*
X146719548Y-112747848D01*
X146719548Y-112747851D01*
X146725011Y-112842590D01*
X146732110Y-112965715D01*
X146733247Y-112970761D01*
X146733248Y-112970767D01*
X146753119Y-113058939D01*
X146781222Y-113183639D01*
X146865266Y-113390616D01*
X146981987Y-113581088D01*
X147128250Y-113749938D01*
X147300126Y-113892632D01*
X147370595Y-113933811D01*
X147373445Y-113935476D01*
X147422169Y-113987114D01*
X147435240Y-114056897D01*
X147408509Y-114122669D01*
X147368055Y-114156027D01*
X147355607Y-114162507D01*
X147351474Y-114165610D01*
X147351471Y-114165612D01*
X147327247Y-114183800D01*
X147176965Y-114296635D01*
X147022629Y-114458138D01*
X146896743Y-114642680D01*
X146802688Y-114845305D01*
X146742989Y-115060570D01*
X146719251Y-115282695D01*
X146719548Y-115287848D01*
X146719548Y-115287851D01*
X146725011Y-115382590D01*
X146732110Y-115505715D01*
X146733247Y-115510761D01*
X146733248Y-115510767D01*
X146753119Y-115598939D01*
X146781222Y-115723639D01*
X146865266Y-115930616D01*
X146981987Y-116121088D01*
X147128250Y-116289938D01*
X147300126Y-116432632D01*
X147370595Y-116473811D01*
X147373445Y-116475476D01*
X147422169Y-116527114D01*
X147435240Y-116596897D01*
X147408509Y-116662669D01*
X147368055Y-116696027D01*
X147355607Y-116702507D01*
X147351474Y-116705610D01*
X147351471Y-116705612D01*
X147327247Y-116723800D01*
X147176965Y-116836635D01*
X147022629Y-116998138D01*
X146896743Y-117182680D01*
X146802688Y-117385305D01*
X146742989Y-117600570D01*
X146719251Y-117822695D01*
X146719548Y-117827848D01*
X146719548Y-117827851D01*
X146725011Y-117922590D01*
X146732110Y-118045715D01*
X146733247Y-118050761D01*
X146733248Y-118050767D01*
X146753119Y-118138939D01*
X146781222Y-118263639D01*
X146865266Y-118470616D01*
X146981987Y-118661088D01*
X147128250Y-118829938D01*
X147300126Y-118972632D01*
X147370595Y-119013811D01*
X147373445Y-119015476D01*
X147422169Y-119067114D01*
X147435240Y-119136897D01*
X147408509Y-119202669D01*
X147368055Y-119236027D01*
X147355607Y-119242507D01*
X147351474Y-119245610D01*
X147351471Y-119245612D01*
X147327247Y-119263800D01*
X147176965Y-119376635D01*
X147022629Y-119538138D01*
X146896743Y-119722680D01*
X146802688Y-119925305D01*
X146742989Y-120140570D01*
X146719251Y-120362695D01*
X146719548Y-120367848D01*
X146719548Y-120367851D01*
X146725011Y-120462590D01*
X146732110Y-120585715D01*
X146733247Y-120590761D01*
X146733248Y-120590767D01*
X146753119Y-120678939D01*
X146781222Y-120803639D01*
X146865266Y-121010616D01*
X146981987Y-121201088D01*
X147128250Y-121369938D01*
X147300126Y-121512632D01*
X147370595Y-121553811D01*
X147373445Y-121555476D01*
X147422169Y-121607114D01*
X147435240Y-121676897D01*
X147408509Y-121742669D01*
X147368055Y-121776027D01*
X147355607Y-121782507D01*
X147351474Y-121785610D01*
X147351471Y-121785612D01*
X147327247Y-121803800D01*
X147176965Y-121916635D01*
X147022629Y-122078138D01*
X146896743Y-122262680D01*
X146802688Y-122465305D01*
X146742989Y-122680570D01*
X146719251Y-122902695D01*
X146719548Y-122907848D01*
X146719548Y-122907851D01*
X146725011Y-123002590D01*
X146732110Y-123125715D01*
X146733247Y-123130761D01*
X146733248Y-123130767D01*
X146753119Y-123218939D01*
X146781222Y-123343639D01*
X146865266Y-123550616D01*
X146981987Y-123741088D01*
X147128250Y-123909938D01*
X147300126Y-124052632D01*
X147370595Y-124093811D01*
X147373445Y-124095476D01*
X147422169Y-124147114D01*
X147435240Y-124216897D01*
X147408509Y-124282669D01*
X147368055Y-124316027D01*
X147355607Y-124322507D01*
X147351474Y-124325610D01*
X147351471Y-124325612D01*
X147327247Y-124343800D01*
X147176965Y-124456635D01*
X147022629Y-124618138D01*
X146896743Y-124802680D01*
X146802688Y-125005305D01*
X146742989Y-125220570D01*
X146719251Y-125442695D01*
X146719548Y-125447848D01*
X146719548Y-125447851D01*
X146725011Y-125542590D01*
X146732110Y-125665715D01*
X146733247Y-125670761D01*
X146733248Y-125670767D01*
X146753119Y-125758939D01*
X146781222Y-125883639D01*
X146865266Y-126090616D01*
X146981987Y-126281088D01*
X147128250Y-126449938D01*
X147300126Y-126592632D01*
X147370595Y-126633811D01*
X147373445Y-126635476D01*
X147422169Y-126687114D01*
X147435240Y-126756897D01*
X147408509Y-126822669D01*
X147368055Y-126856027D01*
X147355607Y-126862507D01*
X147351474Y-126865610D01*
X147351471Y-126865612D01*
X147327247Y-126883800D01*
X147176965Y-126996635D01*
X147022629Y-127158138D01*
X146896743Y-127342680D01*
X146802688Y-127545305D01*
X146742989Y-127760570D01*
X146719251Y-127982695D01*
X126582418Y-127982695D01*
X126566852Y-127793361D01*
X126512431Y-127576702D01*
X126423354Y-127371840D01*
X126302014Y-127184277D01*
X126151670Y-127019051D01*
X126147619Y-127015852D01*
X126147615Y-127015848D01*
X125980414Y-126883800D01*
X125980410Y-126883798D01*
X125976359Y-126880598D01*
X125935053Y-126857796D01*
X125885084Y-126807364D01*
X125870312Y-126737921D01*
X125895428Y-126671516D01*
X125922780Y-126644909D01*
X125966603Y-126613650D01*
X126101860Y-126517173D01*
X126260096Y-126359489D01*
X126319594Y-126276689D01*
X126387435Y-126182277D01*
X126390453Y-126178077D01*
X126489430Y-125977811D01*
X126554370Y-125764069D01*
X126583529Y-125542590D01*
X126585156Y-125476000D01*
X126566852Y-125253361D01*
X126512431Y-125036702D01*
X126423354Y-124831840D01*
X126302014Y-124644277D01*
X126151670Y-124479051D01*
X126147619Y-124475852D01*
X126147615Y-124475848D01*
X125980414Y-124343800D01*
X125980410Y-124343798D01*
X125976359Y-124340598D01*
X125935053Y-124317796D01*
X125885084Y-124267364D01*
X125870312Y-124197921D01*
X125895428Y-124131516D01*
X125922780Y-124104909D01*
X125966603Y-124073650D01*
X126101860Y-123977173D01*
X126260096Y-123819489D01*
X126319594Y-123736689D01*
X126387435Y-123642277D01*
X126390453Y-123638077D01*
X126489430Y-123437811D01*
X126554370Y-123224069D01*
X126583529Y-123002590D01*
X126585156Y-122936000D01*
X126566852Y-122713361D01*
X126512431Y-122496702D01*
X126423354Y-122291840D01*
X126302014Y-122104277D01*
X126151670Y-121939051D01*
X126147619Y-121935852D01*
X126147615Y-121935848D01*
X125980414Y-121803800D01*
X125980410Y-121803798D01*
X125976359Y-121800598D01*
X125935053Y-121777796D01*
X125885084Y-121727364D01*
X125870312Y-121657921D01*
X125895428Y-121591516D01*
X125922780Y-121564909D01*
X125966603Y-121533650D01*
X126101860Y-121437173D01*
X126260096Y-121279489D01*
X126319594Y-121196689D01*
X126387435Y-121102277D01*
X126390453Y-121098077D01*
X126489430Y-120897811D01*
X126554370Y-120684069D01*
X126583529Y-120462590D01*
X126585156Y-120396000D01*
X126566852Y-120173361D01*
X126512431Y-119956702D01*
X126423354Y-119751840D01*
X126302014Y-119564277D01*
X126151670Y-119399051D01*
X126147619Y-119395852D01*
X126147615Y-119395848D01*
X125980414Y-119263800D01*
X125980410Y-119263798D01*
X125976359Y-119260598D01*
X125935053Y-119237796D01*
X125885084Y-119187364D01*
X125870312Y-119117921D01*
X125895428Y-119051516D01*
X125922780Y-119024909D01*
X125966603Y-118993650D01*
X126101860Y-118897173D01*
X126260096Y-118739489D01*
X126319594Y-118656689D01*
X126387435Y-118562277D01*
X126390453Y-118558077D01*
X126489430Y-118357811D01*
X126554370Y-118144069D01*
X126583529Y-117922590D01*
X126585156Y-117856000D01*
X126566852Y-117633361D01*
X126512431Y-117416702D01*
X126423354Y-117211840D01*
X126302014Y-117024277D01*
X126151670Y-116859051D01*
X126147619Y-116855852D01*
X126147615Y-116855848D01*
X125980414Y-116723800D01*
X125980410Y-116723798D01*
X125976359Y-116720598D01*
X125935053Y-116697796D01*
X125885084Y-116647364D01*
X125870312Y-116577921D01*
X125895428Y-116511516D01*
X125922780Y-116484909D01*
X125966603Y-116453650D01*
X126101860Y-116357173D01*
X126260096Y-116199489D01*
X126319594Y-116116689D01*
X126387435Y-116022277D01*
X126390453Y-116018077D01*
X126489430Y-115817811D01*
X126554370Y-115604069D01*
X126583529Y-115382590D01*
X126585156Y-115316000D01*
X126566852Y-115093361D01*
X126512431Y-114876702D01*
X126423354Y-114671840D01*
X126302014Y-114484277D01*
X126151670Y-114319051D01*
X126147619Y-114315852D01*
X126147615Y-114315848D01*
X125980414Y-114183800D01*
X125980410Y-114183798D01*
X125976359Y-114180598D01*
X125935053Y-114157796D01*
X125885084Y-114107364D01*
X125870312Y-114037921D01*
X125895428Y-113971516D01*
X125922780Y-113944909D01*
X125966603Y-113913650D01*
X126101860Y-113817173D01*
X126260096Y-113659489D01*
X126319594Y-113576689D01*
X126387435Y-113482277D01*
X126390453Y-113478077D01*
X126489430Y-113277811D01*
X126554370Y-113064069D01*
X126583529Y-112842590D01*
X126585156Y-112776000D01*
X126566852Y-112553361D01*
X126512431Y-112336702D01*
X126423354Y-112131840D01*
X126302014Y-111944277D01*
X126151670Y-111779051D01*
X126147619Y-111775852D01*
X126147615Y-111775848D01*
X125980414Y-111643800D01*
X125980410Y-111643798D01*
X125976359Y-111640598D01*
X125935053Y-111617796D01*
X125885084Y-111567364D01*
X125870312Y-111497921D01*
X125895428Y-111431516D01*
X125922780Y-111404909D01*
X125966603Y-111373650D01*
X126101860Y-111277173D01*
X126260096Y-111119489D01*
X126319594Y-111036689D01*
X126387435Y-110942277D01*
X126390453Y-110938077D01*
X126489430Y-110737811D01*
X126554370Y-110524069D01*
X126583529Y-110302590D01*
X126585156Y-110236000D01*
X126566852Y-110013361D01*
X126512431Y-109796702D01*
X126423354Y-109591840D01*
X126302014Y-109404277D01*
X126151670Y-109239051D01*
X126147619Y-109235852D01*
X126147615Y-109235848D01*
X125980414Y-109103800D01*
X125980410Y-109103798D01*
X125976359Y-109100598D01*
X125935053Y-109077796D01*
X125885084Y-109027364D01*
X125870312Y-108957921D01*
X125895428Y-108891516D01*
X125922780Y-108864909D01*
X125966603Y-108833650D01*
X126101860Y-108737173D01*
X126260096Y-108579489D01*
X126319594Y-108496689D01*
X126387435Y-108402277D01*
X126390453Y-108398077D01*
X126489430Y-108197811D01*
X126554370Y-107984069D01*
X126583529Y-107762590D01*
X126585156Y-107696000D01*
X126566852Y-107473361D01*
X126512431Y-107256702D01*
X126423354Y-107051840D01*
X126302014Y-106864277D01*
X126151670Y-106699051D01*
X126147619Y-106695852D01*
X126147615Y-106695848D01*
X125980414Y-106563800D01*
X125980410Y-106563798D01*
X125976359Y-106560598D01*
X125935053Y-106537796D01*
X125885084Y-106487364D01*
X125870312Y-106417921D01*
X125895428Y-106351516D01*
X125922780Y-106324909D01*
X125966603Y-106293650D01*
X126101860Y-106197173D01*
X126260096Y-106039489D01*
X126319594Y-105956689D01*
X126387435Y-105862277D01*
X126390453Y-105858077D01*
X126489430Y-105657811D01*
X126554370Y-105444069D01*
X126583529Y-105222590D01*
X126585156Y-105156000D01*
X126566852Y-104933361D01*
X126512431Y-104716702D01*
X126423354Y-104511840D01*
X126302014Y-104324277D01*
X126151670Y-104159051D01*
X126147619Y-104155852D01*
X126147615Y-104155848D01*
X125980414Y-104023800D01*
X125980410Y-104023798D01*
X125976359Y-104020598D01*
X125935053Y-103997796D01*
X125885084Y-103947364D01*
X125870312Y-103877921D01*
X125895428Y-103811516D01*
X125922780Y-103784909D01*
X125966603Y-103753650D01*
X126101860Y-103657173D01*
X126260096Y-103499489D01*
X126319594Y-103416689D01*
X126387435Y-103322277D01*
X126390453Y-103318077D01*
X126489430Y-103117811D01*
X126554370Y-102904069D01*
X126583529Y-102682590D01*
X126585156Y-102616000D01*
X126566852Y-102393361D01*
X126512431Y-102176702D01*
X126423354Y-101971840D01*
X126302014Y-101784277D01*
X126151670Y-101619051D01*
X126147619Y-101615852D01*
X126147615Y-101615848D01*
X125980414Y-101483800D01*
X125980410Y-101483798D01*
X125976359Y-101480598D01*
X125935053Y-101457796D01*
X125885084Y-101407364D01*
X125870312Y-101337921D01*
X125895428Y-101271516D01*
X125922780Y-101244909D01*
X125966603Y-101213650D01*
X126101860Y-101117173D01*
X126260096Y-100959489D01*
X126319594Y-100876689D01*
X126387435Y-100782277D01*
X126390453Y-100778077D01*
X126489430Y-100577811D01*
X126554370Y-100364069D01*
X126583529Y-100142590D01*
X126585156Y-100076000D01*
X126582418Y-100042695D01*
X146719251Y-100042695D01*
X146719548Y-100047848D01*
X146719548Y-100047851D01*
X146725011Y-100142590D01*
X146732110Y-100265715D01*
X146733247Y-100270761D01*
X146733248Y-100270767D01*
X146753119Y-100358939D01*
X146781222Y-100483639D01*
X146865266Y-100690616D01*
X146981987Y-100881088D01*
X147128250Y-101049938D01*
X147300126Y-101192632D01*
X147373445Y-101235476D01*
X147373955Y-101235774D01*
X147422679Y-101287412D01*
X147435750Y-101357195D01*
X147409019Y-101422967D01*
X147368562Y-101456327D01*
X147360457Y-101460546D01*
X147351738Y-101466036D01*
X147181433Y-101593905D01*
X147173726Y-101600748D01*
X147026590Y-101754717D01*
X147020104Y-101762727D01*
X146900098Y-101938649D01*
X146895000Y-101947623D01*
X146805338Y-102140783D01*
X146801775Y-102150470D01*
X146746389Y-102350183D01*
X146747912Y-102358607D01*
X146760292Y-102362000D01*
X149400344Y-102362000D01*
X149413875Y-102358027D01*
X149415180Y-102348947D01*
X149373214Y-102181875D01*
X149369894Y-102172124D01*
X149284972Y-101976814D01*
X149280105Y-101967739D01*
X149164426Y-101788926D01*
X149158136Y-101780757D01*
X149014806Y-101623240D01*
X149007273Y-101616215D01*
X148840139Y-101484222D01*
X148831556Y-101478520D01*
X148794602Y-101458120D01*
X148744631Y-101407687D01*
X148729859Y-101338245D01*
X148754975Y-101271839D01*
X148782327Y-101245232D01*
X148805797Y-101228491D01*
X148961860Y-101117173D01*
X149120096Y-100959489D01*
X149179594Y-100876689D01*
X149247435Y-100782277D01*
X149250453Y-100778077D01*
X149349430Y-100577811D01*
X149414370Y-100364069D01*
X149443529Y-100142590D01*
X149445156Y-100076000D01*
X149426852Y-99853361D01*
X149372431Y-99636702D01*
X149283354Y-99431840D01*
X149162014Y-99244277D01*
X149011670Y-99079051D01*
X149007619Y-99075852D01*
X149007615Y-99075848D01*
X148840414Y-98943800D01*
X148840410Y-98943798D01*
X148836359Y-98940598D01*
X148795053Y-98917796D01*
X148745084Y-98867364D01*
X148730312Y-98797921D01*
X148755428Y-98731516D01*
X148782780Y-98704909D01*
X148826603Y-98673650D01*
X148961860Y-98577173D01*
X149120096Y-98419489D01*
X149179594Y-98336689D01*
X149247435Y-98242277D01*
X149250453Y-98238077D01*
X149349430Y-98037811D01*
X149414370Y-97824069D01*
X149443529Y-97602590D01*
X149445156Y-97536000D01*
X149426852Y-97313361D01*
X149372431Y-97096702D01*
X149283354Y-96891840D01*
X149162014Y-96704277D01*
X149011670Y-96539051D01*
X149007619Y-96535852D01*
X149007615Y-96535848D01*
X148840414Y-96403800D01*
X148840410Y-96403798D01*
X148836359Y-96400598D01*
X148795053Y-96377796D01*
X148745084Y-96327364D01*
X148730312Y-96257921D01*
X148755428Y-96191516D01*
X148782780Y-96164909D01*
X148826603Y-96133650D01*
X148961860Y-96037173D01*
X149120096Y-95879489D01*
X149179594Y-95796689D01*
X149247435Y-95702277D01*
X149250453Y-95698077D01*
X149349430Y-95497811D01*
X149414370Y-95284069D01*
X149443529Y-95062590D01*
X149445156Y-94996000D01*
X149426852Y-94773361D01*
X149372431Y-94556702D01*
X149283354Y-94351840D01*
X149162014Y-94164277D01*
X149011670Y-93999051D01*
X149007619Y-93995852D01*
X149007615Y-93995848D01*
X148840414Y-93863800D01*
X148840410Y-93863798D01*
X148836359Y-93860598D01*
X148795053Y-93837796D01*
X148745084Y-93787364D01*
X148730312Y-93717921D01*
X148755428Y-93651516D01*
X148782780Y-93624909D01*
X148826603Y-93593650D01*
X148961860Y-93497173D01*
X149120096Y-93339489D01*
X149179594Y-93256689D01*
X149247435Y-93162277D01*
X149250453Y-93158077D01*
X149349430Y-92957811D01*
X149414370Y-92744069D01*
X149443529Y-92522590D01*
X149445156Y-92456000D01*
X149426852Y-92233361D01*
X149372431Y-92016702D01*
X149283354Y-91811840D01*
X149162014Y-91624277D01*
X149011670Y-91459051D01*
X149007619Y-91455852D01*
X149007615Y-91455848D01*
X148840414Y-91323800D01*
X148840410Y-91323798D01*
X148836359Y-91320598D01*
X148795053Y-91297796D01*
X148745084Y-91247364D01*
X148730312Y-91177921D01*
X148755428Y-91111516D01*
X148782780Y-91084909D01*
X148826603Y-91053650D01*
X148961860Y-90957173D01*
X149120096Y-90799489D01*
X149179594Y-90716689D01*
X149247435Y-90622277D01*
X149250453Y-90618077D01*
X149349430Y-90417811D01*
X149414370Y-90204069D01*
X149443529Y-89982590D01*
X149445156Y-89916000D01*
X149426852Y-89693361D01*
X149372431Y-89476702D01*
X149283354Y-89271840D01*
X149162014Y-89084277D01*
X149011670Y-88919051D01*
X149007619Y-88915852D01*
X149007615Y-88915848D01*
X148840414Y-88783800D01*
X148840410Y-88783798D01*
X148836359Y-88780598D01*
X148795053Y-88757796D01*
X148745084Y-88707364D01*
X148730312Y-88637921D01*
X148755428Y-88571516D01*
X148782780Y-88544909D01*
X148826603Y-88513650D01*
X148961860Y-88417173D01*
X149120096Y-88259489D01*
X149179594Y-88176689D01*
X149247435Y-88082277D01*
X149250453Y-88078077D01*
X149349430Y-87877811D01*
X149414370Y-87664069D01*
X149443529Y-87442590D01*
X149445156Y-87376000D01*
X149426852Y-87153361D01*
X149372431Y-86936702D01*
X149283354Y-86731840D01*
X149162014Y-86544277D01*
X149011670Y-86379051D01*
X149007619Y-86375852D01*
X149007615Y-86375848D01*
X148840414Y-86243800D01*
X148840410Y-86243798D01*
X148836359Y-86240598D01*
X148795053Y-86217796D01*
X148745084Y-86167364D01*
X148730312Y-86097921D01*
X148755428Y-86031516D01*
X148782780Y-86004909D01*
X148826603Y-85973650D01*
X148961860Y-85877173D01*
X149120096Y-85719489D01*
X149179594Y-85636689D01*
X149247435Y-85542277D01*
X149250453Y-85538077D01*
X149349430Y-85337811D01*
X149414370Y-85124069D01*
X149443529Y-84902590D01*
X149445156Y-84836000D01*
X149426852Y-84613361D01*
X149372431Y-84396702D01*
X149283354Y-84191840D01*
X149162014Y-84004277D01*
X149011670Y-83839051D01*
X149007619Y-83835852D01*
X149007615Y-83835848D01*
X148840414Y-83703800D01*
X148840410Y-83703798D01*
X148836359Y-83700598D01*
X148795053Y-83677796D01*
X148745084Y-83627364D01*
X148730312Y-83557921D01*
X148755428Y-83491516D01*
X148782780Y-83464909D01*
X148826603Y-83433650D01*
X148961860Y-83337173D01*
X149120096Y-83179489D01*
X149179594Y-83096689D01*
X149247435Y-83002277D01*
X149250453Y-82998077D01*
X149349430Y-82797811D01*
X149414370Y-82584069D01*
X149443529Y-82362590D01*
X149445156Y-82296000D01*
X149426852Y-82073361D01*
X149372431Y-81856702D01*
X149283354Y-81651840D01*
X149162014Y-81464277D01*
X149011670Y-81299051D01*
X149007619Y-81295852D01*
X149007615Y-81295848D01*
X148840414Y-81163800D01*
X148840410Y-81163798D01*
X148836359Y-81160598D01*
X148795053Y-81137796D01*
X148745084Y-81087364D01*
X148730312Y-81017921D01*
X148755428Y-80951516D01*
X148782780Y-80924909D01*
X148826603Y-80893650D01*
X148961860Y-80797173D01*
X149120096Y-80639489D01*
X149179594Y-80556689D01*
X149247435Y-80462277D01*
X149250453Y-80458077D01*
X149349430Y-80257811D01*
X149414370Y-80044069D01*
X149443529Y-79822590D01*
X149445156Y-79756000D01*
X149426852Y-79533361D01*
X149372431Y-79316702D01*
X149283354Y-79111840D01*
X149162014Y-78924277D01*
X149011670Y-78759051D01*
X149007619Y-78755852D01*
X149007615Y-78755848D01*
X148840414Y-78623800D01*
X148840410Y-78623798D01*
X148836359Y-78620598D01*
X148795053Y-78597796D01*
X148745084Y-78547364D01*
X148730312Y-78477921D01*
X148755428Y-78411516D01*
X148782780Y-78384909D01*
X148826603Y-78353650D01*
X148961860Y-78257173D01*
X149120096Y-78099489D01*
X149179594Y-78016689D01*
X149247435Y-77922277D01*
X149250453Y-77918077D01*
X149349430Y-77717811D01*
X149414370Y-77504069D01*
X149443529Y-77282590D01*
X149445156Y-77216000D01*
X149426852Y-76993361D01*
X149372431Y-76776702D01*
X149283354Y-76571840D01*
X149162014Y-76384277D01*
X149011670Y-76219051D01*
X149007619Y-76215852D01*
X149007615Y-76215848D01*
X148840414Y-76083800D01*
X148840410Y-76083798D01*
X148836359Y-76080598D01*
X148795053Y-76057796D01*
X148745084Y-76007364D01*
X148730312Y-75937921D01*
X148755428Y-75871516D01*
X148782780Y-75844909D01*
X148826603Y-75813650D01*
X148961860Y-75717173D01*
X149120096Y-75559489D01*
X149179594Y-75476689D01*
X149247435Y-75382277D01*
X149250453Y-75378077D01*
X149349430Y-75177811D01*
X149414370Y-74964069D01*
X149443529Y-74742590D01*
X149445156Y-74676000D01*
X149426852Y-74453361D01*
X149372431Y-74236702D01*
X149283354Y-74031840D01*
X149162014Y-73844277D01*
X149011670Y-73679051D01*
X149007619Y-73675852D01*
X149007615Y-73675848D01*
X148840414Y-73543800D01*
X148840410Y-73543798D01*
X148836359Y-73540598D01*
X148794569Y-73517529D01*
X148744598Y-73467097D01*
X148729826Y-73397654D01*
X148754942Y-73331248D01*
X148782294Y-73304641D01*
X148957328Y-73179792D01*
X148965200Y-73173139D01*
X149116052Y-73022812D01*
X149122730Y-73014965D01*
X149247003Y-72842020D01*
X149252313Y-72833183D01*
X149346670Y-72642267D01*
X149350469Y-72632672D01*
X149412377Y-72428910D01*
X149414555Y-72418837D01*
X149415986Y-72407962D01*
X149413775Y-72393778D01*
X149400617Y-72390000D01*
X146765225Y-72390000D01*
X146751694Y-72393973D01*
X146750257Y-72403966D01*
X146780565Y-72538446D01*
X146783645Y-72548275D01*
X146863770Y-72745603D01*
X146868413Y-72754794D01*
X146979694Y-72936388D01*
X146985777Y-72944699D01*
X147125213Y-73105667D01*
X147132580Y-73112883D01*
X147296434Y-73248916D01*
X147304881Y-73254831D01*
X147373969Y-73295203D01*
X147422693Y-73346842D01*
X147435764Y-73416625D01*
X147409033Y-73482396D01*
X147368584Y-73515752D01*
X147355607Y-73522507D01*
X147351474Y-73525610D01*
X147351471Y-73525612D01*
X147327247Y-73543800D01*
X147176965Y-73656635D01*
X147022629Y-73818138D01*
X146896743Y-74002680D01*
X146802688Y-74205305D01*
X146742989Y-74420570D01*
X146719251Y-74642695D01*
X146719548Y-74647848D01*
X146719548Y-74647851D01*
X146725011Y-74742590D01*
X146732110Y-74865715D01*
X146733247Y-74870761D01*
X146733248Y-74870767D01*
X146753119Y-74958939D01*
X146781222Y-75083639D01*
X146865266Y-75290616D01*
X146981987Y-75481088D01*
X147128250Y-75649938D01*
X147300126Y-75792632D01*
X147370595Y-75833811D01*
X147373445Y-75835476D01*
X147422169Y-75887114D01*
X147435240Y-75956897D01*
X147408509Y-76022669D01*
X147368055Y-76056027D01*
X147355607Y-76062507D01*
X147351474Y-76065610D01*
X147351471Y-76065612D01*
X147327247Y-76083800D01*
X147176965Y-76196635D01*
X147022629Y-76358138D01*
X146896743Y-76542680D01*
X146802688Y-76745305D01*
X146742989Y-76960570D01*
X146719251Y-77182695D01*
X146719548Y-77187848D01*
X146719548Y-77187851D01*
X146725011Y-77282590D01*
X146732110Y-77405715D01*
X146733247Y-77410761D01*
X146733248Y-77410767D01*
X146753119Y-77498939D01*
X146781222Y-77623639D01*
X146865266Y-77830616D01*
X146981987Y-78021088D01*
X147128250Y-78189938D01*
X147300126Y-78332632D01*
X147370595Y-78373811D01*
X147373445Y-78375476D01*
X147422169Y-78427114D01*
X147435240Y-78496897D01*
X147408509Y-78562669D01*
X147368055Y-78596027D01*
X147355607Y-78602507D01*
X147351474Y-78605610D01*
X147351471Y-78605612D01*
X147327247Y-78623800D01*
X147176965Y-78736635D01*
X147022629Y-78898138D01*
X146896743Y-79082680D01*
X146802688Y-79285305D01*
X146742989Y-79500570D01*
X146719251Y-79722695D01*
X146719548Y-79727848D01*
X146719548Y-79727851D01*
X146725011Y-79822590D01*
X146732110Y-79945715D01*
X146733247Y-79950761D01*
X146733248Y-79950767D01*
X146753119Y-80038939D01*
X146781222Y-80163639D01*
X146865266Y-80370616D01*
X146981987Y-80561088D01*
X147128250Y-80729938D01*
X147300126Y-80872632D01*
X147370595Y-80913811D01*
X147373445Y-80915476D01*
X147422169Y-80967114D01*
X147435240Y-81036897D01*
X147408509Y-81102669D01*
X147368055Y-81136027D01*
X147355607Y-81142507D01*
X147351474Y-81145610D01*
X147351471Y-81145612D01*
X147327247Y-81163800D01*
X147176965Y-81276635D01*
X147022629Y-81438138D01*
X146896743Y-81622680D01*
X146802688Y-81825305D01*
X146742989Y-82040570D01*
X146719251Y-82262695D01*
X146719548Y-82267848D01*
X146719548Y-82267851D01*
X146725011Y-82362590D01*
X146732110Y-82485715D01*
X146733247Y-82490761D01*
X146733248Y-82490767D01*
X146753119Y-82578939D01*
X146781222Y-82703639D01*
X146865266Y-82910616D01*
X146981987Y-83101088D01*
X147128250Y-83269938D01*
X147300126Y-83412632D01*
X147370595Y-83453811D01*
X147373445Y-83455476D01*
X147422169Y-83507114D01*
X147435240Y-83576897D01*
X147408509Y-83642669D01*
X147368055Y-83676027D01*
X147355607Y-83682507D01*
X147351474Y-83685610D01*
X147351471Y-83685612D01*
X147327247Y-83703800D01*
X147176965Y-83816635D01*
X147022629Y-83978138D01*
X146896743Y-84162680D01*
X146802688Y-84365305D01*
X146742989Y-84580570D01*
X146719251Y-84802695D01*
X146719548Y-84807848D01*
X146719548Y-84807851D01*
X146725011Y-84902590D01*
X146732110Y-85025715D01*
X146733247Y-85030761D01*
X146733248Y-85030767D01*
X146753119Y-85118939D01*
X146781222Y-85243639D01*
X146865266Y-85450616D01*
X146981987Y-85641088D01*
X147128250Y-85809938D01*
X147300126Y-85952632D01*
X147370595Y-85993811D01*
X147373445Y-85995476D01*
X147422169Y-86047114D01*
X147435240Y-86116897D01*
X147408509Y-86182669D01*
X147368055Y-86216027D01*
X147355607Y-86222507D01*
X147351474Y-86225610D01*
X147351471Y-86225612D01*
X147327247Y-86243800D01*
X147176965Y-86356635D01*
X147022629Y-86518138D01*
X146896743Y-86702680D01*
X146802688Y-86905305D01*
X146742989Y-87120570D01*
X146719251Y-87342695D01*
X146719548Y-87347848D01*
X146719548Y-87347851D01*
X146725011Y-87442590D01*
X146732110Y-87565715D01*
X146733247Y-87570761D01*
X146733248Y-87570767D01*
X146753119Y-87658939D01*
X146781222Y-87783639D01*
X146865266Y-87990616D01*
X146981987Y-88181088D01*
X147128250Y-88349938D01*
X147300126Y-88492632D01*
X147370595Y-88533811D01*
X147373445Y-88535476D01*
X147422169Y-88587114D01*
X147435240Y-88656897D01*
X147408509Y-88722669D01*
X147368055Y-88756027D01*
X147355607Y-88762507D01*
X147351474Y-88765610D01*
X147351471Y-88765612D01*
X147327247Y-88783800D01*
X147176965Y-88896635D01*
X147022629Y-89058138D01*
X146896743Y-89242680D01*
X146802688Y-89445305D01*
X146742989Y-89660570D01*
X146719251Y-89882695D01*
X146719548Y-89887848D01*
X146719548Y-89887851D01*
X146725011Y-89982590D01*
X146732110Y-90105715D01*
X146733247Y-90110761D01*
X146733248Y-90110767D01*
X146753119Y-90198939D01*
X146781222Y-90323639D01*
X146865266Y-90530616D01*
X146981987Y-90721088D01*
X147128250Y-90889938D01*
X147300126Y-91032632D01*
X147370595Y-91073811D01*
X147373445Y-91075476D01*
X147422169Y-91127114D01*
X147435240Y-91196897D01*
X147408509Y-91262669D01*
X147368055Y-91296027D01*
X147355607Y-91302507D01*
X147351474Y-91305610D01*
X147351471Y-91305612D01*
X147327247Y-91323800D01*
X147176965Y-91436635D01*
X147022629Y-91598138D01*
X146896743Y-91782680D01*
X146802688Y-91985305D01*
X146742989Y-92200570D01*
X146719251Y-92422695D01*
X146719548Y-92427848D01*
X146719548Y-92427851D01*
X146725011Y-92522590D01*
X146732110Y-92645715D01*
X146733247Y-92650761D01*
X146733248Y-92650767D01*
X146753119Y-92738939D01*
X146781222Y-92863639D01*
X146865266Y-93070616D01*
X146981987Y-93261088D01*
X147128250Y-93429938D01*
X147300126Y-93572632D01*
X147370595Y-93613811D01*
X147373445Y-93615476D01*
X147422169Y-93667114D01*
X147435240Y-93736897D01*
X147408509Y-93802669D01*
X147368055Y-93836027D01*
X147355607Y-93842507D01*
X147351474Y-93845610D01*
X147351471Y-93845612D01*
X147327247Y-93863800D01*
X147176965Y-93976635D01*
X147022629Y-94138138D01*
X147019715Y-94142410D01*
X147019714Y-94142411D01*
X147007404Y-94160457D01*
X146896743Y-94322680D01*
X146802688Y-94525305D01*
X146742989Y-94740570D01*
X146719251Y-94962695D01*
X146719548Y-94967848D01*
X146719548Y-94967851D01*
X146725011Y-95062590D01*
X146732110Y-95185715D01*
X146733247Y-95190761D01*
X146733248Y-95190767D01*
X146746597Y-95250000D01*
X146781222Y-95403639D01*
X146865266Y-95610616D01*
X146981987Y-95801088D01*
X147128250Y-95969938D01*
X147300126Y-96112632D01*
X147370595Y-96153811D01*
X147373445Y-96155476D01*
X147422169Y-96207114D01*
X147435240Y-96276897D01*
X147408509Y-96342669D01*
X147368055Y-96376027D01*
X147355607Y-96382507D01*
X147351474Y-96385610D01*
X147351471Y-96385612D01*
X147327247Y-96403800D01*
X147176965Y-96516635D01*
X147022629Y-96678138D01*
X146896743Y-96862680D01*
X146802688Y-97065305D01*
X146742989Y-97280570D01*
X146719251Y-97502695D01*
X146719548Y-97507848D01*
X146719548Y-97507851D01*
X146725011Y-97602590D01*
X146732110Y-97725715D01*
X146733247Y-97730761D01*
X146733248Y-97730767D01*
X146753119Y-97818939D01*
X146781222Y-97943639D01*
X146865266Y-98150616D01*
X146981987Y-98341088D01*
X147128250Y-98509938D01*
X147300126Y-98652632D01*
X147370595Y-98693811D01*
X147373445Y-98695476D01*
X147422169Y-98747114D01*
X147435240Y-98816897D01*
X147408509Y-98882669D01*
X147368055Y-98916027D01*
X147355607Y-98922507D01*
X147351474Y-98925610D01*
X147351471Y-98925612D01*
X147327247Y-98943800D01*
X147176965Y-99056635D01*
X147022629Y-99218138D01*
X146896743Y-99402680D01*
X146802688Y-99605305D01*
X146742989Y-99820570D01*
X146719251Y-100042695D01*
X126582418Y-100042695D01*
X126566852Y-99853361D01*
X126512431Y-99636702D01*
X126423354Y-99431840D01*
X126302014Y-99244277D01*
X126151670Y-99079051D01*
X126147619Y-99075852D01*
X126147615Y-99075848D01*
X125980414Y-98943800D01*
X125980410Y-98943798D01*
X125976359Y-98940598D01*
X125935053Y-98917796D01*
X125885084Y-98867364D01*
X125870312Y-98797921D01*
X125895428Y-98731516D01*
X125922780Y-98704909D01*
X125966603Y-98673650D01*
X126101860Y-98577173D01*
X126260096Y-98419489D01*
X126319594Y-98336689D01*
X126387435Y-98242277D01*
X126390453Y-98238077D01*
X126489430Y-98037811D01*
X126554370Y-97824069D01*
X126583529Y-97602590D01*
X126585156Y-97536000D01*
X126566852Y-97313361D01*
X126512431Y-97096702D01*
X126423354Y-96891840D01*
X126302014Y-96704277D01*
X126151670Y-96539051D01*
X126147619Y-96535852D01*
X126147615Y-96535848D01*
X125980414Y-96403800D01*
X125980410Y-96403798D01*
X125976359Y-96400598D01*
X125934569Y-96377529D01*
X125884598Y-96327097D01*
X125869826Y-96257654D01*
X125894942Y-96191248D01*
X125922294Y-96164641D01*
X126097328Y-96039792D01*
X126105200Y-96033139D01*
X126256052Y-95882812D01*
X126262730Y-95874965D01*
X126387003Y-95702020D01*
X126392313Y-95693183D01*
X126486670Y-95502267D01*
X126490469Y-95492672D01*
X126552377Y-95288910D01*
X126554555Y-95278837D01*
X126555986Y-95267962D01*
X126553775Y-95253778D01*
X126540617Y-95250000D01*
X123905225Y-95250000D01*
X123891694Y-95253973D01*
X123890257Y-95263966D01*
X123920565Y-95398446D01*
X123923645Y-95408275D01*
X124003770Y-95605603D01*
X124008413Y-95614794D01*
X124119694Y-95796388D01*
X124125777Y-95804699D01*
X124265213Y-95965667D01*
X124272580Y-95972883D01*
X124436434Y-96108916D01*
X124444881Y-96114831D01*
X124513969Y-96155203D01*
X124562693Y-96206842D01*
X124575764Y-96276625D01*
X124549033Y-96342396D01*
X124508584Y-96375752D01*
X124495607Y-96382507D01*
X124491474Y-96385610D01*
X124491471Y-96385612D01*
X124467247Y-96403800D01*
X124316965Y-96516635D01*
X124162629Y-96678138D01*
X124036743Y-96862680D01*
X123942688Y-97065305D01*
X123882989Y-97280570D01*
X123859251Y-97502695D01*
X123859548Y-97507848D01*
X123859548Y-97507851D01*
X123865011Y-97602590D01*
X123872110Y-97725715D01*
X123873247Y-97730761D01*
X123873248Y-97730767D01*
X123893119Y-97818939D01*
X123921222Y-97943639D01*
X124005266Y-98150616D01*
X124121987Y-98341088D01*
X124268250Y-98509938D01*
X124440126Y-98652632D01*
X124510595Y-98693811D01*
X124513445Y-98695476D01*
X124562169Y-98747114D01*
X124575240Y-98816897D01*
X124548509Y-98882669D01*
X124508055Y-98916027D01*
X124495607Y-98922507D01*
X124491474Y-98925610D01*
X124491471Y-98925612D01*
X124467247Y-98943800D01*
X124316965Y-99056635D01*
X124162629Y-99218138D01*
X124036743Y-99402680D01*
X123942688Y-99605305D01*
X123882989Y-99820570D01*
X123859251Y-100042695D01*
X123859548Y-100047848D01*
X123859548Y-100047851D01*
X123865011Y-100142590D01*
X123872110Y-100265715D01*
X123873247Y-100270761D01*
X123873248Y-100270767D01*
X123893119Y-100358939D01*
X123921222Y-100483639D01*
X124005266Y-100690616D01*
X124121987Y-100881088D01*
X124268250Y-101049938D01*
X124440126Y-101192632D01*
X124510595Y-101233811D01*
X124513445Y-101235476D01*
X124562169Y-101287114D01*
X124575240Y-101356897D01*
X124548509Y-101422669D01*
X124508055Y-101456027D01*
X124495607Y-101462507D01*
X124491474Y-101465610D01*
X124491471Y-101465612D01*
X124467247Y-101483800D01*
X124316965Y-101596635D01*
X124162629Y-101758138D01*
X124159715Y-101762410D01*
X124159714Y-101762411D01*
X124147404Y-101780457D01*
X124036743Y-101942680D01*
X123942688Y-102145305D01*
X123882989Y-102360570D01*
X123859251Y-102582695D01*
X123859548Y-102587848D01*
X123859548Y-102587851D01*
X123865011Y-102682590D01*
X123872110Y-102805715D01*
X123873247Y-102810761D01*
X123873248Y-102810767D01*
X123886597Y-102870000D01*
X123921222Y-103023639D01*
X124005266Y-103230616D01*
X124121987Y-103421088D01*
X124268250Y-103589938D01*
X124440126Y-103732632D01*
X124510595Y-103773811D01*
X124513445Y-103775476D01*
X124562169Y-103827114D01*
X124575240Y-103896897D01*
X124548509Y-103962669D01*
X124508055Y-103996027D01*
X124495607Y-104002507D01*
X124491474Y-104005610D01*
X124491471Y-104005612D01*
X124467247Y-104023800D01*
X124316965Y-104136635D01*
X124162629Y-104298138D01*
X124036743Y-104482680D01*
X123942688Y-104685305D01*
X123882989Y-104900570D01*
X123859251Y-105122695D01*
X123859548Y-105127848D01*
X123859548Y-105127851D01*
X123865011Y-105222590D01*
X123872110Y-105345715D01*
X123873247Y-105350761D01*
X123873248Y-105350767D01*
X123893119Y-105438939D01*
X123921222Y-105563639D01*
X124005266Y-105770616D01*
X124121987Y-105961088D01*
X124268250Y-106129938D01*
X124440126Y-106272632D01*
X124510595Y-106313811D01*
X124513445Y-106315476D01*
X124562169Y-106367114D01*
X124575240Y-106436897D01*
X124548509Y-106502669D01*
X124508055Y-106536027D01*
X124495607Y-106542507D01*
X124491474Y-106545610D01*
X124491471Y-106545612D01*
X124467247Y-106563800D01*
X124316965Y-106676635D01*
X124162629Y-106838138D01*
X124036743Y-107022680D01*
X123942688Y-107225305D01*
X123882989Y-107440570D01*
X123859251Y-107662695D01*
X123859548Y-107667848D01*
X123859548Y-107667851D01*
X123865011Y-107762590D01*
X123872110Y-107885715D01*
X123873247Y-107890761D01*
X123873248Y-107890767D01*
X123893119Y-107978939D01*
X123921222Y-108103639D01*
X124005266Y-108310616D01*
X124121987Y-108501088D01*
X124268250Y-108669938D01*
X124440126Y-108812632D01*
X124510595Y-108853811D01*
X124513445Y-108855476D01*
X124562169Y-108907114D01*
X124575240Y-108976897D01*
X124548509Y-109042669D01*
X124508055Y-109076027D01*
X124495607Y-109082507D01*
X124491474Y-109085610D01*
X124491471Y-109085612D01*
X124467247Y-109103800D01*
X124316965Y-109216635D01*
X124162629Y-109378138D01*
X124036743Y-109562680D01*
X123942688Y-109765305D01*
X123882989Y-109980570D01*
X123859251Y-110202695D01*
X123859548Y-110207848D01*
X123859548Y-110207851D01*
X123865011Y-110302590D01*
X123872110Y-110425715D01*
X123873247Y-110430761D01*
X123873248Y-110430767D01*
X123893119Y-110518939D01*
X123921222Y-110643639D01*
X124005266Y-110850616D01*
X124121987Y-111041088D01*
X124268250Y-111209938D01*
X124440126Y-111352632D01*
X124510595Y-111393811D01*
X124513445Y-111395476D01*
X124562169Y-111447114D01*
X124575240Y-111516897D01*
X124548509Y-111582669D01*
X124508055Y-111616027D01*
X124495607Y-111622507D01*
X124491474Y-111625610D01*
X124491471Y-111625612D01*
X124467247Y-111643800D01*
X124316965Y-111756635D01*
X124162629Y-111918138D01*
X124036743Y-112102680D01*
X123942688Y-112305305D01*
X123882989Y-112520570D01*
X123859251Y-112742695D01*
X123859548Y-112747848D01*
X123859548Y-112747851D01*
X123865011Y-112842590D01*
X123872110Y-112965715D01*
X123873247Y-112970761D01*
X123873248Y-112970767D01*
X123893119Y-113058939D01*
X123921222Y-113183639D01*
X124005266Y-113390616D01*
X124121987Y-113581088D01*
X124268250Y-113749938D01*
X124440126Y-113892632D01*
X124510595Y-113933811D01*
X124513445Y-113935476D01*
X124562169Y-113987114D01*
X124575240Y-114056897D01*
X124548509Y-114122669D01*
X124508055Y-114156027D01*
X124495607Y-114162507D01*
X124491474Y-114165610D01*
X124491471Y-114165612D01*
X124467247Y-114183800D01*
X124316965Y-114296635D01*
X124162629Y-114458138D01*
X124036743Y-114642680D01*
X123942688Y-114845305D01*
X123882989Y-115060570D01*
X123859251Y-115282695D01*
X123859548Y-115287848D01*
X123859548Y-115287851D01*
X123865011Y-115382590D01*
X123872110Y-115505715D01*
X123873247Y-115510761D01*
X123873248Y-115510767D01*
X123893119Y-115598939D01*
X123921222Y-115723639D01*
X124005266Y-115930616D01*
X124121987Y-116121088D01*
X124268250Y-116289938D01*
X124440126Y-116432632D01*
X124510595Y-116473811D01*
X124513445Y-116475476D01*
X124562169Y-116527114D01*
X124575240Y-116596897D01*
X124548509Y-116662669D01*
X124508055Y-116696027D01*
X124495607Y-116702507D01*
X124491474Y-116705610D01*
X124491471Y-116705612D01*
X124467247Y-116723800D01*
X124316965Y-116836635D01*
X124162629Y-116998138D01*
X124036743Y-117182680D01*
X123942688Y-117385305D01*
X123882989Y-117600570D01*
X123859251Y-117822695D01*
X123859548Y-117827848D01*
X123859548Y-117827851D01*
X123865011Y-117922590D01*
X123872110Y-118045715D01*
X123873247Y-118050761D01*
X123873248Y-118050767D01*
X123893119Y-118138939D01*
X123921222Y-118263639D01*
X124005266Y-118470616D01*
X124121987Y-118661088D01*
X124268250Y-118829938D01*
X124440126Y-118972632D01*
X124510595Y-119013811D01*
X124513445Y-119015476D01*
X124562169Y-119067114D01*
X124575240Y-119136897D01*
X124548509Y-119202669D01*
X124508055Y-119236027D01*
X124495607Y-119242507D01*
X124491474Y-119245610D01*
X124491471Y-119245612D01*
X124467247Y-119263800D01*
X124316965Y-119376635D01*
X124162629Y-119538138D01*
X124036743Y-119722680D01*
X123942688Y-119925305D01*
X123882989Y-120140570D01*
X123859251Y-120362695D01*
X123859548Y-120367848D01*
X123859548Y-120367851D01*
X123865011Y-120462590D01*
X123872110Y-120585715D01*
X123873247Y-120590761D01*
X123873248Y-120590767D01*
X123893119Y-120678939D01*
X123921222Y-120803639D01*
X124005266Y-121010616D01*
X124121987Y-121201088D01*
X124268250Y-121369938D01*
X124440126Y-121512632D01*
X124510595Y-121553811D01*
X124513445Y-121555476D01*
X124562169Y-121607114D01*
X124575240Y-121676897D01*
X124548509Y-121742669D01*
X124508055Y-121776027D01*
X124495607Y-121782507D01*
X124491474Y-121785610D01*
X124491471Y-121785612D01*
X124467247Y-121803800D01*
X124316965Y-121916635D01*
X124162629Y-122078138D01*
X124036743Y-122262680D01*
X123942688Y-122465305D01*
X123882989Y-122680570D01*
X123859251Y-122902695D01*
X123859548Y-122907848D01*
X123859548Y-122907851D01*
X123865011Y-123002590D01*
X123872110Y-123125715D01*
X123873247Y-123130761D01*
X123873248Y-123130767D01*
X123893119Y-123218939D01*
X123921222Y-123343639D01*
X124005266Y-123550616D01*
X124121987Y-123741088D01*
X124268250Y-123909938D01*
X124440126Y-124052632D01*
X124510595Y-124093811D01*
X124513445Y-124095476D01*
X124562169Y-124147114D01*
X124575240Y-124216897D01*
X124548509Y-124282669D01*
X124508055Y-124316027D01*
X124495607Y-124322507D01*
X124491474Y-124325610D01*
X124491471Y-124325612D01*
X124467247Y-124343800D01*
X124316965Y-124456635D01*
X124162629Y-124618138D01*
X124036743Y-124802680D01*
X123942688Y-125005305D01*
X123882989Y-125220570D01*
X123859251Y-125442695D01*
X123859548Y-125447848D01*
X123859548Y-125447851D01*
X123865011Y-125542590D01*
X123872110Y-125665715D01*
X123873247Y-125670761D01*
X123873248Y-125670767D01*
X123893119Y-125758939D01*
X123921222Y-125883639D01*
X124005266Y-126090616D01*
X124121987Y-126281088D01*
X124268250Y-126449938D01*
X124440126Y-126592632D01*
X124510595Y-126633811D01*
X124513445Y-126635476D01*
X124562169Y-126687114D01*
X124575240Y-126756897D01*
X124548509Y-126822669D01*
X124508055Y-126856027D01*
X124495607Y-126862507D01*
X124491474Y-126865610D01*
X124491471Y-126865612D01*
X124467247Y-126883800D01*
X124316965Y-126996635D01*
X124162629Y-127158138D01*
X124036743Y-127342680D01*
X123942688Y-127545305D01*
X123882989Y-127760570D01*
X123859251Y-127982695D01*
X123444500Y-127982695D01*
X123444500Y-92422695D01*
X123859251Y-92422695D01*
X123859548Y-92427848D01*
X123859548Y-92427851D01*
X123865011Y-92522590D01*
X123872110Y-92645715D01*
X123873247Y-92650761D01*
X123873248Y-92650767D01*
X123893119Y-92738939D01*
X123921222Y-92863639D01*
X124005266Y-93070616D01*
X124121987Y-93261088D01*
X124268250Y-93429938D01*
X124440126Y-93572632D01*
X124513445Y-93615476D01*
X124513955Y-93615774D01*
X124562679Y-93667412D01*
X124575750Y-93737195D01*
X124549019Y-93802967D01*
X124508562Y-93836327D01*
X124500457Y-93840546D01*
X124491738Y-93846036D01*
X124321433Y-93973905D01*
X124313726Y-93980748D01*
X124166590Y-94134717D01*
X124160104Y-94142727D01*
X124040098Y-94318649D01*
X124035000Y-94327623D01*
X123945338Y-94520783D01*
X123941775Y-94530470D01*
X123886389Y-94730183D01*
X123887912Y-94738607D01*
X123900292Y-94742000D01*
X126540344Y-94742000D01*
X126553875Y-94738027D01*
X126555180Y-94728947D01*
X126513214Y-94561875D01*
X126509894Y-94552124D01*
X126424972Y-94356814D01*
X126420105Y-94347739D01*
X126304426Y-94168926D01*
X126298136Y-94160757D01*
X126154806Y-94003240D01*
X126147273Y-93996215D01*
X125980139Y-93864222D01*
X125971556Y-93858520D01*
X125934602Y-93838120D01*
X125884631Y-93787687D01*
X125869859Y-93718245D01*
X125894975Y-93651839D01*
X125922327Y-93625232D01*
X125945797Y-93608491D01*
X126101860Y-93497173D01*
X126260096Y-93339489D01*
X126319594Y-93256689D01*
X126387435Y-93162277D01*
X126390453Y-93158077D01*
X126489430Y-92957811D01*
X126554370Y-92744069D01*
X126583529Y-92522590D01*
X126585156Y-92456000D01*
X126566852Y-92233361D01*
X126512431Y-92016702D01*
X126423354Y-91811840D01*
X126302014Y-91624277D01*
X126151670Y-91459051D01*
X126147619Y-91455852D01*
X126147615Y-91455848D01*
X125980414Y-91323800D01*
X125980410Y-91323798D01*
X125976359Y-91320598D01*
X125935053Y-91297796D01*
X125885084Y-91247364D01*
X125870312Y-91177921D01*
X125895428Y-91111516D01*
X125922780Y-91084909D01*
X125966603Y-91053650D01*
X126101860Y-90957173D01*
X126260096Y-90799489D01*
X126319594Y-90716689D01*
X126387435Y-90622277D01*
X126390453Y-90618077D01*
X126489430Y-90417811D01*
X126554370Y-90204069D01*
X126583529Y-89982590D01*
X126585156Y-89916000D01*
X126566852Y-89693361D01*
X126512431Y-89476702D01*
X126423354Y-89271840D01*
X126302014Y-89084277D01*
X126151670Y-88919051D01*
X126147619Y-88915852D01*
X126147615Y-88915848D01*
X125980414Y-88783800D01*
X125980410Y-88783798D01*
X125976359Y-88780598D01*
X125935053Y-88757796D01*
X125885084Y-88707364D01*
X125870312Y-88637921D01*
X125895428Y-88571516D01*
X125922780Y-88544909D01*
X125966603Y-88513650D01*
X126101860Y-88417173D01*
X126260096Y-88259489D01*
X126319594Y-88176689D01*
X126387435Y-88082277D01*
X126390453Y-88078077D01*
X126489430Y-87877811D01*
X126554370Y-87664069D01*
X126583529Y-87442590D01*
X126585156Y-87376000D01*
X126566852Y-87153361D01*
X126512431Y-86936702D01*
X126423354Y-86731840D01*
X126302014Y-86544277D01*
X126151670Y-86379051D01*
X126147619Y-86375852D01*
X126147615Y-86375848D01*
X125980414Y-86243800D01*
X125980410Y-86243798D01*
X125976359Y-86240598D01*
X125935053Y-86217796D01*
X125885084Y-86167364D01*
X125870312Y-86097921D01*
X125895428Y-86031516D01*
X125922780Y-86004909D01*
X125966603Y-85973650D01*
X126101860Y-85877173D01*
X126260096Y-85719489D01*
X126319594Y-85636689D01*
X126387435Y-85542277D01*
X126390453Y-85538077D01*
X126489430Y-85337811D01*
X126554370Y-85124069D01*
X126583529Y-84902590D01*
X126585156Y-84836000D01*
X126566852Y-84613361D01*
X126512431Y-84396702D01*
X126423354Y-84191840D01*
X126302014Y-84004277D01*
X126151670Y-83839051D01*
X126147619Y-83835852D01*
X126147615Y-83835848D01*
X125980414Y-83703800D01*
X125980410Y-83703798D01*
X125976359Y-83700598D01*
X125935053Y-83677796D01*
X125885084Y-83627364D01*
X125870312Y-83557921D01*
X125895428Y-83491516D01*
X125922780Y-83464909D01*
X125966603Y-83433650D01*
X126101860Y-83337173D01*
X126260096Y-83179489D01*
X126319594Y-83096689D01*
X126387435Y-83002277D01*
X126390453Y-82998077D01*
X126489430Y-82797811D01*
X126554370Y-82584069D01*
X126583529Y-82362590D01*
X126585156Y-82296000D01*
X126566852Y-82073361D01*
X126512431Y-81856702D01*
X126423354Y-81651840D01*
X126302014Y-81464277D01*
X126151670Y-81299051D01*
X126147619Y-81295852D01*
X126147615Y-81295848D01*
X125980414Y-81163800D01*
X125980410Y-81163798D01*
X125976359Y-81160598D01*
X125935053Y-81137796D01*
X125885084Y-81087364D01*
X125870312Y-81017921D01*
X125895428Y-80951516D01*
X125922780Y-80924909D01*
X125966603Y-80893650D01*
X126101860Y-80797173D01*
X126260096Y-80639489D01*
X126319594Y-80556689D01*
X126387435Y-80462277D01*
X126390453Y-80458077D01*
X126489430Y-80257811D01*
X126554370Y-80044069D01*
X126583529Y-79822590D01*
X126585156Y-79756000D01*
X126566852Y-79533361D01*
X126512431Y-79316702D01*
X126423354Y-79111840D01*
X126302014Y-78924277D01*
X126151670Y-78759051D01*
X126147619Y-78755852D01*
X126147615Y-78755848D01*
X125980414Y-78623800D01*
X125980410Y-78623798D01*
X125976359Y-78620598D01*
X125935053Y-78597796D01*
X125885084Y-78547364D01*
X125870312Y-78477921D01*
X125895428Y-78411516D01*
X125922780Y-78384909D01*
X125966603Y-78353650D01*
X126101860Y-78257173D01*
X126260096Y-78099489D01*
X126319594Y-78016689D01*
X126387435Y-77922277D01*
X126390453Y-77918077D01*
X126489430Y-77717811D01*
X126554370Y-77504069D01*
X126583529Y-77282590D01*
X126585156Y-77216000D01*
X126566852Y-76993361D01*
X126512431Y-76776702D01*
X126423354Y-76571840D01*
X126302014Y-76384277D01*
X126151670Y-76219051D01*
X126147619Y-76215852D01*
X126147615Y-76215848D01*
X125980414Y-76083800D01*
X125980410Y-76083798D01*
X125976359Y-76080598D01*
X125935053Y-76057796D01*
X125885084Y-76007364D01*
X125870312Y-75937921D01*
X125895428Y-75871516D01*
X125922780Y-75844909D01*
X125966603Y-75813650D01*
X126101860Y-75717173D01*
X126260096Y-75559489D01*
X126319594Y-75476689D01*
X126387435Y-75382277D01*
X126390453Y-75378077D01*
X126489430Y-75177811D01*
X126554370Y-74964069D01*
X126583529Y-74742590D01*
X126585156Y-74676000D01*
X126566852Y-74453361D01*
X126512431Y-74236702D01*
X126423354Y-74031840D01*
X126302014Y-73844277D01*
X126151670Y-73679051D01*
X126147619Y-73675852D01*
X126147615Y-73675848D01*
X125980414Y-73543800D01*
X125980410Y-73543798D01*
X125976359Y-73540598D01*
X125935053Y-73517796D01*
X125885084Y-73467364D01*
X125870312Y-73397921D01*
X125895428Y-73331516D01*
X125922780Y-73304909D01*
X125966603Y-73273650D01*
X126101860Y-73177173D01*
X126260096Y-73019489D01*
X126319594Y-72936689D01*
X126387435Y-72842277D01*
X126390453Y-72838077D01*
X126489430Y-72637811D01*
X126554370Y-72424069D01*
X126583529Y-72202590D01*
X126585156Y-72136000D01*
X126566852Y-71913361D01*
X126512431Y-71696702D01*
X126423354Y-71491840D01*
X126302014Y-71304277D01*
X126282405Y-71282727D01*
X126154798Y-71142488D01*
X126123746Y-71078642D01*
X126132141Y-71008143D01*
X126177317Y-70953375D01*
X126203761Y-70939706D01*
X126310297Y-70899767D01*
X126318705Y-70896615D01*
X126435261Y-70809261D01*
X126522615Y-70692705D01*
X126573745Y-70556316D01*
X126580500Y-70494134D01*
X146723500Y-70494134D01*
X146730255Y-70556316D01*
X146781385Y-70692705D01*
X146868739Y-70809261D01*
X146985295Y-70896615D01*
X146993704Y-70899767D01*
X146993705Y-70899768D01*
X147102960Y-70940726D01*
X147159725Y-70983367D01*
X147184425Y-71049929D01*
X147169218Y-71119278D01*
X147149825Y-71145759D01*
X147026590Y-71274717D01*
X147020104Y-71282727D01*
X146900098Y-71458649D01*
X146895000Y-71467623D01*
X146805338Y-71660783D01*
X146801775Y-71670470D01*
X146746389Y-71870183D01*
X146747912Y-71878607D01*
X146760292Y-71882000D01*
X149400344Y-71882000D01*
X149413875Y-71878027D01*
X149415180Y-71868947D01*
X149373214Y-71701875D01*
X149369894Y-71692124D01*
X149284972Y-71496814D01*
X149280105Y-71487739D01*
X149164426Y-71308926D01*
X149158136Y-71300757D01*
X149014293Y-71142677D01*
X148983241Y-71078831D01*
X148991635Y-71008333D01*
X149036812Y-70953564D01*
X149063256Y-70939895D01*
X149170297Y-70899767D01*
X149178705Y-70896615D01*
X149295261Y-70809261D01*
X149382615Y-70692705D01*
X149433745Y-70556316D01*
X149440500Y-70494134D01*
X149440500Y-68697866D01*
X149433745Y-68635684D01*
X149382615Y-68499295D01*
X149295261Y-68382739D01*
X149178705Y-68295385D01*
X149042316Y-68244255D01*
X148980134Y-68237500D01*
X147183866Y-68237500D01*
X147121684Y-68244255D01*
X146985295Y-68295385D01*
X146868739Y-68382739D01*
X146781385Y-68499295D01*
X146730255Y-68635684D01*
X146723500Y-68697866D01*
X146723500Y-70494134D01*
X126580500Y-70494134D01*
X126580500Y-68697866D01*
X126573745Y-68635684D01*
X126522615Y-68499295D01*
X126435261Y-68382739D01*
X126318705Y-68295385D01*
X126182316Y-68244255D01*
X126120134Y-68237500D01*
X124323866Y-68237500D01*
X124261684Y-68244255D01*
X124125295Y-68295385D01*
X124008739Y-68382739D01*
X123921385Y-68499295D01*
X123870255Y-68635684D01*
X123863500Y-68697866D01*
X123863500Y-70494134D01*
X123870255Y-70556316D01*
X123921385Y-70692705D01*
X124008739Y-70809261D01*
X124125295Y-70896615D01*
X124133704Y-70899767D01*
X124133705Y-70899768D01*
X124242451Y-70940535D01*
X124299216Y-70983176D01*
X124323916Y-71049738D01*
X124308709Y-71119087D01*
X124289316Y-71145568D01*
X124162629Y-71278138D01*
X124159715Y-71282410D01*
X124159714Y-71282411D01*
X124147409Y-71300450D01*
X124036743Y-71462680D01*
X123942688Y-71665305D01*
X123882989Y-71880570D01*
X123859251Y-72102695D01*
X123859548Y-72107848D01*
X123859548Y-72107851D01*
X123865011Y-72202590D01*
X123872110Y-72325715D01*
X123873247Y-72330761D01*
X123873248Y-72330767D01*
X123886597Y-72390000D01*
X123921222Y-72543639D01*
X124005266Y-72750616D01*
X124121987Y-72941088D01*
X124268250Y-73109938D01*
X124440126Y-73252632D01*
X124510595Y-73293811D01*
X124513445Y-73295476D01*
X124562169Y-73347114D01*
X124575240Y-73416897D01*
X124548509Y-73482669D01*
X124508055Y-73516027D01*
X124495607Y-73522507D01*
X124491474Y-73525610D01*
X124491471Y-73525612D01*
X124467247Y-73543800D01*
X124316965Y-73656635D01*
X124162629Y-73818138D01*
X124036743Y-74002680D01*
X123942688Y-74205305D01*
X123882989Y-74420570D01*
X123859251Y-74642695D01*
X123859548Y-74647848D01*
X123859548Y-74647851D01*
X123865011Y-74742590D01*
X123872110Y-74865715D01*
X123873247Y-74870761D01*
X123873248Y-74870767D01*
X123893119Y-74958939D01*
X123921222Y-75083639D01*
X124005266Y-75290616D01*
X124121987Y-75481088D01*
X124268250Y-75649938D01*
X124440126Y-75792632D01*
X124510595Y-75833811D01*
X124513445Y-75835476D01*
X124562169Y-75887114D01*
X124575240Y-75956897D01*
X124548509Y-76022669D01*
X124508055Y-76056027D01*
X124495607Y-76062507D01*
X124491474Y-76065610D01*
X124491471Y-76065612D01*
X124467247Y-76083800D01*
X124316965Y-76196635D01*
X124162629Y-76358138D01*
X124036743Y-76542680D01*
X123942688Y-76745305D01*
X123882989Y-76960570D01*
X123859251Y-77182695D01*
X123859548Y-77187848D01*
X123859548Y-77187851D01*
X123865011Y-77282590D01*
X123872110Y-77405715D01*
X123873247Y-77410761D01*
X123873248Y-77410767D01*
X123893119Y-77498939D01*
X123921222Y-77623639D01*
X124005266Y-77830616D01*
X124121987Y-78021088D01*
X124268250Y-78189938D01*
X124440126Y-78332632D01*
X124510595Y-78373811D01*
X124513445Y-78375476D01*
X124562169Y-78427114D01*
X124575240Y-78496897D01*
X124548509Y-78562669D01*
X124508055Y-78596027D01*
X124495607Y-78602507D01*
X124491474Y-78605610D01*
X124491471Y-78605612D01*
X124467247Y-78623800D01*
X124316965Y-78736635D01*
X124162629Y-78898138D01*
X124036743Y-79082680D01*
X123942688Y-79285305D01*
X123882989Y-79500570D01*
X123859251Y-79722695D01*
X123859548Y-79727848D01*
X123859548Y-79727851D01*
X123865011Y-79822590D01*
X123872110Y-79945715D01*
X123873247Y-79950761D01*
X123873248Y-79950767D01*
X123893119Y-80038939D01*
X123921222Y-80163639D01*
X124005266Y-80370616D01*
X124121987Y-80561088D01*
X124268250Y-80729938D01*
X124440126Y-80872632D01*
X124510595Y-80913811D01*
X124513445Y-80915476D01*
X124562169Y-80967114D01*
X124575240Y-81036897D01*
X124548509Y-81102669D01*
X124508055Y-81136027D01*
X124495607Y-81142507D01*
X124491474Y-81145610D01*
X124491471Y-81145612D01*
X124467247Y-81163800D01*
X124316965Y-81276635D01*
X124162629Y-81438138D01*
X124036743Y-81622680D01*
X123942688Y-81825305D01*
X123882989Y-82040570D01*
X123859251Y-82262695D01*
X123859548Y-82267848D01*
X123859548Y-82267851D01*
X123865011Y-82362590D01*
X123872110Y-82485715D01*
X123873247Y-82490761D01*
X123873248Y-82490767D01*
X123893119Y-82578939D01*
X123921222Y-82703639D01*
X124005266Y-82910616D01*
X124121987Y-83101088D01*
X124268250Y-83269938D01*
X124440126Y-83412632D01*
X124510595Y-83453811D01*
X124513445Y-83455476D01*
X124562169Y-83507114D01*
X124575240Y-83576897D01*
X124548509Y-83642669D01*
X124508055Y-83676027D01*
X124495607Y-83682507D01*
X124491474Y-83685610D01*
X124491471Y-83685612D01*
X124467247Y-83703800D01*
X124316965Y-83816635D01*
X124162629Y-83978138D01*
X124036743Y-84162680D01*
X123942688Y-84365305D01*
X123882989Y-84580570D01*
X123859251Y-84802695D01*
X123859548Y-84807848D01*
X123859548Y-84807851D01*
X123865011Y-84902590D01*
X123872110Y-85025715D01*
X123873247Y-85030761D01*
X123873248Y-85030767D01*
X123893119Y-85118939D01*
X123921222Y-85243639D01*
X124005266Y-85450616D01*
X124121987Y-85641088D01*
X124268250Y-85809938D01*
X124440126Y-85952632D01*
X124510595Y-85993811D01*
X124513445Y-85995476D01*
X124562169Y-86047114D01*
X124575240Y-86116897D01*
X124548509Y-86182669D01*
X124508055Y-86216027D01*
X124495607Y-86222507D01*
X124491474Y-86225610D01*
X124491471Y-86225612D01*
X124467247Y-86243800D01*
X124316965Y-86356635D01*
X124162629Y-86518138D01*
X124036743Y-86702680D01*
X123942688Y-86905305D01*
X123882989Y-87120570D01*
X123859251Y-87342695D01*
X123859548Y-87347848D01*
X123859548Y-87347851D01*
X123865011Y-87442590D01*
X123872110Y-87565715D01*
X123873247Y-87570761D01*
X123873248Y-87570767D01*
X123893119Y-87658939D01*
X123921222Y-87783639D01*
X124005266Y-87990616D01*
X124121987Y-88181088D01*
X124268250Y-88349938D01*
X124440126Y-88492632D01*
X124510595Y-88533811D01*
X124513445Y-88535476D01*
X124562169Y-88587114D01*
X124575240Y-88656897D01*
X124548509Y-88722669D01*
X124508055Y-88756027D01*
X124495607Y-88762507D01*
X124491474Y-88765610D01*
X124491471Y-88765612D01*
X124467247Y-88783800D01*
X124316965Y-88896635D01*
X124162629Y-89058138D01*
X124036743Y-89242680D01*
X123942688Y-89445305D01*
X123882989Y-89660570D01*
X123859251Y-89882695D01*
X123859548Y-89887848D01*
X123859548Y-89887851D01*
X123865011Y-89982590D01*
X123872110Y-90105715D01*
X123873247Y-90110761D01*
X123873248Y-90110767D01*
X123893119Y-90198939D01*
X123921222Y-90323639D01*
X124005266Y-90530616D01*
X124121987Y-90721088D01*
X124268250Y-90889938D01*
X124440126Y-91032632D01*
X124510595Y-91073811D01*
X124513445Y-91075476D01*
X124562169Y-91127114D01*
X124575240Y-91196897D01*
X124548509Y-91262669D01*
X124508055Y-91296027D01*
X124495607Y-91302507D01*
X124491474Y-91305610D01*
X124491471Y-91305612D01*
X124467247Y-91323800D01*
X124316965Y-91436635D01*
X124162629Y-91598138D01*
X124036743Y-91782680D01*
X123942688Y-91985305D01*
X123882989Y-92200570D01*
X123859251Y-92422695D01*
X123444500Y-92422695D01*
X123444500Y-67690500D01*
X123464502Y-67622379D01*
X123518158Y-67575886D01*
X123570500Y-67564500D01*
X149733500Y-67564500D01*
X149801621Y-67584502D01*
G37*
%TD.AperFunction*%
%TD*%
M02*
