%TF.GenerationSoftware,KiCad,Pcbnew,6.0.4-6f826c9f35~116~ubuntu21.10.1*%
%TF.CreationDate,2022-04-23T22:39:38+02:00*%
%TF.ProjectId,stm32f breakout,73746d33-3266-4206-9272-65616b6f7574,rev?*%
%TF.SameCoordinates,Original*%
%TF.FileFunction,Soldermask,Bot*%
%TF.FilePolarity,Negative*%
%FSLAX46Y46*%
G04 Gerber Fmt 4.6, Leading zero omitted, Abs format (unit mm)*
G04 Created by KiCad (PCBNEW 6.0.4-6f826c9f35~116~ubuntu21.10.1) date 2022-04-23 22:39:38*
%MOMM*%
%LPD*%
G01*
G04 APERTURE LIST*
%ADD10R,1.700000X1.700000*%
%ADD11O,1.700000X1.700000*%
G04 APERTURE END LIST*
D10*
%TO.C,J2*%
X125222000Y-69596000D03*
D11*
X125222000Y-72136000D03*
X125222000Y-74676000D03*
X125222000Y-77216000D03*
X125222000Y-79756000D03*
X125222000Y-82296000D03*
X125222000Y-84836000D03*
X125222000Y-87376000D03*
X125222000Y-89916000D03*
X125222000Y-92456000D03*
X125222000Y-94996000D03*
X125222000Y-97536000D03*
X125222000Y-100076000D03*
X125222000Y-102616000D03*
X125222000Y-105156000D03*
X125222000Y-107696000D03*
X125222000Y-110236000D03*
X125222000Y-112776000D03*
X125222000Y-115316000D03*
X125222000Y-117856000D03*
X125222000Y-120396000D03*
X125222000Y-122936000D03*
X125222000Y-125476000D03*
X125222000Y-128016000D03*
%TD*%
%TO.C,J1*%
X148082000Y-128016000D03*
X148082000Y-125476000D03*
X148082000Y-122936000D03*
X148082000Y-120396000D03*
X148082000Y-117856000D03*
X148082000Y-115316000D03*
X148082000Y-112776000D03*
X148082000Y-110236000D03*
X148082000Y-107696000D03*
X148082000Y-105156000D03*
X148082000Y-102616000D03*
X148082000Y-100076000D03*
X148082000Y-97536000D03*
X148082000Y-94996000D03*
X148082000Y-92456000D03*
X148082000Y-89916000D03*
X148082000Y-87376000D03*
X148082000Y-84836000D03*
X148082000Y-82296000D03*
X148082000Y-79756000D03*
X148082000Y-77216000D03*
X148082000Y-74676000D03*
X148082000Y-72136000D03*
D10*
X148082000Y-69596000D03*
%TD*%
M02*
