%TF.GenerationSoftware,KiCad,Pcbnew,6.0.4-6f826c9f35~116~ubuntu21.10.1*%
%TF.CreationDate,2022-04-23T22:39:37+02:00*%
%TF.ProjectId,stm32f breakout,73746d33-3266-4206-9272-65616b6f7574,rev?*%
%TF.SameCoordinates,Original*%
%TF.FileFunction,Copper,L1,Top*%
%TF.FilePolarity,Positive*%
%FSLAX46Y46*%
G04 Gerber Fmt 4.6, Leading zero omitted, Abs format (unit mm)*
G04 Created by KiCad (PCBNEW 6.0.4-6f826c9f35~116~ubuntu21.10.1) date 2022-04-23 22:39:37*
%MOMM*%
%LPD*%
G01*
G04 APERTURE LIST*
G04 Aperture macros list*
%AMRoundRect*
0 Rectangle with rounded corners*
0 $1 Rounding radius*
0 $2 $3 $4 $5 $6 $7 $8 $9 X,Y pos of 4 corners*
0 Add a 4 corners polygon primitive as box body*
4,1,4,$2,$3,$4,$5,$6,$7,$8,$9,$2,$3,0*
0 Add four circle primitives for the rounded corners*
1,1,$1+$1,$2,$3*
1,1,$1+$1,$4,$5*
1,1,$1+$1,$6,$7*
1,1,$1+$1,$8,$9*
0 Add four rect primitives between the rounded corners*
20,1,$1+$1,$2,$3,$4,$5,0*
20,1,$1+$1,$4,$5,$6,$7,0*
20,1,$1+$1,$6,$7,$8,$9,0*
20,1,$1+$1,$8,$9,$2,$3,0*%
G04 Aperture macros list end*
%TA.AperFunction,ComponentPad*%
%ADD10R,1.700000X1.700000*%
%TD*%
%TA.AperFunction,ComponentPad*%
%ADD11O,1.700000X1.700000*%
%TD*%
%TA.AperFunction,SMDPad,CuDef*%
%ADD12RoundRect,0.075000X0.415425X-0.521491X0.521491X-0.415425X-0.415425X0.521491X-0.521491X0.415425X0*%
%TD*%
%TA.AperFunction,SMDPad,CuDef*%
%ADD13RoundRect,0.075000X-0.415425X-0.521491X0.521491X0.415425X0.415425X0.521491X-0.521491X-0.415425X0*%
%TD*%
%TA.AperFunction,ViaPad*%
%ADD14C,0.800000*%
%TD*%
%TA.AperFunction,Conductor*%
%ADD15C,0.250000*%
%TD*%
G04 APERTURE END LIST*
D10*
%TO.P,J2,1,Pin_1*%
%TO.N,Net-(U1-Pad37)*%
X125222000Y-69596000D03*
D11*
%TO.P,J2,2,Pin_2*%
%TO.N,Net-(U1-Pad38)*%
X125222000Y-72136000D03*
%TO.P,J2,3,Pin_3*%
%TO.N,Net-(U1-Pad39)*%
X125222000Y-74676000D03*
%TO.P,J2,4,Pin_4*%
%TO.N,Net-(U1-Pad40)*%
X125222000Y-77216000D03*
%TO.P,J2,5,Pin_5*%
%TO.N,Net-(J2-Pad5)*%
X125222000Y-79756000D03*
%TO.P,J2,6,Pin_6*%
%TO.N,Net-(J2-Pad6)*%
X125222000Y-82296000D03*
%TO.P,J2,7,Pin_7*%
%TO.N,Net-(J2-Pad7)*%
X125222000Y-84836000D03*
%TO.P,J2,8,Pin_8*%
%TO.N,Net-(J2-Pad8)*%
X125222000Y-87376000D03*
%TO.P,J2,9,Pin_9*%
%TO.N,Net-(J2-Pad9)*%
X125222000Y-89916000D03*
%TO.P,J2,10,Pin_10*%
%TO.N,Net-(J2-Pad10)*%
X125222000Y-92456000D03*
%TO.P,J2,11,Pin_11*%
%TO.N,GND*%
X125222000Y-94996000D03*
%TO.P,J2,12,Pin_12*%
%TO.N,Net-(J2-Pad12)*%
X125222000Y-97536000D03*
%TO.P,J2,13,Pin_13*%
%TO.N,Net-(J2-Pad13)*%
X125222000Y-100076000D03*
%TO.P,J2,14,Pin_14*%
%TO.N,Net-(J2-Pad14)*%
X125222000Y-102616000D03*
%TO.P,J2,15,Pin_15*%
%TO.N,Net-(J2-Pad15)*%
X125222000Y-105156000D03*
%TO.P,J2,16,Pin_16*%
%TO.N,Net-(J2-Pad16)*%
X125222000Y-107696000D03*
%TO.P,J2,17,Pin_17*%
%TO.N,Net-(J2-Pad17)*%
X125222000Y-110236000D03*
%TO.P,J2,18,Pin_18*%
%TO.N,Net-(U1-Pad6)*%
X125222000Y-112776000D03*
%TO.P,J2,19,Pin_19*%
%TO.N,Net-(U1-Pad7)*%
X125222000Y-115316000D03*
%TO.P,J2,20,Pin_20*%
%TO.N,Net-(U1-Pad8)*%
X125222000Y-117856000D03*
%TO.P,J2,21,Pin_21*%
%TO.N,Net-(U1-Pad9)*%
X125222000Y-120396000D03*
%TO.P,J2,22,Pin_22*%
%TO.N,Net-(J2-Pad22)*%
X125222000Y-122936000D03*
%TO.P,J2,23,Pin_23*%
%TO.N,Net-(J2-Pad23)*%
X125222000Y-125476000D03*
%TO.P,J2,24,Pin_24*%
%TO.N,Net-(J2-Pad24)*%
X125222000Y-128016000D03*
%TD*%
%TO.P,J1,24,Pin_24*%
%TO.N,Net-(U1-Pad13)*%
X148082000Y-128016000D03*
%TO.P,J1,23,Pin_23*%
%TO.N,Net-(U1-Pad14)*%
X148082000Y-125476000D03*
%TO.P,J1,22,Pin_22*%
%TO.N,Net-(U1-Pad15)*%
X148082000Y-122936000D03*
%TO.P,J1,21,Pin_21*%
%TO.N,Net-(U1-Pad16)*%
X148082000Y-120396000D03*
%TO.P,J1,20,Pin_20*%
%TO.N,Net-(U1-Pad17)*%
X148082000Y-117856000D03*
%TO.P,J1,19,Pin_19*%
%TO.N,Net-(J1-Pad19)*%
X148082000Y-115316000D03*
%TO.P,J1,18,Pin_18*%
%TO.N,Net-(J1-Pad18)*%
X148082000Y-112776000D03*
%TO.P,J1,17,Pin_17*%
%TO.N,Net-(J1-Pad17)*%
X148082000Y-110236000D03*
%TO.P,J1,16,Pin_16*%
%TO.N,Net-(J1-Pad16)*%
X148082000Y-107696000D03*
%TO.P,J1,15,Pin_15*%
%TO.N,Net-(J1-Pad15)*%
X148082000Y-105156000D03*
%TO.P,J1,14,Pin_14*%
%TO.N,GND*%
X148082000Y-102616000D03*
%TO.P,J1,13,Pin_13*%
%TO.N,Net-(U1-Pad24)*%
X148082000Y-100076000D03*
%TO.P,J1,12,Pin_12*%
%TO.N,Net-(J1-Pad12)*%
X148082000Y-97536000D03*
%TO.P,J1,11,Pin_11*%
%TO.N,Net-(U1-Pad26)*%
X148082000Y-94996000D03*
%TO.P,J1,10,Pin_10*%
%TO.N,Net-(U1-Pad27)*%
X148082000Y-92456000D03*
%TO.P,J1,9,Pin_9*%
%TO.N,Net-(U1-Pad28)*%
X148082000Y-89916000D03*
%TO.P,J1,8,Pin_8*%
%TO.N,Net-(U1-Pad29)*%
X148082000Y-87376000D03*
%TO.P,J1,7,Pin_7*%
%TO.N,Net-(U1-Pad30)*%
X148082000Y-84836000D03*
%TO.P,J1,6,Pin_6*%
%TO.N,Net-(U1-Pad31)*%
X148082000Y-82296000D03*
%TO.P,J1,5,Pin_5*%
%TO.N,Net-(J1-Pad5)*%
X148082000Y-79756000D03*
%TO.P,J1,4,Pin_4*%
%TO.N,Net-(J1-Pad4)*%
X148082000Y-77216000D03*
%TO.P,J1,3,Pin_3*%
%TO.N,Net-(J1-Pad3)*%
X148082000Y-74676000D03*
%TO.P,J1,2,Pin_2*%
%TO.N,GND*%
X148082000Y-72136000D03*
D10*
%TO.P,J1,1,Pin_1*%
%TO.N,Net-(U1-Pad36)*%
X148082000Y-69596000D03*
%TD*%
D12*
%TO.P,U1,48,VDD*%
%TO.N,Net-(J2-Pad12)*%
X131901355Y-97625317D03*
%TO.P,U1,47,VSS*%
%TO.N,GND*%
X132254909Y-97271763D03*
%TO.P,U1,46,PB9*%
%TO.N,Net-(J2-Pad10)*%
X132608462Y-96918210D03*
%TO.P,U1,45,PB8*%
%TO.N,Net-(J2-Pad9)*%
X132962016Y-96564656D03*
%TO.P,U1,44,BOOT0*%
%TO.N,Net-(J2-Pad8)*%
X133315569Y-96211103D03*
%TO.P,U1,43,PB7*%
%TO.N,Net-(J2-Pad7)*%
X133669122Y-95857550D03*
%TO.P,U1,42,PB6*%
%TO.N,Net-(J2-Pad6)*%
X134022676Y-95503996D03*
%TO.P,U1,41,PB5*%
%TO.N,Net-(J2-Pad5)*%
X134376229Y-95150443D03*
%TO.P,U1,40,PB4*%
%TO.N,Net-(U1-Pad40)*%
X134729782Y-94796890D03*
%TO.P,U1,39,PB3*%
%TO.N,Net-(U1-Pad39)*%
X135083336Y-94443336D03*
%TO.P,U1,38,PA15*%
%TO.N,Net-(U1-Pad38)*%
X135436889Y-94089783D03*
%TO.P,U1,37,PA14*%
%TO.N,Net-(U1-Pad37)*%
X135790443Y-93736229D03*
D13*
%TO.P,U1,36,VDD*%
%TO.N,Net-(U1-Pad36)*%
X137788019Y-93736229D03*
%TO.P,U1,35,VSS*%
%TO.N,GND*%
X138141573Y-94089783D03*
%TO.P,U1,34,PA13*%
%TO.N,Net-(J1-Pad3)*%
X138495126Y-94443336D03*
%TO.P,U1,33,PA12*%
%TO.N,Net-(J1-Pad4)*%
X138848680Y-94796890D03*
%TO.P,U1,32,PA11*%
%TO.N,Net-(J1-Pad5)*%
X139202233Y-95150443D03*
%TO.P,U1,31,PA10*%
%TO.N,Net-(U1-Pad31)*%
X139555786Y-95503996D03*
%TO.P,U1,30,PA9*%
%TO.N,Net-(U1-Pad30)*%
X139909340Y-95857550D03*
%TO.P,U1,29,PA8*%
%TO.N,Net-(U1-Pad29)*%
X140262893Y-96211103D03*
%TO.P,U1,28,PB15*%
%TO.N,Net-(U1-Pad28)*%
X140616446Y-96564656D03*
%TO.P,U1,27,PB14*%
%TO.N,Net-(U1-Pad27)*%
X140970000Y-96918210D03*
%TO.P,U1,26,PB13*%
%TO.N,Net-(U1-Pad26)*%
X141323553Y-97271763D03*
%TO.P,U1,25,PB12*%
%TO.N,Net-(J1-Pad12)*%
X141677107Y-97625317D03*
D12*
%TO.P,U1,24,VDD*%
%TO.N,Net-(U1-Pad24)*%
X141677107Y-99622893D03*
%TO.P,U1,23,VSS*%
%TO.N,GND*%
X141323553Y-99976447D03*
%TO.P,U1,22,PB11*%
%TO.N,Net-(J1-Pad15)*%
X140970000Y-100330000D03*
%TO.P,U1,21,PB10*%
%TO.N,Net-(J1-Pad16)*%
X140616446Y-100683554D03*
%TO.P,U1,20,PB2*%
%TO.N,Net-(J1-Pad17)*%
X140262893Y-101037107D03*
%TO.P,U1,19,PB1*%
%TO.N,Net-(J1-Pad18)*%
X139909340Y-101390660D03*
%TO.P,U1,18,PB0*%
%TO.N,Net-(J1-Pad19)*%
X139555786Y-101744214D03*
%TO.P,U1,17,PA7*%
%TO.N,Net-(U1-Pad17)*%
X139202233Y-102097767D03*
%TO.P,U1,16,PA6*%
%TO.N,Net-(U1-Pad16)*%
X138848680Y-102451320D03*
%TO.P,U1,15,PA5*%
%TO.N,Net-(U1-Pad15)*%
X138495126Y-102804874D03*
%TO.P,U1,14,PA4*%
%TO.N,Net-(U1-Pad14)*%
X138141573Y-103158427D03*
%TO.P,U1,13,PA3*%
%TO.N,Net-(U1-Pad13)*%
X137788019Y-103511981D03*
D13*
%TO.P,U1,12,PA2*%
%TO.N,Net-(J2-Pad24)*%
X135790443Y-103511981D03*
%TO.P,U1,11,PA1*%
%TO.N,Net-(J2-Pad23)*%
X135436889Y-103158427D03*
%TO.P,U1,10,PA0*%
%TO.N,Net-(J2-Pad22)*%
X135083336Y-102804874D03*
%TO.P,U1,9,VDDA*%
%TO.N,Net-(U1-Pad9)*%
X134729782Y-102451320D03*
%TO.P,U1,8,VSSA*%
%TO.N,Net-(U1-Pad8)*%
X134376229Y-102097767D03*
%TO.P,U1,7,NRST*%
%TO.N,Net-(U1-Pad7)*%
X134022676Y-101744214D03*
%TO.P,U1,6,PD1*%
%TO.N,Net-(U1-Pad6)*%
X133669122Y-101390660D03*
%TO.P,U1,5,PD0*%
%TO.N,Net-(J2-Pad17)*%
X133315569Y-101037107D03*
%TO.P,U1,4,PC15*%
%TO.N,Net-(J2-Pad16)*%
X132962016Y-100683554D03*
%TO.P,U1,3,PC14*%
%TO.N,Net-(J2-Pad15)*%
X132608462Y-100330000D03*
%TO.P,U1,2,PC13*%
%TO.N,Net-(J2-Pad14)*%
X132254909Y-99976447D03*
%TO.P,U1,1,VBAT*%
%TO.N,Net-(J2-Pad13)*%
X131901355Y-99622893D03*
%TD*%
D14*
%TO.N,GND*%
X136652000Y-120396000D03*
X136652000Y-116586000D03*
X136652000Y-112776000D03*
X136652000Y-81534000D03*
X136652000Y-78486000D03*
X136652000Y-75438000D03*
%TD*%
D15*
%TO.N,Net-(U1-Pad13)*%
X137788019Y-103511981D02*
X137824055Y-103511981D01*
X137824055Y-103511981D02*
X141965920Y-107653846D01*
X141965920Y-107653846D02*
X141965920Y-121899920D01*
X141965920Y-121899920D02*
X148082000Y-128016000D01*
%TO.N,Net-(U1-Pad14)*%
X138141573Y-103158427D02*
X142415440Y-107432294D01*
X142415440Y-107432294D02*
X142415440Y-119809440D01*
X142415440Y-119809440D02*
X148082000Y-125476000D01*
%TO.N,Net-(U1-Pad15)*%
X138495126Y-102804874D02*
X142864960Y-107174708D01*
X142864960Y-107174708D02*
X142864960Y-117718960D01*
X142864960Y-117718960D02*
X148082000Y-122936000D01*
%TO.N,Net-(U1-Pad16)*%
X138848680Y-102451320D02*
X138884714Y-102451320D01*
X138884714Y-102451320D02*
X143314480Y-106881086D01*
X143314480Y-106881086D02*
X143314480Y-115628480D01*
X143314480Y-115628480D02*
X148082000Y-120396000D01*
%TO.N,Net-(U1-Pad17)*%
X139202233Y-102097767D02*
X143764000Y-106659534D01*
X143764000Y-106659534D02*
X143764000Y-113538000D01*
X143764000Y-113538000D02*
X148082000Y-117856000D01*
%TO.N,Net-(J1-Pad19)*%
X139555786Y-101744214D02*
X144272000Y-106460428D01*
X144272000Y-106460428D02*
X144272000Y-111506000D01*
X144272000Y-111506000D02*
X148082000Y-115316000D01*
%TO.N,Net-(J1-Pad18)*%
X139909340Y-101390660D02*
X144780000Y-106261320D01*
X144780000Y-106261320D02*
X144780000Y-109474000D01*
X144780000Y-109474000D02*
X148082000Y-112776000D01*
%TO.N,Net-(J1-Pad17)*%
X140262893Y-101037107D02*
X145288000Y-106062214D01*
X145288000Y-106062214D02*
X145288000Y-107442000D01*
X145288000Y-107442000D02*
X148082000Y-110236000D01*
%TO.N,Net-(J1-Pad16)*%
X140616446Y-100683554D02*
X147628892Y-107696000D01*
X147628892Y-107696000D02*
X148082000Y-107696000D01*
%TO.N,Net-(J1-Pad15)*%
X140970000Y-100330000D02*
X145796000Y-105156000D01*
X145796000Y-105156000D02*
X148082000Y-105156000D01*
%TO.N,GND*%
X141323553Y-99976447D02*
X143963106Y-102616000D01*
X143963106Y-102616000D02*
X148082000Y-102616000D01*
%TO.N,Net-(U1-Pad24)*%
X141677107Y-99622893D02*
X142130214Y-100076000D01*
X142130214Y-100076000D02*
X148082000Y-100076000D01*
%TO.N,Net-(U1-Pad36)*%
X137788019Y-93736229D02*
X141790480Y-89733768D01*
X141790480Y-89733768D02*
X141790480Y-75887520D01*
X141790480Y-75887520D02*
X148082000Y-69596000D01*
%TO.N,GND*%
X138141573Y-94089783D02*
X142240000Y-89991356D01*
X142240000Y-89991356D02*
X142240000Y-77978000D01*
X142240000Y-77978000D02*
X148082000Y-72136000D01*
%TO.N,Net-(J1-Pad3)*%
X138495126Y-94443336D02*
X142748000Y-90190462D01*
X142748000Y-90190462D02*
X142748000Y-80010000D01*
X142748000Y-80010000D02*
X148082000Y-74676000D01*
%TO.N,Net-(J1-Pad4)*%
X138848680Y-94796890D02*
X143256000Y-90389570D01*
X143256000Y-90389570D02*
X143256000Y-82042000D01*
X143256000Y-82042000D02*
X148082000Y-77216000D01*
%TO.N,Net-(J1-Pad5)*%
X139202233Y-95150443D02*
X143764000Y-90588676D01*
X143764000Y-90588676D02*
X143764000Y-84074000D01*
X143764000Y-84074000D02*
X148082000Y-79756000D01*
%TO.N,Net-(U1-Pad31)*%
X139555786Y-95503996D02*
X144272000Y-90787782D01*
X144272000Y-90787782D02*
X144272000Y-86106000D01*
X144272000Y-86106000D02*
X148082000Y-82296000D01*
%TO.N,Net-(U1-Pad30)*%
X139909340Y-95857550D02*
X144780000Y-90986890D01*
X144780000Y-90986890D02*
X144780000Y-88138000D01*
X144780000Y-88138000D02*
X148082000Y-84836000D01*
%TO.N,Net-(U1-Pad29)*%
X140262893Y-96211103D02*
X145288000Y-91185996D01*
X145288000Y-91185996D02*
X145288000Y-90170000D01*
X145288000Y-90170000D02*
X148082000Y-87376000D01*
%TO.N,Net-(U1-Pad28)*%
X140616446Y-96564656D02*
X147265102Y-89916000D01*
X147265102Y-89916000D02*
X148082000Y-89916000D01*
%TO.N,Net-(U1-Pad27)*%
X140970000Y-96918210D02*
X145432210Y-92456000D01*
X145432210Y-92456000D02*
X148082000Y-92456000D01*
%TO.N,Net-(U1-Pad26)*%
X141323553Y-97271763D02*
X143599316Y-94996000D01*
X143599316Y-94996000D02*
X148082000Y-94996000D01*
%TO.N,Net-(J1-Pad12)*%
X141677107Y-97625317D02*
X141766424Y-97536000D01*
X141766424Y-97536000D02*
X148082000Y-97536000D01*
%TO.N,Net-(J2-Pad24)*%
X135790443Y-103511981D02*
X131005520Y-108296904D01*
X131005520Y-108296904D02*
X131005520Y-122232480D01*
X131005520Y-122232480D02*
X125222000Y-128016000D01*
%TO.N,Net-(J2-Pad23)*%
X135436889Y-103158427D02*
X130556000Y-108039316D01*
X130556000Y-108039316D02*
X130556000Y-120142000D01*
X130556000Y-120142000D02*
X125222000Y-125476000D01*
%TO.N,Net-(J2-Pad22)*%
X135083336Y-102804874D02*
X129989520Y-107898690D01*
X129989520Y-107898690D02*
X129989520Y-118168480D01*
X129989520Y-118168480D02*
X125222000Y-122936000D01*
%TO.N,Net-(U1-Pad9)*%
X134729782Y-102451320D02*
X129540000Y-107641102D01*
X129540000Y-107641102D02*
X129540000Y-116078000D01*
X129540000Y-116078000D02*
X125222000Y-120396000D01*
%TO.N,Net-(U1-Pad8)*%
X134376229Y-102097767D02*
X129032000Y-107441996D01*
X129032000Y-107441996D02*
X129032000Y-114046000D01*
X129032000Y-114046000D02*
X125222000Y-117856000D01*
%TO.N,Net-(U1-Pad7)*%
X134022676Y-101744214D02*
X128465520Y-107301370D01*
X128465520Y-107301370D02*
X128465520Y-112072480D01*
X128465520Y-112072480D02*
X125222000Y-115316000D01*
%TO.N,Net-(U1-Pad6)*%
X133669122Y-101390660D02*
X128016000Y-107043782D01*
X128016000Y-107043782D02*
X128016000Y-109982000D01*
X128016000Y-109982000D02*
X125222000Y-112776000D01*
%TO.N,Net-(J2-Pad17)*%
X133315569Y-101037107D02*
X127508000Y-106844676D01*
X127508000Y-106844676D02*
X127508000Y-107950000D01*
X127508000Y-107950000D02*
X125222000Y-110236000D01*
%TO.N,Net-(J2-Pad16)*%
X132962016Y-100683554D02*
X125949570Y-107696000D01*
X125949570Y-107696000D02*
X125222000Y-107696000D01*
%TO.N,Net-(J2-Pad15)*%
X132608462Y-100330000D02*
X127782462Y-105156000D01*
X127782462Y-105156000D02*
X125222000Y-105156000D01*
%TO.N,Net-(J2-Pad14)*%
X132254909Y-99976447D02*
X129615356Y-102616000D01*
X129615356Y-102616000D02*
X125222000Y-102616000D01*
%TO.N,Net-(J2-Pad13)*%
X131901355Y-99622893D02*
X131448248Y-100076000D01*
X131448248Y-100076000D02*
X125222000Y-100076000D01*
%TO.N,Net-(J2-Pad8)*%
X133315569Y-96211103D02*
X133295103Y-96211103D01*
X133295103Y-96211103D02*
X127508000Y-90424000D01*
X127508000Y-90424000D02*
X127508000Y-89662000D01*
X127508000Y-89662000D02*
X125222000Y-87376000D01*
%TO.N,Net-(U1-Pad37)*%
X135790443Y-93736229D02*
X130713120Y-88658906D01*
X130713120Y-88658906D02*
X130713120Y-75087120D01*
X130713120Y-75087120D02*
X125222000Y-69596000D01*
%TO.N,Net-(U1-Pad38)*%
X135436889Y-94089783D02*
X130263600Y-88916494D01*
X130263600Y-77177600D02*
X125222000Y-72136000D01*
X130263600Y-88916494D02*
X130263600Y-77177600D01*
%TO.N,Net-(U1-Pad39)*%
X135083336Y-94443336D02*
X129814080Y-89174080D01*
X129814080Y-89174080D02*
X129814080Y-79268080D01*
X129814080Y-79268080D02*
X125222000Y-74676000D01*
%TO.N,Net-(U1-Pad40)*%
X134729782Y-94796890D02*
X129364560Y-89431668D01*
X129364560Y-89431668D02*
X129364560Y-81358560D01*
X129364560Y-81358560D02*
X125222000Y-77216000D01*
%TO.N,Net-(J2-Pad5)*%
X134376229Y-95150443D02*
X128915040Y-89689254D01*
X128915040Y-89689254D02*
X128915040Y-83449040D01*
X128915040Y-83449040D02*
X125222000Y-79756000D01*
%TO.N,Net-(J2-Pad6)*%
X134022676Y-95503996D02*
X128465520Y-89946840D01*
X128465520Y-89946840D02*
X128465520Y-85539520D01*
X128465520Y-85539520D02*
X125222000Y-82296000D01*
%TO.N,Net-(J2-Pad7)*%
X133669122Y-95857550D02*
X128016000Y-90204428D01*
X128016000Y-90204428D02*
X128016000Y-87630000D01*
X128016000Y-87630000D02*
X125222000Y-84836000D01*
%TO.N,Net-(J2-Pad9)*%
X132962016Y-96564656D02*
X126313360Y-89916000D01*
X126313360Y-89916000D02*
X125222000Y-89916000D01*
%TO.N,Net-(J2-Pad10)*%
X132608462Y-96918210D02*
X128146252Y-92456000D01*
X128146252Y-92456000D02*
X125222000Y-92456000D01*
%TO.N,GND*%
X132254909Y-97271763D02*
X129979146Y-94996000D01*
X129979146Y-94996000D02*
X125222000Y-94996000D01*
%TO.N,Net-(J2-Pad12)*%
X131901355Y-97625317D02*
X131812038Y-97536000D01*
X131812038Y-97536000D02*
X125222000Y-97536000D01*
%TD*%
%TA.AperFunction,Conductor*%
%TO.N,GND*%
G36*
X149801621Y-67584502D02*
G01*
X149848114Y-67638158D01*
X149859500Y-67690500D01*
X149859500Y-129667500D01*
X149839498Y-129735621D01*
X149785842Y-129782114D01*
X149733500Y-129793500D01*
X123570500Y-129793500D01*
X123502379Y-129773498D01*
X123455886Y-129719842D01*
X123444500Y-129667500D01*
X123444500Y-127982695D01*
X123859251Y-127982695D01*
X123859548Y-127987848D01*
X123859548Y-127987851D01*
X123865011Y-128082590D01*
X123872110Y-128205715D01*
X123873247Y-128210761D01*
X123873248Y-128210767D01*
X123893119Y-128298939D01*
X123921222Y-128423639D01*
X124005266Y-128630616D01*
X124121987Y-128821088D01*
X124268250Y-128989938D01*
X124440126Y-129132632D01*
X124633000Y-129245338D01*
X124841692Y-129325030D01*
X124846760Y-129326061D01*
X124846763Y-129326062D01*
X124954017Y-129347883D01*
X125060597Y-129369567D01*
X125065772Y-129369757D01*
X125065774Y-129369757D01*
X125278673Y-129377564D01*
X125278677Y-129377564D01*
X125283837Y-129377753D01*
X125288957Y-129377097D01*
X125288959Y-129377097D01*
X125500288Y-129350025D01*
X125500289Y-129350025D01*
X125505416Y-129349368D01*
X125510366Y-129347883D01*
X125714429Y-129286661D01*
X125714434Y-129286659D01*
X125719384Y-129285174D01*
X125919994Y-129186896D01*
X126101860Y-129057173D01*
X126260096Y-128899489D01*
X126319594Y-128816689D01*
X126387435Y-128722277D01*
X126390453Y-128718077D01*
X126489430Y-128517811D01*
X126554370Y-128304069D01*
X126583529Y-128082590D01*
X126585156Y-128016000D01*
X126566852Y-127793361D01*
X126538821Y-127681765D01*
X126541625Y-127610823D01*
X126571930Y-127561974D01*
X131397767Y-122736137D01*
X131406057Y-122728593D01*
X131412538Y-122724480D01*
X131427693Y-122708342D01*
X131459178Y-122674813D01*
X131461933Y-122671971D01*
X131481654Y-122652250D01*
X131484132Y-122649055D01*
X131491838Y-122640033D01*
X131516678Y-122613581D01*
X131522106Y-122607801D01*
X131531866Y-122590048D01*
X131542719Y-122573525D01*
X131550273Y-122563786D01*
X131555133Y-122557521D01*
X131572696Y-122516937D01*
X131577903Y-122506307D01*
X131599215Y-122467540D01*
X131601186Y-122459863D01*
X131601188Y-122459858D01*
X131604252Y-122447922D01*
X131610658Y-122429210D01*
X131615554Y-122417897D01*
X131618701Y-122410625D01*
X131624628Y-122373208D01*
X131625617Y-122366961D01*
X131628024Y-122355340D01*
X131637048Y-122320191D01*
X131637048Y-122320190D01*
X131639020Y-122312510D01*
X131639020Y-122292249D01*
X131640571Y-122272538D01*
X131642133Y-122262680D01*
X131643739Y-122252537D01*
X131639579Y-122208526D01*
X131639020Y-122196669D01*
X131639020Y-108611498D01*
X131659022Y-108543377D01*
X131675925Y-108522403D01*
X135627467Y-104570862D01*
X135655479Y-104552140D01*
X135654502Y-104550448D01*
X135661654Y-104546319D01*
X135669285Y-104543158D01*
X135760572Y-104473112D01*
X136700136Y-103533548D01*
X136762448Y-103499522D01*
X136833263Y-103504587D01*
X136878326Y-103533548D01*
X137817890Y-104473112D01*
X137909177Y-104543158D01*
X137968954Y-104567919D01*
X137971639Y-104569031D01*
X138012515Y-104596345D01*
X141295515Y-107879345D01*
X141329541Y-107941657D01*
X141332420Y-107968440D01*
X141332420Y-121821153D01*
X141331893Y-121832336D01*
X141330218Y-121839829D01*
X141330467Y-121847755D01*
X141330467Y-121847756D01*
X141332358Y-121907906D01*
X141332420Y-121911865D01*
X141332420Y-121939776D01*
X141332917Y-121943710D01*
X141332917Y-121943711D01*
X141332925Y-121943776D01*
X141333858Y-121955613D01*
X141335247Y-121999809D01*
X141340898Y-122019259D01*
X141344907Y-122038620D01*
X141347446Y-122058717D01*
X141350365Y-122066088D01*
X141350365Y-122066090D01*
X141363724Y-122099832D01*
X141367569Y-122111062D01*
X141379902Y-122153513D01*
X141383935Y-122160332D01*
X141383937Y-122160337D01*
X141390213Y-122170948D01*
X141398908Y-122188696D01*
X141406368Y-122207537D01*
X141411030Y-122213953D01*
X141411030Y-122213954D01*
X141432356Y-122243307D01*
X141438872Y-122253227D01*
X141456085Y-122282332D01*
X141461378Y-122291282D01*
X141475699Y-122305603D01*
X141488539Y-122320636D01*
X141500448Y-122337027D01*
X141506554Y-122342078D01*
X141534525Y-122365218D01*
X141543304Y-122373208D01*
X146731778Y-127561682D01*
X146765804Y-127623994D01*
X146764100Y-127684448D01*
X146742989Y-127760570D01*
X146742441Y-127765700D01*
X146742440Y-127765704D01*
X146738933Y-127798522D01*
X146719251Y-127982695D01*
X146719548Y-127987848D01*
X146719548Y-127987851D01*
X146725011Y-128082590D01*
X146732110Y-128205715D01*
X146733247Y-128210761D01*
X146733248Y-128210767D01*
X146753119Y-128298939D01*
X146781222Y-128423639D01*
X146865266Y-128630616D01*
X146981987Y-128821088D01*
X147128250Y-128989938D01*
X147300126Y-129132632D01*
X147493000Y-129245338D01*
X147701692Y-129325030D01*
X147706760Y-129326061D01*
X147706763Y-129326062D01*
X147814017Y-129347883D01*
X147920597Y-129369567D01*
X147925772Y-129369757D01*
X147925774Y-129369757D01*
X148138673Y-129377564D01*
X148138677Y-129377564D01*
X148143837Y-129377753D01*
X148148957Y-129377097D01*
X148148959Y-129377097D01*
X148360288Y-129350025D01*
X148360289Y-129350025D01*
X148365416Y-129349368D01*
X148370366Y-129347883D01*
X148574429Y-129286661D01*
X148574434Y-129286659D01*
X148579384Y-129285174D01*
X148779994Y-129186896D01*
X148961860Y-129057173D01*
X149120096Y-128899489D01*
X149179594Y-128816689D01*
X149247435Y-128722277D01*
X149250453Y-128718077D01*
X149349430Y-128517811D01*
X149414370Y-128304069D01*
X149443529Y-128082590D01*
X149445156Y-128016000D01*
X149426852Y-127793361D01*
X149372431Y-127576702D01*
X149283354Y-127371840D01*
X149162014Y-127184277D01*
X149011670Y-127019051D01*
X149007619Y-127015852D01*
X149007615Y-127015848D01*
X148840414Y-126883800D01*
X148840410Y-126883798D01*
X148836359Y-126880598D01*
X148795053Y-126857796D01*
X148745084Y-126807364D01*
X148730312Y-126737921D01*
X148755428Y-126671516D01*
X148782780Y-126644909D01*
X148826603Y-126613650D01*
X148961860Y-126517173D01*
X149120096Y-126359489D01*
X149179594Y-126276689D01*
X149247435Y-126182277D01*
X149250453Y-126178077D01*
X149349430Y-125977811D01*
X149414370Y-125764069D01*
X149443529Y-125542590D01*
X149443846Y-125529632D01*
X149445074Y-125479365D01*
X149445074Y-125479361D01*
X149445156Y-125476000D01*
X149426852Y-125253361D01*
X149372431Y-125036702D01*
X149283354Y-124831840D01*
X149162014Y-124644277D01*
X149011670Y-124479051D01*
X149007619Y-124475852D01*
X149007615Y-124475848D01*
X148840414Y-124343800D01*
X148840410Y-124343798D01*
X148836359Y-124340598D01*
X148795053Y-124317796D01*
X148745084Y-124267364D01*
X148730312Y-124197921D01*
X148755428Y-124131516D01*
X148782780Y-124104909D01*
X148826603Y-124073650D01*
X148961860Y-123977173D01*
X149120096Y-123819489D01*
X149179594Y-123736689D01*
X149247435Y-123642277D01*
X149250453Y-123638077D01*
X149349430Y-123437811D01*
X149381900Y-123330940D01*
X149412865Y-123229023D01*
X149412865Y-123229021D01*
X149414370Y-123224069D01*
X149443529Y-123002590D01*
X149445156Y-122936000D01*
X149426852Y-122713361D01*
X149372431Y-122496702D01*
X149283354Y-122291840D01*
X149210667Y-122179483D01*
X149164822Y-122108617D01*
X149164820Y-122108614D01*
X149162014Y-122104277D01*
X149011670Y-121939051D01*
X149007619Y-121935852D01*
X149007615Y-121935848D01*
X148840414Y-121803800D01*
X148840410Y-121803798D01*
X148836359Y-121800598D01*
X148795053Y-121777796D01*
X148745084Y-121727364D01*
X148730312Y-121657921D01*
X148755428Y-121591516D01*
X148782780Y-121564909D01*
X148849827Y-121517085D01*
X148961860Y-121437173D01*
X149120096Y-121279489D01*
X149179594Y-121196689D01*
X149247435Y-121102277D01*
X149250453Y-121098077D01*
X149264925Y-121068796D01*
X149347136Y-120902453D01*
X149347137Y-120902451D01*
X149349430Y-120897811D01*
X149381900Y-120790940D01*
X149412865Y-120689023D01*
X149412865Y-120689021D01*
X149414370Y-120684069D01*
X149443529Y-120462590D01*
X149445156Y-120396000D01*
X149426852Y-120173361D01*
X149372431Y-119956702D01*
X149283354Y-119751840D01*
X149162014Y-119564277D01*
X149011670Y-119399051D01*
X149007619Y-119395852D01*
X149007615Y-119395848D01*
X148840414Y-119263800D01*
X148840410Y-119263798D01*
X148836359Y-119260598D01*
X148795053Y-119237796D01*
X148745084Y-119187364D01*
X148730312Y-119117921D01*
X148755428Y-119051516D01*
X148782780Y-119024909D01*
X148848101Y-118978316D01*
X148961860Y-118897173D01*
X149120096Y-118739489D01*
X149179594Y-118656689D01*
X149247435Y-118562277D01*
X149250453Y-118558077D01*
X149349430Y-118357811D01*
X149414370Y-118144069D01*
X149443529Y-117922590D01*
X149443933Y-117906075D01*
X149445074Y-117859365D01*
X149445074Y-117859361D01*
X149445156Y-117856000D01*
X149426852Y-117633361D01*
X149372431Y-117416702D01*
X149283354Y-117211840D01*
X149162014Y-117024277D01*
X149011670Y-116859051D01*
X149007619Y-116855852D01*
X149007615Y-116855848D01*
X148840414Y-116723800D01*
X148840410Y-116723798D01*
X148836359Y-116720598D01*
X148795053Y-116697796D01*
X148745084Y-116647364D01*
X148730312Y-116577921D01*
X148755428Y-116511516D01*
X148782780Y-116484909D01*
X148826603Y-116453650D01*
X148961860Y-116357173D01*
X149120096Y-116199489D01*
X149179594Y-116116689D01*
X149247435Y-116022277D01*
X149250453Y-116018077D01*
X149349430Y-115817811D01*
X149414370Y-115604069D01*
X149443529Y-115382590D01*
X149444017Y-115362605D01*
X149445074Y-115319365D01*
X149445074Y-115319361D01*
X149445156Y-115316000D01*
X149426852Y-115093361D01*
X149372431Y-114876702D01*
X149283354Y-114671840D01*
X149162014Y-114484277D01*
X149011670Y-114319051D01*
X149007619Y-114315852D01*
X149007615Y-114315848D01*
X148840414Y-114183800D01*
X148840410Y-114183798D01*
X148836359Y-114180598D01*
X148795053Y-114157796D01*
X148745084Y-114107364D01*
X148730312Y-114037921D01*
X148755428Y-113971516D01*
X148782780Y-113944909D01*
X148826603Y-113913650D01*
X148961860Y-113817173D01*
X149120096Y-113659489D01*
X149179594Y-113576689D01*
X149247435Y-113482277D01*
X149250453Y-113478077D01*
X149349430Y-113277811D01*
X149381900Y-113170940D01*
X149412865Y-113069023D01*
X149412865Y-113069021D01*
X149414370Y-113064069D01*
X149443529Y-112842590D01*
X149445156Y-112776000D01*
X149426852Y-112553361D01*
X149372431Y-112336702D01*
X149283354Y-112131840D01*
X149162014Y-111944277D01*
X149011670Y-111779051D01*
X149007619Y-111775852D01*
X149007615Y-111775848D01*
X148840414Y-111643800D01*
X148840410Y-111643798D01*
X148836359Y-111640598D01*
X148795053Y-111617796D01*
X148745084Y-111567364D01*
X148730312Y-111497921D01*
X148755428Y-111431516D01*
X148782780Y-111404909D01*
X148849827Y-111357085D01*
X148961860Y-111277173D01*
X149021052Y-111218188D01*
X149116435Y-111123137D01*
X149120096Y-111119489D01*
X149179594Y-111036689D01*
X149247435Y-110942277D01*
X149250453Y-110938077D01*
X149349430Y-110737811D01*
X149414370Y-110524069D01*
X149443529Y-110302590D01*
X149443846Y-110289633D01*
X149445074Y-110239365D01*
X149445074Y-110239361D01*
X149445156Y-110236000D01*
X149426852Y-110013361D01*
X149372431Y-109796702D01*
X149283354Y-109591840D01*
X149162014Y-109404277D01*
X149011670Y-109239051D01*
X149007619Y-109235852D01*
X149007615Y-109235848D01*
X148840414Y-109103800D01*
X148840410Y-109103798D01*
X148836359Y-109100598D01*
X148795053Y-109077796D01*
X148745084Y-109027364D01*
X148730312Y-108957921D01*
X148755428Y-108891516D01*
X148782780Y-108864909D01*
X148826603Y-108833650D01*
X148961860Y-108737173D01*
X149120096Y-108579489D01*
X149134598Y-108559308D01*
X149247435Y-108402277D01*
X149250453Y-108398077D01*
X149349430Y-108197811D01*
X149414370Y-107984069D01*
X149443529Y-107762590D01*
X149445156Y-107696000D01*
X149426852Y-107473361D01*
X149372431Y-107256702D01*
X149283354Y-107051840D01*
X149162014Y-106864277D01*
X149011670Y-106699051D01*
X149007619Y-106695852D01*
X149007615Y-106695848D01*
X148840414Y-106563800D01*
X148840410Y-106563798D01*
X148836359Y-106560598D01*
X148795053Y-106537796D01*
X148745084Y-106487364D01*
X148730312Y-106417921D01*
X148755428Y-106351516D01*
X148782780Y-106324909D01*
X148826603Y-106293650D01*
X148961860Y-106197173D01*
X149120096Y-106039489D01*
X149179594Y-105956689D01*
X149247435Y-105862277D01*
X149250453Y-105858077D01*
X149254145Y-105850608D01*
X149347136Y-105662453D01*
X149347137Y-105662451D01*
X149349430Y-105657811D01*
X149414370Y-105444069D01*
X149443529Y-105222590D01*
X149445156Y-105156000D01*
X149426852Y-104933361D01*
X149372431Y-104716702D01*
X149283354Y-104511840D01*
X149162014Y-104324277D01*
X149011670Y-104159051D01*
X149007619Y-104155852D01*
X149007615Y-104155848D01*
X148840414Y-104023800D01*
X148840410Y-104023798D01*
X148836359Y-104020598D01*
X148794569Y-103997529D01*
X148744598Y-103947097D01*
X148729826Y-103877654D01*
X148754942Y-103811248D01*
X148782294Y-103784641D01*
X148957328Y-103659792D01*
X148965200Y-103653139D01*
X149116052Y-103502812D01*
X149122730Y-103494965D01*
X149247003Y-103322020D01*
X149252313Y-103313183D01*
X149346670Y-103122267D01*
X149350469Y-103112672D01*
X149412377Y-102908910D01*
X149414555Y-102898837D01*
X149415986Y-102887962D01*
X149413775Y-102873778D01*
X149400617Y-102870000D01*
X146765225Y-102870000D01*
X146751694Y-102873973D01*
X146750257Y-102883966D01*
X146780565Y-103018446D01*
X146783645Y-103028275D01*
X146863770Y-103225603D01*
X146868413Y-103234794D01*
X146979694Y-103416388D01*
X146985777Y-103424699D01*
X147125213Y-103585667D01*
X147132580Y-103592883D01*
X147296434Y-103728916D01*
X147304881Y-103734831D01*
X147373969Y-103775203D01*
X147422693Y-103826842D01*
X147435764Y-103896625D01*
X147409033Y-103962396D01*
X147368584Y-103995752D01*
X147355607Y-104002507D01*
X147351474Y-104005610D01*
X147351471Y-104005612D01*
X147327247Y-104023800D01*
X147176965Y-104136635D01*
X147022629Y-104298138D01*
X147019715Y-104302410D01*
X147019714Y-104302411D01*
X146907095Y-104467504D01*
X146852184Y-104512507D01*
X146803007Y-104522500D01*
X146110594Y-104522500D01*
X146042473Y-104502498D01*
X146021499Y-104485595D01*
X142460499Y-100924595D01*
X142426473Y-100862283D01*
X142431538Y-100791468D01*
X142474085Y-100734632D01*
X142540605Y-100709821D01*
X142549594Y-100709500D01*
X146806274Y-100709500D01*
X146874395Y-100729502D01*
X146913707Y-100769665D01*
X146981987Y-100881088D01*
X147128250Y-101049938D01*
X147300126Y-101192632D01*
X147373445Y-101235476D01*
X147373955Y-101235774D01*
X147422679Y-101287412D01*
X147435750Y-101357195D01*
X147409019Y-101422967D01*
X147368562Y-101456327D01*
X147360457Y-101460546D01*
X147351738Y-101466036D01*
X147181433Y-101593905D01*
X147173726Y-101600748D01*
X147026590Y-101754717D01*
X147020104Y-101762727D01*
X146900098Y-101938649D01*
X146895000Y-101947623D01*
X146805338Y-102140783D01*
X146801775Y-102150470D01*
X146746389Y-102350183D01*
X146747912Y-102358607D01*
X146760292Y-102362000D01*
X149400344Y-102362000D01*
X149413875Y-102358027D01*
X149415180Y-102348947D01*
X149373214Y-102181875D01*
X149369894Y-102172124D01*
X149284972Y-101976814D01*
X149280105Y-101967739D01*
X149164426Y-101788926D01*
X149158136Y-101780757D01*
X149014806Y-101623240D01*
X149007273Y-101616215D01*
X148840139Y-101484222D01*
X148831556Y-101478520D01*
X148794602Y-101458120D01*
X148744631Y-101407687D01*
X148729859Y-101338245D01*
X148754975Y-101271839D01*
X148782327Y-101245232D01*
X148805797Y-101228491D01*
X148961860Y-101117173D01*
X149120096Y-100959489D01*
X149179594Y-100876689D01*
X149247435Y-100782277D01*
X149250453Y-100778077D01*
X149254145Y-100770608D01*
X149347136Y-100582453D01*
X149347137Y-100582451D01*
X149349430Y-100577811D01*
X149414370Y-100364069D01*
X149443529Y-100142590D01*
X149445156Y-100076000D01*
X149426852Y-99853361D01*
X149372431Y-99636702D01*
X149283354Y-99431840D01*
X149240989Y-99366354D01*
X149164822Y-99248617D01*
X149164820Y-99248614D01*
X149162014Y-99244277D01*
X149011670Y-99079051D01*
X149007619Y-99075852D01*
X149007615Y-99075848D01*
X148840414Y-98943800D01*
X148840410Y-98943798D01*
X148836359Y-98940598D01*
X148795053Y-98917796D01*
X148745084Y-98867364D01*
X148730312Y-98797921D01*
X148755428Y-98731516D01*
X148782780Y-98704909D01*
X148843270Y-98661762D01*
X148961860Y-98577173D01*
X149120096Y-98419489D01*
X149179594Y-98336689D01*
X149247435Y-98242277D01*
X149250453Y-98238077D01*
X149254145Y-98230608D01*
X149347136Y-98042453D01*
X149347137Y-98042451D01*
X149349430Y-98037811D01*
X149414370Y-97824069D01*
X149443529Y-97602590D01*
X149445156Y-97536000D01*
X149426852Y-97313361D01*
X149372431Y-97096702D01*
X149283354Y-96891840D01*
X149234132Y-96815754D01*
X149164822Y-96708617D01*
X149164820Y-96708614D01*
X149162014Y-96704277D01*
X149011670Y-96539051D01*
X149007619Y-96535852D01*
X149007615Y-96535848D01*
X148840414Y-96403800D01*
X148840410Y-96403798D01*
X148836359Y-96400598D01*
X148795053Y-96377796D01*
X148745084Y-96327364D01*
X148730312Y-96257921D01*
X148755428Y-96191516D01*
X148782780Y-96164909D01*
X148826603Y-96133650D01*
X148961860Y-96037173D01*
X149120096Y-95879489D01*
X149134003Y-95860136D01*
X149247435Y-95702277D01*
X149250453Y-95698077D01*
X149254611Y-95689665D01*
X149347136Y-95502453D01*
X149347137Y-95502451D01*
X149349430Y-95497811D01*
X149414370Y-95284069D01*
X149443529Y-95062590D01*
X149443893Y-95047710D01*
X149445074Y-94999365D01*
X149445074Y-94999361D01*
X149445156Y-94996000D01*
X149426852Y-94773361D01*
X149372431Y-94556702D01*
X149283354Y-94351840D01*
X149242599Y-94288842D01*
X149164822Y-94168617D01*
X149164820Y-94168614D01*
X149162014Y-94164277D01*
X149011670Y-93999051D01*
X149007619Y-93995852D01*
X149007615Y-93995848D01*
X148840414Y-93863800D01*
X148840410Y-93863798D01*
X148836359Y-93860598D01*
X148795053Y-93837796D01*
X148745084Y-93787364D01*
X148730312Y-93717921D01*
X148755428Y-93651516D01*
X148782780Y-93624909D01*
X148826603Y-93593650D01*
X148961860Y-93497173D01*
X149120096Y-93339489D01*
X149179594Y-93256689D01*
X149247435Y-93162277D01*
X149250453Y-93158077D01*
X149254145Y-93150608D01*
X149347136Y-92962453D01*
X149347137Y-92962451D01*
X149349430Y-92957811D01*
X149414370Y-92744069D01*
X149443529Y-92522590D01*
X149445156Y-92456000D01*
X149426852Y-92233361D01*
X149372431Y-92016702D01*
X149283354Y-91811840D01*
X149237223Y-91740532D01*
X149164822Y-91628617D01*
X149164820Y-91628614D01*
X149162014Y-91624277D01*
X149011670Y-91459051D01*
X149007619Y-91455852D01*
X149007615Y-91455848D01*
X148840414Y-91323800D01*
X148840410Y-91323798D01*
X148836359Y-91320598D01*
X148795053Y-91297796D01*
X148745084Y-91247364D01*
X148730312Y-91177921D01*
X148755428Y-91111516D01*
X148782780Y-91084909D01*
X148826603Y-91053650D01*
X148961860Y-90957173D01*
X149120096Y-90799489D01*
X149179594Y-90716689D01*
X149247435Y-90622277D01*
X149250453Y-90618077D01*
X149349430Y-90417811D01*
X149414370Y-90204069D01*
X149443529Y-89982590D01*
X149445156Y-89916000D01*
X149426852Y-89693361D01*
X149372431Y-89476702D01*
X149283354Y-89271840D01*
X149162014Y-89084277D01*
X149011670Y-88919051D01*
X149007619Y-88915852D01*
X149007615Y-88915848D01*
X148840414Y-88783800D01*
X148840410Y-88783798D01*
X148836359Y-88780598D01*
X148795053Y-88757796D01*
X148745084Y-88707364D01*
X148730312Y-88637921D01*
X148755428Y-88571516D01*
X148782780Y-88544909D01*
X148826603Y-88513650D01*
X148961860Y-88417173D01*
X148982605Y-88396501D01*
X149116435Y-88263137D01*
X149120096Y-88259489D01*
X149179594Y-88176689D01*
X149247435Y-88082277D01*
X149250453Y-88078077D01*
X149349430Y-87877811D01*
X149414370Y-87664069D01*
X149443529Y-87442590D01*
X149445156Y-87376000D01*
X149426852Y-87153361D01*
X149372431Y-86936702D01*
X149283354Y-86731840D01*
X149243906Y-86670862D01*
X149164822Y-86548617D01*
X149164820Y-86548614D01*
X149162014Y-86544277D01*
X149011670Y-86379051D01*
X149007619Y-86375852D01*
X149007615Y-86375848D01*
X148840414Y-86243800D01*
X148840410Y-86243798D01*
X148836359Y-86240598D01*
X148795053Y-86217796D01*
X148745084Y-86167364D01*
X148730312Y-86097921D01*
X148755428Y-86031516D01*
X148782780Y-86004909D01*
X148826603Y-85973650D01*
X148961860Y-85877173D01*
X149011876Y-85827332D01*
X149116435Y-85723137D01*
X149120096Y-85719489D01*
X149179594Y-85636689D01*
X149247435Y-85542277D01*
X149250453Y-85538077D01*
X149349430Y-85337811D01*
X149414370Y-85124069D01*
X149443529Y-84902590D01*
X149443630Y-84898461D01*
X149445074Y-84839365D01*
X149445074Y-84839361D01*
X149445156Y-84836000D01*
X149426852Y-84613361D01*
X149372431Y-84396702D01*
X149283354Y-84191840D01*
X149162014Y-84004277D01*
X149011670Y-83839051D01*
X149007619Y-83835852D01*
X149007615Y-83835848D01*
X148840414Y-83703800D01*
X148840410Y-83703798D01*
X148836359Y-83700598D01*
X148795053Y-83677796D01*
X148745084Y-83627364D01*
X148730312Y-83557921D01*
X148755428Y-83491516D01*
X148782780Y-83464909D01*
X148826603Y-83433650D01*
X148961860Y-83337173D01*
X149120096Y-83179489D01*
X149179594Y-83096689D01*
X149247435Y-83002277D01*
X149250453Y-82998077D01*
X149349430Y-82797811D01*
X149414370Y-82584069D01*
X149443529Y-82362590D01*
X149445156Y-82296000D01*
X149426852Y-82073361D01*
X149372431Y-81856702D01*
X149283354Y-81651840D01*
X149243906Y-81590862D01*
X149164822Y-81468617D01*
X149164820Y-81468614D01*
X149162014Y-81464277D01*
X149011670Y-81299051D01*
X149007619Y-81295852D01*
X149007615Y-81295848D01*
X148840414Y-81163800D01*
X148840410Y-81163798D01*
X148836359Y-81160598D01*
X148795053Y-81137796D01*
X148745084Y-81087364D01*
X148730312Y-81017921D01*
X148755428Y-80951516D01*
X148782780Y-80924909D01*
X148826603Y-80893650D01*
X148961860Y-80797173D01*
X148967138Y-80791914D01*
X149116435Y-80643137D01*
X149120096Y-80639489D01*
X149179594Y-80556689D01*
X149247435Y-80462277D01*
X149250453Y-80458077D01*
X149349430Y-80257811D01*
X149399301Y-80093668D01*
X149412865Y-80049023D01*
X149412865Y-80049021D01*
X149414370Y-80044069D01*
X149443529Y-79822590D01*
X149445156Y-79756000D01*
X149426852Y-79533361D01*
X149372431Y-79316702D01*
X149283354Y-79111840D01*
X149162014Y-78924277D01*
X149011670Y-78759051D01*
X149007619Y-78755852D01*
X149007615Y-78755848D01*
X148840414Y-78623800D01*
X148840410Y-78623798D01*
X148836359Y-78620598D01*
X148795053Y-78597796D01*
X148745084Y-78547364D01*
X148730312Y-78477921D01*
X148755428Y-78411516D01*
X148782780Y-78384909D01*
X148826603Y-78353650D01*
X148961860Y-78257173D01*
X149031079Y-78188196D01*
X149116435Y-78103137D01*
X149120096Y-78099489D01*
X149179594Y-78016689D01*
X149247435Y-77922277D01*
X149250453Y-77918077D01*
X149349430Y-77717811D01*
X149414370Y-77504069D01*
X149443529Y-77282590D01*
X149445156Y-77216000D01*
X149426852Y-76993361D01*
X149372431Y-76776702D01*
X149283354Y-76571840D01*
X149162014Y-76384277D01*
X149011670Y-76219051D01*
X149007619Y-76215852D01*
X149007615Y-76215848D01*
X148840414Y-76083800D01*
X148840410Y-76083798D01*
X148836359Y-76080598D01*
X148795053Y-76057796D01*
X148745084Y-76007364D01*
X148730312Y-75937921D01*
X148755428Y-75871516D01*
X148782780Y-75844909D01*
X148846008Y-75799809D01*
X148961860Y-75717173D01*
X148969686Y-75709375D01*
X149116435Y-75563137D01*
X149120096Y-75559489D01*
X149179594Y-75476689D01*
X149247435Y-75382277D01*
X149250453Y-75378077D01*
X149349430Y-75177811D01*
X149414370Y-74964069D01*
X149443529Y-74742590D01*
X149443611Y-74739240D01*
X149445074Y-74679365D01*
X149445074Y-74679361D01*
X149445156Y-74676000D01*
X149426852Y-74453361D01*
X149372431Y-74236702D01*
X149283354Y-74031840D01*
X149162014Y-73844277D01*
X149011670Y-73679051D01*
X149007619Y-73675852D01*
X149007615Y-73675848D01*
X148840414Y-73543800D01*
X148840410Y-73543798D01*
X148836359Y-73540598D01*
X148794569Y-73517529D01*
X148744598Y-73467097D01*
X148729826Y-73397654D01*
X148754942Y-73331248D01*
X148782294Y-73304641D01*
X148957328Y-73179792D01*
X148965200Y-73173139D01*
X149116052Y-73022812D01*
X149122730Y-73014965D01*
X149247003Y-72842020D01*
X149252313Y-72833183D01*
X149346670Y-72642267D01*
X149350469Y-72632672D01*
X149412377Y-72428910D01*
X149414555Y-72418837D01*
X149415986Y-72407962D01*
X149413775Y-72393778D01*
X149400617Y-72390000D01*
X146765225Y-72390000D01*
X146751694Y-72393973D01*
X146750257Y-72403966D01*
X146780565Y-72538446D01*
X146783645Y-72548275D01*
X146863770Y-72745603D01*
X146868413Y-72754794D01*
X146979694Y-72936388D01*
X146985777Y-72944699D01*
X147125213Y-73105667D01*
X147132580Y-73112883D01*
X147296434Y-73248916D01*
X147304881Y-73254831D01*
X147373969Y-73295203D01*
X147422693Y-73346842D01*
X147435764Y-73416625D01*
X147409033Y-73482396D01*
X147368584Y-73515752D01*
X147355607Y-73522507D01*
X147351474Y-73525610D01*
X147351471Y-73525612D01*
X147327247Y-73543800D01*
X147176965Y-73656635D01*
X147022629Y-73818138D01*
X146896743Y-74002680D01*
X146802688Y-74205305D01*
X146742989Y-74420570D01*
X146719251Y-74642695D01*
X146719548Y-74647848D01*
X146719548Y-74647851D01*
X146729249Y-74816091D01*
X146732110Y-74865715D01*
X146733247Y-74870761D01*
X146733248Y-74870767D01*
X146765453Y-75013668D01*
X146760917Y-75084520D01*
X146731631Y-75130464D01*
X142639075Y-79223020D01*
X142576763Y-79257046D01*
X142505948Y-79251981D01*
X142449112Y-79209434D01*
X142424301Y-79142914D01*
X142423980Y-79133925D01*
X142423980Y-76202114D01*
X142443982Y-76133993D01*
X142460885Y-76113019D01*
X146655000Y-71918905D01*
X146717312Y-71884879D01*
X146744095Y-71882000D01*
X149400344Y-71882000D01*
X149413875Y-71878027D01*
X149415180Y-71868947D01*
X149373214Y-71701875D01*
X149369894Y-71692124D01*
X149284972Y-71496814D01*
X149280105Y-71487739D01*
X149164426Y-71308926D01*
X149158136Y-71300757D01*
X149014293Y-71142677D01*
X148983241Y-71078831D01*
X148991635Y-71008333D01*
X149036812Y-70953564D01*
X149063256Y-70939895D01*
X149170297Y-70899767D01*
X149178705Y-70896615D01*
X149295261Y-70809261D01*
X149382615Y-70692705D01*
X149433745Y-70556316D01*
X149440500Y-70494134D01*
X149440500Y-68697866D01*
X149433745Y-68635684D01*
X149382615Y-68499295D01*
X149295261Y-68382739D01*
X149178705Y-68295385D01*
X149042316Y-68244255D01*
X148980134Y-68237500D01*
X147183866Y-68237500D01*
X147121684Y-68244255D01*
X146985295Y-68295385D01*
X146868739Y-68382739D01*
X146781385Y-68499295D01*
X146730255Y-68635684D01*
X146723500Y-68697866D01*
X146723500Y-70006406D01*
X146703498Y-70074527D01*
X146686595Y-70095501D01*
X141398227Y-75383868D01*
X141389941Y-75391408D01*
X141383462Y-75395520D01*
X141378037Y-75401297D01*
X141336837Y-75445171D01*
X141334082Y-75448013D01*
X141314345Y-75467750D01*
X141311865Y-75470947D01*
X141304162Y-75479967D01*
X141273894Y-75512199D01*
X141270075Y-75519145D01*
X141270073Y-75519148D01*
X141264132Y-75529954D01*
X141253281Y-75546473D01*
X141240866Y-75562479D01*
X141237721Y-75569748D01*
X141237718Y-75569752D01*
X141223306Y-75603057D01*
X141218089Y-75613707D01*
X141196785Y-75652460D01*
X141194814Y-75660135D01*
X141194814Y-75660136D01*
X141191747Y-75672082D01*
X141185343Y-75690786D01*
X141177299Y-75709375D01*
X141176060Y-75717198D01*
X141176057Y-75717208D01*
X141170381Y-75753044D01*
X141167975Y-75764664D01*
X141156980Y-75807490D01*
X141156980Y-75827744D01*
X141155429Y-75847454D01*
X141152260Y-75867463D01*
X141153006Y-75875355D01*
X141156421Y-75911481D01*
X141156980Y-75923339D01*
X141156980Y-89419174D01*
X141136978Y-89487295D01*
X141120075Y-89508269D01*
X139516827Y-91111516D01*
X137950995Y-92677348D01*
X137922983Y-92696070D01*
X137923960Y-92697762D01*
X137916808Y-92701891D01*
X137909177Y-92705052D01*
X137817890Y-92775098D01*
X136878326Y-93714662D01*
X136816014Y-93748688D01*
X136745199Y-93743623D01*
X136700136Y-93714662D01*
X135760572Y-92775098D01*
X135669285Y-92705052D01*
X135661658Y-92701893D01*
X135654502Y-92697761D01*
X135655480Y-92696067D01*
X135627465Y-92677347D01*
X131383525Y-88433406D01*
X131349499Y-88371094D01*
X131346620Y-88344311D01*
X131346620Y-75165883D01*
X131347147Y-75154699D01*
X131348821Y-75147211D01*
X131346682Y-75079152D01*
X131346620Y-75075195D01*
X131346620Y-75047264D01*
X131346114Y-75043258D01*
X131345181Y-75031412D01*
X131344042Y-74995157D01*
X131343793Y-74987230D01*
X131338142Y-74967778D01*
X131334134Y-74948426D01*
X131332588Y-74936188D01*
X131332587Y-74936186D01*
X131331594Y-74928323D01*
X131315314Y-74887206D01*
X131311479Y-74876005D01*
X131299138Y-74833526D01*
X131295105Y-74826707D01*
X131295103Y-74826702D01*
X131288827Y-74816091D01*
X131280130Y-74798341D01*
X131272672Y-74779503D01*
X131246691Y-74743743D01*
X131240173Y-74733821D01*
X131221698Y-74702580D01*
X131221694Y-74702575D01*
X131217662Y-74695757D01*
X131203338Y-74681433D01*
X131190496Y-74666398D01*
X131178592Y-74650013D01*
X131144526Y-74621831D01*
X131135747Y-74613842D01*
X126617405Y-70095500D01*
X126583379Y-70033188D01*
X126580500Y-70006405D01*
X126580500Y-68697866D01*
X126573745Y-68635684D01*
X126522615Y-68499295D01*
X126435261Y-68382739D01*
X126318705Y-68295385D01*
X126182316Y-68244255D01*
X126120134Y-68237500D01*
X124323866Y-68237500D01*
X124261684Y-68244255D01*
X124125295Y-68295385D01*
X124008739Y-68382739D01*
X123921385Y-68499295D01*
X123870255Y-68635684D01*
X123863500Y-68697866D01*
X123863500Y-70494134D01*
X123870255Y-70556316D01*
X123921385Y-70692705D01*
X124008739Y-70809261D01*
X124125295Y-70896615D01*
X124133704Y-70899767D01*
X124133705Y-70899768D01*
X124242451Y-70940535D01*
X124299216Y-70983176D01*
X124323916Y-71049738D01*
X124308709Y-71119087D01*
X124289316Y-71145568D01*
X124162629Y-71278138D01*
X124036743Y-71462680D01*
X123942688Y-71665305D01*
X123882989Y-71880570D01*
X123859251Y-72102695D01*
X123859548Y-72107848D01*
X123859548Y-72107851D01*
X123865011Y-72202590D01*
X123872110Y-72325715D01*
X123873247Y-72330761D01*
X123873248Y-72330767D01*
X123886597Y-72390000D01*
X123921222Y-72543639D01*
X124005266Y-72750616D01*
X124121987Y-72941088D01*
X124268250Y-73109938D01*
X124440126Y-73252632D01*
X124510595Y-73293811D01*
X124513445Y-73295476D01*
X124562169Y-73347114D01*
X124575240Y-73416897D01*
X124548509Y-73482669D01*
X124508055Y-73516027D01*
X124495607Y-73522507D01*
X124491474Y-73525610D01*
X124491471Y-73525612D01*
X124467247Y-73543800D01*
X124316965Y-73656635D01*
X124162629Y-73818138D01*
X124036743Y-74002680D01*
X123942688Y-74205305D01*
X123882989Y-74420570D01*
X123859251Y-74642695D01*
X123859548Y-74647848D01*
X123859548Y-74647851D01*
X123869249Y-74816091D01*
X123872110Y-74865715D01*
X123873247Y-74870761D01*
X123873248Y-74870767D01*
X123893119Y-74958939D01*
X123921222Y-75083639D01*
X124005266Y-75290616D01*
X124041365Y-75349524D01*
X124115768Y-75470939D01*
X124121987Y-75481088D01*
X124268250Y-75649938D01*
X124440126Y-75792632D01*
X124500213Y-75827744D01*
X124513445Y-75835476D01*
X124562169Y-75887114D01*
X124575240Y-75956897D01*
X124548509Y-76022669D01*
X124508055Y-76056027D01*
X124495607Y-76062507D01*
X124491474Y-76065610D01*
X124491471Y-76065612D01*
X124428331Y-76113019D01*
X124316965Y-76196635D01*
X124162629Y-76358138D01*
X124036743Y-76542680D01*
X123942688Y-76745305D01*
X123882989Y-76960570D01*
X123859251Y-77182695D01*
X123859548Y-77187848D01*
X123859548Y-77187851D01*
X123865011Y-77282590D01*
X123872110Y-77405715D01*
X123873247Y-77410761D01*
X123873248Y-77410767D01*
X123885563Y-77465412D01*
X123921222Y-77623639D01*
X124005266Y-77830616D01*
X124007965Y-77835020D01*
X124108219Y-77998620D01*
X124121987Y-78021088D01*
X124268250Y-78189938D01*
X124440126Y-78332632D01*
X124510595Y-78373811D01*
X124513445Y-78375476D01*
X124562169Y-78427114D01*
X124575240Y-78496897D01*
X124548509Y-78562669D01*
X124508055Y-78596027D01*
X124495607Y-78602507D01*
X124491474Y-78605610D01*
X124491471Y-78605612D01*
X124467247Y-78623800D01*
X124316965Y-78736635D01*
X124162629Y-78898138D01*
X124036743Y-79082680D01*
X123989716Y-79183992D01*
X123971600Y-79223020D01*
X123942688Y-79285305D01*
X123882989Y-79500570D01*
X123859251Y-79722695D01*
X123859548Y-79727848D01*
X123859548Y-79727851D01*
X123865011Y-79822590D01*
X123872110Y-79945715D01*
X123873247Y-79950761D01*
X123873248Y-79950767D01*
X123878594Y-79974486D01*
X123921222Y-80163639D01*
X124005266Y-80370616D01*
X124121987Y-80561088D01*
X124268250Y-80729938D01*
X124440126Y-80872632D01*
X124510595Y-80913811D01*
X124513445Y-80915476D01*
X124562169Y-80967114D01*
X124575240Y-81036897D01*
X124548509Y-81102669D01*
X124508055Y-81136027D01*
X124495607Y-81142507D01*
X124491474Y-81145610D01*
X124491471Y-81145612D01*
X124467247Y-81163800D01*
X124316965Y-81276635D01*
X124162629Y-81438138D01*
X124036743Y-81622680D01*
X123942688Y-81825305D01*
X123882989Y-82040570D01*
X123859251Y-82262695D01*
X123859548Y-82267848D01*
X123859548Y-82267851D01*
X123865011Y-82362590D01*
X123872110Y-82485715D01*
X123873247Y-82490761D01*
X123873248Y-82490767D01*
X123893119Y-82578939D01*
X123921222Y-82703639D01*
X124005266Y-82910616D01*
X124007965Y-82915020D01*
X124092271Y-83052595D01*
X124121987Y-83101088D01*
X124268250Y-83269938D01*
X124440126Y-83412632D01*
X124510595Y-83453811D01*
X124513445Y-83455476D01*
X124562169Y-83507114D01*
X124575240Y-83576897D01*
X124548509Y-83642669D01*
X124508055Y-83676027D01*
X124495607Y-83682507D01*
X124491474Y-83685610D01*
X124491471Y-83685612D01*
X124321100Y-83813530D01*
X124316965Y-83816635D01*
X124162629Y-83978138D01*
X124036743Y-84162680D01*
X123942688Y-84365305D01*
X123882989Y-84580570D01*
X123859251Y-84802695D01*
X123859548Y-84807848D01*
X123859548Y-84807851D01*
X123865011Y-84902590D01*
X123872110Y-85025715D01*
X123873247Y-85030761D01*
X123873248Y-85030767D01*
X123885379Y-85084595D01*
X123921222Y-85243639D01*
X124005266Y-85450616D01*
X124121987Y-85641088D01*
X124268250Y-85809938D01*
X124440126Y-85952632D01*
X124510595Y-85993811D01*
X124513445Y-85995476D01*
X124562169Y-86047114D01*
X124575240Y-86116897D01*
X124548509Y-86182669D01*
X124508055Y-86216027D01*
X124495607Y-86222507D01*
X124491474Y-86225610D01*
X124491471Y-86225612D01*
X124350443Y-86331499D01*
X124316965Y-86356635D01*
X124162629Y-86518138D01*
X124036743Y-86702680D01*
X124021003Y-86736590D01*
X123950761Y-86887914D01*
X123942688Y-86905305D01*
X123882989Y-87120570D01*
X123859251Y-87342695D01*
X123859548Y-87347848D01*
X123859548Y-87347851D01*
X123865011Y-87442590D01*
X123872110Y-87565715D01*
X123873247Y-87570761D01*
X123873248Y-87570767D01*
X123893119Y-87658939D01*
X123921222Y-87783639D01*
X124005266Y-87990616D01*
X124121987Y-88181088D01*
X124268250Y-88349938D01*
X124440126Y-88492632D01*
X124510595Y-88533811D01*
X124513445Y-88535476D01*
X124562169Y-88587114D01*
X124575240Y-88656897D01*
X124548509Y-88722669D01*
X124508055Y-88756027D01*
X124495607Y-88762507D01*
X124491474Y-88765610D01*
X124491471Y-88765612D01*
X124321100Y-88893530D01*
X124316965Y-88896635D01*
X124162629Y-89058138D01*
X124036743Y-89242680D01*
X124021003Y-89276590D01*
X123954818Y-89419174D01*
X123942688Y-89445305D01*
X123882989Y-89660570D01*
X123859251Y-89882695D01*
X123859548Y-89887848D01*
X123859548Y-89887851D01*
X123865011Y-89982590D01*
X123872110Y-90105715D01*
X123873247Y-90110761D01*
X123873248Y-90110767D01*
X123893119Y-90198939D01*
X123921222Y-90323639D01*
X124005266Y-90530616D01*
X124121987Y-90721088D01*
X124268250Y-90889938D01*
X124440126Y-91032632D01*
X124510595Y-91073811D01*
X124513445Y-91075476D01*
X124562169Y-91127114D01*
X124575240Y-91196897D01*
X124548509Y-91262669D01*
X124508055Y-91296027D01*
X124495607Y-91302507D01*
X124491474Y-91305610D01*
X124491471Y-91305612D01*
X124467247Y-91323800D01*
X124316965Y-91436635D01*
X124162629Y-91598138D01*
X124036743Y-91782680D01*
X123942688Y-91985305D01*
X123882989Y-92200570D01*
X123859251Y-92422695D01*
X123859548Y-92427848D01*
X123859548Y-92427851D01*
X123865011Y-92522590D01*
X123872110Y-92645715D01*
X123873247Y-92650761D01*
X123873248Y-92650767D01*
X123893119Y-92738939D01*
X123921222Y-92863639D01*
X124005266Y-93070616D01*
X124053707Y-93149665D01*
X124119291Y-93256688D01*
X124121987Y-93261088D01*
X124268250Y-93429938D01*
X124440126Y-93572632D01*
X124513445Y-93615476D01*
X124513955Y-93615774D01*
X124562679Y-93667412D01*
X124575750Y-93737195D01*
X124549019Y-93802967D01*
X124508562Y-93836327D01*
X124500457Y-93840546D01*
X124491738Y-93846036D01*
X124321433Y-93973905D01*
X124313726Y-93980748D01*
X124166590Y-94134717D01*
X124160104Y-94142727D01*
X124040098Y-94318649D01*
X124035000Y-94327623D01*
X123945338Y-94520783D01*
X123941775Y-94530470D01*
X123886389Y-94730183D01*
X123887912Y-94738607D01*
X123900292Y-94742000D01*
X126540344Y-94742000D01*
X126553875Y-94738027D01*
X126555180Y-94728947D01*
X126513214Y-94561875D01*
X126509894Y-94552124D01*
X126424972Y-94356814D01*
X126420105Y-94347739D01*
X126304426Y-94168926D01*
X126298136Y-94160757D01*
X126154806Y-94003240D01*
X126147273Y-93996215D01*
X125980139Y-93864222D01*
X125971556Y-93858520D01*
X125934602Y-93838120D01*
X125884631Y-93787687D01*
X125869859Y-93718245D01*
X125894975Y-93651839D01*
X125922327Y-93625232D01*
X125945797Y-93608491D01*
X126101860Y-93497173D01*
X126260096Y-93339489D01*
X126319594Y-93256689D01*
X126387435Y-93162277D01*
X126390453Y-93158077D01*
X126392746Y-93153437D01*
X126394446Y-93150608D01*
X126446674Y-93102518D01*
X126502451Y-93089500D01*
X127831658Y-93089500D01*
X127899779Y-93109502D01*
X127920753Y-93126405D01*
X131201437Y-96407089D01*
X131235463Y-96469401D01*
X131230398Y-96540216D01*
X131189046Y-96596146D01*
X131103663Y-96661662D01*
X131103647Y-96661676D01*
X131100376Y-96664186D01*
X130940224Y-96824338D01*
X130918074Y-96853205D01*
X130860736Y-96895072D01*
X130818112Y-96902500D01*
X126498805Y-96902500D01*
X126430684Y-96882498D01*
X126393013Y-96844940D01*
X126304822Y-96708617D01*
X126304820Y-96708614D01*
X126302014Y-96704277D01*
X126151670Y-96539051D01*
X126147619Y-96535852D01*
X126147615Y-96535848D01*
X125980414Y-96403800D01*
X125980410Y-96403798D01*
X125976359Y-96400598D01*
X125934569Y-96377529D01*
X125884598Y-96327097D01*
X125869826Y-96257654D01*
X125894942Y-96191248D01*
X125922294Y-96164641D01*
X126097328Y-96039792D01*
X126105200Y-96033139D01*
X126256052Y-95882812D01*
X126262730Y-95874965D01*
X126387003Y-95702020D01*
X126392313Y-95693183D01*
X126486670Y-95502267D01*
X126490469Y-95492672D01*
X126552377Y-95288910D01*
X126554555Y-95278837D01*
X126555986Y-95267962D01*
X126553775Y-95253778D01*
X126540617Y-95250000D01*
X123905225Y-95250000D01*
X123891694Y-95253973D01*
X123890257Y-95263966D01*
X123920565Y-95398446D01*
X123923645Y-95408275D01*
X124003770Y-95605603D01*
X124008413Y-95614794D01*
X124119694Y-95796388D01*
X124125777Y-95804699D01*
X124265213Y-95965667D01*
X124272580Y-95972883D01*
X124436434Y-96108916D01*
X124444881Y-96114831D01*
X124513969Y-96155203D01*
X124562693Y-96206842D01*
X124575764Y-96276625D01*
X124549033Y-96342396D01*
X124508584Y-96375752D01*
X124495607Y-96382507D01*
X124491474Y-96385610D01*
X124491471Y-96385612D01*
X124321100Y-96513530D01*
X124316965Y-96516635D01*
X124162629Y-96678138D01*
X124036743Y-96862680D01*
X124018259Y-96902500D01*
X123966035Y-97015009D01*
X123942688Y-97065305D01*
X123882989Y-97280570D01*
X123859251Y-97502695D01*
X123859548Y-97507848D01*
X123859548Y-97507851D01*
X123865011Y-97602590D01*
X123872110Y-97725715D01*
X123873247Y-97730761D01*
X123873248Y-97730767D01*
X123893119Y-97818939D01*
X123921222Y-97943639D01*
X124005266Y-98150616D01*
X124053707Y-98229665D01*
X124119291Y-98336688D01*
X124121987Y-98341088D01*
X124268250Y-98509938D01*
X124440126Y-98652632D01*
X124466660Y-98668137D01*
X124513445Y-98695476D01*
X124562169Y-98747114D01*
X124575240Y-98816897D01*
X124548509Y-98882669D01*
X124508055Y-98916027D01*
X124495607Y-98922507D01*
X124491474Y-98925610D01*
X124491471Y-98925612D01*
X124368098Y-99018243D01*
X124316965Y-99056635D01*
X124313393Y-99060373D01*
X124169291Y-99211167D01*
X124162629Y-99218138D01*
X124036743Y-99402680D01*
X123942688Y-99605305D01*
X123882989Y-99820570D01*
X123859251Y-100042695D01*
X123859548Y-100047848D01*
X123859548Y-100047851D01*
X123865011Y-100142590D01*
X123872110Y-100265715D01*
X123873247Y-100270761D01*
X123873248Y-100270767D01*
X123891125Y-100350090D01*
X123921222Y-100483639D01*
X124005266Y-100690616D01*
X124007965Y-100695020D01*
X124119291Y-100876688D01*
X124121987Y-100881088D01*
X124268250Y-101049938D01*
X124440126Y-101192632D01*
X124510595Y-101233811D01*
X124513445Y-101235476D01*
X124562169Y-101287114D01*
X124575240Y-101356897D01*
X124548509Y-101422669D01*
X124508055Y-101456027D01*
X124495607Y-101462507D01*
X124491474Y-101465610D01*
X124491471Y-101465612D01*
X124321100Y-101593530D01*
X124316965Y-101596635D01*
X124162629Y-101758138D01*
X124159715Y-101762410D01*
X124159714Y-101762411D01*
X124158423Y-101764304D01*
X124036743Y-101942680D01*
X123989715Y-102043993D01*
X123951643Y-102126014D01*
X123942688Y-102145305D01*
X123882989Y-102360570D01*
X123859251Y-102582695D01*
X123872110Y-102805715D01*
X123873247Y-102810761D01*
X123873248Y-102810767D01*
X123886597Y-102870000D01*
X123921222Y-103023639D01*
X124005266Y-103230616D01*
X124121987Y-103421088D01*
X124268250Y-103589938D01*
X124440126Y-103732632D01*
X124510595Y-103773811D01*
X124513445Y-103775476D01*
X124562169Y-103827114D01*
X124575240Y-103896897D01*
X124548509Y-103962669D01*
X124508055Y-103996027D01*
X124495607Y-104002507D01*
X124491474Y-104005610D01*
X124491471Y-104005612D01*
X124467247Y-104023800D01*
X124316965Y-104136635D01*
X124162629Y-104298138D01*
X124036743Y-104482680D01*
X123942688Y-104685305D01*
X123882989Y-104900570D01*
X123859251Y-105122695D01*
X123859548Y-105127848D01*
X123859548Y-105127851D01*
X123865011Y-105222590D01*
X123872110Y-105345715D01*
X123873247Y-105350761D01*
X123873248Y-105350767D01*
X123893119Y-105438939D01*
X123921222Y-105563639D01*
X124005266Y-105770616D01*
X124121987Y-105961088D01*
X124268250Y-106129938D01*
X124440126Y-106272632D01*
X124510595Y-106313811D01*
X124513445Y-106315476D01*
X124562169Y-106367114D01*
X124575240Y-106436897D01*
X124548509Y-106502669D01*
X124508055Y-106536027D01*
X124495607Y-106542507D01*
X124491474Y-106545610D01*
X124491471Y-106545612D01*
X124321100Y-106673530D01*
X124316965Y-106676635D01*
X124162629Y-106838138D01*
X124036743Y-107022680D01*
X123942688Y-107225305D01*
X123882989Y-107440570D01*
X123859251Y-107662695D01*
X123859548Y-107667848D01*
X123859548Y-107667851D01*
X123865011Y-107762590D01*
X123872110Y-107885715D01*
X123873247Y-107890761D01*
X123873248Y-107890767D01*
X123878991Y-107916250D01*
X123921222Y-108103639D01*
X124005266Y-108310616D01*
X124121987Y-108501088D01*
X124268250Y-108669938D01*
X124440126Y-108812632D01*
X124510595Y-108853811D01*
X124513445Y-108855476D01*
X124562169Y-108907114D01*
X124575240Y-108976897D01*
X124548509Y-109042669D01*
X124508055Y-109076027D01*
X124495607Y-109082507D01*
X124491474Y-109085610D01*
X124491471Y-109085612D01*
X124321100Y-109213530D01*
X124316965Y-109216635D01*
X124162629Y-109378138D01*
X124036743Y-109562680D01*
X124021003Y-109596590D01*
X123946775Y-109756501D01*
X123942688Y-109765305D01*
X123882989Y-109980570D01*
X123859251Y-110202695D01*
X123859548Y-110207848D01*
X123859548Y-110207851D01*
X123865011Y-110302590D01*
X123872110Y-110425715D01*
X123873247Y-110430761D01*
X123873248Y-110430767D01*
X123887815Y-110495404D01*
X123921222Y-110643639D01*
X124005266Y-110850616D01*
X124121987Y-111041088D01*
X124268250Y-111209938D01*
X124440126Y-111352632D01*
X124510595Y-111393811D01*
X124513445Y-111395476D01*
X124562169Y-111447114D01*
X124575240Y-111516897D01*
X124548509Y-111582669D01*
X124508055Y-111616027D01*
X124495607Y-111622507D01*
X124491474Y-111625610D01*
X124491471Y-111625612D01*
X124467247Y-111643800D01*
X124316965Y-111756635D01*
X124162629Y-111918138D01*
X124036743Y-112102680D01*
X123942688Y-112305305D01*
X123882989Y-112520570D01*
X123859251Y-112742695D01*
X123859548Y-112747848D01*
X123859548Y-112747851D01*
X123865011Y-112842590D01*
X123872110Y-112965715D01*
X123873247Y-112970761D01*
X123873248Y-112970767D01*
X123893119Y-113058939D01*
X123921222Y-113183639D01*
X124005266Y-113390616D01*
X124121987Y-113581088D01*
X124268250Y-113749938D01*
X124440126Y-113892632D01*
X124510595Y-113933811D01*
X124513445Y-113935476D01*
X124562169Y-113987114D01*
X124575240Y-114056897D01*
X124548509Y-114122669D01*
X124508055Y-114156027D01*
X124495607Y-114162507D01*
X124491474Y-114165610D01*
X124491471Y-114165612D01*
X124467247Y-114183800D01*
X124316965Y-114296635D01*
X124162629Y-114458138D01*
X124036743Y-114642680D01*
X124021003Y-114676590D01*
X123948410Y-114832979D01*
X123942688Y-114845305D01*
X123882989Y-115060570D01*
X123859251Y-115282695D01*
X123859548Y-115287848D01*
X123859548Y-115287851D01*
X123865011Y-115382590D01*
X123872110Y-115505715D01*
X123873247Y-115510761D01*
X123873248Y-115510767D01*
X123893119Y-115598939D01*
X123921222Y-115723639D01*
X124005266Y-115930616D01*
X124121987Y-116121088D01*
X124268250Y-116289938D01*
X124440126Y-116432632D01*
X124510595Y-116473811D01*
X124513445Y-116475476D01*
X124562169Y-116527114D01*
X124575240Y-116596897D01*
X124548509Y-116662669D01*
X124508055Y-116696027D01*
X124495607Y-116702507D01*
X124491474Y-116705610D01*
X124491471Y-116705612D01*
X124467247Y-116723800D01*
X124316965Y-116836635D01*
X124162629Y-116998138D01*
X124036743Y-117182680D01*
X124021003Y-117216590D01*
X123948410Y-117372979D01*
X123942688Y-117385305D01*
X123882989Y-117600570D01*
X123859251Y-117822695D01*
X123859548Y-117827848D01*
X123859548Y-117827851D01*
X123864977Y-117922006D01*
X123872110Y-118045715D01*
X123873247Y-118050761D01*
X123873248Y-118050767D01*
X123893119Y-118138939D01*
X123921222Y-118263639D01*
X124005266Y-118470616D01*
X124121987Y-118661088D01*
X124268250Y-118829938D01*
X124440126Y-118972632D01*
X124467144Y-118988420D01*
X124513445Y-119015476D01*
X124562169Y-119067114D01*
X124575240Y-119136897D01*
X124548509Y-119202669D01*
X124508055Y-119236027D01*
X124495607Y-119242507D01*
X124491474Y-119245610D01*
X124491471Y-119245612D01*
X124321100Y-119373530D01*
X124316965Y-119376635D01*
X124162629Y-119538138D01*
X124036743Y-119722680D01*
X124021003Y-119756590D01*
X123946775Y-119916501D01*
X123942688Y-119925305D01*
X123882989Y-120140570D01*
X123859251Y-120362695D01*
X123859548Y-120367848D01*
X123859548Y-120367851D01*
X123865011Y-120462590D01*
X123872110Y-120585715D01*
X123873247Y-120590761D01*
X123873248Y-120590767D01*
X123893119Y-120678939D01*
X123921222Y-120803639D01*
X124005266Y-121010616D01*
X124007965Y-121015020D01*
X124117346Y-121193514D01*
X124121987Y-121201088D01*
X124268250Y-121369938D01*
X124440126Y-121512632D01*
X124510595Y-121553811D01*
X124513445Y-121555476D01*
X124562169Y-121607114D01*
X124575240Y-121676897D01*
X124548509Y-121742669D01*
X124508055Y-121776027D01*
X124495607Y-121782507D01*
X124491474Y-121785610D01*
X124491471Y-121785612D01*
X124325964Y-121909878D01*
X124316965Y-121916635D01*
X124162629Y-122078138D01*
X124159715Y-122082410D01*
X124159714Y-122082411D01*
X124141838Y-122108617D01*
X124036743Y-122262680D01*
X123999888Y-122342078D01*
X123959443Y-122429210D01*
X123942688Y-122465305D01*
X123882989Y-122680570D01*
X123859251Y-122902695D01*
X123859548Y-122907848D01*
X123859548Y-122907851D01*
X123865011Y-123002590D01*
X123872110Y-123125715D01*
X123873247Y-123130761D01*
X123873248Y-123130767D01*
X123893119Y-123218939D01*
X123921222Y-123343639D01*
X124005266Y-123550616D01*
X124121987Y-123741088D01*
X124268250Y-123909938D01*
X124440126Y-124052632D01*
X124510595Y-124093811D01*
X124513445Y-124095476D01*
X124562169Y-124147114D01*
X124575240Y-124216897D01*
X124548509Y-124282669D01*
X124508055Y-124316027D01*
X124495607Y-124322507D01*
X124491474Y-124325610D01*
X124491471Y-124325612D01*
X124467247Y-124343800D01*
X124316965Y-124456635D01*
X124162629Y-124618138D01*
X124036743Y-124802680D01*
X123942688Y-125005305D01*
X123882989Y-125220570D01*
X123859251Y-125442695D01*
X123859548Y-125447848D01*
X123859548Y-125447851D01*
X123865011Y-125542590D01*
X123872110Y-125665715D01*
X123873247Y-125670761D01*
X123873248Y-125670767D01*
X123893119Y-125758939D01*
X123921222Y-125883639D01*
X124005266Y-126090616D01*
X124121987Y-126281088D01*
X124268250Y-126449938D01*
X124440126Y-126592632D01*
X124510595Y-126633811D01*
X124513445Y-126635476D01*
X124562169Y-126687114D01*
X124575240Y-126756897D01*
X124548509Y-126822669D01*
X124508055Y-126856027D01*
X124495607Y-126862507D01*
X124491474Y-126865610D01*
X124491471Y-126865612D01*
X124467247Y-126883800D01*
X124316965Y-126996635D01*
X124162629Y-127158138D01*
X124036743Y-127342680D01*
X123942688Y-127545305D01*
X123882989Y-127760570D01*
X123859251Y-127982695D01*
X123444500Y-127982695D01*
X123444500Y-67690500D01*
X123464502Y-67622379D01*
X123518158Y-67575886D01*
X123570500Y-67564500D01*
X149733500Y-67564500D01*
X149801621Y-67584502D01*
G37*
%TD.AperFunction*%
%TD*%
M02*
