%TF.GenerationSoftware,KiCad,Pcbnew,6.0.7*%
%TF.CreationDate,2022-09-07T07:32:47+02:00*%
%TF.ProjectId,srambrd,7372616d-6272-4642-9e6b-696361645f70,rev?*%
%TF.SameCoordinates,Original*%
%TF.FileFunction,Copper,L3,Inr*%
%TF.FilePolarity,Positive*%
%FSLAX46Y46*%
G04 Gerber Fmt 4.6, Leading zero omitted, Abs format (unit mm)*
G04 Created by KiCad (PCBNEW 6.0.7) date 2022-09-07 07:32:47*
%MOMM*%
%LPD*%
G01*
G04 APERTURE LIST*
%TA.AperFunction,ComponentPad*%
%ADD10R,1.700000X1.700000*%
%TD*%
%TA.AperFunction,ComponentPad*%
%ADD11O,1.700000X1.700000*%
%TD*%
%TA.AperFunction,ComponentPad*%
%ADD12C,5.600000*%
%TD*%
%TA.AperFunction,ViaPad*%
%ADD13C,0.800000*%
%TD*%
G04 APERTURE END LIST*
D10*
%TO.N,GND*%
%TO.C,J3*%
X144780000Y-74930000D03*
D11*
%TO.N,RX*%
X142240000Y-74930000D03*
%TO.N,TX*%
X139700000Y-74930000D03*
%TD*%
D12*
%TO.N,N/C*%
%TO.C,H1*%
X107950000Y-64770000D03*
%TD*%
D10*
%TO.N,GND*%
%TO.C,J4*%
X144780000Y-121013269D03*
D11*
%TO.N,AUDIO_L*%
X142240000Y-121013269D03*
%TO.N,AUDIO_R*%
X139700000Y-121013269D03*
%TD*%
D12*
%TO.N,N/C*%
%TO.C,H2*%
X107950000Y-138430000D03*
%TD*%
D10*
%TO.N,GND*%
%TO.C,J1*%
X131298000Y-62225000D03*
D11*
X133838000Y-62225000D03*
%TO.N,3v3*%
X131298000Y-64765000D03*
X133838000Y-64765000D03*
%TO.N,GND*%
X131298000Y-67305000D03*
X133838000Y-67305000D03*
%TO.N,SD_DAT1*%
X131298000Y-69845000D03*
%TO.N,SD_DAT0*%
X133838000Y-69845000D03*
%TO.N,SD_CLK*%
X131298000Y-72385000D03*
%TO.N,SD_CMD*%
X133838000Y-72385000D03*
%TO.N,SD_DAT3*%
X131298000Y-74925000D03*
%TO.N,SD_DAT2*%
X133838000Y-74925000D03*
%TO.N,TX*%
X131298000Y-77465000D03*
%TO.N,RX*%
X133838000Y-77465000D03*
%TO.N,unconnected-(J1-Pad15)*%
X131298000Y-80005000D03*
%TO.N,PWM_L*%
X133838000Y-80005000D03*
%TO.N,unconnected-(J1-Pad17)*%
X131298000Y-82545000D03*
%TO.N,PWM_R*%
X133838000Y-82545000D03*
%TO.N,unconnected-(J1-Pad19)*%
X131298000Y-85085000D03*
%TO.N,unconnected-(J1-Pad20)*%
X133838000Y-85085000D03*
%TO.N,A9*%
X131298000Y-87625000D03*
%TO.N,unconnected-(J1-Pad22)*%
X133838000Y-87625000D03*
%TO.N,A7*%
X131298000Y-90165000D03*
%TO.N,A8*%
X133838000Y-90165000D03*
%TO.N,A5*%
X131298000Y-92705000D03*
%TO.N,A6*%
X133838000Y-92705000D03*
%TO.N,CE_N*%
X131298000Y-95245000D03*
%TO.N,WE_N*%
X133838000Y-95245000D03*
%TO.N,A3*%
X131298000Y-97785000D03*
%TO.N,A4*%
X133838000Y-97785000D03*
%TO.N,A1*%
X131298000Y-100325000D03*
%TO.N,A2*%
X133838000Y-100325000D03*
%TO.N,D0*%
X131298000Y-102865000D03*
%TO.N,A0*%
X133838000Y-102865000D03*
%TO.N,D2*%
X131298000Y-105405000D03*
%TO.N,D1*%
X133838000Y-105405000D03*
%TO.N,D4*%
X131298000Y-107945000D03*
%TO.N,D3*%
X133838000Y-107945000D03*
%TO.N,D6*%
X131298000Y-110485000D03*
%TO.N,D5*%
X133838000Y-110485000D03*
%TO.N,LB_N*%
X131298000Y-113025000D03*
%TO.N,D7*%
X133838000Y-113025000D03*
%TO.N,OE_N*%
X131298000Y-115565000D03*
%TO.N,UB_N*%
X133838000Y-115565000D03*
%TO.N,A16*%
X131298000Y-118105000D03*
%TO.N,A17*%
X133838000Y-118105000D03*
%TO.N,D15*%
X131298000Y-120645000D03*
%TO.N,A15*%
X133838000Y-120645000D03*
%TO.N,D13*%
X131298000Y-123185000D03*
%TO.N,D14*%
X133838000Y-123185000D03*
%TO.N,D11*%
X131298000Y-125725000D03*
%TO.N,D12*%
X133838000Y-125725000D03*
%TO.N,D9*%
X131298000Y-128265000D03*
%TO.N,D10*%
X133838000Y-128265000D03*
%TO.N,A14*%
X131298000Y-130805000D03*
%TO.N,D8*%
X133838000Y-130805000D03*
%TO.N,A12*%
X131298000Y-133345000D03*
%TO.N,A13*%
X133838000Y-133345000D03*
%TO.N,A10*%
X131298000Y-135885000D03*
%TO.N,A11*%
X133838000Y-135885000D03*
%TO.N,GND*%
X131298000Y-138425000D03*
X133838000Y-138425000D03*
%TO.N,unconnected-(J1-Pad63)*%
X131298000Y-140965000D03*
%TO.N,unconnected-(J1-Pad64)*%
X133838000Y-140965000D03*
%TD*%
D13*
%TO.N,GND*%
X114000000Y-101000000D03*
X115697000Y-71800000D03*
X114600000Y-119800000D03*
X108600000Y-77000000D03*
X114000000Y-98171000D03*
X116000000Y-111800000D03*
%TO.N,3v3*%
X114000000Y-111800000D03*
X117000000Y-100200000D03*
X107000000Y-89400000D03*
X104648000Y-79248000D03*
X114800000Y-69342000D03*
%TO.N,D0*%
X118600000Y-101000000D03*
%TO.N,D1*%
X117800000Y-104800000D03*
%TO.N,D2*%
X117000000Y-104000000D03*
%TO.N,D3*%
X116200000Y-104800000D03*
%TO.N,D4*%
X113800000Y-104800000D03*
%TO.N,D5*%
X113000000Y-104000000D03*
%TO.N,D6*%
X112200000Y-104800000D03*
%TO.N,D7*%
X111400000Y-104000000D03*
%TO.N,D8*%
X110800000Y-116400000D03*
%TO.N,D9*%
X111600000Y-115800000D03*
%TO.N,D10*%
X112400000Y-116400000D03*
%TO.N,D11*%
X113200000Y-115800000D03*
%TO.N,D12*%
X116200000Y-115600000D03*
%TO.N,D13*%
X117000000Y-116400000D03*
%TO.N,D14*%
X117800000Y-115600000D03*
%TO.N,D15*%
X118600000Y-116400000D03*
%TO.N,OE_N*%
X121000000Y-111800000D03*
%TO.N,UB_N*%
X120200000Y-112400000D03*
%TO.N,LB_N*%
X119400000Y-111800000D03*
%TO.N,SD_DAT3*%
X108600000Y-81475000D03*
%TO.N,SD_CMD*%
X108600000Y-80400000D03*
%TO.N,SD_CLK*%
X108600000Y-78200000D03*
%TO.N,SD_DAT0*%
X108600000Y-75946000D03*
%TO.N,SD_DAT1*%
X108600000Y-74930000D03*
%TO.N,SD_DAT2*%
X108600000Y-82600000D03*
%TD*%
%TA.AperFunction,Conductor*%
%TO.N,3v3*%
G36*
X135958621Y-60218502D02*
G01*
X136005114Y-60272158D01*
X136016500Y-60324500D01*
X136016500Y-70476377D01*
X136016498Y-70477147D01*
X136016024Y-70554721D01*
X136018491Y-70563352D01*
X136024150Y-70583153D01*
X136027728Y-70599915D01*
X136031920Y-70629187D01*
X136035634Y-70637355D01*
X136035634Y-70637356D01*
X136042548Y-70652562D01*
X136048996Y-70670086D01*
X136056051Y-70694771D01*
X136060843Y-70702365D01*
X136060844Y-70702368D01*
X136071830Y-70719780D01*
X136079969Y-70734863D01*
X136092208Y-70761782D01*
X136098069Y-70768584D01*
X136108970Y-70781235D01*
X136120073Y-70796239D01*
X136133776Y-70817958D01*
X136140501Y-70823897D01*
X136140504Y-70823901D01*
X136155938Y-70837532D01*
X136167982Y-70849724D01*
X136181427Y-70865327D01*
X136181430Y-70865329D01*
X136187287Y-70872127D01*
X136194816Y-70877007D01*
X136194817Y-70877008D01*
X136208835Y-70886094D01*
X136223709Y-70897385D01*
X136236217Y-70908431D01*
X136242951Y-70914378D01*
X136269711Y-70926942D01*
X136284691Y-70935263D01*
X136301983Y-70946471D01*
X136301988Y-70946473D01*
X136309515Y-70951352D01*
X136318108Y-70953922D01*
X136318113Y-70953924D01*
X136334120Y-70958711D01*
X136351564Y-70965372D01*
X136366676Y-70972467D01*
X136366678Y-70972468D01*
X136374800Y-70976281D01*
X136383667Y-70977662D01*
X136383668Y-70977662D01*
X136393310Y-70979163D01*
X136404017Y-70980830D01*
X136420732Y-70984613D01*
X136440466Y-70990515D01*
X136440472Y-70990516D01*
X136449066Y-70993086D01*
X136458037Y-70993141D01*
X136458038Y-70993141D01*
X136468097Y-70993202D01*
X136483506Y-70993296D01*
X136484289Y-70993329D01*
X136485386Y-70993500D01*
X136516377Y-70993500D01*
X136517147Y-70993502D01*
X136590785Y-70993952D01*
X136590786Y-70993952D01*
X136594721Y-70993976D01*
X136596065Y-70993592D01*
X136597410Y-70993500D01*
X147955500Y-70993500D01*
X148023621Y-71013502D01*
X148070114Y-71067158D01*
X148081500Y-71119500D01*
X148081500Y-125095500D01*
X148061498Y-125163621D01*
X148007842Y-125210114D01*
X147955500Y-125221500D01*
X136533623Y-125221500D01*
X136532853Y-125221498D01*
X136532037Y-125221493D01*
X136455279Y-125221024D01*
X136432918Y-125227415D01*
X136426847Y-125229150D01*
X136410085Y-125232728D01*
X136380813Y-125236920D01*
X136372645Y-125240634D01*
X136372644Y-125240634D01*
X136357438Y-125247548D01*
X136339914Y-125253996D01*
X136315229Y-125261051D01*
X136307635Y-125265843D01*
X136307632Y-125265844D01*
X136290220Y-125276830D01*
X136275137Y-125284969D01*
X136248218Y-125297208D01*
X136241416Y-125303069D01*
X136228765Y-125313970D01*
X136213761Y-125325073D01*
X136192042Y-125338776D01*
X136186103Y-125345501D01*
X136186099Y-125345504D01*
X136172468Y-125360938D01*
X136160276Y-125372982D01*
X136144673Y-125386427D01*
X136144671Y-125386430D01*
X136137873Y-125392287D01*
X136132993Y-125399816D01*
X136132992Y-125399817D01*
X136123906Y-125413835D01*
X136112615Y-125428709D01*
X136101569Y-125441217D01*
X136095622Y-125447951D01*
X136087811Y-125464588D01*
X136083058Y-125474711D01*
X136074737Y-125489691D01*
X136063529Y-125506983D01*
X136063527Y-125506988D01*
X136058648Y-125514515D01*
X136056078Y-125523108D01*
X136056076Y-125523113D01*
X136051289Y-125539120D01*
X136044628Y-125556564D01*
X136033719Y-125579800D01*
X136032338Y-125588667D01*
X136032338Y-125588668D01*
X136029170Y-125609015D01*
X136025387Y-125625732D01*
X136019485Y-125645466D01*
X136019484Y-125645472D01*
X136016914Y-125654066D01*
X136016859Y-125663037D01*
X136016859Y-125663038D01*
X136016704Y-125688497D01*
X136016671Y-125689289D01*
X136016500Y-125690386D01*
X136016500Y-125721377D01*
X136016498Y-125722147D01*
X136016024Y-125799721D01*
X136016408Y-125801065D01*
X136016500Y-125802410D01*
X136016500Y-142875500D01*
X135996498Y-142943621D01*
X135942842Y-142990114D01*
X135890500Y-143001500D01*
X103504500Y-143001500D01*
X103436379Y-142981498D01*
X103389886Y-142927842D01*
X103378500Y-142875500D01*
X103378500Y-138418434D01*
X104636661Y-138418434D01*
X104636833Y-138421829D01*
X104636833Y-138421830D01*
X104646604Y-138614715D01*
X104654792Y-138776340D01*
X104655329Y-138779695D01*
X104655330Y-138779701D01*
X104664576Y-138837425D01*
X104711470Y-139130195D01*
X104806033Y-139475859D01*
X104807282Y-139479029D01*
X104935696Y-139805027D01*
X104937374Y-139809288D01*
X104968151Y-139867909D01*
X105095988Y-140111403D01*
X105103957Y-140126582D01*
X105105858Y-140129411D01*
X105105864Y-140129421D01*
X105237685Y-140325590D01*
X105303834Y-140424029D01*
X105534665Y-140698150D01*
X105793751Y-140945738D01*
X106078061Y-141163897D01*
X106110056Y-141183350D01*
X106381355Y-141348303D01*
X106381360Y-141348306D01*
X106384270Y-141350075D01*
X106387358Y-141351521D01*
X106387357Y-141351521D01*
X106705710Y-141500649D01*
X106705720Y-141500653D01*
X106708794Y-141502093D01*
X106712012Y-141503195D01*
X106712015Y-141503196D01*
X107044615Y-141617071D01*
X107044623Y-141617073D01*
X107047838Y-141618174D01*
X107397435Y-141696959D01*
X107449728Y-141702917D01*
X107750114Y-141737142D01*
X107750122Y-141737142D01*
X107753497Y-141737527D01*
X107756901Y-141737545D01*
X107756904Y-141737545D01*
X107951227Y-141738562D01*
X108111857Y-141739403D01*
X108115243Y-141739053D01*
X108115245Y-141739053D01*
X108464932Y-141702917D01*
X108464941Y-141702916D01*
X108468324Y-141702566D01*
X108471657Y-141701852D01*
X108471660Y-141701851D01*
X108759496Y-141640144D01*
X108818727Y-141627446D01*
X109158968Y-141514922D01*
X109485066Y-141366311D01*
X109684427Y-141247939D01*
X109790262Y-141185099D01*
X109790267Y-141185096D01*
X109793207Y-141183350D01*
X110079786Y-140968180D01*
X110118775Y-140931695D01*
X129935251Y-140931695D01*
X129935548Y-140936848D01*
X129935548Y-140936851D01*
X129941011Y-141031590D01*
X129948110Y-141154715D01*
X129949247Y-141159761D01*
X129949248Y-141159767D01*
X129949710Y-141161816D01*
X129997222Y-141372639D01*
X130081266Y-141579616D01*
X130132019Y-141662438D01*
X130195291Y-141765688D01*
X130197987Y-141770088D01*
X130344250Y-141938938D01*
X130516126Y-142081632D01*
X130709000Y-142194338D01*
X130917692Y-142274030D01*
X130922760Y-142275061D01*
X130922763Y-142275062D01*
X131030017Y-142296883D01*
X131136597Y-142318567D01*
X131141772Y-142318757D01*
X131141774Y-142318757D01*
X131354673Y-142326564D01*
X131354677Y-142326564D01*
X131359837Y-142326753D01*
X131364957Y-142326097D01*
X131364959Y-142326097D01*
X131576288Y-142299025D01*
X131576289Y-142299025D01*
X131581416Y-142298368D01*
X131586366Y-142296883D01*
X131790429Y-142235661D01*
X131790434Y-142235659D01*
X131795384Y-142234174D01*
X131995994Y-142135896D01*
X132177860Y-142006173D01*
X132336096Y-141848489D01*
X132395594Y-141765689D01*
X132466453Y-141667077D01*
X132467776Y-141668028D01*
X132514645Y-141624857D01*
X132584580Y-141612625D01*
X132650026Y-141640144D01*
X132677875Y-141671994D01*
X132737987Y-141770088D01*
X132884250Y-141938938D01*
X133056126Y-142081632D01*
X133249000Y-142194338D01*
X133457692Y-142274030D01*
X133462760Y-142275061D01*
X133462763Y-142275062D01*
X133570017Y-142296883D01*
X133676597Y-142318567D01*
X133681772Y-142318757D01*
X133681774Y-142318757D01*
X133894673Y-142326564D01*
X133894677Y-142326564D01*
X133899837Y-142326753D01*
X133904957Y-142326097D01*
X133904959Y-142326097D01*
X134116288Y-142299025D01*
X134116289Y-142299025D01*
X134121416Y-142298368D01*
X134126366Y-142296883D01*
X134330429Y-142235661D01*
X134330434Y-142235659D01*
X134335384Y-142234174D01*
X134535994Y-142135896D01*
X134717860Y-142006173D01*
X134876096Y-141848489D01*
X134935594Y-141765689D01*
X135003435Y-141671277D01*
X135006453Y-141667077D01*
X135027320Y-141624857D01*
X135103136Y-141471453D01*
X135103137Y-141471451D01*
X135105430Y-141466811D01*
X135170370Y-141253069D01*
X135199529Y-141031590D01*
X135199611Y-141028240D01*
X135201074Y-140968365D01*
X135201074Y-140968361D01*
X135201156Y-140965000D01*
X135182852Y-140742361D01*
X135128431Y-140525702D01*
X135039354Y-140320840D01*
X134999906Y-140259862D01*
X134920822Y-140137617D01*
X134920820Y-140137614D01*
X134918014Y-140133277D01*
X134767670Y-139968051D01*
X134763619Y-139964852D01*
X134763615Y-139964848D01*
X134596414Y-139832800D01*
X134596410Y-139832798D01*
X134592359Y-139829598D01*
X134551053Y-139806796D01*
X134501084Y-139756364D01*
X134486312Y-139686921D01*
X134511428Y-139620516D01*
X134538780Y-139593909D01*
X134582603Y-139562650D01*
X134717860Y-139466173D01*
X134876096Y-139308489D01*
X134935594Y-139225689D01*
X135003435Y-139131277D01*
X135006453Y-139127077D01*
X135027320Y-139084857D01*
X135103136Y-138931453D01*
X135103137Y-138931451D01*
X135105430Y-138926811D01*
X135170370Y-138713069D01*
X135199529Y-138491590D01*
X135200513Y-138451326D01*
X135201074Y-138428365D01*
X135201074Y-138428361D01*
X135201156Y-138425000D01*
X135182852Y-138202361D01*
X135128431Y-137985702D01*
X135039354Y-137780840D01*
X134918014Y-137593277D01*
X134767670Y-137428051D01*
X134763619Y-137424852D01*
X134763615Y-137424848D01*
X134596414Y-137292800D01*
X134596410Y-137292798D01*
X134592359Y-137289598D01*
X134551053Y-137266796D01*
X134501084Y-137216364D01*
X134486312Y-137146921D01*
X134511428Y-137080516D01*
X134538780Y-137053909D01*
X134582603Y-137022650D01*
X134717860Y-136926173D01*
X134876096Y-136768489D01*
X134935594Y-136685689D01*
X135003435Y-136591277D01*
X135006453Y-136587077D01*
X135027320Y-136544857D01*
X135103136Y-136391453D01*
X135103137Y-136391451D01*
X135105430Y-136386811D01*
X135170370Y-136173069D01*
X135199529Y-135951590D01*
X135199611Y-135948240D01*
X135201074Y-135888365D01*
X135201074Y-135888361D01*
X135201156Y-135885000D01*
X135182852Y-135662361D01*
X135128431Y-135445702D01*
X135039354Y-135240840D01*
X134987546Y-135160757D01*
X134920822Y-135057617D01*
X134920820Y-135057614D01*
X134918014Y-135053277D01*
X134767670Y-134888051D01*
X134763619Y-134884852D01*
X134763615Y-134884848D01*
X134596414Y-134752800D01*
X134596410Y-134752798D01*
X134592359Y-134749598D01*
X134551053Y-134726796D01*
X134501084Y-134676364D01*
X134486312Y-134606921D01*
X134511428Y-134540516D01*
X134538780Y-134513909D01*
X134582603Y-134482650D01*
X134717860Y-134386173D01*
X134876096Y-134228489D01*
X134935594Y-134145689D01*
X135003435Y-134051277D01*
X135006453Y-134047077D01*
X135027320Y-134004857D01*
X135103136Y-133851453D01*
X135103137Y-133851451D01*
X135105430Y-133846811D01*
X135170370Y-133633069D01*
X135199529Y-133411590D01*
X135201156Y-133345000D01*
X135182852Y-133122361D01*
X135128431Y-132905702D01*
X135039354Y-132700840D01*
X134918014Y-132513277D01*
X134767670Y-132348051D01*
X134763619Y-132344852D01*
X134763615Y-132344848D01*
X134596414Y-132212800D01*
X134596410Y-132212798D01*
X134592359Y-132209598D01*
X134551053Y-132186796D01*
X134501084Y-132136364D01*
X134486312Y-132066921D01*
X134511428Y-132000516D01*
X134538780Y-131973909D01*
X134582603Y-131942650D01*
X134717860Y-131846173D01*
X134876096Y-131688489D01*
X134935594Y-131605689D01*
X135003435Y-131511277D01*
X135006453Y-131507077D01*
X135027320Y-131464857D01*
X135103136Y-131311453D01*
X135103137Y-131311451D01*
X135105430Y-131306811D01*
X135170370Y-131093069D01*
X135199529Y-130871590D01*
X135201156Y-130805000D01*
X135182852Y-130582361D01*
X135128431Y-130365702D01*
X135039354Y-130160840D01*
X134918014Y-129973277D01*
X134767670Y-129808051D01*
X134763619Y-129804852D01*
X134763615Y-129804848D01*
X134596414Y-129672800D01*
X134596410Y-129672798D01*
X134592359Y-129669598D01*
X134551053Y-129646796D01*
X134501084Y-129596364D01*
X134486312Y-129526921D01*
X134511428Y-129460516D01*
X134538780Y-129433909D01*
X134582603Y-129402650D01*
X134717860Y-129306173D01*
X134876096Y-129148489D01*
X134935594Y-129065689D01*
X135003435Y-128971277D01*
X135006453Y-128967077D01*
X135027320Y-128924857D01*
X135103136Y-128771453D01*
X135103137Y-128771451D01*
X135105430Y-128766811D01*
X135170370Y-128553069D01*
X135199529Y-128331590D01*
X135201156Y-128265000D01*
X135182852Y-128042361D01*
X135128431Y-127825702D01*
X135039354Y-127620840D01*
X134918014Y-127433277D01*
X134767670Y-127268051D01*
X134763619Y-127264852D01*
X134763615Y-127264848D01*
X134596414Y-127132800D01*
X134596410Y-127132798D01*
X134592359Y-127129598D01*
X134551053Y-127106796D01*
X134501084Y-127056364D01*
X134486312Y-126986921D01*
X134511428Y-126920516D01*
X134538780Y-126893909D01*
X134582603Y-126862650D01*
X134717860Y-126766173D01*
X134876096Y-126608489D01*
X134935594Y-126525689D01*
X135003435Y-126431277D01*
X135006453Y-126427077D01*
X135027320Y-126384857D01*
X135103136Y-126231453D01*
X135103137Y-126231451D01*
X135105430Y-126226811D01*
X135153768Y-126067713D01*
X135168865Y-126018023D01*
X135168865Y-126018021D01*
X135170370Y-126013069D01*
X135199529Y-125791590D01*
X135201156Y-125725000D01*
X135182852Y-125502361D01*
X135128431Y-125285702D01*
X135039354Y-125080840D01*
X134918014Y-124893277D01*
X134767670Y-124728051D01*
X134763619Y-124724852D01*
X134763615Y-124724848D01*
X134596414Y-124592800D01*
X134596410Y-124592798D01*
X134592359Y-124589598D01*
X134551053Y-124566796D01*
X134501084Y-124516364D01*
X134486312Y-124446921D01*
X134511428Y-124380516D01*
X134538780Y-124353909D01*
X134582603Y-124322650D01*
X134717860Y-124226173D01*
X134876096Y-124068489D01*
X134935594Y-123985689D01*
X135003435Y-123891277D01*
X135006453Y-123887077D01*
X135027320Y-123844857D01*
X135103136Y-123691453D01*
X135103137Y-123691451D01*
X135105430Y-123686811D01*
X135170370Y-123473069D01*
X135199529Y-123251590D01*
X135201156Y-123185000D01*
X135182852Y-122962361D01*
X135128431Y-122745702D01*
X135039354Y-122540840D01*
X134999906Y-122479862D01*
X134920822Y-122357617D01*
X134920820Y-122357614D01*
X134918014Y-122353277D01*
X134767670Y-122188051D01*
X134763619Y-122184852D01*
X134763615Y-122184848D01*
X134596414Y-122052800D01*
X134596410Y-122052798D01*
X134592359Y-122049598D01*
X134551053Y-122026796D01*
X134501084Y-121976364D01*
X134486312Y-121906921D01*
X134511428Y-121840516D01*
X134538780Y-121813909D01*
X134582603Y-121782650D01*
X134717860Y-121686173D01*
X134743228Y-121660894D01*
X134872435Y-121532137D01*
X134876096Y-121528489D01*
X134895886Y-121500949D01*
X135003435Y-121351277D01*
X135006453Y-121347077D01*
X135027320Y-121304857D01*
X135103136Y-121151453D01*
X135103137Y-121151451D01*
X135105430Y-121146811D01*
X135156122Y-120979964D01*
X138337251Y-120979964D01*
X138337548Y-120985117D01*
X138337548Y-120985120D01*
X138346871Y-121146811D01*
X138350110Y-121202984D01*
X138351247Y-121208030D01*
X138351248Y-121208036D01*
X138363865Y-121264020D01*
X138399222Y-121420908D01*
X138431723Y-121500949D01*
X138478047Y-121615031D01*
X138483266Y-121627885D01*
X138520685Y-121688947D01*
X138597291Y-121813957D01*
X138599987Y-121818357D01*
X138746250Y-121987207D01*
X138918126Y-122129901D01*
X139111000Y-122242607D01*
X139319692Y-122322299D01*
X139324760Y-122323330D01*
X139324763Y-122323331D01*
X139432017Y-122345152D01*
X139538597Y-122366836D01*
X139543772Y-122367026D01*
X139543774Y-122367026D01*
X139756673Y-122374833D01*
X139756677Y-122374833D01*
X139761837Y-122375022D01*
X139766957Y-122374366D01*
X139766959Y-122374366D01*
X139978288Y-122347294D01*
X139978289Y-122347294D01*
X139983416Y-122346637D01*
X139988366Y-122345152D01*
X140192429Y-122283930D01*
X140192434Y-122283928D01*
X140197384Y-122282443D01*
X140397994Y-122184165D01*
X140579860Y-122054442D01*
X140599760Y-122034612D01*
X140674124Y-121960507D01*
X140738096Y-121896758D01*
X140797594Y-121813958D01*
X140868453Y-121715346D01*
X140869776Y-121716297D01*
X140916645Y-121673126D01*
X140986580Y-121660894D01*
X141052026Y-121688413D01*
X141079875Y-121720263D01*
X141139987Y-121818357D01*
X141286250Y-121987207D01*
X141458126Y-122129901D01*
X141651000Y-122242607D01*
X141859692Y-122322299D01*
X141864760Y-122323330D01*
X141864763Y-122323331D01*
X141972017Y-122345152D01*
X142078597Y-122366836D01*
X142083772Y-122367026D01*
X142083774Y-122367026D01*
X142296673Y-122374833D01*
X142296677Y-122374833D01*
X142301837Y-122375022D01*
X142306957Y-122374366D01*
X142306959Y-122374366D01*
X142518288Y-122347294D01*
X142518289Y-122347294D01*
X142523416Y-122346637D01*
X142528366Y-122345152D01*
X142732429Y-122283930D01*
X142732434Y-122283928D01*
X142737384Y-122282443D01*
X142937994Y-122184165D01*
X143119860Y-122054442D01*
X143228091Y-121946588D01*
X143290462Y-121912673D01*
X143361268Y-121917861D01*
X143418030Y-121960507D01*
X143435012Y-121991610D01*
X143479385Y-122109974D01*
X143566739Y-122226530D01*
X143683295Y-122313884D01*
X143819684Y-122365014D01*
X143881866Y-122371769D01*
X145678134Y-122371769D01*
X145740316Y-122365014D01*
X145876705Y-122313884D01*
X145993261Y-122226530D01*
X146080615Y-122109974D01*
X146131745Y-121973585D01*
X146138500Y-121911403D01*
X146138500Y-120115135D01*
X146131745Y-120052953D01*
X146080615Y-119916564D01*
X145993261Y-119800008D01*
X145876705Y-119712654D01*
X145740316Y-119661524D01*
X145678134Y-119654769D01*
X143881866Y-119654769D01*
X143819684Y-119661524D01*
X143683295Y-119712654D01*
X143566739Y-119800008D01*
X143479385Y-119916564D01*
X143476233Y-119924972D01*
X143434919Y-120035176D01*
X143392277Y-120091940D01*
X143325716Y-120116640D01*
X143256367Y-120101432D01*
X143223743Y-120075745D01*
X143173151Y-120020144D01*
X143173142Y-120020135D01*
X143169670Y-120016320D01*
X143165619Y-120013121D01*
X143165615Y-120013117D01*
X142998414Y-119881069D01*
X142998410Y-119881067D01*
X142994359Y-119877867D01*
X142798789Y-119769907D01*
X142793920Y-119768183D01*
X142793916Y-119768181D01*
X142593087Y-119697064D01*
X142593083Y-119697063D01*
X142588212Y-119695338D01*
X142583119Y-119694431D01*
X142583116Y-119694430D01*
X142373373Y-119657069D01*
X142373367Y-119657068D01*
X142368284Y-119656163D01*
X142294452Y-119655261D01*
X142150081Y-119653497D01*
X142150079Y-119653497D01*
X142144911Y-119653434D01*
X141924091Y-119687224D01*
X141711756Y-119756626D01*
X141681443Y-119772406D01*
X141594594Y-119817617D01*
X141513607Y-119859776D01*
X141509474Y-119862879D01*
X141509471Y-119862881D01*
X141339100Y-119990799D01*
X141334965Y-119993904D01*
X141295525Y-120035176D01*
X141241280Y-120091940D01*
X141180629Y-120155407D01*
X141073201Y-120312890D01*
X141018293Y-120357890D01*
X140947768Y-120366061D01*
X140884021Y-120334807D01*
X140863324Y-120310323D01*
X140782822Y-120185886D01*
X140782820Y-120185883D01*
X140780014Y-120181546D01*
X140629670Y-120016320D01*
X140625619Y-120013121D01*
X140625615Y-120013117D01*
X140458414Y-119881069D01*
X140458410Y-119881067D01*
X140454359Y-119877867D01*
X140258789Y-119769907D01*
X140253920Y-119768183D01*
X140253916Y-119768181D01*
X140053087Y-119697064D01*
X140053083Y-119697063D01*
X140048212Y-119695338D01*
X140043119Y-119694431D01*
X140043116Y-119694430D01*
X139833373Y-119657069D01*
X139833367Y-119657068D01*
X139828284Y-119656163D01*
X139754452Y-119655261D01*
X139610081Y-119653497D01*
X139610079Y-119653497D01*
X139604911Y-119653434D01*
X139384091Y-119687224D01*
X139171756Y-119756626D01*
X139141443Y-119772406D01*
X139054594Y-119817617D01*
X138973607Y-119859776D01*
X138969474Y-119862879D01*
X138969471Y-119862881D01*
X138799100Y-119990799D01*
X138794965Y-119993904D01*
X138755525Y-120035176D01*
X138701280Y-120091940D01*
X138640629Y-120155407D01*
X138514743Y-120339949D01*
X138420688Y-120542574D01*
X138360989Y-120757839D01*
X138337251Y-120979964D01*
X135156122Y-120979964D01*
X135170370Y-120933069D01*
X135199529Y-120711590D01*
X135201156Y-120645000D01*
X135182852Y-120422361D01*
X135128431Y-120205702D01*
X135039354Y-120000840D01*
X134918014Y-119813277D01*
X134767670Y-119648051D01*
X134763619Y-119644852D01*
X134763615Y-119644848D01*
X134596414Y-119512800D01*
X134596410Y-119512798D01*
X134592359Y-119509598D01*
X134551053Y-119486796D01*
X134501084Y-119436364D01*
X134486312Y-119366921D01*
X134511428Y-119300516D01*
X134538780Y-119273909D01*
X134582603Y-119242650D01*
X134717860Y-119146173D01*
X134738059Y-119126045D01*
X134851737Y-119012763D01*
X134876096Y-118988489D01*
X134915329Y-118933891D01*
X135003435Y-118811277D01*
X135006453Y-118807077D01*
X135027320Y-118764857D01*
X135103136Y-118611453D01*
X135103137Y-118611451D01*
X135105430Y-118606811D01*
X135170370Y-118393069D01*
X135199529Y-118171590D01*
X135201156Y-118105000D01*
X135182852Y-117882361D01*
X135128431Y-117665702D01*
X135039354Y-117460840D01*
X134918014Y-117273277D01*
X134767670Y-117108051D01*
X134763619Y-117104852D01*
X134763615Y-117104848D01*
X134596414Y-116972800D01*
X134596410Y-116972798D01*
X134592359Y-116969598D01*
X134551053Y-116946796D01*
X134501084Y-116896364D01*
X134486312Y-116826921D01*
X134511428Y-116760516D01*
X134538780Y-116733909D01*
X134582603Y-116702650D01*
X134717860Y-116606173D01*
X134730274Y-116593803D01*
X134872435Y-116452137D01*
X134876096Y-116448489D01*
X134935594Y-116365689D01*
X135003435Y-116271277D01*
X135006453Y-116267077D01*
X135027320Y-116224857D01*
X135103136Y-116071453D01*
X135103137Y-116071451D01*
X135105430Y-116066811D01*
X135137900Y-115959940D01*
X135168865Y-115858023D01*
X135168865Y-115858021D01*
X135170370Y-115853069D01*
X135199529Y-115631590D01*
X135199611Y-115628240D01*
X135201074Y-115568365D01*
X135201074Y-115568361D01*
X135201156Y-115565000D01*
X135182852Y-115342361D01*
X135128431Y-115125702D01*
X135039354Y-114920840D01*
X134918014Y-114733277D01*
X134767670Y-114568051D01*
X134763619Y-114564852D01*
X134763615Y-114564848D01*
X134596414Y-114432800D01*
X134596410Y-114432798D01*
X134592359Y-114429598D01*
X134551053Y-114406796D01*
X134501084Y-114356364D01*
X134486312Y-114286921D01*
X134511428Y-114220516D01*
X134538780Y-114193909D01*
X134582603Y-114162650D01*
X134717860Y-114066173D01*
X134876096Y-113908489D01*
X134935594Y-113825689D01*
X135003435Y-113731277D01*
X135006453Y-113727077D01*
X135027320Y-113684857D01*
X135103136Y-113531453D01*
X135103137Y-113531451D01*
X135105430Y-113526811D01*
X135170370Y-113313069D01*
X135199529Y-113091590D01*
X135201156Y-113025000D01*
X135182852Y-112802361D01*
X135128431Y-112585702D01*
X135039354Y-112380840D01*
X134918014Y-112193277D01*
X134767670Y-112028051D01*
X134763619Y-112024852D01*
X134763615Y-112024848D01*
X134596414Y-111892800D01*
X134596410Y-111892798D01*
X134592359Y-111889598D01*
X134551053Y-111866796D01*
X134501084Y-111816364D01*
X134486312Y-111746921D01*
X134511428Y-111680516D01*
X134538780Y-111653909D01*
X134600237Y-111610072D01*
X134717860Y-111526173D01*
X134876096Y-111368489D01*
X134935594Y-111285689D01*
X135003435Y-111191277D01*
X135006453Y-111187077D01*
X135027320Y-111144857D01*
X135103136Y-110991453D01*
X135103137Y-110991451D01*
X135105430Y-110986811D01*
X135170370Y-110773069D01*
X135199529Y-110551590D01*
X135201156Y-110485000D01*
X135182852Y-110262361D01*
X135128431Y-110045702D01*
X135039354Y-109840840D01*
X134918014Y-109653277D01*
X134767670Y-109488051D01*
X134763619Y-109484852D01*
X134763615Y-109484848D01*
X134596414Y-109352800D01*
X134596410Y-109352798D01*
X134592359Y-109349598D01*
X134551053Y-109326796D01*
X134501084Y-109276364D01*
X134486312Y-109206921D01*
X134511428Y-109140516D01*
X134538780Y-109113909D01*
X134582603Y-109082650D01*
X134717860Y-108986173D01*
X134876096Y-108828489D01*
X134935594Y-108745689D01*
X135003435Y-108651277D01*
X135006453Y-108647077D01*
X135027320Y-108604857D01*
X135103136Y-108451453D01*
X135103137Y-108451451D01*
X135105430Y-108446811D01*
X135170370Y-108233069D01*
X135199529Y-108011590D01*
X135201156Y-107945000D01*
X135182852Y-107722361D01*
X135128431Y-107505702D01*
X135039354Y-107300840D01*
X134918014Y-107113277D01*
X134767670Y-106948051D01*
X134763619Y-106944852D01*
X134763615Y-106944848D01*
X134596414Y-106812800D01*
X134596410Y-106812798D01*
X134592359Y-106809598D01*
X134551053Y-106786796D01*
X134501084Y-106736364D01*
X134486312Y-106666921D01*
X134511428Y-106600516D01*
X134538780Y-106573909D01*
X134582603Y-106542650D01*
X134717860Y-106446173D01*
X134876096Y-106288489D01*
X134935594Y-106205689D01*
X135003435Y-106111277D01*
X135006453Y-106107077D01*
X135027320Y-106064857D01*
X135103136Y-105911453D01*
X135103137Y-105911451D01*
X135105430Y-105906811D01*
X135170370Y-105693069D01*
X135199529Y-105471590D01*
X135201156Y-105405000D01*
X135182852Y-105182361D01*
X135128431Y-104965702D01*
X135039354Y-104760840D01*
X134941818Y-104610072D01*
X134920822Y-104577617D01*
X134920820Y-104577614D01*
X134918014Y-104573277D01*
X134767670Y-104408051D01*
X134763619Y-104404852D01*
X134763615Y-104404848D01*
X134596414Y-104272800D01*
X134596410Y-104272798D01*
X134592359Y-104269598D01*
X134551053Y-104246796D01*
X134501084Y-104196364D01*
X134486312Y-104126921D01*
X134511428Y-104060516D01*
X134538780Y-104033909D01*
X134595522Y-103993435D01*
X134717860Y-103906173D01*
X134731142Y-103892938D01*
X134872435Y-103752137D01*
X134876096Y-103748489D01*
X134935594Y-103665689D01*
X135003435Y-103571277D01*
X135006453Y-103567077D01*
X135027320Y-103524857D01*
X135103136Y-103371453D01*
X135103137Y-103371451D01*
X135105430Y-103366811D01*
X135153413Y-103208882D01*
X135168865Y-103158023D01*
X135168865Y-103158021D01*
X135170370Y-103153069D01*
X135199529Y-102931590D01*
X135201156Y-102865000D01*
X135182852Y-102642361D01*
X135128431Y-102425702D01*
X135039354Y-102220840D01*
X134918014Y-102033277D01*
X134767670Y-101868051D01*
X134763619Y-101864852D01*
X134763615Y-101864848D01*
X134596414Y-101732800D01*
X134596410Y-101732798D01*
X134592359Y-101729598D01*
X134551053Y-101706796D01*
X134501084Y-101656364D01*
X134486312Y-101586921D01*
X134511428Y-101520516D01*
X134538780Y-101493909D01*
X134582603Y-101462650D01*
X134717860Y-101366173D01*
X134876096Y-101208489D01*
X134889434Y-101189928D01*
X135003435Y-101031277D01*
X135006453Y-101027077D01*
X135027320Y-100984857D01*
X135103136Y-100831453D01*
X135103137Y-100831451D01*
X135105430Y-100826811D01*
X135165699Y-100628444D01*
X135168865Y-100618023D01*
X135168865Y-100618021D01*
X135170370Y-100613069D01*
X135199529Y-100391590D01*
X135201156Y-100325000D01*
X135182852Y-100102361D01*
X135128431Y-99885702D01*
X135039354Y-99680840D01*
X134918014Y-99493277D01*
X134767670Y-99328051D01*
X134763619Y-99324852D01*
X134763615Y-99324848D01*
X134596414Y-99192800D01*
X134596410Y-99192798D01*
X134592359Y-99189598D01*
X134551053Y-99166796D01*
X134501084Y-99116364D01*
X134486312Y-99046921D01*
X134511428Y-98980516D01*
X134538780Y-98953909D01*
X134582603Y-98922650D01*
X134717860Y-98826173D01*
X134876096Y-98668489D01*
X134935594Y-98585689D01*
X135003435Y-98491277D01*
X135006453Y-98487077D01*
X135027320Y-98444857D01*
X135103136Y-98291453D01*
X135103137Y-98291451D01*
X135105430Y-98286811D01*
X135170370Y-98073069D01*
X135199529Y-97851590D01*
X135201156Y-97785000D01*
X135182852Y-97562361D01*
X135128431Y-97345702D01*
X135039354Y-97140840D01*
X134918014Y-96953277D01*
X134767670Y-96788051D01*
X134763619Y-96784852D01*
X134763615Y-96784848D01*
X134596414Y-96652800D01*
X134596410Y-96652798D01*
X134592359Y-96649598D01*
X134551053Y-96626796D01*
X134501084Y-96576364D01*
X134486312Y-96506921D01*
X134511428Y-96440516D01*
X134538780Y-96413909D01*
X134582603Y-96382650D01*
X134717860Y-96286173D01*
X134876096Y-96128489D01*
X134935594Y-96045689D01*
X135003435Y-95951277D01*
X135006453Y-95947077D01*
X135027320Y-95904857D01*
X135103136Y-95751453D01*
X135103137Y-95751451D01*
X135105430Y-95746811D01*
X135170370Y-95533069D01*
X135199529Y-95311590D01*
X135201156Y-95245000D01*
X135182852Y-95022361D01*
X135128431Y-94805702D01*
X135039354Y-94600840D01*
X134918014Y-94413277D01*
X134767670Y-94248051D01*
X134763619Y-94244852D01*
X134763615Y-94244848D01*
X134596414Y-94112800D01*
X134596410Y-94112798D01*
X134592359Y-94109598D01*
X134551053Y-94086796D01*
X134501084Y-94036364D01*
X134486312Y-93966921D01*
X134511428Y-93900516D01*
X134538780Y-93873909D01*
X134582603Y-93842650D01*
X134717860Y-93746173D01*
X134876096Y-93588489D01*
X134935594Y-93505689D01*
X135003435Y-93411277D01*
X135006453Y-93407077D01*
X135027320Y-93364857D01*
X135103136Y-93211453D01*
X135103137Y-93211451D01*
X135105430Y-93206811D01*
X135170370Y-92993069D01*
X135199529Y-92771590D01*
X135201156Y-92705000D01*
X135182852Y-92482361D01*
X135128431Y-92265702D01*
X135039354Y-92060840D01*
X134918014Y-91873277D01*
X134767670Y-91708051D01*
X134763619Y-91704852D01*
X134763615Y-91704848D01*
X134596414Y-91572800D01*
X134596410Y-91572798D01*
X134592359Y-91569598D01*
X134551053Y-91546796D01*
X134501084Y-91496364D01*
X134486312Y-91426921D01*
X134511428Y-91360516D01*
X134538780Y-91333909D01*
X134582603Y-91302650D01*
X134717860Y-91206173D01*
X134876096Y-91048489D01*
X134935594Y-90965689D01*
X135003435Y-90871277D01*
X135006453Y-90867077D01*
X135027320Y-90824857D01*
X135103136Y-90671453D01*
X135103137Y-90671451D01*
X135105430Y-90666811D01*
X135170370Y-90453069D01*
X135199529Y-90231590D01*
X135201156Y-90165000D01*
X135182852Y-89942361D01*
X135128431Y-89725702D01*
X135039354Y-89520840D01*
X134918014Y-89333277D01*
X134767670Y-89168051D01*
X134763619Y-89164852D01*
X134763615Y-89164848D01*
X134596414Y-89032800D01*
X134596410Y-89032798D01*
X134592359Y-89029598D01*
X134551053Y-89006796D01*
X134501084Y-88956364D01*
X134486312Y-88886921D01*
X134511428Y-88820516D01*
X134538780Y-88793909D01*
X134582603Y-88762650D01*
X134717860Y-88666173D01*
X134876096Y-88508489D01*
X134935594Y-88425689D01*
X135003435Y-88331277D01*
X135006453Y-88327077D01*
X135027320Y-88284857D01*
X135103136Y-88131453D01*
X135103137Y-88131451D01*
X135105430Y-88126811D01*
X135170370Y-87913069D01*
X135199529Y-87691590D01*
X135201156Y-87625000D01*
X135182852Y-87402361D01*
X135128431Y-87185702D01*
X135039354Y-86980840D01*
X134918014Y-86793277D01*
X134767670Y-86628051D01*
X134763619Y-86624852D01*
X134763615Y-86624848D01*
X134596414Y-86492800D01*
X134596410Y-86492798D01*
X134592359Y-86489598D01*
X134551053Y-86466796D01*
X134501084Y-86416364D01*
X134486312Y-86346921D01*
X134511428Y-86280516D01*
X134538780Y-86253909D01*
X134582603Y-86222650D01*
X134717860Y-86126173D01*
X134876096Y-85968489D01*
X134935594Y-85885689D01*
X135003435Y-85791277D01*
X135006453Y-85787077D01*
X135027320Y-85744857D01*
X135103136Y-85591453D01*
X135103137Y-85591451D01*
X135105430Y-85586811D01*
X135170370Y-85373069D01*
X135199529Y-85151590D01*
X135201156Y-85085000D01*
X135182852Y-84862361D01*
X135128431Y-84645702D01*
X135039354Y-84440840D01*
X134918014Y-84253277D01*
X134767670Y-84088051D01*
X134763619Y-84084852D01*
X134763615Y-84084848D01*
X134596414Y-83952800D01*
X134596410Y-83952798D01*
X134592359Y-83949598D01*
X134551053Y-83926796D01*
X134501084Y-83876364D01*
X134486312Y-83806921D01*
X134511428Y-83740516D01*
X134538780Y-83713909D01*
X134582603Y-83682650D01*
X134717860Y-83586173D01*
X134876096Y-83428489D01*
X134905739Y-83387237D01*
X135003435Y-83251277D01*
X135006453Y-83247077D01*
X135027320Y-83204857D01*
X135103136Y-83051453D01*
X135103137Y-83051451D01*
X135105430Y-83046811D01*
X135170370Y-82833069D01*
X135199529Y-82611590D01*
X135201156Y-82545000D01*
X135182852Y-82322361D01*
X135128431Y-82105702D01*
X135039354Y-81900840D01*
X134918014Y-81713277D01*
X134767670Y-81548051D01*
X134763619Y-81544852D01*
X134763615Y-81544848D01*
X134596414Y-81412800D01*
X134596410Y-81412798D01*
X134592359Y-81409598D01*
X134551053Y-81386796D01*
X134501084Y-81336364D01*
X134486312Y-81266921D01*
X134511428Y-81200516D01*
X134538780Y-81173909D01*
X134582603Y-81142650D01*
X134717860Y-81046173D01*
X134876096Y-80888489D01*
X134935594Y-80805689D01*
X135003435Y-80711277D01*
X135006453Y-80707077D01*
X135027320Y-80664857D01*
X135103136Y-80511453D01*
X135103137Y-80511451D01*
X135105430Y-80506811D01*
X135170370Y-80293069D01*
X135199529Y-80071590D01*
X135201156Y-80005000D01*
X135182852Y-79782361D01*
X135128431Y-79565702D01*
X135039354Y-79360840D01*
X134918014Y-79173277D01*
X134767670Y-79008051D01*
X134763619Y-79004852D01*
X134763615Y-79004848D01*
X134596414Y-78872800D01*
X134596410Y-78872798D01*
X134592359Y-78869598D01*
X134551053Y-78846796D01*
X134501084Y-78796364D01*
X134486312Y-78726921D01*
X134511428Y-78660516D01*
X134538780Y-78633909D01*
X134582603Y-78602650D01*
X134717860Y-78506173D01*
X134876096Y-78348489D01*
X134935594Y-78265689D01*
X135003435Y-78171277D01*
X135006453Y-78167077D01*
X135027320Y-78124857D01*
X135103136Y-77971453D01*
X135103137Y-77971451D01*
X135105430Y-77966811D01*
X135170370Y-77753069D01*
X135199529Y-77531590D01*
X135201156Y-77465000D01*
X135182852Y-77242361D01*
X135128431Y-77025702D01*
X135039354Y-76820840D01*
X134918014Y-76633277D01*
X134767670Y-76468051D01*
X134763619Y-76464852D01*
X134763615Y-76464848D01*
X134596414Y-76332800D01*
X134596410Y-76332798D01*
X134592359Y-76329598D01*
X134551053Y-76306796D01*
X134501084Y-76256364D01*
X134486312Y-76186921D01*
X134511428Y-76120516D01*
X134538780Y-76093909D01*
X134605060Y-76046632D01*
X134717860Y-75966173D01*
X134775895Y-75908341D01*
X134821073Y-75863320D01*
X134876096Y-75808489D01*
X134918273Y-75749794D01*
X135003435Y-75631277D01*
X135006453Y-75627077D01*
X135027320Y-75584857D01*
X135103136Y-75431453D01*
X135103137Y-75431451D01*
X135105430Y-75426811D01*
X135170370Y-75213069D01*
X135199529Y-74991590D01*
X135199611Y-74988240D01*
X135201074Y-74928365D01*
X135201074Y-74928361D01*
X135201156Y-74925000D01*
X135198829Y-74896695D01*
X138337251Y-74896695D01*
X138337548Y-74901848D01*
X138337548Y-74901851D01*
X138342914Y-74994908D01*
X138350110Y-75119715D01*
X138351247Y-75124761D01*
X138351248Y-75124767D01*
X138372265Y-75218023D01*
X138399222Y-75337639D01*
X138460673Y-75488976D01*
X138465556Y-75501000D01*
X138483266Y-75544616D01*
X138520685Y-75605678D01*
X138597291Y-75730688D01*
X138599987Y-75735088D01*
X138746250Y-75903938D01*
X138821213Y-75966173D01*
X138908123Y-76038327D01*
X138918126Y-76046632D01*
X139111000Y-76159338D01*
X139319692Y-76239030D01*
X139324760Y-76240061D01*
X139324763Y-76240062D01*
X139432017Y-76261883D01*
X139538597Y-76283567D01*
X139543772Y-76283757D01*
X139543774Y-76283757D01*
X139756673Y-76291564D01*
X139756677Y-76291564D01*
X139761837Y-76291753D01*
X139766957Y-76291097D01*
X139766959Y-76291097D01*
X139978288Y-76264025D01*
X139978289Y-76264025D01*
X139983416Y-76263368D01*
X139988366Y-76261883D01*
X140192429Y-76200661D01*
X140192434Y-76200659D01*
X140197384Y-76199174D01*
X140397994Y-76100896D01*
X140579860Y-75971173D01*
X140738096Y-75813489D01*
X140795222Y-75733990D01*
X140868453Y-75632077D01*
X140869776Y-75633028D01*
X140916645Y-75589857D01*
X140986580Y-75577625D01*
X141052026Y-75605144D01*
X141079875Y-75636994D01*
X141139987Y-75735088D01*
X141286250Y-75903938D01*
X141361213Y-75966173D01*
X141448123Y-76038327D01*
X141458126Y-76046632D01*
X141651000Y-76159338D01*
X141859692Y-76239030D01*
X141864760Y-76240061D01*
X141864763Y-76240062D01*
X141972017Y-76261883D01*
X142078597Y-76283567D01*
X142083772Y-76283757D01*
X142083774Y-76283757D01*
X142296673Y-76291564D01*
X142296677Y-76291564D01*
X142301837Y-76291753D01*
X142306957Y-76291097D01*
X142306959Y-76291097D01*
X142518288Y-76264025D01*
X142518289Y-76264025D01*
X142523416Y-76263368D01*
X142528366Y-76261883D01*
X142732429Y-76200661D01*
X142732434Y-76200659D01*
X142737384Y-76199174D01*
X142937994Y-76100896D01*
X143119860Y-75971173D01*
X143228091Y-75863319D01*
X143290462Y-75829404D01*
X143361268Y-75834592D01*
X143418030Y-75877238D01*
X143435012Y-75908341D01*
X143457201Y-75967529D01*
X143479385Y-76026705D01*
X143566739Y-76143261D01*
X143683295Y-76230615D01*
X143819684Y-76281745D01*
X143881866Y-76288500D01*
X145678134Y-76288500D01*
X145740316Y-76281745D01*
X145876705Y-76230615D01*
X145993261Y-76143261D01*
X146080615Y-76026705D01*
X146131745Y-75890316D01*
X146138500Y-75828134D01*
X146138500Y-74031866D01*
X146131745Y-73969684D01*
X146080615Y-73833295D01*
X145993261Y-73716739D01*
X145876705Y-73629385D01*
X145740316Y-73578255D01*
X145678134Y-73571500D01*
X143881866Y-73571500D01*
X143819684Y-73578255D01*
X143683295Y-73629385D01*
X143566739Y-73716739D01*
X143479385Y-73833295D01*
X143476233Y-73841703D01*
X143434919Y-73951907D01*
X143392277Y-74008671D01*
X143325716Y-74033371D01*
X143256367Y-74018163D01*
X143223743Y-73992476D01*
X143173151Y-73936875D01*
X143173142Y-73936866D01*
X143169670Y-73933051D01*
X143165619Y-73929852D01*
X143165615Y-73929848D01*
X142998414Y-73797800D01*
X142998410Y-73797798D01*
X142994359Y-73794598D01*
X142985302Y-73789598D01*
X142940791Y-73765027D01*
X142798789Y-73686638D01*
X142793920Y-73684914D01*
X142793916Y-73684912D01*
X142593087Y-73613795D01*
X142593083Y-73613794D01*
X142588212Y-73612069D01*
X142583119Y-73611162D01*
X142583116Y-73611161D01*
X142373373Y-73573800D01*
X142373367Y-73573799D01*
X142368284Y-73572894D01*
X142294452Y-73571992D01*
X142150081Y-73570228D01*
X142150079Y-73570228D01*
X142144911Y-73570165D01*
X141924091Y-73603955D01*
X141711756Y-73673357D01*
X141513607Y-73776507D01*
X141509474Y-73779610D01*
X141509471Y-73779612D01*
X141341624Y-73905635D01*
X141334965Y-73910635D01*
X141295525Y-73951907D01*
X141241280Y-74008671D01*
X141180629Y-74072138D01*
X141073201Y-74229621D01*
X141018293Y-74274621D01*
X140947768Y-74282792D01*
X140884021Y-74251538D01*
X140863324Y-74227054D01*
X140782822Y-74102617D01*
X140782820Y-74102614D01*
X140780014Y-74098277D01*
X140629670Y-73933051D01*
X140625619Y-73929852D01*
X140625615Y-73929848D01*
X140458414Y-73797800D01*
X140458410Y-73797798D01*
X140454359Y-73794598D01*
X140445302Y-73789598D01*
X140400791Y-73765027D01*
X140258789Y-73686638D01*
X140253920Y-73684914D01*
X140253916Y-73684912D01*
X140053087Y-73613795D01*
X140053083Y-73613794D01*
X140048212Y-73612069D01*
X140043119Y-73611162D01*
X140043116Y-73611161D01*
X139833373Y-73573800D01*
X139833367Y-73573799D01*
X139828284Y-73572894D01*
X139754452Y-73571992D01*
X139610081Y-73570228D01*
X139610079Y-73570228D01*
X139604911Y-73570165D01*
X139384091Y-73603955D01*
X139171756Y-73673357D01*
X138973607Y-73776507D01*
X138969474Y-73779610D01*
X138969471Y-73779612D01*
X138801624Y-73905635D01*
X138794965Y-73910635D01*
X138755525Y-73951907D01*
X138701280Y-74008671D01*
X138640629Y-74072138D01*
X138514743Y-74256680D01*
X138420688Y-74459305D01*
X138360989Y-74674570D01*
X138337251Y-74896695D01*
X135198829Y-74896695D01*
X135182852Y-74702361D01*
X135128431Y-74485702D01*
X135039354Y-74280840D01*
X134945780Y-74136197D01*
X134920822Y-74097617D01*
X134920820Y-74097614D01*
X134918014Y-74093277D01*
X134767670Y-73928051D01*
X134763619Y-73924852D01*
X134763615Y-73924848D01*
X134596414Y-73792800D01*
X134596410Y-73792798D01*
X134592359Y-73789598D01*
X134551053Y-73766796D01*
X134501084Y-73716364D01*
X134486312Y-73646921D01*
X134511428Y-73580516D01*
X134538780Y-73553909D01*
X134582603Y-73522650D01*
X134717860Y-73426173D01*
X134876096Y-73268489D01*
X134935594Y-73185689D01*
X135003435Y-73091277D01*
X135006453Y-73087077D01*
X135027320Y-73044857D01*
X135103136Y-72891453D01*
X135103137Y-72891451D01*
X135105430Y-72886811D01*
X135170370Y-72673069D01*
X135199529Y-72451590D01*
X135201156Y-72385000D01*
X135182852Y-72162361D01*
X135128431Y-71945702D01*
X135039354Y-71740840D01*
X134959002Y-71616635D01*
X134920822Y-71557617D01*
X134920820Y-71557614D01*
X134918014Y-71553277D01*
X134767670Y-71388051D01*
X134763619Y-71384852D01*
X134763615Y-71384848D01*
X134596414Y-71252800D01*
X134596410Y-71252798D01*
X134592359Y-71249598D01*
X134551053Y-71226796D01*
X134501084Y-71176364D01*
X134486312Y-71106921D01*
X134511428Y-71040516D01*
X134538780Y-71013909D01*
X134589596Y-70977662D01*
X134717860Y-70886173D01*
X134876096Y-70728489D01*
X134924531Y-70661085D01*
X135003435Y-70551277D01*
X135006453Y-70547077D01*
X135027320Y-70504857D01*
X135103136Y-70351453D01*
X135103137Y-70351451D01*
X135105430Y-70346811D01*
X135170370Y-70133069D01*
X135199529Y-69911590D01*
X135201156Y-69845000D01*
X135182852Y-69622361D01*
X135128431Y-69405702D01*
X135039354Y-69200840D01*
X134918014Y-69013277D01*
X134767670Y-68848051D01*
X134763619Y-68844852D01*
X134763615Y-68844848D01*
X134596414Y-68712800D01*
X134596410Y-68712798D01*
X134592359Y-68709598D01*
X134551053Y-68686796D01*
X134501084Y-68636364D01*
X134486312Y-68566921D01*
X134511428Y-68500516D01*
X134538780Y-68473909D01*
X134582603Y-68442650D01*
X134717860Y-68346173D01*
X134876096Y-68188489D01*
X134935594Y-68105689D01*
X135003435Y-68011277D01*
X135006453Y-68007077D01*
X135027320Y-67964857D01*
X135103136Y-67811453D01*
X135103137Y-67811451D01*
X135105430Y-67806811D01*
X135170370Y-67593069D01*
X135199529Y-67371590D01*
X135199611Y-67368240D01*
X135201074Y-67308365D01*
X135201074Y-67308361D01*
X135201156Y-67305000D01*
X135182852Y-67082361D01*
X135128431Y-66865702D01*
X135039354Y-66660840D01*
X134999906Y-66599862D01*
X134920822Y-66477617D01*
X134920820Y-66477614D01*
X134918014Y-66473277D01*
X134767670Y-66308051D01*
X134763619Y-66304852D01*
X134763615Y-66304848D01*
X134596414Y-66172800D01*
X134596410Y-66172798D01*
X134592359Y-66169598D01*
X134550569Y-66146529D01*
X134500598Y-66096097D01*
X134485826Y-66026654D01*
X134510942Y-65960248D01*
X134538294Y-65933641D01*
X134713328Y-65808792D01*
X134721200Y-65802139D01*
X134872052Y-65651812D01*
X134878730Y-65643965D01*
X135003003Y-65471020D01*
X135008313Y-65462183D01*
X135102670Y-65271267D01*
X135106469Y-65261672D01*
X135168377Y-65057910D01*
X135170555Y-65047837D01*
X135171986Y-65036962D01*
X135169775Y-65022778D01*
X135156617Y-65019000D01*
X129981225Y-65019000D01*
X129967694Y-65022973D01*
X129966257Y-65032966D01*
X129996565Y-65167446D01*
X129999645Y-65177275D01*
X130079770Y-65374603D01*
X130084413Y-65383794D01*
X130195694Y-65565388D01*
X130201777Y-65573699D01*
X130341213Y-65734667D01*
X130348580Y-65741883D01*
X130512434Y-65877916D01*
X130520881Y-65883831D01*
X130589969Y-65924203D01*
X130638693Y-65975842D01*
X130651764Y-66045625D01*
X130625033Y-66111396D01*
X130584584Y-66144752D01*
X130571607Y-66151507D01*
X130567474Y-66154610D01*
X130567471Y-66154612D01*
X130397100Y-66282530D01*
X130392965Y-66285635D01*
X130238629Y-66447138D01*
X130235720Y-66451403D01*
X130235714Y-66451411D01*
X130223404Y-66469457D01*
X130112743Y-66631680D01*
X130097003Y-66665590D01*
X130037296Y-66794218D01*
X130018688Y-66834305D01*
X129958989Y-67049570D01*
X129935251Y-67271695D01*
X129935548Y-67276848D01*
X129935548Y-67276851D01*
X129941011Y-67371590D01*
X129948110Y-67494715D01*
X129949247Y-67499761D01*
X129949248Y-67499767D01*
X129949710Y-67501816D01*
X129997222Y-67712639D01*
X130081266Y-67919616D01*
X130132019Y-68002438D01*
X130195291Y-68105688D01*
X130197987Y-68110088D01*
X130344250Y-68278938D01*
X130516126Y-68421632D01*
X130586595Y-68462811D01*
X130589445Y-68464476D01*
X130638169Y-68516114D01*
X130651240Y-68585897D01*
X130624509Y-68651669D01*
X130584055Y-68685027D01*
X130571607Y-68691507D01*
X130567474Y-68694610D01*
X130567471Y-68694612D01*
X130543247Y-68712800D01*
X130392965Y-68825635D01*
X130238629Y-68987138D01*
X130112743Y-69171680D01*
X130018688Y-69374305D01*
X129958989Y-69589570D01*
X129935251Y-69811695D01*
X129935548Y-69816848D01*
X129935548Y-69816851D01*
X129941011Y-69911590D01*
X129948110Y-70034715D01*
X129949247Y-70039761D01*
X129949248Y-70039767D01*
X129958048Y-70078814D01*
X129997222Y-70252639D01*
X130081266Y-70459616D01*
X130132019Y-70542438D01*
X130195291Y-70645688D01*
X130197987Y-70650088D01*
X130344250Y-70818938D01*
X130516126Y-70961632D01*
X130570313Y-70993296D01*
X130589445Y-71004476D01*
X130638169Y-71056114D01*
X130651240Y-71125897D01*
X130624509Y-71191669D01*
X130584055Y-71225027D01*
X130571607Y-71231507D01*
X130567474Y-71234610D01*
X130567471Y-71234612D01*
X130397100Y-71362530D01*
X130392965Y-71365635D01*
X130238629Y-71527138D01*
X130112743Y-71711680D01*
X130018688Y-71914305D01*
X129958989Y-72129570D01*
X129935251Y-72351695D01*
X129935548Y-72356848D01*
X129935548Y-72356851D01*
X129941011Y-72451590D01*
X129948110Y-72574715D01*
X129949247Y-72579761D01*
X129949248Y-72579767D01*
X129968707Y-72666109D01*
X129997222Y-72792639D01*
X130081266Y-72999616D01*
X130132019Y-73082438D01*
X130195291Y-73185688D01*
X130197987Y-73190088D01*
X130344250Y-73358938D01*
X130516126Y-73501632D01*
X130586595Y-73542811D01*
X130589445Y-73544476D01*
X130638169Y-73596114D01*
X130651240Y-73665897D01*
X130624509Y-73731669D01*
X130584055Y-73765027D01*
X130571607Y-73771507D01*
X130567474Y-73774610D01*
X130567471Y-73774612D01*
X130397100Y-73902530D01*
X130392965Y-73905635D01*
X130367894Y-73931870D01*
X130270898Y-74033371D01*
X130238629Y-74067138D01*
X130235720Y-74071403D01*
X130235714Y-74071411D01*
X130187041Y-74142763D01*
X130112743Y-74251680D01*
X130097003Y-74285590D01*
X130044465Y-74398774D01*
X130018688Y-74454305D01*
X129958989Y-74669570D01*
X129935251Y-74891695D01*
X129935548Y-74896848D01*
X129935548Y-74896851D01*
X129941011Y-74991590D01*
X129948110Y-75114715D01*
X129949247Y-75119761D01*
X129949248Y-75119767D01*
X129969119Y-75207939D01*
X129997222Y-75332639D01*
X130081266Y-75539616D01*
X130121749Y-75605678D01*
X130195291Y-75725688D01*
X130197987Y-75730088D01*
X130344250Y-75898938D01*
X130516126Y-76041632D01*
X130524683Y-76046632D01*
X130589445Y-76084476D01*
X130638169Y-76136114D01*
X130651240Y-76205897D01*
X130624509Y-76271669D01*
X130584055Y-76305027D01*
X130571607Y-76311507D01*
X130567474Y-76314610D01*
X130567471Y-76314612D01*
X130543247Y-76332800D01*
X130392965Y-76445635D01*
X130238629Y-76607138D01*
X130112743Y-76791680D01*
X130018688Y-76994305D01*
X129958989Y-77209570D01*
X129935251Y-77431695D01*
X129935548Y-77436848D01*
X129935548Y-77436851D01*
X129944514Y-77592347D01*
X129948110Y-77654715D01*
X129949247Y-77659761D01*
X129949248Y-77659767D01*
X129969119Y-77747939D01*
X129997222Y-77872639D01*
X130081266Y-78079616D01*
X130132019Y-78162438D01*
X130195291Y-78265688D01*
X130197987Y-78270088D01*
X130344250Y-78438938D01*
X130516126Y-78581632D01*
X130586595Y-78622811D01*
X130589445Y-78624476D01*
X130638169Y-78676114D01*
X130651240Y-78745897D01*
X130624509Y-78811669D01*
X130584055Y-78845027D01*
X130571607Y-78851507D01*
X130567474Y-78854610D01*
X130567471Y-78854612D01*
X130543247Y-78872800D01*
X130392965Y-78985635D01*
X130238629Y-79147138D01*
X130112743Y-79331680D01*
X130018688Y-79534305D01*
X129958989Y-79749570D01*
X129935251Y-79971695D01*
X129935548Y-79976848D01*
X129935548Y-79976851D01*
X129941011Y-80071590D01*
X129948110Y-80194715D01*
X129949247Y-80199761D01*
X129949248Y-80199767D01*
X129953050Y-80216635D01*
X129997222Y-80412639D01*
X130081266Y-80619616D01*
X130132019Y-80702438D01*
X130195291Y-80805688D01*
X130197987Y-80810088D01*
X130344250Y-80978938D01*
X130516126Y-81121632D01*
X130586595Y-81162811D01*
X130589445Y-81164476D01*
X130638169Y-81216114D01*
X130651240Y-81285897D01*
X130624509Y-81351669D01*
X130584055Y-81385027D01*
X130571607Y-81391507D01*
X130567474Y-81394610D01*
X130567471Y-81394612D01*
X130397100Y-81522530D01*
X130392965Y-81525635D01*
X130238629Y-81687138D01*
X130112743Y-81871680D01*
X130097003Y-81905590D01*
X130023910Y-82063056D01*
X130018688Y-82074305D01*
X129958989Y-82289570D01*
X129935251Y-82511695D01*
X129935548Y-82516848D01*
X129935548Y-82516851D01*
X129941011Y-82611590D01*
X129948110Y-82734715D01*
X129949247Y-82739761D01*
X129949248Y-82739767D01*
X129959074Y-82783365D01*
X129997222Y-82952639D01*
X130081266Y-83159616D01*
X130132019Y-83242438D01*
X130195291Y-83345688D01*
X130197987Y-83350088D01*
X130344250Y-83518938D01*
X130516126Y-83661632D01*
X130586595Y-83702811D01*
X130589445Y-83704476D01*
X130638169Y-83756114D01*
X130651240Y-83825897D01*
X130624509Y-83891669D01*
X130584055Y-83925027D01*
X130571607Y-83931507D01*
X130567474Y-83934610D01*
X130567471Y-83934612D01*
X130543247Y-83952800D01*
X130392965Y-84065635D01*
X130238629Y-84227138D01*
X130112743Y-84411680D01*
X130018688Y-84614305D01*
X129958989Y-84829570D01*
X129935251Y-85051695D01*
X129935548Y-85056848D01*
X129935548Y-85056851D01*
X129941011Y-85151590D01*
X129948110Y-85274715D01*
X129949247Y-85279761D01*
X129949248Y-85279767D01*
X129969119Y-85367939D01*
X129997222Y-85492639D01*
X130081266Y-85699616D01*
X130132019Y-85782438D01*
X130195291Y-85885688D01*
X130197987Y-85890088D01*
X130344250Y-86058938D01*
X130516126Y-86201632D01*
X130586595Y-86242811D01*
X130589445Y-86244476D01*
X130638169Y-86296114D01*
X130651240Y-86365897D01*
X130624509Y-86431669D01*
X130584055Y-86465027D01*
X130571607Y-86471507D01*
X130567474Y-86474610D01*
X130567471Y-86474612D01*
X130543247Y-86492800D01*
X130392965Y-86605635D01*
X130238629Y-86767138D01*
X130112743Y-86951680D01*
X130018688Y-87154305D01*
X129958989Y-87369570D01*
X129935251Y-87591695D01*
X129935548Y-87596848D01*
X129935548Y-87596851D01*
X129941011Y-87691590D01*
X129948110Y-87814715D01*
X129949247Y-87819761D01*
X129949248Y-87819767D01*
X129969119Y-87907939D01*
X129997222Y-88032639D01*
X130081266Y-88239616D01*
X130132019Y-88322438D01*
X130195291Y-88425688D01*
X130197987Y-88430088D01*
X130344250Y-88598938D01*
X130516126Y-88741632D01*
X130586595Y-88782811D01*
X130589445Y-88784476D01*
X130638169Y-88836114D01*
X130651240Y-88905897D01*
X130624509Y-88971669D01*
X130584055Y-89005027D01*
X130571607Y-89011507D01*
X130567474Y-89014610D01*
X130567471Y-89014612D01*
X130543247Y-89032800D01*
X130392965Y-89145635D01*
X130238629Y-89307138D01*
X130112743Y-89491680D01*
X130018688Y-89694305D01*
X129958989Y-89909570D01*
X129935251Y-90131695D01*
X129935548Y-90136848D01*
X129935548Y-90136851D01*
X129941011Y-90231590D01*
X129948110Y-90354715D01*
X129949247Y-90359761D01*
X129949248Y-90359767D01*
X129969119Y-90447939D01*
X129997222Y-90572639D01*
X130081266Y-90779616D01*
X130132019Y-90862438D01*
X130195291Y-90965688D01*
X130197987Y-90970088D01*
X130344250Y-91138938D01*
X130516126Y-91281632D01*
X130586595Y-91322811D01*
X130589445Y-91324476D01*
X130638169Y-91376114D01*
X130651240Y-91445897D01*
X130624509Y-91511669D01*
X130584055Y-91545027D01*
X130571607Y-91551507D01*
X130567474Y-91554610D01*
X130567471Y-91554612D01*
X130543247Y-91572800D01*
X130392965Y-91685635D01*
X130238629Y-91847138D01*
X130112743Y-92031680D01*
X130018688Y-92234305D01*
X129958989Y-92449570D01*
X129935251Y-92671695D01*
X129935548Y-92676848D01*
X129935548Y-92676851D01*
X129941011Y-92771590D01*
X129948110Y-92894715D01*
X129949247Y-92899761D01*
X129949248Y-92899767D01*
X129969119Y-92987939D01*
X129997222Y-93112639D01*
X130081266Y-93319616D01*
X130132019Y-93402438D01*
X130195291Y-93505688D01*
X130197987Y-93510088D01*
X130344250Y-93678938D01*
X130516126Y-93821632D01*
X130586595Y-93862811D01*
X130589445Y-93864476D01*
X130638169Y-93916114D01*
X130651240Y-93985897D01*
X130624509Y-94051669D01*
X130584055Y-94085027D01*
X130571607Y-94091507D01*
X130567474Y-94094610D01*
X130567471Y-94094612D01*
X130543247Y-94112800D01*
X130392965Y-94225635D01*
X130238629Y-94387138D01*
X130112743Y-94571680D01*
X130018688Y-94774305D01*
X129958989Y-94989570D01*
X129935251Y-95211695D01*
X129935548Y-95216848D01*
X129935548Y-95216851D01*
X129941011Y-95311590D01*
X129948110Y-95434715D01*
X129949247Y-95439761D01*
X129949248Y-95439767D01*
X129969119Y-95527939D01*
X129997222Y-95652639D01*
X130081266Y-95859616D01*
X130132019Y-95942438D01*
X130195291Y-96045688D01*
X130197987Y-96050088D01*
X130344250Y-96218938D01*
X130516126Y-96361632D01*
X130586595Y-96402811D01*
X130589445Y-96404476D01*
X130638169Y-96456114D01*
X130651240Y-96525897D01*
X130624509Y-96591669D01*
X130584055Y-96625027D01*
X130571607Y-96631507D01*
X130567474Y-96634610D01*
X130567471Y-96634612D01*
X130543247Y-96652800D01*
X130392965Y-96765635D01*
X130238629Y-96927138D01*
X130112743Y-97111680D01*
X130097003Y-97145590D01*
X130023058Y-97304891D01*
X130018688Y-97314305D01*
X129958989Y-97529570D01*
X129935251Y-97751695D01*
X129935548Y-97756848D01*
X129935548Y-97756851D01*
X129941011Y-97851590D01*
X129948110Y-97974715D01*
X129949247Y-97979761D01*
X129949248Y-97979767D01*
X129969119Y-98067939D01*
X129997222Y-98192639D01*
X130035461Y-98286811D01*
X130065557Y-98360928D01*
X130081266Y-98399616D01*
X130132019Y-98482438D01*
X130195291Y-98585688D01*
X130197987Y-98590088D01*
X130344250Y-98758938D01*
X130516126Y-98901632D01*
X130586595Y-98942811D01*
X130589445Y-98944476D01*
X130638169Y-98996114D01*
X130651240Y-99065897D01*
X130624509Y-99131669D01*
X130584055Y-99165027D01*
X130571607Y-99171507D01*
X130567474Y-99174610D01*
X130567471Y-99174612D01*
X130543247Y-99192800D01*
X130392965Y-99305635D01*
X130238629Y-99467138D01*
X130112743Y-99651680D01*
X130018688Y-99854305D01*
X129958989Y-100069570D01*
X129935251Y-100291695D01*
X129935548Y-100296848D01*
X129935548Y-100296851D01*
X129941011Y-100391590D01*
X129948110Y-100514715D01*
X129949247Y-100519761D01*
X129949248Y-100519767D01*
X129969119Y-100607939D01*
X129997222Y-100732639D01*
X130081266Y-100939616D01*
X130122292Y-101006565D01*
X130195291Y-101125688D01*
X130197987Y-101130088D01*
X130344250Y-101298938D01*
X130516126Y-101441632D01*
X130586595Y-101482811D01*
X130589445Y-101484476D01*
X130638169Y-101536114D01*
X130651240Y-101605897D01*
X130624509Y-101671669D01*
X130584055Y-101705027D01*
X130571607Y-101711507D01*
X130567474Y-101714610D01*
X130567471Y-101714612D01*
X130397100Y-101842530D01*
X130392965Y-101845635D01*
X130238629Y-102007138D01*
X130112743Y-102191680D01*
X130018688Y-102394305D01*
X129958989Y-102609570D01*
X129935251Y-102831695D01*
X129935548Y-102836848D01*
X129935548Y-102836851D01*
X129941011Y-102931590D01*
X129948110Y-103054715D01*
X129949247Y-103059761D01*
X129949248Y-103059767D01*
X129956400Y-103091500D01*
X129997222Y-103272639D01*
X130035461Y-103366811D01*
X130076864Y-103468774D01*
X130081266Y-103479616D01*
X130132019Y-103562438D01*
X130195291Y-103665688D01*
X130197987Y-103670088D01*
X130344250Y-103838938D01*
X130516126Y-103981632D01*
X130547559Y-104000000D01*
X130589445Y-104024476D01*
X130638169Y-104076114D01*
X130651240Y-104145897D01*
X130624509Y-104211669D01*
X130584055Y-104245027D01*
X130571607Y-104251507D01*
X130567474Y-104254610D01*
X130567471Y-104254612D01*
X130543247Y-104272800D01*
X130392965Y-104385635D01*
X130389393Y-104389373D01*
X130248371Y-104536944D01*
X130238629Y-104547138D01*
X130112743Y-104731680D01*
X130083907Y-104793803D01*
X130031334Y-104907062D01*
X130018688Y-104934305D01*
X129958989Y-105149570D01*
X129935251Y-105371695D01*
X129935548Y-105376848D01*
X129935548Y-105376851D01*
X129941011Y-105471590D01*
X129948110Y-105594715D01*
X129949247Y-105599761D01*
X129949248Y-105599767D01*
X129965114Y-105670166D01*
X129997222Y-105812639D01*
X130081266Y-106019616D01*
X130132019Y-106102438D01*
X130195291Y-106205688D01*
X130197987Y-106210088D01*
X130344250Y-106378938D01*
X130516126Y-106521632D01*
X130586595Y-106562811D01*
X130589445Y-106564476D01*
X130638169Y-106616114D01*
X130651240Y-106685897D01*
X130624509Y-106751669D01*
X130584055Y-106785027D01*
X130571607Y-106791507D01*
X130567474Y-106794610D01*
X130567471Y-106794612D01*
X130543247Y-106812800D01*
X130392965Y-106925635D01*
X130238629Y-107087138D01*
X130112743Y-107271680D01*
X130018688Y-107474305D01*
X129958989Y-107689570D01*
X129935251Y-107911695D01*
X129935548Y-107916848D01*
X129935548Y-107916851D01*
X129941011Y-108011590D01*
X129948110Y-108134715D01*
X129949247Y-108139761D01*
X129949248Y-108139767D01*
X129969119Y-108227939D01*
X129997222Y-108352639D01*
X130081266Y-108559616D01*
X130132019Y-108642438D01*
X130195291Y-108745688D01*
X130197987Y-108750088D01*
X130344250Y-108918938D01*
X130516126Y-109061632D01*
X130586595Y-109102811D01*
X130589445Y-109104476D01*
X130638169Y-109156114D01*
X130651240Y-109225897D01*
X130624509Y-109291669D01*
X130584055Y-109325027D01*
X130571607Y-109331507D01*
X130567474Y-109334610D01*
X130567471Y-109334612D01*
X130543247Y-109352800D01*
X130392965Y-109465635D01*
X130238629Y-109627138D01*
X130112743Y-109811680D01*
X130018688Y-110014305D01*
X129958989Y-110229570D01*
X129935251Y-110451695D01*
X129935548Y-110456848D01*
X129935548Y-110456851D01*
X129941011Y-110551590D01*
X129948110Y-110674715D01*
X129949247Y-110679761D01*
X129949248Y-110679767D01*
X129969119Y-110767939D01*
X129997222Y-110892639D01*
X130081266Y-111099616D01*
X130132019Y-111182438D01*
X130195291Y-111285688D01*
X130197987Y-111290088D01*
X130344250Y-111458938D01*
X130516126Y-111601632D01*
X130541801Y-111616635D01*
X130589445Y-111644476D01*
X130638169Y-111696114D01*
X130651240Y-111765897D01*
X130624509Y-111831669D01*
X130584055Y-111865027D01*
X130571607Y-111871507D01*
X130567474Y-111874610D01*
X130567471Y-111874612D01*
X130405523Y-111996206D01*
X130392965Y-112005635D01*
X130238629Y-112167138D01*
X130112743Y-112351680D01*
X130018688Y-112554305D01*
X129958989Y-112769570D01*
X129935251Y-112991695D01*
X129935548Y-112996848D01*
X129935548Y-112996851D01*
X129941011Y-113091590D01*
X129948110Y-113214715D01*
X129949247Y-113219761D01*
X129949248Y-113219767D01*
X129968936Y-113307128D01*
X129997222Y-113432639D01*
X130081266Y-113639616D01*
X130132019Y-113722438D01*
X130195291Y-113825688D01*
X130197987Y-113830088D01*
X130344250Y-113998938D01*
X130516126Y-114141632D01*
X130586595Y-114182811D01*
X130589445Y-114184476D01*
X130638169Y-114236114D01*
X130651240Y-114305897D01*
X130624509Y-114371669D01*
X130584055Y-114405027D01*
X130571607Y-114411507D01*
X130567474Y-114414610D01*
X130567471Y-114414612D01*
X130543247Y-114432800D01*
X130392965Y-114545635D01*
X130238629Y-114707138D01*
X130235720Y-114711403D01*
X130235714Y-114711411D01*
X130150556Y-114836249D01*
X130112743Y-114891680D01*
X130018688Y-115094305D01*
X129958989Y-115309570D01*
X129935251Y-115531695D01*
X129935548Y-115536848D01*
X129935548Y-115536851D01*
X129941011Y-115631590D01*
X129948110Y-115754715D01*
X129949247Y-115759761D01*
X129949248Y-115759767D01*
X129959795Y-115806565D01*
X129997222Y-115972639D01*
X130081266Y-116179616D01*
X130132019Y-116262438D01*
X130195291Y-116365688D01*
X130197987Y-116370088D01*
X130344250Y-116538938D01*
X130420846Y-116602529D01*
X130500663Y-116668794D01*
X130516126Y-116681632D01*
X130552779Y-116703050D01*
X130589445Y-116724476D01*
X130638169Y-116776114D01*
X130651240Y-116845897D01*
X130624509Y-116911669D01*
X130584055Y-116945027D01*
X130571607Y-116951507D01*
X130567474Y-116954610D01*
X130567471Y-116954612D01*
X130543247Y-116972800D01*
X130392965Y-117085635D01*
X130238629Y-117247138D01*
X130112743Y-117431680D01*
X130018688Y-117634305D01*
X129958989Y-117849570D01*
X129935251Y-118071695D01*
X129935548Y-118076848D01*
X129935548Y-118076851D01*
X129941011Y-118171590D01*
X129948110Y-118294715D01*
X129949247Y-118299761D01*
X129949248Y-118299767D01*
X129969119Y-118387939D01*
X129997222Y-118512639D01*
X130081266Y-118719616D01*
X130132019Y-118802438D01*
X130195291Y-118905688D01*
X130197987Y-118910088D01*
X130344250Y-119078938D01*
X130516126Y-119221632D01*
X130578616Y-119258148D01*
X130589445Y-119264476D01*
X130638169Y-119316114D01*
X130651240Y-119385897D01*
X130624509Y-119451669D01*
X130584055Y-119485027D01*
X130571607Y-119491507D01*
X130567474Y-119494610D01*
X130567471Y-119494612D01*
X130397100Y-119622530D01*
X130392965Y-119625635D01*
X130238629Y-119787138D01*
X130112743Y-119971680D01*
X130071371Y-120060809D01*
X130025477Y-120159680D01*
X130018688Y-120174305D01*
X129958989Y-120389570D01*
X129935251Y-120611695D01*
X129935548Y-120616848D01*
X129935548Y-120616851D01*
X129941011Y-120711590D01*
X129948110Y-120834715D01*
X129949247Y-120839761D01*
X129949248Y-120839767D01*
X129969119Y-120927939D01*
X129997222Y-121052639D01*
X130081266Y-121259616D01*
X130132019Y-121342438D01*
X130195291Y-121445688D01*
X130197987Y-121450088D01*
X130344250Y-121618938D01*
X130516126Y-121761632D01*
X130586595Y-121802811D01*
X130589445Y-121804476D01*
X130638169Y-121856114D01*
X130651240Y-121925897D01*
X130624509Y-121991669D01*
X130584055Y-122025027D01*
X130571607Y-122031507D01*
X130567474Y-122034610D01*
X130567471Y-122034612D01*
X130444960Y-122126596D01*
X130392965Y-122165635D01*
X130389393Y-122169373D01*
X130279920Y-122283930D01*
X130238629Y-122327138D01*
X130235720Y-122331403D01*
X130235714Y-122331411D01*
X130208184Y-122371769D01*
X130112743Y-122511680D01*
X130018688Y-122714305D01*
X129958989Y-122929570D01*
X129935251Y-123151695D01*
X129935548Y-123156848D01*
X129935548Y-123156851D01*
X129941011Y-123251590D01*
X129948110Y-123374715D01*
X129949247Y-123379761D01*
X129949248Y-123379767D01*
X129969119Y-123467939D01*
X129997222Y-123592639D01*
X130081266Y-123799616D01*
X130132019Y-123882438D01*
X130195291Y-123985688D01*
X130197987Y-123990088D01*
X130344250Y-124158938D01*
X130516126Y-124301632D01*
X130586595Y-124342811D01*
X130589445Y-124344476D01*
X130638169Y-124396114D01*
X130651240Y-124465897D01*
X130624509Y-124531669D01*
X130584055Y-124565027D01*
X130571607Y-124571507D01*
X130567474Y-124574610D01*
X130567471Y-124574612D01*
X130543247Y-124592800D01*
X130392965Y-124705635D01*
X130238629Y-124867138D01*
X130112743Y-125051680D01*
X130097003Y-125085590D01*
X130028704Y-125232728D01*
X130018688Y-125254305D01*
X129958989Y-125469570D01*
X129935251Y-125691695D01*
X129935548Y-125696848D01*
X129935548Y-125696851D01*
X129941635Y-125802410D01*
X129948110Y-125914715D01*
X129949247Y-125919761D01*
X129949248Y-125919767D01*
X129955044Y-125945485D01*
X129997222Y-126132639D01*
X130081266Y-126339616D01*
X130132019Y-126422438D01*
X130195291Y-126525688D01*
X130197987Y-126530088D01*
X130344250Y-126698938D01*
X130516126Y-126841632D01*
X130586595Y-126882811D01*
X130589445Y-126884476D01*
X130638169Y-126936114D01*
X130651240Y-127005897D01*
X130624509Y-127071669D01*
X130584055Y-127105027D01*
X130571607Y-127111507D01*
X130567474Y-127114610D01*
X130567471Y-127114612D01*
X130543247Y-127132800D01*
X130392965Y-127245635D01*
X130238629Y-127407138D01*
X130112743Y-127591680D01*
X130018688Y-127794305D01*
X129958989Y-128009570D01*
X129935251Y-128231695D01*
X129935548Y-128236848D01*
X129935548Y-128236851D01*
X129941011Y-128331590D01*
X129948110Y-128454715D01*
X129949247Y-128459761D01*
X129949248Y-128459767D01*
X129969119Y-128547939D01*
X129997222Y-128672639D01*
X130081266Y-128879616D01*
X130132019Y-128962438D01*
X130195291Y-129065688D01*
X130197987Y-129070088D01*
X130344250Y-129238938D01*
X130516126Y-129381632D01*
X130586595Y-129422811D01*
X130589445Y-129424476D01*
X130638169Y-129476114D01*
X130651240Y-129545897D01*
X130624509Y-129611669D01*
X130584055Y-129645027D01*
X130571607Y-129651507D01*
X130567474Y-129654610D01*
X130567471Y-129654612D01*
X130543247Y-129672800D01*
X130392965Y-129785635D01*
X130238629Y-129947138D01*
X130112743Y-130131680D01*
X130018688Y-130334305D01*
X129958989Y-130549570D01*
X129935251Y-130771695D01*
X129935548Y-130776848D01*
X129935548Y-130776851D01*
X129941011Y-130871590D01*
X129948110Y-130994715D01*
X129949247Y-130999761D01*
X129949248Y-130999767D01*
X129969119Y-131087939D01*
X129997222Y-131212639D01*
X130081266Y-131419616D01*
X130132019Y-131502438D01*
X130195291Y-131605688D01*
X130197987Y-131610088D01*
X130344250Y-131778938D01*
X130516126Y-131921632D01*
X130586595Y-131962811D01*
X130589445Y-131964476D01*
X130638169Y-132016114D01*
X130651240Y-132085897D01*
X130624509Y-132151669D01*
X130584055Y-132185027D01*
X130571607Y-132191507D01*
X130567474Y-132194610D01*
X130567471Y-132194612D01*
X130543247Y-132212800D01*
X130392965Y-132325635D01*
X130238629Y-132487138D01*
X130112743Y-132671680D01*
X130018688Y-132874305D01*
X129958989Y-133089570D01*
X129935251Y-133311695D01*
X129935548Y-133316848D01*
X129935548Y-133316851D01*
X129941011Y-133411590D01*
X129948110Y-133534715D01*
X129949247Y-133539761D01*
X129949248Y-133539767D01*
X129969119Y-133627939D01*
X129997222Y-133752639D01*
X130081266Y-133959616D01*
X130132019Y-134042438D01*
X130195291Y-134145688D01*
X130197987Y-134150088D01*
X130344250Y-134318938D01*
X130516126Y-134461632D01*
X130586595Y-134502811D01*
X130589445Y-134504476D01*
X130638169Y-134556114D01*
X130651240Y-134625897D01*
X130624509Y-134691669D01*
X130584055Y-134725027D01*
X130571607Y-134731507D01*
X130567474Y-134734610D01*
X130567471Y-134734612D01*
X130543247Y-134752800D01*
X130392965Y-134865635D01*
X130238629Y-135027138D01*
X130235720Y-135031403D01*
X130235714Y-135031411D01*
X130174472Y-135121188D01*
X130112743Y-135211680D01*
X130097003Y-135245590D01*
X130049356Y-135348237D01*
X130018688Y-135414305D01*
X129958989Y-135629570D01*
X129935251Y-135851695D01*
X129935548Y-135856848D01*
X129935548Y-135856851D01*
X129941011Y-135951590D01*
X129948110Y-136074715D01*
X129949247Y-136079761D01*
X129949248Y-136079767D01*
X129969119Y-136167939D01*
X129997222Y-136292639D01*
X130081266Y-136499616D01*
X130132019Y-136582438D01*
X130195291Y-136685688D01*
X130197987Y-136690088D01*
X130344250Y-136858938D01*
X130516126Y-137001632D01*
X130559044Y-137026711D01*
X130589445Y-137044476D01*
X130638169Y-137096114D01*
X130651240Y-137165897D01*
X130624509Y-137231669D01*
X130584055Y-137265027D01*
X130571607Y-137271507D01*
X130567474Y-137274610D01*
X130567471Y-137274612D01*
X130397100Y-137402530D01*
X130392965Y-137405635D01*
X130238629Y-137567138D01*
X130112743Y-137751680D01*
X130018688Y-137954305D01*
X129958989Y-138169570D01*
X129935251Y-138391695D01*
X129935548Y-138396848D01*
X129935548Y-138396851D01*
X129941011Y-138491590D01*
X129948110Y-138614715D01*
X129949247Y-138619761D01*
X129949248Y-138619767D01*
X129969119Y-138707939D01*
X129997222Y-138832639D01*
X130081266Y-139039616D01*
X130132019Y-139122438D01*
X130195291Y-139225688D01*
X130197987Y-139230088D01*
X130344250Y-139398938D01*
X130516126Y-139541632D01*
X130586595Y-139582811D01*
X130589445Y-139584476D01*
X130638169Y-139636114D01*
X130651240Y-139705897D01*
X130624509Y-139771669D01*
X130584055Y-139805027D01*
X130571607Y-139811507D01*
X130567474Y-139814610D01*
X130567471Y-139814612D01*
X130397100Y-139942530D01*
X130392965Y-139945635D01*
X130238629Y-140107138D01*
X130235720Y-140111403D01*
X130235714Y-140111411D01*
X130223404Y-140129457D01*
X130112743Y-140291680D01*
X130097003Y-140325590D01*
X130037296Y-140454218D01*
X130018688Y-140494305D01*
X129958989Y-140709570D01*
X129935251Y-140931695D01*
X110118775Y-140931695D01*
X110341451Y-140723319D01*
X110575140Y-140451630D01*
X110681844Y-140296375D01*
X110776190Y-140159101D01*
X110776195Y-140159094D01*
X110778120Y-140156292D01*
X110779732Y-140153298D01*
X110779737Y-140153290D01*
X110946395Y-139843772D01*
X110948017Y-139840760D01*
X111048252Y-139593909D01*
X111081562Y-139511877D01*
X111081564Y-139511872D01*
X111082842Y-139508724D01*
X111093142Y-139472568D01*
X111115229Y-139395031D01*
X111181020Y-139164070D01*
X111241401Y-138810828D01*
X111243511Y-138776340D01*
X111263168Y-138454928D01*
X111263278Y-138453131D01*
X111263359Y-138430000D01*
X111243979Y-138072159D01*
X111186066Y-137718505D01*
X111090297Y-137373173D01*
X111087243Y-137365497D01*
X110959052Y-137043369D01*
X110957793Y-137040205D01*
X110927768Y-136983498D01*
X110791702Y-136726513D01*
X110791698Y-136726506D01*
X110790103Y-136723494D01*
X110589190Y-136426746D01*
X110559260Y-136391453D01*
X110471182Y-136287596D01*
X110357403Y-136153432D01*
X110097454Y-135906750D01*
X109812384Y-135689585D01*
X109809472Y-135687828D01*
X109809467Y-135687825D01*
X109508443Y-135506236D01*
X109508437Y-135506233D01*
X109505528Y-135504478D01*
X109180475Y-135353593D01*
X108861393Y-135245590D01*
X108844255Y-135239789D01*
X108844250Y-135239788D01*
X108841028Y-135238697D01*
X108597096Y-135184618D01*
X108494493Y-135161871D01*
X108494487Y-135161870D01*
X108491158Y-135161132D01*
X108487769Y-135160758D01*
X108487764Y-135160757D01*
X108138338Y-135122180D01*
X108138333Y-135122180D01*
X108134957Y-135121807D01*
X108131558Y-135121801D01*
X108131557Y-135121801D01*
X107962080Y-135121505D01*
X107776592Y-135121182D01*
X107663413Y-135133277D01*
X107423639Y-135158901D01*
X107423631Y-135158902D01*
X107420256Y-135159263D01*
X107070117Y-135235606D01*
X106730271Y-135349317D01*
X106727178Y-135350739D01*
X106727177Y-135350740D01*
X106720974Y-135353593D01*
X106404694Y-135499066D01*
X106401760Y-135500822D01*
X106401758Y-135500823D01*
X106123224Y-135667522D01*
X106097193Y-135683101D01*
X106094467Y-135685163D01*
X106094465Y-135685164D01*
X105867455Y-135856851D01*
X105811367Y-135899270D01*
X105550559Y-136145043D01*
X105317819Y-136417546D01*
X105315900Y-136420358D01*
X105315897Y-136420363D01*
X105230973Y-136544857D01*
X105115871Y-136713591D01*
X104947077Y-137029714D01*
X104813411Y-137362218D01*
X104812491Y-137365492D01*
X104812489Y-137365497D01*
X104749537Y-137589457D01*
X104716437Y-137707213D01*
X104715875Y-137710570D01*
X104715875Y-137710571D01*
X104705994Y-137769621D01*
X104657290Y-138060663D01*
X104636661Y-138418434D01*
X103378500Y-138418434D01*
X103378500Y-119800000D01*
X113686496Y-119800000D01*
X113687186Y-119806565D01*
X113705034Y-119976375D01*
X113706458Y-119989928D01*
X113765473Y-120171556D01*
X113860960Y-120336944D01*
X113865378Y-120341851D01*
X113865379Y-120341852D01*
X113937870Y-120422361D01*
X113988747Y-120478866D01*
X114143248Y-120591118D01*
X114149276Y-120593802D01*
X114149278Y-120593803D01*
X114271827Y-120648365D01*
X114317712Y-120668794D01*
X114411113Y-120688647D01*
X114498056Y-120707128D01*
X114498061Y-120707128D01*
X114504513Y-120708500D01*
X114695487Y-120708500D01*
X114701939Y-120707128D01*
X114701944Y-120707128D01*
X114788887Y-120688647D01*
X114882288Y-120668794D01*
X114928173Y-120648365D01*
X115050722Y-120593803D01*
X115050724Y-120593802D01*
X115056752Y-120591118D01*
X115211253Y-120478866D01*
X115262130Y-120422361D01*
X115334621Y-120341852D01*
X115334622Y-120341851D01*
X115339040Y-120336944D01*
X115434527Y-120171556D01*
X115493542Y-119989928D01*
X115494967Y-119976375D01*
X115512814Y-119806565D01*
X115513504Y-119800000D01*
X115510160Y-119768181D01*
X115494232Y-119616635D01*
X115494232Y-119616633D01*
X115493542Y-119610072D01*
X115434527Y-119428444D01*
X115339040Y-119263056D01*
X115211253Y-119121134D01*
X115056752Y-119008882D01*
X115050724Y-119006198D01*
X115050722Y-119006197D01*
X114888319Y-118933891D01*
X114888318Y-118933891D01*
X114882288Y-118931206D01*
X114762241Y-118905689D01*
X114701944Y-118892872D01*
X114701939Y-118892872D01*
X114695487Y-118891500D01*
X114504513Y-118891500D01*
X114498061Y-118892872D01*
X114498056Y-118892872D01*
X114437759Y-118905689D01*
X114317712Y-118931206D01*
X114311682Y-118933891D01*
X114311681Y-118933891D01*
X114149278Y-119006197D01*
X114149276Y-119006198D01*
X114143248Y-119008882D01*
X113988747Y-119121134D01*
X113860960Y-119263056D01*
X113765473Y-119428444D01*
X113706458Y-119610072D01*
X113705768Y-119616633D01*
X113705768Y-119616635D01*
X113689840Y-119768181D01*
X113686496Y-119800000D01*
X103378500Y-119800000D01*
X103378500Y-116400000D01*
X109886496Y-116400000D01*
X109887186Y-116406565D01*
X109899314Y-116521952D01*
X109906458Y-116589928D01*
X109965473Y-116771556D01*
X110060960Y-116936944D01*
X110065378Y-116941851D01*
X110065379Y-116941852D01*
X110184325Y-117073955D01*
X110188747Y-117078866D01*
X110343248Y-117191118D01*
X110349276Y-117193802D01*
X110349278Y-117193803D01*
X110478651Y-117251403D01*
X110517712Y-117268794D01*
X110611113Y-117288647D01*
X110698056Y-117307128D01*
X110698061Y-117307128D01*
X110704513Y-117308500D01*
X110895487Y-117308500D01*
X110901939Y-117307128D01*
X110901944Y-117307128D01*
X110988887Y-117288647D01*
X111082288Y-117268794D01*
X111121349Y-117251403D01*
X111250722Y-117193803D01*
X111250724Y-117193802D01*
X111256752Y-117191118D01*
X111411253Y-117078866D01*
X111506365Y-116973233D01*
X111566810Y-116935994D01*
X111637793Y-116937346D01*
X111693635Y-116973233D01*
X111788747Y-117078866D01*
X111943248Y-117191118D01*
X111949276Y-117193802D01*
X111949278Y-117193803D01*
X112078651Y-117251403D01*
X112117712Y-117268794D01*
X112211113Y-117288647D01*
X112298056Y-117307128D01*
X112298061Y-117307128D01*
X112304513Y-117308500D01*
X112495487Y-117308500D01*
X112501939Y-117307128D01*
X112501944Y-117307128D01*
X112588887Y-117288647D01*
X112682288Y-117268794D01*
X112721349Y-117251403D01*
X112850722Y-117193803D01*
X112850724Y-117193802D01*
X112856752Y-117191118D01*
X113011253Y-117078866D01*
X113015675Y-117073955D01*
X113134621Y-116941852D01*
X113134622Y-116941851D01*
X113139040Y-116936944D01*
X113234527Y-116771556D01*
X113234969Y-116771811D01*
X113278195Y-116720953D01*
X113321125Y-116703050D01*
X113482288Y-116668794D01*
X113488319Y-116666109D01*
X113650722Y-116593803D01*
X113650724Y-116593802D01*
X113656752Y-116591118D01*
X113811253Y-116478866D01*
X113820322Y-116468794D01*
X113934621Y-116341852D01*
X113934622Y-116341851D01*
X113939040Y-116336944D01*
X114034527Y-116171556D01*
X114093542Y-115989928D01*
X114094872Y-115977279D01*
X114112814Y-115806565D01*
X114113504Y-115800000D01*
X114104807Y-115717251D01*
X114094232Y-115616635D01*
X114094232Y-115616633D01*
X114093542Y-115610072D01*
X114090269Y-115600000D01*
X115286496Y-115600000D01*
X115287186Y-115606565D01*
X115299228Y-115721134D01*
X115306458Y-115789928D01*
X115365473Y-115971556D01*
X115460960Y-116136944D01*
X115465378Y-116141851D01*
X115465379Y-116141852D01*
X115573955Y-116262438D01*
X115588747Y-116278866D01*
X115743248Y-116391118D01*
X115749276Y-116393802D01*
X115749278Y-116393803D01*
X115911681Y-116466109D01*
X115917712Y-116468794D01*
X115924167Y-116470166D01*
X115924170Y-116470167D01*
X115965097Y-116478866D01*
X116009125Y-116488224D01*
X116071598Y-116521952D01*
X116105920Y-116584807D01*
X116106458Y-116589928D01*
X116165473Y-116771556D01*
X116260960Y-116936944D01*
X116265378Y-116941851D01*
X116265379Y-116941852D01*
X116384325Y-117073955D01*
X116388747Y-117078866D01*
X116543248Y-117191118D01*
X116549276Y-117193802D01*
X116549278Y-117193803D01*
X116678651Y-117251403D01*
X116717712Y-117268794D01*
X116811113Y-117288647D01*
X116898056Y-117307128D01*
X116898061Y-117307128D01*
X116904513Y-117308500D01*
X117095487Y-117308500D01*
X117101939Y-117307128D01*
X117101944Y-117307128D01*
X117188887Y-117288647D01*
X117282288Y-117268794D01*
X117321349Y-117251403D01*
X117450722Y-117193803D01*
X117450724Y-117193802D01*
X117456752Y-117191118D01*
X117611253Y-117078866D01*
X117706365Y-116973233D01*
X117766810Y-116935994D01*
X117837793Y-116937346D01*
X117893635Y-116973233D01*
X117988747Y-117078866D01*
X118143248Y-117191118D01*
X118149276Y-117193802D01*
X118149278Y-117193803D01*
X118278651Y-117251403D01*
X118317712Y-117268794D01*
X118411113Y-117288647D01*
X118498056Y-117307128D01*
X118498061Y-117307128D01*
X118504513Y-117308500D01*
X118695487Y-117308500D01*
X118701939Y-117307128D01*
X118701944Y-117307128D01*
X118788887Y-117288647D01*
X118882288Y-117268794D01*
X118921349Y-117251403D01*
X119050722Y-117193803D01*
X119050724Y-117193802D01*
X119056752Y-117191118D01*
X119211253Y-117078866D01*
X119215675Y-117073955D01*
X119334621Y-116941852D01*
X119334622Y-116941851D01*
X119339040Y-116936944D01*
X119434527Y-116771556D01*
X119493542Y-116589928D01*
X119500687Y-116521952D01*
X119512814Y-116406565D01*
X119513504Y-116400000D01*
X119509898Y-116365688D01*
X119494232Y-116216635D01*
X119494232Y-116216633D01*
X119493542Y-116210072D01*
X119434527Y-116028444D01*
X119339040Y-115863056D01*
X119241490Y-115754715D01*
X119215675Y-115726045D01*
X119215674Y-115726044D01*
X119211253Y-115721134D01*
X119056752Y-115608882D01*
X119050724Y-115606198D01*
X119050722Y-115606197D01*
X118888319Y-115533891D01*
X118888318Y-115533891D01*
X118882288Y-115531206D01*
X118875833Y-115529834D01*
X118875830Y-115529833D01*
X118823819Y-115518778D01*
X118790875Y-115511776D01*
X118728402Y-115478048D01*
X118694080Y-115415193D01*
X118693542Y-115410072D01*
X118680081Y-115368642D01*
X118636569Y-115234729D01*
X118634527Y-115228444D01*
X118539040Y-115063056D01*
X118506365Y-115026766D01*
X118415675Y-114926045D01*
X118415674Y-114926044D01*
X118411253Y-114921134D01*
X118256752Y-114808882D01*
X118250724Y-114806198D01*
X118250722Y-114806197D01*
X118088319Y-114733891D01*
X118088318Y-114733891D01*
X118082288Y-114731206D01*
X117969058Y-114707138D01*
X117901944Y-114692872D01*
X117901939Y-114692872D01*
X117895487Y-114691500D01*
X117704513Y-114691500D01*
X117698061Y-114692872D01*
X117698056Y-114692872D01*
X117630942Y-114707138D01*
X117517712Y-114731206D01*
X117511682Y-114733891D01*
X117511681Y-114733891D01*
X117349278Y-114806197D01*
X117349276Y-114806198D01*
X117343248Y-114808882D01*
X117188747Y-114921134D01*
X117184326Y-114926044D01*
X117184325Y-114926045D01*
X117162189Y-114950629D01*
X117109739Y-115008882D01*
X117093636Y-115026766D01*
X117033190Y-115064006D01*
X116962207Y-115062654D01*
X116906364Y-115026766D01*
X116890262Y-115008882D01*
X116837811Y-114950629D01*
X116815675Y-114926045D01*
X116815674Y-114926044D01*
X116811253Y-114921134D01*
X116656752Y-114808882D01*
X116650724Y-114806198D01*
X116650722Y-114806197D01*
X116488319Y-114733891D01*
X116488318Y-114733891D01*
X116482288Y-114731206D01*
X116369058Y-114707138D01*
X116301944Y-114692872D01*
X116301939Y-114692872D01*
X116295487Y-114691500D01*
X116104513Y-114691500D01*
X116098061Y-114692872D01*
X116098056Y-114692872D01*
X116030942Y-114707138D01*
X115917712Y-114731206D01*
X115911682Y-114733891D01*
X115911681Y-114733891D01*
X115749278Y-114806197D01*
X115749276Y-114806198D01*
X115743248Y-114808882D01*
X115588747Y-114921134D01*
X115584326Y-114926044D01*
X115584325Y-114926045D01*
X115493636Y-115026766D01*
X115460960Y-115063056D01*
X115365473Y-115228444D01*
X115306458Y-115410072D01*
X115305768Y-115416633D01*
X115305768Y-115416635D01*
X115293871Y-115529833D01*
X115286496Y-115600000D01*
X114090269Y-115600000D01*
X114034527Y-115428444D01*
X113939040Y-115263056D01*
X113906365Y-115226766D01*
X113815675Y-115126045D01*
X113815674Y-115126044D01*
X113811253Y-115121134D01*
X113656752Y-115008882D01*
X113650724Y-115006198D01*
X113650722Y-115006197D01*
X113488319Y-114933891D01*
X113488318Y-114933891D01*
X113482288Y-114931206D01*
X113380739Y-114909621D01*
X113301944Y-114892872D01*
X113301939Y-114892872D01*
X113295487Y-114891500D01*
X113104513Y-114891500D01*
X113098061Y-114892872D01*
X113098056Y-114892872D01*
X113019261Y-114909621D01*
X112917712Y-114931206D01*
X112911682Y-114933891D01*
X112911681Y-114933891D01*
X112749278Y-115006197D01*
X112749276Y-115006198D01*
X112743248Y-115008882D01*
X112588747Y-115121134D01*
X112584326Y-115126044D01*
X112584325Y-115126045D01*
X112493636Y-115226766D01*
X112433190Y-115264006D01*
X112362207Y-115262654D01*
X112306364Y-115226766D01*
X112215675Y-115126045D01*
X112215674Y-115126044D01*
X112211253Y-115121134D01*
X112056752Y-115008882D01*
X112050724Y-115006198D01*
X112050722Y-115006197D01*
X111888319Y-114933891D01*
X111888318Y-114933891D01*
X111882288Y-114931206D01*
X111780739Y-114909621D01*
X111701944Y-114892872D01*
X111701939Y-114892872D01*
X111695487Y-114891500D01*
X111504513Y-114891500D01*
X111498061Y-114892872D01*
X111498056Y-114892872D01*
X111419261Y-114909621D01*
X111317712Y-114931206D01*
X111311682Y-114933891D01*
X111311681Y-114933891D01*
X111149278Y-115006197D01*
X111149276Y-115006198D01*
X111143248Y-115008882D01*
X110988747Y-115121134D01*
X110984326Y-115126044D01*
X110984325Y-115126045D01*
X110893636Y-115226766D01*
X110860960Y-115263056D01*
X110765473Y-115428444D01*
X110765031Y-115428189D01*
X110721805Y-115479047D01*
X110678875Y-115496950D01*
X110517712Y-115531206D01*
X110511682Y-115533891D01*
X110511681Y-115533891D01*
X110349278Y-115606197D01*
X110349276Y-115606198D01*
X110343248Y-115608882D01*
X110188747Y-115721134D01*
X110184326Y-115726044D01*
X110184325Y-115726045D01*
X110158511Y-115754715D01*
X110060960Y-115863056D01*
X109965473Y-116028444D01*
X109906458Y-116210072D01*
X109905768Y-116216633D01*
X109905768Y-116216635D01*
X109890102Y-116365688D01*
X109886496Y-116400000D01*
X103378500Y-116400000D01*
X103378500Y-111800000D01*
X115086496Y-111800000D01*
X115087186Y-111806565D01*
X115096250Y-111892800D01*
X115106458Y-111989928D01*
X115165473Y-112171556D01*
X115260960Y-112336944D01*
X115265378Y-112341851D01*
X115265379Y-112341852D01*
X115274228Y-112351680D01*
X115388747Y-112478866D01*
X115467944Y-112536406D01*
X115535794Y-112585702D01*
X115543248Y-112591118D01*
X115549276Y-112593802D01*
X115549278Y-112593803D01*
X115711681Y-112666109D01*
X115717712Y-112668794D01*
X115811112Y-112688647D01*
X115898056Y-112707128D01*
X115898061Y-112707128D01*
X115904513Y-112708500D01*
X116095487Y-112708500D01*
X116101939Y-112707128D01*
X116101944Y-112707128D01*
X116188888Y-112688647D01*
X116282288Y-112668794D01*
X116288319Y-112666109D01*
X116450722Y-112593803D01*
X116450724Y-112593802D01*
X116456752Y-112591118D01*
X116464207Y-112585702D01*
X116532056Y-112536406D01*
X116611253Y-112478866D01*
X116725772Y-112351680D01*
X116734621Y-112341852D01*
X116734622Y-112341851D01*
X116739040Y-112336944D01*
X116834527Y-112171556D01*
X116893542Y-111989928D01*
X116903751Y-111892800D01*
X116912814Y-111806565D01*
X116913504Y-111800000D01*
X118486496Y-111800000D01*
X118487186Y-111806565D01*
X118496250Y-111892800D01*
X118506458Y-111989928D01*
X118565473Y-112171556D01*
X118660960Y-112336944D01*
X118665378Y-112341851D01*
X118665379Y-112341852D01*
X118674228Y-112351680D01*
X118788747Y-112478866D01*
X118867944Y-112536406D01*
X118935794Y-112585702D01*
X118943248Y-112591118D01*
X118949276Y-112593802D01*
X118949278Y-112593803D01*
X119111681Y-112666109D01*
X119117712Y-112668794D01*
X119278875Y-112703050D01*
X119341347Y-112736778D01*
X119365400Y-112771598D01*
X119365473Y-112771556D01*
X119460960Y-112936944D01*
X119588747Y-113078866D01*
X119743248Y-113191118D01*
X119749276Y-113193802D01*
X119749278Y-113193803D01*
X119911681Y-113266109D01*
X119917712Y-113268794D01*
X120011113Y-113288647D01*
X120098056Y-113307128D01*
X120098061Y-113307128D01*
X120104513Y-113308500D01*
X120295487Y-113308500D01*
X120301939Y-113307128D01*
X120301944Y-113307128D01*
X120388888Y-113288647D01*
X120482288Y-113268794D01*
X120488319Y-113266109D01*
X120650722Y-113193803D01*
X120650724Y-113193802D01*
X120656752Y-113191118D01*
X120811253Y-113078866D01*
X120939040Y-112936944D01*
X121034527Y-112771556D01*
X121034969Y-112771811D01*
X121078195Y-112720953D01*
X121121125Y-112703050D01*
X121282288Y-112668794D01*
X121288319Y-112666109D01*
X121450722Y-112593803D01*
X121450724Y-112593802D01*
X121456752Y-112591118D01*
X121464207Y-112585702D01*
X121532056Y-112536406D01*
X121611253Y-112478866D01*
X121725772Y-112351680D01*
X121734621Y-112341852D01*
X121734622Y-112341851D01*
X121739040Y-112336944D01*
X121834527Y-112171556D01*
X121893542Y-111989928D01*
X121903751Y-111892800D01*
X121912814Y-111806565D01*
X121913504Y-111800000D01*
X121898358Y-111655896D01*
X121894232Y-111616635D01*
X121894232Y-111616633D01*
X121893542Y-111610072D01*
X121834527Y-111428444D01*
X121739040Y-111263056D01*
X121706365Y-111226766D01*
X121615675Y-111126045D01*
X121615674Y-111126044D01*
X121611253Y-111121134D01*
X121456752Y-111008882D01*
X121450724Y-111006198D01*
X121450722Y-111006197D01*
X121288319Y-110933891D01*
X121288318Y-110933891D01*
X121282288Y-110931206D01*
X121188887Y-110911353D01*
X121101944Y-110892872D01*
X121101939Y-110892872D01*
X121095487Y-110891500D01*
X120904513Y-110891500D01*
X120898061Y-110892872D01*
X120898056Y-110892872D01*
X120811113Y-110911353D01*
X120717712Y-110931206D01*
X120711682Y-110933891D01*
X120711681Y-110933891D01*
X120549278Y-111006197D01*
X120549276Y-111006198D01*
X120543248Y-111008882D01*
X120388747Y-111121134D01*
X120324945Y-111191994D01*
X120293636Y-111226766D01*
X120233190Y-111264006D01*
X120162207Y-111262654D01*
X120106364Y-111226766D01*
X120075056Y-111191994D01*
X120011253Y-111121134D01*
X119856752Y-111008882D01*
X119850724Y-111006198D01*
X119850722Y-111006197D01*
X119688319Y-110933891D01*
X119688318Y-110933891D01*
X119682288Y-110931206D01*
X119588887Y-110911353D01*
X119501944Y-110892872D01*
X119501939Y-110892872D01*
X119495487Y-110891500D01*
X119304513Y-110891500D01*
X119298061Y-110892872D01*
X119298056Y-110892872D01*
X119211113Y-110911353D01*
X119117712Y-110931206D01*
X119111682Y-110933891D01*
X119111681Y-110933891D01*
X118949278Y-111006197D01*
X118949276Y-111006198D01*
X118943248Y-111008882D01*
X118788747Y-111121134D01*
X118784326Y-111126044D01*
X118784325Y-111126045D01*
X118693636Y-111226766D01*
X118660960Y-111263056D01*
X118565473Y-111428444D01*
X118506458Y-111610072D01*
X118505768Y-111616633D01*
X118505768Y-111616635D01*
X118501642Y-111655896D01*
X118486496Y-111800000D01*
X116913504Y-111800000D01*
X116898358Y-111655896D01*
X116894232Y-111616635D01*
X116894232Y-111616633D01*
X116893542Y-111610072D01*
X116834527Y-111428444D01*
X116739040Y-111263056D01*
X116706365Y-111226766D01*
X116615675Y-111126045D01*
X116615674Y-111126044D01*
X116611253Y-111121134D01*
X116456752Y-111008882D01*
X116450724Y-111006198D01*
X116450722Y-111006197D01*
X116288319Y-110933891D01*
X116288318Y-110933891D01*
X116282288Y-110931206D01*
X116188887Y-110911353D01*
X116101944Y-110892872D01*
X116101939Y-110892872D01*
X116095487Y-110891500D01*
X115904513Y-110891500D01*
X115898061Y-110892872D01*
X115898056Y-110892872D01*
X115811113Y-110911353D01*
X115717712Y-110931206D01*
X115711682Y-110933891D01*
X115711681Y-110933891D01*
X115549278Y-111006197D01*
X115549276Y-111006198D01*
X115543248Y-111008882D01*
X115388747Y-111121134D01*
X115384326Y-111126044D01*
X115384325Y-111126045D01*
X115293636Y-111226766D01*
X115260960Y-111263056D01*
X115165473Y-111428444D01*
X115106458Y-111610072D01*
X115105768Y-111616633D01*
X115105768Y-111616635D01*
X115101642Y-111655896D01*
X115086496Y-111800000D01*
X103378500Y-111800000D01*
X103378500Y-104000000D01*
X110486496Y-104000000D01*
X110487186Y-104006565D01*
X110503485Y-104161638D01*
X110506458Y-104189928D01*
X110565473Y-104371556D01*
X110568776Y-104377278D01*
X110568777Y-104377279D01*
X110575760Y-104389373D01*
X110660960Y-104536944D01*
X110788747Y-104678866D01*
X110943248Y-104791118D01*
X110949276Y-104793802D01*
X110949278Y-104793803D01*
X111111681Y-104866109D01*
X111117712Y-104868794D01*
X111124167Y-104870166D01*
X111124170Y-104870167D01*
X111176181Y-104881222D01*
X111209125Y-104888224D01*
X111271598Y-104921952D01*
X111305920Y-104984807D01*
X111306458Y-104989928D01*
X111365473Y-105171556D01*
X111368776Y-105177278D01*
X111368777Y-105177279D01*
X111371711Y-105182361D01*
X111460960Y-105336944D01*
X111465378Y-105341851D01*
X111465379Y-105341852D01*
X111496892Y-105376851D01*
X111588747Y-105478866D01*
X111743248Y-105591118D01*
X111749276Y-105593802D01*
X111749278Y-105593803D01*
X111911681Y-105666109D01*
X111917712Y-105668794D01*
X112007782Y-105687939D01*
X112098056Y-105707128D01*
X112098061Y-105707128D01*
X112104513Y-105708500D01*
X112295487Y-105708500D01*
X112301939Y-105707128D01*
X112301944Y-105707128D01*
X112392218Y-105687939D01*
X112482288Y-105668794D01*
X112488319Y-105666109D01*
X112650722Y-105593803D01*
X112650724Y-105593802D01*
X112656752Y-105591118D01*
X112811253Y-105478866D01*
X112906365Y-105373233D01*
X112966810Y-105335994D01*
X113037793Y-105337346D01*
X113093635Y-105373233D01*
X113188747Y-105478866D01*
X113343248Y-105591118D01*
X113349276Y-105593802D01*
X113349278Y-105593803D01*
X113511681Y-105666109D01*
X113517712Y-105668794D01*
X113607782Y-105687939D01*
X113698056Y-105707128D01*
X113698061Y-105707128D01*
X113704513Y-105708500D01*
X113895487Y-105708500D01*
X113901939Y-105707128D01*
X113901944Y-105707128D01*
X113992218Y-105687939D01*
X114082288Y-105668794D01*
X114088319Y-105666109D01*
X114250722Y-105593803D01*
X114250724Y-105593802D01*
X114256752Y-105591118D01*
X114411253Y-105478866D01*
X114503108Y-105376851D01*
X114534621Y-105341852D01*
X114534622Y-105341851D01*
X114539040Y-105336944D01*
X114628289Y-105182361D01*
X114631223Y-105177279D01*
X114631224Y-105177278D01*
X114634527Y-105171556D01*
X114693542Y-104989928D01*
X114698864Y-104939297D01*
X114712814Y-104806565D01*
X114713504Y-104800000D01*
X115286496Y-104800000D01*
X115287186Y-104806565D01*
X115301137Y-104939297D01*
X115306458Y-104989928D01*
X115365473Y-105171556D01*
X115368776Y-105177278D01*
X115368777Y-105177279D01*
X115371711Y-105182361D01*
X115460960Y-105336944D01*
X115465378Y-105341851D01*
X115465379Y-105341852D01*
X115496892Y-105376851D01*
X115588747Y-105478866D01*
X115743248Y-105591118D01*
X115749276Y-105593802D01*
X115749278Y-105593803D01*
X115911681Y-105666109D01*
X115917712Y-105668794D01*
X116007782Y-105687939D01*
X116098056Y-105707128D01*
X116098061Y-105707128D01*
X116104513Y-105708500D01*
X116295487Y-105708500D01*
X116301939Y-105707128D01*
X116301944Y-105707128D01*
X116392218Y-105687939D01*
X116482288Y-105668794D01*
X116488319Y-105666109D01*
X116650722Y-105593803D01*
X116650724Y-105593802D01*
X116656752Y-105591118D01*
X116811253Y-105478866D01*
X116906365Y-105373233D01*
X116966810Y-105335994D01*
X117037793Y-105337346D01*
X117093635Y-105373233D01*
X117188747Y-105478866D01*
X117343248Y-105591118D01*
X117349276Y-105593802D01*
X117349278Y-105593803D01*
X117511681Y-105666109D01*
X117517712Y-105668794D01*
X117607782Y-105687939D01*
X117698056Y-105707128D01*
X117698061Y-105707128D01*
X117704513Y-105708500D01*
X117895487Y-105708500D01*
X117901939Y-105707128D01*
X117901944Y-105707128D01*
X117992218Y-105687939D01*
X118082288Y-105668794D01*
X118088319Y-105666109D01*
X118250722Y-105593803D01*
X118250724Y-105593802D01*
X118256752Y-105591118D01*
X118411253Y-105478866D01*
X118503108Y-105376851D01*
X118534621Y-105341852D01*
X118534622Y-105341851D01*
X118539040Y-105336944D01*
X118628289Y-105182361D01*
X118631223Y-105177279D01*
X118631224Y-105177278D01*
X118634527Y-105171556D01*
X118693542Y-104989928D01*
X118698864Y-104939297D01*
X118712814Y-104806565D01*
X118713504Y-104800000D01*
X118701181Y-104682749D01*
X118694232Y-104616635D01*
X118694232Y-104616633D01*
X118693542Y-104610072D01*
X118634527Y-104428444D01*
X118608019Y-104382530D01*
X118597314Y-104363990D01*
X118539040Y-104263056D01*
X118524401Y-104246797D01*
X118415675Y-104126045D01*
X118415674Y-104126044D01*
X118411253Y-104121134D01*
X118312157Y-104049136D01*
X118262094Y-104012763D01*
X118262093Y-104012762D01*
X118256752Y-104008882D01*
X118250724Y-104006198D01*
X118250722Y-104006197D01*
X118088319Y-103933891D01*
X118088318Y-103933891D01*
X118082288Y-103931206D01*
X118075833Y-103929834D01*
X118075830Y-103929833D01*
X118023819Y-103918778D01*
X117990875Y-103911776D01*
X117928402Y-103878048D01*
X117894080Y-103815193D01*
X117893542Y-103810072D01*
X117834527Y-103628444D01*
X117739040Y-103463056D01*
X117706365Y-103426766D01*
X117615675Y-103326045D01*
X117615674Y-103326044D01*
X117611253Y-103321134D01*
X117456752Y-103208882D01*
X117450724Y-103206198D01*
X117450722Y-103206197D01*
X117288319Y-103133891D01*
X117288318Y-103133891D01*
X117282288Y-103131206D01*
X117188888Y-103111353D01*
X117101944Y-103092872D01*
X117101939Y-103092872D01*
X117095487Y-103091500D01*
X116904513Y-103091500D01*
X116898061Y-103092872D01*
X116898056Y-103092872D01*
X116811112Y-103111353D01*
X116717712Y-103131206D01*
X116711682Y-103133891D01*
X116711681Y-103133891D01*
X116549278Y-103206197D01*
X116549276Y-103206198D01*
X116543248Y-103208882D01*
X116388747Y-103321134D01*
X116384326Y-103326044D01*
X116384325Y-103326045D01*
X116293636Y-103426766D01*
X116260960Y-103463056D01*
X116165473Y-103628444D01*
X116106458Y-103810072D01*
X116105919Y-103815200D01*
X116072447Y-103877199D01*
X116009125Y-103911776D01*
X115976181Y-103918778D01*
X115924170Y-103929833D01*
X115924167Y-103929834D01*
X115917712Y-103931206D01*
X115911682Y-103933891D01*
X115911681Y-103933891D01*
X115749278Y-104006197D01*
X115749276Y-104006198D01*
X115743248Y-104008882D01*
X115737907Y-104012762D01*
X115737906Y-104012763D01*
X115687843Y-104049136D01*
X115588747Y-104121134D01*
X115584326Y-104126044D01*
X115584325Y-104126045D01*
X115475600Y-104246797D01*
X115460960Y-104263056D01*
X115402686Y-104363990D01*
X115391982Y-104382530D01*
X115365473Y-104428444D01*
X115306458Y-104610072D01*
X115305768Y-104616633D01*
X115305768Y-104616635D01*
X115298819Y-104682749D01*
X115286496Y-104800000D01*
X114713504Y-104800000D01*
X114701181Y-104682749D01*
X114694232Y-104616635D01*
X114694232Y-104616633D01*
X114693542Y-104610072D01*
X114634527Y-104428444D01*
X114608019Y-104382530D01*
X114597314Y-104363990D01*
X114539040Y-104263056D01*
X114524401Y-104246797D01*
X114415675Y-104126045D01*
X114415674Y-104126044D01*
X114411253Y-104121134D01*
X114312157Y-104049136D01*
X114262094Y-104012763D01*
X114262093Y-104012762D01*
X114256752Y-104008882D01*
X114250724Y-104006198D01*
X114250722Y-104006197D01*
X114088319Y-103933891D01*
X114088318Y-103933891D01*
X114082288Y-103931206D01*
X114075833Y-103929834D01*
X114075830Y-103929833D01*
X114023819Y-103918778D01*
X113990875Y-103911776D01*
X113928402Y-103878048D01*
X113894080Y-103815193D01*
X113893542Y-103810072D01*
X113834527Y-103628444D01*
X113739040Y-103463056D01*
X113706365Y-103426766D01*
X113615675Y-103326045D01*
X113615674Y-103326044D01*
X113611253Y-103321134D01*
X113456752Y-103208882D01*
X113450724Y-103206198D01*
X113450722Y-103206197D01*
X113288319Y-103133891D01*
X113288318Y-103133891D01*
X113282288Y-103131206D01*
X113188888Y-103111353D01*
X113101944Y-103092872D01*
X113101939Y-103092872D01*
X113095487Y-103091500D01*
X112904513Y-103091500D01*
X112898061Y-103092872D01*
X112898056Y-103092872D01*
X112811112Y-103111353D01*
X112717712Y-103131206D01*
X112711682Y-103133891D01*
X112711681Y-103133891D01*
X112549278Y-103206197D01*
X112549276Y-103206198D01*
X112543248Y-103208882D01*
X112388747Y-103321134D01*
X112384326Y-103326044D01*
X112384325Y-103326045D01*
X112293636Y-103426766D01*
X112233190Y-103464006D01*
X112162207Y-103462654D01*
X112106364Y-103426766D01*
X112015675Y-103326045D01*
X112015674Y-103326044D01*
X112011253Y-103321134D01*
X111856752Y-103208882D01*
X111850724Y-103206198D01*
X111850722Y-103206197D01*
X111688319Y-103133891D01*
X111688318Y-103133891D01*
X111682288Y-103131206D01*
X111588888Y-103111353D01*
X111501944Y-103092872D01*
X111501939Y-103092872D01*
X111495487Y-103091500D01*
X111304513Y-103091500D01*
X111298061Y-103092872D01*
X111298056Y-103092872D01*
X111211112Y-103111353D01*
X111117712Y-103131206D01*
X111111682Y-103133891D01*
X111111681Y-103133891D01*
X110949278Y-103206197D01*
X110949276Y-103206198D01*
X110943248Y-103208882D01*
X110788747Y-103321134D01*
X110784326Y-103326044D01*
X110784325Y-103326045D01*
X110693636Y-103426766D01*
X110660960Y-103463056D01*
X110565473Y-103628444D01*
X110506458Y-103810072D01*
X110505768Y-103816633D01*
X110505768Y-103816635D01*
X110496740Y-103902529D01*
X110486496Y-104000000D01*
X103378500Y-104000000D01*
X103378500Y-101000000D01*
X113086496Y-101000000D01*
X113087186Y-101006565D01*
X113100169Y-101130088D01*
X113106458Y-101189928D01*
X113165473Y-101371556D01*
X113260960Y-101536944D01*
X113265378Y-101541851D01*
X113265379Y-101541852D01*
X113305959Y-101586921D01*
X113388747Y-101678866D01*
X113543248Y-101791118D01*
X113549276Y-101793802D01*
X113549278Y-101793803D01*
X113708849Y-101864848D01*
X113717712Y-101868794D01*
X113811112Y-101888647D01*
X113898056Y-101907128D01*
X113898061Y-101907128D01*
X113904513Y-101908500D01*
X114095487Y-101908500D01*
X114101939Y-101907128D01*
X114101944Y-101907128D01*
X114188888Y-101888647D01*
X114282288Y-101868794D01*
X114291151Y-101864848D01*
X114450722Y-101793803D01*
X114450724Y-101793802D01*
X114456752Y-101791118D01*
X114611253Y-101678866D01*
X114694041Y-101586921D01*
X114734621Y-101541852D01*
X114734622Y-101541851D01*
X114739040Y-101536944D01*
X114834527Y-101371556D01*
X114893542Y-101189928D01*
X114899832Y-101130088D01*
X114912814Y-101006565D01*
X114913504Y-101000000D01*
X117686496Y-101000000D01*
X117687186Y-101006565D01*
X117700169Y-101130088D01*
X117706458Y-101189928D01*
X117765473Y-101371556D01*
X117860960Y-101536944D01*
X117865378Y-101541851D01*
X117865379Y-101541852D01*
X117905959Y-101586921D01*
X117988747Y-101678866D01*
X118143248Y-101791118D01*
X118149276Y-101793802D01*
X118149278Y-101793803D01*
X118308849Y-101864848D01*
X118317712Y-101868794D01*
X118411112Y-101888647D01*
X118498056Y-101907128D01*
X118498061Y-101907128D01*
X118504513Y-101908500D01*
X118695487Y-101908500D01*
X118701939Y-101907128D01*
X118701944Y-101907128D01*
X118788888Y-101888647D01*
X118882288Y-101868794D01*
X118891151Y-101864848D01*
X119050722Y-101793803D01*
X119050724Y-101793802D01*
X119056752Y-101791118D01*
X119211253Y-101678866D01*
X119294041Y-101586921D01*
X119334621Y-101541852D01*
X119334622Y-101541851D01*
X119339040Y-101536944D01*
X119434527Y-101371556D01*
X119493542Y-101189928D01*
X119499832Y-101130088D01*
X119512814Y-101006565D01*
X119513504Y-101000000D01*
X119507620Y-100944020D01*
X119494232Y-100816635D01*
X119494232Y-100816633D01*
X119493542Y-100810072D01*
X119434527Y-100628444D01*
X119428511Y-100618023D01*
X119368865Y-100514715D01*
X119339040Y-100463056D01*
X119271676Y-100388240D01*
X119215675Y-100326045D01*
X119215674Y-100326044D01*
X119211253Y-100321134D01*
X119056752Y-100208882D01*
X119050724Y-100206198D01*
X119050722Y-100206197D01*
X118888319Y-100133891D01*
X118888318Y-100133891D01*
X118882288Y-100131206D01*
X118788887Y-100111353D01*
X118701944Y-100092872D01*
X118701939Y-100092872D01*
X118695487Y-100091500D01*
X118504513Y-100091500D01*
X118498061Y-100092872D01*
X118498056Y-100092872D01*
X118411113Y-100111353D01*
X118317712Y-100131206D01*
X118311682Y-100133891D01*
X118311681Y-100133891D01*
X118149278Y-100206197D01*
X118149276Y-100206198D01*
X118143248Y-100208882D01*
X117988747Y-100321134D01*
X117984326Y-100326044D01*
X117984325Y-100326045D01*
X117928325Y-100388240D01*
X117860960Y-100463056D01*
X117831135Y-100514715D01*
X117771490Y-100618023D01*
X117765473Y-100628444D01*
X117706458Y-100810072D01*
X117705768Y-100816633D01*
X117705768Y-100816635D01*
X117692380Y-100944020D01*
X117686496Y-101000000D01*
X114913504Y-101000000D01*
X114907620Y-100944020D01*
X114894232Y-100816635D01*
X114894232Y-100816633D01*
X114893542Y-100810072D01*
X114834527Y-100628444D01*
X114828511Y-100618023D01*
X114768865Y-100514715D01*
X114739040Y-100463056D01*
X114671676Y-100388240D01*
X114615675Y-100326045D01*
X114615674Y-100326044D01*
X114611253Y-100321134D01*
X114456752Y-100208882D01*
X114450724Y-100206198D01*
X114450722Y-100206197D01*
X114288319Y-100133891D01*
X114288318Y-100133891D01*
X114282288Y-100131206D01*
X114188887Y-100111353D01*
X114101944Y-100092872D01*
X114101939Y-100092872D01*
X114095487Y-100091500D01*
X113904513Y-100091500D01*
X113898061Y-100092872D01*
X113898056Y-100092872D01*
X113811113Y-100111353D01*
X113717712Y-100131206D01*
X113711682Y-100133891D01*
X113711681Y-100133891D01*
X113549278Y-100206197D01*
X113549276Y-100206198D01*
X113543248Y-100208882D01*
X113388747Y-100321134D01*
X113384326Y-100326044D01*
X113384325Y-100326045D01*
X113328325Y-100388240D01*
X113260960Y-100463056D01*
X113231135Y-100514715D01*
X113171490Y-100618023D01*
X113165473Y-100628444D01*
X113106458Y-100810072D01*
X113105768Y-100816633D01*
X113105768Y-100816635D01*
X113092380Y-100944020D01*
X113086496Y-101000000D01*
X103378500Y-101000000D01*
X103378500Y-98171000D01*
X113086496Y-98171000D01*
X113106458Y-98360928D01*
X113165473Y-98542556D01*
X113260960Y-98707944D01*
X113388747Y-98849866D01*
X113543248Y-98962118D01*
X113549276Y-98964802D01*
X113549278Y-98964803D01*
X113711681Y-99037109D01*
X113717712Y-99039794D01*
X113811112Y-99059647D01*
X113898056Y-99078128D01*
X113898061Y-99078128D01*
X113904513Y-99079500D01*
X114095487Y-99079500D01*
X114101939Y-99078128D01*
X114101944Y-99078128D01*
X114188888Y-99059647D01*
X114282288Y-99039794D01*
X114288319Y-99037109D01*
X114450722Y-98964803D01*
X114450724Y-98964802D01*
X114456752Y-98962118D01*
X114611253Y-98849866D01*
X114739040Y-98707944D01*
X114834527Y-98542556D01*
X114893542Y-98360928D01*
X114913504Y-98171000D01*
X114893542Y-97981072D01*
X114834527Y-97799444D01*
X114739040Y-97634056D01*
X114669967Y-97557342D01*
X114615675Y-97497045D01*
X114615674Y-97497044D01*
X114611253Y-97492134D01*
X114456752Y-97379882D01*
X114450724Y-97377198D01*
X114450722Y-97377197D01*
X114288319Y-97304891D01*
X114288318Y-97304891D01*
X114282288Y-97302206D01*
X114188888Y-97282353D01*
X114101944Y-97263872D01*
X114101939Y-97263872D01*
X114095487Y-97262500D01*
X113904513Y-97262500D01*
X113898061Y-97263872D01*
X113898056Y-97263872D01*
X113811113Y-97282353D01*
X113717712Y-97302206D01*
X113711682Y-97304891D01*
X113711681Y-97304891D01*
X113549278Y-97377197D01*
X113549276Y-97377198D01*
X113543248Y-97379882D01*
X113388747Y-97492134D01*
X113384326Y-97497044D01*
X113384325Y-97497045D01*
X113330034Y-97557342D01*
X113260960Y-97634056D01*
X113165473Y-97799444D01*
X113106458Y-97981072D01*
X113086496Y-98171000D01*
X103378500Y-98171000D01*
X103378500Y-82600000D01*
X107686496Y-82600000D01*
X107706458Y-82789928D01*
X107765473Y-82971556D01*
X107860960Y-83136944D01*
X107865378Y-83141851D01*
X107865379Y-83141852D01*
X107955947Y-83242438D01*
X107988747Y-83278866D01*
X108143248Y-83391118D01*
X108149276Y-83393802D01*
X108149278Y-83393803D01*
X108311681Y-83466109D01*
X108317712Y-83468794D01*
X108411112Y-83488647D01*
X108498056Y-83507128D01*
X108498061Y-83507128D01*
X108504513Y-83508500D01*
X108695487Y-83508500D01*
X108701939Y-83507128D01*
X108701944Y-83507128D01*
X108788888Y-83488647D01*
X108882288Y-83468794D01*
X108888319Y-83466109D01*
X109050722Y-83393803D01*
X109050724Y-83393802D01*
X109056752Y-83391118D01*
X109211253Y-83278866D01*
X109244053Y-83242438D01*
X109334621Y-83141852D01*
X109334622Y-83141851D01*
X109339040Y-83136944D01*
X109434527Y-82971556D01*
X109493542Y-82789928D01*
X109513504Y-82600000D01*
X109493542Y-82410072D01*
X109434527Y-82228444D01*
X109360658Y-82100499D01*
X109343920Y-82031505D01*
X109360658Y-81974500D01*
X109431223Y-81852279D01*
X109431224Y-81852278D01*
X109434527Y-81846556D01*
X109493542Y-81664928D01*
X109508509Y-81522530D01*
X109512814Y-81481565D01*
X109513504Y-81475000D01*
X109493542Y-81285072D01*
X109434527Y-81103444D01*
X109375092Y-81000500D01*
X109358354Y-80931505D01*
X109375092Y-80874500D01*
X109431223Y-80777279D01*
X109431224Y-80777278D01*
X109434527Y-80771556D01*
X109493542Y-80589928D01*
X109513504Y-80400000D01*
X109493542Y-80210072D01*
X109434527Y-80028444D01*
X109339040Y-79863056D01*
X109211253Y-79721134D01*
X109056752Y-79608882D01*
X109050724Y-79606198D01*
X109050722Y-79606197D01*
X108888319Y-79533891D01*
X108888318Y-79533891D01*
X108882288Y-79531206D01*
X108788887Y-79511353D01*
X108701944Y-79492872D01*
X108701939Y-79492872D01*
X108695487Y-79491500D01*
X108504513Y-79491500D01*
X108498061Y-79492872D01*
X108498056Y-79492872D01*
X108411113Y-79511353D01*
X108317712Y-79531206D01*
X108311682Y-79533891D01*
X108311681Y-79533891D01*
X108149278Y-79606197D01*
X108149276Y-79606198D01*
X108143248Y-79608882D01*
X107988747Y-79721134D01*
X107860960Y-79863056D01*
X107765473Y-80028444D01*
X107706458Y-80210072D01*
X107686496Y-80400000D01*
X107706458Y-80589928D01*
X107765473Y-80771556D01*
X107768776Y-80777278D01*
X107768777Y-80777279D01*
X107824908Y-80874500D01*
X107841646Y-80943495D01*
X107824908Y-81000500D01*
X107765473Y-81103444D01*
X107706458Y-81285072D01*
X107686496Y-81475000D01*
X107687186Y-81481565D01*
X107691492Y-81522530D01*
X107706458Y-81664928D01*
X107765473Y-81846556D01*
X107768776Y-81852278D01*
X107768777Y-81852279D01*
X107839342Y-81974500D01*
X107856080Y-82043495D01*
X107839342Y-82100499D01*
X107765473Y-82228444D01*
X107706458Y-82410072D01*
X107686496Y-82600000D01*
X103378500Y-82600000D01*
X103378500Y-78200000D01*
X107686496Y-78200000D01*
X107687186Y-78206565D01*
X107702103Y-78348489D01*
X107706458Y-78389928D01*
X107765473Y-78571556D01*
X107860960Y-78736944D01*
X107865378Y-78741851D01*
X107865379Y-78741852D01*
X107978156Y-78867104D01*
X107988747Y-78878866D01*
X108087843Y-78950864D01*
X108131428Y-78982530D01*
X108143248Y-78991118D01*
X108149276Y-78993802D01*
X108149278Y-78993803D01*
X108311681Y-79066109D01*
X108317712Y-79068794D01*
X108411113Y-79088647D01*
X108498056Y-79107128D01*
X108498061Y-79107128D01*
X108504513Y-79108500D01*
X108695487Y-79108500D01*
X108701939Y-79107128D01*
X108701944Y-79107128D01*
X108788887Y-79088647D01*
X108882288Y-79068794D01*
X108888319Y-79066109D01*
X109050722Y-78993803D01*
X109050724Y-78993802D01*
X109056752Y-78991118D01*
X109068573Y-78982530D01*
X109112157Y-78950864D01*
X109211253Y-78878866D01*
X109221844Y-78867104D01*
X109334621Y-78741852D01*
X109334622Y-78741851D01*
X109339040Y-78736944D01*
X109434527Y-78571556D01*
X109493542Y-78389928D01*
X109497898Y-78348489D01*
X109512814Y-78206565D01*
X109513504Y-78200000D01*
X109512814Y-78193435D01*
X109494232Y-78016635D01*
X109494232Y-78016633D01*
X109493542Y-78010072D01*
X109434527Y-77828444D01*
X109339040Y-77663056D01*
X109341777Y-77661476D01*
X109322351Y-77607653D01*
X109338178Y-77538443D01*
X109339114Y-77536987D01*
X109339040Y-77536944D01*
X109431223Y-77377279D01*
X109431224Y-77377278D01*
X109434527Y-77371556D01*
X109493542Y-77189928D01*
X109513504Y-77000000D01*
X109494674Y-76820840D01*
X109494232Y-76816635D01*
X109494232Y-76816633D01*
X109493542Y-76810072D01*
X109434527Y-76628444D01*
X109381154Y-76535999D01*
X109364416Y-76467005D01*
X109381154Y-76410000D01*
X109431223Y-76323279D01*
X109431224Y-76323278D01*
X109434527Y-76317556D01*
X109493542Y-76135928D01*
X109497750Y-76095896D01*
X109512814Y-75952565D01*
X109513504Y-75946000D01*
X109508147Y-75895031D01*
X109494232Y-75762635D01*
X109494232Y-75762633D01*
X109493542Y-75756072D01*
X109434527Y-75574444D01*
X109419849Y-75549020D01*
X109392124Y-75501000D01*
X109375386Y-75432005D01*
X109392124Y-75375000D01*
X109431223Y-75307279D01*
X109431224Y-75307278D01*
X109434527Y-75301556D01*
X109493542Y-75119928D01*
X109513504Y-74930000D01*
X109493542Y-74740072D01*
X109434527Y-74558444D01*
X109339040Y-74393056D01*
X109242503Y-74285840D01*
X109215675Y-74256045D01*
X109215674Y-74256044D01*
X109211253Y-74251134D01*
X109056752Y-74138882D01*
X109050724Y-74136198D01*
X109050722Y-74136197D01*
X108888319Y-74063891D01*
X108888318Y-74063891D01*
X108882288Y-74061206D01*
X108760331Y-74035283D01*
X108701944Y-74022872D01*
X108701939Y-74022872D01*
X108695487Y-74021500D01*
X108504513Y-74021500D01*
X108498061Y-74022872D01*
X108498056Y-74022872D01*
X108439669Y-74035283D01*
X108317712Y-74061206D01*
X108311682Y-74063891D01*
X108311681Y-74063891D01*
X108149278Y-74136197D01*
X108149276Y-74136198D01*
X108143248Y-74138882D01*
X107988747Y-74251134D01*
X107984326Y-74256044D01*
X107984325Y-74256045D01*
X107957498Y-74285840D01*
X107860960Y-74393056D01*
X107765473Y-74558444D01*
X107706458Y-74740072D01*
X107686496Y-74930000D01*
X107706458Y-75119928D01*
X107765473Y-75301556D01*
X107768776Y-75307278D01*
X107768777Y-75307279D01*
X107807876Y-75375000D01*
X107824614Y-75443995D01*
X107807876Y-75501000D01*
X107780152Y-75549020D01*
X107765473Y-75574444D01*
X107706458Y-75756072D01*
X107705768Y-75762633D01*
X107705768Y-75762635D01*
X107691853Y-75895031D01*
X107686496Y-75946000D01*
X107687186Y-75952565D01*
X107702251Y-76095896D01*
X107706458Y-76135928D01*
X107765473Y-76317556D01*
X107768776Y-76323278D01*
X107768777Y-76323279D01*
X107818846Y-76410000D01*
X107835584Y-76478995D01*
X107818846Y-76535999D01*
X107765473Y-76628444D01*
X107706458Y-76810072D01*
X107705768Y-76816633D01*
X107705768Y-76816635D01*
X107705326Y-76820840D01*
X107686496Y-77000000D01*
X107706458Y-77189928D01*
X107765473Y-77371556D01*
X107768776Y-77377278D01*
X107768777Y-77377279D01*
X107860960Y-77536944D01*
X107858223Y-77538524D01*
X107877649Y-77592347D01*
X107861822Y-77661557D01*
X107860886Y-77663013D01*
X107860960Y-77663056D01*
X107765473Y-77828444D01*
X107706458Y-78010072D01*
X107705768Y-78016633D01*
X107705768Y-78016635D01*
X107687186Y-78193435D01*
X107686496Y-78200000D01*
X103378500Y-78200000D01*
X103378500Y-71800000D01*
X114783496Y-71800000D01*
X114784186Y-71806565D01*
X114793629Y-71896406D01*
X114803458Y-71989928D01*
X114862473Y-72171556D01*
X114957960Y-72336944D01*
X114962378Y-72341851D01*
X114962379Y-72341852D01*
X115064175Y-72454908D01*
X115085747Y-72478866D01*
X115240248Y-72591118D01*
X115246276Y-72593802D01*
X115246278Y-72593803D01*
X115408681Y-72666109D01*
X115414712Y-72668794D01*
X115508112Y-72688647D01*
X115595056Y-72707128D01*
X115595061Y-72707128D01*
X115601513Y-72708500D01*
X115792487Y-72708500D01*
X115798939Y-72707128D01*
X115798944Y-72707128D01*
X115885888Y-72688647D01*
X115979288Y-72668794D01*
X115985319Y-72666109D01*
X116147722Y-72593803D01*
X116147724Y-72593802D01*
X116153752Y-72591118D01*
X116308253Y-72478866D01*
X116329825Y-72454908D01*
X116431621Y-72341852D01*
X116431622Y-72341851D01*
X116436040Y-72336944D01*
X116531527Y-72171556D01*
X116590542Y-71989928D01*
X116600372Y-71896406D01*
X116609814Y-71806565D01*
X116610504Y-71800000D01*
X116590542Y-71610072D01*
X116531527Y-71428444D01*
X116436040Y-71263056D01*
X116426806Y-71252800D01*
X116312675Y-71126045D01*
X116312674Y-71126044D01*
X116308253Y-71121134D01*
X116153752Y-71008882D01*
X116147724Y-71006198D01*
X116147722Y-71006197D01*
X115985319Y-70933891D01*
X115985318Y-70933891D01*
X115979288Y-70931206D01*
X115872141Y-70908431D01*
X115798944Y-70892872D01*
X115798939Y-70892872D01*
X115792487Y-70891500D01*
X115601513Y-70891500D01*
X115595061Y-70892872D01*
X115595056Y-70892872D01*
X115521859Y-70908431D01*
X115414712Y-70931206D01*
X115408682Y-70933891D01*
X115408681Y-70933891D01*
X115246278Y-71006197D01*
X115246276Y-71006198D01*
X115240248Y-71008882D01*
X115085747Y-71121134D01*
X115081326Y-71126044D01*
X115081325Y-71126045D01*
X114967195Y-71252800D01*
X114957960Y-71263056D01*
X114862473Y-71428444D01*
X114803458Y-71610072D01*
X114783496Y-71800000D01*
X103378500Y-71800000D01*
X103378500Y-64758434D01*
X104636661Y-64758434D01*
X104654792Y-65116340D01*
X104655329Y-65119695D01*
X104655330Y-65119701D01*
X104710929Y-65466819D01*
X104711470Y-65470195D01*
X104806033Y-65815859D01*
X104937374Y-66149288D01*
X104968151Y-66207909D01*
X105095988Y-66451403D01*
X105103957Y-66466582D01*
X105105858Y-66469411D01*
X105105864Y-66469421D01*
X105237685Y-66665590D01*
X105303834Y-66764029D01*
X105534665Y-67038150D01*
X105793751Y-67285738D01*
X106078061Y-67503897D01*
X106110056Y-67523350D01*
X106381355Y-67688303D01*
X106381360Y-67688306D01*
X106384270Y-67690075D01*
X106387358Y-67691521D01*
X106387357Y-67691521D01*
X106705710Y-67840649D01*
X106705720Y-67840653D01*
X106708794Y-67842093D01*
X106712012Y-67843195D01*
X106712015Y-67843196D01*
X107044615Y-67957071D01*
X107044623Y-67957073D01*
X107047838Y-67958174D01*
X107397435Y-68036959D01*
X107449728Y-68042917D01*
X107750114Y-68077142D01*
X107750122Y-68077142D01*
X107753497Y-68077527D01*
X107756901Y-68077545D01*
X107756904Y-68077545D01*
X107951227Y-68078562D01*
X108111857Y-68079403D01*
X108115243Y-68079053D01*
X108115245Y-68079053D01*
X108464932Y-68042917D01*
X108464941Y-68042916D01*
X108468324Y-68042566D01*
X108471657Y-68041852D01*
X108471660Y-68041851D01*
X108759496Y-67980144D01*
X108818727Y-67967446D01*
X109158968Y-67854922D01*
X109485066Y-67706311D01*
X109684427Y-67587939D01*
X109790262Y-67525099D01*
X109790267Y-67525096D01*
X109793207Y-67523350D01*
X110079786Y-67308180D01*
X110341451Y-67063319D01*
X110575140Y-66791630D01*
X110681844Y-66636375D01*
X110776190Y-66499101D01*
X110776195Y-66499094D01*
X110778120Y-66496292D01*
X110779732Y-66493298D01*
X110779737Y-66493290D01*
X110946395Y-66183772D01*
X110948017Y-66180760D01*
X111037557Y-65960248D01*
X111081562Y-65851877D01*
X111081564Y-65851872D01*
X111082842Y-65848724D01*
X111093142Y-65812568D01*
X111138934Y-65651812D01*
X111181020Y-65504070D01*
X111236880Y-65177275D01*
X111240829Y-65154175D01*
X111240829Y-65154173D01*
X111241401Y-65150828D01*
X111243511Y-65116340D01*
X111263168Y-64794928D01*
X111263278Y-64793131D01*
X111263359Y-64770000D01*
X111243979Y-64412159D01*
X111186066Y-64058505D01*
X111090297Y-63713173D01*
X111088172Y-63707831D01*
X110959052Y-63383369D01*
X110957793Y-63380205D01*
X110922367Y-63313297D01*
X110821681Y-63123134D01*
X129939500Y-63123134D01*
X129946255Y-63185316D01*
X129997385Y-63321705D01*
X130084739Y-63438261D01*
X130201295Y-63525615D01*
X130209704Y-63528767D01*
X130209705Y-63528768D01*
X130318960Y-63569726D01*
X130375725Y-63612367D01*
X130400425Y-63678929D01*
X130385218Y-63748278D01*
X130365825Y-63774759D01*
X130242590Y-63903717D01*
X130236104Y-63911727D01*
X130116098Y-64087649D01*
X130111000Y-64096623D01*
X130021338Y-64289783D01*
X130017775Y-64299470D01*
X129962389Y-64499183D01*
X129963912Y-64507607D01*
X129976292Y-64511000D01*
X135156344Y-64511000D01*
X135169875Y-64507027D01*
X135171180Y-64497947D01*
X135129214Y-64330875D01*
X135125894Y-64321124D01*
X135040972Y-64125814D01*
X135036105Y-64116739D01*
X134920426Y-63937926D01*
X134914136Y-63929757D01*
X134770806Y-63772240D01*
X134763273Y-63765215D01*
X134596139Y-63633222D01*
X134587556Y-63627520D01*
X134550602Y-63607120D01*
X134500631Y-63556687D01*
X134485859Y-63487245D01*
X134510975Y-63420839D01*
X134538327Y-63394232D01*
X134576910Y-63366711D01*
X134717860Y-63266173D01*
X134876096Y-63108489D01*
X135006453Y-62927077D01*
X135084298Y-62769570D01*
X135103136Y-62731453D01*
X135103137Y-62731451D01*
X135105430Y-62726811D01*
X135170370Y-62513069D01*
X135199529Y-62291590D01*
X135199611Y-62288240D01*
X135201074Y-62228365D01*
X135201074Y-62228361D01*
X135201156Y-62225000D01*
X135182852Y-62002361D01*
X135128431Y-61785702D01*
X135039354Y-61580840D01*
X134987546Y-61500757D01*
X134920822Y-61397617D01*
X134920820Y-61397614D01*
X134918014Y-61393277D01*
X134767670Y-61228051D01*
X134763619Y-61224852D01*
X134763615Y-61224848D01*
X134596414Y-61092800D01*
X134596410Y-61092798D01*
X134592359Y-61089598D01*
X134396789Y-60981638D01*
X134391920Y-60979914D01*
X134391916Y-60979912D01*
X134191087Y-60908795D01*
X134191083Y-60908794D01*
X134186212Y-60907069D01*
X134181119Y-60906162D01*
X134181116Y-60906161D01*
X133971373Y-60868800D01*
X133971367Y-60868799D01*
X133966284Y-60867894D01*
X133892452Y-60866992D01*
X133748081Y-60865228D01*
X133748079Y-60865228D01*
X133742911Y-60865165D01*
X133522091Y-60898955D01*
X133309756Y-60968357D01*
X133111607Y-61071507D01*
X133107474Y-61074610D01*
X133107471Y-61074612D01*
X132937100Y-61202530D01*
X132932965Y-61205635D01*
X132876537Y-61264684D01*
X132852283Y-61290064D01*
X132790759Y-61325494D01*
X132719846Y-61322037D01*
X132662060Y-61280791D01*
X132643207Y-61247243D01*
X132601767Y-61136703D01*
X132598615Y-61128295D01*
X132511261Y-61011739D01*
X132394705Y-60924385D01*
X132258316Y-60873255D01*
X132196134Y-60866500D01*
X130399866Y-60866500D01*
X130337684Y-60873255D01*
X130201295Y-60924385D01*
X130084739Y-61011739D01*
X129997385Y-61128295D01*
X129946255Y-61264684D01*
X129939500Y-61326866D01*
X129939500Y-63123134D01*
X110821681Y-63123134D01*
X110791702Y-63066513D01*
X110791698Y-63066506D01*
X110790103Y-63063494D01*
X110589190Y-62766746D01*
X110559260Y-62731453D01*
X110493506Y-62653919D01*
X110357403Y-62493432D01*
X110097454Y-62246750D01*
X109812384Y-62029585D01*
X109809472Y-62027828D01*
X109809467Y-62027825D01*
X109508443Y-61846236D01*
X109508437Y-61846233D01*
X109505528Y-61844478D01*
X109180475Y-61693593D01*
X108861393Y-61585590D01*
X108844255Y-61579789D01*
X108844250Y-61579788D01*
X108841028Y-61578697D01*
X108642681Y-61534724D01*
X108494493Y-61501871D01*
X108494487Y-61501870D01*
X108491158Y-61501132D01*
X108487769Y-61500758D01*
X108487764Y-61500757D01*
X108138338Y-61462180D01*
X108138333Y-61462180D01*
X108134957Y-61461807D01*
X108131558Y-61461801D01*
X108131557Y-61461801D01*
X107962080Y-61461505D01*
X107776592Y-61461182D01*
X107663413Y-61473277D01*
X107423639Y-61498901D01*
X107423631Y-61498902D01*
X107420256Y-61499263D01*
X107070117Y-61575606D01*
X106730271Y-61689317D01*
X106727178Y-61690739D01*
X106727177Y-61690740D01*
X106720974Y-61693593D01*
X106404694Y-61839066D01*
X106401760Y-61840822D01*
X106401758Y-61840823D01*
X106123224Y-62007522D01*
X106097193Y-62023101D01*
X106094467Y-62025163D01*
X106094465Y-62025164D01*
X106088620Y-62029585D01*
X105811367Y-62239270D01*
X105550559Y-62485043D01*
X105317819Y-62757546D01*
X105315900Y-62760358D01*
X105315897Y-62760363D01*
X105222624Y-62897097D01*
X105115871Y-63053591D01*
X104947077Y-63369714D01*
X104813411Y-63702218D01*
X104812491Y-63705492D01*
X104812489Y-63705497D01*
X104754521Y-63911727D01*
X104716437Y-64047213D01*
X104657290Y-64400663D01*
X104636661Y-64758434D01*
X103378500Y-64758434D01*
X103378500Y-60324500D01*
X103398502Y-60256379D01*
X103452158Y-60209886D01*
X103504500Y-60198500D01*
X135890500Y-60198500D01*
X135958621Y-60218502D01*
G37*
%TD.AperFunction*%
%TD*%
M02*
