%TF.GenerationSoftware,KiCad,Pcbnew,(6.0.4)*%
%TF.CreationDate,2022-04-07T10:44:55+02:00*%
%TF.ProjectId,srambrd,7372616d-6272-4642-9e6b-696361645f70,rev?*%
%TF.SameCoordinates,Original*%
%TF.FileFunction,Copper,L2,Bot*%
%TF.FilePolarity,Positive*%
%FSLAX46Y46*%
G04 Gerber Fmt 4.6, Leading zero omitted, Abs format (unit mm)*
G04 Created by KiCad (PCBNEW (6.0.4)) date 2022-04-07 10:44:55*
%MOMM*%
%LPD*%
G01*
G04 APERTURE LIST*
%TA.AperFunction,ComponentPad*%
%ADD10R,1.700000X1.700000*%
%TD*%
%TA.AperFunction,ComponentPad*%
%ADD11O,1.700000X1.700000*%
%TD*%
%TA.AperFunction,ComponentPad*%
%ADD12C,5.600000*%
%TD*%
%TA.AperFunction,ViaPad*%
%ADD13C,0.800000*%
%TD*%
%TA.AperFunction,Conductor*%
%ADD14C,0.400000*%
%TD*%
G04 APERTURE END LIST*
D10*
%TO.P,J3,1,Pin_1*%
%TO.N,GND*%
X144780000Y-74930000D03*
D11*
%TO.P,J3,2,Pin_2*%
%TO.N,RX*%
X142240000Y-74930000D03*
%TO.P,J3,3,Pin_3*%
%TO.N,TX*%
X139700000Y-74930000D03*
%TD*%
D12*
%TO.P,H1,1*%
%TO.N,N/C*%
X107950000Y-64770000D03*
%TD*%
D10*
%TO.P,J4,1,Pin_1*%
%TO.N,GND*%
X144780000Y-121013269D03*
D11*
%TO.P,J4,2,Pin_2*%
%TO.N,AUDIO_L*%
X142240000Y-121013269D03*
%TO.P,J4,3,Pin_3*%
%TO.N,AUDIO_R*%
X139700000Y-121013269D03*
%TD*%
D12*
%TO.P,H2,1*%
%TO.N,N/C*%
X107950000Y-138430000D03*
%TD*%
D10*
%TO.P,J1,1,Pin_1*%
%TO.N,GND*%
X131298000Y-62225000D03*
D11*
%TO.P,J1,2,Pin_2*%
X133838000Y-62225000D03*
%TO.P,J1,3,Pin_3*%
%TO.N,3v3*%
X131298000Y-64765000D03*
%TO.P,J1,4,Pin_4*%
X133838000Y-64765000D03*
%TO.P,J1,5,Pin_5*%
%TO.N,GND*%
X131298000Y-67305000D03*
%TO.P,J1,6,Pin_6*%
X133838000Y-67305000D03*
%TO.P,J1,7,Pin_7*%
%TO.N,SD_DAT3*%
X131298000Y-69845000D03*
%TO.P,J1,8,Pin_8*%
%TO.N,SD_DAT2*%
X133838000Y-69845000D03*
%TO.P,J1,9,Pin_9*%
%TO.N,SD_CLK*%
X131298000Y-72385000D03*
%TO.P,J1,10,Pin_10*%
%TO.N,SD_CMD*%
X133838000Y-72385000D03*
%TO.P,J1,11,Pin_11*%
%TO.N,SD_DAT1*%
X131298000Y-74925000D03*
%TO.P,J1,12,Pin_12*%
%TO.N,SD_DAT0*%
X133838000Y-74925000D03*
%TO.P,J1,13,Pin_13*%
%TO.N,TX*%
X131298000Y-77465000D03*
%TO.P,J1,14,Pin_14*%
%TO.N,RX*%
X133838000Y-77465000D03*
%TO.P,J1,15,Pin_15*%
%TO.N,unconnected-(J1-Pad15)*%
X131298000Y-80005000D03*
%TO.P,J1,16,Pin_16*%
%TO.N,PWM_L*%
X133838000Y-80005000D03*
%TO.P,J1,17,Pin_17*%
%TO.N,unconnected-(J1-Pad17)*%
X131298000Y-82545000D03*
%TO.P,J1,18,Pin_18*%
%TO.N,PWM_R*%
X133838000Y-82545000D03*
%TO.P,J1,19,Pin_19*%
%TO.N,unconnected-(J1-Pad19)*%
X131298000Y-85085000D03*
%TO.P,J1,20,Pin_20*%
%TO.N,unconnected-(J1-Pad20)*%
X133838000Y-85085000D03*
%TO.P,J1,21,Pin_21*%
%TO.N,A9*%
X131298000Y-87625000D03*
%TO.P,J1,22,Pin_22*%
%TO.N,unconnected-(J1-Pad22)*%
X133838000Y-87625000D03*
%TO.P,J1,23,Pin_23*%
%TO.N,A7*%
X131298000Y-90165000D03*
%TO.P,J1,24,Pin_24*%
%TO.N,A8*%
X133838000Y-90165000D03*
%TO.P,J1,25,Pin_25*%
%TO.N,A5*%
X131298000Y-92705000D03*
%TO.P,J1,26,Pin_26*%
%TO.N,A6*%
X133838000Y-92705000D03*
%TO.P,J1,27,Pin_27*%
%TO.N,CE_N*%
X131298000Y-95245000D03*
%TO.P,J1,28,Pin_28*%
%TO.N,WE_N*%
X133838000Y-95245000D03*
%TO.P,J1,29,Pin_29*%
%TO.N,A3*%
X131298000Y-97785000D03*
%TO.P,J1,30,Pin_30*%
%TO.N,A4*%
X133838000Y-97785000D03*
%TO.P,J1,31,Pin_31*%
%TO.N,A1*%
X131298000Y-100325000D03*
%TO.P,J1,32,Pin_32*%
%TO.N,A2*%
X133838000Y-100325000D03*
%TO.P,J1,33,Pin_33*%
%TO.N,D0*%
X131298000Y-102865000D03*
%TO.P,J1,34,Pin_34*%
%TO.N,A0*%
X133838000Y-102865000D03*
%TO.P,J1,35,Pin_35*%
%TO.N,D2*%
X131298000Y-105405000D03*
%TO.P,J1,36,Pin_36*%
%TO.N,D1*%
X133838000Y-105405000D03*
%TO.P,J1,37,Pin_37*%
%TO.N,D4*%
X131298000Y-107945000D03*
%TO.P,J1,38,Pin_38*%
%TO.N,D3*%
X133838000Y-107945000D03*
%TO.P,J1,39,Pin_39*%
%TO.N,D6*%
X131298000Y-110485000D03*
%TO.P,J1,40,Pin_40*%
%TO.N,D5*%
X133838000Y-110485000D03*
%TO.P,J1,41,Pin_41*%
%TO.N,D8*%
X131298000Y-113025000D03*
%TO.P,J1,42,Pin_42*%
%TO.N,D7*%
X133838000Y-113025000D03*
%TO.P,J1,43,Pin_43*%
%TO.N,A17*%
X131298000Y-115565000D03*
%TO.P,J1,44,Pin_44*%
%TO.N,D9*%
X133838000Y-115565000D03*
%TO.P,J1,45,Pin_45*%
%TO.N,A15*%
X131298000Y-118105000D03*
%TO.P,J1,46,Pin_46*%
%TO.N,A16*%
X133838000Y-118105000D03*
%TO.P,J1,47,Pin_47*%
%TO.N,UB_N*%
X131298000Y-120645000D03*
%TO.P,J1,48,Pin_48*%
%TO.N,OE_N*%
X133838000Y-120645000D03*
%TO.P,J1,49,Pin_49*%
%TO.N,D15*%
X131298000Y-123185000D03*
%TO.P,J1,50,Pin_50*%
%TO.N,LB_N*%
X133838000Y-123185000D03*
%TO.P,J1,51,Pin_51*%
%TO.N,D13*%
X131298000Y-125725000D03*
%TO.P,J1,52,Pin_52*%
%TO.N,D14*%
X133838000Y-125725000D03*
%TO.P,J1,53,Pin_53*%
%TO.N,D11*%
X131298000Y-128265000D03*
%TO.P,J1,54,Pin_54*%
%TO.N,D12*%
X133838000Y-128265000D03*
%TO.P,J1,55,Pin_55*%
%TO.N,A14*%
X131298000Y-130805000D03*
%TO.P,J1,56,Pin_56*%
%TO.N,D10*%
X133838000Y-130805000D03*
%TO.P,J1,57,Pin_57*%
%TO.N,A12*%
X131298000Y-133345000D03*
%TO.P,J1,58,Pin_58*%
%TO.N,A13*%
X133838000Y-133345000D03*
%TO.P,J1,59,Pin_59*%
%TO.N,A10*%
X131298000Y-135885000D03*
%TO.P,J1,60,Pin_60*%
%TO.N,A11*%
X133838000Y-135885000D03*
%TO.P,J1,61,Pin_61*%
%TO.N,GND*%
X131298000Y-138425000D03*
%TO.P,J1,62,Pin_62*%
X133838000Y-138425000D03*
%TO.P,J1,63,Pin_63*%
%TO.N,unconnected-(J1-Pad63)*%
X131298000Y-140965000D03*
%TO.P,J1,64,Pin_64*%
%TO.N,unconnected-(J1-Pad64)*%
X133838000Y-140965000D03*
%TD*%
D13*
%TO.N,GND*%
X120015000Y-81658768D03*
X127635000Y-83820000D03*
X137160000Y-107315000D03*
X117475000Y-121285000D03*
X105410000Y-99695000D03*
X123190000Y-111760000D03*
X117475000Y-122555000D03*
X120015000Y-71755000D03*
X118745000Y-137795000D03*
X114935000Y-95885000D03*
X105410000Y-102235000D03*
X122555000Y-137795000D03*
X121285000Y-111760000D03*
X137160000Y-95250000D03*
X121285000Y-95885000D03*
X105410000Y-104775000D03*
X114935000Y-137795000D03*
X113869885Y-117563638D03*
%TO.N,3v3*%
X117475000Y-104775000D03*
X127632501Y-64767501D03*
X121935299Y-79375000D03*
X116205000Y-111760000D03*
%TD*%
D14*
%TO.N,3v3*%
X121920000Y-72390000D02*
X127632501Y-66677499D01*
X117475000Y-104775000D02*
X116205000Y-104775000D01*
X127635000Y-64765000D02*
X131298000Y-64765000D01*
X116205000Y-111760000D02*
X116205000Y-104775000D01*
X127632501Y-66677499D02*
X127632501Y-64767501D01*
X121920000Y-92017273D02*
X121920000Y-72390000D01*
X116205000Y-104775000D02*
X116205000Y-97790000D01*
X127632501Y-64767501D02*
X127635000Y-64765000D01*
X116205000Y-97790000D02*
X121920000Y-92017273D01*
%TD*%
%TA.AperFunction,Conductor*%
%TO.N,GND*%
G36*
X135958621Y-60218502D02*
G01*
X136005114Y-60272158D01*
X136016500Y-60324500D01*
X136016500Y-70476377D01*
X136016498Y-70477147D01*
X136016024Y-70554721D01*
X136018491Y-70563352D01*
X136024150Y-70583153D01*
X136027728Y-70599915D01*
X136031920Y-70629187D01*
X136035634Y-70637355D01*
X136035634Y-70637356D01*
X136042548Y-70652562D01*
X136048996Y-70670086D01*
X136056051Y-70694771D01*
X136060843Y-70702365D01*
X136060844Y-70702368D01*
X136071830Y-70719780D01*
X136079969Y-70734863D01*
X136092208Y-70761782D01*
X136098069Y-70768584D01*
X136108970Y-70781235D01*
X136120073Y-70796239D01*
X136133776Y-70817958D01*
X136140501Y-70823897D01*
X136140504Y-70823901D01*
X136155938Y-70837532D01*
X136167982Y-70849724D01*
X136181427Y-70865327D01*
X136181430Y-70865329D01*
X136187287Y-70872127D01*
X136194816Y-70877007D01*
X136194817Y-70877008D01*
X136208835Y-70886094D01*
X136223709Y-70897385D01*
X136236217Y-70908431D01*
X136242951Y-70914378D01*
X136269711Y-70926942D01*
X136284691Y-70935263D01*
X136301983Y-70946471D01*
X136301988Y-70946473D01*
X136309515Y-70951352D01*
X136318108Y-70953922D01*
X136318113Y-70953924D01*
X136334120Y-70958711D01*
X136351564Y-70965372D01*
X136366676Y-70972467D01*
X136366678Y-70972468D01*
X136374800Y-70976281D01*
X136383667Y-70977662D01*
X136383668Y-70977662D01*
X136393310Y-70979163D01*
X136404017Y-70980830D01*
X136420732Y-70984613D01*
X136440466Y-70990515D01*
X136440472Y-70990516D01*
X136449066Y-70993086D01*
X136458037Y-70993141D01*
X136458038Y-70993141D01*
X136468097Y-70993202D01*
X136483506Y-70993296D01*
X136484289Y-70993329D01*
X136485386Y-70993500D01*
X136516377Y-70993500D01*
X136517147Y-70993502D01*
X136590785Y-70993952D01*
X136590786Y-70993952D01*
X136594721Y-70993976D01*
X136596065Y-70993592D01*
X136597410Y-70993500D01*
X147955500Y-70993500D01*
X148023621Y-71013502D01*
X148070114Y-71067158D01*
X148081500Y-71119500D01*
X148081500Y-125095500D01*
X148061498Y-125163621D01*
X148007842Y-125210114D01*
X147955500Y-125221500D01*
X136533623Y-125221500D01*
X136532853Y-125221498D01*
X136532037Y-125221493D01*
X136455279Y-125221024D01*
X136432918Y-125227415D01*
X136426847Y-125229150D01*
X136410085Y-125232728D01*
X136380813Y-125236920D01*
X136372645Y-125240634D01*
X136372644Y-125240634D01*
X136357438Y-125247548D01*
X136339914Y-125253996D01*
X136315229Y-125261051D01*
X136307635Y-125265843D01*
X136307632Y-125265844D01*
X136290220Y-125276830D01*
X136275137Y-125284969D01*
X136248218Y-125297208D01*
X136241416Y-125303069D01*
X136228765Y-125313970D01*
X136213761Y-125325073D01*
X136192042Y-125338776D01*
X136186103Y-125345501D01*
X136186099Y-125345504D01*
X136172468Y-125360938D01*
X136160276Y-125372982D01*
X136144673Y-125386427D01*
X136144671Y-125386430D01*
X136137873Y-125392287D01*
X136132993Y-125399816D01*
X136132992Y-125399817D01*
X136123906Y-125413835D01*
X136112615Y-125428709D01*
X136101569Y-125441217D01*
X136095622Y-125447951D01*
X136087811Y-125464588D01*
X136083058Y-125474711D01*
X136074737Y-125489691D01*
X136063529Y-125506983D01*
X136063527Y-125506988D01*
X136058648Y-125514515D01*
X136056078Y-125523108D01*
X136056076Y-125523113D01*
X136051289Y-125539120D01*
X136044628Y-125556564D01*
X136033719Y-125579800D01*
X136032338Y-125588667D01*
X136032338Y-125588668D01*
X136029170Y-125609015D01*
X136025387Y-125625732D01*
X136019485Y-125645466D01*
X136019484Y-125645472D01*
X136016914Y-125654066D01*
X136016859Y-125663037D01*
X136016859Y-125663038D01*
X136016704Y-125688497D01*
X136016671Y-125689289D01*
X136016500Y-125690386D01*
X136016500Y-125721377D01*
X136016498Y-125722147D01*
X136016024Y-125799721D01*
X136016408Y-125801065D01*
X136016500Y-125802410D01*
X136016500Y-142875500D01*
X135996498Y-142943621D01*
X135942842Y-142990114D01*
X135890500Y-143001500D01*
X103504500Y-143001500D01*
X103436379Y-142981498D01*
X103389886Y-142927842D01*
X103378500Y-142875500D01*
X103378500Y-138418434D01*
X104636661Y-138418434D01*
X104654792Y-138776340D01*
X104655329Y-138779695D01*
X104655330Y-138779701D01*
X104710929Y-139126819D01*
X104711470Y-139130195D01*
X104806033Y-139475859D01*
X104937374Y-139809288D01*
X104968151Y-139867909D01*
X105095988Y-140111403D01*
X105103957Y-140126582D01*
X105105858Y-140129411D01*
X105105864Y-140129421D01*
X105237685Y-140325590D01*
X105303834Y-140424029D01*
X105534665Y-140698150D01*
X105793751Y-140945738D01*
X106078061Y-141163897D01*
X106110056Y-141183350D01*
X106381355Y-141348303D01*
X106381360Y-141348306D01*
X106384270Y-141350075D01*
X106387358Y-141351521D01*
X106387357Y-141351521D01*
X106705710Y-141500649D01*
X106705720Y-141500653D01*
X106708794Y-141502093D01*
X106712012Y-141503195D01*
X106712015Y-141503196D01*
X107044615Y-141617071D01*
X107044623Y-141617073D01*
X107047838Y-141618174D01*
X107397435Y-141696959D01*
X107478404Y-141706184D01*
X107750114Y-141737142D01*
X107750122Y-141737142D01*
X107753497Y-141737527D01*
X107756901Y-141737545D01*
X107756904Y-141737545D01*
X107951227Y-141738562D01*
X108111857Y-141739403D01*
X108115243Y-141739053D01*
X108115245Y-141739053D01*
X108464932Y-141702917D01*
X108464941Y-141702916D01*
X108468324Y-141702566D01*
X108471657Y-141701852D01*
X108471660Y-141701851D01*
X108598209Y-141674721D01*
X113156024Y-141674721D01*
X113158491Y-141683352D01*
X113164150Y-141703153D01*
X113167728Y-141719915D01*
X113171920Y-141749187D01*
X113175634Y-141757355D01*
X113175634Y-141757356D01*
X113182548Y-141772562D01*
X113188996Y-141790086D01*
X113196051Y-141814771D01*
X113200843Y-141822365D01*
X113200844Y-141822368D01*
X113211830Y-141839780D01*
X113219969Y-141854863D01*
X113232208Y-141881782D01*
X113238069Y-141888584D01*
X113248970Y-141901235D01*
X113260073Y-141916239D01*
X113273776Y-141937958D01*
X113280501Y-141943897D01*
X113280504Y-141943901D01*
X113295938Y-141957532D01*
X113307982Y-141969724D01*
X113321427Y-141985327D01*
X113321430Y-141985329D01*
X113327287Y-141992127D01*
X113334816Y-141997007D01*
X113334817Y-141997008D01*
X113348835Y-142006094D01*
X113363709Y-142017385D01*
X113376217Y-142028431D01*
X113382951Y-142034378D01*
X113409711Y-142046942D01*
X113424691Y-142055263D01*
X113441983Y-142066471D01*
X113441988Y-142066473D01*
X113449515Y-142071352D01*
X113458108Y-142073922D01*
X113458113Y-142073924D01*
X113474120Y-142078711D01*
X113491564Y-142085372D01*
X113506676Y-142092467D01*
X113506678Y-142092468D01*
X113514800Y-142096281D01*
X113523667Y-142097662D01*
X113523668Y-142097662D01*
X113526353Y-142098080D01*
X113544017Y-142100830D01*
X113560732Y-142104613D01*
X113580466Y-142110515D01*
X113580472Y-142110516D01*
X113589066Y-142113086D01*
X113598037Y-142113141D01*
X113598038Y-142113141D01*
X113608097Y-142113202D01*
X113623506Y-142113296D01*
X113624289Y-142113329D01*
X113625386Y-142113500D01*
X113656377Y-142113500D01*
X113657147Y-142113502D01*
X113730785Y-142113952D01*
X113730786Y-142113952D01*
X113734721Y-142113976D01*
X113736065Y-142113592D01*
X113737410Y-142113500D01*
X122546377Y-142113500D01*
X122547148Y-142113502D01*
X122624721Y-142113976D01*
X122653152Y-142105850D01*
X122669915Y-142102272D01*
X122670753Y-142102152D01*
X122699187Y-142098080D01*
X122722564Y-142087451D01*
X122740087Y-142081004D01*
X122764771Y-142073949D01*
X122772365Y-142069157D01*
X122772368Y-142069156D01*
X122789780Y-142058170D01*
X122804865Y-142050030D01*
X122831782Y-142037792D01*
X122851235Y-142021030D01*
X122866239Y-142009927D01*
X122887958Y-141996224D01*
X122893897Y-141989499D01*
X122893901Y-141989496D01*
X122907532Y-141974062D01*
X122919724Y-141962018D01*
X122935327Y-141948573D01*
X122935329Y-141948570D01*
X122942127Y-141942713D01*
X122947107Y-141935031D01*
X122956094Y-141921165D01*
X122967385Y-141906291D01*
X122978431Y-141893783D01*
X122978432Y-141893782D01*
X122984378Y-141887049D01*
X122996943Y-141860287D01*
X123005263Y-141845309D01*
X123016471Y-141828017D01*
X123016473Y-141828012D01*
X123021352Y-141820485D01*
X123023922Y-141811892D01*
X123023924Y-141811887D01*
X123028711Y-141795880D01*
X123035372Y-141778436D01*
X123042467Y-141763324D01*
X123042468Y-141763322D01*
X123046281Y-141755200D01*
X123050830Y-141725983D01*
X123054613Y-141709268D01*
X123060515Y-141689534D01*
X123060516Y-141689528D01*
X123063086Y-141680934D01*
X123063296Y-141646494D01*
X123063329Y-141645711D01*
X123063500Y-141644614D01*
X123063500Y-141613623D01*
X123063502Y-141612853D01*
X123063952Y-141539215D01*
X123063952Y-141539214D01*
X123063976Y-141535279D01*
X123063592Y-141533935D01*
X123063500Y-141532590D01*
X123063500Y-140931695D01*
X129935251Y-140931695D01*
X129935548Y-140936848D01*
X129935548Y-140936851D01*
X129941011Y-141031590D01*
X129948110Y-141154715D01*
X129949247Y-141159761D01*
X129949248Y-141159767D01*
X129949710Y-141161816D01*
X129997222Y-141372639D01*
X130081266Y-141579616D01*
X130119263Y-141641622D01*
X130195291Y-141765688D01*
X130197987Y-141770088D01*
X130344250Y-141938938D01*
X130516126Y-142081632D01*
X130709000Y-142194338D01*
X130917692Y-142274030D01*
X130922760Y-142275061D01*
X130922763Y-142275062D01*
X131030017Y-142296883D01*
X131136597Y-142318567D01*
X131141772Y-142318757D01*
X131141774Y-142318757D01*
X131354673Y-142326564D01*
X131354677Y-142326564D01*
X131359837Y-142326753D01*
X131364957Y-142326097D01*
X131364959Y-142326097D01*
X131576288Y-142299025D01*
X131576289Y-142299025D01*
X131581416Y-142298368D01*
X131586366Y-142296883D01*
X131790429Y-142235661D01*
X131790434Y-142235659D01*
X131795384Y-142234174D01*
X131995994Y-142135896D01*
X132177860Y-142006173D01*
X132194596Y-141989496D01*
X132271049Y-141913309D01*
X132336096Y-141848489D01*
X132384531Y-141781085D01*
X132466453Y-141667077D01*
X132467776Y-141668028D01*
X132514645Y-141624857D01*
X132584580Y-141612625D01*
X132650026Y-141640144D01*
X132677875Y-141671994D01*
X132684835Y-141683352D01*
X132737987Y-141770088D01*
X132884250Y-141938938D01*
X133056126Y-142081632D01*
X133249000Y-142194338D01*
X133457692Y-142274030D01*
X133462760Y-142275061D01*
X133462763Y-142275062D01*
X133570017Y-142296883D01*
X133676597Y-142318567D01*
X133681772Y-142318757D01*
X133681774Y-142318757D01*
X133894673Y-142326564D01*
X133894677Y-142326564D01*
X133899837Y-142326753D01*
X133904957Y-142326097D01*
X133904959Y-142326097D01*
X134116288Y-142299025D01*
X134116289Y-142299025D01*
X134121416Y-142298368D01*
X134126366Y-142296883D01*
X134330429Y-142235661D01*
X134330434Y-142235659D01*
X134335384Y-142234174D01*
X134535994Y-142135896D01*
X134717860Y-142006173D01*
X134734596Y-141989496D01*
X134811049Y-141913309D01*
X134876096Y-141848489D01*
X134924531Y-141781085D01*
X135003435Y-141671277D01*
X135006453Y-141667077D01*
X135016622Y-141646503D01*
X135103136Y-141471453D01*
X135103137Y-141471451D01*
X135105430Y-141466811D01*
X135170370Y-141253069D01*
X135199529Y-141031590D01*
X135199611Y-141028240D01*
X135201074Y-140968365D01*
X135201074Y-140968361D01*
X135201156Y-140965000D01*
X135182852Y-140742361D01*
X135128431Y-140525702D01*
X135039354Y-140320840D01*
X134966678Y-140208500D01*
X134920822Y-140137617D01*
X134920820Y-140137614D01*
X134918014Y-140133277D01*
X134767670Y-139968051D01*
X134763619Y-139964852D01*
X134763615Y-139964848D01*
X134596414Y-139832800D01*
X134596410Y-139832798D01*
X134592359Y-139829598D01*
X134550569Y-139806529D01*
X134500598Y-139756097D01*
X134485826Y-139686654D01*
X134510942Y-139620248D01*
X134538294Y-139593641D01*
X134713328Y-139468792D01*
X134721200Y-139462139D01*
X134872052Y-139311812D01*
X134878730Y-139303965D01*
X135003003Y-139131020D01*
X135008313Y-139122183D01*
X135102670Y-138931267D01*
X135106469Y-138921672D01*
X135168377Y-138717910D01*
X135170555Y-138707837D01*
X135171986Y-138696962D01*
X135169775Y-138682778D01*
X135156617Y-138679000D01*
X129981225Y-138679000D01*
X129967694Y-138682973D01*
X129966257Y-138692966D01*
X129996565Y-138827446D01*
X129999645Y-138837275D01*
X130079770Y-139034603D01*
X130084413Y-139043794D01*
X130195694Y-139225388D01*
X130201777Y-139233699D01*
X130341213Y-139394667D01*
X130348580Y-139401883D01*
X130512434Y-139537916D01*
X130520881Y-139543831D01*
X130589969Y-139584203D01*
X130638693Y-139635842D01*
X130651764Y-139705625D01*
X130625033Y-139771396D01*
X130584584Y-139804752D01*
X130571607Y-139811507D01*
X130567474Y-139814610D01*
X130567471Y-139814612D01*
X130397100Y-139942530D01*
X130392965Y-139945635D01*
X130238629Y-140107138D01*
X130235720Y-140111403D01*
X130235714Y-140111411D01*
X130223404Y-140129457D01*
X130112743Y-140291680D01*
X130097003Y-140325590D01*
X130037296Y-140454218D01*
X130018688Y-140494305D01*
X129958989Y-140709570D01*
X129935251Y-140931695D01*
X123063500Y-140931695D01*
X123063500Y-139708616D01*
X123063502Y-139707846D01*
X123063603Y-139691377D01*
X123063976Y-139630279D01*
X123055850Y-139601847D01*
X123052272Y-139585085D01*
X123049352Y-139564698D01*
X123048080Y-139555813D01*
X123037451Y-139532436D01*
X123031004Y-139514913D01*
X123026416Y-139498862D01*
X123023949Y-139490229D01*
X123019156Y-139482632D01*
X123008170Y-139465220D01*
X123000030Y-139450135D01*
X122997564Y-139444711D01*
X122987792Y-139423218D01*
X122971030Y-139403765D01*
X122959927Y-139388761D01*
X122946224Y-139367042D01*
X122939499Y-139361103D01*
X122939496Y-139361099D01*
X122924062Y-139347468D01*
X122912018Y-139335276D01*
X122898573Y-139319673D01*
X122898570Y-139319671D01*
X122892713Y-139312873D01*
X122879009Y-139303990D01*
X122871165Y-139298906D01*
X122856291Y-139287615D01*
X122843783Y-139276569D01*
X122843782Y-139276568D01*
X122837049Y-139270622D01*
X122810287Y-139258057D01*
X122795309Y-139249737D01*
X122778017Y-139238529D01*
X122778012Y-139238527D01*
X122770485Y-139233648D01*
X122761892Y-139231078D01*
X122761887Y-139231076D01*
X122745880Y-139226289D01*
X122728436Y-139219628D01*
X122713324Y-139212533D01*
X122713322Y-139212532D01*
X122705200Y-139208719D01*
X122696333Y-139207338D01*
X122696332Y-139207338D01*
X122685478Y-139205648D01*
X122675983Y-139204170D01*
X122659268Y-139200387D01*
X122639534Y-139194485D01*
X122639528Y-139194484D01*
X122630934Y-139191914D01*
X122621963Y-139191859D01*
X122621962Y-139191859D01*
X122611903Y-139191798D01*
X122596494Y-139191704D01*
X122595711Y-139191671D01*
X122594614Y-139191500D01*
X122563623Y-139191500D01*
X122562853Y-139191498D01*
X122489215Y-139191048D01*
X122489214Y-139191048D01*
X122485279Y-139191024D01*
X122483935Y-139191408D01*
X122482590Y-139191500D01*
X113673623Y-139191500D01*
X113672853Y-139191498D01*
X113672037Y-139191493D01*
X113595279Y-139191024D01*
X113572918Y-139197415D01*
X113566847Y-139199150D01*
X113550085Y-139202728D01*
X113520813Y-139206920D01*
X113512645Y-139210634D01*
X113512644Y-139210634D01*
X113497438Y-139217548D01*
X113479914Y-139223996D01*
X113455229Y-139231051D01*
X113447635Y-139235843D01*
X113447632Y-139235844D01*
X113430220Y-139246830D01*
X113415137Y-139254969D01*
X113388218Y-139267208D01*
X113381416Y-139273069D01*
X113368765Y-139283970D01*
X113353761Y-139295073D01*
X113332042Y-139308776D01*
X113326103Y-139315501D01*
X113326099Y-139315504D01*
X113312468Y-139330938D01*
X113300276Y-139342982D01*
X113284673Y-139356427D01*
X113284671Y-139356430D01*
X113277873Y-139362287D01*
X113272993Y-139369816D01*
X113272992Y-139369817D01*
X113263906Y-139383835D01*
X113252615Y-139398709D01*
X113241569Y-139411217D01*
X113235622Y-139417951D01*
X113229312Y-139431391D01*
X113223058Y-139444711D01*
X113214737Y-139459691D01*
X113203529Y-139476983D01*
X113203527Y-139476988D01*
X113198648Y-139484515D01*
X113196078Y-139493108D01*
X113196076Y-139493113D01*
X113191289Y-139509120D01*
X113184628Y-139526564D01*
X113177533Y-139541676D01*
X113173719Y-139549800D01*
X113172338Y-139558667D01*
X113172338Y-139558668D01*
X113169170Y-139579015D01*
X113165387Y-139595732D01*
X113159485Y-139615466D01*
X113159484Y-139615472D01*
X113156914Y-139624066D01*
X113156774Y-139647069D01*
X113156704Y-139658497D01*
X113156671Y-139659289D01*
X113156500Y-139660386D01*
X113156500Y-139691377D01*
X113156498Y-139692147D01*
X113156024Y-139769721D01*
X113156408Y-139771065D01*
X113156500Y-139772410D01*
X113156500Y-141596377D01*
X113156498Y-141597147D01*
X113156024Y-141674721D01*
X108598209Y-141674721D01*
X108732656Y-141645898D01*
X108818727Y-141627446D01*
X109158968Y-141514922D01*
X109485066Y-141366311D01*
X109684427Y-141247939D01*
X109790262Y-141185099D01*
X109790267Y-141185096D01*
X109793207Y-141183350D01*
X110079786Y-140968180D01*
X110341451Y-140723319D01*
X110575140Y-140451630D01*
X110681844Y-140296375D01*
X110776190Y-140159101D01*
X110776195Y-140159094D01*
X110778120Y-140156292D01*
X110779732Y-140153298D01*
X110779737Y-140153290D01*
X110946395Y-139843772D01*
X110948017Y-139840760D01*
X111039499Y-139615466D01*
X111081562Y-139511877D01*
X111081564Y-139511872D01*
X111082842Y-139508724D01*
X111085652Y-139498862D01*
X111136695Y-139319673D01*
X111181020Y-139164070D01*
X111236880Y-138837275D01*
X111240829Y-138814175D01*
X111240829Y-138814173D01*
X111241401Y-138810828D01*
X111243511Y-138776340D01*
X111263168Y-138454928D01*
X111263278Y-138453131D01*
X111263359Y-138430000D01*
X111243979Y-138072159D01*
X111186066Y-137718505D01*
X111090297Y-137373173D01*
X111087243Y-137365497D01*
X110959052Y-137043369D01*
X110957793Y-137040205D01*
X110927768Y-136983498D01*
X110791702Y-136726513D01*
X110791698Y-136726506D01*
X110790103Y-136723494D01*
X110589190Y-136426746D01*
X110559260Y-136391453D01*
X110471182Y-136287596D01*
X110357403Y-136153432D01*
X110097454Y-135906750D01*
X110025184Y-135851695D01*
X129935251Y-135851695D01*
X129935548Y-135856848D01*
X129935548Y-135856851D01*
X129941011Y-135951590D01*
X129948110Y-136074715D01*
X129949247Y-136079761D01*
X129949248Y-136079767D01*
X129969119Y-136167939D01*
X129997222Y-136292639D01*
X130081266Y-136499616D01*
X130132019Y-136582438D01*
X130195291Y-136685688D01*
X130197987Y-136690088D01*
X130344250Y-136858938D01*
X130516126Y-137001632D01*
X130559044Y-137026711D01*
X130589955Y-137044774D01*
X130638679Y-137096412D01*
X130651750Y-137166195D01*
X130625019Y-137231967D01*
X130584562Y-137265327D01*
X130576457Y-137269546D01*
X130567738Y-137275036D01*
X130397433Y-137402905D01*
X130389726Y-137409748D01*
X130242590Y-137563717D01*
X130236104Y-137571727D01*
X130116098Y-137747649D01*
X130111000Y-137756623D01*
X130021338Y-137949783D01*
X130017775Y-137959470D01*
X129962389Y-138159183D01*
X129963912Y-138167607D01*
X129976292Y-138171000D01*
X135156344Y-138171000D01*
X135169875Y-138167027D01*
X135171180Y-138157947D01*
X135129214Y-137990875D01*
X135125894Y-137981124D01*
X135040972Y-137785814D01*
X135036105Y-137776739D01*
X134920426Y-137597926D01*
X134914136Y-137589757D01*
X134770806Y-137432240D01*
X134763273Y-137425215D01*
X134596139Y-137293222D01*
X134587556Y-137287520D01*
X134550602Y-137267120D01*
X134500631Y-137216687D01*
X134485859Y-137147245D01*
X134510975Y-137080839D01*
X134538327Y-137054232D01*
X134576910Y-137026711D01*
X134717860Y-136926173D01*
X134876096Y-136768489D01*
X134935594Y-136685689D01*
X135003435Y-136591277D01*
X135006453Y-136587077D01*
X135027320Y-136544857D01*
X135103136Y-136391453D01*
X135103137Y-136391451D01*
X135105430Y-136386811D01*
X135170370Y-136173069D01*
X135199529Y-135951590D01*
X135199611Y-135948240D01*
X135201074Y-135888365D01*
X135201074Y-135888361D01*
X135201156Y-135885000D01*
X135182852Y-135662361D01*
X135128431Y-135445702D01*
X135039354Y-135240840D01*
X134987546Y-135160757D01*
X134920822Y-135057617D01*
X134920820Y-135057614D01*
X134918014Y-135053277D01*
X134767670Y-134888051D01*
X134763619Y-134884852D01*
X134763615Y-134884848D01*
X134596414Y-134752800D01*
X134596410Y-134752798D01*
X134592359Y-134749598D01*
X134551053Y-134726796D01*
X134501084Y-134676364D01*
X134486312Y-134606921D01*
X134511428Y-134540516D01*
X134538780Y-134513909D01*
X134582603Y-134482650D01*
X134717860Y-134386173D01*
X134876096Y-134228489D01*
X134935594Y-134145689D01*
X135003435Y-134051277D01*
X135006453Y-134047077D01*
X135027320Y-134004857D01*
X135103136Y-133851453D01*
X135103137Y-133851451D01*
X135105430Y-133846811D01*
X135170370Y-133633069D01*
X135199529Y-133411590D01*
X135201156Y-133345000D01*
X135182852Y-133122361D01*
X135128431Y-132905702D01*
X135039354Y-132700840D01*
X134918014Y-132513277D01*
X134767670Y-132348051D01*
X134763619Y-132344852D01*
X134763615Y-132344848D01*
X134596414Y-132212800D01*
X134596410Y-132212798D01*
X134592359Y-132209598D01*
X134551053Y-132186796D01*
X134501084Y-132136364D01*
X134486312Y-132066921D01*
X134511428Y-132000516D01*
X134538780Y-131973909D01*
X134582603Y-131942650D01*
X134717860Y-131846173D01*
X134876096Y-131688489D01*
X134935594Y-131605689D01*
X135003435Y-131511277D01*
X135006453Y-131507077D01*
X135027320Y-131464857D01*
X135103136Y-131311453D01*
X135103137Y-131311451D01*
X135105430Y-131306811D01*
X135170370Y-131093069D01*
X135199529Y-130871590D01*
X135201156Y-130805000D01*
X135182852Y-130582361D01*
X135128431Y-130365702D01*
X135039354Y-130160840D01*
X134918014Y-129973277D01*
X134767670Y-129808051D01*
X134763619Y-129804852D01*
X134763615Y-129804848D01*
X134596414Y-129672800D01*
X134596410Y-129672798D01*
X134592359Y-129669598D01*
X134551053Y-129646796D01*
X134501084Y-129596364D01*
X134486312Y-129526921D01*
X134511428Y-129460516D01*
X134538780Y-129433909D01*
X134582603Y-129402650D01*
X134717860Y-129306173D01*
X134876096Y-129148489D01*
X134935594Y-129065689D01*
X135003435Y-128971277D01*
X135006453Y-128967077D01*
X135027320Y-128924857D01*
X135103136Y-128771453D01*
X135103137Y-128771451D01*
X135105430Y-128766811D01*
X135170370Y-128553069D01*
X135199529Y-128331590D01*
X135201156Y-128265000D01*
X135182852Y-128042361D01*
X135128431Y-127825702D01*
X135039354Y-127620840D01*
X134918014Y-127433277D01*
X134767670Y-127268051D01*
X134763619Y-127264852D01*
X134763615Y-127264848D01*
X134596414Y-127132800D01*
X134596410Y-127132798D01*
X134592359Y-127129598D01*
X134551053Y-127106796D01*
X134501084Y-127056364D01*
X134486312Y-126986921D01*
X134511428Y-126920516D01*
X134538780Y-126893909D01*
X134582603Y-126862650D01*
X134717860Y-126766173D01*
X134876096Y-126608489D01*
X134935594Y-126525689D01*
X135003435Y-126431277D01*
X135006453Y-126427077D01*
X135027320Y-126384857D01*
X135103136Y-126231453D01*
X135103137Y-126231451D01*
X135105430Y-126226811D01*
X135153768Y-126067713D01*
X135168865Y-126018023D01*
X135168865Y-126018021D01*
X135170370Y-126013069D01*
X135199529Y-125791590D01*
X135201156Y-125725000D01*
X135182852Y-125502361D01*
X135128431Y-125285702D01*
X135039354Y-125080840D01*
X134918014Y-124893277D01*
X134767670Y-124728051D01*
X134763619Y-124724852D01*
X134763615Y-124724848D01*
X134596414Y-124592800D01*
X134596410Y-124592798D01*
X134592359Y-124589598D01*
X134551053Y-124566796D01*
X134501084Y-124516364D01*
X134486312Y-124446921D01*
X134511428Y-124380516D01*
X134538780Y-124353909D01*
X134582603Y-124322650D01*
X134717860Y-124226173D01*
X134876096Y-124068489D01*
X134935594Y-123985689D01*
X135003435Y-123891277D01*
X135006453Y-123887077D01*
X135027320Y-123844857D01*
X135103136Y-123691453D01*
X135103137Y-123691451D01*
X135105430Y-123686811D01*
X135170370Y-123473069D01*
X135199529Y-123251590D01*
X135201156Y-123185000D01*
X135182852Y-122962361D01*
X135128431Y-122745702D01*
X135039354Y-122540840D01*
X134999906Y-122479862D01*
X134920822Y-122357617D01*
X134920820Y-122357614D01*
X134918014Y-122353277D01*
X134767670Y-122188051D01*
X134763619Y-122184852D01*
X134763615Y-122184848D01*
X134596414Y-122052800D01*
X134596410Y-122052798D01*
X134592359Y-122049598D01*
X134551053Y-122026796D01*
X134501084Y-121976364D01*
X134486312Y-121906921D01*
X134511428Y-121840516D01*
X134538780Y-121813909D01*
X134582603Y-121782650D01*
X134717860Y-121686173D01*
X134743228Y-121660894D01*
X134872435Y-121532137D01*
X134876096Y-121528489D01*
X134895886Y-121500949D01*
X135003435Y-121351277D01*
X135006453Y-121347077D01*
X135027320Y-121304857D01*
X135103136Y-121151453D01*
X135103137Y-121151451D01*
X135105430Y-121146811D01*
X135156122Y-120979964D01*
X138337251Y-120979964D01*
X138337548Y-120985117D01*
X138337548Y-120985120D01*
X138346871Y-121146811D01*
X138350110Y-121202984D01*
X138351247Y-121208030D01*
X138351248Y-121208036D01*
X138365606Y-121271744D01*
X138399222Y-121420908D01*
X138431723Y-121500949D01*
X138478047Y-121615031D01*
X138483266Y-121627885D01*
X138520822Y-121689171D01*
X138597291Y-121813957D01*
X138599987Y-121818357D01*
X138746250Y-121987207D01*
X138918126Y-122129901D01*
X139111000Y-122242607D01*
X139319692Y-122322299D01*
X139324760Y-122323330D01*
X139324763Y-122323331D01*
X139432017Y-122345152D01*
X139538597Y-122366836D01*
X139543772Y-122367026D01*
X139543774Y-122367026D01*
X139756673Y-122374833D01*
X139756677Y-122374833D01*
X139761837Y-122375022D01*
X139766957Y-122374366D01*
X139766959Y-122374366D01*
X139978288Y-122347294D01*
X139978289Y-122347294D01*
X139983416Y-122346637D01*
X139988366Y-122345152D01*
X140192429Y-122283930D01*
X140192434Y-122283928D01*
X140197384Y-122282443D01*
X140397994Y-122184165D01*
X140579860Y-122054442D01*
X140599760Y-122034612D01*
X140720649Y-121914144D01*
X140738096Y-121896758D01*
X140797594Y-121813958D01*
X140868453Y-121715346D01*
X140869776Y-121716297D01*
X140916645Y-121673126D01*
X140986580Y-121660894D01*
X141052026Y-121688413D01*
X141079875Y-121720263D01*
X141139987Y-121818357D01*
X141286250Y-121987207D01*
X141458126Y-122129901D01*
X141651000Y-122242607D01*
X141859692Y-122322299D01*
X141864760Y-122323330D01*
X141864763Y-122323331D01*
X141972017Y-122345152D01*
X142078597Y-122366836D01*
X142083772Y-122367026D01*
X142083774Y-122367026D01*
X142296673Y-122374833D01*
X142296677Y-122374833D01*
X142301837Y-122375022D01*
X142306957Y-122374366D01*
X142306959Y-122374366D01*
X142518288Y-122347294D01*
X142518289Y-122347294D01*
X142523416Y-122346637D01*
X142528366Y-122345152D01*
X142732429Y-122283930D01*
X142732434Y-122283928D01*
X142737384Y-122282443D01*
X142937994Y-122184165D01*
X143119860Y-122054442D01*
X143139760Y-122034612D01*
X143228479Y-121946202D01*
X143290851Y-121912286D01*
X143361658Y-121917474D01*
X143418419Y-121960120D01*
X143435401Y-121991223D01*
X143476676Y-122101323D01*
X143485214Y-122116918D01*
X143561715Y-122218993D01*
X143574276Y-122231554D01*
X143676351Y-122308055D01*
X143691946Y-122316593D01*
X143812394Y-122361747D01*
X143827649Y-122365374D01*
X143878514Y-122370900D01*
X143885328Y-122371269D01*
X144507885Y-122371269D01*
X144523124Y-122366794D01*
X144524329Y-122365404D01*
X144526000Y-122357721D01*
X144526000Y-122353153D01*
X145034000Y-122353153D01*
X145038475Y-122368392D01*
X145039865Y-122369597D01*
X145047548Y-122371268D01*
X145674669Y-122371268D01*
X145681490Y-122370898D01*
X145732352Y-122365374D01*
X145747604Y-122361748D01*
X145868054Y-122316593D01*
X145883649Y-122308055D01*
X145985724Y-122231554D01*
X145998285Y-122218993D01*
X146074786Y-122116918D01*
X146083324Y-122101323D01*
X146128478Y-121980875D01*
X146132105Y-121965620D01*
X146137631Y-121914755D01*
X146138000Y-121907941D01*
X146138000Y-121285384D01*
X146133525Y-121270145D01*
X146132135Y-121268940D01*
X146124452Y-121267269D01*
X145052115Y-121267269D01*
X145036876Y-121271744D01*
X145035671Y-121273134D01*
X145034000Y-121280817D01*
X145034000Y-122353153D01*
X144526000Y-122353153D01*
X144526000Y-120741154D01*
X145034000Y-120741154D01*
X145038475Y-120756393D01*
X145039865Y-120757598D01*
X145047548Y-120759269D01*
X146119884Y-120759269D01*
X146135123Y-120754794D01*
X146136328Y-120753404D01*
X146137999Y-120745721D01*
X146137999Y-120118600D01*
X146137629Y-120111779D01*
X146132105Y-120060917D01*
X146128479Y-120045665D01*
X146083324Y-119925215D01*
X146074786Y-119909620D01*
X145998285Y-119807545D01*
X145985724Y-119794984D01*
X145883649Y-119718483D01*
X145868054Y-119709945D01*
X145747606Y-119664791D01*
X145732351Y-119661164D01*
X145681486Y-119655638D01*
X145674672Y-119655269D01*
X145052115Y-119655269D01*
X145036876Y-119659744D01*
X145035671Y-119661134D01*
X145034000Y-119668817D01*
X145034000Y-120741154D01*
X144526000Y-120741154D01*
X144526000Y-119673385D01*
X144521525Y-119658146D01*
X144520135Y-119656941D01*
X144512452Y-119655270D01*
X143885331Y-119655270D01*
X143878510Y-119655640D01*
X143827648Y-119661164D01*
X143812396Y-119664790D01*
X143691946Y-119709945D01*
X143676351Y-119718483D01*
X143574276Y-119794984D01*
X143561715Y-119807545D01*
X143485214Y-119909620D01*
X143476676Y-119925215D01*
X143435297Y-120035591D01*
X143392655Y-120092356D01*
X143326093Y-120117055D01*
X143256744Y-120101847D01*
X143224121Y-120076160D01*
X143173151Y-120020145D01*
X143173145Y-120020139D01*
X143169670Y-120016320D01*
X143165619Y-120013121D01*
X143165615Y-120013117D01*
X142998414Y-119881069D01*
X142998410Y-119881067D01*
X142994359Y-119877867D01*
X142798789Y-119769907D01*
X142793920Y-119768183D01*
X142793916Y-119768181D01*
X142593087Y-119697064D01*
X142593083Y-119697063D01*
X142588212Y-119695338D01*
X142583119Y-119694431D01*
X142583116Y-119694430D01*
X142373373Y-119657069D01*
X142373367Y-119657068D01*
X142368284Y-119656163D01*
X142294452Y-119655261D01*
X142150081Y-119653497D01*
X142150079Y-119653497D01*
X142144911Y-119653434D01*
X141924091Y-119687224D01*
X141711756Y-119756626D01*
X141681443Y-119772406D01*
X141594594Y-119817617D01*
X141513607Y-119859776D01*
X141509474Y-119862879D01*
X141509471Y-119862881D01*
X141358311Y-119976375D01*
X141334965Y-119993904D01*
X141180629Y-120155407D01*
X141073201Y-120312890D01*
X141018293Y-120357890D01*
X140947768Y-120366061D01*
X140884021Y-120334807D01*
X140863324Y-120310323D01*
X140782822Y-120185886D01*
X140782820Y-120185883D01*
X140780014Y-120181546D01*
X140629670Y-120016320D01*
X140625619Y-120013121D01*
X140625615Y-120013117D01*
X140458414Y-119881069D01*
X140458410Y-119881067D01*
X140454359Y-119877867D01*
X140258789Y-119769907D01*
X140253920Y-119768183D01*
X140253916Y-119768181D01*
X140053087Y-119697064D01*
X140053083Y-119697063D01*
X140048212Y-119695338D01*
X140043119Y-119694431D01*
X140043116Y-119694430D01*
X139833373Y-119657069D01*
X139833367Y-119657068D01*
X139828284Y-119656163D01*
X139754452Y-119655261D01*
X139610081Y-119653497D01*
X139610079Y-119653497D01*
X139604911Y-119653434D01*
X139384091Y-119687224D01*
X139171756Y-119756626D01*
X139141443Y-119772406D01*
X139054594Y-119817617D01*
X138973607Y-119859776D01*
X138969474Y-119862879D01*
X138969471Y-119862881D01*
X138818311Y-119976375D01*
X138794965Y-119993904D01*
X138640629Y-120155407D01*
X138514743Y-120339949D01*
X138420688Y-120542574D01*
X138360989Y-120757839D01*
X138337251Y-120979964D01*
X135156122Y-120979964D01*
X135170370Y-120933069D01*
X135199529Y-120711590D01*
X135201156Y-120645000D01*
X135182852Y-120422361D01*
X135128431Y-120205702D01*
X135039354Y-120000840D01*
X134918014Y-119813277D01*
X134767670Y-119648051D01*
X134763619Y-119644852D01*
X134763615Y-119644848D01*
X134596414Y-119512800D01*
X134596410Y-119512798D01*
X134592359Y-119509598D01*
X134551053Y-119486796D01*
X134501084Y-119436364D01*
X134486312Y-119366921D01*
X134511428Y-119300516D01*
X134538780Y-119273909D01*
X134582603Y-119242650D01*
X134717860Y-119146173D01*
X134876096Y-118988489D01*
X134935594Y-118905689D01*
X135003435Y-118811277D01*
X135006453Y-118807077D01*
X135027320Y-118764857D01*
X135103136Y-118611453D01*
X135103137Y-118611451D01*
X135105430Y-118606811D01*
X135170370Y-118393069D01*
X135199529Y-118171590D01*
X135201156Y-118105000D01*
X135182852Y-117882361D01*
X135128431Y-117665702D01*
X135039354Y-117460840D01*
X134918014Y-117273277D01*
X134767670Y-117108051D01*
X134763619Y-117104852D01*
X134763615Y-117104848D01*
X134596414Y-116972800D01*
X134596410Y-116972798D01*
X134592359Y-116969598D01*
X134551053Y-116946796D01*
X134501084Y-116896364D01*
X134486312Y-116826921D01*
X134511428Y-116760516D01*
X134538780Y-116733909D01*
X134582603Y-116702650D01*
X134717860Y-116606173D01*
X134876096Y-116448489D01*
X134935594Y-116365689D01*
X135003435Y-116271277D01*
X135006453Y-116267077D01*
X135027320Y-116224857D01*
X135103136Y-116071453D01*
X135103137Y-116071451D01*
X135105430Y-116066811D01*
X135170370Y-115853069D01*
X135199529Y-115631590D01*
X135201156Y-115565000D01*
X135182852Y-115342361D01*
X135128431Y-115125702D01*
X135039354Y-114920840D01*
X134918014Y-114733277D01*
X134767670Y-114568051D01*
X134763619Y-114564852D01*
X134763615Y-114564848D01*
X134596414Y-114432800D01*
X134596410Y-114432798D01*
X134592359Y-114429598D01*
X134551053Y-114406796D01*
X134501084Y-114356364D01*
X134486312Y-114286921D01*
X134511428Y-114220516D01*
X134538780Y-114193909D01*
X134582603Y-114162650D01*
X134717860Y-114066173D01*
X134876096Y-113908489D01*
X134935594Y-113825689D01*
X135003435Y-113731277D01*
X135006453Y-113727077D01*
X135027320Y-113684857D01*
X135103136Y-113531453D01*
X135103137Y-113531451D01*
X135105430Y-113526811D01*
X135170370Y-113313069D01*
X135199529Y-113091590D01*
X135201156Y-113025000D01*
X135182852Y-112802361D01*
X135128431Y-112585702D01*
X135039354Y-112380840D01*
X134918014Y-112193277D01*
X134767670Y-112028051D01*
X134763619Y-112024852D01*
X134763615Y-112024848D01*
X134596414Y-111892800D01*
X134596410Y-111892798D01*
X134592359Y-111889598D01*
X134551053Y-111866796D01*
X134501084Y-111816364D01*
X134486312Y-111746921D01*
X134511428Y-111680516D01*
X134538780Y-111653909D01*
X134582603Y-111622650D01*
X134717860Y-111526173D01*
X134876096Y-111368489D01*
X134935594Y-111285689D01*
X135003435Y-111191277D01*
X135006453Y-111187077D01*
X135027320Y-111144857D01*
X135103136Y-110991453D01*
X135103137Y-110991451D01*
X135105430Y-110986811D01*
X135170370Y-110773069D01*
X135199529Y-110551590D01*
X135201156Y-110485000D01*
X135182852Y-110262361D01*
X135128431Y-110045702D01*
X135039354Y-109840840D01*
X134918014Y-109653277D01*
X134767670Y-109488051D01*
X134763619Y-109484852D01*
X134763615Y-109484848D01*
X134596414Y-109352800D01*
X134596410Y-109352798D01*
X134592359Y-109349598D01*
X134551053Y-109326796D01*
X134501084Y-109276364D01*
X134486312Y-109206921D01*
X134511428Y-109140516D01*
X134538780Y-109113909D01*
X134582603Y-109082650D01*
X134717860Y-108986173D01*
X134876096Y-108828489D01*
X134935594Y-108745689D01*
X135003435Y-108651277D01*
X135006453Y-108647077D01*
X135027320Y-108604857D01*
X135103136Y-108451453D01*
X135103137Y-108451451D01*
X135105430Y-108446811D01*
X135170370Y-108233069D01*
X135199529Y-108011590D01*
X135201156Y-107945000D01*
X135182852Y-107722361D01*
X135128431Y-107505702D01*
X135039354Y-107300840D01*
X134918014Y-107113277D01*
X134767670Y-106948051D01*
X134763619Y-106944852D01*
X134763615Y-106944848D01*
X134596414Y-106812800D01*
X134596410Y-106812798D01*
X134592359Y-106809598D01*
X134551053Y-106786796D01*
X134501084Y-106736364D01*
X134486312Y-106666921D01*
X134511428Y-106600516D01*
X134538780Y-106573909D01*
X134582603Y-106542650D01*
X134717860Y-106446173D01*
X134876096Y-106288489D01*
X134935594Y-106205689D01*
X135003435Y-106111277D01*
X135006453Y-106107077D01*
X135027320Y-106064857D01*
X135103136Y-105911453D01*
X135103137Y-105911451D01*
X135105430Y-105906811D01*
X135170370Y-105693069D01*
X135199529Y-105471590D01*
X135201156Y-105405000D01*
X135182852Y-105182361D01*
X135128431Y-104965702D01*
X135039354Y-104760840D01*
X134999906Y-104699862D01*
X134920822Y-104577617D01*
X134920820Y-104577614D01*
X134918014Y-104573277D01*
X134767670Y-104408051D01*
X134763619Y-104404852D01*
X134763615Y-104404848D01*
X134596414Y-104272800D01*
X134596410Y-104272798D01*
X134592359Y-104269598D01*
X134551053Y-104246796D01*
X134501084Y-104196364D01*
X134486312Y-104126921D01*
X134511428Y-104060516D01*
X134538780Y-104033909D01*
X134603474Y-103987763D01*
X134717860Y-103906173D01*
X134876096Y-103748489D01*
X134935594Y-103665689D01*
X135003435Y-103571277D01*
X135006453Y-103567077D01*
X135027320Y-103524857D01*
X135103136Y-103371453D01*
X135103137Y-103371451D01*
X135105430Y-103366811D01*
X135170370Y-103153069D01*
X135199529Y-102931590D01*
X135201156Y-102865000D01*
X135182852Y-102642361D01*
X135128431Y-102425702D01*
X135039354Y-102220840D01*
X134918014Y-102033277D01*
X134767670Y-101868051D01*
X134763619Y-101864852D01*
X134763615Y-101864848D01*
X134596414Y-101732800D01*
X134596410Y-101732798D01*
X134592359Y-101729598D01*
X134551053Y-101706796D01*
X134501084Y-101656364D01*
X134486312Y-101586921D01*
X134511428Y-101520516D01*
X134538780Y-101493909D01*
X134582603Y-101462650D01*
X134717860Y-101366173D01*
X134876096Y-101208489D01*
X134935594Y-101125689D01*
X135003435Y-101031277D01*
X135006453Y-101027077D01*
X135027320Y-100984857D01*
X135103136Y-100831453D01*
X135103137Y-100831451D01*
X135105430Y-100826811D01*
X135170370Y-100613069D01*
X135199529Y-100391590D01*
X135201156Y-100325000D01*
X135182852Y-100102361D01*
X135128431Y-99885702D01*
X135039354Y-99680840D01*
X134918014Y-99493277D01*
X134767670Y-99328051D01*
X134763619Y-99324852D01*
X134763615Y-99324848D01*
X134596414Y-99192800D01*
X134596410Y-99192798D01*
X134592359Y-99189598D01*
X134551053Y-99166796D01*
X134501084Y-99116364D01*
X134486312Y-99046921D01*
X134511428Y-98980516D01*
X134538780Y-98953909D01*
X134582603Y-98922650D01*
X134717860Y-98826173D01*
X134876096Y-98668489D01*
X134935594Y-98585689D01*
X135003435Y-98491277D01*
X135006453Y-98487077D01*
X135027320Y-98444857D01*
X135103136Y-98291453D01*
X135103137Y-98291451D01*
X135105430Y-98286811D01*
X135170370Y-98073069D01*
X135199529Y-97851590D01*
X135201156Y-97785000D01*
X135182852Y-97562361D01*
X135128431Y-97345702D01*
X135039354Y-97140840D01*
X134918014Y-96953277D01*
X134767670Y-96788051D01*
X134763619Y-96784852D01*
X134763615Y-96784848D01*
X134596414Y-96652800D01*
X134596410Y-96652798D01*
X134592359Y-96649598D01*
X134551053Y-96626796D01*
X134501084Y-96576364D01*
X134486312Y-96506921D01*
X134511428Y-96440516D01*
X134538780Y-96413909D01*
X134582603Y-96382650D01*
X134717860Y-96286173D01*
X134876096Y-96128489D01*
X134935594Y-96045689D01*
X135003435Y-95951277D01*
X135006453Y-95947077D01*
X135027320Y-95904857D01*
X135103136Y-95751453D01*
X135103137Y-95751451D01*
X135105430Y-95746811D01*
X135170370Y-95533069D01*
X135199529Y-95311590D01*
X135201156Y-95245000D01*
X135182852Y-95022361D01*
X135128431Y-94805702D01*
X135039354Y-94600840D01*
X134918014Y-94413277D01*
X134767670Y-94248051D01*
X134763619Y-94244852D01*
X134763615Y-94244848D01*
X134596414Y-94112800D01*
X134596410Y-94112798D01*
X134592359Y-94109598D01*
X134551053Y-94086796D01*
X134501084Y-94036364D01*
X134486312Y-93966921D01*
X134511428Y-93900516D01*
X134538780Y-93873909D01*
X134582603Y-93842650D01*
X134717860Y-93746173D01*
X134876096Y-93588489D01*
X134935594Y-93505689D01*
X135003435Y-93411277D01*
X135006453Y-93407077D01*
X135027320Y-93364857D01*
X135103136Y-93211453D01*
X135103137Y-93211451D01*
X135105430Y-93206811D01*
X135170370Y-92993069D01*
X135199529Y-92771590D01*
X135201156Y-92705000D01*
X135182852Y-92482361D01*
X135128431Y-92265702D01*
X135039354Y-92060840D01*
X134918014Y-91873277D01*
X134767670Y-91708051D01*
X134763619Y-91704852D01*
X134763615Y-91704848D01*
X134596414Y-91572800D01*
X134596410Y-91572798D01*
X134592359Y-91569598D01*
X134551053Y-91546796D01*
X134501084Y-91496364D01*
X134486312Y-91426921D01*
X134511428Y-91360516D01*
X134538780Y-91333909D01*
X134582603Y-91302650D01*
X134717860Y-91206173D01*
X134876096Y-91048489D01*
X134935594Y-90965689D01*
X135003435Y-90871277D01*
X135006453Y-90867077D01*
X135027320Y-90824857D01*
X135103136Y-90671453D01*
X135103137Y-90671451D01*
X135105430Y-90666811D01*
X135170370Y-90453069D01*
X135199529Y-90231590D01*
X135201156Y-90165000D01*
X135182852Y-89942361D01*
X135128431Y-89725702D01*
X135039354Y-89520840D01*
X134918014Y-89333277D01*
X134767670Y-89168051D01*
X134763619Y-89164852D01*
X134763615Y-89164848D01*
X134596414Y-89032800D01*
X134596410Y-89032798D01*
X134592359Y-89029598D01*
X134551053Y-89006796D01*
X134501084Y-88956364D01*
X134486312Y-88886921D01*
X134511428Y-88820516D01*
X134538780Y-88793909D01*
X134582603Y-88762650D01*
X134717860Y-88666173D01*
X134876096Y-88508489D01*
X134935594Y-88425689D01*
X135003435Y-88331277D01*
X135006453Y-88327077D01*
X135027320Y-88284857D01*
X135103136Y-88131453D01*
X135103137Y-88131451D01*
X135105430Y-88126811D01*
X135170370Y-87913069D01*
X135199529Y-87691590D01*
X135201156Y-87625000D01*
X135182852Y-87402361D01*
X135128431Y-87185702D01*
X135039354Y-86980840D01*
X134918014Y-86793277D01*
X134767670Y-86628051D01*
X134763619Y-86624852D01*
X134763615Y-86624848D01*
X134596414Y-86492800D01*
X134596410Y-86492798D01*
X134592359Y-86489598D01*
X134551053Y-86466796D01*
X134501084Y-86416364D01*
X134486312Y-86346921D01*
X134511428Y-86280516D01*
X134538780Y-86253909D01*
X134582603Y-86222650D01*
X134717860Y-86126173D01*
X134876096Y-85968489D01*
X134935594Y-85885689D01*
X135003435Y-85791277D01*
X135006453Y-85787077D01*
X135027320Y-85744857D01*
X135103136Y-85591453D01*
X135103137Y-85591451D01*
X135105430Y-85586811D01*
X135170370Y-85373069D01*
X135199529Y-85151590D01*
X135201156Y-85085000D01*
X135182852Y-84862361D01*
X135128431Y-84645702D01*
X135039354Y-84440840D01*
X134918014Y-84253277D01*
X134767670Y-84088051D01*
X134763619Y-84084852D01*
X134763615Y-84084848D01*
X134596414Y-83952800D01*
X134596410Y-83952798D01*
X134592359Y-83949598D01*
X134551053Y-83926796D01*
X134501084Y-83876364D01*
X134486312Y-83806921D01*
X134511428Y-83740516D01*
X134538780Y-83713909D01*
X134582603Y-83682650D01*
X134717860Y-83586173D01*
X134876096Y-83428489D01*
X134935594Y-83345689D01*
X135003435Y-83251277D01*
X135006453Y-83247077D01*
X135027320Y-83204857D01*
X135103136Y-83051453D01*
X135103137Y-83051451D01*
X135105430Y-83046811D01*
X135170370Y-82833069D01*
X135199529Y-82611590D01*
X135201156Y-82545000D01*
X135182852Y-82322361D01*
X135128431Y-82105702D01*
X135039354Y-81900840D01*
X134918014Y-81713277D01*
X134767670Y-81548051D01*
X134763619Y-81544852D01*
X134763615Y-81544848D01*
X134596414Y-81412800D01*
X134596410Y-81412798D01*
X134592359Y-81409598D01*
X134551053Y-81386796D01*
X134501084Y-81336364D01*
X134486312Y-81266921D01*
X134511428Y-81200516D01*
X134538780Y-81173909D01*
X134582603Y-81142650D01*
X134717860Y-81046173D01*
X134876096Y-80888489D01*
X134935594Y-80805689D01*
X135003435Y-80711277D01*
X135006453Y-80707077D01*
X135027320Y-80664857D01*
X135103136Y-80511453D01*
X135103137Y-80511451D01*
X135105430Y-80506811D01*
X135170370Y-80293069D01*
X135199529Y-80071590D01*
X135201156Y-80005000D01*
X135182852Y-79782361D01*
X135128431Y-79565702D01*
X135039354Y-79360840D01*
X134999906Y-79299862D01*
X134920822Y-79177617D01*
X134920820Y-79177614D01*
X134918014Y-79173277D01*
X134767670Y-79008051D01*
X134763619Y-79004852D01*
X134763615Y-79004848D01*
X134596414Y-78872800D01*
X134596410Y-78872798D01*
X134592359Y-78869598D01*
X134551053Y-78846796D01*
X134501084Y-78796364D01*
X134486312Y-78726921D01*
X134511428Y-78660516D01*
X134538780Y-78633909D01*
X134582603Y-78602650D01*
X134717860Y-78506173D01*
X134876096Y-78348489D01*
X134935594Y-78265689D01*
X135003435Y-78171277D01*
X135006453Y-78167077D01*
X135027320Y-78124857D01*
X135103136Y-77971453D01*
X135103137Y-77971451D01*
X135105430Y-77966811D01*
X135170370Y-77753069D01*
X135199529Y-77531590D01*
X135201156Y-77465000D01*
X135182852Y-77242361D01*
X135128431Y-77025702D01*
X135039354Y-76820840D01*
X134918014Y-76633277D01*
X134767670Y-76468051D01*
X134763619Y-76464852D01*
X134763615Y-76464848D01*
X134596414Y-76332800D01*
X134596410Y-76332798D01*
X134592359Y-76329598D01*
X134551053Y-76306796D01*
X134501084Y-76256364D01*
X134486312Y-76186921D01*
X134511428Y-76120516D01*
X134538780Y-76093909D01*
X134605060Y-76046632D01*
X134717860Y-75966173D01*
X134876096Y-75808489D01*
X134935594Y-75725689D01*
X135003435Y-75631277D01*
X135006453Y-75627077D01*
X135027320Y-75584857D01*
X135103136Y-75431453D01*
X135103137Y-75431451D01*
X135105430Y-75426811D01*
X135170370Y-75213069D01*
X135199529Y-74991590D01*
X135201156Y-74925000D01*
X135198829Y-74896695D01*
X138337251Y-74896695D01*
X138337548Y-74901848D01*
X138337548Y-74901851D01*
X138342914Y-74994908D01*
X138350110Y-75119715D01*
X138351247Y-75124761D01*
X138351248Y-75124767D01*
X138372265Y-75218023D01*
X138399222Y-75337639D01*
X138483266Y-75544616D01*
X138530955Y-75622438D01*
X138597291Y-75730688D01*
X138599987Y-75735088D01*
X138746250Y-75903938D01*
X138821213Y-75966173D01*
X138908123Y-76038327D01*
X138918126Y-76046632D01*
X139111000Y-76159338D01*
X139319692Y-76239030D01*
X139324760Y-76240061D01*
X139324763Y-76240062D01*
X139432017Y-76261883D01*
X139538597Y-76283567D01*
X139543772Y-76283757D01*
X139543774Y-76283757D01*
X139756673Y-76291564D01*
X139756677Y-76291564D01*
X139761837Y-76291753D01*
X139766957Y-76291097D01*
X139766959Y-76291097D01*
X139978288Y-76264025D01*
X139978289Y-76264025D01*
X139983416Y-76263368D01*
X139988366Y-76261883D01*
X140192429Y-76200661D01*
X140192434Y-76200659D01*
X140197384Y-76199174D01*
X140397994Y-76100896D01*
X140579860Y-75971173D01*
X140738096Y-75813489D01*
X140795222Y-75733990D01*
X140868453Y-75632077D01*
X140869776Y-75633028D01*
X140916645Y-75589857D01*
X140986580Y-75577625D01*
X141052026Y-75605144D01*
X141079875Y-75636994D01*
X141139987Y-75735088D01*
X141286250Y-75903938D01*
X141361213Y-75966173D01*
X141448123Y-76038327D01*
X141458126Y-76046632D01*
X141651000Y-76159338D01*
X141859692Y-76239030D01*
X141864760Y-76240061D01*
X141864763Y-76240062D01*
X141972017Y-76261883D01*
X142078597Y-76283567D01*
X142083772Y-76283757D01*
X142083774Y-76283757D01*
X142296673Y-76291564D01*
X142296677Y-76291564D01*
X142301837Y-76291753D01*
X142306957Y-76291097D01*
X142306959Y-76291097D01*
X142518288Y-76264025D01*
X142518289Y-76264025D01*
X142523416Y-76263368D01*
X142528366Y-76261883D01*
X142732429Y-76200661D01*
X142732434Y-76200659D01*
X142737384Y-76199174D01*
X142937994Y-76100896D01*
X143119860Y-75971173D01*
X143187331Y-75903938D01*
X143228479Y-75862933D01*
X143290851Y-75829017D01*
X143361658Y-75834205D01*
X143418419Y-75876851D01*
X143435401Y-75907954D01*
X143476676Y-76018054D01*
X143485214Y-76033649D01*
X143561715Y-76135724D01*
X143574276Y-76148285D01*
X143676351Y-76224786D01*
X143691946Y-76233324D01*
X143812394Y-76278478D01*
X143827649Y-76282105D01*
X143878514Y-76287631D01*
X143885328Y-76288000D01*
X144507885Y-76288000D01*
X144523124Y-76283525D01*
X144524329Y-76282135D01*
X144526000Y-76274452D01*
X144526000Y-76269884D01*
X145034000Y-76269884D01*
X145038475Y-76285123D01*
X145039865Y-76286328D01*
X145047548Y-76287999D01*
X145674669Y-76287999D01*
X145681490Y-76287629D01*
X145732352Y-76282105D01*
X145747604Y-76278479D01*
X145868054Y-76233324D01*
X145883649Y-76224786D01*
X145985724Y-76148285D01*
X145998285Y-76135724D01*
X146074786Y-76033649D01*
X146083324Y-76018054D01*
X146128478Y-75897606D01*
X146132105Y-75882351D01*
X146137631Y-75831486D01*
X146138000Y-75824672D01*
X146138000Y-75202115D01*
X146133525Y-75186876D01*
X146132135Y-75185671D01*
X146124452Y-75184000D01*
X145052115Y-75184000D01*
X145036876Y-75188475D01*
X145035671Y-75189865D01*
X145034000Y-75197548D01*
X145034000Y-76269884D01*
X144526000Y-76269884D01*
X144526000Y-74657885D01*
X145034000Y-74657885D01*
X145038475Y-74673124D01*
X145039865Y-74674329D01*
X145047548Y-74676000D01*
X146119884Y-74676000D01*
X146135123Y-74671525D01*
X146136328Y-74670135D01*
X146137999Y-74662452D01*
X146137999Y-74035331D01*
X146137629Y-74028510D01*
X146132105Y-73977648D01*
X146128479Y-73962396D01*
X146083324Y-73841946D01*
X146074786Y-73826351D01*
X145998285Y-73724276D01*
X145985724Y-73711715D01*
X145883649Y-73635214D01*
X145868054Y-73626676D01*
X145747606Y-73581522D01*
X145732351Y-73577895D01*
X145681486Y-73572369D01*
X145674672Y-73572000D01*
X145052115Y-73572000D01*
X145036876Y-73576475D01*
X145035671Y-73577865D01*
X145034000Y-73585548D01*
X145034000Y-74657885D01*
X144526000Y-74657885D01*
X144526000Y-73590116D01*
X144521525Y-73574877D01*
X144520135Y-73573672D01*
X144512452Y-73572001D01*
X143885331Y-73572001D01*
X143878510Y-73572371D01*
X143827648Y-73577895D01*
X143812396Y-73581521D01*
X143691946Y-73626676D01*
X143676351Y-73635214D01*
X143574276Y-73711715D01*
X143561715Y-73724276D01*
X143485214Y-73826351D01*
X143476676Y-73841946D01*
X143435297Y-73952322D01*
X143392655Y-74009087D01*
X143326093Y-74033786D01*
X143256744Y-74018578D01*
X143224121Y-73992891D01*
X143173151Y-73936876D01*
X143173145Y-73936870D01*
X143169670Y-73933051D01*
X143165619Y-73929852D01*
X143165615Y-73929848D01*
X142998414Y-73797800D01*
X142998410Y-73797798D01*
X142994359Y-73794598D01*
X142985302Y-73789598D01*
X142940791Y-73765027D01*
X142798789Y-73686638D01*
X142793920Y-73684914D01*
X142793916Y-73684912D01*
X142593087Y-73613795D01*
X142593083Y-73613794D01*
X142588212Y-73612069D01*
X142583119Y-73611162D01*
X142583116Y-73611161D01*
X142373373Y-73573800D01*
X142373367Y-73573799D01*
X142368284Y-73572894D01*
X142294452Y-73571992D01*
X142150081Y-73570228D01*
X142150079Y-73570228D01*
X142144911Y-73570165D01*
X141924091Y-73603955D01*
X141711756Y-73673357D01*
X141513607Y-73776507D01*
X141509474Y-73779610D01*
X141509471Y-73779612D01*
X141341624Y-73905635D01*
X141334965Y-73910635D01*
X141180629Y-74072138D01*
X141073201Y-74229621D01*
X141018293Y-74274621D01*
X140947768Y-74282792D01*
X140884021Y-74251538D01*
X140863324Y-74227054D01*
X140782822Y-74102617D01*
X140782820Y-74102614D01*
X140780014Y-74098277D01*
X140629670Y-73933051D01*
X140625619Y-73929852D01*
X140625615Y-73929848D01*
X140458414Y-73797800D01*
X140458410Y-73797798D01*
X140454359Y-73794598D01*
X140445302Y-73789598D01*
X140400791Y-73765027D01*
X140258789Y-73686638D01*
X140253920Y-73684914D01*
X140253916Y-73684912D01*
X140053087Y-73613795D01*
X140053083Y-73613794D01*
X140048212Y-73612069D01*
X140043119Y-73611162D01*
X140043116Y-73611161D01*
X139833373Y-73573800D01*
X139833367Y-73573799D01*
X139828284Y-73572894D01*
X139754452Y-73571992D01*
X139610081Y-73570228D01*
X139610079Y-73570228D01*
X139604911Y-73570165D01*
X139384091Y-73603955D01*
X139171756Y-73673357D01*
X138973607Y-73776507D01*
X138969474Y-73779610D01*
X138969471Y-73779612D01*
X138801624Y-73905635D01*
X138794965Y-73910635D01*
X138640629Y-74072138D01*
X138514743Y-74256680D01*
X138420688Y-74459305D01*
X138360989Y-74674570D01*
X138337251Y-74896695D01*
X135198829Y-74896695D01*
X135182852Y-74702361D01*
X135128431Y-74485702D01*
X135039354Y-74280840D01*
X134999906Y-74219862D01*
X134920822Y-74097617D01*
X134920820Y-74097614D01*
X134918014Y-74093277D01*
X134767670Y-73928051D01*
X134763619Y-73924852D01*
X134763615Y-73924848D01*
X134596414Y-73792800D01*
X134596410Y-73792798D01*
X134592359Y-73789598D01*
X134551053Y-73766796D01*
X134501084Y-73716364D01*
X134486312Y-73646921D01*
X134511428Y-73580516D01*
X134538780Y-73553909D01*
X134582603Y-73522650D01*
X134717860Y-73426173D01*
X134876096Y-73268489D01*
X134935594Y-73185689D01*
X135003435Y-73091277D01*
X135006453Y-73087077D01*
X135027320Y-73044857D01*
X135103136Y-72891453D01*
X135103137Y-72891451D01*
X135105430Y-72886811D01*
X135170370Y-72673069D01*
X135199529Y-72451590D01*
X135200432Y-72414646D01*
X135201074Y-72388365D01*
X135201074Y-72388361D01*
X135201156Y-72385000D01*
X135182852Y-72162361D01*
X135128431Y-71945702D01*
X135039354Y-71740840D01*
X134918014Y-71553277D01*
X134767670Y-71388051D01*
X134763619Y-71384852D01*
X134763615Y-71384848D01*
X134596414Y-71252800D01*
X134596410Y-71252798D01*
X134592359Y-71249598D01*
X134551053Y-71226796D01*
X134501084Y-71176364D01*
X134486312Y-71106921D01*
X134511428Y-71040516D01*
X134538780Y-71013909D01*
X134589596Y-70977662D01*
X134717860Y-70886173D01*
X134876096Y-70728489D01*
X134924531Y-70661085D01*
X135003435Y-70551277D01*
X135006453Y-70547077D01*
X135027320Y-70504857D01*
X135103136Y-70351453D01*
X135103137Y-70351451D01*
X135105430Y-70346811D01*
X135170370Y-70133069D01*
X135199529Y-69911590D01*
X135201156Y-69845000D01*
X135182852Y-69622361D01*
X135128431Y-69405702D01*
X135039354Y-69200840D01*
X134918014Y-69013277D01*
X134767670Y-68848051D01*
X134763619Y-68844852D01*
X134763615Y-68844848D01*
X134596414Y-68712800D01*
X134596410Y-68712798D01*
X134592359Y-68709598D01*
X134550569Y-68686529D01*
X134500598Y-68636097D01*
X134485826Y-68566654D01*
X134510942Y-68500248D01*
X134538294Y-68473641D01*
X134713328Y-68348792D01*
X134721200Y-68342139D01*
X134872052Y-68191812D01*
X134878730Y-68183965D01*
X135003003Y-68011020D01*
X135008313Y-68002183D01*
X135102670Y-67811267D01*
X135106469Y-67801672D01*
X135168377Y-67597910D01*
X135170555Y-67587837D01*
X135171986Y-67576962D01*
X135169775Y-67562778D01*
X135156617Y-67559000D01*
X129981225Y-67559000D01*
X129967694Y-67562973D01*
X129966257Y-67572966D01*
X129996565Y-67707446D01*
X129999645Y-67717275D01*
X130079770Y-67914603D01*
X130084413Y-67923794D01*
X130195694Y-68105388D01*
X130201777Y-68113699D01*
X130341213Y-68274667D01*
X130348580Y-68281883D01*
X130512434Y-68417916D01*
X130520881Y-68423831D01*
X130589969Y-68464203D01*
X130638693Y-68515842D01*
X130651764Y-68585625D01*
X130625033Y-68651396D01*
X130584584Y-68684752D01*
X130571607Y-68691507D01*
X130567474Y-68694610D01*
X130567471Y-68694612D01*
X130543247Y-68712800D01*
X130392965Y-68825635D01*
X130238629Y-68987138D01*
X130112743Y-69171680D01*
X130018688Y-69374305D01*
X129958989Y-69589570D01*
X129935251Y-69811695D01*
X129935548Y-69816848D01*
X129935548Y-69816851D01*
X129941011Y-69911590D01*
X129948110Y-70034715D01*
X129949247Y-70039761D01*
X129949248Y-70039767D01*
X129958048Y-70078814D01*
X129997222Y-70252639D01*
X130081266Y-70459616D01*
X130132019Y-70542438D01*
X130195291Y-70645688D01*
X130197987Y-70650088D01*
X130344250Y-70818938D01*
X130516126Y-70961632D01*
X130570313Y-70993296D01*
X130589445Y-71004476D01*
X130638169Y-71056114D01*
X130651240Y-71125897D01*
X130624509Y-71191669D01*
X130584055Y-71225027D01*
X130571607Y-71231507D01*
X130567474Y-71234610D01*
X130567471Y-71234612D01*
X130543247Y-71252800D01*
X130392965Y-71365635D01*
X130238629Y-71527138D01*
X130112743Y-71711680D01*
X130097003Y-71745590D01*
X130039927Y-71868550D01*
X130018688Y-71914305D01*
X129958989Y-72129570D01*
X129935251Y-72351695D01*
X129935548Y-72356848D01*
X129935548Y-72356851D01*
X129941011Y-72451590D01*
X129948110Y-72574715D01*
X129949247Y-72579761D01*
X129949248Y-72579767D01*
X129964302Y-72646565D01*
X129997222Y-72792639D01*
X130081266Y-72999616D01*
X130132019Y-73082438D01*
X130195291Y-73185688D01*
X130197987Y-73190088D01*
X130344250Y-73358938D01*
X130516126Y-73501632D01*
X130586595Y-73542811D01*
X130589445Y-73544476D01*
X130638169Y-73596114D01*
X130651240Y-73665897D01*
X130624509Y-73731669D01*
X130584055Y-73765027D01*
X130571607Y-73771507D01*
X130567474Y-73774610D01*
X130567471Y-73774612D01*
X130397100Y-73902530D01*
X130392965Y-73905635D01*
X130367894Y-73931870D01*
X130269025Y-74035331D01*
X130238629Y-74067138D01*
X130112743Y-74251680D01*
X130018688Y-74454305D01*
X129958989Y-74669570D01*
X129935251Y-74891695D01*
X129935548Y-74896848D01*
X129935548Y-74896851D01*
X129941011Y-74991590D01*
X129948110Y-75114715D01*
X129949247Y-75119761D01*
X129949248Y-75119767D01*
X129950375Y-75124767D01*
X129997222Y-75332639D01*
X130081266Y-75539616D01*
X130132019Y-75622438D01*
X130195291Y-75725688D01*
X130197987Y-75730088D01*
X130344250Y-75898938D01*
X130516126Y-76041632D01*
X130524683Y-76046632D01*
X130589445Y-76084476D01*
X130638169Y-76136114D01*
X130651240Y-76205897D01*
X130624509Y-76271669D01*
X130584055Y-76305027D01*
X130571607Y-76311507D01*
X130567474Y-76314610D01*
X130567471Y-76314612D01*
X130543247Y-76332800D01*
X130392965Y-76445635D01*
X130238629Y-76607138D01*
X130112743Y-76791680D01*
X130018688Y-76994305D01*
X129958989Y-77209570D01*
X129935251Y-77431695D01*
X129935548Y-77436848D01*
X129935548Y-77436851D01*
X129941011Y-77531590D01*
X129948110Y-77654715D01*
X129949247Y-77659761D01*
X129949248Y-77659767D01*
X129969119Y-77747939D01*
X129997222Y-77872639D01*
X130081266Y-78079616D01*
X130132019Y-78162438D01*
X130195291Y-78265688D01*
X130197987Y-78270088D01*
X130344250Y-78438938D01*
X130516126Y-78581632D01*
X130586595Y-78622811D01*
X130589445Y-78624476D01*
X130638169Y-78676114D01*
X130651240Y-78745897D01*
X130624509Y-78811669D01*
X130584055Y-78845027D01*
X130571607Y-78851507D01*
X130567474Y-78854610D01*
X130567471Y-78854612D01*
X130543247Y-78872800D01*
X130392965Y-78985635D01*
X130238629Y-79147138D01*
X130112743Y-79331680D01*
X130018688Y-79534305D01*
X129958989Y-79749570D01*
X129935251Y-79971695D01*
X129935548Y-79976848D01*
X129935548Y-79976851D01*
X129941011Y-80071590D01*
X129948110Y-80194715D01*
X129949247Y-80199761D01*
X129949248Y-80199767D01*
X129969119Y-80287939D01*
X129997222Y-80412639D01*
X130081266Y-80619616D01*
X130132019Y-80702438D01*
X130195291Y-80805688D01*
X130197987Y-80810088D01*
X130344250Y-80978938D01*
X130516126Y-81121632D01*
X130586595Y-81162811D01*
X130589445Y-81164476D01*
X130638169Y-81216114D01*
X130651240Y-81285897D01*
X130624509Y-81351669D01*
X130584055Y-81385027D01*
X130571607Y-81391507D01*
X130567474Y-81394610D01*
X130567471Y-81394612D01*
X130543247Y-81412800D01*
X130392965Y-81525635D01*
X130238629Y-81687138D01*
X130112743Y-81871680D01*
X130018688Y-82074305D01*
X129958989Y-82289570D01*
X129935251Y-82511695D01*
X129935548Y-82516848D01*
X129935548Y-82516851D01*
X129941011Y-82611590D01*
X129948110Y-82734715D01*
X129949247Y-82739761D01*
X129949248Y-82739767D01*
X129969119Y-82827939D01*
X129997222Y-82952639D01*
X130081266Y-83159616D01*
X130132019Y-83242438D01*
X130195291Y-83345688D01*
X130197987Y-83350088D01*
X130344250Y-83518938D01*
X130516126Y-83661632D01*
X130586595Y-83702811D01*
X130589445Y-83704476D01*
X130638169Y-83756114D01*
X130651240Y-83825897D01*
X130624509Y-83891669D01*
X130584055Y-83925027D01*
X130571607Y-83931507D01*
X130567474Y-83934610D01*
X130567471Y-83934612D01*
X130543247Y-83952800D01*
X130392965Y-84065635D01*
X130238629Y-84227138D01*
X130112743Y-84411680D01*
X130018688Y-84614305D01*
X129958989Y-84829570D01*
X129935251Y-85051695D01*
X129935548Y-85056848D01*
X129935548Y-85056851D01*
X129941011Y-85151590D01*
X129948110Y-85274715D01*
X129949247Y-85279761D01*
X129949248Y-85279767D01*
X129969119Y-85367939D01*
X129997222Y-85492639D01*
X130081266Y-85699616D01*
X130132019Y-85782438D01*
X130195291Y-85885688D01*
X130197987Y-85890088D01*
X130344250Y-86058938D01*
X130516126Y-86201632D01*
X130586595Y-86242811D01*
X130589445Y-86244476D01*
X130638169Y-86296114D01*
X130651240Y-86365897D01*
X130624509Y-86431669D01*
X130584055Y-86465027D01*
X130571607Y-86471507D01*
X130567474Y-86474610D01*
X130567471Y-86474612D01*
X130543247Y-86492800D01*
X130392965Y-86605635D01*
X130238629Y-86767138D01*
X130112743Y-86951680D01*
X130018688Y-87154305D01*
X129958989Y-87369570D01*
X129935251Y-87591695D01*
X129935548Y-87596848D01*
X129935548Y-87596851D01*
X129941011Y-87691590D01*
X129948110Y-87814715D01*
X129949247Y-87819761D01*
X129949248Y-87819767D01*
X129969119Y-87907939D01*
X129997222Y-88032639D01*
X130081266Y-88239616D01*
X130132019Y-88322438D01*
X130195291Y-88425688D01*
X130197987Y-88430088D01*
X130344250Y-88598938D01*
X130516126Y-88741632D01*
X130586595Y-88782811D01*
X130589445Y-88784476D01*
X130638169Y-88836114D01*
X130651240Y-88905897D01*
X130624509Y-88971669D01*
X130584055Y-89005027D01*
X130571607Y-89011507D01*
X130567474Y-89014610D01*
X130567471Y-89014612D01*
X130543247Y-89032800D01*
X130392965Y-89145635D01*
X130238629Y-89307138D01*
X130112743Y-89491680D01*
X130018688Y-89694305D01*
X129958989Y-89909570D01*
X129935251Y-90131695D01*
X129935548Y-90136848D01*
X129935548Y-90136851D01*
X129941011Y-90231590D01*
X129948110Y-90354715D01*
X129949247Y-90359761D01*
X129949248Y-90359767D01*
X129969119Y-90447939D01*
X129997222Y-90572639D01*
X130081266Y-90779616D01*
X130132019Y-90862438D01*
X130195291Y-90965688D01*
X130197987Y-90970088D01*
X130344250Y-91138938D01*
X130516126Y-91281632D01*
X130586595Y-91322811D01*
X130589445Y-91324476D01*
X130638169Y-91376114D01*
X130651240Y-91445897D01*
X130624509Y-91511669D01*
X130584055Y-91545027D01*
X130571607Y-91551507D01*
X130567474Y-91554610D01*
X130567471Y-91554612D01*
X130397100Y-91682530D01*
X130392965Y-91685635D01*
X130238629Y-91847138D01*
X130112743Y-92031680D01*
X130097003Y-92065590D01*
X130030330Y-92209225D01*
X130018688Y-92234305D01*
X129958989Y-92449570D01*
X129935251Y-92671695D01*
X129935548Y-92676848D01*
X129935548Y-92676851D01*
X129941011Y-92771590D01*
X129948110Y-92894715D01*
X129949247Y-92899761D01*
X129949248Y-92899767D01*
X129969119Y-92987939D01*
X129997222Y-93112639D01*
X130081266Y-93319616D01*
X130132019Y-93402438D01*
X130195291Y-93505688D01*
X130197987Y-93510088D01*
X130344250Y-93678938D01*
X130516126Y-93821632D01*
X130586595Y-93862811D01*
X130589445Y-93864476D01*
X130638169Y-93916114D01*
X130651240Y-93985897D01*
X130624509Y-94051669D01*
X130584055Y-94085027D01*
X130571607Y-94091507D01*
X130567474Y-94094610D01*
X130567471Y-94094612D01*
X130543247Y-94112800D01*
X130392965Y-94225635D01*
X130238629Y-94387138D01*
X130112743Y-94571680D01*
X130018688Y-94774305D01*
X129958989Y-94989570D01*
X129935251Y-95211695D01*
X129935548Y-95216848D01*
X129935548Y-95216851D01*
X129941011Y-95311590D01*
X129948110Y-95434715D01*
X129949247Y-95439761D01*
X129949248Y-95439767D01*
X129969119Y-95527939D01*
X129997222Y-95652639D01*
X130081266Y-95859616D01*
X130132019Y-95942438D01*
X130195291Y-96045688D01*
X130197987Y-96050088D01*
X130344250Y-96218938D01*
X130516126Y-96361632D01*
X130586595Y-96402811D01*
X130589445Y-96404476D01*
X130638169Y-96456114D01*
X130651240Y-96525897D01*
X130624509Y-96591669D01*
X130584055Y-96625027D01*
X130571607Y-96631507D01*
X130567474Y-96634610D01*
X130567471Y-96634612D01*
X130543247Y-96652800D01*
X130392965Y-96765635D01*
X130238629Y-96927138D01*
X130112743Y-97111680D01*
X130097003Y-97145590D01*
X130021874Y-97307442D01*
X130018688Y-97314305D01*
X129958989Y-97529570D01*
X129935251Y-97751695D01*
X129935548Y-97756848D01*
X129935548Y-97756851D01*
X129941011Y-97851590D01*
X129948110Y-97974715D01*
X129949247Y-97979761D01*
X129949248Y-97979767D01*
X129969119Y-98067939D01*
X129997222Y-98192639D01*
X130081266Y-98399616D01*
X130132019Y-98482438D01*
X130195291Y-98585688D01*
X130197987Y-98590088D01*
X130344250Y-98758938D01*
X130516126Y-98901632D01*
X130586595Y-98942811D01*
X130589445Y-98944476D01*
X130638169Y-98996114D01*
X130651240Y-99065897D01*
X130624509Y-99131669D01*
X130584055Y-99165027D01*
X130571607Y-99171507D01*
X130567474Y-99174610D01*
X130567471Y-99174612D01*
X130543247Y-99192800D01*
X130392965Y-99305635D01*
X130238629Y-99467138D01*
X130112743Y-99651680D01*
X130018688Y-99854305D01*
X129958989Y-100069570D01*
X129935251Y-100291695D01*
X129935548Y-100296848D01*
X129935548Y-100296851D01*
X129941011Y-100391590D01*
X129948110Y-100514715D01*
X129949247Y-100519761D01*
X129949248Y-100519767D01*
X129969119Y-100607939D01*
X129997222Y-100732639D01*
X130081266Y-100939616D01*
X130132019Y-101022438D01*
X130195291Y-101125688D01*
X130197987Y-101130088D01*
X130344250Y-101298938D01*
X130516126Y-101441632D01*
X130586595Y-101482811D01*
X130589445Y-101484476D01*
X130638169Y-101536114D01*
X130651240Y-101605897D01*
X130624509Y-101671669D01*
X130584055Y-101705027D01*
X130571607Y-101711507D01*
X130567474Y-101714610D01*
X130567471Y-101714612D01*
X130543247Y-101732800D01*
X130392965Y-101845635D01*
X130238629Y-102007138D01*
X130112743Y-102191680D01*
X130018688Y-102394305D01*
X129958989Y-102609570D01*
X129935251Y-102831695D01*
X129935548Y-102836848D01*
X129935548Y-102836851D01*
X129941011Y-102931590D01*
X129948110Y-103054715D01*
X129949247Y-103059761D01*
X129949248Y-103059767D01*
X129969119Y-103147939D01*
X129997222Y-103272639D01*
X130081266Y-103479616D01*
X130132019Y-103562438D01*
X130195291Y-103665688D01*
X130197987Y-103670088D01*
X130344250Y-103838938D01*
X130516126Y-103981632D01*
X130526618Y-103987763D01*
X130589445Y-104024476D01*
X130638169Y-104076114D01*
X130651240Y-104145897D01*
X130624509Y-104211669D01*
X130584055Y-104245027D01*
X130571607Y-104251507D01*
X130567474Y-104254610D01*
X130567471Y-104254612D01*
X130543247Y-104272800D01*
X130392965Y-104385635D01*
X130238629Y-104547138D01*
X130112743Y-104731680D01*
X130018688Y-104934305D01*
X129958989Y-105149570D01*
X129935251Y-105371695D01*
X129935548Y-105376848D01*
X129935548Y-105376851D01*
X129941011Y-105471590D01*
X129948110Y-105594715D01*
X129949247Y-105599761D01*
X129949248Y-105599767D01*
X129967810Y-105682128D01*
X129997222Y-105812639D01*
X130081266Y-106019616D01*
X130132019Y-106102438D01*
X130195291Y-106205688D01*
X130197987Y-106210088D01*
X130344250Y-106378938D01*
X130516126Y-106521632D01*
X130586595Y-106562811D01*
X130589445Y-106564476D01*
X130638169Y-106616114D01*
X130651240Y-106685897D01*
X130624509Y-106751669D01*
X130584055Y-106785027D01*
X130571607Y-106791507D01*
X130567474Y-106794610D01*
X130567471Y-106794612D01*
X130543247Y-106812800D01*
X130392965Y-106925635D01*
X130238629Y-107087138D01*
X130112743Y-107271680D01*
X130018688Y-107474305D01*
X129958989Y-107689570D01*
X129935251Y-107911695D01*
X129935548Y-107916848D01*
X129935548Y-107916851D01*
X129941011Y-108011590D01*
X129948110Y-108134715D01*
X129949247Y-108139761D01*
X129949248Y-108139767D01*
X129969119Y-108227939D01*
X129997222Y-108352639D01*
X130081266Y-108559616D01*
X130132019Y-108642438D01*
X130195291Y-108745688D01*
X130197987Y-108750088D01*
X130344250Y-108918938D01*
X130516126Y-109061632D01*
X130586595Y-109102811D01*
X130589445Y-109104476D01*
X130638169Y-109156114D01*
X130651240Y-109225897D01*
X130624509Y-109291669D01*
X130584055Y-109325027D01*
X130571607Y-109331507D01*
X130567474Y-109334610D01*
X130567471Y-109334612D01*
X130543247Y-109352800D01*
X130392965Y-109465635D01*
X130238629Y-109627138D01*
X130112743Y-109811680D01*
X130018688Y-110014305D01*
X129958989Y-110229570D01*
X129935251Y-110451695D01*
X129935548Y-110456848D01*
X129935548Y-110456851D01*
X129941011Y-110551590D01*
X129948110Y-110674715D01*
X129949247Y-110679761D01*
X129949248Y-110679767D01*
X129969119Y-110767939D01*
X129997222Y-110892639D01*
X130081266Y-111099616D01*
X130132019Y-111182438D01*
X130195291Y-111285688D01*
X130197987Y-111290088D01*
X130344250Y-111458938D01*
X130516126Y-111601632D01*
X130586595Y-111642811D01*
X130589445Y-111644476D01*
X130638169Y-111696114D01*
X130651240Y-111765897D01*
X130624509Y-111831669D01*
X130584055Y-111865027D01*
X130571607Y-111871507D01*
X130567474Y-111874610D01*
X130567471Y-111874612D01*
X130458798Y-111956206D01*
X130392965Y-112005635D01*
X130238629Y-112167138D01*
X130112743Y-112351680D01*
X130018688Y-112554305D01*
X129958989Y-112769570D01*
X129935251Y-112991695D01*
X129935548Y-112996848D01*
X129935548Y-112996851D01*
X129941011Y-113091590D01*
X129948110Y-113214715D01*
X129949247Y-113219761D01*
X129949248Y-113219767D01*
X129969119Y-113307939D01*
X129997222Y-113432639D01*
X130081266Y-113639616D01*
X130132019Y-113722438D01*
X130195291Y-113825688D01*
X130197987Y-113830088D01*
X130344250Y-113998938D01*
X130516126Y-114141632D01*
X130586595Y-114182811D01*
X130589445Y-114184476D01*
X130638169Y-114236114D01*
X130651240Y-114305897D01*
X130624509Y-114371669D01*
X130584055Y-114405027D01*
X130571607Y-114411507D01*
X130567474Y-114414610D01*
X130567471Y-114414612D01*
X130543247Y-114432800D01*
X130392965Y-114545635D01*
X130238629Y-114707138D01*
X130112743Y-114891680D01*
X130018688Y-115094305D01*
X129958989Y-115309570D01*
X129935251Y-115531695D01*
X129935548Y-115536848D01*
X129935548Y-115536851D01*
X129941011Y-115631590D01*
X129948110Y-115754715D01*
X129949247Y-115759761D01*
X129949248Y-115759767D01*
X129969119Y-115847939D01*
X129997222Y-115972639D01*
X130081266Y-116179616D01*
X130132019Y-116262438D01*
X130195291Y-116365688D01*
X130197987Y-116370088D01*
X130344250Y-116538938D01*
X130516126Y-116681632D01*
X130586595Y-116722811D01*
X130589445Y-116724476D01*
X130638169Y-116776114D01*
X130651240Y-116845897D01*
X130624509Y-116911669D01*
X130584055Y-116945027D01*
X130571607Y-116951507D01*
X130567474Y-116954610D01*
X130567471Y-116954612D01*
X130543247Y-116972800D01*
X130392965Y-117085635D01*
X130238629Y-117247138D01*
X130112743Y-117431680D01*
X130018688Y-117634305D01*
X129958989Y-117849570D01*
X129935251Y-118071695D01*
X129935548Y-118076848D01*
X129935548Y-118076851D01*
X129941011Y-118171590D01*
X129948110Y-118294715D01*
X129949247Y-118299761D01*
X129949248Y-118299767D01*
X129969119Y-118387939D01*
X129997222Y-118512639D01*
X130081266Y-118719616D01*
X130132019Y-118802438D01*
X130195291Y-118905688D01*
X130197987Y-118910088D01*
X130344250Y-119078938D01*
X130516126Y-119221632D01*
X130586595Y-119262811D01*
X130589445Y-119264476D01*
X130638169Y-119316114D01*
X130651240Y-119385897D01*
X130624509Y-119451669D01*
X130584055Y-119485027D01*
X130571607Y-119491507D01*
X130567474Y-119494610D01*
X130567471Y-119494612D01*
X130543247Y-119512800D01*
X130392965Y-119625635D01*
X130238629Y-119787138D01*
X130112743Y-119971680D01*
X130071321Y-120060917D01*
X130025477Y-120159680D01*
X130018688Y-120174305D01*
X129958989Y-120389570D01*
X129935251Y-120611695D01*
X129935548Y-120616848D01*
X129935548Y-120616851D01*
X129943677Y-120757839D01*
X129948110Y-120834715D01*
X129949247Y-120839761D01*
X129949248Y-120839767D01*
X129969119Y-120927939D01*
X129997222Y-121052639D01*
X130081266Y-121259616D01*
X130132019Y-121342438D01*
X130195291Y-121445688D01*
X130197987Y-121450088D01*
X130344250Y-121618938D01*
X130516126Y-121761632D01*
X130586595Y-121802811D01*
X130589445Y-121804476D01*
X130638169Y-121856114D01*
X130651240Y-121925897D01*
X130624509Y-121991669D01*
X130584055Y-122025027D01*
X130571607Y-122031507D01*
X130567474Y-122034610D01*
X130567471Y-122034612D01*
X130457850Y-122116918D01*
X130392965Y-122165635D01*
X130389393Y-122169373D01*
X130279920Y-122283930D01*
X130238629Y-122327138D01*
X130235720Y-122331403D01*
X130235714Y-122331411D01*
X130208525Y-122371269D01*
X130112743Y-122511680D01*
X130018688Y-122714305D01*
X129958989Y-122929570D01*
X129935251Y-123151695D01*
X129935548Y-123156848D01*
X129935548Y-123156851D01*
X129941011Y-123251590D01*
X129948110Y-123374715D01*
X129949247Y-123379761D01*
X129949248Y-123379767D01*
X129969119Y-123467939D01*
X129997222Y-123592639D01*
X130081266Y-123799616D01*
X130132019Y-123882438D01*
X130195291Y-123985688D01*
X130197987Y-123990088D01*
X130344250Y-124158938D01*
X130516126Y-124301632D01*
X130586595Y-124342811D01*
X130589445Y-124344476D01*
X130638169Y-124396114D01*
X130651240Y-124465897D01*
X130624509Y-124531669D01*
X130584055Y-124565027D01*
X130571607Y-124571507D01*
X130567474Y-124574610D01*
X130567471Y-124574612D01*
X130543247Y-124592800D01*
X130392965Y-124705635D01*
X130238629Y-124867138D01*
X130112743Y-125051680D01*
X130097003Y-125085590D01*
X130028704Y-125232728D01*
X130018688Y-125254305D01*
X129958989Y-125469570D01*
X129935251Y-125691695D01*
X129935548Y-125696848D01*
X129935548Y-125696851D01*
X129941635Y-125802410D01*
X129948110Y-125914715D01*
X129949247Y-125919761D01*
X129949248Y-125919767D01*
X129955044Y-125945485D01*
X129997222Y-126132639D01*
X130081266Y-126339616D01*
X130132019Y-126422438D01*
X130195291Y-126525688D01*
X130197987Y-126530088D01*
X130344250Y-126698938D01*
X130516126Y-126841632D01*
X130586595Y-126882811D01*
X130589445Y-126884476D01*
X130638169Y-126936114D01*
X130651240Y-127005897D01*
X130624509Y-127071669D01*
X130584055Y-127105027D01*
X130571607Y-127111507D01*
X130567474Y-127114610D01*
X130567471Y-127114612D01*
X130543247Y-127132800D01*
X130392965Y-127245635D01*
X130238629Y-127407138D01*
X130112743Y-127591680D01*
X130018688Y-127794305D01*
X129958989Y-128009570D01*
X129935251Y-128231695D01*
X129935548Y-128236848D01*
X129935548Y-128236851D01*
X129941011Y-128331590D01*
X129948110Y-128454715D01*
X129949247Y-128459761D01*
X129949248Y-128459767D01*
X129969119Y-128547939D01*
X129997222Y-128672639D01*
X130081266Y-128879616D01*
X130132019Y-128962438D01*
X130195291Y-129065688D01*
X130197987Y-129070088D01*
X130344250Y-129238938D01*
X130516126Y-129381632D01*
X130586595Y-129422811D01*
X130589445Y-129424476D01*
X130638169Y-129476114D01*
X130651240Y-129545897D01*
X130624509Y-129611669D01*
X130584055Y-129645027D01*
X130571607Y-129651507D01*
X130567474Y-129654610D01*
X130567471Y-129654612D01*
X130543247Y-129672800D01*
X130392965Y-129785635D01*
X130238629Y-129947138D01*
X130112743Y-130131680D01*
X130018688Y-130334305D01*
X129958989Y-130549570D01*
X129935251Y-130771695D01*
X129935548Y-130776848D01*
X129935548Y-130776851D01*
X129941011Y-130871590D01*
X129948110Y-130994715D01*
X129949247Y-130999761D01*
X129949248Y-130999767D01*
X129969119Y-131087939D01*
X129997222Y-131212639D01*
X130081266Y-131419616D01*
X130132019Y-131502438D01*
X130195291Y-131605688D01*
X130197987Y-131610088D01*
X130344250Y-131778938D01*
X130516126Y-131921632D01*
X130586595Y-131962811D01*
X130589445Y-131964476D01*
X130638169Y-132016114D01*
X130651240Y-132085897D01*
X130624509Y-132151669D01*
X130584055Y-132185027D01*
X130571607Y-132191507D01*
X130567474Y-132194610D01*
X130567471Y-132194612D01*
X130543247Y-132212800D01*
X130392965Y-132325635D01*
X130238629Y-132487138D01*
X130112743Y-132671680D01*
X130018688Y-132874305D01*
X129958989Y-133089570D01*
X129935251Y-133311695D01*
X129935548Y-133316848D01*
X129935548Y-133316851D01*
X129941011Y-133411590D01*
X129948110Y-133534715D01*
X129949247Y-133539761D01*
X129949248Y-133539767D01*
X129969119Y-133627939D01*
X129997222Y-133752639D01*
X130081266Y-133959616D01*
X130132019Y-134042438D01*
X130195291Y-134145688D01*
X130197987Y-134150088D01*
X130344250Y-134318938D01*
X130516126Y-134461632D01*
X130586595Y-134502811D01*
X130589445Y-134504476D01*
X130638169Y-134556114D01*
X130651240Y-134625897D01*
X130624509Y-134691669D01*
X130584055Y-134725027D01*
X130571607Y-134731507D01*
X130567474Y-134734610D01*
X130567471Y-134734612D01*
X130543247Y-134752800D01*
X130392965Y-134865635D01*
X130238629Y-135027138D01*
X130235720Y-135031403D01*
X130235714Y-135031411D01*
X130174472Y-135121188D01*
X130112743Y-135211680D01*
X130097003Y-135245590D01*
X130049356Y-135348237D01*
X130018688Y-135414305D01*
X129958989Y-135629570D01*
X129935251Y-135851695D01*
X110025184Y-135851695D01*
X109812384Y-135689585D01*
X109809472Y-135687828D01*
X109809467Y-135687825D01*
X109508443Y-135506236D01*
X109508437Y-135506233D01*
X109505528Y-135504478D01*
X109180475Y-135353593D01*
X108861393Y-135245590D01*
X108844255Y-135239789D01*
X108844250Y-135239788D01*
X108841028Y-135238697D01*
X108597096Y-135184618D01*
X108494493Y-135161871D01*
X108494487Y-135161870D01*
X108491158Y-135161132D01*
X108487769Y-135160758D01*
X108487764Y-135160757D01*
X108138338Y-135122180D01*
X108138333Y-135122180D01*
X108134957Y-135121807D01*
X108131558Y-135121801D01*
X108131557Y-135121801D01*
X107962080Y-135121505D01*
X107776592Y-135121182D01*
X107663413Y-135133277D01*
X107423639Y-135158901D01*
X107423631Y-135158902D01*
X107420256Y-135159263D01*
X107070117Y-135235606D01*
X106730271Y-135349317D01*
X106727178Y-135350739D01*
X106727177Y-135350740D01*
X106720974Y-135353593D01*
X106404694Y-135499066D01*
X106401760Y-135500822D01*
X106401758Y-135500823D01*
X106123224Y-135667522D01*
X106097193Y-135683101D01*
X106094467Y-135685163D01*
X106094465Y-135685164D01*
X105867455Y-135856851D01*
X105811367Y-135899270D01*
X105550559Y-136145043D01*
X105317819Y-136417546D01*
X105315900Y-136420358D01*
X105315897Y-136420363D01*
X105230973Y-136544857D01*
X105115871Y-136713591D01*
X104947077Y-137029714D01*
X104813411Y-137362218D01*
X104812491Y-137365492D01*
X104812489Y-137365497D01*
X104754521Y-137571727D01*
X104716437Y-137707213D01*
X104657290Y-138060663D01*
X104636661Y-138418434D01*
X103378500Y-138418434D01*
X103378500Y-111760000D01*
X115291496Y-111760000D01*
X115311458Y-111949928D01*
X115370473Y-112131556D01*
X115465960Y-112296944D01*
X115470378Y-112301851D01*
X115470379Y-112301852D01*
X115537585Y-112376492D01*
X115593747Y-112438866D01*
X115748248Y-112551118D01*
X115754276Y-112553802D01*
X115754278Y-112553803D01*
X115916681Y-112626109D01*
X115922712Y-112628794D01*
X116016112Y-112648647D01*
X116103056Y-112667128D01*
X116103061Y-112667128D01*
X116109513Y-112668500D01*
X116300487Y-112668500D01*
X116306939Y-112667128D01*
X116306944Y-112667128D01*
X116393888Y-112648647D01*
X116487288Y-112628794D01*
X116493319Y-112626109D01*
X116655722Y-112553803D01*
X116655724Y-112553802D01*
X116661752Y-112551118D01*
X116816253Y-112438866D01*
X116872415Y-112376492D01*
X116939621Y-112301852D01*
X116939622Y-112301851D01*
X116944040Y-112296944D01*
X117039527Y-112131556D01*
X117098542Y-111949928D01*
X117118504Y-111760000D01*
X117106362Y-111644476D01*
X117099232Y-111576635D01*
X117099232Y-111576633D01*
X117098542Y-111570072D01*
X117039527Y-111388444D01*
X116944040Y-111223056D01*
X116939621Y-111218148D01*
X116937564Y-111215317D01*
X116913705Y-111148449D01*
X116913500Y-111141256D01*
X116913500Y-105713504D01*
X116933502Y-105645383D01*
X116987158Y-105598890D01*
X117057432Y-105588786D01*
X117090747Y-105598396D01*
X117192712Y-105643794D01*
X117286113Y-105663647D01*
X117373056Y-105682128D01*
X117373061Y-105682128D01*
X117379513Y-105683500D01*
X117570487Y-105683500D01*
X117576939Y-105682128D01*
X117576944Y-105682128D01*
X117663887Y-105663647D01*
X117757288Y-105643794D01*
X117867522Y-105594715D01*
X117925722Y-105568803D01*
X117925724Y-105568802D01*
X117931752Y-105566118D01*
X118086253Y-105453866D01*
X118214040Y-105311944D01*
X118309527Y-105146556D01*
X118368542Y-104964928D01*
X118388504Y-104775000D01*
X118383501Y-104727401D01*
X118369232Y-104591635D01*
X118369232Y-104591633D01*
X118368542Y-104585072D01*
X118309527Y-104403444D01*
X118214040Y-104238056D01*
X118176501Y-104196364D01*
X118090675Y-104101045D01*
X118090674Y-104101044D01*
X118086253Y-104096134D01*
X117931752Y-103983882D01*
X117925724Y-103981198D01*
X117925722Y-103981197D01*
X117763319Y-103908891D01*
X117763318Y-103908891D01*
X117757288Y-103906206D01*
X117663887Y-103886353D01*
X117576944Y-103867872D01*
X117576939Y-103867872D01*
X117570487Y-103866500D01*
X117379513Y-103866500D01*
X117373061Y-103867872D01*
X117373056Y-103867872D01*
X117286112Y-103886353D01*
X117192712Y-103906206D01*
X117090748Y-103951603D01*
X117020382Y-103961037D01*
X116956085Y-103930931D01*
X116918271Y-103870842D01*
X116913500Y-103836496D01*
X116913500Y-98133208D01*
X116933502Y-98065087D01*
X116949958Y-98044561D01*
X122401700Y-92537751D01*
X122408412Y-92531450D01*
X122444657Y-92499831D01*
X122444658Y-92499830D01*
X122450385Y-92494834D01*
X122488340Y-92440829D01*
X122491873Y-92436048D01*
X122499315Y-92426458D01*
X122532326Y-92383919D01*
X122535418Y-92376977D01*
X122539320Y-92370461D01*
X122539404Y-92370511D01*
X122541116Y-92367491D01*
X122541031Y-92367445D01*
X122544622Y-92360749D01*
X122548990Y-92354534D01*
X122572968Y-92293034D01*
X122575250Y-92287566D01*
X122602109Y-92227275D01*
X122603455Y-92219801D01*
X122605693Y-92212533D01*
X122605785Y-92212561D01*
X122606726Y-92209225D01*
X122606633Y-92209201D01*
X122608523Y-92201839D01*
X122611282Y-92194764D01*
X122619897Y-92129331D01*
X122620814Y-92123443D01*
X122631165Y-92065985D01*
X122631165Y-92065984D01*
X122632512Y-92058507D01*
X122628747Y-91998465D01*
X122628500Y-91990580D01*
X122628500Y-80011220D01*
X122648502Y-79943099D01*
X122660865Y-79926908D01*
X122669920Y-79916852D01*
X122669921Y-79916851D01*
X122674339Y-79911944D01*
X122769826Y-79746556D01*
X122828841Y-79564928D01*
X122848803Y-79375000D01*
X122843800Y-79327401D01*
X122829531Y-79191635D01*
X122829531Y-79191633D01*
X122828841Y-79185072D01*
X122769826Y-79003444D01*
X122694399Y-78872800D01*
X122677642Y-78843777D01*
X122674339Y-78838056D01*
X122660865Y-78823091D01*
X122630147Y-78759085D01*
X122628500Y-78738780D01*
X122628500Y-72735660D01*
X122648502Y-72667539D01*
X122665405Y-72646565D01*
X128113029Y-67198942D01*
X128119294Y-67193088D01*
X128157165Y-67160051D01*
X128157166Y-67160050D01*
X128162886Y-67155060D01*
X128199637Y-67102770D01*
X128203529Y-67097528D01*
X128242977Y-67047217D01*
X128246101Y-67040298D01*
X128247489Y-67038006D01*
X128255858Y-67023334D01*
X128257123Y-67020974D01*
X128261491Y-67014760D01*
X128284704Y-66955222D01*
X128287260Y-66949141D01*
X128310419Y-66897851D01*
X128313546Y-66890926D01*
X128314931Y-66883453D01*
X128315735Y-66880887D01*
X128320356Y-66864664D01*
X128321021Y-66862072D01*
X128323783Y-66854990D01*
X128332124Y-66791630D01*
X128333155Y-66785122D01*
X128343412Y-66729780D01*
X128344796Y-66722313D01*
X128341210Y-66660119D01*
X128341001Y-66652866D01*
X128341001Y-65599500D01*
X128361003Y-65531379D01*
X128414659Y-65484886D01*
X128467001Y-65473500D01*
X130068234Y-65473500D01*
X130136355Y-65493502D01*
X130175667Y-65533665D01*
X130197987Y-65570088D01*
X130344250Y-65738938D01*
X130516126Y-65881632D01*
X130589955Y-65924774D01*
X130638679Y-65976412D01*
X130651750Y-66046195D01*
X130625019Y-66111967D01*
X130584562Y-66145327D01*
X130576457Y-66149546D01*
X130567738Y-66155036D01*
X130397433Y-66282905D01*
X130389726Y-66289748D01*
X130242590Y-66443717D01*
X130236104Y-66451727D01*
X130116098Y-66627649D01*
X130111000Y-66636623D01*
X130021338Y-66829783D01*
X130017775Y-66839470D01*
X129962389Y-67039183D01*
X129963912Y-67047607D01*
X129976292Y-67051000D01*
X135156344Y-67051000D01*
X135169875Y-67047027D01*
X135171180Y-67037947D01*
X135129214Y-66870875D01*
X135125894Y-66861124D01*
X135040972Y-66665814D01*
X135036105Y-66656739D01*
X134920426Y-66477926D01*
X134914136Y-66469757D01*
X134770806Y-66312240D01*
X134763273Y-66305215D01*
X134596139Y-66173222D01*
X134587556Y-66167520D01*
X134550602Y-66147120D01*
X134500631Y-66096687D01*
X134485859Y-66027245D01*
X134510975Y-65960839D01*
X134538327Y-65934232D01*
X134561797Y-65917491D01*
X134717860Y-65806173D01*
X134876096Y-65648489D01*
X135006453Y-65467077D01*
X135027320Y-65424857D01*
X135103136Y-65271453D01*
X135103137Y-65271451D01*
X135105430Y-65266811D01*
X135170370Y-65053069D01*
X135199529Y-64831590D01*
X135200513Y-64791326D01*
X135201074Y-64768365D01*
X135201074Y-64768361D01*
X135201156Y-64765000D01*
X135182852Y-64542361D01*
X135128431Y-64325702D01*
X135039354Y-64120840D01*
X134918014Y-63933277D01*
X134767670Y-63768051D01*
X134763619Y-63764852D01*
X134763615Y-63764848D01*
X134596414Y-63632800D01*
X134596410Y-63632798D01*
X134592359Y-63629598D01*
X134550569Y-63606529D01*
X134500598Y-63556097D01*
X134485826Y-63486654D01*
X134510942Y-63420248D01*
X134538294Y-63393641D01*
X134713328Y-63268792D01*
X134721200Y-63262139D01*
X134872052Y-63111812D01*
X134878730Y-63103965D01*
X135003003Y-62931020D01*
X135008313Y-62922183D01*
X135102670Y-62731267D01*
X135106469Y-62721672D01*
X135168377Y-62517910D01*
X135170555Y-62507837D01*
X135171986Y-62496962D01*
X135169775Y-62482778D01*
X135156617Y-62479000D01*
X129958116Y-62479000D01*
X129942877Y-62483475D01*
X129941672Y-62484865D01*
X129940001Y-62492548D01*
X129940001Y-63119669D01*
X129940371Y-63126490D01*
X129945895Y-63177352D01*
X129949521Y-63192604D01*
X129994676Y-63313054D01*
X130003214Y-63328649D01*
X130079715Y-63430724D01*
X130092276Y-63443285D01*
X130194351Y-63519786D01*
X130209946Y-63528324D01*
X130318827Y-63569142D01*
X130375591Y-63611784D01*
X130400291Y-63678345D01*
X130385083Y-63747694D01*
X130365691Y-63774175D01*
X130247997Y-63897335D01*
X130238629Y-63907138D01*
X130235720Y-63911403D01*
X130235714Y-63911411D01*
X130174257Y-64001504D01*
X130119346Y-64046507D01*
X130070169Y-64056500D01*
X128240464Y-64056500D01*
X128172343Y-64036498D01*
X128166403Y-64032436D01*
X128094595Y-63980264D01*
X128094594Y-63980263D01*
X128089253Y-63976383D01*
X128083225Y-63973699D01*
X128083223Y-63973698D01*
X127920820Y-63901392D01*
X127920819Y-63901392D01*
X127914789Y-63898707D01*
X127821388Y-63878854D01*
X127734445Y-63860373D01*
X127734440Y-63860373D01*
X127727988Y-63859001D01*
X127537014Y-63859001D01*
X127530562Y-63860373D01*
X127530557Y-63860373D01*
X127443614Y-63878854D01*
X127350213Y-63898707D01*
X127344183Y-63901392D01*
X127344182Y-63901392D01*
X127181779Y-63973698D01*
X127181777Y-63973699D01*
X127175749Y-63976383D01*
X127021248Y-64088635D01*
X127016827Y-64093545D01*
X127016826Y-64093546D01*
X126987974Y-64125590D01*
X126893461Y-64230557D01*
X126797974Y-64395945D01*
X126738959Y-64577573D01*
X126718997Y-64767501D01*
X126738959Y-64957429D01*
X126797974Y-65139057D01*
X126893461Y-65304445D01*
X126897880Y-65309353D01*
X126899937Y-65312184D01*
X126923796Y-65379052D01*
X126924001Y-65386245D01*
X126924001Y-66331839D01*
X126903999Y-66399960D01*
X126887096Y-66420934D01*
X121439480Y-71868550D01*
X121433215Y-71874404D01*
X121389615Y-71912439D01*
X121385248Y-71918653D01*
X121352872Y-71964719D01*
X121348939Y-71970014D01*
X121309524Y-72020282D01*
X121306401Y-72027198D01*
X121305017Y-72029484D01*
X121296643Y-72044165D01*
X121295378Y-72046525D01*
X121291010Y-72052739D01*
X121288250Y-72059818D01*
X121288249Y-72059820D01*
X121267798Y-72112275D01*
X121265247Y-72118344D01*
X121238955Y-72176573D01*
X121237571Y-72184040D01*
X121236770Y-72186595D01*
X121232141Y-72202848D01*
X121231478Y-72205428D01*
X121228718Y-72212509D01*
X121227727Y-72220040D01*
X121227726Y-72220042D01*
X121220379Y-72275852D01*
X121219348Y-72282359D01*
X121207704Y-72345186D01*
X121208141Y-72352766D01*
X121208141Y-72352767D01*
X121211291Y-72407392D01*
X121211500Y-72414646D01*
X121211500Y-78777897D01*
X121194619Y-78840896D01*
X121100772Y-79003444D01*
X121041757Y-79185072D01*
X121041067Y-79191633D01*
X121041067Y-79191635D01*
X121026798Y-79327401D01*
X121021795Y-79375000D01*
X121041757Y-79564928D01*
X121100772Y-79746556D01*
X121104075Y-79752278D01*
X121104076Y-79752279D01*
X121194619Y-79909103D01*
X121211500Y-79972103D01*
X121211500Y-91674065D01*
X121191498Y-91742186D01*
X121175042Y-91762712D01*
X115723300Y-97269522D01*
X115716588Y-97275823D01*
X115692994Y-97296406D01*
X115674615Y-97312439D01*
X115636644Y-97366465D01*
X115633165Y-97371174D01*
X115592673Y-97423354D01*
X115589582Y-97430292D01*
X115585678Y-97436812D01*
X115585596Y-97436763D01*
X115583882Y-97439786D01*
X115583967Y-97439831D01*
X115580379Y-97446522D01*
X115576010Y-97452739D01*
X115573249Y-97459819D01*
X115573248Y-97459822D01*
X115552038Y-97514220D01*
X115549743Y-97519720D01*
X115522891Y-97579998D01*
X115521545Y-97587472D01*
X115519308Y-97594737D01*
X115519216Y-97594709D01*
X115518274Y-97598048D01*
X115518367Y-97598072D01*
X115516477Y-97605434D01*
X115513718Y-97612509D01*
X115512727Y-97620038D01*
X115505104Y-97677938D01*
X115504188Y-97683819D01*
X115492488Y-97748766D01*
X115492964Y-97756351D01*
X115496253Y-97808808D01*
X115496500Y-97816693D01*
X115496500Y-104766238D01*
X115496498Y-104766898D01*
X115496026Y-104857031D01*
X115496390Y-104858548D01*
X115496500Y-104860450D01*
X115496500Y-111141256D01*
X115476498Y-111209377D01*
X115472436Y-111215317D01*
X115470379Y-111218148D01*
X115465960Y-111223056D01*
X115370473Y-111388444D01*
X115311458Y-111570072D01*
X115310768Y-111576633D01*
X115310768Y-111576635D01*
X115303638Y-111644476D01*
X115291496Y-111760000D01*
X103378500Y-111760000D01*
X103378500Y-64758434D01*
X104636661Y-64758434D01*
X104654792Y-65116340D01*
X104655329Y-65119695D01*
X104655330Y-65119701D01*
X104660316Y-65150828D01*
X104711470Y-65470195D01*
X104806033Y-65815859D01*
X104937374Y-66149288D01*
X104968151Y-66207909D01*
X105091953Y-66443717D01*
X105103957Y-66466582D01*
X105105858Y-66469411D01*
X105105864Y-66469421D01*
X105289569Y-66742800D01*
X105303834Y-66764029D01*
X105534665Y-67038150D01*
X105793751Y-67285738D01*
X106078061Y-67503897D01*
X106110056Y-67523350D01*
X106381355Y-67688303D01*
X106381360Y-67688306D01*
X106384270Y-67690075D01*
X106387358Y-67691521D01*
X106387357Y-67691521D01*
X106705710Y-67840649D01*
X106705720Y-67840653D01*
X106708794Y-67842093D01*
X106712012Y-67843195D01*
X106712015Y-67843196D01*
X107044615Y-67957071D01*
X107044623Y-67957073D01*
X107047838Y-67958174D01*
X107397435Y-68036959D01*
X107449728Y-68042917D01*
X107750114Y-68077142D01*
X107750122Y-68077142D01*
X107753497Y-68077527D01*
X107756901Y-68077545D01*
X107756904Y-68077545D01*
X107951227Y-68078562D01*
X108111857Y-68079403D01*
X108115243Y-68079053D01*
X108115245Y-68079053D01*
X108464932Y-68042917D01*
X108464941Y-68042916D01*
X108468324Y-68042566D01*
X108471657Y-68041852D01*
X108471660Y-68041851D01*
X108656694Y-68002183D01*
X108818727Y-67967446D01*
X109158968Y-67854922D01*
X109485066Y-67706311D01*
X109684599Y-67587837D01*
X109790262Y-67525099D01*
X109790267Y-67525096D01*
X109793207Y-67523350D01*
X110079786Y-67308180D01*
X110341451Y-67063319D01*
X110575140Y-66791630D01*
X110704811Y-66602957D01*
X110776190Y-66499101D01*
X110776195Y-66499094D01*
X110778120Y-66496292D01*
X110779732Y-66493298D01*
X110779737Y-66493290D01*
X110946395Y-66183772D01*
X110948017Y-66180760D01*
X111048121Y-65934232D01*
X111081562Y-65851877D01*
X111081564Y-65851872D01*
X111082842Y-65848724D01*
X111093142Y-65812568D01*
X111115229Y-65735031D01*
X111181020Y-65504070D01*
X111241401Y-65150828D01*
X111242506Y-65132772D01*
X111263168Y-64794928D01*
X111263278Y-64793131D01*
X111263359Y-64770000D01*
X111243979Y-64412159D01*
X111186066Y-64058505D01*
X111090297Y-63713173D01*
X111087243Y-63705497D01*
X110959052Y-63383369D01*
X110957793Y-63380205D01*
X110864189Y-63203418D01*
X110791702Y-63066513D01*
X110791698Y-63066506D01*
X110790103Y-63063494D01*
X110589190Y-62766746D01*
X110550965Y-62721672D01*
X110493506Y-62653919D01*
X110357403Y-62493432D01*
X110097454Y-62246750D01*
X109812384Y-62029585D01*
X109809472Y-62027828D01*
X109809467Y-62027825D01*
X109685237Y-61952885D01*
X129940000Y-61952885D01*
X129944475Y-61968124D01*
X129945865Y-61969329D01*
X129953548Y-61971000D01*
X131025885Y-61971000D01*
X131041124Y-61966525D01*
X131042329Y-61965135D01*
X131044000Y-61957452D01*
X131044000Y-61952885D01*
X131552000Y-61952885D01*
X131556475Y-61968124D01*
X131557865Y-61969329D01*
X131565548Y-61971000D01*
X133565885Y-61971000D01*
X133581124Y-61966525D01*
X133582329Y-61965135D01*
X133584000Y-61957452D01*
X133584000Y-61952885D01*
X134092000Y-61952885D01*
X134096475Y-61968124D01*
X134097865Y-61969329D01*
X134105548Y-61971000D01*
X135156344Y-61971000D01*
X135169875Y-61967027D01*
X135171180Y-61957947D01*
X135129214Y-61790875D01*
X135125894Y-61781124D01*
X135040972Y-61585814D01*
X135036105Y-61576739D01*
X134920426Y-61397926D01*
X134914136Y-61389757D01*
X134770806Y-61232240D01*
X134763273Y-61225215D01*
X134596139Y-61093222D01*
X134587552Y-61087517D01*
X134401117Y-60984599D01*
X134391705Y-60980369D01*
X134190959Y-60909280D01*
X134180988Y-60906646D01*
X134109837Y-60893972D01*
X134096540Y-60895432D01*
X134092000Y-60909989D01*
X134092000Y-61952885D01*
X133584000Y-61952885D01*
X133584000Y-60908102D01*
X133580082Y-60894758D01*
X133565806Y-60892771D01*
X133527324Y-60898660D01*
X133517288Y-60901051D01*
X133314868Y-60967212D01*
X133305359Y-60971209D01*
X133116463Y-61069542D01*
X133107738Y-61075036D01*
X132937433Y-61202905D01*
X132929726Y-61209748D01*
X132852094Y-61290985D01*
X132790570Y-61326415D01*
X132719657Y-61322958D01*
X132661871Y-61281712D01*
X132643018Y-61248164D01*
X132601324Y-61136946D01*
X132592786Y-61121351D01*
X132516285Y-61019276D01*
X132503724Y-61006715D01*
X132401649Y-60930214D01*
X132386054Y-60921676D01*
X132265606Y-60876522D01*
X132250351Y-60872895D01*
X132199486Y-60867369D01*
X132192672Y-60867000D01*
X131570115Y-60867000D01*
X131554876Y-60871475D01*
X131553671Y-60872865D01*
X131552000Y-60880548D01*
X131552000Y-61952885D01*
X131044000Y-61952885D01*
X131044000Y-60885116D01*
X131039525Y-60869877D01*
X131038135Y-60868672D01*
X131030452Y-60867001D01*
X130403331Y-60867001D01*
X130396510Y-60867371D01*
X130345648Y-60872895D01*
X130330396Y-60876521D01*
X130209946Y-60921676D01*
X130194351Y-60930214D01*
X130092276Y-61006715D01*
X130079715Y-61019276D01*
X130003214Y-61121351D01*
X129994676Y-61136946D01*
X129949522Y-61257394D01*
X129945895Y-61272649D01*
X129940369Y-61323514D01*
X129940000Y-61330328D01*
X129940000Y-61952885D01*
X109685237Y-61952885D01*
X109508443Y-61846236D01*
X109508437Y-61846233D01*
X109505528Y-61844478D01*
X109180475Y-61693593D01*
X109010751Y-61636145D01*
X108844255Y-61579789D01*
X108844250Y-61579788D01*
X108841028Y-61578697D01*
X108642681Y-61534724D01*
X108494493Y-61501871D01*
X108494487Y-61501870D01*
X108491158Y-61501132D01*
X108487769Y-61500758D01*
X108487764Y-61500757D01*
X108138338Y-61462180D01*
X108138333Y-61462180D01*
X108134957Y-61461807D01*
X108131558Y-61461801D01*
X108131557Y-61461801D01*
X107962080Y-61461505D01*
X107776592Y-61461182D01*
X107663413Y-61473277D01*
X107423639Y-61498901D01*
X107423631Y-61498902D01*
X107420256Y-61499263D01*
X107070117Y-61575606D01*
X106730271Y-61689317D01*
X106727178Y-61690739D01*
X106727177Y-61690740D01*
X106720974Y-61693593D01*
X106404694Y-61839066D01*
X106401760Y-61840822D01*
X106401758Y-61840823D01*
X106184248Y-61971000D01*
X106097193Y-62023101D01*
X106094467Y-62025163D01*
X106094465Y-62025164D01*
X106088620Y-62029585D01*
X105811367Y-62239270D01*
X105550559Y-62485043D01*
X105317819Y-62757546D01*
X105315900Y-62760358D01*
X105315897Y-62760363D01*
X105222624Y-62897097D01*
X105115871Y-63053591D01*
X104947077Y-63369714D01*
X104813411Y-63702218D01*
X104812491Y-63705492D01*
X104812489Y-63705497D01*
X104719449Y-64036498D01*
X104716437Y-64047213D01*
X104715875Y-64050570D01*
X104715875Y-64050571D01*
X104658080Y-64395945D01*
X104657290Y-64400663D01*
X104636661Y-64758434D01*
X103378500Y-64758434D01*
X103378500Y-60324500D01*
X103398502Y-60256379D01*
X103452158Y-60209886D01*
X103504500Y-60198500D01*
X135890500Y-60198500D01*
X135958621Y-60218502D01*
G37*
%TD.AperFunction*%
%TD*%
M02*
