M48
; DRILL file {KiCad (6.0.4)} date Thu Apr  7 10:44:57 2022
; FORMAT={-:-/ absolute / inch / decimal}
; #@! TF.CreationDate,2022-04-07T10:44:57+02:00
; #@! TF.GenerationSoftware,Kicad,Pcbnew,(6.0.4)
; #@! TF.FileFunction,Plated,1,2,PTH
FMAT,2
INCH
; #@! TA.AperFunction,Plated,PTH,ViaDrill
T1C0.0157
; #@! TA.AperFunction,Plated,PTH,ComponentDrill
T2C0.0394
; #@! TA.AperFunction,Plated,PTH,ComponentDrill
T3C0.1260
%
G90
G05
T1
X4.15Y-3.925
X4.15Y-4.025
X4.15Y-4.125
X4.4831Y-4.6285
X4.525Y-3.775
X4.525Y-5.425
X4.575Y-4.4
X4.625Y-4.125
X4.625Y-4.775
X4.625Y-4.825
X4.675Y-5.425
X4.725Y-2.825
X4.725Y-3.2149
X4.775Y-3.775
X4.775Y-4.4
X4.8006Y-3.125
X4.825Y-5.425
X4.85Y-4.4
X5.0249Y-2.5499
X5.025Y-3.3
X5.4Y-3.75
X5.4Y-4.225
T2
X5.1692Y-2.4498
X5.1692Y-2.5498
X5.1692Y-2.6498
X5.1692Y-2.7498
X5.1692Y-2.8498
X5.1692Y-2.9498
X5.1692Y-3.0498
X5.1692Y-3.1498
X5.1692Y-3.2498
X5.1692Y-3.3498
X5.1692Y-3.4498
X5.1692Y-3.5498
X5.1692Y-3.6498
X5.1692Y-3.7498
X5.1692Y-3.8498
X5.1692Y-3.9498
X5.1692Y-4.0498
X5.1692Y-4.1498
X5.1692Y-4.2498
X5.1692Y-4.3498
X5.1692Y-4.4498
X5.1692Y-4.5498
X5.1692Y-4.6498
X5.1692Y-4.7498
X5.1692Y-4.8498
X5.1692Y-4.9498
X5.1692Y-5.0498
X5.1692Y-5.1498
X5.1692Y-5.2498
X5.1692Y-5.3498
X5.1692Y-5.4498
X5.1692Y-5.5498
X5.2692Y-2.4498
X5.2692Y-2.5498
X5.2692Y-2.6498
X5.2692Y-2.7498
X5.2692Y-2.8498
X5.2692Y-2.9498
X5.2692Y-3.0498
X5.2692Y-3.1498
X5.2692Y-3.2498
X5.2692Y-3.3498
X5.2692Y-3.4498
X5.2692Y-3.5498
X5.2692Y-3.6498
X5.2692Y-3.7498
X5.2692Y-3.8498
X5.2692Y-3.9498
X5.2692Y-4.0498
X5.2692Y-4.1498
X5.2692Y-4.2498
X5.2692Y-4.3498
X5.2692Y-4.4498
X5.2692Y-4.5498
X5.2692Y-4.6498
X5.2692Y-4.7498
X5.2692Y-4.8498
X5.2692Y-4.9498
X5.2692Y-5.0498
X5.2692Y-5.1498
X5.2692Y-5.2498
X5.2692Y-5.3498
X5.2692Y-5.4498
X5.2692Y-5.5498
X5.5Y-2.95
X5.5Y-4.7643
X5.6Y-2.95
X5.6Y-4.7643
X5.7Y-2.95
X5.7Y-4.7643
T3
X4.25Y-2.55
X4.25Y-5.45
T0
M30
