%TF.GenerationSoftware,KiCad,Pcbnew,(6.0.4)*%
%TF.CreationDate,2022-04-07T10:44:55+02:00*%
%TF.ProjectId,srambrd,7372616d-6272-4642-9e6b-696361645f70,rev?*%
%TF.SameCoordinates,Original*%
%TF.FileFunction,Soldermask,Top*%
%TF.FilePolarity,Negative*%
%FSLAX46Y46*%
G04 Gerber Fmt 4.6, Leading zero omitted, Abs format (unit mm)*
G04 Created by KiCad (PCBNEW (6.0.4)) date 2022-04-07 10:44:55*
%MOMM*%
%LPD*%
G01*
G04 APERTURE LIST*
G04 Aperture macros list*
%AMRoundRect*
0 Rectangle with rounded corners*
0 $1 Rounding radius*
0 $2 $3 $4 $5 $6 $7 $8 $9 X,Y pos of 4 corners*
0 Add a 4 corners polygon primitive as box body*
4,1,4,$2,$3,$4,$5,$6,$7,$8,$9,$2,$3,0*
0 Add four circle primitives for the rounded corners*
1,1,$1+$1,$2,$3*
1,1,$1+$1,$4,$5*
1,1,$1+$1,$6,$7*
1,1,$1+$1,$8,$9*
0 Add four rect primitives between the rounded corners*
20,1,$1+$1,$2,$3,$4,$5,0*
20,1,$1+$1,$4,$5,$6,$7,0*
20,1,$1+$1,$6,$7,$8,$9,0*
20,1,$1+$1,$8,$9,$2,$3,0*%
G04 Aperture macros list end*
%ADD10C,0.150000*%
%ADD11RoundRect,0.250000X-0.450000X0.350000X-0.450000X-0.350000X0.450000X-0.350000X0.450000X0.350000X0*%
%ADD12RoundRect,0.250000X-1.250000X-0.550000X1.250000X-0.550000X1.250000X0.550000X-1.250000X0.550000X0*%
%ADD13R,1.700000X1.700000*%
%ADD14O,1.700000X1.700000*%
%ADD15RoundRect,0.250000X0.475000X-0.337500X0.475000X0.337500X-0.475000X0.337500X-0.475000X-0.337500X0*%
%ADD16C,5.600000*%
%ADD17RoundRect,0.137500X-0.137500X0.625000X-0.137500X-0.625000X0.137500X-0.625000X0.137500X0.625000X0*%
%ADD18RoundRect,0.250000X-0.475000X0.337500X-0.475000X-0.337500X0.475000X-0.337500X0.475000X0.337500X0*%
%ADD19R,1.750000X0.700000*%
%ADD20R,1.000000X1.450000*%
%ADD21R,1.550000X1.000000*%
%ADD22R,1.400000X0.800000*%
%ADD23R,1.500000X1.300000*%
%ADD24R,1.500000X0.800000*%
%ADD25R,1.500000X1.500000*%
G04 APERTURE END LIST*
D10*
X113665000Y-141605000D02*
X122555000Y-141605000D01*
X122555000Y-141605000D02*
X122555000Y-143510000D01*
X122555000Y-143510000D02*
X113665000Y-143510000D01*
X113665000Y-143510000D02*
X113665000Y-141605000D01*
G36*
X113665000Y-141605000D02*
G01*
X122555000Y-141605000D01*
X122555000Y-143510000D01*
X113665000Y-143510000D01*
X113665000Y-141605000D01*
G37*
D11*
%TO.C,R5*%
X113665000Y-65040000D03*
X113665000Y-67040000D03*
%TD*%
D12*
%TO.C,C7*%
X140040000Y-112123269D03*
X144440000Y-112123269D03*
%TD*%
D11*
%TO.C,R4*%
X116205000Y-65040000D03*
X116205000Y-67040000D03*
%TD*%
D13*
%TO.C,J3*%
X144780000Y-74930000D03*
D14*
X142240000Y-74930000D03*
X139700000Y-74930000D03*
%TD*%
D15*
%TO.C,C4*%
X140335000Y-89263269D03*
X140335000Y-87188269D03*
%TD*%
D16*
%TO.C,H1*%
X107950000Y-64770000D03*
%TD*%
D11*
%TO.C,R6*%
X144145000Y-82548269D03*
X144145000Y-84548269D03*
%TD*%
D13*
%TO.C,J4*%
X144780000Y-121013269D03*
D14*
X142240000Y-121013269D03*
X139700000Y-121013269D03*
%TD*%
D11*
%TO.C,R9*%
X140335000Y-92073269D03*
X140335000Y-94073269D03*
%TD*%
%TO.C,R1*%
X123825000Y-65040000D03*
X123825000Y-67040000D03*
%TD*%
D15*
%TO.C,C2*%
X118745000Y-99230000D03*
X118745000Y-97155000D03*
%TD*%
D17*
%TO.C,U1*%
X125875000Y-102616500D03*
X125075000Y-102616500D03*
X124275000Y-102616500D03*
X123475000Y-102616500D03*
X122675000Y-102616500D03*
X121875000Y-102616500D03*
X121075000Y-102616500D03*
X120275000Y-102616500D03*
X119475000Y-102616500D03*
X118675000Y-102616500D03*
X117875000Y-102616500D03*
X117075000Y-102616500D03*
X116275000Y-102616500D03*
X115475000Y-102616500D03*
X114675000Y-102616500D03*
X113875000Y-102616500D03*
X113075000Y-102616500D03*
X112275000Y-102616500D03*
X111475000Y-102616500D03*
X110675000Y-102616500D03*
X109875000Y-102616500D03*
X109075000Y-102616500D03*
X109075000Y-113791500D03*
X109875000Y-113791500D03*
X110675000Y-113791500D03*
X111475000Y-113791500D03*
X112275000Y-113791500D03*
X113075000Y-113791500D03*
X113875000Y-113791500D03*
X114675000Y-113791500D03*
X115475000Y-113791500D03*
X116275000Y-113791500D03*
X117075000Y-113791500D03*
X117875000Y-113791500D03*
X118675000Y-113791500D03*
X119475000Y-113791500D03*
X120275000Y-113791500D03*
X121075000Y-113791500D03*
X121875000Y-113791500D03*
X122675000Y-113791500D03*
X123475000Y-113791500D03*
X124275000Y-113791500D03*
X125075000Y-113791500D03*
X125875000Y-113791500D03*
%TD*%
D11*
%TO.C,R3*%
X118745000Y-65040000D03*
X118745000Y-67040000D03*
%TD*%
D18*
%TO.C,C1*%
X117475000Y-117305000D03*
X117475000Y-119380000D03*
%TD*%
D12*
%TO.C,C8*%
X140040000Y-103868269D03*
X144440000Y-103868269D03*
%TD*%
D15*
%TO.C,C6*%
X140335000Y-98958269D03*
X140335000Y-96883269D03*
%TD*%
D18*
%TO.C,C5*%
X144145000Y-96883269D03*
X144145000Y-98958269D03*
%TD*%
D11*
%TO.C,R7*%
X140335000Y-82548269D03*
X140335000Y-84548269D03*
%TD*%
D16*
%TO.C,H2*%
X107950000Y-138430000D03*
%TD*%
D18*
%TO.C,C3*%
X144145000Y-87188269D03*
X144145000Y-89263269D03*
%TD*%
D11*
%TO.C,R8*%
X144145000Y-92073269D03*
X144145000Y-94073269D03*
%TD*%
%TO.C,R2*%
X121285000Y-65040000D03*
X121285000Y-67040000D03*
%TD*%
D19*
%TO.C,J2*%
X117465000Y-76180000D03*
X117465000Y-77280000D03*
X117465000Y-78380000D03*
X117465000Y-79480000D03*
X117465000Y-80580000D03*
X117465000Y-81680000D03*
X117465000Y-82780000D03*
X117465000Y-83880000D03*
D20*
X108240000Y-85005000D03*
D21*
X106665000Y-73780000D03*
D22*
X109090000Y-73380000D03*
D23*
X117340000Y-85080000D03*
D24*
X109740000Y-85330000D03*
D25*
X117340000Y-73730000D03*
%TD*%
D13*
%TO.C,J1*%
X131298000Y-62225000D03*
D14*
X133838000Y-62225000D03*
X131298000Y-64765000D03*
X133838000Y-64765000D03*
X131298000Y-67305000D03*
X133838000Y-67305000D03*
X131298000Y-69845000D03*
X133838000Y-69845000D03*
X131298000Y-72385000D03*
X133838000Y-72385000D03*
X131298000Y-74925000D03*
X133838000Y-74925000D03*
X131298000Y-77465000D03*
X133838000Y-77465000D03*
X131298000Y-80005000D03*
X133838000Y-80005000D03*
X131298000Y-82545000D03*
X133838000Y-82545000D03*
X131298000Y-85085000D03*
X133838000Y-85085000D03*
X131298000Y-87625000D03*
X133838000Y-87625000D03*
X131298000Y-90165000D03*
X133838000Y-90165000D03*
X131298000Y-92705000D03*
X133838000Y-92705000D03*
X131298000Y-95245000D03*
X133838000Y-95245000D03*
X131298000Y-97785000D03*
X133838000Y-97785000D03*
X131298000Y-100325000D03*
X133838000Y-100325000D03*
X131298000Y-102865000D03*
X133838000Y-102865000D03*
X131298000Y-105405000D03*
X133838000Y-105405000D03*
X131298000Y-107945000D03*
X133838000Y-107945000D03*
X131298000Y-110485000D03*
X133838000Y-110485000D03*
X131298000Y-113025000D03*
X133838000Y-113025000D03*
X131298000Y-115565000D03*
X133838000Y-115565000D03*
X131298000Y-118105000D03*
X133838000Y-118105000D03*
X131298000Y-120645000D03*
X133838000Y-120645000D03*
X131298000Y-123185000D03*
X133838000Y-123185000D03*
X131298000Y-125725000D03*
X133838000Y-125725000D03*
X131298000Y-128265000D03*
X133838000Y-128265000D03*
X131298000Y-130805000D03*
X133838000Y-130805000D03*
X131298000Y-133345000D03*
X133838000Y-133345000D03*
X131298000Y-135885000D03*
X133838000Y-135885000D03*
X131298000Y-138425000D03*
X133838000Y-138425000D03*
X131298000Y-140965000D03*
X133838000Y-140965000D03*
%TD*%
M02*
