%TF.GenerationSoftware,KiCad,Pcbnew,(6.0.4)*%
%TF.CreationDate,2022-04-07T10:44:55+02:00*%
%TF.ProjectId,srambrd,7372616d-6272-4642-9e6b-696361645f70,rev?*%
%TF.SameCoordinates,Original*%
%TF.FileFunction,Legend,Top*%
%TF.FilePolarity,Positive*%
%FSLAX46Y46*%
G04 Gerber Fmt 4.6, Leading zero omitted, Abs format (unit mm)*
G04 Created by KiCad (PCBNEW (6.0.4)) date 2022-04-07 10:44:55*
%MOMM*%
%LPD*%
G01*
G04 APERTURE LIST*
%ADD10C,0.150000*%
%ADD11C,0.120000*%
G04 APERTURE END LIST*
D10*
G36*
X125879777Y-101216388D02*
G01*
X125568547Y-100432042D01*
X126216086Y-100432042D01*
X125879777Y-101216388D01*
G37*
X125879777Y-101216388D02*
X125568547Y-100432042D01*
X126216086Y-100432042D01*
X125879777Y-101216388D01*
G36*
X144806883Y-118811847D02*
G01*
X144171883Y-117541847D01*
X145441883Y-117541847D01*
X144806883Y-118811847D01*
G37*
X144806883Y-118811847D02*
X144171883Y-117541847D01*
X145441883Y-117541847D01*
X144806883Y-118811847D01*
G36*
X129540000Y-62230000D02*
G01*
X128270000Y-62865000D01*
X128270000Y-61595000D01*
X129540000Y-62230000D01*
G37*
X129540000Y-62230000D02*
X128270000Y-62865000D01*
X128270000Y-61595000D01*
X129540000Y-62230000D01*
G36*
X129540000Y-67310000D02*
G01*
X128270000Y-67945000D01*
X128270000Y-66675000D01*
X129540000Y-67310000D01*
G37*
X129540000Y-67310000D02*
X128270000Y-67945000D01*
X128270000Y-66675000D01*
X129540000Y-67310000D01*
G36*
X145415000Y-78740000D02*
G01*
X144145000Y-78740000D01*
X144780000Y-77470000D01*
X145415000Y-78740000D01*
G37*
X145415000Y-78740000D02*
X144145000Y-78740000D01*
X144780000Y-77470000D01*
X145415000Y-78740000D01*
G36*
X129540000Y-138430000D02*
G01*
X128270000Y-139065000D01*
X128270000Y-137795000D01*
X129540000Y-138430000D01*
G37*
X129540000Y-138430000D02*
X128270000Y-139065000D01*
X128270000Y-137795000D01*
X129540000Y-138430000D01*
X142073333Y-78557380D02*
X141740000Y-78081190D01*
X141501904Y-78557380D02*
X141501904Y-77557380D01*
X141882857Y-77557380D01*
X141978095Y-77605000D01*
X142025714Y-77652619D01*
X142073333Y-77747857D01*
X142073333Y-77890714D01*
X142025714Y-77985952D01*
X141978095Y-78033571D01*
X141882857Y-78081190D01*
X141501904Y-78081190D01*
X142406666Y-77557380D02*
X143073333Y-78557380D01*
X143073333Y-77557380D02*
X142406666Y-78557380D01*
X138938095Y-77557380D02*
X139509523Y-77557380D01*
X139223809Y-78557380D02*
X139223809Y-77557380D01*
X139747619Y-77557380D02*
X140414285Y-78557380D01*
X140414285Y-77557380D02*
X139747619Y-78557380D01*
X140644761Y-71842380D02*
X140644761Y-72651904D01*
X140692380Y-72747142D01*
X140740000Y-72794761D01*
X140835238Y-72842380D01*
X141025714Y-72842380D01*
X141120952Y-72794761D01*
X141168571Y-72747142D01*
X141216190Y-72651904D01*
X141216190Y-71842380D01*
X141644761Y-72556666D02*
X142120952Y-72556666D01*
X141549523Y-72842380D02*
X141882857Y-71842380D01*
X142216190Y-72842380D01*
X143120952Y-72842380D02*
X142787619Y-72366190D01*
X142549523Y-72842380D02*
X142549523Y-71842380D01*
X142930476Y-71842380D01*
X143025714Y-71890000D01*
X143073333Y-71937619D01*
X143120952Y-72032857D01*
X143120952Y-72175714D01*
X143073333Y-72270952D01*
X143025714Y-72318571D01*
X142930476Y-72366190D01*
X142549523Y-72366190D01*
X143406666Y-71842380D02*
X143978095Y-71842380D01*
X143692380Y-72842380D02*
X143692380Y-71842380D01*
X142549523Y-118925649D02*
X142073333Y-118925649D01*
X142073333Y-117925649D01*
X110459047Y-128901666D02*
X110935238Y-128901666D01*
X110363809Y-129187380D02*
X110697142Y-128187380D01*
X111030476Y-129187380D01*
X111792380Y-128520714D02*
X111792380Y-129187380D01*
X111363809Y-128520714D02*
X111363809Y-129044523D01*
X111411428Y-129139761D01*
X111506666Y-129187380D01*
X111649523Y-129187380D01*
X111744761Y-129139761D01*
X111792380Y-129092142D01*
X112173333Y-129187380D02*
X112697142Y-128520714D01*
X112173333Y-128520714D02*
X112697142Y-129187380D01*
X113840000Y-129187380D02*
X113840000Y-128187380D01*
X114173333Y-128901666D01*
X114506666Y-128187380D01*
X114506666Y-129187380D01*
X115125714Y-129187380D02*
X115030476Y-129139761D01*
X114982857Y-129092142D01*
X114935238Y-128996904D01*
X114935238Y-128711190D01*
X114982857Y-128615952D01*
X115030476Y-128568333D01*
X115125714Y-128520714D01*
X115268571Y-128520714D01*
X115363809Y-128568333D01*
X115411428Y-128615952D01*
X115459047Y-128711190D01*
X115459047Y-128996904D01*
X115411428Y-129092142D01*
X115363809Y-129139761D01*
X115268571Y-129187380D01*
X115125714Y-129187380D01*
X116316190Y-129187380D02*
X116316190Y-128187380D01*
X116316190Y-129139761D02*
X116220952Y-129187380D01*
X116030476Y-129187380D01*
X115935238Y-129139761D01*
X115887619Y-129092142D01*
X115840000Y-128996904D01*
X115840000Y-128711190D01*
X115887619Y-128615952D01*
X115935238Y-128568333D01*
X116030476Y-128520714D01*
X116220952Y-128520714D01*
X116316190Y-128568333D01*
X117220952Y-128520714D02*
X117220952Y-129187380D01*
X116792380Y-128520714D02*
X116792380Y-129044523D01*
X116840000Y-129139761D01*
X116935238Y-129187380D01*
X117078095Y-129187380D01*
X117173333Y-129139761D01*
X117220952Y-129092142D01*
X117840000Y-129187380D02*
X117744761Y-129139761D01*
X117697142Y-129044523D01*
X117697142Y-128187380D01*
X118601904Y-129139761D02*
X118506666Y-129187380D01*
X118316190Y-129187380D01*
X118220952Y-129139761D01*
X118173333Y-129044523D01*
X118173333Y-128663571D01*
X118220952Y-128568333D01*
X118316190Y-128520714D01*
X118506666Y-128520714D01*
X118601904Y-128568333D01*
X118649523Y-128663571D01*
X118649523Y-128758809D01*
X118173333Y-128854047D01*
X119840000Y-128806428D02*
X120601904Y-128806428D01*
X121697142Y-128187380D02*
X122030476Y-129187380D01*
X122363809Y-128187380D01*
X123220952Y-129187380D02*
X122649523Y-129187380D01*
X122935238Y-129187380D02*
X122935238Y-128187380D01*
X122840000Y-128330238D01*
X122744761Y-128425476D01*
X122649523Y-128473095D01*
X112030476Y-130511666D02*
X112506666Y-130511666D01*
X111935238Y-130797380D02*
X112268571Y-129797380D01*
X112601904Y-130797380D01*
X112935238Y-130130714D02*
X112935238Y-130797380D01*
X112935238Y-130225952D02*
X112982857Y-130178333D01*
X113078095Y-130130714D01*
X113220952Y-130130714D01*
X113316190Y-130178333D01*
X113363809Y-130273571D01*
X113363809Y-130797380D01*
X114268571Y-130797380D02*
X114268571Y-129797380D01*
X114268571Y-130749761D02*
X114173333Y-130797380D01*
X113982857Y-130797380D01*
X113887619Y-130749761D01*
X113840000Y-130702142D01*
X113792380Y-130606904D01*
X113792380Y-130321190D01*
X113840000Y-130225952D01*
X113887619Y-130178333D01*
X113982857Y-130130714D01*
X114173333Y-130130714D01*
X114268571Y-130178333D01*
X115125714Y-130749761D02*
X115030476Y-130797380D01*
X114840000Y-130797380D01*
X114744761Y-130749761D01*
X114697142Y-130654523D01*
X114697142Y-130273571D01*
X114744761Y-130178333D01*
X114840000Y-130130714D01*
X115030476Y-130130714D01*
X115125714Y-130178333D01*
X115173333Y-130273571D01*
X115173333Y-130368809D01*
X114697142Y-130464047D01*
X115601904Y-130797380D02*
X115601904Y-130130714D01*
X115601904Y-130321190D02*
X115649523Y-130225952D01*
X115697142Y-130178333D01*
X115792380Y-130130714D01*
X115887619Y-130130714D01*
X116173333Y-130749761D02*
X116268571Y-130797380D01*
X116459047Y-130797380D01*
X116554285Y-130749761D01*
X116601904Y-130654523D01*
X116601904Y-130606904D01*
X116554285Y-130511666D01*
X116459047Y-130464047D01*
X116316190Y-130464047D01*
X116220952Y-130416428D01*
X116173333Y-130321190D01*
X116173333Y-130273571D01*
X116220952Y-130178333D01*
X116316190Y-130130714D01*
X116459047Y-130130714D01*
X116554285Y-130178333D01*
X117792380Y-130797380D02*
X117792380Y-129797380D01*
X118173333Y-129797380D01*
X118268571Y-129845000D01*
X118316190Y-129892619D01*
X118363809Y-129987857D01*
X118363809Y-130130714D01*
X118316190Y-130225952D01*
X118268571Y-130273571D01*
X118173333Y-130321190D01*
X117792380Y-130321190D01*
X118792380Y-130797380D02*
X118792380Y-130130714D01*
X118792380Y-129797380D02*
X118744761Y-129845000D01*
X118792380Y-129892619D01*
X118840000Y-129845000D01*
X118792380Y-129797380D01*
X118792380Y-129892619D01*
X119220952Y-130749761D02*
X119316190Y-130797380D01*
X119506666Y-130797380D01*
X119601904Y-130749761D01*
X119649523Y-130654523D01*
X119649523Y-130606904D01*
X119601904Y-130511666D01*
X119506666Y-130464047D01*
X119363809Y-130464047D01*
X119268571Y-130416428D01*
X119220952Y-130321190D01*
X119220952Y-130273571D01*
X119268571Y-130178333D01*
X119363809Y-130130714D01*
X119506666Y-130130714D01*
X119601904Y-130178333D01*
X119935238Y-130130714D02*
X120316190Y-130130714D01*
X120078095Y-129797380D02*
X120078095Y-130654523D01*
X120125714Y-130749761D01*
X120220952Y-130797380D01*
X120316190Y-130797380D01*
X120792380Y-130797380D02*
X120697142Y-130749761D01*
X120649523Y-130702142D01*
X120601904Y-130606904D01*
X120601904Y-130321190D01*
X120649523Y-130225952D01*
X120697142Y-130178333D01*
X120792380Y-130130714D01*
X120935238Y-130130714D01*
X121030476Y-130178333D01*
X121078095Y-130225952D01*
X121125714Y-130321190D01*
X121125714Y-130606904D01*
X121078095Y-130702142D01*
X121030476Y-130749761D01*
X120935238Y-130797380D01*
X120792380Y-130797380D01*
X121697142Y-130797380D02*
X121601904Y-130749761D01*
X121554285Y-130654523D01*
X121554285Y-129797380D01*
X140009523Y-118925649D02*
X139676190Y-118449459D01*
X139438095Y-118925649D02*
X139438095Y-117925649D01*
X139819047Y-117925649D01*
X139914285Y-117973269D01*
X139961904Y-118020888D01*
X140009523Y-118116126D01*
X140009523Y-118258983D01*
X139961904Y-118354221D01*
X139914285Y-118401840D01*
X139819047Y-118449459D01*
X139438095Y-118449459D01*
X128204404Y-140422380D02*
X128013928Y-140422380D01*
X127918690Y-140470000D01*
X127871071Y-140517619D01*
X127775833Y-140660476D01*
X127728214Y-140850952D01*
X127728214Y-141231904D01*
X127775833Y-141327142D01*
X127823452Y-141374761D01*
X127918690Y-141422380D01*
X128109166Y-141422380D01*
X128204404Y-141374761D01*
X128252023Y-141327142D01*
X128299642Y-141231904D01*
X128299642Y-140993809D01*
X128252023Y-140898571D01*
X128204404Y-140850952D01*
X128109166Y-140803333D01*
X127918690Y-140803333D01*
X127823452Y-140850952D01*
X127775833Y-140898571D01*
X127728214Y-140993809D01*
X128632976Y-140422380D02*
X129252023Y-140422380D01*
X128918690Y-140803333D01*
X129061547Y-140803333D01*
X129156785Y-140850952D01*
X129204404Y-140898571D01*
X129252023Y-140993809D01*
X129252023Y-141231904D01*
X129204404Y-141327142D01*
X129156785Y-141374761D01*
X129061547Y-141422380D01*
X128775833Y-141422380D01*
X128680595Y-141374761D01*
X128632976Y-141327142D01*
X140372399Y-123991666D02*
X140848589Y-123991666D01*
X140277161Y-124277380D02*
X140610494Y-123277380D01*
X140943828Y-124277380D01*
X141277161Y-123277380D02*
X141277161Y-124086904D01*
X141324780Y-124182142D01*
X141372399Y-124229761D01*
X141467637Y-124277380D01*
X141658113Y-124277380D01*
X141753351Y-124229761D01*
X141800970Y-124182142D01*
X141848589Y-124086904D01*
X141848589Y-123277380D01*
X142324780Y-124277380D02*
X142324780Y-123277380D01*
X142562875Y-123277380D01*
X142705732Y-123325000D01*
X142800970Y-123420238D01*
X142848589Y-123515476D01*
X142896209Y-123705952D01*
X142896209Y-123848809D01*
X142848589Y-124039285D01*
X142800970Y-124134523D01*
X142705732Y-124229761D01*
X142562875Y-124277380D01*
X142324780Y-124277380D01*
X143324780Y-124277380D02*
X143324780Y-123277380D01*
X143991447Y-123277380D02*
X144181923Y-123277380D01*
X144277161Y-123325000D01*
X144372399Y-123420238D01*
X144420018Y-123610714D01*
X144420018Y-123944047D01*
X144372399Y-124134523D01*
X144277161Y-124229761D01*
X144181923Y-124277380D01*
X143991447Y-124277380D01*
X143896209Y-124229761D01*
X143800970Y-124134523D01*
X143753351Y-123944047D01*
X143753351Y-123610714D01*
X143800970Y-123420238D01*
X143896209Y-123325000D01*
X143991447Y-123277380D01*
X127920714Y-62682380D02*
X127349285Y-62682380D01*
X127635000Y-62682380D02*
X127635000Y-61682380D01*
X127539761Y-61825238D01*
X127444523Y-61920476D01*
X127349285Y-61968095D01*
%TO.C,R5*%
X114117380Y-62396666D02*
X113641190Y-62730000D01*
X114117380Y-62968095D02*
X113117380Y-62968095D01*
X113117380Y-62587142D01*
X113165000Y-62491904D01*
X113212619Y-62444285D01*
X113307857Y-62396666D01*
X113450714Y-62396666D01*
X113545952Y-62444285D01*
X113593571Y-62491904D01*
X113641190Y-62587142D01*
X113641190Y-62968095D01*
X113117380Y-61491904D02*
X113117380Y-61968095D01*
X113593571Y-62015714D01*
X113545952Y-61968095D01*
X113498333Y-61872857D01*
X113498333Y-61634761D01*
X113545952Y-61539523D01*
X113593571Y-61491904D01*
X113688809Y-61444285D01*
X113926904Y-61444285D01*
X114022142Y-61491904D01*
X114069761Y-61539523D01*
X114117380Y-61634761D01*
X114117380Y-61872857D01*
X114069761Y-61968095D01*
X114022142Y-62015714D01*
%TO.C,C7*%
X137512299Y-112306407D02*
X137559918Y-112354026D01*
X137607537Y-112496883D01*
X137607537Y-112592121D01*
X137559918Y-112734979D01*
X137464680Y-112830217D01*
X137369442Y-112877836D01*
X137178966Y-112925455D01*
X137036109Y-112925455D01*
X136845633Y-112877836D01*
X136750395Y-112830217D01*
X136655157Y-112734979D01*
X136607537Y-112592121D01*
X136607537Y-112496883D01*
X136655157Y-112354026D01*
X136702776Y-112306407D01*
X136607537Y-111973074D02*
X136607537Y-111306407D01*
X137607537Y-111734979D01*
%TO.C,R4*%
X116657380Y-62396666D02*
X116181190Y-62730000D01*
X116657380Y-62968095D02*
X115657380Y-62968095D01*
X115657380Y-62587142D01*
X115705000Y-62491904D01*
X115752619Y-62444285D01*
X115847857Y-62396666D01*
X115990714Y-62396666D01*
X116085952Y-62444285D01*
X116133571Y-62491904D01*
X116181190Y-62587142D01*
X116181190Y-62968095D01*
X115990714Y-61539523D02*
X116657380Y-61539523D01*
X115609761Y-61777619D02*
X116324047Y-62015714D01*
X116324047Y-61396666D01*
%TO.C,J3*%
X136612380Y-75263333D02*
X137326666Y-75263333D01*
X137469523Y-75310952D01*
X137564761Y-75406190D01*
X137612380Y-75549047D01*
X137612380Y-75644285D01*
X136612380Y-74882380D02*
X136612380Y-74263333D01*
X136993333Y-74596666D01*
X136993333Y-74453809D01*
X137040952Y-74358571D01*
X137088571Y-74310952D01*
X137183809Y-74263333D01*
X137421904Y-74263333D01*
X137517142Y-74310952D01*
X137564761Y-74358571D01*
X137612380Y-74453809D01*
X137612380Y-74739523D01*
X137564761Y-74834761D01*
X137517142Y-74882380D01*
%TO.C,C4*%
X138787142Y-88392435D02*
X138834761Y-88440054D01*
X138882380Y-88582911D01*
X138882380Y-88678149D01*
X138834761Y-88821007D01*
X138739523Y-88916245D01*
X138644285Y-88963864D01*
X138453809Y-89011483D01*
X138310952Y-89011483D01*
X138120476Y-88963864D01*
X138025238Y-88916245D01*
X137930000Y-88821007D01*
X137882380Y-88678149D01*
X137882380Y-88582911D01*
X137930000Y-88440054D01*
X137977619Y-88392435D01*
X138215714Y-87535292D02*
X138882380Y-87535292D01*
X137834761Y-87773388D02*
X138549047Y-88011483D01*
X138549047Y-87392435D01*
%TO.C,H1*%
X104013095Y-69032380D02*
X104013095Y-68032380D01*
X104013095Y-68508571D02*
X104584523Y-68508571D01*
X104584523Y-69032380D02*
X104584523Y-68032380D01*
X105584523Y-69032380D02*
X105013095Y-69032380D01*
X105298809Y-69032380D02*
X105298809Y-68032380D01*
X105203571Y-68175238D01*
X105108333Y-68270476D01*
X105013095Y-68318095D01*
%TO.C,R6*%
X142692380Y-83714935D02*
X142216190Y-84048269D01*
X142692380Y-84286364D02*
X141692380Y-84286364D01*
X141692380Y-83905411D01*
X141740000Y-83810173D01*
X141787619Y-83762554D01*
X141882857Y-83714935D01*
X142025714Y-83714935D01*
X142120952Y-83762554D01*
X142168571Y-83810173D01*
X142216190Y-83905411D01*
X142216190Y-84286364D01*
X141692380Y-82857792D02*
X141692380Y-83048269D01*
X141740000Y-83143507D01*
X141787619Y-83191126D01*
X141930476Y-83286364D01*
X142120952Y-83333983D01*
X142501904Y-83333983D01*
X142597142Y-83286364D01*
X142644761Y-83238745D01*
X142692380Y-83143507D01*
X142692380Y-82953030D01*
X142644761Y-82857792D01*
X142597142Y-82810173D01*
X142501904Y-82762554D01*
X142263809Y-82762554D01*
X142168571Y-82810173D01*
X142120952Y-82857792D01*
X142073333Y-82953030D01*
X142073333Y-83143507D01*
X142120952Y-83238745D01*
X142168571Y-83286364D01*
X142263809Y-83333983D01*
%TO.C,J4*%
X136612380Y-121346602D02*
X137326666Y-121346602D01*
X137469523Y-121394221D01*
X137564761Y-121489459D01*
X137612380Y-121632316D01*
X137612380Y-121727554D01*
X136945714Y-120441840D02*
X137612380Y-120441840D01*
X136564761Y-120679935D02*
X137279047Y-120918030D01*
X137279047Y-120298983D01*
%TO.C,R9*%
X138882380Y-93239935D02*
X138406190Y-93573269D01*
X138882380Y-93811364D02*
X137882380Y-93811364D01*
X137882380Y-93430411D01*
X137930000Y-93335173D01*
X137977619Y-93287554D01*
X138072857Y-93239935D01*
X138215714Y-93239935D01*
X138310952Y-93287554D01*
X138358571Y-93335173D01*
X138406190Y-93430411D01*
X138406190Y-93811364D01*
X138882380Y-92763745D02*
X138882380Y-92573269D01*
X138834761Y-92478030D01*
X138787142Y-92430411D01*
X138644285Y-92335173D01*
X138453809Y-92287554D01*
X138072857Y-92287554D01*
X137977619Y-92335173D01*
X137930000Y-92382792D01*
X137882380Y-92478030D01*
X137882380Y-92668507D01*
X137930000Y-92763745D01*
X137977619Y-92811364D01*
X138072857Y-92858983D01*
X138310952Y-92858983D01*
X138406190Y-92811364D01*
X138453809Y-92763745D01*
X138501428Y-92668507D01*
X138501428Y-92478030D01*
X138453809Y-92382792D01*
X138406190Y-92335173D01*
X138310952Y-92287554D01*
%TO.C,R1*%
X124277380Y-62396666D02*
X123801190Y-62730000D01*
X124277380Y-62968095D02*
X123277380Y-62968095D01*
X123277380Y-62587142D01*
X123325000Y-62491904D01*
X123372619Y-62444285D01*
X123467857Y-62396666D01*
X123610714Y-62396666D01*
X123705952Y-62444285D01*
X123753571Y-62491904D01*
X123801190Y-62587142D01*
X123801190Y-62968095D01*
X124277380Y-61444285D02*
X124277380Y-62015714D01*
X124277380Y-61730000D02*
X123277380Y-61730000D01*
X123420238Y-61825238D01*
X123515476Y-61920476D01*
X123563095Y-62015714D01*
%TO.C,C2*%
X117422142Y-98359166D02*
X117469761Y-98406785D01*
X117517380Y-98549642D01*
X117517380Y-98644880D01*
X117469761Y-98787738D01*
X117374523Y-98882976D01*
X117279285Y-98930595D01*
X117088809Y-98978214D01*
X116945952Y-98978214D01*
X116755476Y-98930595D01*
X116660238Y-98882976D01*
X116565000Y-98787738D01*
X116517380Y-98644880D01*
X116517380Y-98549642D01*
X116565000Y-98406785D01*
X116612619Y-98359166D01*
X116612619Y-97978214D02*
X116565000Y-97930595D01*
X116517380Y-97835357D01*
X116517380Y-97597261D01*
X116565000Y-97502023D01*
X116612619Y-97454404D01*
X116707857Y-97406785D01*
X116803095Y-97406785D01*
X116945952Y-97454404D01*
X117517380Y-98025833D01*
X117517380Y-97406785D01*
%TO.C,U1*%
X127087380Y-108965904D02*
X127896904Y-108965904D01*
X127992142Y-108918285D01*
X128039761Y-108870666D01*
X128087380Y-108775428D01*
X128087380Y-108584952D01*
X128039761Y-108489714D01*
X127992142Y-108442095D01*
X127896904Y-108394476D01*
X127087380Y-108394476D01*
X128087380Y-107394476D02*
X128087380Y-107965904D01*
X128087380Y-107680190D02*
X127087380Y-107680190D01*
X127230238Y-107775428D01*
X127325476Y-107870666D01*
X127373095Y-107965904D01*
%TO.C,R3*%
X119197380Y-62396666D02*
X118721190Y-62730000D01*
X119197380Y-62968095D02*
X118197380Y-62968095D01*
X118197380Y-62587142D01*
X118245000Y-62491904D01*
X118292619Y-62444285D01*
X118387857Y-62396666D01*
X118530714Y-62396666D01*
X118625952Y-62444285D01*
X118673571Y-62491904D01*
X118721190Y-62587142D01*
X118721190Y-62968095D01*
X118197380Y-62063333D02*
X118197380Y-61444285D01*
X118578333Y-61777619D01*
X118578333Y-61634761D01*
X118625952Y-61539523D01*
X118673571Y-61491904D01*
X118768809Y-61444285D01*
X119006904Y-61444285D01*
X119102142Y-61491904D01*
X119149761Y-61539523D01*
X119197380Y-61634761D01*
X119197380Y-61920476D01*
X119149761Y-62015714D01*
X119102142Y-62063333D01*
%TO.C,C1*%
X115927142Y-118509166D02*
X115974761Y-118556785D01*
X116022380Y-118699642D01*
X116022380Y-118794880D01*
X115974761Y-118937738D01*
X115879523Y-119032976D01*
X115784285Y-119080595D01*
X115593809Y-119128214D01*
X115450952Y-119128214D01*
X115260476Y-119080595D01*
X115165238Y-119032976D01*
X115070000Y-118937738D01*
X115022380Y-118794880D01*
X115022380Y-118699642D01*
X115070000Y-118556785D01*
X115117619Y-118509166D01*
X116022380Y-117556785D02*
X116022380Y-118128214D01*
X116022380Y-117842500D02*
X115022380Y-117842500D01*
X115165238Y-117937738D01*
X115260476Y-118032976D01*
X115308095Y-118128214D01*
%TO.C,C8*%
X137512299Y-104051407D02*
X137559918Y-104099026D01*
X137607537Y-104241883D01*
X137607537Y-104337121D01*
X137559918Y-104479979D01*
X137464680Y-104575217D01*
X137369442Y-104622836D01*
X137178966Y-104670455D01*
X137036109Y-104670455D01*
X136845633Y-104622836D01*
X136750395Y-104575217D01*
X136655157Y-104479979D01*
X136607537Y-104337121D01*
X136607537Y-104241883D01*
X136655157Y-104099026D01*
X136702776Y-104051407D01*
X137036109Y-103479979D02*
X136988490Y-103575217D01*
X136940871Y-103622836D01*
X136845633Y-103670455D01*
X136798014Y-103670455D01*
X136702776Y-103622836D01*
X136655157Y-103575217D01*
X136607537Y-103479979D01*
X136607537Y-103289502D01*
X136655157Y-103194264D01*
X136702776Y-103146645D01*
X136798014Y-103099026D01*
X136845633Y-103099026D01*
X136940871Y-103146645D01*
X136988490Y-103194264D01*
X137036109Y-103289502D01*
X137036109Y-103479979D01*
X137083728Y-103575217D01*
X137131347Y-103622836D01*
X137226585Y-103670455D01*
X137417061Y-103670455D01*
X137512299Y-103622836D01*
X137559918Y-103575217D01*
X137607537Y-103479979D01*
X137607537Y-103289502D01*
X137559918Y-103194264D01*
X137512299Y-103146645D01*
X137417061Y-103099026D01*
X137226585Y-103099026D01*
X137131347Y-103146645D01*
X137083728Y-103194264D01*
X137036109Y-103289502D01*
%TO.C,C6*%
X138787142Y-98087435D02*
X138834761Y-98135054D01*
X138882380Y-98277911D01*
X138882380Y-98373149D01*
X138834761Y-98516007D01*
X138739523Y-98611245D01*
X138644285Y-98658864D01*
X138453809Y-98706483D01*
X138310952Y-98706483D01*
X138120476Y-98658864D01*
X138025238Y-98611245D01*
X137930000Y-98516007D01*
X137882380Y-98373149D01*
X137882380Y-98277911D01*
X137930000Y-98135054D01*
X137977619Y-98087435D01*
X137882380Y-97230292D02*
X137882380Y-97420769D01*
X137930000Y-97516007D01*
X137977619Y-97563626D01*
X138120476Y-97658864D01*
X138310952Y-97706483D01*
X138691904Y-97706483D01*
X138787142Y-97658864D01*
X138834761Y-97611245D01*
X138882380Y-97516007D01*
X138882380Y-97325530D01*
X138834761Y-97230292D01*
X138787142Y-97182673D01*
X138691904Y-97135054D01*
X138453809Y-97135054D01*
X138358571Y-97182673D01*
X138310952Y-97230292D01*
X138263333Y-97325530D01*
X138263333Y-97516007D01*
X138310952Y-97611245D01*
X138358571Y-97658864D01*
X138453809Y-97706483D01*
%TO.C,C5*%
X146407142Y-98087435D02*
X146454761Y-98135054D01*
X146502380Y-98277911D01*
X146502380Y-98373149D01*
X146454761Y-98516007D01*
X146359523Y-98611245D01*
X146264285Y-98658864D01*
X146073809Y-98706483D01*
X145930952Y-98706483D01*
X145740476Y-98658864D01*
X145645238Y-98611245D01*
X145550000Y-98516007D01*
X145502380Y-98373149D01*
X145502380Y-98277911D01*
X145550000Y-98135054D01*
X145597619Y-98087435D01*
X145502380Y-97182673D02*
X145502380Y-97658864D01*
X145978571Y-97706483D01*
X145930952Y-97658864D01*
X145883333Y-97563626D01*
X145883333Y-97325530D01*
X145930952Y-97230292D01*
X145978571Y-97182673D01*
X146073809Y-97135054D01*
X146311904Y-97135054D01*
X146407142Y-97182673D01*
X146454761Y-97230292D01*
X146502380Y-97325530D01*
X146502380Y-97563626D01*
X146454761Y-97658864D01*
X146407142Y-97706483D01*
%TO.C,R7*%
X138882380Y-83714935D02*
X138406190Y-84048269D01*
X138882380Y-84286364D02*
X137882380Y-84286364D01*
X137882380Y-83905411D01*
X137930000Y-83810173D01*
X137977619Y-83762554D01*
X138072857Y-83714935D01*
X138215714Y-83714935D01*
X138310952Y-83762554D01*
X138358571Y-83810173D01*
X138406190Y-83905411D01*
X138406190Y-84286364D01*
X137882380Y-83381602D02*
X137882380Y-82714935D01*
X138882380Y-83143507D01*
%TO.C,H2*%
X104013095Y-135072380D02*
X104013095Y-134072380D01*
X104013095Y-134548571D02*
X104584523Y-134548571D01*
X104584523Y-135072380D02*
X104584523Y-134072380D01*
X105013095Y-134167619D02*
X105060714Y-134120000D01*
X105155952Y-134072380D01*
X105394047Y-134072380D01*
X105489285Y-134120000D01*
X105536904Y-134167619D01*
X105584523Y-134262857D01*
X105584523Y-134358095D01*
X105536904Y-134500952D01*
X104965476Y-135072380D01*
X105584523Y-135072380D01*
%TO.C,C3*%
X146407142Y-88392435D02*
X146454761Y-88440054D01*
X146502380Y-88582911D01*
X146502380Y-88678149D01*
X146454761Y-88821007D01*
X146359523Y-88916245D01*
X146264285Y-88963864D01*
X146073809Y-89011483D01*
X145930952Y-89011483D01*
X145740476Y-88963864D01*
X145645238Y-88916245D01*
X145550000Y-88821007D01*
X145502380Y-88678149D01*
X145502380Y-88582911D01*
X145550000Y-88440054D01*
X145597619Y-88392435D01*
X145502380Y-88059102D02*
X145502380Y-87440054D01*
X145883333Y-87773388D01*
X145883333Y-87630530D01*
X145930952Y-87535292D01*
X145978571Y-87487673D01*
X146073809Y-87440054D01*
X146311904Y-87440054D01*
X146407142Y-87487673D01*
X146454761Y-87535292D01*
X146502380Y-87630530D01*
X146502380Y-87916245D01*
X146454761Y-88011483D01*
X146407142Y-88059102D01*
%TO.C,R8*%
X146502380Y-93239935D02*
X146026190Y-93573269D01*
X146502380Y-93811364D02*
X145502380Y-93811364D01*
X145502380Y-93430411D01*
X145550000Y-93335173D01*
X145597619Y-93287554D01*
X145692857Y-93239935D01*
X145835714Y-93239935D01*
X145930952Y-93287554D01*
X145978571Y-93335173D01*
X146026190Y-93430411D01*
X146026190Y-93811364D01*
X145930952Y-92668507D02*
X145883333Y-92763745D01*
X145835714Y-92811364D01*
X145740476Y-92858983D01*
X145692857Y-92858983D01*
X145597619Y-92811364D01*
X145550000Y-92763745D01*
X145502380Y-92668507D01*
X145502380Y-92478030D01*
X145550000Y-92382792D01*
X145597619Y-92335173D01*
X145692857Y-92287554D01*
X145740476Y-92287554D01*
X145835714Y-92335173D01*
X145883333Y-92382792D01*
X145930952Y-92478030D01*
X145930952Y-92668507D01*
X145978571Y-92763745D01*
X146026190Y-92811364D01*
X146121428Y-92858983D01*
X146311904Y-92858983D01*
X146407142Y-92811364D01*
X146454761Y-92763745D01*
X146502380Y-92668507D01*
X146502380Y-92478030D01*
X146454761Y-92382792D01*
X146407142Y-92335173D01*
X146311904Y-92287554D01*
X146121428Y-92287554D01*
X146026190Y-92335173D01*
X145978571Y-92382792D01*
X145930952Y-92478030D01*
%TO.C,R2*%
X121737380Y-62396666D02*
X121261190Y-62730000D01*
X121737380Y-62968095D02*
X120737380Y-62968095D01*
X120737380Y-62587142D01*
X120785000Y-62491904D01*
X120832619Y-62444285D01*
X120927857Y-62396666D01*
X121070714Y-62396666D01*
X121165952Y-62444285D01*
X121213571Y-62491904D01*
X121261190Y-62587142D01*
X121261190Y-62968095D01*
X120832619Y-62015714D02*
X120785000Y-61968095D01*
X120737380Y-61872857D01*
X120737380Y-61634761D01*
X120785000Y-61539523D01*
X120832619Y-61491904D01*
X120927857Y-61444285D01*
X121023095Y-61444285D01*
X121165952Y-61491904D01*
X121737380Y-62063333D01*
X121737380Y-61444285D01*
%TO.C,J2*%
X103942380Y-79713333D02*
X104656666Y-79713333D01*
X104799523Y-79760952D01*
X104894761Y-79856190D01*
X104942380Y-79999047D01*
X104942380Y-80094285D01*
X104037619Y-79284761D02*
X103990000Y-79237142D01*
X103942380Y-79141904D01*
X103942380Y-78903809D01*
X103990000Y-78808571D01*
X104037619Y-78760952D01*
X104132857Y-78713333D01*
X104228095Y-78713333D01*
X104370952Y-78760952D01*
X104942380Y-79332380D01*
X104942380Y-78713333D01*
%TO.C,J1*%
X128357380Y-79708333D02*
X129071666Y-79708333D01*
X129214523Y-79755952D01*
X129309761Y-79851190D01*
X129357380Y-79994047D01*
X129357380Y-80089285D01*
X129357380Y-78708333D02*
X129357380Y-79279761D01*
X129357380Y-78994047D02*
X128357380Y-78994047D01*
X128500238Y-79089285D01*
X128595476Y-79184523D01*
X128643095Y-79279761D01*
D11*
%TO.C,R5*%
X114400000Y-65812936D02*
X114400000Y-66267064D01*
X112930000Y-65812936D02*
X112930000Y-66267064D01*
%TO.C,C7*%
X140544437Y-114883269D02*
X145000000Y-114883269D01*
X145000000Y-109363269D02*
X145000000Y-111063269D01*
X139480000Y-113818832D02*
X140544437Y-114883269D01*
X139480000Y-113818832D02*
X139480000Y-113183269D01*
X139480000Y-110427706D02*
X139480000Y-111063269D01*
X138927500Y-110125769D02*
X138927500Y-110750769D01*
X145000000Y-114883269D02*
X145000000Y-113183269D01*
X138615000Y-110438269D02*
X139240000Y-110438269D01*
X139480000Y-110427706D02*
X140544437Y-109363269D01*
X140544437Y-109363269D02*
X145000000Y-109363269D01*
%TO.C,R4*%
X116940000Y-65812936D02*
X116940000Y-66267064D01*
X115470000Y-65812936D02*
X115470000Y-66267064D01*
%TO.C,J3*%
X143510000Y-76260000D02*
X138370000Y-76260000D01*
X143510000Y-73600000D02*
X138370000Y-73600000D01*
X144780000Y-73600000D02*
X146110000Y-73600000D01*
X146110000Y-73600000D02*
X146110000Y-74930000D01*
X138370000Y-73600000D02*
X138370000Y-76260000D01*
X143510000Y-73600000D02*
X143510000Y-76260000D01*
%TO.C,C4*%
X139600000Y-88487021D02*
X139600000Y-87964517D01*
X141070000Y-88487021D02*
X141070000Y-87964517D01*
%TO.C,R6*%
X144880000Y-83321205D02*
X144880000Y-83775333D01*
X143410000Y-83321205D02*
X143410000Y-83775333D01*
%TO.C,J4*%
X143510000Y-119683269D02*
X143510000Y-122343269D01*
X146110000Y-119683269D02*
X146110000Y-121013269D01*
X144780000Y-119683269D02*
X146110000Y-119683269D01*
X138370000Y-119683269D02*
X138370000Y-122343269D01*
X143510000Y-122343269D02*
X138370000Y-122343269D01*
X143510000Y-119683269D02*
X138370000Y-119683269D01*
%TO.C,R9*%
X141070000Y-92846205D02*
X141070000Y-93300333D01*
X139600000Y-92846205D02*
X139600000Y-93300333D01*
%TO.C,R1*%
X123090000Y-65812936D02*
X123090000Y-66267064D01*
X124560000Y-65812936D02*
X124560000Y-66267064D01*
%TO.C,C2*%
X118010000Y-98453752D02*
X118010000Y-97931248D01*
X119480000Y-98453752D02*
X119480000Y-97931248D01*
%TO.C,U1*%
X126410000Y-103014000D02*
X126410000Y-101854000D01*
X126790000Y-108204000D02*
X126790000Y-103014000D01*
X126790000Y-113394000D02*
X126410000Y-113394000D01*
X108160000Y-103014000D02*
X108540000Y-103014000D01*
X108160000Y-108204000D02*
X108160000Y-113394000D01*
X126790000Y-108204000D02*
X126790000Y-113394000D01*
X126790000Y-103014000D02*
X126410000Y-103014000D01*
X108160000Y-108204000D02*
X108160000Y-103014000D01*
X108160000Y-113394000D02*
X108540000Y-113394000D01*
%TO.C,R3*%
X118010000Y-65812936D02*
X118010000Y-66267064D01*
X119480000Y-65812936D02*
X119480000Y-66267064D01*
%TO.C,C1*%
X116740000Y-118081248D02*
X116740000Y-118603752D01*
X118210000Y-118081248D02*
X118210000Y-118603752D01*
%TO.C,C8*%
X140544437Y-101108269D02*
X145000000Y-101108269D01*
X138615000Y-102183269D02*
X139240000Y-102183269D01*
X145000000Y-106628269D02*
X145000000Y-104928269D01*
X139480000Y-102172706D02*
X139480000Y-102808269D01*
X145000000Y-101108269D02*
X145000000Y-102808269D01*
X139480000Y-105563832D02*
X140544437Y-106628269D01*
X140544437Y-106628269D02*
X145000000Y-106628269D01*
X139480000Y-105563832D02*
X139480000Y-104928269D01*
X139480000Y-102172706D02*
X140544437Y-101108269D01*
X138927500Y-101870769D02*
X138927500Y-102495769D01*
%TO.C,C6*%
X141070000Y-98182021D02*
X141070000Y-97659517D01*
X139600000Y-98182021D02*
X139600000Y-97659517D01*
%TO.C,C5*%
X143410000Y-97659517D02*
X143410000Y-98182021D01*
X144880000Y-97659517D02*
X144880000Y-98182021D01*
%TO.C,R7*%
X141070000Y-83321205D02*
X141070000Y-83775333D01*
X139600000Y-83321205D02*
X139600000Y-83775333D01*
%TO.C,C3*%
X144880000Y-87964517D02*
X144880000Y-88487021D01*
X143410000Y-87964517D02*
X143410000Y-88487021D01*
%TO.C,R8*%
X144880000Y-92846205D02*
X144880000Y-93300333D01*
X143410000Y-92846205D02*
X143410000Y-93300333D01*
%TO.C,R2*%
X120550000Y-65812936D02*
X120550000Y-66267064D01*
X122020000Y-65812936D02*
X122020000Y-66267064D01*
%TO.C,J2*%
X110040000Y-72920000D02*
X116340000Y-72920000D01*
X107490000Y-85790000D02*
X106330000Y-85790000D01*
X110740000Y-85790000D02*
X116340000Y-85790000D01*
X106330000Y-73030000D02*
X106330000Y-72920000D01*
X106330000Y-85790000D02*
X106330000Y-74530000D01*
X106330000Y-72920000D02*
X108140000Y-72920000D01*
%TD*%
M02*
