%TF.GenerationSoftware,KiCad,Pcbnew,6.0.5*%
%TF.CreationDate,2022-05-15T12:23:51+02:00*%
%TF.ProjectId,hdmi brd,68646d69-2062-4726-942e-6b696361645f,rev?*%
%TF.SameCoordinates,Original*%
%TF.FileFunction,Copper,L2,Bot*%
%TF.FilePolarity,Positive*%
%FSLAX46Y46*%
G04 Gerber Fmt 4.6, Leading zero omitted, Abs format (unit mm)*
G04 Created by KiCad (PCBNEW 6.0.5) date 2022-05-15 12:23:51*
%MOMM*%
%LPD*%
G01*
G04 APERTURE LIST*
%TA.AperFunction,ComponentPad*%
%ADD10O,1.778000X3.556000*%
%TD*%
%TA.AperFunction,ComponentPad*%
%ADD11C,5.600000*%
%TD*%
%TA.AperFunction,ComponentPad*%
%ADD12R,1.700000X1.700000*%
%TD*%
%TA.AperFunction,ComponentPad*%
%ADD13O,1.700000X1.700000*%
%TD*%
%TA.AperFunction,ViaPad*%
%ADD14C,0.800000*%
%TD*%
%TA.AperFunction,Conductor*%
%ADD15C,0.400000*%
%TD*%
%TA.AperFunction,Conductor*%
%ADD16C,0.250000*%
%TD*%
G04 APERTURE END LIST*
D10*
%TO.P,J2,Z1*%
%TO.N,N/C*%
X106056000Y-55715000D03*
%TO.P,J2,Z4*%
X91556000Y-55715000D03*
%TO.P,J2,Z2*%
X106056000Y-49715000D03*
%TO.P,J2,Z3*%
X91556000Y-49715000D03*
%TD*%
D11*
%TO.P,H2,1*%
%TO.N,N/C*%
X111760000Y-125222000D03*
%TD*%
%TO.P,H1,1*%
%TO.N,N/C*%
X111760000Y-50038000D03*
%TD*%
D12*
%TO.P,J1,1,Pin_1*%
%TO.N,GND*%
X76200000Y-48260000D03*
D13*
%TO.P,J1,2,Pin_2*%
X78740000Y-48260000D03*
%TO.P,J1,3,Pin_3*%
%TO.N,3V3*%
X76200000Y-50800000D03*
%TO.P,J1,4,Pin_4*%
X78740000Y-50800000D03*
%TO.P,J1,5,Pin_5*%
%TO.N,GND*%
X76200000Y-53340000D03*
%TO.P,J1,6,Pin_6*%
X78740000Y-53340000D03*
%TO.P,J1,7,Pin_7*%
%TO.N,unconnected-(J1-Pad7)*%
X76200000Y-55880000D03*
%TO.P,J1,8,Pin_8*%
%TO.N,unconnected-(J1-Pad8)*%
X78740000Y-55880000D03*
%TO.P,J1,9,Pin_9*%
%TO.N,unconnected-(J1-Pad9)*%
X76200000Y-58420000D03*
%TO.P,J1,10,Pin_10*%
%TO.N,unconnected-(J1-Pad10)*%
X78740000Y-58420000D03*
%TO.P,J1,11,Pin_11*%
%TO.N,unconnected-(J1-Pad11)*%
X76200000Y-60960000D03*
%TO.P,J1,12,Pin_12*%
%TO.N,unconnected-(J1-Pad12)*%
X78740000Y-60960000D03*
%TO.P,J1,13,Pin_13*%
%TO.N,SDA*%
X76200000Y-63500000D03*
%TO.P,J1,14,Pin_14*%
%TO.N,SCL*%
X78740000Y-63500000D03*
%TO.P,J1,15,Pin_15*%
%TO.N,B6*%
X76200000Y-66040000D03*
%TO.P,J1,16,Pin_16*%
%TO.N,B7*%
X78740000Y-66040000D03*
%TO.P,J1,17,Pin_17*%
%TO.N,B4*%
X76200000Y-68580000D03*
%TO.P,J1,18,Pin_18*%
%TO.N,B5*%
X78740000Y-68580000D03*
%TO.P,J1,19,Pin_19*%
%TO.N,B2*%
X76200000Y-71120000D03*
%TO.P,J1,20,Pin_20*%
%TO.N,B3*%
X78740000Y-71120000D03*
%TO.P,J1,21,Pin_21*%
%TO.N,B0*%
X76200000Y-73660000D03*
%TO.P,J1,22,Pin_22*%
%TO.N,B1*%
X78740000Y-73660000D03*
%TO.P,J1,23,Pin_23*%
%TO.N,G6*%
X76200000Y-76200000D03*
%TO.P,J1,24,Pin_24*%
%TO.N,G7*%
X78740000Y-76200000D03*
%TO.P,J1,25,Pin_25*%
%TO.N,G4*%
X76200000Y-78740000D03*
%TO.P,J1,26,Pin_26*%
%TO.N,G5*%
X78740000Y-78740000D03*
%TO.P,J1,27,Pin_27*%
%TO.N,G2*%
X76200000Y-81280000D03*
%TO.P,J1,28,Pin_28*%
%TO.N,G3*%
X78740000Y-81280000D03*
%TO.P,J1,29,Pin_29*%
%TO.N,IDCK*%
X76200000Y-83820000D03*
%TO.P,J1,30,Pin_30*%
%TO.N,G1*%
X78740000Y-83820000D03*
%TO.P,J1,31,Pin_31*%
%TO.N,R7*%
X76200000Y-86360000D03*
%TO.P,J1,32,Pin_32*%
%TO.N,G0*%
X78740000Y-86360000D03*
%TO.P,J1,33,Pin_33*%
%TO.N,R5*%
X76200000Y-88900000D03*
%TO.P,J1,34,Pin_34*%
%TO.N,R6*%
X78740000Y-88900000D03*
%TO.P,J1,35,Pin_35*%
%TO.N,R3*%
X76200000Y-91440000D03*
%TO.P,J1,36,Pin_36*%
%TO.N,R4*%
X78740000Y-91440000D03*
%TO.P,J1,37,Pin_37*%
%TO.N,R1*%
X76200000Y-93980000D03*
%TO.P,J1,38,Pin_38*%
%TO.N,R2*%
X78740000Y-93980000D03*
%TO.P,J1,39,Pin_39*%
%TO.N,DE*%
X76200000Y-96520000D03*
%TO.P,J1,40,Pin_40*%
%TO.N,R0*%
X78740000Y-96520000D03*
%TO.P,J1,41,Pin_41*%
%TO.N,VSYNC*%
X76200000Y-99060000D03*
%TO.P,J1,42,Pin_42*%
%TO.N,HSYNC*%
X78740000Y-99060000D03*
%TO.P,J1,43,Pin_43*%
%TO.N,SD0*%
X76200000Y-101600000D03*
%TO.P,J1,44,Pin_44*%
%TO.N,MCLK*%
X78740000Y-101600000D03*
%TO.P,J1,45,Pin_45*%
%TO.N,SCK*%
X76200000Y-104140000D03*
%TO.P,J1,46,Pin_46*%
%TO.N,WS*%
X78740000Y-104140000D03*
%TO.P,J1,47,Pin_47*%
%TO.N,~RESET*%
X76200000Y-106680000D03*
%TO.P,J1,48,Pin_48*%
%TO.N,INT*%
X78740000Y-106680000D03*
%TO.P,J1,49,Pin_49*%
%TO.N,unconnected-(J1-Pad49)*%
X76200000Y-109220000D03*
%TO.P,J1,50,Pin_50*%
%TO.N,unconnected-(J1-Pad50)*%
X78740000Y-109220000D03*
%TO.P,J1,51,Pin_51*%
%TO.N,unconnected-(J1-Pad51)*%
X76200000Y-111760000D03*
%TO.P,J1,52,Pin_52*%
%TO.N,unconnected-(J1-Pad52)*%
X78740000Y-111760000D03*
%TO.P,J1,53,Pin_53*%
%TO.N,unconnected-(J1-Pad53)*%
X76200000Y-114300000D03*
%TO.P,J1,54,Pin_54*%
%TO.N,unconnected-(J1-Pad54)*%
X78740000Y-114300000D03*
%TO.P,J1,55,Pin_55*%
%TO.N,unconnected-(J1-Pad55)*%
X76200000Y-116840000D03*
%TO.P,J1,56,Pin_56*%
%TO.N,unconnected-(J1-Pad56)*%
X78740000Y-116840000D03*
%TO.P,J1,57,Pin_57*%
%TO.N,unconnected-(J1-Pad57)*%
X76200000Y-119380000D03*
%TO.P,J1,58,Pin_58*%
%TO.N,unconnected-(J1-Pad58)*%
X78740000Y-119380000D03*
%TO.P,J1,59,Pin_59*%
%TO.N,unconnected-(J1-Pad59)*%
X76200000Y-121920000D03*
%TO.P,J1,60,Pin_60*%
%TO.N,unconnected-(J1-Pad60)*%
X78740000Y-121920000D03*
%TO.P,J1,61,Pin_61*%
%TO.N,GND*%
X76200000Y-124460000D03*
%TO.P,J1,62,Pin_62*%
X78740000Y-124460000D03*
%TO.P,J1,63,Pin_63*%
%TO.N,VIN*%
X76200000Y-127000000D03*
%TO.P,J1,64,Pin_64*%
X78740000Y-127000000D03*
%TD*%
D14*
%TO.N,GND*%
X99568000Y-109728000D03*
X81788000Y-122174000D03*
X100838000Y-64770000D03*
X98552000Y-54102000D03*
X94234000Y-104140000D03*
X104902000Y-113030000D03*
X114300000Y-78486000D03*
X81788000Y-124460000D03*
X89916000Y-83566000D03*
X94742000Y-76708000D03*
X114300000Y-93472000D03*
X94488000Y-85090000D03*
X106426000Y-120904000D03*
X98298000Y-73152000D03*
X89154000Y-104394000D03*
X114300000Y-100330000D03*
X114300000Y-104394000D03*
X83566000Y-75946000D03*
X94742000Y-73152000D03*
X93271979Y-118470302D03*
X100838000Y-108458000D03*
X84328000Y-60198000D03*
X106680000Y-74930000D03*
X100330000Y-78232000D03*
X107188000Y-91186000D03*
X114300000Y-106426000D03*
X105156000Y-122428000D03*
X85344000Y-58928000D03*
X98552000Y-64769999D03*
X95504000Y-54102000D03*
X96774220Y-71226087D03*
X114300000Y-74422000D03*
X89207979Y-118470302D03*
X102362000Y-54102000D03*
X101600000Y-68580000D03*
X114300000Y-102362000D03*
X94742000Y-74930000D03*
X81788000Y-120142000D03*
X83820000Y-124460000D03*
X114300000Y-89408000D03*
X104140000Y-75438000D03*
X114300000Y-91440000D03*
X92964000Y-105410000D03*
X81788000Y-118110000D03*
X108458000Y-94234000D03*
X87630000Y-82296000D03*
X86106000Y-75946000D03*
X107188000Y-95250000D03*
X101849701Y-81021701D03*
X96520000Y-76708000D03*
X105918000Y-112014000D03*
X85344000Y-56388000D03*
X83566000Y-83566000D03*
X104648000Y-81534000D03*
X94996000Y-64770000D03*
X97028000Y-54102000D03*
X86106000Y-71882000D03*
X114300000Y-80518000D03*
X103886000Y-123698000D03*
X88138000Y-107188000D03*
X114300000Y-76454000D03*
X107188000Y-93218000D03*
X98298000Y-74930000D03*
X108458000Y-90170000D03*
X107188000Y-89154000D03*
X93531668Y-71205505D03*
X84328000Y-55118000D03*
X95250000Y-84328000D03*
X91239979Y-118470302D03*
X84328000Y-57658000D03*
X105410000Y-69850000D03*
X108458000Y-92202000D03*
X114300000Y-87376000D03*
X92964000Y-102870000D03*
X88392000Y-83566000D03*
X99568000Y-107188000D03*
X100330000Y-76200000D03*
X96520000Y-74930000D03*
X96520000Y-73152000D03*
X108458000Y-88138000D03*
X86868000Y-83566000D03*
X84074000Y-68580000D03*
X98298000Y-76708000D03*
X99587427Y-71197859D03*
%TO.N,3V3*%
X84328000Y-117856000D03*
X89916000Y-116078000D03*
%TO.N,/DSCL*%
X103886000Y-63246000D03*
X102362000Y-63246000D03*
%TO.N,/HPD*%
X104716158Y-65717842D03*
X104648000Y-60706000D03*
X103886000Y-67818000D03*
%TO.N,INT*%
X107188000Y-70358000D03*
X109220000Y-70358000D03*
%TO.N,~RESET*%
X109982000Y-71374000D03*
X107183701Y-71369701D03*
%TO.N,AVCC12_1V2*%
X98552000Y-67818000D03*
X94996000Y-67812983D03*
X85090000Y-107442000D03*
%TO.N,CVCC12_1V2*%
X96266000Y-96520000D03*
X103886000Y-78740000D03*
X105410000Y-73406000D03*
X89154137Y-76317547D03*
X96266000Y-82550000D03*
X103886000Y-69088000D03*
X89154000Y-71882000D03*
%TO.N,IOVCC_3V3*%
X91186000Y-82042000D03*
X102875126Y-74680909D03*
X87122000Y-69050500D03*
X91186000Y-101600000D03*
X87122000Y-67564000D03*
%TD*%
D15*
%TO.N,3V3*%
X82296000Y-115824000D02*
X82296000Y-53086000D01*
X85090000Y-117094000D02*
X88900000Y-117094000D01*
X84328000Y-117856000D02*
X82296000Y-115824000D01*
X80010000Y-50800000D02*
X78740000Y-50800000D01*
X82296000Y-53086000D02*
X80010000Y-50800000D01*
X84328000Y-117856000D02*
X85090000Y-117094000D01*
X88900000Y-117094000D02*
X89916000Y-116078000D01*
D16*
%TO.N,/DSCL*%
X102362000Y-63246000D02*
X103886000Y-63246000D01*
%TO.N,/HPD*%
X104716158Y-66987842D02*
X103886000Y-67818000D01*
X104648000Y-60706000D02*
X104716158Y-60774158D01*
X104716158Y-60774158D02*
X104716158Y-66987842D01*
%TO.N,INT*%
X109220000Y-70358000D02*
X107188000Y-70358000D01*
%TO.N,~RESET*%
X107183701Y-71369701D02*
X107188000Y-71374000D01*
X107188000Y-71374000D02*
X109982000Y-71374000D01*
D15*
%TO.N,AVCC12_1V2*%
X95001017Y-67818000D02*
X98552000Y-67818000D01*
X88392000Y-65532000D02*
X90672983Y-67812983D01*
X85090000Y-107442000D02*
X85090000Y-66802000D01*
X85090000Y-66802000D02*
X86360000Y-65532000D01*
D16*
X94996000Y-67812983D02*
X95001017Y-67818000D01*
D15*
X90672983Y-67812983D02*
X94996000Y-67812983D01*
X86360000Y-65532000D02*
X88392000Y-65532000D01*
%TO.N,CVCC12_1V2*%
X96266000Y-82550000D02*
X96266000Y-96520000D01*
D16*
X89154000Y-76317410D02*
X89154137Y-76317547D01*
D15*
X103886000Y-69600307D02*
X103886000Y-69088000D01*
X90033547Y-76317547D02*
X96266000Y-82550000D01*
X105410000Y-73406000D02*
X104648000Y-72644000D01*
X102108000Y-82550000D02*
X96266000Y-82550000D01*
X89154137Y-76317547D02*
X90033547Y-76317547D01*
X103886000Y-78740000D02*
X103886000Y-80772000D01*
X104648000Y-72644000D02*
X104648000Y-70362307D01*
X105410000Y-77216000D02*
X105410000Y-73406000D01*
X89154000Y-71882000D02*
X89154000Y-76317410D01*
X103886000Y-80772000D02*
X102108000Y-82550000D01*
X104648000Y-70362307D02*
X103886000Y-69600307D01*
X103886000Y-78740000D02*
X105410000Y-77216000D01*
%TO.N,IOVCC_3V3*%
X87122000Y-69050500D02*
X87122000Y-67564000D01*
X87122000Y-69050500D02*
X87921500Y-69850000D01*
X87921500Y-69850000D02*
X100937540Y-69850000D01*
X100937540Y-69850000D02*
X102870000Y-71782460D01*
X87122000Y-69050500D02*
X87122000Y-77978000D01*
X102870000Y-74675783D02*
X102875126Y-74680909D01*
X91186000Y-101600000D02*
X91186000Y-82042000D01*
X102870000Y-71782460D02*
X102870000Y-74675783D01*
X87122000Y-77978000D02*
X91186000Y-82042000D01*
%TD*%
%TA.AperFunction,Conductor*%
%TO.N,GND*%
G36*
X115765621Y-46248502D02*
G01*
X115812114Y-46302158D01*
X115823500Y-46354500D01*
X115823500Y-128905500D01*
X115803498Y-128973621D01*
X115749842Y-129020114D01*
X115697500Y-129031500D01*
X74294500Y-129031500D01*
X74226379Y-129011498D01*
X74179886Y-128957842D01*
X74168500Y-128905500D01*
X74168500Y-126966695D01*
X74837251Y-126966695D01*
X74837548Y-126971848D01*
X74837548Y-126971851D01*
X74843011Y-127066590D01*
X74850110Y-127189715D01*
X74851247Y-127194761D01*
X74851248Y-127194767D01*
X74871119Y-127282939D01*
X74899222Y-127407639D01*
X74983266Y-127614616D01*
X75034019Y-127697438D01*
X75097291Y-127800688D01*
X75099987Y-127805088D01*
X75246250Y-127973938D01*
X75418126Y-128116632D01*
X75611000Y-128229338D01*
X75819692Y-128309030D01*
X75824760Y-128310061D01*
X75824763Y-128310062D01*
X75932017Y-128331883D01*
X76038597Y-128353567D01*
X76043772Y-128353757D01*
X76043774Y-128353757D01*
X76256673Y-128361564D01*
X76256677Y-128361564D01*
X76261837Y-128361753D01*
X76266957Y-128361097D01*
X76266959Y-128361097D01*
X76478288Y-128334025D01*
X76478289Y-128334025D01*
X76483416Y-128333368D01*
X76488366Y-128331883D01*
X76692429Y-128270661D01*
X76692434Y-128270659D01*
X76697384Y-128269174D01*
X76897994Y-128170896D01*
X77079860Y-128041173D01*
X77238096Y-127883489D01*
X77297594Y-127800689D01*
X77368453Y-127702077D01*
X77369776Y-127703028D01*
X77416645Y-127659857D01*
X77486580Y-127647625D01*
X77552026Y-127675144D01*
X77579875Y-127706994D01*
X77639987Y-127805088D01*
X77786250Y-127973938D01*
X77958126Y-128116632D01*
X78151000Y-128229338D01*
X78359692Y-128309030D01*
X78364760Y-128310061D01*
X78364763Y-128310062D01*
X78472017Y-128331883D01*
X78578597Y-128353567D01*
X78583772Y-128353757D01*
X78583774Y-128353757D01*
X78796673Y-128361564D01*
X78796677Y-128361564D01*
X78801837Y-128361753D01*
X78806957Y-128361097D01*
X78806959Y-128361097D01*
X79018288Y-128334025D01*
X79018289Y-128334025D01*
X79023416Y-128333368D01*
X79028366Y-128331883D01*
X79232429Y-128270661D01*
X79232434Y-128270659D01*
X79237384Y-128269174D01*
X79437994Y-128170896D01*
X79619860Y-128041173D01*
X79778096Y-127883489D01*
X79837594Y-127800689D01*
X79905435Y-127706277D01*
X79908453Y-127702077D01*
X79929320Y-127659857D01*
X80005136Y-127506453D01*
X80005137Y-127506451D01*
X80007430Y-127501811D01*
X80072370Y-127288069D01*
X80101529Y-127066590D01*
X80103156Y-127000000D01*
X80084852Y-126777361D01*
X80030431Y-126560702D01*
X79941354Y-126355840D01*
X79884437Y-126267859D01*
X79822822Y-126172617D01*
X79822820Y-126172614D01*
X79820014Y-126168277D01*
X79669670Y-126003051D01*
X79665619Y-125999852D01*
X79665615Y-125999848D01*
X79498414Y-125867800D01*
X79498410Y-125867798D01*
X79494359Y-125864598D01*
X79452569Y-125841529D01*
X79402598Y-125791097D01*
X79387826Y-125721654D01*
X79412942Y-125655248D01*
X79440294Y-125628641D01*
X79615328Y-125503792D01*
X79623200Y-125497139D01*
X79774052Y-125346812D01*
X79780730Y-125338965D01*
X79873088Y-125210434D01*
X108446661Y-125210434D01*
X108464792Y-125568340D01*
X108465329Y-125571695D01*
X108465330Y-125571701D01*
X108483008Y-125682069D01*
X108521470Y-125922195D01*
X108616033Y-126267859D01*
X108747374Y-126601288D01*
X108913957Y-126918582D01*
X108915858Y-126921411D01*
X108915864Y-126921421D01*
X109015644Y-127069908D01*
X109113834Y-127216029D01*
X109344665Y-127490150D01*
X109603751Y-127737738D01*
X109888061Y-127955897D01*
X109917733Y-127973938D01*
X110191355Y-128140303D01*
X110191360Y-128140306D01*
X110194270Y-128142075D01*
X110197358Y-128143521D01*
X110197357Y-128143521D01*
X110515710Y-128292649D01*
X110515720Y-128292653D01*
X110518794Y-128294093D01*
X110522012Y-128295195D01*
X110522015Y-128295196D01*
X110854615Y-128409071D01*
X110854623Y-128409073D01*
X110857838Y-128410174D01*
X111207435Y-128488959D01*
X111259728Y-128494917D01*
X111560114Y-128529142D01*
X111560122Y-128529142D01*
X111563497Y-128529527D01*
X111566901Y-128529545D01*
X111566904Y-128529545D01*
X111761227Y-128530562D01*
X111921857Y-128531403D01*
X111925243Y-128531053D01*
X111925245Y-128531053D01*
X112274932Y-128494917D01*
X112274941Y-128494916D01*
X112278324Y-128494566D01*
X112281657Y-128493852D01*
X112281660Y-128493851D01*
X112454186Y-128456864D01*
X112628727Y-128419446D01*
X112968968Y-128306922D01*
X113295066Y-128158311D01*
X113389052Y-128102506D01*
X113600262Y-127977099D01*
X113600267Y-127977096D01*
X113603207Y-127975350D01*
X113610292Y-127970031D01*
X113835833Y-127800689D01*
X113889786Y-127760180D01*
X114151451Y-127515319D01*
X114385140Y-127243630D01*
X114506816Y-127066590D01*
X114586190Y-126951101D01*
X114586195Y-126951094D01*
X114588120Y-126948292D01*
X114589732Y-126945298D01*
X114589737Y-126945290D01*
X114756395Y-126635772D01*
X114758017Y-126632760D01*
X114871700Y-126352792D01*
X114891562Y-126303877D01*
X114891564Y-126303872D01*
X114892842Y-126300724D01*
X114893888Y-126297054D01*
X114923527Y-126193006D01*
X114991020Y-125956070D01*
X115006656Y-125864598D01*
X115050829Y-125606175D01*
X115050829Y-125606173D01*
X115051401Y-125602828D01*
X115053231Y-125572916D01*
X115073168Y-125246928D01*
X115073278Y-125245131D01*
X115073359Y-125222000D01*
X115053979Y-124864159D01*
X114996066Y-124510505D01*
X114900297Y-124165173D01*
X114897243Y-124157497D01*
X114769052Y-123835369D01*
X114767793Y-123832205D01*
X114657955Y-123624757D01*
X114601702Y-123518513D01*
X114601698Y-123518506D01*
X114600103Y-123515494D01*
X114399190Y-123218746D01*
X114325126Y-123131412D01*
X114281333Y-123079774D01*
X114167403Y-122945432D01*
X113907454Y-122698750D01*
X113622384Y-122481585D01*
X113619472Y-122479828D01*
X113619467Y-122479825D01*
X113318443Y-122298236D01*
X113318437Y-122298233D01*
X113315528Y-122296478D01*
X112990475Y-122145593D01*
X112820751Y-122088145D01*
X112654255Y-122031789D01*
X112654250Y-122031788D01*
X112651028Y-122030697D01*
X112436965Y-121983240D01*
X112304493Y-121953871D01*
X112304487Y-121953870D01*
X112301158Y-121953132D01*
X112297769Y-121952758D01*
X112297764Y-121952757D01*
X111948338Y-121914180D01*
X111948333Y-121914180D01*
X111944957Y-121913807D01*
X111941558Y-121913801D01*
X111941557Y-121913801D01*
X111772080Y-121913505D01*
X111586592Y-121913182D01*
X111473413Y-121925277D01*
X111233639Y-121950901D01*
X111233631Y-121950902D01*
X111230256Y-121951263D01*
X110880117Y-122027606D01*
X110540271Y-122141317D01*
X110537178Y-122142739D01*
X110537177Y-122142740D01*
X110530974Y-122145593D01*
X110214694Y-122291066D01*
X110211760Y-122292822D01*
X110211758Y-122292823D01*
X110019846Y-122407680D01*
X109907193Y-122475101D01*
X109904467Y-122477163D01*
X109904465Y-122477164D01*
X109784855Y-122567625D01*
X109621367Y-122691270D01*
X109618882Y-122693612D01*
X109618877Y-122693616D01*
X109521626Y-122785261D01*
X109360559Y-122937043D01*
X109127819Y-123209546D01*
X109125900Y-123212358D01*
X109125897Y-123212363D01*
X109088649Y-123266967D01*
X108925871Y-123505591D01*
X108757077Y-123821714D01*
X108623411Y-124154218D01*
X108622491Y-124157492D01*
X108622489Y-124157497D01*
X108608856Y-124206000D01*
X108526437Y-124499213D01*
X108467290Y-124852663D01*
X108446661Y-125210434D01*
X79873088Y-125210434D01*
X79905003Y-125166020D01*
X79910313Y-125157183D01*
X80004670Y-124966267D01*
X80008469Y-124956672D01*
X80070377Y-124752910D01*
X80072555Y-124742837D01*
X80073986Y-124731962D01*
X80071775Y-124717778D01*
X80058617Y-124714000D01*
X74883225Y-124714000D01*
X74869694Y-124717973D01*
X74868257Y-124727966D01*
X74898565Y-124862446D01*
X74901645Y-124872275D01*
X74981770Y-125069603D01*
X74986413Y-125078794D01*
X75097694Y-125260388D01*
X75103777Y-125268699D01*
X75243213Y-125429667D01*
X75250580Y-125436883D01*
X75414434Y-125572916D01*
X75422881Y-125578831D01*
X75491969Y-125619203D01*
X75540693Y-125670842D01*
X75553764Y-125740625D01*
X75527033Y-125806396D01*
X75486584Y-125839752D01*
X75473607Y-125846507D01*
X75469474Y-125849610D01*
X75469471Y-125849612D01*
X75323318Y-125959347D01*
X75294965Y-125980635D01*
X75140629Y-126142138D01*
X75014743Y-126326680D01*
X74920688Y-126529305D01*
X74860989Y-126744570D01*
X74837251Y-126966695D01*
X74168500Y-126966695D01*
X74168500Y-121886695D01*
X74837251Y-121886695D01*
X74837548Y-121891848D01*
X74837548Y-121891851D01*
X74843011Y-121986590D01*
X74850110Y-122109715D01*
X74851247Y-122114761D01*
X74851248Y-122114767D01*
X74858519Y-122147030D01*
X74899222Y-122327639D01*
X74937461Y-122421811D01*
X74961733Y-122481585D01*
X74983266Y-122534616D01*
X75034019Y-122617438D01*
X75097291Y-122720688D01*
X75099987Y-122725088D01*
X75246250Y-122893938D01*
X75418126Y-123036632D01*
X75491955Y-123079774D01*
X75540679Y-123131412D01*
X75553750Y-123201195D01*
X75527019Y-123266967D01*
X75486562Y-123300327D01*
X75478457Y-123304546D01*
X75469738Y-123310036D01*
X75299433Y-123437905D01*
X75291726Y-123444748D01*
X75144590Y-123598717D01*
X75138104Y-123606727D01*
X75018098Y-123782649D01*
X75013000Y-123791623D01*
X74923338Y-123984783D01*
X74919775Y-123994470D01*
X74864389Y-124194183D01*
X74865912Y-124202607D01*
X74878292Y-124206000D01*
X80058344Y-124206000D01*
X80071875Y-124202027D01*
X80073180Y-124192947D01*
X80031214Y-124025875D01*
X80027894Y-124016124D01*
X79942972Y-123820814D01*
X79938105Y-123811739D01*
X79822426Y-123632926D01*
X79816136Y-123624757D01*
X79672806Y-123467240D01*
X79665273Y-123460215D01*
X79498139Y-123328222D01*
X79489556Y-123322520D01*
X79452602Y-123302120D01*
X79402631Y-123251687D01*
X79387859Y-123182245D01*
X79412975Y-123115839D01*
X79440327Y-123089232D01*
X79463797Y-123072491D01*
X79619860Y-122961173D01*
X79638010Y-122943087D01*
X79774435Y-122807137D01*
X79778096Y-122803489D01*
X79837594Y-122720689D01*
X79905435Y-122626277D01*
X79908453Y-122622077D01*
X79929320Y-122579857D01*
X80005136Y-122426453D01*
X80005137Y-122426451D01*
X80007430Y-122421811D01*
X80046620Y-122292823D01*
X80070865Y-122213023D01*
X80070865Y-122213021D01*
X80072370Y-122208069D01*
X80101529Y-121986590D01*
X80101611Y-121983240D01*
X80103074Y-121923365D01*
X80103074Y-121923361D01*
X80103156Y-121920000D01*
X80084852Y-121697361D01*
X80030431Y-121480702D01*
X79941354Y-121275840D01*
X79820014Y-121088277D01*
X79669670Y-120923051D01*
X79665619Y-120919852D01*
X79665615Y-120919848D01*
X79498414Y-120787800D01*
X79498410Y-120787798D01*
X79494359Y-120784598D01*
X79453053Y-120761796D01*
X79403084Y-120711364D01*
X79388312Y-120641921D01*
X79413428Y-120575516D01*
X79440780Y-120548909D01*
X79484603Y-120517650D01*
X79619860Y-120421173D01*
X79778096Y-120263489D01*
X79837594Y-120180689D01*
X79905435Y-120086277D01*
X79908453Y-120082077D01*
X79929320Y-120039857D01*
X80005136Y-119886453D01*
X80005137Y-119886451D01*
X80007430Y-119881811D01*
X80072370Y-119668069D01*
X80101529Y-119446590D01*
X80103156Y-119380000D01*
X80084852Y-119157361D01*
X80030431Y-118940702D01*
X79941354Y-118735840D01*
X79820014Y-118548277D01*
X79669670Y-118383051D01*
X79665619Y-118379852D01*
X79665615Y-118379848D01*
X79498414Y-118247800D01*
X79498410Y-118247798D01*
X79494359Y-118244598D01*
X79453053Y-118221796D01*
X79403084Y-118171364D01*
X79388312Y-118101921D01*
X79413428Y-118035516D01*
X79440780Y-118008909D01*
X79484603Y-117977650D01*
X79619860Y-117881173D01*
X79778096Y-117723489D01*
X79837594Y-117640689D01*
X79905435Y-117546277D01*
X79908453Y-117542077D01*
X79929320Y-117499857D01*
X80005136Y-117346453D01*
X80005137Y-117346451D01*
X80007430Y-117341811D01*
X80072370Y-117128069D01*
X80101529Y-116906590D01*
X80102445Y-116869118D01*
X80103074Y-116843365D01*
X80103074Y-116843361D01*
X80103156Y-116840000D01*
X80084852Y-116617361D01*
X80030431Y-116400702D01*
X79941354Y-116195840D01*
X79874058Y-116091816D01*
X79822822Y-116012617D01*
X79822820Y-116012614D01*
X79820014Y-116008277D01*
X79669670Y-115843051D01*
X79665619Y-115839852D01*
X79665615Y-115839848D01*
X79498414Y-115707800D01*
X79498410Y-115707798D01*
X79494359Y-115704598D01*
X79453053Y-115681796D01*
X79403084Y-115631364D01*
X79388312Y-115561921D01*
X79413428Y-115495516D01*
X79440780Y-115468909D01*
X79484603Y-115437650D01*
X79619860Y-115341173D01*
X79670447Y-115290763D01*
X79701209Y-115260107D01*
X79778096Y-115183489D01*
X79837594Y-115100689D01*
X79905435Y-115006277D01*
X79908453Y-115002077D01*
X79929320Y-114959857D01*
X80005136Y-114806453D01*
X80005137Y-114806451D01*
X80007430Y-114801811D01*
X80072370Y-114588069D01*
X80101529Y-114366590D01*
X80103156Y-114300000D01*
X80084852Y-114077361D01*
X80030431Y-113860702D01*
X79941354Y-113655840D01*
X79820014Y-113468277D01*
X79669670Y-113303051D01*
X79665619Y-113299852D01*
X79665615Y-113299848D01*
X79498414Y-113167800D01*
X79498410Y-113167798D01*
X79494359Y-113164598D01*
X79453053Y-113141796D01*
X79403084Y-113091364D01*
X79388312Y-113021921D01*
X79413428Y-112955516D01*
X79440780Y-112928909D01*
X79484603Y-112897650D01*
X79619860Y-112801173D01*
X79778096Y-112643489D01*
X79837594Y-112560689D01*
X79905435Y-112466277D01*
X79908453Y-112462077D01*
X79929320Y-112419857D01*
X80005136Y-112266453D01*
X80005137Y-112266451D01*
X80007430Y-112261811D01*
X80072370Y-112048069D01*
X80101529Y-111826590D01*
X80103156Y-111760000D01*
X80084852Y-111537361D01*
X80030431Y-111320702D01*
X79941354Y-111115840D01*
X79820014Y-110928277D01*
X79669670Y-110763051D01*
X79665619Y-110759852D01*
X79665615Y-110759848D01*
X79498414Y-110627800D01*
X79498410Y-110627798D01*
X79494359Y-110624598D01*
X79453053Y-110601796D01*
X79403084Y-110551364D01*
X79388312Y-110481921D01*
X79413428Y-110415516D01*
X79440780Y-110388909D01*
X79484603Y-110357650D01*
X79619860Y-110261173D01*
X79778096Y-110103489D01*
X79837594Y-110020689D01*
X79905435Y-109926277D01*
X79908453Y-109922077D01*
X79929320Y-109879857D01*
X80005136Y-109726453D01*
X80005137Y-109726451D01*
X80007430Y-109721811D01*
X80072370Y-109508069D01*
X80101529Y-109286590D01*
X80103156Y-109220000D01*
X80084852Y-108997361D01*
X80030431Y-108780702D01*
X79941354Y-108575840D01*
X79820014Y-108388277D01*
X79669670Y-108223051D01*
X79665619Y-108219852D01*
X79665615Y-108219848D01*
X79498414Y-108087800D01*
X79498410Y-108087798D01*
X79494359Y-108084598D01*
X79453053Y-108061796D01*
X79403084Y-108011364D01*
X79388312Y-107941921D01*
X79413428Y-107875516D01*
X79440780Y-107848909D01*
X79499154Y-107807271D01*
X79619860Y-107721173D01*
X79778096Y-107563489D01*
X79837594Y-107480689D01*
X79905435Y-107386277D01*
X79908453Y-107382077D01*
X79929320Y-107339857D01*
X80005136Y-107186453D01*
X80005137Y-107186451D01*
X80007430Y-107181811D01*
X80072370Y-106968069D01*
X80101529Y-106746590D01*
X80103156Y-106680000D01*
X80084852Y-106457361D01*
X80030431Y-106240702D01*
X79941354Y-106035840D01*
X79820014Y-105848277D01*
X79669670Y-105683051D01*
X79665619Y-105679852D01*
X79665615Y-105679848D01*
X79498414Y-105547800D01*
X79498410Y-105547798D01*
X79494359Y-105544598D01*
X79453053Y-105521796D01*
X79403084Y-105471364D01*
X79388312Y-105401921D01*
X79413428Y-105335516D01*
X79440780Y-105308909D01*
X79484603Y-105277650D01*
X79619860Y-105181173D01*
X79778096Y-105023489D01*
X79837594Y-104940689D01*
X79905435Y-104846277D01*
X79908453Y-104842077D01*
X79929320Y-104799857D01*
X80005136Y-104646453D01*
X80005137Y-104646451D01*
X80007430Y-104641811D01*
X80072370Y-104428069D01*
X80101529Y-104206590D01*
X80103156Y-104140000D01*
X80084852Y-103917361D01*
X80030431Y-103700702D01*
X79941354Y-103495840D01*
X79820014Y-103308277D01*
X79669670Y-103143051D01*
X79665619Y-103139852D01*
X79665615Y-103139848D01*
X79498414Y-103007800D01*
X79498410Y-103007798D01*
X79494359Y-103004598D01*
X79453053Y-102981796D01*
X79403084Y-102931364D01*
X79388312Y-102861921D01*
X79413428Y-102795516D01*
X79440780Y-102768909D01*
X79484603Y-102737650D01*
X79619860Y-102641173D01*
X79778096Y-102483489D01*
X79787670Y-102470166D01*
X79905435Y-102306277D01*
X79908453Y-102302077D01*
X79918006Y-102282749D01*
X80005136Y-102106453D01*
X80005137Y-102106451D01*
X80007430Y-102101811D01*
X80072370Y-101888069D01*
X80101529Y-101666590D01*
X80103156Y-101600000D01*
X80084852Y-101377361D01*
X80030431Y-101160702D01*
X79941354Y-100955840D01*
X79820014Y-100768277D01*
X79669670Y-100603051D01*
X79665619Y-100599852D01*
X79665615Y-100599848D01*
X79498414Y-100467800D01*
X79498410Y-100467798D01*
X79494359Y-100464598D01*
X79453053Y-100441796D01*
X79403084Y-100391364D01*
X79388312Y-100321921D01*
X79413428Y-100255516D01*
X79440780Y-100228909D01*
X79484603Y-100197650D01*
X79619860Y-100101173D01*
X79778096Y-99943489D01*
X79837594Y-99860689D01*
X79905435Y-99766277D01*
X79908453Y-99762077D01*
X79929320Y-99719857D01*
X80005136Y-99566453D01*
X80005137Y-99566451D01*
X80007430Y-99561811D01*
X80072370Y-99348069D01*
X80101529Y-99126590D01*
X80103156Y-99060000D01*
X80084852Y-98837361D01*
X80030431Y-98620702D01*
X79941354Y-98415840D01*
X79820014Y-98228277D01*
X79669670Y-98063051D01*
X79665619Y-98059852D01*
X79665615Y-98059848D01*
X79498414Y-97927800D01*
X79498410Y-97927798D01*
X79494359Y-97924598D01*
X79453053Y-97901796D01*
X79403084Y-97851364D01*
X79388312Y-97781921D01*
X79413428Y-97715516D01*
X79440780Y-97688909D01*
X79484603Y-97657650D01*
X79619860Y-97561173D01*
X79778096Y-97403489D01*
X79787670Y-97390166D01*
X79905435Y-97226277D01*
X79908453Y-97222077D01*
X79918006Y-97202749D01*
X80005136Y-97026453D01*
X80005137Y-97026451D01*
X80007430Y-97021811D01*
X80072370Y-96808069D01*
X80101529Y-96586590D01*
X80103156Y-96520000D01*
X80084852Y-96297361D01*
X80030431Y-96080702D01*
X79941354Y-95875840D01*
X79820014Y-95688277D01*
X79669670Y-95523051D01*
X79665619Y-95519852D01*
X79665615Y-95519848D01*
X79498414Y-95387800D01*
X79498410Y-95387798D01*
X79494359Y-95384598D01*
X79453053Y-95361796D01*
X79403084Y-95311364D01*
X79388312Y-95241921D01*
X79413428Y-95175516D01*
X79440780Y-95148909D01*
X79484603Y-95117650D01*
X79619860Y-95021173D01*
X79778096Y-94863489D01*
X79837594Y-94780689D01*
X79905435Y-94686277D01*
X79908453Y-94682077D01*
X79929320Y-94639857D01*
X80005136Y-94486453D01*
X80005137Y-94486451D01*
X80007430Y-94481811D01*
X80072370Y-94268069D01*
X80101529Y-94046590D01*
X80103156Y-93980000D01*
X80084852Y-93757361D01*
X80030431Y-93540702D01*
X79941354Y-93335840D01*
X79820014Y-93148277D01*
X79669670Y-92983051D01*
X79665619Y-92979852D01*
X79665615Y-92979848D01*
X79498414Y-92847800D01*
X79498410Y-92847798D01*
X79494359Y-92844598D01*
X79453053Y-92821796D01*
X79403084Y-92771364D01*
X79388312Y-92701921D01*
X79413428Y-92635516D01*
X79440780Y-92608909D01*
X79484603Y-92577650D01*
X79619860Y-92481173D01*
X79778096Y-92323489D01*
X79837594Y-92240689D01*
X79905435Y-92146277D01*
X79908453Y-92142077D01*
X79929320Y-92099857D01*
X80005136Y-91946453D01*
X80005137Y-91946451D01*
X80007430Y-91941811D01*
X80072370Y-91728069D01*
X80101529Y-91506590D01*
X80103156Y-91440000D01*
X80084852Y-91217361D01*
X80030431Y-91000702D01*
X79941354Y-90795840D01*
X79820014Y-90608277D01*
X79669670Y-90443051D01*
X79665619Y-90439852D01*
X79665615Y-90439848D01*
X79498414Y-90307800D01*
X79498410Y-90307798D01*
X79494359Y-90304598D01*
X79453053Y-90281796D01*
X79403084Y-90231364D01*
X79388312Y-90161921D01*
X79413428Y-90095516D01*
X79440780Y-90068909D01*
X79484603Y-90037650D01*
X79619860Y-89941173D01*
X79778096Y-89783489D01*
X79837594Y-89700689D01*
X79905435Y-89606277D01*
X79908453Y-89602077D01*
X79929320Y-89559857D01*
X80005136Y-89406453D01*
X80005137Y-89406451D01*
X80007430Y-89401811D01*
X80072370Y-89188069D01*
X80101529Y-88966590D01*
X80103156Y-88900000D01*
X80084852Y-88677361D01*
X80030431Y-88460702D01*
X79941354Y-88255840D01*
X79820014Y-88068277D01*
X79669670Y-87903051D01*
X79665619Y-87899852D01*
X79665615Y-87899848D01*
X79498414Y-87767800D01*
X79498410Y-87767798D01*
X79494359Y-87764598D01*
X79453053Y-87741796D01*
X79403084Y-87691364D01*
X79388312Y-87621921D01*
X79413428Y-87555516D01*
X79440780Y-87528909D01*
X79484603Y-87497650D01*
X79619860Y-87401173D01*
X79778096Y-87243489D01*
X79837594Y-87160689D01*
X79905435Y-87066277D01*
X79908453Y-87062077D01*
X79929320Y-87019857D01*
X80005136Y-86866453D01*
X80005137Y-86866451D01*
X80007430Y-86861811D01*
X80072370Y-86648069D01*
X80101529Y-86426590D01*
X80103156Y-86360000D01*
X80084852Y-86137361D01*
X80030431Y-85920702D01*
X79941354Y-85715840D01*
X79820014Y-85528277D01*
X79669670Y-85363051D01*
X79665619Y-85359852D01*
X79665615Y-85359848D01*
X79498414Y-85227800D01*
X79498410Y-85227798D01*
X79494359Y-85224598D01*
X79453053Y-85201796D01*
X79403084Y-85151364D01*
X79388312Y-85081921D01*
X79413428Y-85015516D01*
X79440780Y-84988909D01*
X79484603Y-84957650D01*
X79619860Y-84861173D01*
X79778096Y-84703489D01*
X79837594Y-84620689D01*
X79905435Y-84526277D01*
X79908453Y-84522077D01*
X79929320Y-84479857D01*
X80005136Y-84326453D01*
X80005137Y-84326451D01*
X80007430Y-84321811D01*
X80072370Y-84108069D01*
X80101529Y-83886590D01*
X80103156Y-83820000D01*
X80084852Y-83597361D01*
X80030431Y-83380702D01*
X79941354Y-83175840D01*
X79820014Y-82988277D01*
X79669670Y-82823051D01*
X79665619Y-82819852D01*
X79665615Y-82819848D01*
X79498414Y-82687800D01*
X79498410Y-82687798D01*
X79494359Y-82684598D01*
X79453053Y-82661796D01*
X79403084Y-82611364D01*
X79388312Y-82541921D01*
X79413428Y-82475516D01*
X79440780Y-82448909D01*
X79499154Y-82407271D01*
X79619860Y-82321173D01*
X79778096Y-82163489D01*
X79794360Y-82140856D01*
X79905435Y-81986277D01*
X79908453Y-81982077D01*
X79929320Y-81939857D01*
X80005136Y-81786453D01*
X80005137Y-81786451D01*
X80007430Y-81781811D01*
X80072370Y-81568069D01*
X80101529Y-81346590D01*
X80101611Y-81343240D01*
X80103074Y-81283365D01*
X80103074Y-81283361D01*
X80103156Y-81280000D01*
X80084852Y-81057361D01*
X80030431Y-80840702D01*
X79941354Y-80635840D01*
X79901906Y-80574862D01*
X79822822Y-80452617D01*
X79822820Y-80452614D01*
X79820014Y-80448277D01*
X79669670Y-80283051D01*
X79665619Y-80279852D01*
X79665615Y-80279848D01*
X79498414Y-80147800D01*
X79498410Y-80147798D01*
X79494359Y-80144598D01*
X79453053Y-80121796D01*
X79403084Y-80071364D01*
X79388312Y-80001921D01*
X79413428Y-79935516D01*
X79440780Y-79908909D01*
X79484603Y-79877650D01*
X79619860Y-79781173D01*
X79778096Y-79623489D01*
X79837594Y-79540689D01*
X79905435Y-79446277D01*
X79908453Y-79442077D01*
X79929320Y-79399857D01*
X80005136Y-79246453D01*
X80005137Y-79246451D01*
X80007430Y-79241811D01*
X80072370Y-79028069D01*
X80101529Y-78806590D01*
X80103156Y-78740000D01*
X80084852Y-78517361D01*
X80030431Y-78300702D01*
X79941354Y-78095840D01*
X79849189Y-77953375D01*
X79822822Y-77912617D01*
X79822820Y-77912614D01*
X79820014Y-77908277D01*
X79669670Y-77743051D01*
X79665619Y-77739852D01*
X79665615Y-77739848D01*
X79498414Y-77607800D01*
X79498410Y-77607798D01*
X79494359Y-77604598D01*
X79453053Y-77581796D01*
X79403084Y-77531364D01*
X79388312Y-77461921D01*
X79413428Y-77395516D01*
X79440780Y-77368909D01*
X79484603Y-77337650D01*
X79619860Y-77241173D01*
X79778096Y-77083489D01*
X79837594Y-77000689D01*
X79905435Y-76906277D01*
X79908453Y-76902077D01*
X79924139Y-76870340D01*
X80005136Y-76706453D01*
X80005137Y-76706451D01*
X80007430Y-76701811D01*
X80072370Y-76488069D01*
X80101529Y-76266590D01*
X80103156Y-76200000D01*
X80084852Y-75977361D01*
X80030431Y-75760702D01*
X79941354Y-75555840D01*
X79820014Y-75368277D01*
X79669670Y-75203051D01*
X79665619Y-75199852D01*
X79665615Y-75199848D01*
X79498414Y-75067800D01*
X79498410Y-75067798D01*
X79494359Y-75064598D01*
X79453053Y-75041796D01*
X79403084Y-74991364D01*
X79388312Y-74921921D01*
X79413428Y-74855516D01*
X79440780Y-74828909D01*
X79484603Y-74797650D01*
X79619860Y-74701173D01*
X79778096Y-74543489D01*
X79837594Y-74460689D01*
X79905435Y-74366277D01*
X79908453Y-74362077D01*
X79929320Y-74319857D01*
X80005136Y-74166453D01*
X80005137Y-74166451D01*
X80007430Y-74161811D01*
X80072370Y-73948069D01*
X80101529Y-73726590D01*
X80103156Y-73660000D01*
X80084852Y-73437361D01*
X80030431Y-73220702D01*
X79941354Y-73015840D01*
X79874058Y-72911816D01*
X79822822Y-72832617D01*
X79822820Y-72832614D01*
X79820014Y-72828277D01*
X79669670Y-72663051D01*
X79665619Y-72659852D01*
X79665615Y-72659848D01*
X79498414Y-72527800D01*
X79498410Y-72527798D01*
X79494359Y-72524598D01*
X79453053Y-72501796D01*
X79403084Y-72451364D01*
X79388312Y-72381921D01*
X79413428Y-72315516D01*
X79440780Y-72288909D01*
X79509534Y-72239867D01*
X79619860Y-72161173D01*
X79679905Y-72101338D01*
X79716003Y-72065365D01*
X79778096Y-72003489D01*
X79837594Y-71920689D01*
X79905435Y-71826277D01*
X79908453Y-71822077D01*
X79915863Y-71807085D01*
X80005136Y-71626453D01*
X80005137Y-71626451D01*
X80007430Y-71621811D01*
X80072370Y-71408069D01*
X80101529Y-71186590D01*
X80103156Y-71120000D01*
X80084852Y-70897361D01*
X80030431Y-70680702D01*
X79941354Y-70475840D01*
X79820014Y-70288277D01*
X79669670Y-70123051D01*
X79665619Y-70119852D01*
X79665615Y-70119848D01*
X79498414Y-69987800D01*
X79498410Y-69987798D01*
X79494359Y-69984598D01*
X79453053Y-69961796D01*
X79403084Y-69911364D01*
X79388312Y-69841921D01*
X79413428Y-69775516D01*
X79440780Y-69748909D01*
X79503959Y-69703844D01*
X79619860Y-69621173D01*
X79670447Y-69570763D01*
X79747470Y-69494008D01*
X79778096Y-69463489D01*
X79795399Y-69439410D01*
X79905435Y-69286277D01*
X79908453Y-69282077D01*
X79925935Y-69246706D01*
X80005136Y-69086453D01*
X80005137Y-69086451D01*
X80007430Y-69081811D01*
X80072370Y-68868069D01*
X80101529Y-68646590D01*
X80102502Y-68606786D01*
X80103074Y-68583365D01*
X80103074Y-68583361D01*
X80103156Y-68580000D01*
X80084852Y-68357361D01*
X80030431Y-68140702D01*
X79941354Y-67935840D01*
X79838628Y-67777050D01*
X79822822Y-67752617D01*
X79822820Y-67752614D01*
X79820014Y-67748277D01*
X79669670Y-67583051D01*
X79665619Y-67579852D01*
X79665615Y-67579848D01*
X79498414Y-67447800D01*
X79498410Y-67447798D01*
X79494359Y-67444598D01*
X79453053Y-67421796D01*
X79403084Y-67371364D01*
X79388312Y-67301921D01*
X79413428Y-67235516D01*
X79440780Y-67208909D01*
X79500954Y-67165987D01*
X79619860Y-67081173D01*
X79641165Y-67059943D01*
X79701310Y-67000007D01*
X79778096Y-66923489D01*
X79837594Y-66840689D01*
X79905435Y-66746277D01*
X79908453Y-66742077D01*
X79916677Y-66725438D01*
X80005136Y-66546453D01*
X80005137Y-66546451D01*
X80007430Y-66541811D01*
X80044328Y-66420366D01*
X80070865Y-66333023D01*
X80070865Y-66333021D01*
X80072370Y-66328069D01*
X80101529Y-66106590D01*
X80103156Y-66040000D01*
X80084852Y-65817361D01*
X80030431Y-65600702D01*
X79941354Y-65395840D01*
X79820014Y-65208277D01*
X79669670Y-65043051D01*
X79665619Y-65039852D01*
X79665615Y-65039848D01*
X79498414Y-64907800D01*
X79498410Y-64907798D01*
X79494359Y-64904598D01*
X79453053Y-64881796D01*
X79403084Y-64831364D01*
X79388312Y-64761921D01*
X79413428Y-64695516D01*
X79440780Y-64668909D01*
X79484603Y-64637650D01*
X79619860Y-64541173D01*
X79778096Y-64383489D01*
X79837594Y-64300689D01*
X79905435Y-64206277D01*
X79908453Y-64202077D01*
X79922082Y-64174502D01*
X80005136Y-64006453D01*
X80005137Y-64006451D01*
X80007430Y-64001811D01*
X80072370Y-63788069D01*
X80101529Y-63566590D01*
X80103156Y-63500000D01*
X80084852Y-63277361D01*
X80030431Y-63060702D01*
X79941354Y-62855840D01*
X79820014Y-62668277D01*
X79669670Y-62503051D01*
X79665619Y-62499852D01*
X79665615Y-62499848D01*
X79498414Y-62367800D01*
X79498410Y-62367798D01*
X79494359Y-62364598D01*
X79453053Y-62341796D01*
X79403084Y-62291364D01*
X79388312Y-62221921D01*
X79413428Y-62155516D01*
X79440780Y-62128909D01*
X79484603Y-62097650D01*
X79619860Y-62001173D01*
X79778096Y-61843489D01*
X79837594Y-61760689D01*
X79905435Y-61666277D01*
X79908453Y-61662077D01*
X79929320Y-61619857D01*
X80005136Y-61466453D01*
X80005137Y-61466451D01*
X80007430Y-61461811D01*
X80072370Y-61248069D01*
X80101529Y-61026590D01*
X80103156Y-60960000D01*
X80084852Y-60737361D01*
X80030431Y-60520702D01*
X79941354Y-60315840D01*
X79820014Y-60128277D01*
X79669670Y-59963051D01*
X79665619Y-59959852D01*
X79665615Y-59959848D01*
X79498414Y-59827800D01*
X79498410Y-59827798D01*
X79494359Y-59824598D01*
X79453053Y-59801796D01*
X79403084Y-59751364D01*
X79388312Y-59681921D01*
X79413428Y-59615516D01*
X79440780Y-59588909D01*
X79484603Y-59557650D01*
X79619860Y-59461173D01*
X79778096Y-59303489D01*
X79837594Y-59220689D01*
X79905435Y-59126277D01*
X79908453Y-59122077D01*
X79929320Y-59079857D01*
X80005136Y-58926453D01*
X80005137Y-58926451D01*
X80007430Y-58921811D01*
X80072370Y-58708069D01*
X80101529Y-58486590D01*
X80103156Y-58420000D01*
X80084852Y-58197361D01*
X80030431Y-57980702D01*
X79941354Y-57775840D01*
X79901906Y-57714862D01*
X79822822Y-57592617D01*
X79822820Y-57592614D01*
X79820014Y-57588277D01*
X79669670Y-57423051D01*
X79665619Y-57419852D01*
X79665615Y-57419848D01*
X79498414Y-57287800D01*
X79498410Y-57287798D01*
X79494359Y-57284598D01*
X79453053Y-57261796D01*
X79403084Y-57211364D01*
X79388312Y-57141921D01*
X79413428Y-57075516D01*
X79440780Y-57048909D01*
X79484603Y-57017650D01*
X79619860Y-56921173D01*
X79778096Y-56763489D01*
X79797855Y-56735992D01*
X79905435Y-56586277D01*
X79908453Y-56582077D01*
X79929320Y-56539857D01*
X80005136Y-56386453D01*
X80005137Y-56386451D01*
X80007430Y-56381811D01*
X80072370Y-56168069D01*
X80101529Y-55946590D01*
X80103156Y-55880000D01*
X80084852Y-55657361D01*
X80030431Y-55440702D01*
X79941354Y-55235840D01*
X79820014Y-55048277D01*
X79669670Y-54883051D01*
X79665619Y-54879852D01*
X79665615Y-54879848D01*
X79498414Y-54747800D01*
X79498410Y-54747798D01*
X79494359Y-54744598D01*
X79452569Y-54721529D01*
X79402598Y-54671097D01*
X79387826Y-54601654D01*
X79412942Y-54535248D01*
X79440294Y-54508641D01*
X79615328Y-54383792D01*
X79623200Y-54377139D01*
X79774052Y-54226812D01*
X79780730Y-54218965D01*
X79905003Y-54046020D01*
X79910313Y-54037183D01*
X80004670Y-53846267D01*
X80008469Y-53836672D01*
X80070377Y-53632910D01*
X80072555Y-53622837D01*
X80073986Y-53611962D01*
X80071775Y-53597778D01*
X80058617Y-53594000D01*
X74883225Y-53594000D01*
X74869694Y-53597973D01*
X74868257Y-53607966D01*
X74898565Y-53742446D01*
X74901645Y-53752275D01*
X74981770Y-53949603D01*
X74986413Y-53958794D01*
X75097694Y-54140388D01*
X75103777Y-54148699D01*
X75243213Y-54309667D01*
X75250580Y-54316883D01*
X75414434Y-54452916D01*
X75422881Y-54458831D01*
X75491969Y-54499203D01*
X75540693Y-54550842D01*
X75553764Y-54620625D01*
X75527033Y-54686396D01*
X75486584Y-54719752D01*
X75473607Y-54726507D01*
X75469474Y-54729610D01*
X75469471Y-54729612D01*
X75416865Y-54769110D01*
X75294965Y-54860635D01*
X75140629Y-55022138D01*
X75014743Y-55206680D01*
X74920688Y-55409305D01*
X74860989Y-55624570D01*
X74837251Y-55846695D01*
X74837548Y-55851848D01*
X74837548Y-55851851D01*
X74843011Y-55946590D01*
X74850110Y-56069715D01*
X74851247Y-56074761D01*
X74851248Y-56074767D01*
X74871119Y-56162939D01*
X74899222Y-56287639D01*
X74983266Y-56494616D01*
X75034019Y-56577438D01*
X75097291Y-56680688D01*
X75099987Y-56685088D01*
X75246250Y-56853938D01*
X75418126Y-56996632D01*
X75488595Y-57037811D01*
X75491445Y-57039476D01*
X75540169Y-57091114D01*
X75553240Y-57160897D01*
X75526509Y-57226669D01*
X75486055Y-57260027D01*
X75473607Y-57266507D01*
X75469474Y-57269610D01*
X75469471Y-57269612D01*
X75445247Y-57287800D01*
X75294965Y-57400635D01*
X75140629Y-57562138D01*
X75014743Y-57746680D01*
X74920688Y-57949305D01*
X74860989Y-58164570D01*
X74837251Y-58386695D01*
X74837548Y-58391848D01*
X74837548Y-58391851D01*
X74843011Y-58486590D01*
X74850110Y-58609715D01*
X74851247Y-58614761D01*
X74851248Y-58614767D01*
X74871119Y-58702939D01*
X74899222Y-58827639D01*
X74983266Y-59034616D01*
X75034019Y-59117438D01*
X75097291Y-59220688D01*
X75099987Y-59225088D01*
X75246250Y-59393938D01*
X75418126Y-59536632D01*
X75488595Y-59577811D01*
X75491445Y-59579476D01*
X75540169Y-59631114D01*
X75553240Y-59700897D01*
X75526509Y-59766669D01*
X75486055Y-59800027D01*
X75473607Y-59806507D01*
X75469474Y-59809610D01*
X75469471Y-59809612D01*
X75299100Y-59937530D01*
X75294965Y-59940635D01*
X75140629Y-60102138D01*
X75014743Y-60286680D01*
X74920688Y-60489305D01*
X74860989Y-60704570D01*
X74837251Y-60926695D01*
X74837548Y-60931848D01*
X74837548Y-60931851D01*
X74843011Y-61026590D01*
X74850110Y-61149715D01*
X74851247Y-61154761D01*
X74851248Y-61154767D01*
X74869832Y-61237226D01*
X74899222Y-61367639D01*
X74983266Y-61574616D01*
X75034019Y-61657438D01*
X75097291Y-61760688D01*
X75099987Y-61765088D01*
X75246250Y-61933938D01*
X75418126Y-62076632D01*
X75488595Y-62117811D01*
X75491445Y-62119476D01*
X75540169Y-62171114D01*
X75553240Y-62240897D01*
X75526509Y-62306669D01*
X75486055Y-62340027D01*
X75473607Y-62346507D01*
X75469474Y-62349610D01*
X75469471Y-62349612D01*
X75299100Y-62477530D01*
X75294965Y-62480635D01*
X75140629Y-62642138D01*
X75014743Y-62826680D01*
X74920688Y-63029305D01*
X74860989Y-63244570D01*
X74837251Y-63466695D01*
X74837548Y-63471848D01*
X74837548Y-63471851D01*
X74843011Y-63566590D01*
X74850110Y-63689715D01*
X74851247Y-63694761D01*
X74851248Y-63694767D01*
X74869832Y-63777226D01*
X74899222Y-63907639D01*
X74983266Y-64114616D01*
X75034019Y-64197438D01*
X75097291Y-64300688D01*
X75099987Y-64305088D01*
X75246250Y-64473938D01*
X75418126Y-64616632D01*
X75488595Y-64657811D01*
X75491445Y-64659476D01*
X75540169Y-64711114D01*
X75553240Y-64780897D01*
X75526509Y-64846669D01*
X75486055Y-64880027D01*
X75473607Y-64886507D01*
X75469474Y-64889610D01*
X75469471Y-64889612D01*
X75299100Y-65017530D01*
X75294965Y-65020635D01*
X75291393Y-65024373D01*
X75219477Y-65099629D01*
X75140629Y-65182138D01*
X75014743Y-65366680D01*
X74999003Y-65400590D01*
X74936855Y-65534477D01*
X74920688Y-65569305D01*
X74860989Y-65784570D01*
X74837251Y-66006695D01*
X74837548Y-66011848D01*
X74837548Y-66011851D01*
X74843011Y-66106590D01*
X74850110Y-66229715D01*
X74851247Y-66234761D01*
X74851248Y-66234767D01*
X74870332Y-66319447D01*
X74899222Y-66447639D01*
X74983266Y-66654616D01*
X75026666Y-66725438D01*
X75097291Y-66840688D01*
X75099987Y-66845088D01*
X75246250Y-67013938D01*
X75418126Y-67156632D01*
X75488595Y-67197811D01*
X75491445Y-67199476D01*
X75540169Y-67251114D01*
X75553240Y-67320897D01*
X75526509Y-67386669D01*
X75486055Y-67420027D01*
X75473607Y-67426507D01*
X75469474Y-67429610D01*
X75469471Y-67429612D01*
X75299227Y-67557435D01*
X75294965Y-67560635D01*
X75140629Y-67722138D01*
X75137720Y-67726403D01*
X75137714Y-67726411D01*
X75086100Y-67802074D01*
X75014743Y-67906680D01*
X74999003Y-67940590D01*
X74927224Y-68095225D01*
X74920688Y-68109305D01*
X74860989Y-68324570D01*
X74837251Y-68546695D01*
X74837548Y-68551848D01*
X74837548Y-68551851D01*
X74843011Y-68646590D01*
X74850110Y-68769715D01*
X74851247Y-68774761D01*
X74851248Y-68774767D01*
X74869171Y-68854293D01*
X74899222Y-68987639D01*
X74937461Y-69081811D01*
X74971458Y-69165535D01*
X74983266Y-69194616D01*
X75030298Y-69271365D01*
X75097291Y-69380688D01*
X75099987Y-69385088D01*
X75246250Y-69553938D01*
X75418126Y-69696632D01*
X75436100Y-69707135D01*
X75491445Y-69739476D01*
X75540169Y-69791114D01*
X75553240Y-69860897D01*
X75526509Y-69926669D01*
X75486055Y-69960027D01*
X75473607Y-69966507D01*
X75469474Y-69969610D01*
X75469471Y-69969612D01*
X75299100Y-70097530D01*
X75294965Y-70100635D01*
X75140629Y-70262138D01*
X75014743Y-70446680D01*
X74999003Y-70480590D01*
X74935972Y-70616379D01*
X74920688Y-70649305D01*
X74860989Y-70864570D01*
X74837251Y-71086695D01*
X74837548Y-71091848D01*
X74837548Y-71091851D01*
X74842996Y-71186336D01*
X74850110Y-71309715D01*
X74851247Y-71314761D01*
X74851248Y-71314767D01*
X74864597Y-71374000D01*
X74899222Y-71527639D01*
X74983266Y-71734616D01*
X75025050Y-71802802D01*
X75097291Y-71920688D01*
X75099987Y-71925088D01*
X75246250Y-72093938D01*
X75418126Y-72236632D01*
X75428671Y-72242794D01*
X75491445Y-72279476D01*
X75540169Y-72331114D01*
X75553240Y-72400897D01*
X75526509Y-72466669D01*
X75486055Y-72500027D01*
X75473607Y-72506507D01*
X75469474Y-72509610D01*
X75469471Y-72509612D01*
X75317576Y-72623658D01*
X75294965Y-72640635D01*
X75140629Y-72802138D01*
X75137720Y-72806403D01*
X75137714Y-72806411D01*
X75107786Y-72850284D01*
X75014743Y-72986680D01*
X74920688Y-73189305D01*
X74860989Y-73404570D01*
X74837251Y-73626695D01*
X74837548Y-73631848D01*
X74837548Y-73631851D01*
X74843011Y-73726590D01*
X74850110Y-73849715D01*
X74851247Y-73854761D01*
X74851248Y-73854767D01*
X74871119Y-73942939D01*
X74899222Y-74067639D01*
X74983266Y-74274616D01*
X75034019Y-74357438D01*
X75097291Y-74460688D01*
X75099987Y-74465088D01*
X75246250Y-74633938D01*
X75418126Y-74776632D01*
X75488595Y-74817811D01*
X75491445Y-74819476D01*
X75540169Y-74871114D01*
X75553240Y-74940897D01*
X75526509Y-75006669D01*
X75486055Y-75040027D01*
X75473607Y-75046507D01*
X75469474Y-75049610D01*
X75469471Y-75049612D01*
X75445247Y-75067800D01*
X75294965Y-75180635D01*
X75140629Y-75342138D01*
X75014743Y-75526680D01*
X74999003Y-75560590D01*
X74931009Y-75707071D01*
X74920688Y-75729305D01*
X74860989Y-75944570D01*
X74837251Y-76166695D01*
X74837548Y-76171848D01*
X74837548Y-76171851D01*
X74843011Y-76266590D01*
X74850110Y-76389715D01*
X74851247Y-76394761D01*
X74851248Y-76394767D01*
X74871119Y-76482939D01*
X74899222Y-76607639D01*
X74983266Y-76814616D01*
X75034019Y-76897438D01*
X75097291Y-77000688D01*
X75099987Y-77005088D01*
X75246250Y-77173938D01*
X75418126Y-77316632D01*
X75430090Y-77323623D01*
X75491445Y-77359476D01*
X75540169Y-77411114D01*
X75553240Y-77480897D01*
X75526509Y-77546669D01*
X75486055Y-77580027D01*
X75473607Y-77586507D01*
X75469474Y-77589610D01*
X75469471Y-77589612D01*
X75299100Y-77717530D01*
X75294965Y-77720635D01*
X75140629Y-77882138D01*
X75014743Y-78066680D01*
X74920688Y-78269305D01*
X74860989Y-78484570D01*
X74837251Y-78706695D01*
X74837548Y-78711848D01*
X74837548Y-78711851D01*
X74843011Y-78806590D01*
X74850110Y-78929715D01*
X74851247Y-78934761D01*
X74851248Y-78934767D01*
X74851573Y-78936207D01*
X74899222Y-79147639D01*
X74983266Y-79354616D01*
X75034019Y-79437438D01*
X75097291Y-79540688D01*
X75099987Y-79545088D01*
X75246250Y-79713938D01*
X75418126Y-79856632D01*
X75488595Y-79897811D01*
X75491445Y-79899476D01*
X75540169Y-79951114D01*
X75553240Y-80020897D01*
X75526509Y-80086669D01*
X75486055Y-80120027D01*
X75473607Y-80126507D01*
X75469474Y-80129610D01*
X75469471Y-80129612D01*
X75445247Y-80147800D01*
X75294965Y-80260635D01*
X75140629Y-80422138D01*
X75014743Y-80606680D01*
X74920688Y-80809305D01*
X74860989Y-81024570D01*
X74837251Y-81246695D01*
X74837548Y-81251848D01*
X74837548Y-81251851D01*
X74843011Y-81346590D01*
X74850110Y-81469715D01*
X74851247Y-81474761D01*
X74851248Y-81474767D01*
X74859363Y-81510774D01*
X74899222Y-81687639D01*
X74983266Y-81894616D01*
X75034019Y-81977438D01*
X75097291Y-82080688D01*
X75099987Y-82085088D01*
X75246250Y-82253938D01*
X75418126Y-82396632D01*
X75436333Y-82407271D01*
X75491445Y-82439476D01*
X75540169Y-82491114D01*
X75553240Y-82560897D01*
X75526509Y-82626669D01*
X75486055Y-82660027D01*
X75473607Y-82666507D01*
X75469474Y-82669610D01*
X75469471Y-82669612D01*
X75445247Y-82687800D01*
X75294965Y-82800635D01*
X75140629Y-82962138D01*
X75014743Y-83146680D01*
X74975980Y-83230189D01*
X74935972Y-83316379D01*
X74920688Y-83349305D01*
X74860989Y-83564570D01*
X74837251Y-83786695D01*
X74837548Y-83791848D01*
X74837548Y-83791851D01*
X74843011Y-83886590D01*
X74850110Y-84009715D01*
X74851247Y-84014761D01*
X74851248Y-84014767D01*
X74871119Y-84102939D01*
X74899222Y-84227639D01*
X74983266Y-84434616D01*
X75034019Y-84517438D01*
X75097291Y-84620688D01*
X75099987Y-84625088D01*
X75246250Y-84793938D01*
X75418126Y-84936632D01*
X75488595Y-84977811D01*
X75491445Y-84979476D01*
X75540169Y-85031114D01*
X75553240Y-85100897D01*
X75526509Y-85166669D01*
X75486055Y-85200027D01*
X75473607Y-85206507D01*
X75469474Y-85209610D01*
X75469471Y-85209612D01*
X75445247Y-85227800D01*
X75294965Y-85340635D01*
X75140629Y-85502138D01*
X75014743Y-85686680D01*
X74920688Y-85889305D01*
X74860989Y-86104570D01*
X74837251Y-86326695D01*
X74837548Y-86331848D01*
X74837548Y-86331851D01*
X74843011Y-86426590D01*
X74850110Y-86549715D01*
X74851247Y-86554761D01*
X74851248Y-86554767D01*
X74871119Y-86642939D01*
X74899222Y-86767639D01*
X74983266Y-86974616D01*
X75034019Y-87057438D01*
X75097291Y-87160688D01*
X75099987Y-87165088D01*
X75246250Y-87333938D01*
X75418126Y-87476632D01*
X75488595Y-87517811D01*
X75491445Y-87519476D01*
X75540169Y-87571114D01*
X75553240Y-87640897D01*
X75526509Y-87706669D01*
X75486055Y-87740027D01*
X75473607Y-87746507D01*
X75469474Y-87749610D01*
X75469471Y-87749612D01*
X75445247Y-87767800D01*
X75294965Y-87880635D01*
X75140629Y-88042138D01*
X75014743Y-88226680D01*
X74920688Y-88429305D01*
X74860989Y-88644570D01*
X74837251Y-88866695D01*
X74837548Y-88871848D01*
X74837548Y-88871851D01*
X74843011Y-88966590D01*
X74850110Y-89089715D01*
X74851247Y-89094761D01*
X74851248Y-89094767D01*
X74871119Y-89182939D01*
X74899222Y-89307639D01*
X74983266Y-89514616D01*
X75034019Y-89597438D01*
X75097291Y-89700688D01*
X75099987Y-89705088D01*
X75246250Y-89873938D01*
X75418126Y-90016632D01*
X75488595Y-90057811D01*
X75491445Y-90059476D01*
X75540169Y-90111114D01*
X75553240Y-90180897D01*
X75526509Y-90246669D01*
X75486055Y-90280027D01*
X75473607Y-90286507D01*
X75469474Y-90289610D01*
X75469471Y-90289612D01*
X75445247Y-90307800D01*
X75294965Y-90420635D01*
X75140629Y-90582138D01*
X75014743Y-90766680D01*
X74920688Y-90969305D01*
X74860989Y-91184570D01*
X74837251Y-91406695D01*
X74837548Y-91411848D01*
X74837548Y-91411851D01*
X74843011Y-91506590D01*
X74850110Y-91629715D01*
X74851247Y-91634761D01*
X74851248Y-91634767D01*
X74871119Y-91722939D01*
X74899222Y-91847639D01*
X74983266Y-92054616D01*
X75034019Y-92137438D01*
X75097291Y-92240688D01*
X75099987Y-92245088D01*
X75246250Y-92413938D01*
X75418126Y-92556632D01*
X75488595Y-92597811D01*
X75491445Y-92599476D01*
X75540169Y-92651114D01*
X75553240Y-92720897D01*
X75526509Y-92786669D01*
X75486055Y-92820027D01*
X75473607Y-92826507D01*
X75469474Y-92829610D01*
X75469471Y-92829612D01*
X75445247Y-92847800D01*
X75294965Y-92960635D01*
X75140629Y-93122138D01*
X75014743Y-93306680D01*
X74920688Y-93509305D01*
X74860989Y-93724570D01*
X74837251Y-93946695D01*
X74837548Y-93951848D01*
X74837548Y-93951851D01*
X74843011Y-94046590D01*
X74850110Y-94169715D01*
X74851247Y-94174761D01*
X74851248Y-94174767D01*
X74871119Y-94262939D01*
X74899222Y-94387639D01*
X74983266Y-94594616D01*
X75034019Y-94677438D01*
X75097291Y-94780688D01*
X75099987Y-94785088D01*
X75246250Y-94953938D01*
X75418126Y-95096632D01*
X75488595Y-95137811D01*
X75491445Y-95139476D01*
X75540169Y-95191114D01*
X75553240Y-95260897D01*
X75526509Y-95326669D01*
X75486055Y-95360027D01*
X75473607Y-95366507D01*
X75469474Y-95369610D01*
X75469471Y-95369612D01*
X75445247Y-95387800D01*
X75294965Y-95500635D01*
X75140629Y-95662138D01*
X75014743Y-95846680D01*
X74920688Y-96049305D01*
X74860989Y-96264570D01*
X74837251Y-96486695D01*
X74837548Y-96491848D01*
X74837548Y-96491851D01*
X74843011Y-96586590D01*
X74850110Y-96709715D01*
X74851247Y-96714761D01*
X74851248Y-96714767D01*
X74871119Y-96802939D01*
X74899222Y-96927639D01*
X74983266Y-97134616D01*
X75022638Y-97198866D01*
X75097291Y-97320688D01*
X75099987Y-97325088D01*
X75246250Y-97493938D01*
X75418126Y-97636632D01*
X75488595Y-97677811D01*
X75491445Y-97679476D01*
X75540169Y-97731114D01*
X75553240Y-97800897D01*
X75526509Y-97866669D01*
X75486055Y-97900027D01*
X75473607Y-97906507D01*
X75469474Y-97909610D01*
X75469471Y-97909612D01*
X75445247Y-97927800D01*
X75294965Y-98040635D01*
X75140629Y-98202138D01*
X75014743Y-98386680D01*
X74920688Y-98589305D01*
X74860989Y-98804570D01*
X74837251Y-99026695D01*
X74837548Y-99031848D01*
X74837548Y-99031851D01*
X74843011Y-99126590D01*
X74850110Y-99249715D01*
X74851247Y-99254761D01*
X74851248Y-99254767D01*
X74871119Y-99342939D01*
X74899222Y-99467639D01*
X74983266Y-99674616D01*
X75034019Y-99757438D01*
X75097291Y-99860688D01*
X75099987Y-99865088D01*
X75246250Y-100033938D01*
X75418126Y-100176632D01*
X75488595Y-100217811D01*
X75491445Y-100219476D01*
X75540169Y-100271114D01*
X75553240Y-100340897D01*
X75526509Y-100406669D01*
X75486055Y-100440027D01*
X75473607Y-100446507D01*
X75469474Y-100449610D01*
X75469471Y-100449612D01*
X75445247Y-100467800D01*
X75294965Y-100580635D01*
X75140629Y-100742138D01*
X75014743Y-100926680D01*
X74920688Y-101129305D01*
X74860989Y-101344570D01*
X74837251Y-101566695D01*
X74837548Y-101571848D01*
X74837548Y-101571851D01*
X74843011Y-101666590D01*
X74850110Y-101789715D01*
X74851247Y-101794761D01*
X74851248Y-101794767D01*
X74871119Y-101882939D01*
X74899222Y-102007639D01*
X74983266Y-102214616D01*
X75022638Y-102278866D01*
X75097291Y-102400688D01*
X75099987Y-102405088D01*
X75246250Y-102573938D01*
X75418126Y-102716632D01*
X75488595Y-102757811D01*
X75491445Y-102759476D01*
X75540169Y-102811114D01*
X75553240Y-102880897D01*
X75526509Y-102946669D01*
X75486055Y-102980027D01*
X75473607Y-102986507D01*
X75469474Y-102989610D01*
X75469471Y-102989612D01*
X75445247Y-103007800D01*
X75294965Y-103120635D01*
X75140629Y-103282138D01*
X75014743Y-103466680D01*
X74920688Y-103669305D01*
X74860989Y-103884570D01*
X74837251Y-104106695D01*
X74837548Y-104111848D01*
X74837548Y-104111851D01*
X74843011Y-104206590D01*
X74850110Y-104329715D01*
X74851247Y-104334761D01*
X74851248Y-104334767D01*
X74871119Y-104422939D01*
X74899222Y-104547639D01*
X74983266Y-104754616D01*
X75034019Y-104837438D01*
X75097291Y-104940688D01*
X75099987Y-104945088D01*
X75246250Y-105113938D01*
X75418126Y-105256632D01*
X75488595Y-105297811D01*
X75491445Y-105299476D01*
X75540169Y-105351114D01*
X75553240Y-105420897D01*
X75526509Y-105486669D01*
X75486055Y-105520027D01*
X75473607Y-105526507D01*
X75469474Y-105529610D01*
X75469471Y-105529612D01*
X75445247Y-105547800D01*
X75294965Y-105660635D01*
X75140629Y-105822138D01*
X75014743Y-106006680D01*
X74920688Y-106209305D01*
X74860989Y-106424570D01*
X74837251Y-106646695D01*
X74837548Y-106651848D01*
X74837548Y-106651851D01*
X74843011Y-106746590D01*
X74850110Y-106869715D01*
X74851247Y-106874761D01*
X74851248Y-106874767D01*
X74859363Y-106910775D01*
X74899222Y-107087639D01*
X74983266Y-107294616D01*
X75034019Y-107377438D01*
X75097291Y-107480688D01*
X75099987Y-107485088D01*
X75246250Y-107653938D01*
X75418126Y-107796632D01*
X75436333Y-107807271D01*
X75491445Y-107839476D01*
X75540169Y-107891114D01*
X75553240Y-107960897D01*
X75526509Y-108026669D01*
X75486055Y-108060027D01*
X75473607Y-108066507D01*
X75469474Y-108069610D01*
X75469471Y-108069612D01*
X75299100Y-108197530D01*
X75294965Y-108200635D01*
X75261358Y-108235803D01*
X75151751Y-108350500D01*
X75140629Y-108362138D01*
X75014743Y-108546680D01*
X74920688Y-108749305D01*
X74860989Y-108964570D01*
X74837251Y-109186695D01*
X74837548Y-109191848D01*
X74837548Y-109191851D01*
X74843011Y-109286590D01*
X74850110Y-109409715D01*
X74851247Y-109414761D01*
X74851248Y-109414767D01*
X74871119Y-109502939D01*
X74899222Y-109627639D01*
X74983266Y-109834616D01*
X75034019Y-109917438D01*
X75097291Y-110020688D01*
X75099987Y-110025088D01*
X75246250Y-110193938D01*
X75418126Y-110336632D01*
X75488595Y-110377811D01*
X75491445Y-110379476D01*
X75540169Y-110431114D01*
X75553240Y-110500897D01*
X75526509Y-110566669D01*
X75486055Y-110600027D01*
X75473607Y-110606507D01*
X75469474Y-110609610D01*
X75469471Y-110609612D01*
X75445247Y-110627800D01*
X75294965Y-110740635D01*
X75140629Y-110902138D01*
X75014743Y-111086680D01*
X74920688Y-111289305D01*
X74860989Y-111504570D01*
X74837251Y-111726695D01*
X74837548Y-111731848D01*
X74837548Y-111731851D01*
X74843011Y-111826590D01*
X74850110Y-111949715D01*
X74851247Y-111954761D01*
X74851248Y-111954767D01*
X74871119Y-112042939D01*
X74899222Y-112167639D01*
X74983266Y-112374616D01*
X75034019Y-112457438D01*
X75097291Y-112560688D01*
X75099987Y-112565088D01*
X75246250Y-112733938D01*
X75418126Y-112876632D01*
X75488595Y-112917811D01*
X75491445Y-112919476D01*
X75540169Y-112971114D01*
X75553240Y-113040897D01*
X75526509Y-113106669D01*
X75486055Y-113140027D01*
X75473607Y-113146507D01*
X75469474Y-113149610D01*
X75469471Y-113149612D01*
X75445247Y-113167800D01*
X75294965Y-113280635D01*
X75140629Y-113442138D01*
X75014743Y-113626680D01*
X74920688Y-113829305D01*
X74860989Y-114044570D01*
X74837251Y-114266695D01*
X74837548Y-114271848D01*
X74837548Y-114271851D01*
X74843011Y-114366590D01*
X74850110Y-114489715D01*
X74851247Y-114494761D01*
X74851248Y-114494767D01*
X74871119Y-114582939D01*
X74899222Y-114707639D01*
X74983266Y-114914616D01*
X75034019Y-114997438D01*
X75097291Y-115100688D01*
X75099987Y-115105088D01*
X75246250Y-115273938D01*
X75418126Y-115416632D01*
X75488595Y-115457811D01*
X75491445Y-115459476D01*
X75540169Y-115511114D01*
X75553240Y-115580897D01*
X75526509Y-115646669D01*
X75486055Y-115680027D01*
X75473607Y-115686507D01*
X75469474Y-115689610D01*
X75469471Y-115689612D01*
X75317576Y-115803658D01*
X75294965Y-115820635D01*
X75140629Y-115982138D01*
X75137720Y-115986403D01*
X75137714Y-115986411D01*
X75107786Y-116030284D01*
X75014743Y-116166680D01*
X74920688Y-116369305D01*
X74860989Y-116584570D01*
X74837251Y-116806695D01*
X74837548Y-116811848D01*
X74837548Y-116811851D01*
X74843011Y-116906590D01*
X74850110Y-117029715D01*
X74851247Y-117034761D01*
X74851248Y-117034767D01*
X74871119Y-117122939D01*
X74899222Y-117247639D01*
X74983266Y-117454616D01*
X75034019Y-117537438D01*
X75097291Y-117640688D01*
X75099987Y-117645088D01*
X75246250Y-117813938D01*
X75418126Y-117956632D01*
X75467728Y-117985617D01*
X75491445Y-117999476D01*
X75540169Y-118051114D01*
X75553240Y-118120897D01*
X75526509Y-118186669D01*
X75486055Y-118220027D01*
X75473607Y-118226507D01*
X75469474Y-118229610D01*
X75469471Y-118229612D01*
X75445247Y-118247800D01*
X75294965Y-118360635D01*
X75140629Y-118522138D01*
X75137720Y-118526403D01*
X75137714Y-118526411D01*
X75129298Y-118538749D01*
X75014743Y-118706680D01*
X74920688Y-118909305D01*
X74860989Y-119124570D01*
X74837251Y-119346695D01*
X74837548Y-119351848D01*
X74837548Y-119351851D01*
X74843011Y-119446590D01*
X74850110Y-119569715D01*
X74851247Y-119574761D01*
X74851248Y-119574767D01*
X74871119Y-119662939D01*
X74899222Y-119787639D01*
X74983266Y-119994616D01*
X75034019Y-120077438D01*
X75097291Y-120180688D01*
X75099987Y-120185088D01*
X75246250Y-120353938D01*
X75418126Y-120496632D01*
X75488595Y-120537811D01*
X75491445Y-120539476D01*
X75540169Y-120591114D01*
X75553240Y-120660897D01*
X75526509Y-120726669D01*
X75486055Y-120760027D01*
X75473607Y-120766507D01*
X75469474Y-120769610D01*
X75469471Y-120769612D01*
X75445247Y-120787800D01*
X75294965Y-120900635D01*
X75140629Y-121062138D01*
X75014743Y-121246680D01*
X74920688Y-121449305D01*
X74860989Y-121664570D01*
X74837251Y-121886695D01*
X74168500Y-121886695D01*
X74168500Y-50766695D01*
X74837251Y-50766695D01*
X74837548Y-50771848D01*
X74837548Y-50771851D01*
X74841496Y-50840315D01*
X74850110Y-50989715D01*
X74851247Y-50994761D01*
X74851248Y-50994767D01*
X74872041Y-51087029D01*
X74899222Y-51207639D01*
X74929112Y-51281250D01*
X74976688Y-51398415D01*
X74983266Y-51414616D01*
X75022364Y-51478418D01*
X75097291Y-51600688D01*
X75099987Y-51605088D01*
X75246250Y-51773938D01*
X75418126Y-51916632D01*
X75467422Y-51945438D01*
X75491955Y-51959774D01*
X75540679Y-52011412D01*
X75553750Y-52081195D01*
X75527019Y-52146967D01*
X75486562Y-52180327D01*
X75478457Y-52184546D01*
X75469738Y-52190036D01*
X75299433Y-52317905D01*
X75291726Y-52324748D01*
X75144590Y-52478717D01*
X75138104Y-52486727D01*
X75018098Y-52662649D01*
X75013000Y-52671623D01*
X74923338Y-52864783D01*
X74919775Y-52874470D01*
X74864389Y-53074183D01*
X74865912Y-53082607D01*
X74878292Y-53086000D01*
X80058344Y-53086000D01*
X80071875Y-53082027D01*
X80073180Y-53072947D01*
X80031214Y-52905875D01*
X80027894Y-52896124D01*
X79942972Y-52700814D01*
X79938105Y-52691739D01*
X79822426Y-52512926D01*
X79816136Y-52504757D01*
X79672806Y-52347240D01*
X79665273Y-52340215D01*
X79498139Y-52208222D01*
X79489556Y-52202520D01*
X79452602Y-52182120D01*
X79402631Y-52131687D01*
X79387859Y-52062245D01*
X79412975Y-51995839D01*
X79440327Y-51969232D01*
X79473685Y-51945438D01*
X79619860Y-51841173D01*
X79745812Y-51715661D01*
X79808183Y-51681745D01*
X79878990Y-51686933D01*
X79923846Y-51715817D01*
X81550595Y-53342566D01*
X81584621Y-53404878D01*
X81587500Y-53431661D01*
X81587500Y-115795088D01*
X81587208Y-115803658D01*
X81584523Y-115843051D01*
X81583275Y-115861352D01*
X81584580Y-115868829D01*
X81584580Y-115868830D01*
X81594261Y-115924299D01*
X81595223Y-115930821D01*
X81602898Y-115994242D01*
X81605581Y-116001343D01*
X81606222Y-116003952D01*
X81610685Y-116020262D01*
X81611450Y-116022798D01*
X81612757Y-116030284D01*
X81615811Y-116037241D01*
X81638442Y-116088795D01*
X81640933Y-116094899D01*
X81663513Y-116154656D01*
X81667817Y-116160919D01*
X81669054Y-116163285D01*
X81677299Y-116178097D01*
X81678632Y-116180351D01*
X81681685Y-116187305D01*
X81688235Y-116195840D01*
X81720579Y-116237991D01*
X81724459Y-116243332D01*
X81756339Y-116289720D01*
X81756344Y-116289725D01*
X81760643Y-116295981D01*
X81766313Y-116301032D01*
X81766314Y-116301034D01*
X81807170Y-116337435D01*
X81812446Y-116342416D01*
X83393335Y-117923305D01*
X83427361Y-117985617D01*
X83429550Y-117999228D01*
X83434458Y-118045928D01*
X83493473Y-118227556D01*
X83588960Y-118392944D01*
X83716747Y-118534866D01*
X83871248Y-118647118D01*
X83877276Y-118649802D01*
X83877278Y-118649803D01*
X83995416Y-118702401D01*
X84045712Y-118724794D01*
X84120026Y-118740590D01*
X84226056Y-118763128D01*
X84226061Y-118763128D01*
X84232513Y-118764500D01*
X84423487Y-118764500D01*
X84429939Y-118763128D01*
X84429944Y-118763128D01*
X84535974Y-118740590D01*
X84610288Y-118724794D01*
X84660584Y-118702401D01*
X84778722Y-118649803D01*
X84778724Y-118649802D01*
X84784752Y-118647118D01*
X84939253Y-118534866D01*
X85067040Y-118392944D01*
X85162527Y-118227556D01*
X85221542Y-118045928D01*
X85226450Y-117999230D01*
X85253463Y-117933573D01*
X85262665Y-117923305D01*
X85346565Y-117839405D01*
X85408877Y-117805379D01*
X85435660Y-117802500D01*
X88871088Y-117802500D01*
X88879658Y-117802792D01*
X88929776Y-117806209D01*
X88929780Y-117806209D01*
X88937352Y-117806725D01*
X88944829Y-117805420D01*
X88944830Y-117805420D01*
X88971308Y-117800799D01*
X89000303Y-117795738D01*
X89006821Y-117794777D01*
X89070242Y-117787102D01*
X89077343Y-117784419D01*
X89079952Y-117783778D01*
X89096262Y-117779315D01*
X89098798Y-117778550D01*
X89106284Y-117777243D01*
X89164800Y-117751556D01*
X89170904Y-117749065D01*
X89223548Y-117729173D01*
X89223549Y-117729172D01*
X89230656Y-117726487D01*
X89236919Y-117722183D01*
X89239285Y-117720946D01*
X89254097Y-117712701D01*
X89256351Y-117711368D01*
X89263305Y-117708315D01*
X89314002Y-117669413D01*
X89319332Y-117665541D01*
X89365720Y-117633661D01*
X89365725Y-117633656D01*
X89371981Y-117629357D01*
X89413436Y-117582829D01*
X89418416Y-117577554D01*
X89982533Y-117013437D01*
X90045431Y-116979285D01*
X90061589Y-116975850D01*
X90198288Y-116946794D01*
X90281136Y-116909908D01*
X90366722Y-116871803D01*
X90366724Y-116871802D01*
X90372752Y-116869118D01*
X90527253Y-116756866D01*
X90655040Y-116614944D01*
X90750527Y-116449556D01*
X90809542Y-116267928D01*
X90812689Y-116237991D01*
X90828814Y-116084565D01*
X90829504Y-116078000D01*
X90822632Y-116012617D01*
X90810232Y-115894635D01*
X90810232Y-115894633D01*
X90809542Y-115888072D01*
X90750527Y-115706444D01*
X90655040Y-115541056D01*
X90645563Y-115530530D01*
X90531675Y-115404045D01*
X90531674Y-115404044D01*
X90527253Y-115399134D01*
X90372752Y-115286882D01*
X90366724Y-115284198D01*
X90366722Y-115284197D01*
X90204319Y-115211891D01*
X90204318Y-115211891D01*
X90198288Y-115209206D01*
X90077300Y-115183489D01*
X90017944Y-115170872D01*
X90017939Y-115170872D01*
X90011487Y-115169500D01*
X89820513Y-115169500D01*
X89814061Y-115170872D01*
X89814056Y-115170872D01*
X89754700Y-115183489D01*
X89633712Y-115209206D01*
X89627682Y-115211891D01*
X89627681Y-115211891D01*
X89465278Y-115284197D01*
X89465276Y-115284198D01*
X89459248Y-115286882D01*
X89304747Y-115399134D01*
X89300326Y-115404044D01*
X89300325Y-115404045D01*
X89186438Y-115530530D01*
X89176960Y-115541056D01*
X89081473Y-115706444D01*
X89079431Y-115712729D01*
X89033602Y-115853776D01*
X89022458Y-115888072D01*
X89018651Y-115924299D01*
X89017550Y-115934770D01*
X88990537Y-116000427D01*
X88981335Y-116010695D01*
X88643435Y-116348595D01*
X88581123Y-116382621D01*
X88554340Y-116385500D01*
X85118927Y-116385500D01*
X85110358Y-116385208D01*
X85060225Y-116381790D01*
X85060221Y-116381790D01*
X85052648Y-116381274D01*
X84989681Y-116392264D01*
X84983169Y-116393224D01*
X84919758Y-116400898D01*
X84912657Y-116403581D01*
X84910048Y-116404222D01*
X84893715Y-116408691D01*
X84891195Y-116409452D01*
X84883717Y-116410757D01*
X84876765Y-116413809D01*
X84876764Y-116413809D01*
X84825204Y-116436441D01*
X84819099Y-116438932D01*
X84766456Y-116458825D01*
X84766452Y-116458827D01*
X84759344Y-116461513D01*
X84753083Y-116465816D01*
X84750717Y-116467053D01*
X84735937Y-116475280D01*
X84733652Y-116476631D01*
X84726695Y-116479685D01*
X84720675Y-116484305D01*
X84720669Y-116484308D01*
X84689542Y-116508194D01*
X84675998Y-116518587D01*
X84670668Y-116522459D01*
X84624280Y-116554339D01*
X84624275Y-116554344D01*
X84618019Y-116558643D01*
X84612968Y-116564313D01*
X84612966Y-116564314D01*
X84576565Y-116605170D01*
X84571584Y-116610446D01*
X84417095Y-116764935D01*
X84354783Y-116798961D01*
X84283968Y-116793896D01*
X84238905Y-116764935D01*
X83041405Y-115567435D01*
X83007379Y-115505123D01*
X83004500Y-115478340D01*
X83004500Y-107442000D01*
X84176496Y-107442000D01*
X84196458Y-107631928D01*
X84255473Y-107813556D01*
X84350960Y-107978944D01*
X84355378Y-107983851D01*
X84355379Y-107983852D01*
X84446091Y-108084598D01*
X84478747Y-108120866D01*
X84577843Y-108192864D01*
X84584266Y-108197530D01*
X84633248Y-108233118D01*
X84639276Y-108235802D01*
X84639278Y-108235803D01*
X84801681Y-108308109D01*
X84807712Y-108310794D01*
X84901113Y-108330647D01*
X84988056Y-108349128D01*
X84988061Y-108349128D01*
X84994513Y-108350500D01*
X85185487Y-108350500D01*
X85191939Y-108349128D01*
X85191944Y-108349128D01*
X85278887Y-108330647D01*
X85372288Y-108310794D01*
X85378319Y-108308109D01*
X85540722Y-108235803D01*
X85540724Y-108235802D01*
X85546752Y-108233118D01*
X85595735Y-108197530D01*
X85602157Y-108192864D01*
X85701253Y-108120866D01*
X85733909Y-108084598D01*
X85824621Y-107983852D01*
X85824622Y-107983851D01*
X85829040Y-107978944D01*
X85924527Y-107813556D01*
X85983542Y-107631928D01*
X86003504Y-107442000D01*
X85994375Y-107355144D01*
X85984232Y-107258635D01*
X85984232Y-107258633D01*
X85983542Y-107252072D01*
X85924527Y-107070444D01*
X85829040Y-106905056D01*
X85824621Y-106900148D01*
X85822564Y-106897317D01*
X85798705Y-106830449D01*
X85798500Y-106823256D01*
X85798500Y-69050500D01*
X86208496Y-69050500D01*
X86209186Y-69057065D01*
X86223852Y-69196601D01*
X86228458Y-69240428D01*
X86287473Y-69422056D01*
X86290776Y-69427778D01*
X86290777Y-69427779D01*
X86363615Y-69553938D01*
X86382960Y-69587444D01*
X86387379Y-69592352D01*
X86389436Y-69595183D01*
X86413295Y-69662051D01*
X86413500Y-69669244D01*
X86413500Y-77949088D01*
X86413208Y-77957658D01*
X86409275Y-78015352D01*
X86419053Y-78071375D01*
X86420261Y-78078299D01*
X86421223Y-78084821D01*
X86428898Y-78148242D01*
X86431581Y-78155343D01*
X86432222Y-78157952D01*
X86436685Y-78174262D01*
X86437450Y-78176798D01*
X86438757Y-78184284D01*
X86449508Y-78208774D01*
X86464442Y-78242795D01*
X86466933Y-78248899D01*
X86489513Y-78308656D01*
X86493817Y-78314919D01*
X86495054Y-78317285D01*
X86503299Y-78332097D01*
X86504632Y-78334351D01*
X86507685Y-78341305D01*
X86524119Y-78362721D01*
X86546579Y-78391991D01*
X86550459Y-78397332D01*
X86582339Y-78443720D01*
X86582344Y-78443725D01*
X86586643Y-78449981D01*
X86631231Y-78489707D01*
X86633170Y-78491435D01*
X86638446Y-78496416D01*
X90251335Y-82109305D01*
X90285361Y-82171617D01*
X90287550Y-82185228D01*
X90292458Y-82231928D01*
X90294498Y-82238205D01*
X90294498Y-82238207D01*
X90300682Y-82257240D01*
X90351473Y-82413556D01*
X90354776Y-82419278D01*
X90354777Y-82419279D01*
X90437961Y-82563357D01*
X90446960Y-82578944D01*
X90451379Y-82583852D01*
X90453436Y-82586683D01*
X90477295Y-82653551D01*
X90477500Y-82660744D01*
X90477500Y-100981256D01*
X90457498Y-101049377D01*
X90453436Y-101055317D01*
X90451379Y-101058148D01*
X90446960Y-101063056D01*
X90351473Y-101228444D01*
X90292458Y-101410072D01*
X90272496Y-101600000D01*
X90273186Y-101606565D01*
X90279844Y-101669908D01*
X90292458Y-101789928D01*
X90351473Y-101971556D01*
X90354776Y-101977278D01*
X90354777Y-101977279D01*
X90375069Y-102012425D01*
X90446960Y-102136944D01*
X90451378Y-102141851D01*
X90451379Y-102141852D01*
X90557631Y-102259857D01*
X90574747Y-102278866D01*
X90729248Y-102391118D01*
X90735276Y-102393802D01*
X90735278Y-102393803D01*
X90760625Y-102405088D01*
X90903712Y-102468794D01*
X90990009Y-102487137D01*
X91084056Y-102507128D01*
X91084061Y-102507128D01*
X91090513Y-102508500D01*
X91281487Y-102508500D01*
X91287939Y-102507128D01*
X91287944Y-102507128D01*
X91381991Y-102487137D01*
X91468288Y-102468794D01*
X91611375Y-102405088D01*
X91636722Y-102393803D01*
X91636724Y-102393802D01*
X91642752Y-102391118D01*
X91797253Y-102278866D01*
X91814369Y-102259857D01*
X91920621Y-102141852D01*
X91920622Y-102141851D01*
X91925040Y-102136944D01*
X91996931Y-102012425D01*
X92017223Y-101977279D01*
X92017224Y-101977278D01*
X92020527Y-101971556D01*
X92079542Y-101789928D01*
X92092157Y-101669908D01*
X92098814Y-101606565D01*
X92099504Y-101600000D01*
X92079542Y-101410072D01*
X92020527Y-101228444D01*
X91925040Y-101063056D01*
X91920621Y-101058148D01*
X91918564Y-101055317D01*
X91894705Y-100988449D01*
X91894500Y-100981256D01*
X91894500Y-82660744D01*
X91914502Y-82592623D01*
X91918564Y-82586683D01*
X91920621Y-82583852D01*
X91925040Y-82578944D01*
X91934039Y-82563357D01*
X92017223Y-82419279D01*
X92017224Y-82419278D01*
X92020527Y-82413556D01*
X92079542Y-82231928D01*
X92099504Y-82042000D01*
X92090375Y-81955144D01*
X92080232Y-81858635D01*
X92080232Y-81858633D01*
X92079542Y-81852072D01*
X92020527Y-81670444D01*
X91925040Y-81505056D01*
X91797253Y-81363134D01*
X91642752Y-81250882D01*
X91636724Y-81248198D01*
X91636722Y-81248197D01*
X91474319Y-81175891D01*
X91474318Y-81175891D01*
X91468288Y-81173206D01*
X91331589Y-81144150D01*
X91315431Y-81140715D01*
X91252533Y-81106563D01*
X87867405Y-77721435D01*
X87833379Y-77659123D01*
X87830500Y-77632340D01*
X87830500Y-71882000D01*
X88240496Y-71882000D01*
X88241186Y-71888565D01*
X88258863Y-72056749D01*
X88260458Y-72071928D01*
X88319473Y-72253556D01*
X88322776Y-72259278D01*
X88322777Y-72259279D01*
X88405961Y-72403357D01*
X88414960Y-72418944D01*
X88419379Y-72423852D01*
X88421436Y-72426683D01*
X88445295Y-72493551D01*
X88445500Y-72500744D01*
X88445500Y-75698992D01*
X88425498Y-75767113D01*
X88421435Y-75773054D01*
X88419516Y-75775695D01*
X88415097Y-75780603D01*
X88319610Y-75945991D01*
X88260595Y-76127619D01*
X88259905Y-76134180D01*
X88259905Y-76134182D01*
X88252634Y-76203365D01*
X88240633Y-76317547D01*
X88260595Y-76507475D01*
X88319610Y-76689103D01*
X88415097Y-76854491D01*
X88419515Y-76859398D01*
X88419516Y-76859399D01*
X88490704Y-76938461D01*
X88542884Y-76996413D01*
X88697385Y-77108665D01*
X88703413Y-77111349D01*
X88703415Y-77111350D01*
X88865818Y-77183656D01*
X88871849Y-77186341D01*
X88965250Y-77206194D01*
X89052193Y-77224675D01*
X89052198Y-77224675D01*
X89058650Y-77226047D01*
X89249624Y-77226047D01*
X89256076Y-77224675D01*
X89256081Y-77224675D01*
X89343024Y-77206194D01*
X89436425Y-77186341D01*
X89442456Y-77183656D01*
X89604859Y-77111350D01*
X89604861Y-77111349D01*
X89610889Y-77108665D01*
X89646504Y-77082789D01*
X89713371Y-77058931D01*
X89782523Y-77075011D01*
X89809660Y-77095630D01*
X95331335Y-82617305D01*
X95365361Y-82679617D01*
X95367550Y-82693228D01*
X95372458Y-82739928D01*
X95374498Y-82746205D01*
X95374498Y-82746207D01*
X95400707Y-82826870D01*
X95431473Y-82921556D01*
X95434776Y-82927278D01*
X95434777Y-82927279D01*
X95523658Y-83081225D01*
X95526960Y-83086944D01*
X95531379Y-83091852D01*
X95533436Y-83094683D01*
X95557295Y-83161551D01*
X95557500Y-83168744D01*
X95557500Y-95901256D01*
X95537498Y-95969377D01*
X95533436Y-95975317D01*
X95531379Y-95978148D01*
X95526960Y-95983056D01*
X95431473Y-96148444D01*
X95372458Y-96330072D01*
X95352496Y-96520000D01*
X95353186Y-96526565D01*
X95359844Y-96589908D01*
X95372458Y-96709928D01*
X95431473Y-96891556D01*
X95434776Y-96897278D01*
X95434777Y-96897279D01*
X95455069Y-96932425D01*
X95526960Y-97056944D01*
X95531378Y-97061851D01*
X95531379Y-97061852D01*
X95637631Y-97179857D01*
X95654747Y-97198866D01*
X95809248Y-97311118D01*
X95815276Y-97313802D01*
X95815278Y-97313803D01*
X95840625Y-97325088D01*
X95983712Y-97388794D01*
X96070009Y-97407137D01*
X96164056Y-97427128D01*
X96164061Y-97427128D01*
X96170513Y-97428500D01*
X96361487Y-97428500D01*
X96367939Y-97427128D01*
X96367944Y-97427128D01*
X96461991Y-97407137D01*
X96548288Y-97388794D01*
X96691375Y-97325088D01*
X96716722Y-97313803D01*
X96716724Y-97313802D01*
X96722752Y-97311118D01*
X96877253Y-97198866D01*
X96894369Y-97179857D01*
X97000621Y-97061852D01*
X97000622Y-97061851D01*
X97005040Y-97056944D01*
X97076931Y-96932425D01*
X97097223Y-96897279D01*
X97097224Y-96897278D01*
X97100527Y-96891556D01*
X97159542Y-96709928D01*
X97172157Y-96589908D01*
X97178814Y-96526565D01*
X97179504Y-96520000D01*
X97159542Y-96330072D01*
X97100527Y-96148444D01*
X97005040Y-95983056D01*
X97000621Y-95978148D01*
X96998564Y-95975317D01*
X96974705Y-95908449D01*
X96974500Y-95901256D01*
X96974500Y-83384500D01*
X96994502Y-83316379D01*
X97048158Y-83269886D01*
X97100500Y-83258500D01*
X102079088Y-83258500D01*
X102087658Y-83258792D01*
X102137776Y-83262209D01*
X102137780Y-83262209D01*
X102145352Y-83262725D01*
X102152829Y-83261420D01*
X102152830Y-83261420D01*
X102179308Y-83256799D01*
X102208303Y-83251738D01*
X102214821Y-83250777D01*
X102278242Y-83243102D01*
X102285343Y-83240419D01*
X102287952Y-83239778D01*
X102304262Y-83235315D01*
X102306798Y-83234550D01*
X102314284Y-83233243D01*
X102372800Y-83207556D01*
X102378904Y-83205065D01*
X102431548Y-83185173D01*
X102431549Y-83185172D01*
X102438656Y-83182487D01*
X102444919Y-83178183D01*
X102447285Y-83176946D01*
X102462097Y-83168701D01*
X102464351Y-83167368D01*
X102471305Y-83164315D01*
X102522002Y-83125413D01*
X102527332Y-83121541D01*
X102573720Y-83089661D01*
X102573725Y-83089656D01*
X102579981Y-83085357D01*
X102621436Y-83038829D01*
X102626416Y-83033554D01*
X104366520Y-81293450D01*
X104372785Y-81287596D01*
X104410660Y-81254555D01*
X104416385Y-81249561D01*
X104453114Y-81197300D01*
X104457046Y-81192005D01*
X104471787Y-81173206D01*
X104496477Y-81141718D01*
X104499602Y-81134796D01*
X104500964Y-81132548D01*
X104509368Y-81117815D01*
X104510622Y-81115476D01*
X104514990Y-81109261D01*
X104517749Y-81102185D01*
X104517751Y-81102181D01*
X104538200Y-81049731D01*
X104540749Y-81043666D01*
X104567045Y-80985427D01*
X104568429Y-80977962D01*
X104569226Y-80975418D01*
X104573859Y-80959152D01*
X104574521Y-80956572D01*
X104577282Y-80949491D01*
X104585622Y-80886143D01*
X104586653Y-80879629D01*
X104596912Y-80824278D01*
X104598296Y-80816813D01*
X104594709Y-80754602D01*
X104594500Y-80747349D01*
X104594500Y-79358744D01*
X104614502Y-79290623D01*
X104618564Y-79284683D01*
X104620621Y-79281852D01*
X104625040Y-79276944D01*
X104696931Y-79152425D01*
X104717223Y-79117279D01*
X104717224Y-79117278D01*
X104720527Y-79111556D01*
X104779542Y-78929928D01*
X104784450Y-78883230D01*
X104811463Y-78817573D01*
X104820665Y-78807305D01*
X105353674Y-78274297D01*
X105890528Y-77737443D01*
X105896793Y-77731589D01*
X105934664Y-77698552D01*
X105934665Y-77698551D01*
X105940385Y-77693561D01*
X105977136Y-77641271D01*
X105981028Y-77636029D01*
X106020476Y-77585718D01*
X106023600Y-77578799D01*
X106024988Y-77576507D01*
X106033357Y-77561835D01*
X106034622Y-77559475D01*
X106038990Y-77553261D01*
X106062203Y-77493723D01*
X106064759Y-77487642D01*
X106073112Y-77469144D01*
X106091045Y-77429427D01*
X106092430Y-77421954D01*
X106093234Y-77419388D01*
X106097855Y-77403165D01*
X106098520Y-77400573D01*
X106101282Y-77393491D01*
X106109622Y-77330139D01*
X106110654Y-77323623D01*
X106120911Y-77268281D01*
X106122295Y-77260814D01*
X106120953Y-77237529D01*
X106118709Y-77198620D01*
X106118500Y-77191367D01*
X106118500Y-74024744D01*
X106138502Y-73956623D01*
X106142564Y-73950683D01*
X106144621Y-73947852D01*
X106149040Y-73942944D01*
X106244527Y-73777556D01*
X106303542Y-73595928D01*
X106323504Y-73406000D01*
X106303542Y-73216072D01*
X106244527Y-73034444D01*
X106236529Y-73020590D01*
X106175510Y-72914904D01*
X106149040Y-72869056D01*
X106112323Y-72828277D01*
X106025675Y-72732045D01*
X106025674Y-72732044D01*
X106021253Y-72727134D01*
X105866752Y-72614882D01*
X105860724Y-72612198D01*
X105860722Y-72612197D01*
X105698319Y-72539891D01*
X105698318Y-72539891D01*
X105692288Y-72537206D01*
X105555589Y-72508150D01*
X105539431Y-72504715D01*
X105476533Y-72470563D01*
X105393405Y-72387435D01*
X105359379Y-72325123D01*
X105356500Y-72298340D01*
X105356500Y-71369701D01*
X106270197Y-71369701D01*
X106270887Y-71376266D01*
X106284990Y-71510444D01*
X106290159Y-71559629D01*
X106349174Y-71741257D01*
X106352477Y-71746979D01*
X106352478Y-71746980D01*
X106371460Y-71779857D01*
X106444661Y-71906645D01*
X106449079Y-71911552D01*
X106449080Y-71911553D01*
X106535144Y-72007137D01*
X106572448Y-72048567D01*
X106726949Y-72160819D01*
X106732977Y-72163503D01*
X106732979Y-72163504D01*
X106742635Y-72167803D01*
X106901413Y-72238495D01*
X106994814Y-72258348D01*
X107081757Y-72276829D01*
X107081762Y-72276829D01*
X107088214Y-72278201D01*
X107279188Y-72278201D01*
X107285640Y-72276829D01*
X107285645Y-72276829D01*
X107372588Y-72258348D01*
X107465989Y-72238495D01*
X107624767Y-72167803D01*
X107634423Y-72163504D01*
X107634425Y-72163503D01*
X107640453Y-72160819D01*
X107685458Y-72128121D01*
X107789610Y-72052450D01*
X107789612Y-72052448D01*
X107794954Y-72048567D01*
X107799373Y-72043659D01*
X107803589Y-72039863D01*
X107867597Y-72009146D01*
X107887899Y-72007500D01*
X109273800Y-72007500D01*
X109341921Y-72027502D01*
X109361147Y-72043843D01*
X109361420Y-72043540D01*
X109366332Y-72047963D01*
X109370747Y-72052866D01*
X109387950Y-72065365D01*
X109514803Y-72157529D01*
X109525248Y-72165118D01*
X109531276Y-72167802D01*
X109531278Y-72167803D01*
X109693681Y-72240109D01*
X109699712Y-72242794D01*
X109793113Y-72262647D01*
X109880056Y-72281128D01*
X109880061Y-72281128D01*
X109886513Y-72282500D01*
X110077487Y-72282500D01*
X110083939Y-72281128D01*
X110083944Y-72281128D01*
X110170887Y-72262647D01*
X110264288Y-72242794D01*
X110270319Y-72240109D01*
X110432722Y-72167803D01*
X110432724Y-72167802D01*
X110438752Y-72165118D01*
X110449198Y-72157529D01*
X110526537Y-72101338D01*
X110593253Y-72052866D01*
X110712266Y-71920689D01*
X110716621Y-71915852D01*
X110716622Y-71915851D01*
X110721040Y-71910944D01*
X110796723Y-71779857D01*
X110813223Y-71751279D01*
X110813224Y-71751278D01*
X110816527Y-71745556D01*
X110875542Y-71563928D01*
X110880405Y-71517665D01*
X110894814Y-71380565D01*
X110895504Y-71374000D01*
X110888828Y-71310479D01*
X110876232Y-71190635D01*
X110876232Y-71190633D01*
X110875542Y-71184072D01*
X110816527Y-71002444D01*
X110721040Y-70837056D01*
X110593253Y-70695134D01*
X110488288Y-70618872D01*
X110444094Y-70586763D01*
X110444093Y-70586762D01*
X110438752Y-70582882D01*
X110432724Y-70580198D01*
X110432722Y-70580197D01*
X110270319Y-70507891D01*
X110270318Y-70507891D01*
X110264288Y-70505206D01*
X110232202Y-70498386D01*
X110169728Y-70464659D01*
X110135406Y-70402510D01*
X110133613Y-70371171D01*
X110132814Y-70371171D01*
X110132814Y-70364565D01*
X110133504Y-70358000D01*
X110113542Y-70168072D01*
X110054527Y-69986444D01*
X109959040Y-69821056D01*
X109913564Y-69770549D01*
X109835675Y-69684045D01*
X109835674Y-69684044D01*
X109831253Y-69679134D01*
X109676752Y-69566882D01*
X109670724Y-69564198D01*
X109670722Y-69564197D01*
X109508319Y-69491891D01*
X109508318Y-69491891D01*
X109502288Y-69489206D01*
X109381300Y-69463489D01*
X109321944Y-69450872D01*
X109321939Y-69450872D01*
X109315487Y-69449500D01*
X109124513Y-69449500D01*
X109118061Y-69450872D01*
X109118056Y-69450872D01*
X109058700Y-69463489D01*
X108937712Y-69489206D01*
X108931682Y-69491891D01*
X108931681Y-69491891D01*
X108769278Y-69564197D01*
X108769276Y-69564198D01*
X108763248Y-69566882D01*
X108757907Y-69570762D01*
X108757906Y-69570763D01*
X108669224Y-69635195D01*
X108608747Y-69679134D01*
X108604332Y-69684037D01*
X108599420Y-69688460D01*
X108598295Y-69687211D01*
X108544986Y-69720051D01*
X108511800Y-69724500D01*
X107896200Y-69724500D01*
X107828079Y-69704498D01*
X107808853Y-69688157D01*
X107808580Y-69688460D01*
X107803668Y-69684037D01*
X107799253Y-69679134D01*
X107738776Y-69635195D01*
X107650094Y-69570763D01*
X107650093Y-69570762D01*
X107644752Y-69566882D01*
X107638724Y-69564198D01*
X107638722Y-69564197D01*
X107476319Y-69491891D01*
X107476318Y-69491891D01*
X107470288Y-69489206D01*
X107349300Y-69463489D01*
X107289944Y-69450872D01*
X107289939Y-69450872D01*
X107283487Y-69449500D01*
X107092513Y-69449500D01*
X107086061Y-69450872D01*
X107086056Y-69450872D01*
X107026700Y-69463489D01*
X106905712Y-69489206D01*
X106899682Y-69491891D01*
X106899681Y-69491891D01*
X106737278Y-69564197D01*
X106737276Y-69564198D01*
X106731248Y-69566882D01*
X106576747Y-69679134D01*
X106572326Y-69684044D01*
X106572325Y-69684045D01*
X106494437Y-69770549D01*
X106448960Y-69821056D01*
X106353473Y-69986444D01*
X106294458Y-70168072D01*
X106274496Y-70358000D01*
X106275186Y-70364565D01*
X106287381Y-70480590D01*
X106294458Y-70547928D01*
X106353473Y-70729556D01*
X106356773Y-70735272D01*
X106356774Y-70735274D01*
X106392485Y-70797128D01*
X106409223Y-70866124D01*
X106392485Y-70923128D01*
X106349174Y-70998145D01*
X106290159Y-71179773D01*
X106289469Y-71186334D01*
X106289469Y-71186336D01*
X106281302Y-71264044D01*
X106270197Y-71369701D01*
X105356500Y-71369701D01*
X105356500Y-70391234D01*
X105356792Y-70382665D01*
X105360210Y-70332532D01*
X105360210Y-70332528D01*
X105360726Y-70324955D01*
X105349736Y-70261988D01*
X105348775Y-70255472D01*
X105342014Y-70199605D01*
X105341102Y-70192065D01*
X105338419Y-70184964D01*
X105337778Y-70182355D01*
X105333309Y-70166022D01*
X105332548Y-70163502D01*
X105331243Y-70156024D01*
X105328191Y-70149071D01*
X105305559Y-70097511D01*
X105303068Y-70091406D01*
X105283175Y-70038763D01*
X105283173Y-70038759D01*
X105280487Y-70031651D01*
X105276184Y-70025390D01*
X105274947Y-70023024D01*
X105266720Y-70008244D01*
X105265369Y-70005959D01*
X105262315Y-69999002D01*
X105257695Y-69992982D01*
X105257692Y-69992976D01*
X105223421Y-69948316D01*
X105219541Y-69942975D01*
X105187661Y-69896587D01*
X105187656Y-69896582D01*
X105183357Y-69890326D01*
X105136829Y-69848871D01*
X105131554Y-69843891D01*
X104781671Y-69494008D01*
X104747645Y-69431696D01*
X104750933Y-69365977D01*
X104777502Y-69284206D01*
X104779542Y-69277928D01*
X104783484Y-69240428D01*
X104798814Y-69094565D01*
X104799504Y-69088000D01*
X104779542Y-68898072D01*
X104720527Y-68716444D01*
X104625040Y-68551056D01*
X104612662Y-68537309D01*
X104581946Y-68473303D01*
X104590710Y-68402850D01*
X104612661Y-68368693D01*
X104625040Y-68354944D01*
X104720527Y-68189556D01*
X104779542Y-68007928D01*
X104796907Y-67842706D01*
X104823920Y-67777050D01*
X104833122Y-67766782D01*
X105108405Y-67491499D01*
X105116695Y-67483955D01*
X105123176Y-67479842D01*
X105169817Y-67430174D01*
X105172571Y-67427333D01*
X105192293Y-67407611D01*
X105194777Y-67404409D01*
X105202475Y-67395397D01*
X105227319Y-67368940D01*
X105232744Y-67363163D01*
X105242505Y-67345408D01*
X105253356Y-67328889D01*
X105265772Y-67312883D01*
X105270516Y-67301921D01*
X105283332Y-67272305D01*
X105288549Y-67261655D01*
X105309853Y-67222902D01*
X105314891Y-67203279D01*
X105321295Y-67184576D01*
X105326191Y-67173262D01*
X105326191Y-67173261D01*
X105329339Y-67165987D01*
X105330578Y-67158164D01*
X105330581Y-67158154D01*
X105336257Y-67122318D01*
X105338663Y-67110698D01*
X105347686Y-67075553D01*
X105347686Y-67075552D01*
X105349658Y-67067872D01*
X105349658Y-67047618D01*
X105351209Y-67027907D01*
X105353138Y-67015728D01*
X105354378Y-67007899D01*
X105350217Y-66963880D01*
X105349658Y-66952023D01*
X105349658Y-66420366D01*
X105369660Y-66352245D01*
X105382016Y-66336063D01*
X105455198Y-66254786D01*
X105550685Y-66089398D01*
X105609700Y-65907770D01*
X105629662Y-65717842D01*
X105609700Y-65527914D01*
X105550685Y-65346286D01*
X105455198Y-65180898D01*
X105382021Y-65099627D01*
X105351305Y-65035621D01*
X105349658Y-65015318D01*
X105349658Y-61332827D01*
X105369660Y-61264706D01*
X105382017Y-61248523D01*
X105387040Y-61242944D01*
X105482527Y-61077556D01*
X105541542Y-60895928D01*
X105561504Y-60706000D01*
X105541542Y-60516072D01*
X105482527Y-60334444D01*
X105474529Y-60320590D01*
X105390341Y-60174774D01*
X105387040Y-60169056D01*
X105350323Y-60128277D01*
X105263675Y-60032045D01*
X105263674Y-60032044D01*
X105259253Y-60027134D01*
X105104752Y-59914882D01*
X105098724Y-59912198D01*
X105098722Y-59912197D01*
X104936319Y-59839891D01*
X104936318Y-59839891D01*
X104930288Y-59837206D01*
X104836887Y-59817353D01*
X104749944Y-59798872D01*
X104749939Y-59798872D01*
X104743487Y-59797500D01*
X104552513Y-59797500D01*
X104546061Y-59798872D01*
X104546056Y-59798872D01*
X104459113Y-59817353D01*
X104365712Y-59837206D01*
X104359682Y-59839891D01*
X104359681Y-59839891D01*
X104197278Y-59912197D01*
X104197276Y-59912198D01*
X104191248Y-59914882D01*
X104036747Y-60027134D01*
X104032326Y-60032044D01*
X104032325Y-60032045D01*
X103945678Y-60128277D01*
X103908960Y-60169056D01*
X103905659Y-60174774D01*
X103821472Y-60320590D01*
X103813473Y-60334444D01*
X103754458Y-60516072D01*
X103734496Y-60706000D01*
X103754458Y-60895928D01*
X103813473Y-61077556D01*
X103908960Y-61242944D01*
X103913378Y-61247851D01*
X103913379Y-61247852D01*
X104032329Y-61379960D01*
X104032332Y-61379963D01*
X104036747Y-61384866D01*
X104041186Y-61388091D01*
X104078208Y-61448185D01*
X104082658Y-61481374D01*
X104082658Y-62211500D01*
X104062656Y-62279621D01*
X104009000Y-62326114D01*
X103956658Y-62337500D01*
X103790513Y-62337500D01*
X103784061Y-62338872D01*
X103784056Y-62338872D01*
X103697112Y-62357353D01*
X103603712Y-62377206D01*
X103597682Y-62379891D01*
X103597681Y-62379891D01*
X103435278Y-62452197D01*
X103435276Y-62452198D01*
X103429248Y-62454882D01*
X103274747Y-62567134D01*
X103270332Y-62572037D01*
X103265420Y-62576460D01*
X103264295Y-62575211D01*
X103210986Y-62608051D01*
X103177800Y-62612500D01*
X103070200Y-62612500D01*
X103002079Y-62592498D01*
X102982853Y-62576157D01*
X102982580Y-62576460D01*
X102977668Y-62572037D01*
X102973253Y-62567134D01*
X102818752Y-62454882D01*
X102812724Y-62452198D01*
X102812722Y-62452197D01*
X102650319Y-62379891D01*
X102650318Y-62379891D01*
X102644288Y-62377206D01*
X102550888Y-62357353D01*
X102463944Y-62338872D01*
X102463939Y-62338872D01*
X102457487Y-62337500D01*
X102266513Y-62337500D01*
X102260061Y-62338872D01*
X102260056Y-62338872D01*
X102173112Y-62357353D01*
X102079712Y-62377206D01*
X102073682Y-62379891D01*
X102073681Y-62379891D01*
X101911278Y-62452197D01*
X101911276Y-62452198D01*
X101905248Y-62454882D01*
X101750747Y-62567134D01*
X101746326Y-62572044D01*
X101746325Y-62572045D01*
X101659678Y-62668277D01*
X101622960Y-62709056D01*
X101619659Y-62714774D01*
X101535472Y-62860590D01*
X101527473Y-62874444D01*
X101468458Y-63056072D01*
X101448496Y-63246000D01*
X101468458Y-63435928D01*
X101527473Y-63617556D01*
X101622960Y-63782944D01*
X101627378Y-63787851D01*
X101627379Y-63787852D01*
X101632035Y-63793023D01*
X101750747Y-63924866D01*
X101905248Y-64037118D01*
X101911276Y-64039802D01*
X101911278Y-64039803D01*
X102068560Y-64109829D01*
X102079712Y-64114794D01*
X102173113Y-64134647D01*
X102260056Y-64153128D01*
X102260061Y-64153128D01*
X102266513Y-64154500D01*
X102457487Y-64154500D01*
X102463939Y-64153128D01*
X102463944Y-64153128D01*
X102550887Y-64134647D01*
X102644288Y-64114794D01*
X102655440Y-64109829D01*
X102812722Y-64039803D01*
X102812724Y-64039802D01*
X102818752Y-64037118D01*
X102973253Y-63924866D01*
X102977668Y-63919963D01*
X102982580Y-63915540D01*
X102983705Y-63916789D01*
X103037014Y-63883949D01*
X103070200Y-63879500D01*
X103177800Y-63879500D01*
X103245921Y-63899502D01*
X103265147Y-63915843D01*
X103265420Y-63915540D01*
X103270332Y-63919963D01*
X103274747Y-63924866D01*
X103429248Y-64037118D01*
X103435276Y-64039802D01*
X103435278Y-64039803D01*
X103592560Y-64109829D01*
X103603712Y-64114794D01*
X103697113Y-64134647D01*
X103784056Y-64153128D01*
X103784061Y-64153128D01*
X103790513Y-64154500D01*
X103956658Y-64154500D01*
X104024779Y-64174502D01*
X104071272Y-64228158D01*
X104082658Y-64280500D01*
X104082658Y-65015318D01*
X104062656Y-65083439D01*
X104050300Y-65099621D01*
X103977118Y-65180898D01*
X103881631Y-65346286D01*
X103822616Y-65527914D01*
X103802654Y-65717842D01*
X103822616Y-65907770D01*
X103881631Y-66089398D01*
X103977118Y-66254786D01*
X104050295Y-66336057D01*
X104081011Y-66400063D01*
X104082658Y-66420366D01*
X104082658Y-66673248D01*
X104062656Y-66741369D01*
X104045753Y-66762343D01*
X103935501Y-66872595D01*
X103873189Y-66906621D01*
X103846406Y-66909500D01*
X103790513Y-66909500D01*
X103784061Y-66910872D01*
X103784056Y-66910872D01*
X103724700Y-66923489D01*
X103603712Y-66949206D01*
X103597682Y-66951891D01*
X103597681Y-66951891D01*
X103435278Y-67024197D01*
X103435276Y-67024198D01*
X103429248Y-67026882D01*
X103274747Y-67139134D01*
X103270326Y-67144044D01*
X103270325Y-67144045D01*
X103164439Y-67261644D01*
X103146960Y-67281056D01*
X103051473Y-67446444D01*
X102992458Y-67628072D01*
X102972496Y-67818000D01*
X102973186Y-67824565D01*
X102985381Y-67940590D01*
X102992458Y-68007928D01*
X103051473Y-68189556D01*
X103146960Y-68354944D01*
X103159338Y-68368691D01*
X103190054Y-68432697D01*
X103181290Y-68503150D01*
X103159339Y-68537307D01*
X103146960Y-68551056D01*
X103051473Y-68716444D01*
X102992458Y-68898072D01*
X102972496Y-69088000D01*
X102973186Y-69094565D01*
X102988517Y-69240428D01*
X102992458Y-69277928D01*
X103051473Y-69459556D01*
X103054776Y-69465278D01*
X103054777Y-69465279D01*
X103122007Y-69581725D01*
X103146960Y-69624944D01*
X103151378Y-69629851D01*
X103151379Y-69629852D01*
X103152593Y-69631200D01*
X103153069Y-69632177D01*
X103155261Y-69635195D01*
X103154726Y-69635584D01*
X103183081Y-69693851D01*
X103184261Y-69700613D01*
X103185224Y-69707135D01*
X103192898Y-69770549D01*
X103195581Y-69777650D01*
X103196222Y-69780259D01*
X103200685Y-69796569D01*
X103201450Y-69799105D01*
X103202757Y-69806591D01*
X103205811Y-69813548D01*
X103228442Y-69865102D01*
X103230933Y-69871206D01*
X103253513Y-69930963D01*
X103257817Y-69937226D01*
X103259054Y-69939592D01*
X103267299Y-69954404D01*
X103268632Y-69956658D01*
X103271685Y-69963612D01*
X103298842Y-69999002D01*
X103310579Y-70014298D01*
X103314459Y-70019639D01*
X103346339Y-70066027D01*
X103346344Y-70066032D01*
X103350643Y-70072288D01*
X103356313Y-70077339D01*
X103356314Y-70077341D01*
X103397170Y-70113742D01*
X103402446Y-70118723D01*
X103902595Y-70618872D01*
X103936621Y-70681184D01*
X103939500Y-70707967D01*
X103939500Y-72615088D01*
X103939208Y-72623658D01*
X103936523Y-72663051D01*
X103935275Y-72681352D01*
X103936580Y-72688829D01*
X103936580Y-72688830D01*
X103946261Y-72744299D01*
X103947223Y-72750821D01*
X103954898Y-72814242D01*
X103957581Y-72821343D01*
X103958222Y-72823952D01*
X103962685Y-72840262D01*
X103963450Y-72842798D01*
X103964757Y-72850284D01*
X103975508Y-72874774D01*
X103990442Y-72908795D01*
X103992933Y-72914899D01*
X104015513Y-72974656D01*
X104019817Y-72980919D01*
X104021054Y-72983285D01*
X104029299Y-72998097D01*
X104030632Y-73000351D01*
X104033685Y-73007305D01*
X104050119Y-73028721D01*
X104072579Y-73057991D01*
X104076459Y-73063332D01*
X104108339Y-73109720D01*
X104108344Y-73109725D01*
X104112643Y-73115981D01*
X104118313Y-73121032D01*
X104118314Y-73121034D01*
X104159170Y-73157435D01*
X104164446Y-73162416D01*
X104475335Y-73473305D01*
X104509361Y-73535617D01*
X104511550Y-73549228D01*
X104516458Y-73595928D01*
X104575473Y-73777556D01*
X104670960Y-73942944D01*
X104675379Y-73947852D01*
X104677436Y-73950683D01*
X104701295Y-74017551D01*
X104701500Y-74024744D01*
X104701500Y-76870340D01*
X104681498Y-76938461D01*
X104664595Y-76959435D01*
X103819467Y-77804563D01*
X103756569Y-77838715D01*
X103603712Y-77871206D01*
X103597682Y-77873891D01*
X103597681Y-77873891D01*
X103435278Y-77946197D01*
X103435276Y-77946198D01*
X103429248Y-77948882D01*
X103274747Y-78061134D01*
X103270326Y-78066044D01*
X103270325Y-78066045D01*
X103243498Y-78095840D01*
X103146960Y-78203056D01*
X103051473Y-78368444D01*
X102992458Y-78550072D01*
X102972496Y-78740000D01*
X102973186Y-78746565D01*
X102979844Y-78809908D01*
X102992458Y-78929928D01*
X103051473Y-79111556D01*
X103054776Y-79117278D01*
X103054777Y-79117279D01*
X103075069Y-79152425D01*
X103146960Y-79276944D01*
X103151379Y-79281852D01*
X103153436Y-79284683D01*
X103177295Y-79351551D01*
X103177500Y-79358744D01*
X103177500Y-80426340D01*
X103157498Y-80494461D01*
X103140595Y-80515435D01*
X101851435Y-81804595D01*
X101789123Y-81838621D01*
X101762340Y-81841500D01*
X96877405Y-81841500D01*
X96809284Y-81821498D01*
X96803344Y-81817436D01*
X96728094Y-81762763D01*
X96728093Y-81762762D01*
X96722752Y-81758882D01*
X96716724Y-81756198D01*
X96716722Y-81756197D01*
X96554319Y-81683891D01*
X96554318Y-81683891D01*
X96548288Y-81681206D01*
X96448105Y-81659911D01*
X96395432Y-81648715D01*
X96332534Y-81614563D01*
X90554997Y-75837027D01*
X90549143Y-75830762D01*
X90548748Y-75830309D01*
X90511108Y-75787162D01*
X90458827Y-75750418D01*
X90453533Y-75746486D01*
X90409240Y-75711756D01*
X90403265Y-75707071D01*
X90396349Y-75703948D01*
X90394063Y-75702564D01*
X90379382Y-75694190D01*
X90377022Y-75692925D01*
X90370808Y-75688557D01*
X90363729Y-75685797D01*
X90363727Y-75685796D01*
X90311272Y-75665345D01*
X90305203Y-75662794D01*
X90246974Y-75636502D01*
X90239507Y-75635118D01*
X90236952Y-75634317D01*
X90220699Y-75629688D01*
X90218119Y-75629025D01*
X90211038Y-75626265D01*
X90203507Y-75625274D01*
X90203505Y-75625273D01*
X90173886Y-75621374D01*
X90147686Y-75617925D01*
X90141188Y-75616895D01*
X90078361Y-75605251D01*
X90070781Y-75605688D01*
X90070780Y-75605688D01*
X90016155Y-75608838D01*
X90008901Y-75609047D01*
X89988500Y-75609047D01*
X89920379Y-75589045D01*
X89873886Y-75535389D01*
X89862500Y-75483047D01*
X89862500Y-72500744D01*
X89882502Y-72432623D01*
X89886564Y-72426683D01*
X89888621Y-72423852D01*
X89893040Y-72418944D01*
X89902039Y-72403357D01*
X89985223Y-72259279D01*
X89985224Y-72259278D01*
X89988527Y-72253556D01*
X90047542Y-72071928D01*
X90049138Y-72056749D01*
X90066814Y-71888565D01*
X90067504Y-71882000D01*
X90058375Y-71795144D01*
X90048232Y-71698635D01*
X90048232Y-71698633D01*
X90047542Y-71692072D01*
X89988527Y-71510444D01*
X89893040Y-71345056D01*
X89824582Y-71269025D01*
X89769675Y-71208045D01*
X89769674Y-71208044D01*
X89765253Y-71203134D01*
X89610752Y-71090882D01*
X89604724Y-71088198D01*
X89604722Y-71088197D01*
X89442319Y-71015891D01*
X89442318Y-71015891D01*
X89436288Y-71013206D01*
X89338508Y-70992422D01*
X89255944Y-70974872D01*
X89255939Y-70974872D01*
X89249487Y-70973500D01*
X89058513Y-70973500D01*
X89052061Y-70974872D01*
X89052056Y-70974872D01*
X88969492Y-70992422D01*
X88871712Y-71013206D01*
X88865682Y-71015891D01*
X88865681Y-71015891D01*
X88703278Y-71088197D01*
X88703276Y-71088198D01*
X88697248Y-71090882D01*
X88542747Y-71203134D01*
X88538326Y-71208044D01*
X88538325Y-71208045D01*
X88483419Y-71269025D01*
X88414960Y-71345056D01*
X88319473Y-71510444D01*
X88260458Y-71692072D01*
X88259768Y-71698633D01*
X88259768Y-71698635D01*
X88249625Y-71795144D01*
X88240496Y-71882000D01*
X87830500Y-71882000D01*
X87830500Y-70684500D01*
X87850502Y-70616379D01*
X87904158Y-70569886D01*
X87956500Y-70558500D01*
X100591880Y-70558500D01*
X100660001Y-70578502D01*
X100680975Y-70595405D01*
X102124595Y-72039026D01*
X102158621Y-72101338D01*
X102161500Y-72128121D01*
X102161500Y-74069220D01*
X102137852Y-74142004D01*
X102136086Y-74143965D01*
X102040599Y-74309353D01*
X101981584Y-74490981D01*
X101961622Y-74680909D01*
X101981584Y-74870837D01*
X102040599Y-75052465D01*
X102136086Y-75217853D01*
X102140504Y-75222760D01*
X102140505Y-75222761D01*
X102251833Y-75346403D01*
X102263873Y-75359775D01*
X102418374Y-75472027D01*
X102424402Y-75474711D01*
X102424404Y-75474712D01*
X102586807Y-75547018D01*
X102592838Y-75549703D01*
X102686239Y-75569556D01*
X102773182Y-75588037D01*
X102773187Y-75588037D01*
X102779639Y-75589409D01*
X102970613Y-75589409D01*
X102977065Y-75588037D01*
X102977070Y-75588037D01*
X103064013Y-75569556D01*
X103157414Y-75549703D01*
X103163445Y-75547018D01*
X103325848Y-75474712D01*
X103325850Y-75474711D01*
X103331878Y-75472027D01*
X103486379Y-75359775D01*
X103498419Y-75346403D01*
X103609747Y-75222761D01*
X103609748Y-75222760D01*
X103614166Y-75217853D01*
X103709653Y-75052465D01*
X103768668Y-74870837D01*
X103788630Y-74680909D01*
X103768668Y-74490981D01*
X103709653Y-74309353D01*
X103614166Y-74143965D01*
X103609747Y-74139057D01*
X103605865Y-74133714D01*
X103607230Y-74132722D01*
X103580147Y-74076294D01*
X103578500Y-74055987D01*
X103578500Y-71811372D01*
X103578792Y-71802802D01*
X103582209Y-71752684D01*
X103582209Y-71752680D01*
X103582725Y-71745108D01*
X103571738Y-71682157D01*
X103570776Y-71675635D01*
X103563102Y-71612218D01*
X103560419Y-71605117D01*
X103559778Y-71602508D01*
X103555315Y-71586198D01*
X103554550Y-71583662D01*
X103553243Y-71576176D01*
X103527556Y-71517660D01*
X103525065Y-71511556D01*
X103505173Y-71458912D01*
X103505172Y-71458911D01*
X103502487Y-71451804D01*
X103498183Y-71445541D01*
X103496946Y-71443175D01*
X103488701Y-71428363D01*
X103487368Y-71426109D01*
X103484315Y-71419155D01*
X103445413Y-71368458D01*
X103441541Y-71363128D01*
X103409661Y-71316740D01*
X103409656Y-71316735D01*
X103405357Y-71310479D01*
X103358829Y-71269024D01*
X103353554Y-71264044D01*
X101458990Y-69369480D01*
X101453136Y-69363215D01*
X101452741Y-69362762D01*
X101415101Y-69319615D01*
X101362820Y-69282871D01*
X101357526Y-69278939D01*
X101313233Y-69244209D01*
X101307258Y-69239524D01*
X101300342Y-69236401D01*
X101298056Y-69235017D01*
X101283375Y-69226643D01*
X101281015Y-69225378D01*
X101274801Y-69221010D01*
X101267722Y-69218250D01*
X101267720Y-69218249D01*
X101215265Y-69197798D01*
X101209196Y-69195247D01*
X101150967Y-69168955D01*
X101143500Y-69167571D01*
X101140945Y-69166770D01*
X101124692Y-69162141D01*
X101122112Y-69161478D01*
X101115031Y-69158718D01*
X101107500Y-69157727D01*
X101107498Y-69157726D01*
X101077879Y-69153827D01*
X101051679Y-69150378D01*
X101045181Y-69149348D01*
X100982354Y-69137704D01*
X100974774Y-69138141D01*
X100974773Y-69138141D01*
X100920148Y-69141291D01*
X100912894Y-69141500D01*
X88267160Y-69141500D01*
X88199039Y-69121498D01*
X88178065Y-69104595D01*
X88056665Y-68983195D01*
X88022639Y-68920883D01*
X88020450Y-68907270D01*
X88018824Y-68891794D01*
X88015542Y-68860572D01*
X87956527Y-68678944D01*
X87937848Y-68646590D01*
X87864342Y-68519275D01*
X87864341Y-68519274D01*
X87861040Y-68513556D01*
X87856621Y-68508648D01*
X87854564Y-68505817D01*
X87830705Y-68438949D01*
X87830500Y-68431756D01*
X87830500Y-68182744D01*
X87850502Y-68114623D01*
X87854564Y-68108683D01*
X87856621Y-68105852D01*
X87861040Y-68100944D01*
X87956527Y-67935556D01*
X88015542Y-67753928D01*
X88016538Y-67744457D01*
X88034814Y-67570565D01*
X88035504Y-67564000D01*
X88023149Y-67446444D01*
X88016232Y-67380635D01*
X88016232Y-67380633D01*
X88015542Y-67374072D01*
X87956527Y-67192444D01*
X87951985Y-67184576D01*
X87894015Y-67084171D01*
X87861040Y-67027056D01*
X87853949Y-67019180D01*
X87737675Y-66890045D01*
X87737674Y-66890044D01*
X87733253Y-66885134D01*
X87578752Y-66772882D01*
X87572724Y-66770198D01*
X87572722Y-66770197D01*
X87410319Y-66697891D01*
X87410318Y-66697891D01*
X87404288Y-66695206D01*
X87310887Y-66675353D01*
X87223944Y-66656872D01*
X87223939Y-66656872D01*
X87217487Y-66655500D01*
X87026513Y-66655500D01*
X87020061Y-66656872D01*
X87020056Y-66656872D01*
X86933113Y-66675353D01*
X86839712Y-66695206D01*
X86833682Y-66697891D01*
X86833681Y-66697891D01*
X86671278Y-66770197D01*
X86671276Y-66770198D01*
X86665248Y-66772882D01*
X86510747Y-66885134D01*
X86506326Y-66890044D01*
X86506325Y-66890045D01*
X86390052Y-67019180D01*
X86382960Y-67027056D01*
X86349985Y-67084171D01*
X86292016Y-67184576D01*
X86287473Y-67192444D01*
X86228458Y-67374072D01*
X86227768Y-67380633D01*
X86227768Y-67380635D01*
X86220851Y-67446444D01*
X86208496Y-67564000D01*
X86209186Y-67570565D01*
X86227463Y-67744457D01*
X86228458Y-67753928D01*
X86287473Y-67935556D01*
X86382960Y-68100944D01*
X86387379Y-68105852D01*
X86389436Y-68108683D01*
X86413295Y-68175551D01*
X86413500Y-68182744D01*
X86413500Y-68431756D01*
X86393498Y-68499877D01*
X86389436Y-68505817D01*
X86387379Y-68508648D01*
X86382960Y-68513556D01*
X86379659Y-68519274D01*
X86379658Y-68519275D01*
X86306153Y-68646590D01*
X86287473Y-68678944D01*
X86228458Y-68860572D01*
X86227768Y-68867133D01*
X86227768Y-68867135D01*
X86223827Y-68904635D01*
X86208496Y-69050500D01*
X85798500Y-69050500D01*
X85798500Y-67147661D01*
X85818502Y-67079540D01*
X85835405Y-67058565D01*
X86616567Y-66277404D01*
X86678879Y-66243379D01*
X86705662Y-66240500D01*
X88046340Y-66240500D01*
X88114461Y-66260502D01*
X88135434Y-66277404D01*
X89144803Y-67286774D01*
X90151540Y-68293511D01*
X90157394Y-68299776D01*
X90183505Y-68329707D01*
X90195422Y-68343368D01*
X90247712Y-68380119D01*
X90252954Y-68384011D01*
X90303265Y-68423459D01*
X90310184Y-68426583D01*
X90312476Y-68427971D01*
X90327148Y-68436340D01*
X90329508Y-68437605D01*
X90335722Y-68441973D01*
X90342801Y-68444733D01*
X90342803Y-68444734D01*
X90395258Y-68465185D01*
X90401327Y-68467736D01*
X90459556Y-68494028D01*
X90467029Y-68495413D01*
X90469595Y-68496217D01*
X90485818Y-68500838D01*
X90488410Y-68501503D01*
X90495492Y-68504265D01*
X90503027Y-68505257D01*
X90558844Y-68512605D01*
X90565360Y-68513637D01*
X90595780Y-68519275D01*
X90628169Y-68525278D01*
X90635749Y-68524841D01*
X90635750Y-68524841D01*
X90690363Y-68521692D01*
X90697616Y-68521483D01*
X94384595Y-68521483D01*
X94452716Y-68541485D01*
X94458656Y-68545547D01*
X94510708Y-68583365D01*
X94539248Y-68604101D01*
X94545276Y-68606785D01*
X94545278Y-68606786D01*
X94707349Y-68678944D01*
X94713712Y-68681777D01*
X94807113Y-68701630D01*
X94894056Y-68720111D01*
X94894061Y-68720111D01*
X94900513Y-68721483D01*
X95091487Y-68721483D01*
X95097939Y-68720111D01*
X95097944Y-68720111D01*
X95184887Y-68701630D01*
X95278288Y-68681777D01*
X95284651Y-68678944D01*
X95446722Y-68606786D01*
X95446724Y-68606785D01*
X95452752Y-68604101D01*
X95481293Y-68583365D01*
X95526439Y-68550564D01*
X95593307Y-68526706D01*
X95600500Y-68526500D01*
X97940595Y-68526500D01*
X98008716Y-68546502D01*
X98014656Y-68550564D01*
X98088343Y-68604101D01*
X98095248Y-68609118D01*
X98101276Y-68611802D01*
X98101278Y-68611803D01*
X98261525Y-68683149D01*
X98269712Y-68686794D01*
X98363112Y-68706647D01*
X98450056Y-68725128D01*
X98450061Y-68725128D01*
X98456513Y-68726500D01*
X98647487Y-68726500D01*
X98653939Y-68725128D01*
X98653944Y-68725128D01*
X98740888Y-68706647D01*
X98834288Y-68686794D01*
X98842475Y-68683149D01*
X99002722Y-68611803D01*
X99002724Y-68611802D01*
X99008752Y-68609118D01*
X99015658Y-68604101D01*
X99089344Y-68550564D01*
X99163253Y-68496866D01*
X99229349Y-68423459D01*
X99286621Y-68359852D01*
X99286625Y-68359847D01*
X99291040Y-68354944D01*
X99386527Y-68189556D01*
X99445542Y-68007928D01*
X99452620Y-67940590D01*
X99464814Y-67824565D01*
X99465504Y-67818000D01*
X99445542Y-67628072D01*
X99386527Y-67446444D01*
X99291040Y-67281056D01*
X99273562Y-67261644D01*
X99167675Y-67144045D01*
X99167674Y-67144044D01*
X99163253Y-67139134D01*
X99008752Y-67026882D01*
X99002724Y-67024198D01*
X99002722Y-67024197D01*
X98840319Y-66951891D01*
X98840318Y-66951891D01*
X98834288Y-66949206D01*
X98713300Y-66923489D01*
X98653944Y-66910872D01*
X98653939Y-66910872D01*
X98647487Y-66909500D01*
X98456513Y-66909500D01*
X98450061Y-66910872D01*
X98450056Y-66910872D01*
X98390700Y-66923489D01*
X98269712Y-66949206D01*
X98263682Y-66951891D01*
X98263681Y-66951891D01*
X98101278Y-67024197D01*
X98101276Y-67024198D01*
X98095248Y-67026882D01*
X98089907Y-67030762D01*
X98089906Y-67030763D01*
X98014656Y-67085436D01*
X97947789Y-67109294D01*
X97940595Y-67109500D01*
X95614311Y-67109500D01*
X95540250Y-67085436D01*
X95458094Y-67025746D01*
X95458093Y-67025745D01*
X95452752Y-67021865D01*
X95446724Y-67019181D01*
X95446722Y-67019180D01*
X95284319Y-66946874D01*
X95284318Y-66946874D01*
X95278288Y-66944189D01*
X95180903Y-66923489D01*
X95097944Y-66905855D01*
X95097939Y-66905855D01*
X95091487Y-66904483D01*
X94900513Y-66904483D01*
X94894061Y-66905855D01*
X94894056Y-66905855D01*
X94811097Y-66923489D01*
X94713712Y-66944189D01*
X94707682Y-66946874D01*
X94707681Y-66946874D01*
X94545278Y-67019180D01*
X94545276Y-67019181D01*
X94539248Y-67021865D01*
X94533907Y-67025745D01*
X94533906Y-67025746D01*
X94458656Y-67080419D01*
X94391789Y-67104277D01*
X94384595Y-67104483D01*
X91018643Y-67104483D01*
X90950522Y-67084481D01*
X90929548Y-67067578D01*
X88913450Y-65051480D01*
X88907596Y-65045215D01*
X88902914Y-65039848D01*
X88869561Y-65001615D01*
X88817280Y-64964871D01*
X88811986Y-64960939D01*
X88767693Y-64926209D01*
X88761718Y-64921524D01*
X88754802Y-64918401D01*
X88752516Y-64917017D01*
X88737835Y-64908643D01*
X88735475Y-64907378D01*
X88729261Y-64903010D01*
X88722182Y-64900250D01*
X88722180Y-64900249D01*
X88674852Y-64881797D01*
X88669723Y-64879797D01*
X88663656Y-64877247D01*
X88605427Y-64850955D01*
X88597960Y-64849571D01*
X88595405Y-64848770D01*
X88579152Y-64844141D01*
X88576572Y-64843478D01*
X88569491Y-64840718D01*
X88561960Y-64839727D01*
X88561958Y-64839726D01*
X88532339Y-64835827D01*
X88506139Y-64832378D01*
X88499641Y-64831348D01*
X88436814Y-64819704D01*
X88429234Y-64820141D01*
X88429233Y-64820141D01*
X88374608Y-64823291D01*
X88367354Y-64823500D01*
X86388912Y-64823500D01*
X86380342Y-64823208D01*
X86330224Y-64819791D01*
X86330220Y-64819791D01*
X86322648Y-64819275D01*
X86315171Y-64820580D01*
X86315170Y-64820580D01*
X86298440Y-64823500D01*
X86259703Y-64830261D01*
X86253186Y-64831222D01*
X86189758Y-64838898D01*
X86182650Y-64841584D01*
X86180056Y-64842221D01*
X86163750Y-64846682D01*
X86161199Y-64847452D01*
X86153716Y-64848758D01*
X86146764Y-64851810D01*
X86146763Y-64851810D01*
X86095212Y-64874439D01*
X86089105Y-64876931D01*
X86063763Y-64886507D01*
X86029344Y-64899513D01*
X86023083Y-64903816D01*
X86020717Y-64905053D01*
X86005937Y-64913280D01*
X86003652Y-64914631D01*
X85996695Y-64917685D01*
X85990675Y-64922305D01*
X85990669Y-64922308D01*
X85959542Y-64946194D01*
X85945998Y-64956587D01*
X85940668Y-64960459D01*
X85894280Y-64992339D01*
X85894275Y-64992344D01*
X85888019Y-64996643D01*
X85882968Y-65002313D01*
X85882966Y-65002314D01*
X85846565Y-65043170D01*
X85841584Y-65048446D01*
X84609480Y-66280550D01*
X84603215Y-66286404D01*
X84559615Y-66324439D01*
X84555248Y-66330653D01*
X84522872Y-66376719D01*
X84518939Y-66382014D01*
X84479524Y-66432282D01*
X84476401Y-66439198D01*
X84475017Y-66441484D01*
X84466643Y-66456165D01*
X84465378Y-66458525D01*
X84461010Y-66464739D01*
X84458250Y-66471818D01*
X84458249Y-66471820D01*
X84437798Y-66524275D01*
X84435247Y-66530344D01*
X84408955Y-66588573D01*
X84407571Y-66596040D01*
X84406770Y-66598595D01*
X84402141Y-66614848D01*
X84401478Y-66617428D01*
X84398718Y-66624509D01*
X84397727Y-66632040D01*
X84397726Y-66632042D01*
X84394754Y-66654616D01*
X84392302Y-66673248D01*
X84390379Y-66687852D01*
X84389348Y-66694359D01*
X84377704Y-66757186D01*
X84378141Y-66764766D01*
X84378141Y-66764767D01*
X84381291Y-66819392D01*
X84381500Y-66826646D01*
X84381500Y-106823256D01*
X84361498Y-106891377D01*
X84357436Y-106897317D01*
X84355379Y-106900148D01*
X84350960Y-106905056D01*
X84255473Y-107070444D01*
X84196458Y-107252072D01*
X84195768Y-107258633D01*
X84195768Y-107258635D01*
X84185625Y-107355144D01*
X84176496Y-107442000D01*
X83004500Y-107442000D01*
X83004500Y-56663550D01*
X90158500Y-56663550D01*
X90173499Y-56840315D01*
X90174837Y-56845470D01*
X90174838Y-56845476D01*
X90214070Y-56996632D01*
X90233080Y-57069874D01*
X90296817Y-57211364D01*
X90323056Y-57269612D01*
X90330488Y-57286111D01*
X90462937Y-57482845D01*
X90626640Y-57654450D01*
X90816917Y-57796020D01*
X90821668Y-57798436D01*
X90821672Y-57798438D01*
X91023568Y-57901087D01*
X91028326Y-57903506D01*
X91118179Y-57931406D01*
X91249719Y-57972251D01*
X91249725Y-57972252D01*
X91254822Y-57973835D01*
X91362951Y-57988166D01*
X91484646Y-58004296D01*
X91484651Y-58004296D01*
X91489931Y-58004996D01*
X91495260Y-58004796D01*
X91495262Y-58004796D01*
X91608429Y-58000548D01*
X91726928Y-57996099D01*
X91959038Y-57947397D01*
X91963994Y-57945440D01*
X91964000Y-57945438D01*
X92121386Y-57883282D01*
X92179624Y-57860283D01*
X92359100Y-57751375D01*
X92377818Y-57740017D01*
X92377821Y-57740015D01*
X92382379Y-57737249D01*
X92482241Y-57650593D01*
X92557472Y-57585311D01*
X92557474Y-57585309D01*
X92561505Y-57581811D01*
X92597412Y-57538019D01*
X92708497Y-57402543D01*
X92708501Y-57402537D01*
X92711881Y-57398415D01*
X92829206Y-57192304D01*
X92910127Y-56969371D01*
X92952328Y-56735992D01*
X92953500Y-56711141D01*
X92953500Y-56663550D01*
X104658500Y-56663550D01*
X104673499Y-56840315D01*
X104674837Y-56845470D01*
X104674838Y-56845476D01*
X104714070Y-56996632D01*
X104733080Y-57069874D01*
X104796817Y-57211364D01*
X104823056Y-57269612D01*
X104830488Y-57286111D01*
X104962937Y-57482845D01*
X105126640Y-57654450D01*
X105316917Y-57796020D01*
X105321668Y-57798436D01*
X105321672Y-57798438D01*
X105523568Y-57901087D01*
X105528326Y-57903506D01*
X105618179Y-57931406D01*
X105749719Y-57972251D01*
X105749725Y-57972252D01*
X105754822Y-57973835D01*
X105862951Y-57988166D01*
X105984646Y-58004296D01*
X105984651Y-58004296D01*
X105989931Y-58004996D01*
X105995260Y-58004796D01*
X105995262Y-58004796D01*
X106108429Y-58000548D01*
X106226928Y-57996099D01*
X106459038Y-57947397D01*
X106463994Y-57945440D01*
X106464000Y-57945438D01*
X106621386Y-57883282D01*
X106679624Y-57860283D01*
X106859100Y-57751375D01*
X106877818Y-57740017D01*
X106877821Y-57740015D01*
X106882379Y-57737249D01*
X106982241Y-57650593D01*
X107057472Y-57585311D01*
X107057474Y-57585309D01*
X107061505Y-57581811D01*
X107097412Y-57538019D01*
X107208497Y-57402543D01*
X107208501Y-57402537D01*
X107211881Y-57398415D01*
X107329206Y-57192304D01*
X107410127Y-56969371D01*
X107452328Y-56735992D01*
X107453500Y-56711141D01*
X107453500Y-54766450D01*
X107441358Y-54623357D01*
X107438952Y-54594996D01*
X107438951Y-54594992D01*
X107438501Y-54589685D01*
X107437163Y-54584530D01*
X107437162Y-54584524D01*
X107380262Y-54365297D01*
X107378920Y-54360126D01*
X107281512Y-54143889D01*
X107149063Y-53947155D01*
X106985360Y-53775550D01*
X106795083Y-53633980D01*
X106790332Y-53631564D01*
X106790328Y-53631562D01*
X106588432Y-53528913D01*
X106588431Y-53528913D01*
X106583674Y-53526494D01*
X106448631Y-53484562D01*
X106362281Y-53457749D01*
X106362275Y-53457748D01*
X106357178Y-53456165D01*
X106249049Y-53441834D01*
X106127354Y-53425704D01*
X106127349Y-53425704D01*
X106122069Y-53425004D01*
X106116740Y-53425204D01*
X106116738Y-53425204D01*
X106003570Y-53429453D01*
X105885072Y-53433901D01*
X105652962Y-53482603D01*
X105648006Y-53484560D01*
X105648000Y-53484562D01*
X105545834Y-53524910D01*
X105432376Y-53569717D01*
X105369343Y-53607966D01*
X105234182Y-53689983D01*
X105234179Y-53689985D01*
X105229621Y-53692751D01*
X105225593Y-53696246D01*
X105225592Y-53696247D01*
X105172353Y-53742446D01*
X105050495Y-53848189D01*
X105047108Y-53852320D01*
X104903503Y-54027457D01*
X104903499Y-54027463D01*
X104900119Y-54031585D01*
X104782794Y-54237696D01*
X104701873Y-54460629D01*
X104659672Y-54694008D01*
X104658500Y-54718859D01*
X104658500Y-56663550D01*
X92953500Y-56663550D01*
X92953500Y-54766450D01*
X92941358Y-54623357D01*
X92938952Y-54594996D01*
X92938951Y-54594992D01*
X92938501Y-54589685D01*
X92937163Y-54584530D01*
X92937162Y-54584524D01*
X92880262Y-54365297D01*
X92878920Y-54360126D01*
X92781512Y-54143889D01*
X92649063Y-53947155D01*
X92485360Y-53775550D01*
X92295083Y-53633980D01*
X92290332Y-53631564D01*
X92290328Y-53631562D01*
X92088432Y-53528913D01*
X92088431Y-53528913D01*
X92083674Y-53526494D01*
X91948631Y-53484562D01*
X91862281Y-53457749D01*
X91862275Y-53457748D01*
X91857178Y-53456165D01*
X91749049Y-53441834D01*
X91627354Y-53425704D01*
X91627349Y-53425704D01*
X91622069Y-53425004D01*
X91616740Y-53425204D01*
X91616738Y-53425204D01*
X91503570Y-53429453D01*
X91385072Y-53433901D01*
X91152962Y-53482603D01*
X91148006Y-53484560D01*
X91148000Y-53484562D01*
X91045834Y-53524910D01*
X90932376Y-53569717D01*
X90869343Y-53607966D01*
X90734182Y-53689983D01*
X90734179Y-53689985D01*
X90729621Y-53692751D01*
X90725593Y-53696246D01*
X90725592Y-53696247D01*
X90672353Y-53742446D01*
X90550495Y-53848189D01*
X90547108Y-53852320D01*
X90403503Y-54027457D01*
X90403499Y-54027463D01*
X90400119Y-54031585D01*
X90282794Y-54237696D01*
X90201873Y-54460629D01*
X90159672Y-54694008D01*
X90158500Y-54718859D01*
X90158500Y-56663550D01*
X83004500Y-56663550D01*
X83004500Y-53114912D01*
X83004792Y-53106342D01*
X83008209Y-53056224D01*
X83008209Y-53056220D01*
X83008725Y-53048648D01*
X82997739Y-52985703D01*
X82996777Y-52979182D01*
X82990015Y-52923304D01*
X82989102Y-52915758D01*
X82986416Y-52908650D01*
X82985779Y-52906056D01*
X82981318Y-52889750D01*
X82980548Y-52887199D01*
X82979242Y-52879716D01*
X82953561Y-52821212D01*
X82951069Y-52815105D01*
X82931173Y-52762452D01*
X82931173Y-52762451D01*
X82928487Y-52755344D01*
X82924184Y-52749083D01*
X82922947Y-52746717D01*
X82914720Y-52731937D01*
X82913369Y-52729652D01*
X82910315Y-52722695D01*
X82905695Y-52716675D01*
X82905692Y-52716669D01*
X82871421Y-52672009D01*
X82867541Y-52666668D01*
X82835661Y-52620280D01*
X82835656Y-52620275D01*
X82831357Y-52614019D01*
X82784829Y-52572564D01*
X82779554Y-52567584D01*
X80875520Y-50663550D01*
X90158500Y-50663550D01*
X90173499Y-50840315D01*
X90174837Y-50845470D01*
X90174838Y-50845476D01*
X90205632Y-50964120D01*
X90233080Y-51069874D01*
X90330488Y-51286111D01*
X90462937Y-51482845D01*
X90466616Y-51486702D01*
X90466618Y-51486704D01*
X90485974Y-51506994D01*
X90626640Y-51654450D01*
X90816917Y-51796020D01*
X90821668Y-51798436D01*
X90821672Y-51798438D01*
X91023568Y-51901087D01*
X91028326Y-51903506D01*
X91141574Y-51938671D01*
X91249719Y-51972251D01*
X91249725Y-51972252D01*
X91254822Y-51973835D01*
X91362951Y-51988166D01*
X91484646Y-52004296D01*
X91484651Y-52004296D01*
X91489931Y-52004996D01*
X91495260Y-52004796D01*
X91495262Y-52004796D01*
X91608430Y-52000547D01*
X91726928Y-51996099D01*
X91959038Y-51947397D01*
X91963994Y-51945440D01*
X91964000Y-51945438D01*
X92121386Y-51883282D01*
X92179624Y-51860283D01*
X92290777Y-51792834D01*
X92377818Y-51740017D01*
X92377821Y-51740015D01*
X92382379Y-51737249D01*
X92446342Y-51681745D01*
X92557472Y-51585311D01*
X92557474Y-51585309D01*
X92561505Y-51581811D01*
X92597412Y-51538019D01*
X92708497Y-51402543D01*
X92708501Y-51402537D01*
X92711881Y-51398415D01*
X92829206Y-51192304D01*
X92910127Y-50969371D01*
X92952328Y-50735992D01*
X92953500Y-50711141D01*
X92953500Y-50663550D01*
X104658500Y-50663550D01*
X104673499Y-50840315D01*
X104674837Y-50845470D01*
X104674838Y-50845476D01*
X104705632Y-50964120D01*
X104733080Y-51069874D01*
X104830488Y-51286111D01*
X104962937Y-51482845D01*
X104966616Y-51486702D01*
X104966618Y-51486704D01*
X104985974Y-51506994D01*
X105126640Y-51654450D01*
X105316917Y-51796020D01*
X105321668Y-51798436D01*
X105321672Y-51798438D01*
X105523568Y-51901087D01*
X105528326Y-51903506D01*
X105641574Y-51938671D01*
X105749719Y-51972251D01*
X105749725Y-51972252D01*
X105754822Y-51973835D01*
X105862951Y-51988166D01*
X105984646Y-52004296D01*
X105984651Y-52004296D01*
X105989931Y-52004996D01*
X105995260Y-52004796D01*
X105995262Y-52004796D01*
X106108430Y-52000547D01*
X106226928Y-51996099D01*
X106459038Y-51947397D01*
X106463994Y-51945440D01*
X106464000Y-51945438D01*
X106621386Y-51883282D01*
X106679624Y-51860283D01*
X106790777Y-51792834D01*
X106877818Y-51740017D01*
X106877821Y-51740015D01*
X106882379Y-51737249D01*
X106946342Y-51681745D01*
X107057472Y-51585311D01*
X107057474Y-51585309D01*
X107061505Y-51581811D01*
X107097412Y-51538019D01*
X107208497Y-51402543D01*
X107208501Y-51402537D01*
X107211881Y-51398415D01*
X107329206Y-51192304D01*
X107410127Y-50969371D01*
X107452328Y-50735992D01*
X107453500Y-50711141D01*
X107453500Y-50026434D01*
X108446661Y-50026434D01*
X108446833Y-50029829D01*
X108446833Y-50029830D01*
X108453845Y-50168249D01*
X108464792Y-50384340D01*
X108465329Y-50387695D01*
X108465330Y-50387701D01*
X108491279Y-50549707D01*
X108521470Y-50738195D01*
X108616033Y-51083859D01*
X108747374Y-51417288D01*
X108769723Y-51459857D01*
X108889048Y-51687137D01*
X108913957Y-51734582D01*
X108915858Y-51737411D01*
X108915864Y-51737421D01*
X109028534Y-51905090D01*
X109113834Y-52032029D01*
X109344665Y-52306150D01*
X109603751Y-52553738D01*
X109888061Y-52771897D01*
X109920056Y-52791350D01*
X110191355Y-52956303D01*
X110191360Y-52956306D01*
X110194270Y-52958075D01*
X110197358Y-52959521D01*
X110197357Y-52959521D01*
X110515710Y-53108649D01*
X110515720Y-53108653D01*
X110518794Y-53110093D01*
X110522012Y-53111195D01*
X110522015Y-53111196D01*
X110854615Y-53225071D01*
X110854623Y-53225073D01*
X110857838Y-53226174D01*
X111207435Y-53304959D01*
X111259728Y-53310917D01*
X111560114Y-53345142D01*
X111560122Y-53345142D01*
X111563497Y-53345527D01*
X111566901Y-53345545D01*
X111566904Y-53345545D01*
X111761227Y-53346562D01*
X111921857Y-53347403D01*
X111925243Y-53347053D01*
X111925245Y-53347053D01*
X112274932Y-53310917D01*
X112274941Y-53310916D01*
X112278324Y-53310566D01*
X112281657Y-53309852D01*
X112281660Y-53309851D01*
X112454186Y-53272864D01*
X112628727Y-53235446D01*
X112968968Y-53122922D01*
X113295066Y-52974311D01*
X113557997Y-52818194D01*
X113600262Y-52793099D01*
X113600267Y-52793096D01*
X113603207Y-52791350D01*
X113641696Y-52762452D01*
X113765643Y-52669389D01*
X113889786Y-52576180D01*
X114151451Y-52331319D01*
X114385140Y-52059630D01*
X114492441Y-51903506D01*
X114586190Y-51767101D01*
X114586195Y-51767094D01*
X114588120Y-51764292D01*
X114589732Y-51761298D01*
X114589737Y-51761290D01*
X114742048Y-51478418D01*
X114758017Y-51448760D01*
X114853982Y-51212425D01*
X114891562Y-51119877D01*
X114891564Y-51119872D01*
X114892842Y-51116724D01*
X114903142Y-51080568D01*
X114936313Y-50964120D01*
X114991020Y-50772070D01*
X114997896Y-50731845D01*
X115050829Y-50422175D01*
X115050829Y-50422173D01*
X115051401Y-50418828D01*
X115053511Y-50384340D01*
X115073168Y-50062928D01*
X115073278Y-50061131D01*
X115073359Y-50038000D01*
X115053979Y-49680159D01*
X114996066Y-49326505D01*
X114900297Y-48981173D01*
X114897243Y-48973497D01*
X114792299Y-48709787D01*
X114767793Y-48648205D01*
X114717337Y-48552910D01*
X114601702Y-48334513D01*
X114601698Y-48334506D01*
X114600103Y-48331494D01*
X114399190Y-48034746D01*
X114396510Y-48031585D01*
X114303506Y-47921919D01*
X114167403Y-47761432D01*
X113907454Y-47514750D01*
X113701635Y-47357958D01*
X113625091Y-47299647D01*
X113625089Y-47299646D01*
X113622384Y-47297585D01*
X113619472Y-47295828D01*
X113619467Y-47295825D01*
X113318443Y-47114236D01*
X113318437Y-47114233D01*
X113315528Y-47112478D01*
X112990475Y-46961593D01*
X112814414Y-46902000D01*
X112654255Y-46847789D01*
X112654250Y-46847788D01*
X112651028Y-46846697D01*
X112452681Y-46802724D01*
X112304493Y-46769871D01*
X112304487Y-46769870D01*
X112301158Y-46769132D01*
X112297769Y-46768758D01*
X112297764Y-46768757D01*
X111948338Y-46730180D01*
X111948333Y-46730180D01*
X111944957Y-46729807D01*
X111941558Y-46729801D01*
X111941557Y-46729801D01*
X111772080Y-46729505D01*
X111586592Y-46729182D01*
X111473413Y-46741277D01*
X111233639Y-46766901D01*
X111233631Y-46766902D01*
X111230256Y-46767263D01*
X110880117Y-46843606D01*
X110540271Y-46957317D01*
X110537178Y-46958739D01*
X110537177Y-46958740D01*
X110356777Y-47041715D01*
X110214694Y-47107066D01*
X110211760Y-47108822D01*
X110211758Y-47108823D01*
X109920455Y-47283164D01*
X109907193Y-47291101D01*
X109904467Y-47293163D01*
X109904465Y-47293164D01*
X109653983Y-47482603D01*
X109621367Y-47507270D01*
X109618882Y-47509612D01*
X109618877Y-47509616D01*
X109521626Y-47601261D01*
X109360559Y-47753043D01*
X109127819Y-48025546D01*
X109125900Y-48028358D01*
X109125897Y-48028363D01*
X109050109Y-48139464D01*
X108925871Y-48321591D01*
X108757077Y-48637714D01*
X108623411Y-48970218D01*
X108622491Y-48973492D01*
X108622489Y-48973497D01*
X108548455Y-49236883D01*
X108526437Y-49315213D01*
X108467290Y-49668663D01*
X108446661Y-50026434D01*
X107453500Y-50026434D01*
X107453500Y-48766450D01*
X107442845Y-48640876D01*
X107438952Y-48594996D01*
X107438951Y-48594992D01*
X107438501Y-48589685D01*
X107437163Y-48584530D01*
X107437162Y-48584524D01*
X107380262Y-48365297D01*
X107378920Y-48360126D01*
X107281512Y-48143889D01*
X107149063Y-47947155D01*
X106985360Y-47775550D01*
X106955110Y-47753043D01*
X106799365Y-47637166D01*
X106795083Y-47633980D01*
X106790332Y-47631564D01*
X106790328Y-47631562D01*
X106588432Y-47528913D01*
X106588431Y-47528913D01*
X106583674Y-47526494D01*
X106448631Y-47484562D01*
X106362281Y-47457749D01*
X106362275Y-47457748D01*
X106357178Y-47456165D01*
X106249049Y-47441834D01*
X106127354Y-47425704D01*
X106127349Y-47425704D01*
X106122069Y-47425004D01*
X106116740Y-47425204D01*
X106116738Y-47425204D01*
X106003571Y-47429452D01*
X105885072Y-47433901D01*
X105652962Y-47482603D01*
X105648006Y-47484560D01*
X105648000Y-47484562D01*
X105545834Y-47524910D01*
X105432376Y-47569717D01*
X105348170Y-47620814D01*
X105234182Y-47689983D01*
X105234179Y-47689985D01*
X105229621Y-47692751D01*
X105225593Y-47696246D01*
X105225592Y-47696247D01*
X105076210Y-47825875D01*
X105050495Y-47848189D01*
X105047108Y-47852320D01*
X104903503Y-48027457D01*
X104903499Y-48027463D01*
X104900119Y-48031585D01*
X104782794Y-48237696D01*
X104701873Y-48460629D01*
X104659672Y-48694008D01*
X104658500Y-48718859D01*
X104658500Y-50663550D01*
X92953500Y-50663550D01*
X92953500Y-48766450D01*
X92942845Y-48640876D01*
X92938952Y-48594996D01*
X92938951Y-48594992D01*
X92938501Y-48589685D01*
X92937163Y-48584530D01*
X92937162Y-48584524D01*
X92880262Y-48365297D01*
X92878920Y-48360126D01*
X92781512Y-48143889D01*
X92649063Y-47947155D01*
X92485360Y-47775550D01*
X92455110Y-47753043D01*
X92299365Y-47637166D01*
X92295083Y-47633980D01*
X92290332Y-47631564D01*
X92290328Y-47631562D01*
X92088432Y-47528913D01*
X92088431Y-47528913D01*
X92083674Y-47526494D01*
X91948631Y-47484562D01*
X91862281Y-47457749D01*
X91862275Y-47457748D01*
X91857178Y-47456165D01*
X91749049Y-47441834D01*
X91627354Y-47425704D01*
X91627349Y-47425704D01*
X91622069Y-47425004D01*
X91616740Y-47425204D01*
X91616738Y-47425204D01*
X91503571Y-47429452D01*
X91385072Y-47433901D01*
X91152962Y-47482603D01*
X91148006Y-47484560D01*
X91148000Y-47484562D01*
X91045834Y-47524910D01*
X90932376Y-47569717D01*
X90848170Y-47620814D01*
X90734182Y-47689983D01*
X90734179Y-47689985D01*
X90729621Y-47692751D01*
X90725593Y-47696246D01*
X90725592Y-47696247D01*
X90576210Y-47825875D01*
X90550495Y-47848189D01*
X90547108Y-47852320D01*
X90403503Y-48027457D01*
X90403499Y-48027463D01*
X90400119Y-48031585D01*
X90282794Y-48237696D01*
X90201873Y-48460629D01*
X90159672Y-48694008D01*
X90158500Y-48718859D01*
X90158500Y-50663550D01*
X80875520Y-50663550D01*
X80531450Y-50319480D01*
X80525596Y-50313215D01*
X80524018Y-50311406D01*
X80487561Y-50269615D01*
X80435280Y-50232871D01*
X80429986Y-50228939D01*
X80385693Y-50194209D01*
X80379718Y-50189524D01*
X80372802Y-50186401D01*
X80370516Y-50185017D01*
X80355835Y-50176643D01*
X80353475Y-50175378D01*
X80347261Y-50171010D01*
X80340182Y-50168250D01*
X80340180Y-50168249D01*
X80287725Y-50147798D01*
X80281656Y-50145247D01*
X80223427Y-50118955D01*
X80215960Y-50117571D01*
X80213405Y-50116770D01*
X80197152Y-50112141D01*
X80194572Y-50111478D01*
X80187491Y-50108718D01*
X80179960Y-50107727D01*
X80179958Y-50107726D01*
X80150339Y-50103827D01*
X80124139Y-50100378D01*
X80117641Y-50099348D01*
X80054814Y-50087704D01*
X80047234Y-50088141D01*
X80047233Y-50088141D01*
X79992608Y-50091291D01*
X79985354Y-50091500D01*
X79968286Y-50091500D01*
X79900165Y-50071498D01*
X79862494Y-50033941D01*
X79820014Y-49968277D01*
X79669670Y-49803051D01*
X79665619Y-49799852D01*
X79665615Y-49799848D01*
X79498414Y-49667800D01*
X79498410Y-49667798D01*
X79494359Y-49664598D01*
X79452569Y-49641529D01*
X79402598Y-49591097D01*
X79387826Y-49521654D01*
X79412942Y-49455248D01*
X79440294Y-49428641D01*
X79615328Y-49303792D01*
X79623200Y-49297139D01*
X79774052Y-49146812D01*
X79780730Y-49138965D01*
X79905003Y-48966020D01*
X79910313Y-48957183D01*
X80004670Y-48766267D01*
X80008469Y-48756672D01*
X80070377Y-48552910D01*
X80072555Y-48542837D01*
X80073986Y-48531962D01*
X80071775Y-48517778D01*
X80058617Y-48514000D01*
X74860116Y-48514000D01*
X74844877Y-48518475D01*
X74843672Y-48519865D01*
X74842001Y-48527548D01*
X74842001Y-49154669D01*
X74842371Y-49161490D01*
X74847895Y-49212352D01*
X74851521Y-49227604D01*
X74896676Y-49348054D01*
X74905214Y-49363649D01*
X74981715Y-49465724D01*
X74994276Y-49478285D01*
X75096351Y-49554786D01*
X75111946Y-49563324D01*
X75220827Y-49604142D01*
X75277591Y-49646784D01*
X75302291Y-49713345D01*
X75287083Y-49782694D01*
X75267691Y-49809175D01*
X75144200Y-49938401D01*
X75140629Y-49942138D01*
X75014743Y-50126680D01*
X74994166Y-50171010D01*
X74925249Y-50319480D01*
X74920688Y-50329305D01*
X74860989Y-50544570D01*
X74837251Y-50766695D01*
X74168500Y-50766695D01*
X74168500Y-47987885D01*
X74842000Y-47987885D01*
X74846475Y-48003124D01*
X74847865Y-48004329D01*
X74855548Y-48006000D01*
X75927885Y-48006000D01*
X75943124Y-48001525D01*
X75944329Y-48000135D01*
X75946000Y-47992452D01*
X75946000Y-47987885D01*
X76454000Y-47987885D01*
X76458475Y-48003124D01*
X76459865Y-48004329D01*
X76467548Y-48006000D01*
X78467885Y-48006000D01*
X78483124Y-48001525D01*
X78484329Y-48000135D01*
X78486000Y-47992452D01*
X78486000Y-47987885D01*
X78994000Y-47987885D01*
X78998475Y-48003124D01*
X78999865Y-48004329D01*
X79007548Y-48006000D01*
X80058344Y-48006000D01*
X80071875Y-48002027D01*
X80073180Y-47992947D01*
X80031214Y-47825875D01*
X80027894Y-47816124D01*
X79942972Y-47620814D01*
X79938105Y-47611739D01*
X79822426Y-47432926D01*
X79816136Y-47424757D01*
X79672806Y-47267240D01*
X79665273Y-47260215D01*
X79498139Y-47128222D01*
X79489552Y-47122517D01*
X79303117Y-47019599D01*
X79293705Y-47015369D01*
X79092959Y-46944280D01*
X79082988Y-46941646D01*
X79011837Y-46928972D01*
X78998540Y-46930432D01*
X78994000Y-46944989D01*
X78994000Y-47987885D01*
X78486000Y-47987885D01*
X78486000Y-46943102D01*
X78482082Y-46929758D01*
X78467806Y-46927771D01*
X78429324Y-46933660D01*
X78419288Y-46936051D01*
X78216868Y-47002212D01*
X78207359Y-47006209D01*
X78018463Y-47104542D01*
X78009738Y-47110036D01*
X77839433Y-47237905D01*
X77831726Y-47244748D01*
X77754094Y-47325985D01*
X77692570Y-47361415D01*
X77621657Y-47357958D01*
X77563871Y-47316712D01*
X77545018Y-47283164D01*
X77503324Y-47171946D01*
X77494786Y-47156351D01*
X77418285Y-47054276D01*
X77405724Y-47041715D01*
X77303649Y-46965214D01*
X77288054Y-46956676D01*
X77167606Y-46911522D01*
X77152351Y-46907895D01*
X77101486Y-46902369D01*
X77094672Y-46902000D01*
X76472115Y-46902000D01*
X76456876Y-46906475D01*
X76455671Y-46907865D01*
X76454000Y-46915548D01*
X76454000Y-47987885D01*
X75946000Y-47987885D01*
X75946000Y-46920116D01*
X75941525Y-46904877D01*
X75940135Y-46903672D01*
X75932452Y-46902001D01*
X75305331Y-46902001D01*
X75298510Y-46902371D01*
X75247648Y-46907895D01*
X75232396Y-46911521D01*
X75111946Y-46956676D01*
X75096351Y-46965214D01*
X74994276Y-47041715D01*
X74981715Y-47054276D01*
X74905214Y-47156351D01*
X74896676Y-47171946D01*
X74851522Y-47292394D01*
X74847895Y-47307649D01*
X74842369Y-47358514D01*
X74842000Y-47365328D01*
X74842000Y-47987885D01*
X74168500Y-47987885D01*
X74168500Y-46354500D01*
X74188502Y-46286379D01*
X74242158Y-46239886D01*
X74294500Y-46228500D01*
X115697500Y-46228500D01*
X115765621Y-46248502D01*
G37*
%TD.AperFunction*%
%TD*%
M02*
