M48
; DRILL file {KiCad 6.0.5} date Sun 15 May 2022 12:23:55 PM CEST
; FORMAT={-:-/ absolute / inch / decimal}
; #@! TF.CreationDate,2022-05-15T12:23:55+02:00
; #@! TF.GenerationSoftware,Kicad,Pcbnew,6.0.5
; #@! TF.FileFunction,Plated,1,2,PTH
FMAT,2
INCH
; #@! TA.AperFunction,Plated,PTH,ViaDrill
T1C0.0157
; #@! TA.AperFunction,Plated,PTH,ComponentDrill
T2C0.0354
; #@! TA.AperFunction,Plated,PTH,ComponentDrill
T3C0.0394
; #@! TA.AperFunction,Plated,PTH,ComponentDrill
T4C0.1260
%
G90
G05
T1
X3.22Y-4.65
X3.22Y-4.73
X3.22Y-4.81
X3.22Y-4.9
X3.29Y-2.99
X3.29Y-3.29
X3.3Y-4.9
X3.31Y-2.7
X3.32Y-2.17
X3.32Y-2.27
X3.32Y-2.37
X3.32Y-4.64
X3.35Y-4.23
X3.36Y-2.22
X3.36Y-2.32
X3.39Y-2.83
X3.39Y-2.99
X3.42Y-3.29
X3.43Y-2.66
X3.43Y-2.7185
X3.45Y-3.24
X3.47Y-4.22
X3.48Y-3.29
X3.51Y-2.83
X3.51Y-4.11
X3.51Y-3.0046
X3.5121Y-4.6642
X3.54Y-3.29
X3.54Y-4.57
X3.59Y-3.23
X3.59Y-4.0
X3.5921Y-4.6642
X3.66Y-4.05
X3.66Y-4.15
X3.6721Y-4.6642
X3.6823Y-2.8034
X3.71Y-4.1
X3.72Y-3.35
X3.73Y-2.88
X3.73Y-2.95
X3.73Y-3.02
X3.74Y-2.55
X3.74Y-2.6698
X3.75Y-3.32
X3.76Y-2.13
X3.79Y-3.25
X3.79Y-3.8
X3.8Y-2.88
X3.8Y-2.95
X3.8Y-3.02
X3.81Y-2.8042
X3.82Y-2.13
X3.87Y-2.88
X3.87Y-2.95
X3.87Y-3.02
X3.88Y-2.13
X3.88Y-2.55
X3.88Y-2.67
X3.92Y-4.22
X3.92Y-4.32
X3.9208Y-2.8031
X3.95Y-3.0
X3.95Y-3.08
X3.97Y-2.55
X3.97Y-4.27
X4.0Y-2.7
X4.0098Y-3.1898
X4.03Y-2.13
X4.03Y-2.49
X4.0502Y-2.9402
X4.09Y-2.49
X4.09Y-2.67
X4.09Y-2.72
X4.09Y-3.1
X4.09Y-4.87
X4.1Y-2.97
X4.12Y-2.39
X4.12Y-3.21
X4.1227Y-2.5873
X4.13Y-4.45
X4.14Y-4.82
X4.15Y-2.75
X4.15Y-2.89
X4.17Y-4.41
X4.19Y-4.76
X4.2Y-2.95
X4.2198Y-2.8098
X4.22Y-2.77
X4.22Y-3.51
X4.22Y-3.59
X4.22Y-3.67
X4.22Y-3.75
X4.27Y-3.47
X4.27Y-3.55
X4.27Y-3.63
X4.27Y-3.71
X4.3Y-2.77
X4.33Y-2.81
X4.5Y-2.93
X4.5Y-3.01
X4.5Y-3.09
X4.5Y-3.17
X4.5Y-3.44
X4.5Y-3.52
X4.5Y-3.6
X4.5Y-3.68
X4.5Y-3.95
X4.5Y-4.03
X4.5Y-4.11
X4.5Y-4.19
T3
X3.0Y-1.9
X3.0Y-2.0
X3.0Y-2.1
X3.0Y-2.2
X3.0Y-2.3
X3.0Y-2.4
X3.0Y-2.5
X3.0Y-2.6
X3.0Y-2.7
X3.0Y-2.8
X3.0Y-2.9
X3.0Y-3.0
X3.0Y-3.1
X3.0Y-3.2
X3.0Y-3.3
X3.0Y-3.4
X3.0Y-3.5
X3.0Y-3.6
X3.0Y-3.7
X3.0Y-3.8
X3.0Y-3.9
X3.0Y-4.0
X3.0Y-4.1
X3.0Y-4.2
X3.0Y-4.3
X3.0Y-4.4
X3.0Y-4.5
X3.0Y-4.6
X3.0Y-4.7
X3.0Y-4.8
X3.0Y-4.9
X3.0Y-5.0
X3.1Y-1.9
X3.1Y-2.0
X3.1Y-2.1
X3.1Y-2.2
X3.1Y-2.3
X3.1Y-2.4
X3.1Y-2.5
X3.1Y-2.6
X3.1Y-2.7
X3.1Y-2.8
X3.1Y-2.9
X3.1Y-3.0
X3.1Y-3.1
X3.1Y-3.2
X3.1Y-3.3
X3.1Y-3.4
X3.1Y-3.5
X3.1Y-3.6
X3.1Y-3.7
X3.1Y-3.8
X3.1Y-3.9
X3.1Y-4.0
X3.1Y-4.1
X3.1Y-4.2
X3.1Y-4.3
X3.1Y-4.4
X3.1Y-4.5
X3.1Y-4.6
X3.1Y-4.7
X3.1Y-4.8
X3.1Y-4.9
X3.1Y-5.0
T4
X4.4Y-1.97
X4.4Y-4.93
T2
G00X3.6046Y-1.9809
M15
G01X3.6046Y-1.9337
M16
G05
G00X3.6046Y-2.2289
M15
G01X3.6046Y-2.1581
M16
G05
G00X4.1754Y-1.9809
M15
G01X4.1754Y-1.9337
M16
G05
G00X4.1754Y-2.2289
M15
G01X4.1754Y-2.1581
M16
G05
T0
M30
