%TF.GenerationSoftware,KiCad,Pcbnew,6.0.3*%
%TF.CreationDate,2022-03-22T19:26:19+01:00*%
%TF.ProjectId,lcdbrd,6c636462-7264-42e6-9b69-6361645f7063,rev?*%
%TF.SameCoordinates,Original*%
%TF.FileFunction,Legend,Top*%
%TF.FilePolarity,Positive*%
%FSLAX46Y46*%
G04 Gerber Fmt 4.6, Leading zero omitted, Abs format (unit mm)*
G04 Created by KiCad (PCBNEW 6.0.3) date 2022-03-22 19:26:19*
%MOMM*%
%LPD*%
G01*
G04 APERTURE LIST*
%ADD10C,0.150000*%
%ADD11C,0.120000*%
G04 APERTURE END LIST*
D10*
X84737380Y-120466666D02*
X84737380Y-120942857D01*
X83737380Y-120942857D01*
X84642142Y-119561904D02*
X84689761Y-119609523D01*
X84737380Y-119752380D01*
X84737380Y-119847619D01*
X84689761Y-119990476D01*
X84594523Y-120085714D01*
X84499285Y-120133333D01*
X84308809Y-120180952D01*
X84165952Y-120180952D01*
X83975476Y-120133333D01*
X83880238Y-120085714D01*
X83785000Y-119990476D01*
X83737380Y-119847619D01*
X83737380Y-119752380D01*
X83785000Y-119609523D01*
X83832619Y-119561904D01*
X84737380Y-119133333D02*
X83737380Y-119133333D01*
X83737380Y-118895238D01*
X83785000Y-118752380D01*
X83880238Y-118657142D01*
X83975476Y-118609523D01*
X84165952Y-118561904D01*
X84308809Y-118561904D01*
X84499285Y-118609523D01*
X84594523Y-118657142D01*
X84689761Y-118752380D01*
X84737380Y-118895238D01*
X84737380Y-119133333D01*
X84451666Y-117419047D02*
X84451666Y-116942857D01*
X84737380Y-117514285D02*
X83737380Y-117180952D01*
X84737380Y-116847619D01*
X84737380Y-116085714D02*
X83737380Y-116085714D01*
X84689761Y-116085714D02*
X84737380Y-116180952D01*
X84737380Y-116371428D01*
X84689761Y-116466666D01*
X84642142Y-116514285D01*
X84546904Y-116561904D01*
X84261190Y-116561904D01*
X84165952Y-116514285D01*
X84118333Y-116466666D01*
X84070714Y-116371428D01*
X84070714Y-116180952D01*
X84118333Y-116085714D01*
X84737380Y-115180952D02*
X84213571Y-115180952D01*
X84118333Y-115228571D01*
X84070714Y-115323809D01*
X84070714Y-115514285D01*
X84118333Y-115609523D01*
X84689761Y-115180952D02*
X84737380Y-115276190D01*
X84737380Y-115514285D01*
X84689761Y-115609523D01*
X84594523Y-115657142D01*
X84499285Y-115657142D01*
X84404047Y-115609523D01*
X84356428Y-115514285D01*
X84356428Y-115276190D01*
X84308809Y-115180952D01*
X84070714Y-114704761D02*
X85070714Y-114704761D01*
X84118333Y-114704761D02*
X84070714Y-114609523D01*
X84070714Y-114419047D01*
X84118333Y-114323809D01*
X84165952Y-114276190D01*
X84261190Y-114228571D01*
X84546904Y-114228571D01*
X84642142Y-114276190D01*
X84689761Y-114323809D01*
X84737380Y-114419047D01*
X84737380Y-114609523D01*
X84689761Y-114704761D01*
X84070714Y-113942857D02*
X84070714Y-113561904D01*
X83737380Y-113800000D02*
X84594523Y-113800000D01*
X84689761Y-113752380D01*
X84737380Y-113657142D01*
X84737380Y-113561904D01*
X84689761Y-112847619D02*
X84737380Y-112942857D01*
X84737380Y-113133333D01*
X84689761Y-113228571D01*
X84594523Y-113276190D01*
X84213571Y-113276190D01*
X84118333Y-113228571D01*
X84070714Y-113133333D01*
X84070714Y-112942857D01*
X84118333Y-112847619D01*
X84213571Y-112800000D01*
X84308809Y-112800000D01*
X84404047Y-113276190D01*
X84737380Y-112371428D02*
X84070714Y-112371428D01*
X84261190Y-112371428D02*
X84165952Y-112323809D01*
X84118333Y-112276190D01*
X84070714Y-112180952D01*
X84070714Y-112085714D01*
X84356428Y-110990476D02*
X84356428Y-110228571D01*
X83737380Y-109133333D02*
X84737380Y-108800000D01*
X83737380Y-108466666D01*
X84737380Y-107609523D02*
X84737380Y-108180952D01*
X84737380Y-107895238D02*
X83737380Y-107895238D01*
X83880238Y-107990476D01*
X83975476Y-108085714D01*
X84023095Y-108180952D01*
X86061666Y-119109523D02*
X86061666Y-118633333D01*
X86347380Y-119204761D02*
X85347380Y-118871428D01*
X86347380Y-118538095D01*
X85680714Y-118204761D02*
X86347380Y-118204761D01*
X85775952Y-118204761D02*
X85728333Y-118157142D01*
X85680714Y-118061904D01*
X85680714Y-117919047D01*
X85728333Y-117823809D01*
X85823571Y-117776190D01*
X86347380Y-117776190D01*
X86347380Y-116871428D02*
X85347380Y-116871428D01*
X86299761Y-116871428D02*
X86347380Y-116966666D01*
X86347380Y-117157142D01*
X86299761Y-117252380D01*
X86252142Y-117300000D01*
X86156904Y-117347619D01*
X85871190Y-117347619D01*
X85775952Y-117300000D01*
X85728333Y-117252380D01*
X85680714Y-117157142D01*
X85680714Y-116966666D01*
X85728333Y-116871428D01*
X86299761Y-116014285D02*
X86347380Y-116109523D01*
X86347380Y-116300000D01*
X86299761Y-116395238D01*
X86204523Y-116442857D01*
X85823571Y-116442857D01*
X85728333Y-116395238D01*
X85680714Y-116300000D01*
X85680714Y-116109523D01*
X85728333Y-116014285D01*
X85823571Y-115966666D01*
X85918809Y-115966666D01*
X86014047Y-116442857D01*
X86347380Y-115538095D02*
X85680714Y-115538095D01*
X85871190Y-115538095D02*
X85775952Y-115490476D01*
X85728333Y-115442857D01*
X85680714Y-115347619D01*
X85680714Y-115252380D01*
X86299761Y-114966666D02*
X86347380Y-114871428D01*
X86347380Y-114680952D01*
X86299761Y-114585714D01*
X86204523Y-114538095D01*
X86156904Y-114538095D01*
X86061666Y-114585714D01*
X86014047Y-114680952D01*
X86014047Y-114823809D01*
X85966428Y-114919047D01*
X85871190Y-114966666D01*
X85823571Y-114966666D01*
X85728333Y-114919047D01*
X85680714Y-114823809D01*
X85680714Y-114680952D01*
X85728333Y-114585714D01*
X86347380Y-113347619D02*
X85347380Y-113347619D01*
X85347380Y-112966666D01*
X85395000Y-112871428D01*
X85442619Y-112823809D01*
X85537857Y-112776190D01*
X85680714Y-112776190D01*
X85775952Y-112823809D01*
X85823571Y-112871428D01*
X85871190Y-112966666D01*
X85871190Y-113347619D01*
X86347380Y-112347619D02*
X85680714Y-112347619D01*
X85347380Y-112347619D02*
X85395000Y-112395238D01*
X85442619Y-112347619D01*
X85395000Y-112300000D01*
X85347380Y-112347619D01*
X85442619Y-112347619D01*
X86299761Y-111919047D02*
X86347380Y-111823809D01*
X86347380Y-111633333D01*
X86299761Y-111538095D01*
X86204523Y-111490476D01*
X86156904Y-111490476D01*
X86061666Y-111538095D01*
X86014047Y-111633333D01*
X86014047Y-111776190D01*
X85966428Y-111871428D01*
X85871190Y-111919047D01*
X85823571Y-111919047D01*
X85728333Y-111871428D01*
X85680714Y-111776190D01*
X85680714Y-111633333D01*
X85728333Y-111538095D01*
X85680714Y-111204761D02*
X85680714Y-110823809D01*
X85347380Y-111061904D02*
X86204523Y-111061904D01*
X86299761Y-111014285D01*
X86347380Y-110919047D01*
X86347380Y-110823809D01*
X86347380Y-110347619D02*
X86299761Y-110442857D01*
X86252142Y-110490476D01*
X86156904Y-110538095D01*
X85871190Y-110538095D01*
X85775952Y-110490476D01*
X85728333Y-110442857D01*
X85680714Y-110347619D01*
X85680714Y-110204761D01*
X85728333Y-110109523D01*
X85775952Y-110061904D01*
X85871190Y-110014285D01*
X86156904Y-110014285D01*
X86252142Y-110061904D01*
X86299761Y-110109523D01*
X86347380Y-110204761D01*
X86347380Y-110347619D01*
X86347380Y-109442857D02*
X86299761Y-109538095D01*
X86204523Y-109585714D01*
X85347380Y-109585714D01*
X84451666Y-80096666D02*
X84451666Y-79620476D01*
X84737380Y-80191904D02*
X83737380Y-79858571D01*
X84737380Y-79525238D01*
X84737380Y-78668095D02*
X84737380Y-79239523D01*
X84737380Y-78953809D02*
X83737380Y-78953809D01*
X83880238Y-79049047D01*
X83975476Y-79144285D01*
X84023095Y-79239523D01*
X83737380Y-78334761D02*
X83737380Y-77715714D01*
X84118333Y-78049047D01*
X84118333Y-77906190D01*
X84165952Y-77810952D01*
X84213571Y-77763333D01*
X84308809Y-77715714D01*
X84546904Y-77715714D01*
X84642142Y-77763333D01*
X84689761Y-77810952D01*
X84737380Y-77906190D01*
X84737380Y-78191904D01*
X84689761Y-78287142D01*
X84642142Y-78334761D01*
X84356428Y-77287142D02*
X84356428Y-76525238D01*
X84737380Y-75572857D02*
X84737380Y-76049047D01*
X83737380Y-76049047D01*
X84642142Y-74668095D02*
X84689761Y-74715714D01*
X84737380Y-74858571D01*
X84737380Y-74953809D01*
X84689761Y-75096666D01*
X84594523Y-75191904D01*
X84499285Y-75239523D01*
X84308809Y-75287142D01*
X84165952Y-75287142D01*
X83975476Y-75239523D01*
X83880238Y-75191904D01*
X83785000Y-75096666D01*
X83737380Y-74953809D01*
X83737380Y-74858571D01*
X83785000Y-74715714D01*
X83832619Y-74668095D01*
X84737380Y-74239523D02*
X83737380Y-74239523D01*
X83737380Y-74001428D01*
X83785000Y-73858571D01*
X83880238Y-73763333D01*
X83975476Y-73715714D01*
X84165952Y-73668095D01*
X84308809Y-73668095D01*
X84499285Y-73715714D01*
X84594523Y-73763333D01*
X84689761Y-73858571D01*
X84737380Y-74001428D01*
X84737380Y-74239523D01*
X83737380Y-73334761D02*
X83737380Y-72668095D01*
X84737380Y-73096666D01*
X84356428Y-72287142D02*
X84356428Y-71525238D01*
X83737380Y-71191904D02*
X83737380Y-70620476D01*
X84737380Y-70906190D02*
X83737380Y-70906190D01*
X84689761Y-70334761D02*
X84737380Y-70191904D01*
X84737380Y-69953809D01*
X84689761Y-69858571D01*
X84642142Y-69810952D01*
X84546904Y-69763333D01*
X84451666Y-69763333D01*
X84356428Y-69810952D01*
X84308809Y-69858571D01*
X84261190Y-69953809D01*
X84213571Y-70144285D01*
X84165952Y-70239523D01*
X84118333Y-70287142D01*
X84023095Y-70334761D01*
X83927857Y-70334761D01*
X83832619Y-70287142D01*
X83785000Y-70239523D01*
X83737380Y-70144285D01*
X83737380Y-69906190D01*
X83785000Y-69763333D01*
X86728333Y-82406190D02*
X86680714Y-82453809D01*
X86537857Y-82549047D01*
X86442619Y-82596666D01*
X86299761Y-82644285D01*
X86061666Y-82691904D01*
X85871190Y-82691904D01*
X85633095Y-82644285D01*
X85490238Y-82596666D01*
X85395000Y-82549047D01*
X85252142Y-82453809D01*
X85204523Y-82406190D01*
X86347380Y-82025238D02*
X85347380Y-82025238D01*
X86061666Y-81691904D01*
X85347380Y-81358571D01*
X86347380Y-81358571D01*
X85680714Y-80453809D02*
X86347380Y-80453809D01*
X85680714Y-80882380D02*
X86204523Y-80882380D01*
X86299761Y-80834761D01*
X86347380Y-80739523D01*
X86347380Y-80596666D01*
X86299761Y-80501428D01*
X86252142Y-80453809D01*
X86299761Y-80025238D02*
X86347380Y-79930000D01*
X86347380Y-79739523D01*
X86299761Y-79644285D01*
X86204523Y-79596666D01*
X86156904Y-79596666D01*
X86061666Y-79644285D01*
X86014047Y-79739523D01*
X86014047Y-79882380D01*
X85966428Y-79977619D01*
X85871190Y-80025238D01*
X85823571Y-80025238D01*
X85728333Y-79977619D01*
X85680714Y-79882380D01*
X85680714Y-79739523D01*
X85728333Y-79644285D01*
X85680714Y-79310952D02*
X85680714Y-78930000D01*
X85347380Y-79168095D02*
X86204523Y-79168095D01*
X86299761Y-79120476D01*
X86347380Y-79025238D01*
X86347380Y-78930000D01*
X86347380Y-77834761D02*
X85347380Y-77834761D01*
X85728333Y-77834761D02*
X85680714Y-77739523D01*
X85680714Y-77549047D01*
X85728333Y-77453809D01*
X85775952Y-77406190D01*
X85871190Y-77358571D01*
X86156904Y-77358571D01*
X86252142Y-77406190D01*
X86299761Y-77453809D01*
X86347380Y-77549047D01*
X86347380Y-77739523D01*
X86299761Y-77834761D01*
X86299761Y-76549047D02*
X86347380Y-76644285D01*
X86347380Y-76834761D01*
X86299761Y-76930000D01*
X86204523Y-76977619D01*
X85823571Y-76977619D01*
X85728333Y-76930000D01*
X85680714Y-76834761D01*
X85680714Y-76644285D01*
X85728333Y-76549047D01*
X85823571Y-76501428D01*
X85918809Y-76501428D01*
X86014047Y-76977619D01*
X86347380Y-75310952D02*
X85680714Y-75310952D01*
X85347380Y-75310952D02*
X85395000Y-75358571D01*
X85442619Y-75310952D01*
X85395000Y-75263333D01*
X85347380Y-75310952D01*
X85442619Y-75310952D01*
X85680714Y-74834761D02*
X86347380Y-74834761D01*
X85775952Y-74834761D02*
X85728333Y-74787142D01*
X85680714Y-74691904D01*
X85680714Y-74549047D01*
X85728333Y-74453809D01*
X85823571Y-74406190D01*
X86347380Y-74406190D01*
X86347380Y-73168095D02*
X85347380Y-73168095D01*
X86061666Y-72834761D01*
X85347380Y-72501428D01*
X86347380Y-72501428D01*
X85347380Y-71834761D02*
X85347380Y-71644285D01*
X85395000Y-71549047D01*
X85490238Y-71453809D01*
X85680714Y-71406190D01*
X86014047Y-71406190D01*
X86204523Y-71453809D01*
X86299761Y-71549047D01*
X86347380Y-71644285D01*
X86347380Y-71834761D01*
X86299761Y-71930000D01*
X86204523Y-72025238D01*
X86014047Y-72072857D01*
X85680714Y-72072857D01*
X85490238Y-72025238D01*
X85395000Y-71930000D01*
X85347380Y-71834761D01*
X86347380Y-70977619D02*
X85347380Y-70977619D01*
X85347380Y-70739523D01*
X85395000Y-70596666D01*
X85490238Y-70501428D01*
X85585476Y-70453809D01*
X85775952Y-70406190D01*
X85918809Y-70406190D01*
X86109285Y-70453809D01*
X86204523Y-70501428D01*
X86299761Y-70596666D01*
X86347380Y-70739523D01*
X86347380Y-70977619D01*
X85823571Y-69977619D02*
X85823571Y-69644285D01*
X86347380Y-69501428D02*
X86347380Y-69977619D01*
X85347380Y-69977619D01*
X85347380Y-69501428D01*
X86347380Y-67787142D02*
X86347380Y-68358571D01*
X86347380Y-68072857D02*
X85347380Y-68072857D01*
X85490238Y-68168095D01*
X85585476Y-68263333D01*
X85633095Y-68358571D01*
X86728333Y-67453809D02*
X86680714Y-67406190D01*
X86537857Y-67310952D01*
X86442619Y-67263333D01*
X86299761Y-67215714D01*
X86061666Y-67168095D01*
X85871190Y-67168095D01*
X85633095Y-67215714D01*
X85490238Y-67263333D01*
X85395000Y-67310952D01*
X85252142Y-67406190D01*
X85204523Y-67453809D01*
%TO.C,C4*%
X84690833Y-49477142D02*
X84643214Y-49524761D01*
X84500357Y-49572380D01*
X84405119Y-49572380D01*
X84262261Y-49524761D01*
X84167023Y-49429523D01*
X84119404Y-49334285D01*
X84071785Y-49143809D01*
X84071785Y-49000952D01*
X84119404Y-48810476D01*
X84167023Y-48715238D01*
X84262261Y-48620000D01*
X84405119Y-48572380D01*
X84500357Y-48572380D01*
X84643214Y-48620000D01*
X84690833Y-48667619D01*
X85547976Y-48905714D02*
X85547976Y-49572380D01*
X85309880Y-48524761D02*
X85071785Y-49239047D01*
X85690833Y-49239047D01*
%TO.C,TP3*%
X83828095Y-91784380D02*
X84399523Y-91784380D01*
X84113809Y-92784380D02*
X84113809Y-91784380D01*
X84732857Y-92784380D02*
X84732857Y-91784380D01*
X85113809Y-91784380D01*
X85209047Y-91832000D01*
X85256666Y-91879619D01*
X85304285Y-91974857D01*
X85304285Y-92117714D01*
X85256666Y-92212952D01*
X85209047Y-92260571D01*
X85113809Y-92308190D01*
X84732857Y-92308190D01*
X85637619Y-91784380D02*
X86256666Y-91784380D01*
X85923333Y-92165333D01*
X86066190Y-92165333D01*
X86161428Y-92212952D01*
X86209047Y-92260571D01*
X86256666Y-92355809D01*
X86256666Y-92593904D01*
X86209047Y-92689142D01*
X86161428Y-92736761D01*
X86066190Y-92784380D01*
X85780476Y-92784380D01*
X85685238Y-92736761D01*
X85637619Y-92689142D01*
%TO.C,TP1*%
X88908095Y-49874380D02*
X89479523Y-49874380D01*
X89193809Y-50874380D02*
X89193809Y-49874380D01*
X89812857Y-50874380D02*
X89812857Y-49874380D01*
X90193809Y-49874380D01*
X90289047Y-49922000D01*
X90336666Y-49969619D01*
X90384285Y-50064857D01*
X90384285Y-50207714D01*
X90336666Y-50302952D01*
X90289047Y-50350571D01*
X90193809Y-50398190D01*
X89812857Y-50398190D01*
X91336666Y-50874380D02*
X90765238Y-50874380D01*
X91050952Y-50874380D02*
X91050952Y-49874380D01*
X90955714Y-50017238D01*
X90860476Y-50112476D01*
X90765238Y-50160095D01*
%TO.C,J2*%
X97456666Y-56852380D02*
X97456666Y-57566666D01*
X97409047Y-57709523D01*
X97313809Y-57804761D01*
X97170952Y-57852380D01*
X97075714Y-57852380D01*
X97885238Y-56947619D02*
X97932857Y-56900000D01*
X98028095Y-56852380D01*
X98266190Y-56852380D01*
X98361428Y-56900000D01*
X98409047Y-56947619D01*
X98456666Y-57042857D01*
X98456666Y-57138095D01*
X98409047Y-57280952D01*
X97837619Y-57852380D01*
X98456666Y-57852380D01*
%TO.C,REF\u002A\u002A*%
X97726666Y-120712380D02*
X97393333Y-120236190D01*
X97155238Y-120712380D02*
X97155238Y-119712380D01*
X97536190Y-119712380D01*
X97631428Y-119760000D01*
X97679047Y-119807619D01*
X97726666Y-119902857D01*
X97726666Y-120045714D01*
X97679047Y-120140952D01*
X97631428Y-120188571D01*
X97536190Y-120236190D01*
X97155238Y-120236190D01*
X98155238Y-120188571D02*
X98488571Y-120188571D01*
X98631428Y-120712380D02*
X98155238Y-120712380D01*
X98155238Y-119712380D01*
X98631428Y-119712380D01*
X99393333Y-120188571D02*
X99060000Y-120188571D01*
X99060000Y-120712380D02*
X99060000Y-119712380D01*
X99536190Y-119712380D01*
X100060000Y-119712380D02*
X100060000Y-119950476D01*
X99821904Y-119855238D02*
X100060000Y-119950476D01*
X100298095Y-119855238D01*
X99917142Y-120140952D02*
X100060000Y-119950476D01*
X100202857Y-120140952D01*
X100821904Y-119712380D02*
X100821904Y-119950476D01*
X100583809Y-119855238D02*
X100821904Y-119950476D01*
X101060000Y-119855238D01*
X100679047Y-120140952D02*
X100821904Y-119950476D01*
X100964761Y-120140952D01*
%TO.C,C3*%
X84690833Y-53287142D02*
X84643214Y-53334761D01*
X84500357Y-53382380D01*
X84405119Y-53382380D01*
X84262261Y-53334761D01*
X84167023Y-53239523D01*
X84119404Y-53144285D01*
X84071785Y-52953809D01*
X84071785Y-52810952D01*
X84119404Y-52620476D01*
X84167023Y-52525238D01*
X84262261Y-52430000D01*
X84405119Y-52382380D01*
X84500357Y-52382380D01*
X84643214Y-52430000D01*
X84690833Y-52477619D01*
X85024166Y-52382380D02*
X85643214Y-52382380D01*
X85309880Y-52763333D01*
X85452738Y-52763333D01*
X85547976Y-52810952D01*
X85595595Y-52858571D01*
X85643214Y-52953809D01*
X85643214Y-53191904D01*
X85595595Y-53287142D01*
X85547976Y-53334761D01*
X85452738Y-53382380D01*
X85167023Y-53382380D01*
X85071785Y-53334761D01*
X85024166Y-53287142D01*
%TO.C,C1*%
X89770833Y-120597142D02*
X89723214Y-120644761D01*
X89580357Y-120692380D01*
X89485119Y-120692380D01*
X89342261Y-120644761D01*
X89247023Y-120549523D01*
X89199404Y-120454285D01*
X89151785Y-120263809D01*
X89151785Y-120120952D01*
X89199404Y-119930476D01*
X89247023Y-119835238D01*
X89342261Y-119740000D01*
X89485119Y-119692380D01*
X89580357Y-119692380D01*
X89723214Y-119740000D01*
X89770833Y-119787619D01*
X90723214Y-120692380D02*
X90151785Y-120692380D01*
X90437500Y-120692380D02*
X90437500Y-119692380D01*
X90342261Y-119835238D01*
X90247023Y-119930476D01*
X90151785Y-119978095D01*
%TO.C,TP5*%
X83828095Y-101944380D02*
X84399523Y-101944380D01*
X84113809Y-102944380D02*
X84113809Y-101944380D01*
X84732857Y-102944380D02*
X84732857Y-101944380D01*
X85113809Y-101944380D01*
X85209047Y-101992000D01*
X85256666Y-102039619D01*
X85304285Y-102134857D01*
X85304285Y-102277714D01*
X85256666Y-102372952D01*
X85209047Y-102420571D01*
X85113809Y-102468190D01*
X84732857Y-102468190D01*
X86209047Y-101944380D02*
X85732857Y-101944380D01*
X85685238Y-102420571D01*
X85732857Y-102372952D01*
X85828095Y-102325333D01*
X86066190Y-102325333D01*
X86161428Y-102372952D01*
X86209047Y-102420571D01*
X86256666Y-102515809D01*
X86256666Y-102753904D01*
X86209047Y-102849142D01*
X86161428Y-102896761D01*
X86066190Y-102944380D01*
X85828095Y-102944380D01*
X85732857Y-102896761D01*
X85685238Y-102849142D01*
%TO.C,REF\u002A\u002A*%
X97726666Y-47052380D02*
X97393333Y-46576190D01*
X97155238Y-47052380D02*
X97155238Y-46052380D01*
X97536190Y-46052380D01*
X97631428Y-46100000D01*
X97679047Y-46147619D01*
X97726666Y-46242857D01*
X97726666Y-46385714D01*
X97679047Y-46480952D01*
X97631428Y-46528571D01*
X97536190Y-46576190D01*
X97155238Y-46576190D01*
X98155238Y-46528571D02*
X98488571Y-46528571D01*
X98631428Y-47052380D02*
X98155238Y-47052380D01*
X98155238Y-46052380D01*
X98631428Y-46052380D01*
X99393333Y-46528571D02*
X99060000Y-46528571D01*
X99060000Y-47052380D02*
X99060000Y-46052380D01*
X99536190Y-46052380D01*
X100060000Y-46052380D02*
X100060000Y-46290476D01*
X99821904Y-46195238D02*
X100060000Y-46290476D01*
X100298095Y-46195238D01*
X99917142Y-46480952D02*
X100060000Y-46290476D01*
X100202857Y-46480952D01*
X100821904Y-46052380D02*
X100821904Y-46290476D01*
X100583809Y-46195238D02*
X100821904Y-46290476D01*
X101060000Y-46195238D01*
X100679047Y-46480952D02*
X100821904Y-46290476D01*
X100964761Y-46480952D01*
%TO.C,C2*%
X89770833Y-116787142D02*
X89723214Y-116834761D01*
X89580357Y-116882380D01*
X89485119Y-116882380D01*
X89342261Y-116834761D01*
X89247023Y-116739523D01*
X89199404Y-116644285D01*
X89151785Y-116453809D01*
X89151785Y-116310952D01*
X89199404Y-116120476D01*
X89247023Y-116025238D01*
X89342261Y-115930000D01*
X89485119Y-115882380D01*
X89580357Y-115882380D01*
X89723214Y-115930000D01*
X89770833Y-115977619D01*
X90151785Y-115977619D02*
X90199404Y-115930000D01*
X90294642Y-115882380D01*
X90532738Y-115882380D01*
X90627976Y-115930000D01*
X90675595Y-115977619D01*
X90723214Y-116072857D01*
X90723214Y-116168095D01*
X90675595Y-116310952D01*
X90104166Y-116882380D01*
X90723214Y-116882380D01*
%TO.C,TP4*%
X83828095Y-96864380D02*
X84399523Y-96864380D01*
X84113809Y-97864380D02*
X84113809Y-96864380D01*
X84732857Y-97864380D02*
X84732857Y-96864380D01*
X85113809Y-96864380D01*
X85209047Y-96912000D01*
X85256666Y-96959619D01*
X85304285Y-97054857D01*
X85304285Y-97197714D01*
X85256666Y-97292952D01*
X85209047Y-97340571D01*
X85113809Y-97388190D01*
X84732857Y-97388190D01*
X86161428Y-97197714D02*
X86161428Y-97864380D01*
X85923333Y-96816761D02*
X85685238Y-97531047D01*
X86304285Y-97531047D01*
%TO.C,TP2*%
X88908095Y-54954380D02*
X89479523Y-54954380D01*
X89193809Y-55954380D02*
X89193809Y-54954380D01*
X89812857Y-55954380D02*
X89812857Y-54954380D01*
X90193809Y-54954380D01*
X90289047Y-55002000D01*
X90336666Y-55049619D01*
X90384285Y-55144857D01*
X90384285Y-55287714D01*
X90336666Y-55382952D01*
X90289047Y-55430571D01*
X90193809Y-55478190D01*
X89812857Y-55478190D01*
X90765238Y-55049619D02*
X90812857Y-55002000D01*
X90908095Y-54954380D01*
X91146190Y-54954380D01*
X91241428Y-55002000D01*
X91289047Y-55049619D01*
X91336666Y-55144857D01*
X91336666Y-55240095D01*
X91289047Y-55382952D01*
X90717619Y-55954380D01*
X91336666Y-55954380D01*
%TO.C,J1*%
X80946666Y-47712380D02*
X80946666Y-48426666D01*
X80899047Y-48569523D01*
X80803809Y-48664761D01*
X80660952Y-48712380D01*
X80565714Y-48712380D01*
X81946666Y-48712380D02*
X81375238Y-48712380D01*
X81660952Y-48712380D02*
X81660952Y-47712380D01*
X81565714Y-47855238D01*
X81470476Y-47950476D01*
X81375238Y-47998095D01*
D11*
%TO.C,C4*%
X84596248Y-50065000D02*
X85118752Y-50065000D01*
X84596248Y-51535000D02*
X85118752Y-51535000D01*
%TO.C,TP3*%
X86040000Y-93980000D02*
G75*
G03*
X86040000Y-93980000I-950000J0D01*
G01*
%TO.C,TP1*%
X91120000Y-52070000D02*
G75*
G03*
X91120000Y-52070000I-950000J0D01*
G01*
%TO.C,J2*%
X94540000Y-85580000D02*
X94540000Y-59590000D01*
X101040000Y-59590000D02*
X101040000Y-115670000D01*
X94540000Y-59590000D02*
X101040000Y-59590000D01*
X91840000Y-64000000D02*
X92840000Y-63500000D01*
X94540000Y-89680000D02*
X94540000Y-89680000D01*
X102350000Y-116970000D02*
X93230000Y-116970000D01*
X93230000Y-85580000D02*
X94540000Y-85580000D01*
X92840000Y-63500000D02*
X91840000Y-63000000D01*
X91840000Y-63000000D02*
X91840000Y-64000000D01*
X93230000Y-58290000D02*
X102350000Y-58290000D01*
X102350000Y-58290000D02*
X102350000Y-116970000D01*
X93230000Y-116970000D02*
X93230000Y-58290000D01*
X94540000Y-115670000D02*
X94540000Y-89680000D01*
X101040000Y-115670000D02*
X94540000Y-115670000D01*
X94540000Y-89680000D02*
X93230000Y-89680000D01*
%TO.C,C3*%
X84596248Y-55345000D02*
X85118752Y-55345000D01*
X84596248Y-53875000D02*
X85118752Y-53875000D01*
%TO.C,C1*%
X89676248Y-122655000D02*
X90198752Y-122655000D01*
X89676248Y-121185000D02*
X90198752Y-121185000D01*
%TO.C,TP5*%
X86040000Y-104140000D02*
G75*
G03*
X86040000Y-104140000I-950000J0D01*
G01*
%TO.C,C2*%
X89676248Y-117375000D02*
X90198752Y-117375000D01*
X89676248Y-118845000D02*
X90198752Y-118845000D01*
%TO.C,TP4*%
X86040000Y-99060000D02*
G75*
G03*
X86040000Y-99060000I-950000J0D01*
G01*
%TO.C,TP2*%
X91120000Y-57150000D02*
G75*
G03*
X91120000Y-57150000I-950000J0D01*
G01*
%TD*%
M02*
