%TF.GenerationSoftware,KiCad,Pcbnew,6.0.3*%
%TF.CreationDate,2022-03-22T19:26:19+01:00*%
%TF.ProjectId,lcdbrd,6c636462-7264-42e6-9b69-6361645f7063,rev?*%
%TF.SameCoordinates,Original*%
%TF.FileFunction,Copper,L1,Top*%
%TF.FilePolarity,Positive*%
%FSLAX46Y46*%
G04 Gerber Fmt 4.6, Leading zero omitted, Abs format (unit mm)*
G04 Created by KiCad (PCBNEW 6.0.3) date 2022-03-22 19:26:19*
%MOMM*%
%LPD*%
G01*
G04 APERTURE LIST*
G04 Aperture macros list*
%AMRoundRect*
0 Rectangle with rounded corners*
0 $1 Rounding radius*
0 $2 $3 $4 $5 $6 $7 $8 $9 X,Y pos of 4 corners*
0 Add a 4 corners polygon primitive as box body*
4,1,4,$2,$3,$4,$5,$6,$7,$8,$9,$2,$3,0*
0 Add four circle primitives for the rounded corners*
1,1,$1+$1,$2,$3*
1,1,$1+$1,$4,$5*
1,1,$1+$1,$6,$7*
1,1,$1+$1,$8,$9*
0 Add four rect primitives between the rounded corners*
20,1,$1+$1,$2,$3,$4,$5,0*
20,1,$1+$1,$4,$5,$6,$7,0*
20,1,$1+$1,$6,$7,$8,$9,0*
20,1,$1+$1,$8,$9,$2,$3,0*%
G04 Aperture macros list end*
%TA.AperFunction,SMDPad,CuDef*%
%ADD10RoundRect,0.250000X-0.337500X-0.475000X0.337500X-0.475000X0.337500X0.475000X-0.337500X0.475000X0*%
%TD*%
%TA.AperFunction,SMDPad,CuDef*%
%ADD11C,1.500000*%
%TD*%
%TA.AperFunction,ComponentPad*%
%ADD12RoundRect,0.250000X-0.600000X-0.600000X0.600000X-0.600000X0.600000X0.600000X-0.600000X0.600000X0*%
%TD*%
%TA.AperFunction,ComponentPad*%
%ADD13C,1.700000*%
%TD*%
%TA.AperFunction,ComponentPad*%
%ADD14R,1.700000X1.700000*%
%TD*%
%TA.AperFunction,ComponentPad*%
%ADD15O,1.700000X1.700000*%
%TD*%
%TA.AperFunction,ViaPad*%
%ADD16C,0.800000*%
%TD*%
%TA.AperFunction,Conductor*%
%ADD17C,0.400000*%
%TD*%
%TA.AperFunction,Conductor*%
%ADD18C,0.250000*%
%TD*%
%TA.AperFunction,Conductor*%
%ADD19C,0.350000*%
%TD*%
G04 APERTURE END LIST*
D10*
%TO.P,C4,1*%
%TO.N,3v3*%
X83820000Y-50800000D03*
%TO.P,C4,2*%
%TO.N,GND*%
X85895000Y-50800000D03*
%TD*%
D11*
%TO.P,TP3,1,1*%
%TO.N,/DE*%
X85090000Y-93980000D03*
%TD*%
%TO.P,TP1,1,1*%
%TO.N,5v0*%
X90170000Y-52070000D03*
%TD*%
D12*
%TO.P,J2,1,Pin_1*%
%TO.N,5v0*%
X96520000Y-63500000D03*
D13*
%TO.P,J2,2,Pin_2*%
%TO.N,GND*%
X99060000Y-63500000D03*
%TO.P,J2,3,Pin_3*%
%TO.N,3v3*%
X96520000Y-66040000D03*
%TO.P,J2,4,Pin_4*%
%TO.N,GND*%
X99060000Y-66040000D03*
%TO.P,J2,5,Pin_5*%
%TO.N,/R0*%
X96520000Y-68580000D03*
%TO.P,J2,6,Pin_6*%
%TO.N,/R1*%
X99060000Y-68580000D03*
%TO.P,J2,7,Pin_7*%
%TO.N,/R2*%
X96520000Y-71120000D03*
%TO.P,J2,8,Pin_8*%
%TO.N,/R3*%
X99060000Y-71120000D03*
%TO.P,J2,9,Pin_9*%
%TO.N,/R4*%
X96520000Y-73660000D03*
%TO.P,J2,10,Pin_10*%
%TO.N,/R5*%
X99060000Y-73660000D03*
%TO.P,J2,11,Pin_11*%
%TO.N,/R6*%
X96520000Y-76200000D03*
%TO.P,J2,12,Pin_12*%
%TO.N,/R7*%
X99060000Y-76200000D03*
%TO.P,J2,13,Pin_13*%
%TO.N,/G0*%
X96520000Y-78740000D03*
%TO.P,J2,14,Pin_14*%
%TO.N,/G1*%
X99060000Y-78740000D03*
%TO.P,J2,15,Pin_15*%
%TO.N,/G2*%
X96520000Y-81280000D03*
%TO.P,J2,16,Pin_16*%
%TO.N,/G3*%
X99060000Y-81280000D03*
%TO.P,J2,17,Pin_17*%
%TO.N,/G4*%
X96520000Y-83820000D03*
%TO.P,J2,18,Pin_18*%
%TO.N,/G5*%
X99060000Y-83820000D03*
%TO.P,J2,19,Pin_19*%
%TO.N,/G6*%
X96520000Y-86360000D03*
%TO.P,J2,20,Pin_20*%
%TO.N,/G7*%
X99060000Y-86360000D03*
%TO.P,J2,21,Pin_21*%
%TO.N,/B0*%
X96520000Y-88900000D03*
%TO.P,J2,22,Pin_22*%
%TO.N,/B1*%
X99060000Y-88900000D03*
%TO.P,J2,23,Pin_23*%
%TO.N,/B2*%
X96520000Y-91440000D03*
%TO.P,J2,24,Pin_24*%
%TO.N,/B3*%
X99060000Y-91440000D03*
%TO.P,J2,25,Pin_25*%
%TO.N,/B4*%
X96520000Y-93980000D03*
%TO.P,J2,26,Pin_26*%
%TO.N,/B5*%
X99060000Y-93980000D03*
%TO.P,J2,27,Pin_27*%
%TO.N,/B6*%
X96520000Y-96520000D03*
%TO.P,J2,28,Pin_28*%
%TO.N,/B7*%
X99060000Y-96520000D03*
%TO.P,J2,29,Pin_29*%
%TO.N,unconnected-(J2-Pad29)*%
X96520000Y-99060000D03*
%TO.P,J2,30,Pin_30*%
%TO.N,unconnected-(J2-Pad30)*%
X99060000Y-99060000D03*
%TO.P,J2,31,Pin_31*%
%TO.N,/CLK*%
X96520000Y-101600000D03*
%TO.P,J2,32,Pin_32*%
%TO.N,/DE*%
X99060000Y-101600000D03*
%TO.P,J2,33,Pin_33*%
%TO.N,unconnected-(J2-Pad33)*%
X96520000Y-104140000D03*
%TO.P,J2,34,Pin_34*%
%TO.N,unconnected-(J2-Pad34)*%
X99060000Y-104140000D03*
%TO.P,J2,35,Pin_35*%
%TO.N,3v3*%
X96520000Y-106680000D03*
%TO.P,J2,36,Pin_36*%
%TO.N,/BKL*%
X99060000Y-106680000D03*
%TO.P,J2,37,Pin_37*%
%TO.N,unconnected-(J2-Pad37)*%
X96520000Y-109220000D03*
%TO.P,J2,38,Pin_38*%
%TO.N,unconnected-(J2-Pad38)*%
X99060000Y-109220000D03*
%TO.P,J2,39,Pin_39*%
%TO.N,unconnected-(J2-Pad39)*%
X96520000Y-111760000D03*
%TO.P,J2,40,Pin_40*%
%TO.N,unconnected-(J2-Pad40)*%
X99060000Y-111760000D03*
%TD*%
D10*
%TO.P,C3,1*%
%TO.N,3v3*%
X83820000Y-54610000D03*
%TO.P,C3,2*%
%TO.N,GND*%
X85895000Y-54610000D03*
%TD*%
%TO.P,C1,1*%
%TO.N,5v0*%
X88900000Y-121920000D03*
%TO.P,C1,2*%
%TO.N,GND*%
X90975000Y-121920000D03*
%TD*%
D11*
%TO.P,TP5,1,1*%
%TO.N,/BKL*%
X85090000Y-104140000D03*
%TD*%
D10*
%TO.P,C2,1*%
%TO.N,5v0*%
X88900000Y-118110000D03*
%TO.P,C2,2*%
%TO.N,GND*%
X90975000Y-118110000D03*
%TD*%
D11*
%TO.P,TP4,1,1*%
%TO.N,/CLK*%
X85090000Y-99060000D03*
%TD*%
%TO.P,TP2,1,1*%
%TO.N,3v3*%
X90170000Y-57150000D03*
%TD*%
D14*
%TO.P,J1,1,Pin_1*%
%TO.N,GND*%
X76200000Y-48260000D03*
D15*
%TO.P,J1,2,Pin_2*%
X78740000Y-48260000D03*
%TO.P,J1,3,Pin_3*%
%TO.N,3v3*%
X76200000Y-50800000D03*
%TO.P,J1,4,Pin_4*%
X78740000Y-50800000D03*
%TO.P,J1,5,Pin_5*%
%TO.N,GND*%
X76200000Y-53340000D03*
%TO.P,J1,6,Pin_6*%
X78740000Y-53340000D03*
%TO.P,J1,7,Pin_7*%
%TO.N,/R0*%
X76200000Y-55880000D03*
%TO.P,J1,8,Pin_8*%
%TO.N,/R1*%
X78740000Y-55880000D03*
%TO.P,J1,9,Pin_9*%
%TO.N,/R2*%
X76200000Y-58420000D03*
%TO.P,J1,10,Pin_10*%
%TO.N,/R3*%
X78740000Y-58420000D03*
%TO.P,J1,11,Pin_11*%
%TO.N,/R4*%
X76200000Y-60960000D03*
%TO.P,J1,12,Pin_12*%
%TO.N,/R5*%
X78740000Y-60960000D03*
%TO.P,J1,13,Pin_13*%
%TO.N,/R6*%
X76200000Y-63500000D03*
%TO.P,J1,14,Pin_14*%
%TO.N,/R7*%
X78740000Y-63500000D03*
%TO.P,J1,15,Pin_15*%
%TO.N,unconnected-(J1-Pad15)*%
X76200000Y-66040000D03*
%TO.P,J1,16,Pin_16*%
%TO.N,unconnected-(J1-Pad16)*%
X78740000Y-66040000D03*
%TO.P,J1,17,Pin_17*%
%TO.N,/G0*%
X76200000Y-68580000D03*
%TO.P,J1,18,Pin_18*%
%TO.N,/G1*%
X78740000Y-68580000D03*
%TO.P,J1,19,Pin_19*%
%TO.N,/G2*%
X76200000Y-71120000D03*
%TO.P,J1,20,Pin_20*%
%TO.N,/G3*%
X78740000Y-71120000D03*
%TO.P,J1,21,Pin_21*%
%TO.N,/G4*%
X76200000Y-73660000D03*
%TO.P,J1,22,Pin_22*%
%TO.N,/G5*%
X78740000Y-73660000D03*
%TO.P,J1,23,Pin_23*%
%TO.N,/G6*%
X76200000Y-76200000D03*
%TO.P,J1,24,Pin_24*%
%TO.N,/G7*%
X78740000Y-76200000D03*
%TO.P,J1,25,Pin_25*%
%TO.N,unconnected-(J1-Pad25)*%
X76200000Y-78740000D03*
%TO.P,J1,26,Pin_26*%
%TO.N,unconnected-(J1-Pad26)*%
X78740000Y-78740000D03*
%TO.P,J1,27,Pin_27*%
%TO.N,/B0*%
X76200000Y-81280000D03*
%TO.P,J1,28,Pin_28*%
%TO.N,/B1*%
X78740000Y-81280000D03*
%TO.P,J1,29,Pin_29*%
%TO.N,/B2*%
X76200000Y-83820000D03*
%TO.P,J1,30,Pin_30*%
%TO.N,/B3*%
X78740000Y-83820000D03*
%TO.P,J1,31,Pin_31*%
%TO.N,/B4*%
X76200000Y-86360000D03*
%TO.P,J1,32,Pin_32*%
%TO.N,/B5*%
X78740000Y-86360000D03*
%TO.P,J1,33,Pin_33*%
%TO.N,/B6*%
X76200000Y-88900000D03*
%TO.P,J1,34,Pin_34*%
%TO.N,/B7*%
X78740000Y-88900000D03*
%TO.P,J1,35,Pin_35*%
%TO.N,unconnected-(J1-Pad35)*%
X76200000Y-91440000D03*
%TO.P,J1,36,Pin_36*%
%TO.N,unconnected-(J1-Pad36)*%
X78740000Y-91440000D03*
%TO.P,J1,37,Pin_37*%
%TO.N,unconnected-(J1-Pad37)*%
X76200000Y-93980000D03*
%TO.P,J1,38,Pin_38*%
%TO.N,/DE*%
X78740000Y-93980000D03*
%TO.P,J1,39,Pin_39*%
%TO.N,unconnected-(J1-Pad39)*%
X76200000Y-96520000D03*
%TO.P,J1,40,Pin_40*%
%TO.N,unconnected-(J1-Pad40)*%
X78740000Y-96520000D03*
%TO.P,J1,41,Pin_41*%
%TO.N,unconnected-(J1-Pad41)*%
X76200000Y-99060000D03*
%TO.P,J1,42,Pin_42*%
%TO.N,/CLK*%
X78740000Y-99060000D03*
%TO.P,J1,43,Pin_43*%
%TO.N,unconnected-(J1-Pad43)*%
X76200000Y-101600000D03*
%TO.P,J1,44,Pin_44*%
%TO.N,unconnected-(J1-Pad44)*%
X78740000Y-101600000D03*
%TO.P,J1,45,Pin_45*%
%TO.N,unconnected-(J1-Pad45)*%
X76200000Y-104140000D03*
%TO.P,J1,46,Pin_46*%
%TO.N,/BKL*%
X78740000Y-104140000D03*
%TO.P,J1,47,Pin_47*%
%TO.N,unconnected-(J1-Pad47)*%
X76200000Y-106680000D03*
%TO.P,J1,48,Pin_48*%
%TO.N,unconnected-(J1-Pad48)*%
X78740000Y-106680000D03*
%TO.P,J1,49,Pin_49*%
%TO.N,unconnected-(J1-Pad49)*%
X76200000Y-109220000D03*
%TO.P,J1,50,Pin_50*%
%TO.N,unconnected-(J1-Pad50)*%
X78740000Y-109220000D03*
%TO.P,J1,51,Pin_51*%
%TO.N,unconnected-(J1-Pad51)*%
X76200000Y-111760000D03*
%TO.P,J1,52,Pin_52*%
%TO.N,unconnected-(J1-Pad52)*%
X78740000Y-111760000D03*
%TO.P,J1,53,Pin_53*%
%TO.N,unconnected-(J1-Pad53)*%
X76200000Y-114300000D03*
%TO.P,J1,54,Pin_54*%
%TO.N,unconnected-(J1-Pad54)*%
X78740000Y-114300000D03*
%TO.P,J1,55,Pin_55*%
%TO.N,unconnected-(J1-Pad55)*%
X76200000Y-116840000D03*
%TO.P,J1,56,Pin_56*%
%TO.N,unconnected-(J1-Pad56)*%
X78740000Y-116840000D03*
%TO.P,J1,57,Pin_57*%
%TO.N,unconnected-(J1-Pad57)*%
X76200000Y-119380000D03*
%TO.P,J1,58,Pin_58*%
%TO.N,unconnected-(J1-Pad58)*%
X78740000Y-119380000D03*
%TO.P,J1,59,Pin_59*%
%TO.N,unconnected-(J1-Pad59)*%
X76200000Y-121920000D03*
%TO.P,J1,60,Pin_60*%
%TO.N,unconnected-(J1-Pad60)*%
X78740000Y-121920000D03*
%TO.P,J1,61,Pin_61*%
%TO.N,GND*%
X76200000Y-124460000D03*
%TO.P,J1,62,Pin_62*%
X78740000Y-124460000D03*
%TO.P,J1,63,Pin_63*%
%TO.N,5v0*%
X76200000Y-127000000D03*
%TO.P,J1,64,Pin_64*%
X78740000Y-127000000D03*
%TD*%
D16*
%TO.N,5v0*%
X88900000Y-115570000D03*
%TD*%
D17*
%TO.N,5v0*%
X78740000Y-127000000D02*
X76200000Y-127000000D01*
D18*
X96520000Y-63500000D02*
X96520000Y-58420000D01*
D17*
X85090000Y-121920000D02*
X80010000Y-127000000D01*
X88900000Y-121920000D02*
X85090000Y-121920000D01*
X88900000Y-115570000D02*
X88900000Y-121920000D01*
D18*
X96520000Y-58420000D02*
X90170000Y-52070000D01*
D17*
X80010000Y-127000000D02*
X78740000Y-127000000D01*
D18*
%TO.N,/R0*%
X93980000Y-68580000D02*
X82550000Y-57150000D01*
X96520000Y-68580000D02*
X93980000Y-68580000D01*
X82550000Y-57150000D02*
X78070362Y-57150000D01*
X78070362Y-57150000D02*
X77224881Y-56304519D01*
X77224881Y-56304519D02*
X76200000Y-56304519D01*
%TO.N,/R1*%
X97694511Y-67214511D02*
X93884511Y-67214511D01*
X93884511Y-67214511D02*
X82550000Y-55880000D01*
X99060000Y-68580000D02*
X97694511Y-67214511D01*
X82550000Y-55880000D02*
X78740000Y-55880000D01*
%TO.N,/R2*%
X82454511Y-59594511D02*
X77374511Y-59594511D01*
X93980000Y-71120000D02*
X82454511Y-59594511D01*
X77374511Y-59594511D02*
X76200000Y-58420000D01*
X96520000Y-71120000D02*
X93980000Y-71120000D01*
%TO.N,/R3*%
X93980000Y-69850000D02*
X82550000Y-58420000D01*
X99060000Y-71120000D02*
X97790000Y-69850000D01*
X97790000Y-69850000D02*
X93980000Y-69850000D01*
X82550000Y-58420000D02*
X78740000Y-58420000D01*
%TO.N,/R4*%
X82454511Y-62134511D02*
X77374511Y-62134511D01*
X77374511Y-62134511D02*
X76200000Y-60960000D01*
X96520000Y-73660000D02*
X93980000Y-73660000D01*
X93980000Y-73660000D02*
X82454511Y-62134511D01*
%TO.N,/R5*%
X82550000Y-60960000D02*
X78740000Y-60960000D01*
X99060000Y-73660000D02*
X97790000Y-72390000D01*
X93980000Y-72390000D02*
X82550000Y-60960000D01*
X97790000Y-72390000D02*
X93980000Y-72390000D01*
%TO.N,/R6*%
X96520000Y-76200000D02*
X93980000Y-76200000D01*
X93980000Y-76200000D02*
X82454511Y-64674511D01*
X77374511Y-64674511D02*
X76200000Y-63500000D01*
X82454511Y-64674511D02*
X77374511Y-64674511D01*
%TO.N,/R7*%
X93980000Y-74930000D02*
X82550000Y-63500000D01*
X82550000Y-63500000D02*
X78740000Y-63500000D01*
X97790000Y-74930000D02*
X93980000Y-74930000D01*
X99060000Y-76200000D02*
X97790000Y-74930000D01*
%TO.N,/G0*%
X96520000Y-78740000D02*
X93980000Y-78740000D01*
X93980000Y-78740000D02*
X85090000Y-69850000D01*
X77470000Y-69850000D02*
X76200000Y-68580000D01*
X85090000Y-69850000D02*
X77470000Y-69850000D01*
%TO.N,/G1*%
X99060000Y-78740000D02*
X97790000Y-77470000D01*
X97790000Y-77470000D02*
X93980000Y-77470000D01*
X85090000Y-68580000D02*
X78740000Y-68580000D01*
X93980000Y-77470000D02*
X85090000Y-68580000D01*
%TO.N,/G2*%
X93980000Y-81280000D02*
X85090000Y-72390000D01*
X96520000Y-81280000D02*
X93980000Y-81280000D01*
X77470000Y-72390000D02*
X76200000Y-71120000D01*
X85090000Y-72390000D02*
X77470000Y-72390000D01*
%TO.N,/G3*%
X99060000Y-81280000D02*
X97790000Y-80010000D01*
X97790000Y-80010000D02*
X93980000Y-80010000D01*
X85090000Y-71120000D02*
X78740000Y-71120000D01*
X93980000Y-80010000D02*
X85090000Y-71120000D01*
%TO.N,/G4*%
X85090000Y-74930000D02*
X77470000Y-74930000D01*
X93980000Y-83820000D02*
X85090000Y-74930000D01*
X77470000Y-74930000D02*
X76200000Y-73660000D01*
X96520000Y-83820000D02*
X93980000Y-83820000D01*
%TO.N,/G5*%
X97790000Y-82550000D02*
X93980000Y-82550000D01*
X85090000Y-73660000D02*
X78740000Y-73660000D01*
X93980000Y-82550000D02*
X85090000Y-73660000D01*
X99060000Y-83820000D02*
X97790000Y-82550000D01*
%TO.N,/G6*%
X96520000Y-86360000D02*
X93980000Y-86360000D01*
X93980000Y-86360000D02*
X85090000Y-77470000D01*
X77470000Y-77470000D02*
X76200000Y-76200000D01*
X85090000Y-77470000D02*
X77470000Y-77470000D01*
%TO.N,/G7*%
X93980000Y-85090000D02*
X85090000Y-76200000D01*
X85090000Y-76200000D02*
X78740000Y-76200000D01*
X97790000Y-85090000D02*
X93980000Y-85090000D01*
X99060000Y-86360000D02*
X97790000Y-85090000D01*
%TO.N,/B0*%
X87630000Y-82550000D02*
X77470000Y-82550000D01*
X93980000Y-88900000D02*
X87630000Y-82550000D01*
X77470000Y-82550000D02*
X76200000Y-81280000D01*
X96520000Y-88900000D02*
X93980000Y-88900000D01*
%TO.N,/B1*%
X87630000Y-81280000D02*
X78740000Y-81280000D01*
X99060000Y-88900000D02*
X97790000Y-87630000D01*
X97790000Y-87630000D02*
X93980000Y-87630000D01*
X93980000Y-87630000D02*
X87630000Y-81280000D01*
%TO.N,/B2*%
X87630000Y-85090000D02*
X77470000Y-85090000D01*
X96520000Y-91440000D02*
X93980000Y-91440000D01*
X77470000Y-85090000D02*
X76200000Y-83820000D01*
X93980000Y-91440000D02*
X87630000Y-85090000D01*
%TO.N,/B3*%
X87630000Y-83820000D02*
X78740000Y-83820000D01*
X93980000Y-90170000D02*
X87630000Y-83820000D01*
X97790000Y-90170000D02*
X93980000Y-90170000D01*
X99060000Y-91440000D02*
X97790000Y-90170000D01*
%TO.N,/B4*%
X96520000Y-93980000D02*
X93980000Y-93980000D01*
X93980000Y-93980000D02*
X87630000Y-87630000D01*
X87630000Y-87630000D02*
X77470000Y-87630000D01*
X77470000Y-87630000D02*
X76200000Y-86360000D01*
%TO.N,/B5*%
X97790000Y-92710000D02*
X93980000Y-92710000D01*
X87630000Y-86360000D02*
X78740000Y-86360000D01*
X93980000Y-92710000D02*
X87630000Y-86360000D01*
X99060000Y-93980000D02*
X97790000Y-92710000D01*
%TO.N,/B6*%
X93980000Y-96520000D02*
X87630000Y-90170000D01*
X77470000Y-90170000D02*
X76200000Y-88900000D01*
X87630000Y-90170000D02*
X77470000Y-90170000D01*
X96520000Y-96520000D02*
X93980000Y-96520000D01*
D19*
%TO.N,3v3*%
X90170000Y-57150000D02*
X90170000Y-62230000D01*
X96520000Y-66040000D02*
X93980000Y-66040000D01*
X78740000Y-50800000D02*
X76200000Y-50800000D01*
X91440000Y-63500000D02*
X93980000Y-66040000D01*
X83820000Y-50800000D02*
X83820000Y-54610000D01*
X83820000Y-50800000D02*
X78740000Y-50800000D01*
X83820000Y-54610000D02*
X83820000Y-55880000D01*
X83820000Y-55880000D02*
X91440000Y-63500000D01*
D18*
%TO.N,/BKL*%
X99060000Y-106680000D02*
X97790000Y-105410000D01*
X91440000Y-104140000D02*
X85090000Y-104140000D01*
X85090000Y-104140000D02*
X78740000Y-104140000D01*
X97790000Y-105410000D02*
X92710000Y-105410000D01*
X92710000Y-105410000D02*
X91440000Y-104140000D01*
D17*
%TO.N,/CLK*%
X90170000Y-99060000D02*
X85090000Y-99060000D01*
X92710000Y-101600000D02*
X90170000Y-99060000D01*
X96520000Y-101600000D02*
X92710000Y-101600000D01*
X85090000Y-99060000D02*
X78740000Y-99060000D01*
D18*
%TO.N,/B7*%
X97790000Y-95250000D02*
X93980000Y-95250000D01*
X87630000Y-88900000D02*
X78740000Y-88900000D01*
X99060000Y-96520000D02*
X97790000Y-95250000D01*
X93980000Y-95250000D02*
X87630000Y-88900000D01*
%TO.N,/DE*%
X87630000Y-93980000D02*
X85090000Y-93980000D01*
X99060000Y-101600000D02*
X97790000Y-100330000D01*
X93980000Y-100330000D02*
X87630000Y-93980000D01*
X97790000Y-100330000D02*
X93980000Y-100330000D01*
X85090000Y-93980000D02*
X78740000Y-93980000D01*
%TD*%
%TA.AperFunction,Conductor*%
%TO.N,GND*%
G36*
X103573621Y-46248502D02*
G01*
X103620114Y-46302158D01*
X103631500Y-46354500D01*
X103631500Y-128905500D01*
X103611498Y-128973621D01*
X103557842Y-129020114D01*
X103505500Y-129031500D01*
X74294500Y-129031500D01*
X74226379Y-129011498D01*
X74179886Y-128957842D01*
X74168500Y-128905500D01*
X74168500Y-126966695D01*
X74837251Y-126966695D01*
X74850110Y-127189715D01*
X74851247Y-127194761D01*
X74851248Y-127194767D01*
X74875304Y-127301508D01*
X74899222Y-127407639D01*
X74932190Y-127488830D01*
X74966535Y-127573411D01*
X74983266Y-127614616D01*
X74995863Y-127635173D01*
X75097291Y-127800688D01*
X75099987Y-127805088D01*
X75246250Y-127973938D01*
X75418126Y-128116632D01*
X75611000Y-128229338D01*
X75819692Y-128309030D01*
X75824760Y-128310061D01*
X75824763Y-128310062D01*
X75932017Y-128331883D01*
X76038597Y-128353567D01*
X76043772Y-128353757D01*
X76043774Y-128353757D01*
X76256673Y-128361564D01*
X76256677Y-128361564D01*
X76261837Y-128361753D01*
X76266957Y-128361097D01*
X76266959Y-128361097D01*
X76478288Y-128334025D01*
X76478289Y-128334025D01*
X76483416Y-128333368D01*
X76488366Y-128331883D01*
X76692429Y-128270661D01*
X76692434Y-128270659D01*
X76697384Y-128269174D01*
X76897994Y-128170896D01*
X77079860Y-128041173D01*
X77238096Y-127883489D01*
X77297594Y-127800689D01*
X77326132Y-127760974D01*
X77382127Y-127717326D01*
X77428455Y-127708500D01*
X77510234Y-127708500D01*
X77578355Y-127728502D01*
X77617667Y-127768665D01*
X77639987Y-127805088D01*
X77786250Y-127973938D01*
X77958126Y-128116632D01*
X78151000Y-128229338D01*
X78359692Y-128309030D01*
X78364760Y-128310061D01*
X78364763Y-128310062D01*
X78472017Y-128331883D01*
X78578597Y-128353567D01*
X78583772Y-128353757D01*
X78583774Y-128353757D01*
X78796673Y-128361564D01*
X78796677Y-128361564D01*
X78801837Y-128361753D01*
X78806957Y-128361097D01*
X78806959Y-128361097D01*
X79018288Y-128334025D01*
X79018289Y-128334025D01*
X79023416Y-128333368D01*
X79028366Y-128331883D01*
X79232429Y-128270661D01*
X79232434Y-128270659D01*
X79237384Y-128269174D01*
X79437994Y-128170896D01*
X79619860Y-128041173D01*
X79778096Y-127883489D01*
X79837594Y-127800689D01*
X79866132Y-127760974D01*
X79922127Y-127717326D01*
X79968455Y-127708500D01*
X79981088Y-127708500D01*
X79989658Y-127708792D01*
X80039776Y-127712209D01*
X80039780Y-127712209D01*
X80047352Y-127712725D01*
X80054829Y-127711420D01*
X80054830Y-127711420D01*
X80081308Y-127706799D01*
X80110303Y-127701738D01*
X80116821Y-127700777D01*
X80180242Y-127693102D01*
X80187343Y-127690419D01*
X80189952Y-127689778D01*
X80206262Y-127685315D01*
X80208798Y-127684550D01*
X80216284Y-127683243D01*
X80274800Y-127657556D01*
X80280904Y-127655065D01*
X80333548Y-127635173D01*
X80333549Y-127635172D01*
X80340656Y-127632487D01*
X80346919Y-127628183D01*
X80349285Y-127626946D01*
X80364097Y-127618701D01*
X80366351Y-127617368D01*
X80373305Y-127614315D01*
X80424002Y-127575413D01*
X80429332Y-127571541D01*
X80475720Y-127539661D01*
X80475725Y-127539656D01*
X80481981Y-127535357D01*
X80523436Y-127488829D01*
X80528416Y-127483554D01*
X83419267Y-124592703D01*
X96950743Y-124592703D01*
X96988268Y-124877734D01*
X97064129Y-125155036D01*
X97176923Y-125419476D01*
X97227385Y-125503792D01*
X97318030Y-125655248D01*
X97324561Y-125666161D01*
X97504313Y-125890528D01*
X97712851Y-126088423D01*
X97946317Y-126256186D01*
X97950112Y-126258195D01*
X97950113Y-126258196D01*
X97971869Y-126269715D01*
X98200392Y-126390712D01*
X98470373Y-126489511D01*
X98751264Y-126550755D01*
X98779841Y-126553004D01*
X98974282Y-126568307D01*
X98974291Y-126568307D01*
X98976739Y-126568500D01*
X99132271Y-126568500D01*
X99134407Y-126568354D01*
X99134418Y-126568354D01*
X99342548Y-126554165D01*
X99342554Y-126554164D01*
X99346825Y-126553873D01*
X99351020Y-126553004D01*
X99351022Y-126553004D01*
X99488132Y-126524610D01*
X99628342Y-126495574D01*
X99899343Y-126399607D01*
X100154812Y-126267750D01*
X100158313Y-126265289D01*
X100158317Y-126265287D01*
X100366119Y-126119241D01*
X100390023Y-126102441D01*
X100492863Y-126006876D01*
X100597479Y-125909661D01*
X100597481Y-125909658D01*
X100600622Y-125906740D01*
X100782713Y-125684268D01*
X100932927Y-125439142D01*
X101011395Y-125260388D01*
X101046757Y-125179830D01*
X101048483Y-125175898D01*
X101127244Y-124899406D01*
X101167751Y-124614784D01*
X101167845Y-124596951D01*
X101169235Y-124331583D01*
X101169235Y-124331576D01*
X101169257Y-124327297D01*
X101131732Y-124042266D01*
X101116007Y-123984783D01*
X101057003Y-123769103D01*
X101055871Y-123764964D01*
X100943077Y-123500524D01*
X100795439Y-123253839D01*
X100615687Y-123029472D01*
X100450980Y-122873171D01*
X100410258Y-122834527D01*
X100410255Y-122834525D01*
X100407149Y-122831577D01*
X100173683Y-122663814D01*
X100151843Y-122652250D01*
X100112424Y-122631379D01*
X99919608Y-122529288D01*
X99690373Y-122445400D01*
X99653658Y-122431964D01*
X99653656Y-122431963D01*
X99649627Y-122430489D01*
X99368736Y-122369245D01*
X99337685Y-122366801D01*
X99145718Y-122351693D01*
X99145709Y-122351693D01*
X99143261Y-122351500D01*
X98987729Y-122351500D01*
X98985593Y-122351646D01*
X98985582Y-122351646D01*
X98777452Y-122365835D01*
X98777446Y-122365836D01*
X98773175Y-122366127D01*
X98768980Y-122366996D01*
X98768978Y-122366996D01*
X98632417Y-122395276D01*
X98491658Y-122424426D01*
X98220657Y-122520393D01*
X97965188Y-122652250D01*
X97961687Y-122654711D01*
X97961683Y-122654713D01*
X97867809Y-122720689D01*
X97729977Y-122817559D01*
X97669017Y-122874207D01*
X97535643Y-122998146D01*
X97519378Y-123013260D01*
X97337287Y-123235732D01*
X97187073Y-123480858D01*
X97185347Y-123484791D01*
X97185346Y-123484792D01*
X97131820Y-123606727D01*
X97071517Y-123744102D01*
X97070342Y-123748229D01*
X97070341Y-123748230D01*
X97057980Y-123791623D01*
X96992756Y-124020594D01*
X96952249Y-124305216D01*
X96952227Y-124309505D01*
X96952226Y-124309512D01*
X96950765Y-124588417D01*
X96950743Y-124592703D01*
X83419267Y-124592703D01*
X85346565Y-122665405D01*
X85408877Y-122631379D01*
X85435660Y-122628500D01*
X87749984Y-122628500D01*
X87818105Y-122648502D01*
X87864598Y-122702158D01*
X87867637Y-122709874D01*
X87868632Y-122711997D01*
X87870950Y-122718946D01*
X87964022Y-122869348D01*
X88089197Y-122994305D01*
X88095427Y-122998145D01*
X88095428Y-122998146D01*
X88232788Y-123082816D01*
X88239762Y-123087115D01*
X88319505Y-123113564D01*
X88401111Y-123140632D01*
X88401113Y-123140632D01*
X88407639Y-123142797D01*
X88414475Y-123143497D01*
X88414478Y-123143498D01*
X88457531Y-123147909D01*
X88512100Y-123153500D01*
X89287900Y-123153500D01*
X89291146Y-123153163D01*
X89291150Y-123153163D01*
X89386808Y-123143238D01*
X89386812Y-123143237D01*
X89393666Y-123142526D01*
X89400202Y-123140345D01*
X89400204Y-123140345D01*
X89548419Y-123090896D01*
X89561446Y-123086550D01*
X89711848Y-122993478D01*
X89836805Y-122868303D01*
X89839602Y-122863765D01*
X89896853Y-122823176D01*
X89967776Y-122819946D01*
X90029187Y-122855572D01*
X90036562Y-122864068D01*
X90044598Y-122874207D01*
X90159329Y-122988739D01*
X90170740Y-122997751D01*
X90308743Y-123082816D01*
X90321924Y-123088963D01*
X90476210Y-123140138D01*
X90489586Y-123143005D01*
X90583938Y-123152672D01*
X90590354Y-123153000D01*
X90702885Y-123153000D01*
X90718124Y-123148525D01*
X90719329Y-123147135D01*
X90721000Y-123139452D01*
X90721000Y-123134884D01*
X91229000Y-123134884D01*
X91233475Y-123150123D01*
X91234865Y-123151328D01*
X91242548Y-123152999D01*
X91359595Y-123152999D01*
X91366114Y-123152662D01*
X91461706Y-123142743D01*
X91475100Y-123139851D01*
X91629284Y-123088412D01*
X91642462Y-123082239D01*
X91780307Y-122996937D01*
X91791708Y-122987901D01*
X91906239Y-122873171D01*
X91915251Y-122861760D01*
X92000316Y-122723757D01*
X92006463Y-122710576D01*
X92057638Y-122556290D01*
X92060505Y-122542914D01*
X92070172Y-122448562D01*
X92070500Y-122442146D01*
X92070500Y-122192115D01*
X92066025Y-122176876D01*
X92064635Y-122175671D01*
X92056952Y-122174000D01*
X91247115Y-122174000D01*
X91231876Y-122178475D01*
X91230671Y-122179865D01*
X91229000Y-122187548D01*
X91229000Y-123134884D01*
X90721000Y-123134884D01*
X90721000Y-121647885D01*
X91229000Y-121647885D01*
X91233475Y-121663124D01*
X91234865Y-121664329D01*
X91242548Y-121666000D01*
X92052384Y-121666000D01*
X92067623Y-121661525D01*
X92068828Y-121660135D01*
X92070499Y-121652452D01*
X92070499Y-121397905D01*
X92070162Y-121391386D01*
X92060243Y-121295794D01*
X92057351Y-121282400D01*
X92005912Y-121128216D01*
X91999739Y-121115038D01*
X91914437Y-120977193D01*
X91905401Y-120965792D01*
X91790671Y-120851261D01*
X91779260Y-120842249D01*
X91641257Y-120757184D01*
X91628076Y-120751037D01*
X91473790Y-120699862D01*
X91460414Y-120696995D01*
X91366062Y-120687328D01*
X91359645Y-120687000D01*
X91247115Y-120687000D01*
X91231876Y-120691475D01*
X91230671Y-120692865D01*
X91229000Y-120700548D01*
X91229000Y-121647885D01*
X90721000Y-121647885D01*
X90721000Y-120705116D01*
X90716525Y-120689877D01*
X90715135Y-120688672D01*
X90707452Y-120687001D01*
X90590405Y-120687001D01*
X90583886Y-120687338D01*
X90488294Y-120697257D01*
X90474900Y-120700149D01*
X90320716Y-120751588D01*
X90307538Y-120757761D01*
X90169693Y-120843063D01*
X90158292Y-120852099D01*
X90043762Y-120966828D01*
X90036706Y-120975762D01*
X89978788Y-121016823D01*
X89907865Y-121020053D01*
X89846454Y-120984426D01*
X89839654Y-120976593D01*
X89835978Y-120970652D01*
X89710803Y-120845695D01*
X89704569Y-120841852D01*
X89668383Y-120819546D01*
X89620890Y-120766774D01*
X89608500Y-120712287D01*
X89608500Y-119317634D01*
X89628502Y-119249513D01*
X89668197Y-119210490D01*
X89705620Y-119187332D01*
X89711848Y-119183478D01*
X89836805Y-119058303D01*
X89839602Y-119053765D01*
X89896853Y-119013176D01*
X89967776Y-119009946D01*
X90029187Y-119045572D01*
X90036562Y-119054068D01*
X90044598Y-119064207D01*
X90159329Y-119178739D01*
X90170740Y-119187751D01*
X90308743Y-119272816D01*
X90321924Y-119278963D01*
X90476210Y-119330138D01*
X90489586Y-119333005D01*
X90583938Y-119342672D01*
X90590354Y-119343000D01*
X90702885Y-119343000D01*
X90718124Y-119338525D01*
X90719329Y-119337135D01*
X90721000Y-119329452D01*
X90721000Y-119324884D01*
X91229000Y-119324884D01*
X91233475Y-119340123D01*
X91234865Y-119341328D01*
X91242548Y-119342999D01*
X91359595Y-119342999D01*
X91366114Y-119342662D01*
X91461706Y-119332743D01*
X91475100Y-119329851D01*
X91629284Y-119278412D01*
X91642462Y-119272239D01*
X91780307Y-119186937D01*
X91791708Y-119177901D01*
X91906239Y-119063171D01*
X91915251Y-119051760D01*
X92000316Y-118913757D01*
X92006463Y-118900576D01*
X92057638Y-118746290D01*
X92060505Y-118732914D01*
X92070172Y-118638562D01*
X92070500Y-118632146D01*
X92070500Y-118382115D01*
X92066025Y-118366876D01*
X92064635Y-118365671D01*
X92056952Y-118364000D01*
X91247115Y-118364000D01*
X91231876Y-118368475D01*
X91230671Y-118369865D01*
X91229000Y-118377548D01*
X91229000Y-119324884D01*
X90721000Y-119324884D01*
X90721000Y-117837885D01*
X91229000Y-117837885D01*
X91233475Y-117853124D01*
X91234865Y-117854329D01*
X91242548Y-117856000D01*
X92052384Y-117856000D01*
X92067623Y-117851525D01*
X92068828Y-117850135D01*
X92070499Y-117842452D01*
X92070499Y-117587905D01*
X92070162Y-117581386D01*
X92060243Y-117485794D01*
X92057351Y-117472400D01*
X92005912Y-117318216D01*
X91999739Y-117305038D01*
X91914437Y-117167193D01*
X91905401Y-117155792D01*
X91790671Y-117041261D01*
X91779260Y-117032249D01*
X91641257Y-116947184D01*
X91628076Y-116941037D01*
X91473790Y-116889862D01*
X91460414Y-116886995D01*
X91366062Y-116877328D01*
X91359645Y-116877000D01*
X91247115Y-116877000D01*
X91231876Y-116881475D01*
X91230671Y-116882865D01*
X91229000Y-116890548D01*
X91229000Y-117837885D01*
X90721000Y-117837885D01*
X90721000Y-116895116D01*
X90716525Y-116879877D01*
X90715135Y-116878672D01*
X90707452Y-116877001D01*
X90590405Y-116877001D01*
X90583886Y-116877338D01*
X90488294Y-116887257D01*
X90474900Y-116890149D01*
X90320716Y-116941588D01*
X90307538Y-116947761D01*
X90169693Y-117033063D01*
X90158292Y-117042099D01*
X90043762Y-117156828D01*
X90036706Y-117165762D01*
X89978788Y-117206823D01*
X89907865Y-117210053D01*
X89846454Y-117174426D01*
X89839654Y-117166593D01*
X89835978Y-117160652D01*
X89710803Y-117035695D01*
X89692718Y-117024547D01*
X89668383Y-117009546D01*
X89620890Y-116956774D01*
X89608500Y-116902287D01*
X89608500Y-116188744D01*
X89628502Y-116120623D01*
X89632564Y-116114683D01*
X89634621Y-116111852D01*
X89639040Y-116106944D01*
X89711097Y-115982138D01*
X89731223Y-115947279D01*
X89731224Y-115947278D01*
X89734527Y-115941556D01*
X89793542Y-115759928D01*
X89799620Y-115702104D01*
X89812814Y-115576565D01*
X89813504Y-115570000D01*
X89793542Y-115380072D01*
X89734527Y-115198444D01*
X89639040Y-115033056D01*
X89611147Y-115002077D01*
X89515675Y-114896045D01*
X89515674Y-114896044D01*
X89511253Y-114891134D01*
X89388311Y-114801811D01*
X89362094Y-114782763D01*
X89362093Y-114782762D01*
X89356752Y-114778882D01*
X89350724Y-114776198D01*
X89350722Y-114776197D01*
X89188319Y-114703891D01*
X89188318Y-114703891D01*
X89182288Y-114701206D01*
X89088887Y-114681353D01*
X89001944Y-114662872D01*
X89001939Y-114662872D01*
X88995487Y-114661500D01*
X88804513Y-114661500D01*
X88798061Y-114662872D01*
X88798056Y-114662872D01*
X88711113Y-114681353D01*
X88617712Y-114701206D01*
X88611682Y-114703891D01*
X88611681Y-114703891D01*
X88449278Y-114776197D01*
X88449276Y-114776198D01*
X88443248Y-114778882D01*
X88437907Y-114782762D01*
X88437906Y-114782763D01*
X88411689Y-114801811D01*
X88288747Y-114891134D01*
X88284326Y-114896044D01*
X88284325Y-114896045D01*
X88188854Y-115002077D01*
X88160960Y-115033056D01*
X88065473Y-115198444D01*
X88006458Y-115380072D01*
X87986496Y-115570000D01*
X87987186Y-115576565D01*
X88000381Y-115702104D01*
X88006458Y-115759928D01*
X88065473Y-115941556D01*
X88068776Y-115947278D01*
X88068777Y-115947279D01*
X88088903Y-115982138D01*
X88160960Y-116106944D01*
X88165379Y-116111852D01*
X88167436Y-116114683D01*
X88191295Y-116181551D01*
X88191500Y-116188744D01*
X88191500Y-116902366D01*
X88171498Y-116970487D01*
X88131804Y-117009509D01*
X88088152Y-117036522D01*
X87963195Y-117161697D01*
X87870385Y-117312262D01*
X87843936Y-117392005D01*
X87823169Y-117454616D01*
X87814703Y-117480139D01*
X87804000Y-117584600D01*
X87804000Y-118635400D01*
X87804337Y-118638646D01*
X87804337Y-118638650D01*
X87814118Y-118732914D01*
X87814974Y-118741166D01*
X87870950Y-118908946D01*
X87964022Y-119059348D01*
X88089197Y-119184305D01*
X88095429Y-119188147D01*
X88095431Y-119188148D01*
X88131617Y-119210454D01*
X88179110Y-119263226D01*
X88191500Y-119317713D01*
X88191500Y-120712366D01*
X88171498Y-120780487D01*
X88131804Y-120819509D01*
X88088152Y-120846522D01*
X87963195Y-120971697D01*
X87959355Y-120977927D01*
X87959354Y-120977928D01*
X87888659Y-121092617D01*
X87870385Y-121122262D01*
X87868081Y-121129209D01*
X87864987Y-121135844D01*
X87862751Y-121134801D01*
X87828977Y-121183538D01*
X87763409Y-121210766D01*
X87749828Y-121211500D01*
X85118927Y-121211500D01*
X85110358Y-121211208D01*
X85060225Y-121207790D01*
X85060221Y-121207790D01*
X85052648Y-121207274D01*
X84989681Y-121218264D01*
X84983169Y-121219224D01*
X84919758Y-121226898D01*
X84912657Y-121229581D01*
X84910048Y-121230222D01*
X84893715Y-121234691D01*
X84891195Y-121235452D01*
X84883717Y-121236757D01*
X84876765Y-121239809D01*
X84876764Y-121239809D01*
X84825204Y-121262441D01*
X84819099Y-121264932D01*
X84766456Y-121284825D01*
X84766452Y-121284827D01*
X84759344Y-121287513D01*
X84753083Y-121291816D01*
X84750717Y-121293053D01*
X84735937Y-121301280D01*
X84733652Y-121302631D01*
X84726695Y-121305685D01*
X84720675Y-121310305D01*
X84720669Y-121310308D01*
X84689542Y-121334194D01*
X84675998Y-121344587D01*
X84670668Y-121348459D01*
X84624280Y-121380339D01*
X84624275Y-121380344D01*
X84618019Y-121384643D01*
X84612968Y-121390313D01*
X84612966Y-121390314D01*
X84576565Y-121431170D01*
X84571584Y-121436446D01*
X79922815Y-126085215D01*
X79860503Y-126119241D01*
X79789688Y-126114176D01*
X79740527Y-126080920D01*
X79673152Y-126006876D01*
X79673142Y-126006867D01*
X79669670Y-126003051D01*
X79665619Y-125999852D01*
X79665615Y-125999848D01*
X79498414Y-125867800D01*
X79498410Y-125867798D01*
X79494359Y-125864598D01*
X79452569Y-125841529D01*
X79402598Y-125791097D01*
X79387826Y-125721654D01*
X79412942Y-125655248D01*
X79440294Y-125628641D01*
X79615328Y-125503792D01*
X79623200Y-125497139D01*
X79774052Y-125346812D01*
X79780730Y-125338965D01*
X79905003Y-125166020D01*
X79910313Y-125157183D01*
X80004670Y-124966267D01*
X80008469Y-124956672D01*
X80070377Y-124752910D01*
X80072555Y-124742837D01*
X80073986Y-124731962D01*
X80071775Y-124717778D01*
X80058617Y-124714000D01*
X74883225Y-124714000D01*
X74869694Y-124717973D01*
X74868257Y-124727966D01*
X74898565Y-124862446D01*
X74901645Y-124872275D01*
X74981770Y-125069603D01*
X74986413Y-125078794D01*
X75097694Y-125260388D01*
X75103777Y-125268699D01*
X75243213Y-125429667D01*
X75250580Y-125436883D01*
X75414434Y-125572916D01*
X75422881Y-125578831D01*
X75491969Y-125619203D01*
X75540693Y-125670842D01*
X75553764Y-125740625D01*
X75527033Y-125806396D01*
X75486584Y-125839752D01*
X75473607Y-125846507D01*
X75469474Y-125849610D01*
X75469471Y-125849612D01*
X75299100Y-125977530D01*
X75294965Y-125980635D01*
X75140629Y-126142138D01*
X75137715Y-126146410D01*
X75137714Y-126146411D01*
X75078005Y-126233941D01*
X75014743Y-126326680D01*
X74984336Y-126392187D01*
X74939160Y-126489511D01*
X74920688Y-126529305D01*
X74860989Y-126744570D01*
X74837251Y-126966695D01*
X74168500Y-126966695D01*
X74168500Y-121886695D01*
X74837251Y-121886695D01*
X74837548Y-121891848D01*
X74837548Y-121891851D01*
X74843011Y-121986590D01*
X74850110Y-122109715D01*
X74851247Y-122114761D01*
X74851248Y-122114767D01*
X74865606Y-122178475D01*
X74899222Y-122327639D01*
X74948323Y-122448562D01*
X74981103Y-122529288D01*
X74983266Y-122534616D01*
X75034019Y-122617438D01*
X75097291Y-122720688D01*
X75099987Y-122725088D01*
X75246250Y-122893938D01*
X75418126Y-123036632D01*
X75491955Y-123079774D01*
X75540679Y-123131412D01*
X75553750Y-123201195D01*
X75527019Y-123266967D01*
X75486562Y-123300327D01*
X75478457Y-123304546D01*
X75469738Y-123310036D01*
X75299433Y-123437905D01*
X75291726Y-123444748D01*
X75144590Y-123598717D01*
X75138104Y-123606727D01*
X75018098Y-123782649D01*
X75013000Y-123791623D01*
X74923338Y-123984783D01*
X74919775Y-123994470D01*
X74864389Y-124194183D01*
X74865912Y-124202607D01*
X74878292Y-124206000D01*
X80058344Y-124206000D01*
X80071875Y-124202027D01*
X80073180Y-124192947D01*
X80031214Y-124025875D01*
X80027894Y-124016124D01*
X79942972Y-123820814D01*
X79938105Y-123811739D01*
X79822426Y-123632926D01*
X79816136Y-123624757D01*
X79672806Y-123467240D01*
X79665273Y-123460215D01*
X79498139Y-123328222D01*
X79489556Y-123322520D01*
X79452602Y-123302120D01*
X79402631Y-123251687D01*
X79387859Y-123182245D01*
X79412975Y-123115839D01*
X79440327Y-123089232D01*
X79463797Y-123072491D01*
X79619860Y-122961173D01*
X79778096Y-122803489D01*
X79837594Y-122720689D01*
X79905435Y-122626277D01*
X79908453Y-122622077D01*
X79929320Y-122579857D01*
X80005136Y-122426453D01*
X80005137Y-122426451D01*
X80007430Y-122421811D01*
X80072370Y-122208069D01*
X80101529Y-121986590D01*
X80103156Y-121920000D01*
X80084852Y-121697361D01*
X80030431Y-121480702D01*
X79941354Y-121275840D01*
X79881641Y-121183538D01*
X79822822Y-121092617D01*
X79822820Y-121092614D01*
X79820014Y-121088277D01*
X79669670Y-120923051D01*
X79665619Y-120919852D01*
X79665615Y-120919848D01*
X79498414Y-120787800D01*
X79498410Y-120787798D01*
X79494359Y-120784598D01*
X79453053Y-120761796D01*
X79403084Y-120711364D01*
X79388312Y-120641921D01*
X79413428Y-120575516D01*
X79440780Y-120548909D01*
X79484603Y-120517650D01*
X79619860Y-120421173D01*
X79778096Y-120263489D01*
X79837594Y-120180689D01*
X79905435Y-120086277D01*
X79908453Y-120082077D01*
X79929320Y-120039857D01*
X80005136Y-119886453D01*
X80005137Y-119886451D01*
X80007430Y-119881811D01*
X80072370Y-119668069D01*
X80101529Y-119446590D01*
X80103156Y-119380000D01*
X80084852Y-119157361D01*
X80030431Y-118940702D01*
X79941354Y-118735840D01*
X79878422Y-118638562D01*
X79822822Y-118552617D01*
X79822820Y-118552614D01*
X79820014Y-118548277D01*
X79669670Y-118383051D01*
X79665619Y-118379852D01*
X79665615Y-118379848D01*
X79498414Y-118247800D01*
X79498410Y-118247798D01*
X79494359Y-118244598D01*
X79453053Y-118221796D01*
X79403084Y-118171364D01*
X79388312Y-118101921D01*
X79413428Y-118035516D01*
X79440780Y-118008909D01*
X79484603Y-117977650D01*
X79619860Y-117881173D01*
X79778096Y-117723489D01*
X79837594Y-117640689D01*
X79905435Y-117546277D01*
X79908453Y-117542077D01*
X79929320Y-117499857D01*
X80005136Y-117346453D01*
X80005137Y-117346451D01*
X80007430Y-117341811D01*
X80062153Y-117161697D01*
X80070865Y-117133023D01*
X80070865Y-117133021D01*
X80072370Y-117128069D01*
X80101529Y-116906590D01*
X80101634Y-116902287D01*
X80103074Y-116843365D01*
X80103074Y-116843361D01*
X80103156Y-116840000D01*
X80084852Y-116617361D01*
X80030431Y-116400702D01*
X79941354Y-116195840D01*
X79820014Y-116008277D01*
X79669670Y-115843051D01*
X79665619Y-115839852D01*
X79665615Y-115839848D01*
X79498414Y-115707800D01*
X79498410Y-115707798D01*
X79494359Y-115704598D01*
X79453053Y-115681796D01*
X79403084Y-115631364D01*
X79388312Y-115561921D01*
X79413428Y-115495516D01*
X79440780Y-115468909D01*
X79484603Y-115437650D01*
X79619860Y-115341173D01*
X79778096Y-115183489D01*
X79837594Y-115100689D01*
X79905435Y-115006277D01*
X79908453Y-115002077D01*
X79929320Y-114959857D01*
X80005136Y-114806453D01*
X80005137Y-114806451D01*
X80007430Y-114801811D01*
X80072370Y-114588069D01*
X80101529Y-114366590D01*
X80103156Y-114300000D01*
X80084852Y-114077361D01*
X80030431Y-113860702D01*
X79941354Y-113655840D01*
X79820014Y-113468277D01*
X79669670Y-113303051D01*
X79665619Y-113299852D01*
X79665615Y-113299848D01*
X79498414Y-113167800D01*
X79498410Y-113167798D01*
X79494359Y-113164598D01*
X79453053Y-113141796D01*
X79403084Y-113091364D01*
X79388312Y-113021921D01*
X79413428Y-112955516D01*
X79440780Y-112928909D01*
X79484603Y-112897650D01*
X79619860Y-112801173D01*
X79778096Y-112643489D01*
X79837594Y-112560689D01*
X79905435Y-112466277D01*
X79908453Y-112462077D01*
X79929320Y-112419857D01*
X80005136Y-112266453D01*
X80005137Y-112266451D01*
X80007430Y-112261811D01*
X80072370Y-112048069D01*
X80101529Y-111826590D01*
X80103156Y-111760000D01*
X80084852Y-111537361D01*
X80030431Y-111320702D01*
X79941354Y-111115840D01*
X79820014Y-110928277D01*
X79669670Y-110763051D01*
X79665619Y-110759852D01*
X79665615Y-110759848D01*
X79498414Y-110627800D01*
X79498410Y-110627798D01*
X79494359Y-110624598D01*
X79453053Y-110601796D01*
X79403084Y-110551364D01*
X79388312Y-110481921D01*
X79413428Y-110415516D01*
X79440780Y-110388909D01*
X79484603Y-110357650D01*
X79619860Y-110261173D01*
X79778096Y-110103489D01*
X79837594Y-110020689D01*
X79905435Y-109926277D01*
X79908453Y-109922077D01*
X79929320Y-109879857D01*
X80005136Y-109726453D01*
X80005137Y-109726451D01*
X80007430Y-109721811D01*
X80072370Y-109508069D01*
X80101529Y-109286590D01*
X80103156Y-109220000D01*
X80084852Y-108997361D01*
X80030431Y-108780702D01*
X79941354Y-108575840D01*
X79820014Y-108388277D01*
X79669670Y-108223051D01*
X79665619Y-108219852D01*
X79665615Y-108219848D01*
X79498414Y-108087800D01*
X79498410Y-108087798D01*
X79494359Y-108084598D01*
X79453053Y-108061796D01*
X79403084Y-108011364D01*
X79388312Y-107941921D01*
X79413428Y-107875516D01*
X79440780Y-107848909D01*
X79484603Y-107817650D01*
X79619860Y-107721173D01*
X79778096Y-107563489D01*
X79837594Y-107480689D01*
X79905435Y-107386277D01*
X79908453Y-107382077D01*
X79929320Y-107339857D01*
X80005136Y-107186453D01*
X80005137Y-107186451D01*
X80007430Y-107181811D01*
X80072370Y-106968069D01*
X80101529Y-106746590D01*
X80103156Y-106680000D01*
X80084852Y-106457361D01*
X80030431Y-106240702D01*
X79941354Y-106035840D01*
X79880079Y-105941123D01*
X79822822Y-105852617D01*
X79822820Y-105852614D01*
X79820014Y-105848277D01*
X79669670Y-105683051D01*
X79665619Y-105679852D01*
X79665615Y-105679848D01*
X79498414Y-105547800D01*
X79498410Y-105547798D01*
X79494359Y-105544598D01*
X79453053Y-105521796D01*
X79403084Y-105471364D01*
X79388312Y-105401921D01*
X79413428Y-105335516D01*
X79440780Y-105308909D01*
X79484603Y-105277650D01*
X79619860Y-105181173D01*
X79778096Y-105023489D01*
X79829439Y-104952038D01*
X79905435Y-104846277D01*
X79908453Y-104842077D01*
X79910746Y-104837437D01*
X79912446Y-104834608D01*
X79964674Y-104786518D01*
X80020451Y-104773500D01*
X83931646Y-104773500D01*
X83999767Y-104793502D01*
X84034858Y-104827228D01*
X84081706Y-104894134D01*
X84117385Y-104945088D01*
X84122251Y-104952038D01*
X84277962Y-105107749D01*
X84282471Y-105110906D01*
X84282473Y-105110908D01*
X84291516Y-105117240D01*
X84458346Y-105234056D01*
X84657924Y-105327120D01*
X84870629Y-105384115D01*
X85090000Y-105403307D01*
X85309371Y-105384115D01*
X85522076Y-105327120D01*
X85721654Y-105234056D01*
X85888484Y-105117240D01*
X85897527Y-105110908D01*
X85897529Y-105110906D01*
X85902038Y-105107749D01*
X86057749Y-104952038D01*
X86062616Y-104945088D01*
X86098294Y-104894134D01*
X86145142Y-104827228D01*
X86200598Y-104782901D01*
X86248354Y-104773500D01*
X91125406Y-104773500D01*
X91193527Y-104793502D01*
X91214501Y-104810405D01*
X92206343Y-105802247D01*
X92213887Y-105810537D01*
X92218000Y-105817018D01*
X92223777Y-105822443D01*
X92267667Y-105863658D01*
X92270509Y-105866413D01*
X92290230Y-105886134D01*
X92293425Y-105888612D01*
X92302447Y-105896318D01*
X92334679Y-105926586D01*
X92341628Y-105930406D01*
X92352432Y-105936346D01*
X92368956Y-105947199D01*
X92384959Y-105959613D01*
X92425543Y-105977176D01*
X92436173Y-105982383D01*
X92474940Y-106003695D01*
X92482617Y-106005666D01*
X92482622Y-106005668D01*
X92494558Y-106008732D01*
X92513266Y-106015137D01*
X92531855Y-106023181D01*
X92539683Y-106024421D01*
X92539690Y-106024423D01*
X92575524Y-106030099D01*
X92587144Y-106032505D01*
X92622289Y-106041528D01*
X92629970Y-106043500D01*
X92650224Y-106043500D01*
X92669934Y-106045051D01*
X92689943Y-106048220D01*
X92697835Y-106047474D01*
X92733961Y-106044059D01*
X92745819Y-106043500D01*
X95121527Y-106043500D01*
X95189648Y-106063502D01*
X95236141Y-106117158D01*
X95246245Y-106187432D01*
X95240745Y-106209182D01*
X95240688Y-106209305D01*
X95180989Y-106424570D01*
X95157251Y-106646695D01*
X95157548Y-106651848D01*
X95157548Y-106651851D01*
X95163011Y-106746590D01*
X95170110Y-106869715D01*
X95171247Y-106874761D01*
X95171248Y-106874767D01*
X95191119Y-106962939D01*
X95219222Y-107087639D01*
X95303266Y-107294616D01*
X95354019Y-107377438D01*
X95417291Y-107480688D01*
X95419987Y-107485088D01*
X95566250Y-107653938D01*
X95738126Y-107796632D01*
X95808595Y-107837811D01*
X95811445Y-107839476D01*
X95860169Y-107891114D01*
X95873240Y-107960897D01*
X95846509Y-108026669D01*
X95806055Y-108060027D01*
X95793607Y-108066507D01*
X95789474Y-108069610D01*
X95789471Y-108069612D01*
X95765247Y-108087800D01*
X95614965Y-108200635D01*
X95460629Y-108362138D01*
X95334743Y-108546680D01*
X95240688Y-108749305D01*
X95180989Y-108964570D01*
X95157251Y-109186695D01*
X95157548Y-109191848D01*
X95157548Y-109191851D01*
X95163011Y-109286590D01*
X95170110Y-109409715D01*
X95171247Y-109414761D01*
X95171248Y-109414767D01*
X95191119Y-109502939D01*
X95219222Y-109627639D01*
X95303266Y-109834616D01*
X95354019Y-109917438D01*
X95417291Y-110020688D01*
X95419987Y-110025088D01*
X95566250Y-110193938D01*
X95738126Y-110336632D01*
X95808595Y-110377811D01*
X95811445Y-110379476D01*
X95860169Y-110431114D01*
X95873240Y-110500897D01*
X95846509Y-110566669D01*
X95806055Y-110600027D01*
X95793607Y-110606507D01*
X95789474Y-110609610D01*
X95789471Y-110609612D01*
X95765247Y-110627800D01*
X95614965Y-110740635D01*
X95460629Y-110902138D01*
X95334743Y-111086680D01*
X95240688Y-111289305D01*
X95180989Y-111504570D01*
X95157251Y-111726695D01*
X95157548Y-111731848D01*
X95157548Y-111731851D01*
X95163011Y-111826590D01*
X95170110Y-111949715D01*
X95171247Y-111954761D01*
X95171248Y-111954767D01*
X95191119Y-112042939D01*
X95219222Y-112167639D01*
X95303266Y-112374616D01*
X95354019Y-112457438D01*
X95417291Y-112560688D01*
X95419987Y-112565088D01*
X95566250Y-112733938D01*
X95738126Y-112876632D01*
X95931000Y-112989338D01*
X96139692Y-113069030D01*
X96144760Y-113070061D01*
X96144763Y-113070062D01*
X96249466Y-113091364D01*
X96358597Y-113113567D01*
X96363772Y-113113757D01*
X96363774Y-113113757D01*
X96576673Y-113121564D01*
X96576677Y-113121564D01*
X96581837Y-113121753D01*
X96586957Y-113121097D01*
X96586959Y-113121097D01*
X96798288Y-113094025D01*
X96798289Y-113094025D01*
X96803416Y-113093368D01*
X96810096Y-113091364D01*
X97012429Y-113030661D01*
X97012434Y-113030659D01*
X97017384Y-113029174D01*
X97217994Y-112930896D01*
X97399860Y-112801173D01*
X97558096Y-112643489D01*
X97617594Y-112560689D01*
X97688453Y-112462077D01*
X97689776Y-112463028D01*
X97736645Y-112419857D01*
X97806580Y-112407625D01*
X97872026Y-112435144D01*
X97899875Y-112466994D01*
X97959987Y-112565088D01*
X98106250Y-112733938D01*
X98278126Y-112876632D01*
X98471000Y-112989338D01*
X98679692Y-113069030D01*
X98684760Y-113070061D01*
X98684763Y-113070062D01*
X98789466Y-113091364D01*
X98898597Y-113113567D01*
X98903772Y-113113757D01*
X98903774Y-113113757D01*
X99116673Y-113121564D01*
X99116677Y-113121564D01*
X99121837Y-113121753D01*
X99126957Y-113121097D01*
X99126959Y-113121097D01*
X99338288Y-113094025D01*
X99338289Y-113094025D01*
X99343416Y-113093368D01*
X99350096Y-113091364D01*
X99552429Y-113030661D01*
X99552434Y-113030659D01*
X99557384Y-113029174D01*
X99757994Y-112930896D01*
X99939860Y-112801173D01*
X100098096Y-112643489D01*
X100157594Y-112560689D01*
X100225435Y-112466277D01*
X100228453Y-112462077D01*
X100249320Y-112419857D01*
X100325136Y-112266453D01*
X100325137Y-112266451D01*
X100327430Y-112261811D01*
X100392370Y-112048069D01*
X100421529Y-111826590D01*
X100423156Y-111760000D01*
X100404852Y-111537361D01*
X100350431Y-111320702D01*
X100261354Y-111115840D01*
X100140014Y-110928277D01*
X99989670Y-110763051D01*
X99985619Y-110759852D01*
X99985615Y-110759848D01*
X99818414Y-110627800D01*
X99818410Y-110627798D01*
X99814359Y-110624598D01*
X99773053Y-110601796D01*
X99723084Y-110551364D01*
X99708312Y-110481921D01*
X99733428Y-110415516D01*
X99760780Y-110388909D01*
X99804603Y-110357650D01*
X99939860Y-110261173D01*
X100098096Y-110103489D01*
X100157594Y-110020689D01*
X100225435Y-109926277D01*
X100228453Y-109922077D01*
X100249320Y-109879857D01*
X100325136Y-109726453D01*
X100325137Y-109726451D01*
X100327430Y-109721811D01*
X100392370Y-109508069D01*
X100421529Y-109286590D01*
X100423156Y-109220000D01*
X100404852Y-108997361D01*
X100350431Y-108780702D01*
X100261354Y-108575840D01*
X100140014Y-108388277D01*
X99989670Y-108223051D01*
X99985619Y-108219852D01*
X99985615Y-108219848D01*
X99818414Y-108087800D01*
X99818410Y-108087798D01*
X99814359Y-108084598D01*
X99773053Y-108061796D01*
X99723084Y-108011364D01*
X99708312Y-107941921D01*
X99733428Y-107875516D01*
X99760780Y-107848909D01*
X99804603Y-107817650D01*
X99939860Y-107721173D01*
X100098096Y-107563489D01*
X100157594Y-107480689D01*
X100225435Y-107386277D01*
X100228453Y-107382077D01*
X100249320Y-107339857D01*
X100325136Y-107186453D01*
X100325137Y-107186451D01*
X100327430Y-107181811D01*
X100392370Y-106968069D01*
X100421529Y-106746590D01*
X100423156Y-106680000D01*
X100404852Y-106457361D01*
X100350431Y-106240702D01*
X100261354Y-106035840D01*
X100200079Y-105941123D01*
X100142822Y-105852617D01*
X100142820Y-105852614D01*
X100140014Y-105848277D01*
X99989670Y-105683051D01*
X99985619Y-105679852D01*
X99985615Y-105679848D01*
X99818414Y-105547800D01*
X99818410Y-105547798D01*
X99814359Y-105544598D01*
X99773053Y-105521796D01*
X99723084Y-105471364D01*
X99708312Y-105401921D01*
X99733428Y-105335516D01*
X99760780Y-105308909D01*
X99804603Y-105277650D01*
X99939860Y-105181173D01*
X100098096Y-105023489D01*
X100149439Y-104952038D01*
X100225435Y-104846277D01*
X100228453Y-104842077D01*
X100232145Y-104834608D01*
X100325136Y-104646453D01*
X100325137Y-104646451D01*
X100327430Y-104641811D01*
X100392370Y-104428069D01*
X100421529Y-104206590D01*
X100423156Y-104140000D01*
X100404852Y-103917361D01*
X100350431Y-103700702D01*
X100261354Y-103495840D01*
X100140014Y-103308277D01*
X99989670Y-103143051D01*
X99985619Y-103139852D01*
X99985615Y-103139848D01*
X99818414Y-103007800D01*
X99818410Y-103007798D01*
X99814359Y-103004598D01*
X99773053Y-102981796D01*
X99723084Y-102931364D01*
X99708312Y-102861921D01*
X99733428Y-102795516D01*
X99760780Y-102768909D01*
X99804603Y-102737650D01*
X99939860Y-102641173D01*
X100098096Y-102483489D01*
X100157594Y-102400689D01*
X100225435Y-102306277D01*
X100228453Y-102302077D01*
X100249320Y-102259857D01*
X100325136Y-102106453D01*
X100325137Y-102106451D01*
X100327430Y-102101811D01*
X100392370Y-101888069D01*
X100421529Y-101666590D01*
X100423156Y-101600000D01*
X100404852Y-101377361D01*
X100350431Y-101160702D01*
X100261354Y-100955840D01*
X100195856Y-100854595D01*
X100142822Y-100772617D01*
X100142820Y-100772614D01*
X100140014Y-100768277D01*
X99989670Y-100603051D01*
X99985619Y-100599852D01*
X99985615Y-100599848D01*
X99818414Y-100467800D01*
X99818410Y-100467798D01*
X99814359Y-100464598D01*
X99773053Y-100441796D01*
X99723084Y-100391364D01*
X99708312Y-100321921D01*
X99733428Y-100255516D01*
X99760780Y-100228909D01*
X99804603Y-100197650D01*
X99939860Y-100101173D01*
X100098096Y-99943489D01*
X100149439Y-99872038D01*
X100225435Y-99766277D01*
X100228453Y-99762077D01*
X100249320Y-99719857D01*
X100325136Y-99566453D01*
X100325137Y-99566451D01*
X100327430Y-99561811D01*
X100392370Y-99348069D01*
X100421529Y-99126590D01*
X100423156Y-99060000D01*
X100404852Y-98837361D01*
X100350431Y-98620702D01*
X100261354Y-98415840D01*
X100140014Y-98228277D01*
X99989670Y-98063051D01*
X99985619Y-98059852D01*
X99985615Y-98059848D01*
X99818414Y-97927800D01*
X99818410Y-97927798D01*
X99814359Y-97924598D01*
X99773053Y-97901796D01*
X99723084Y-97851364D01*
X99708312Y-97781921D01*
X99733428Y-97715516D01*
X99760780Y-97688909D01*
X99804603Y-97657650D01*
X99939860Y-97561173D01*
X100098096Y-97403489D01*
X100157594Y-97320689D01*
X100225435Y-97226277D01*
X100228453Y-97222077D01*
X100232611Y-97213665D01*
X100325136Y-97026453D01*
X100325137Y-97026451D01*
X100327430Y-97021811D01*
X100392370Y-96808069D01*
X100421529Y-96586590D01*
X100423156Y-96520000D01*
X100404852Y-96297361D01*
X100350431Y-96080702D01*
X100261354Y-95875840D01*
X100140014Y-95688277D01*
X99989670Y-95523051D01*
X99985619Y-95519852D01*
X99985615Y-95519848D01*
X99818414Y-95387800D01*
X99818410Y-95387798D01*
X99814359Y-95384598D01*
X99773053Y-95361796D01*
X99723084Y-95311364D01*
X99708312Y-95241921D01*
X99733428Y-95175516D01*
X99760780Y-95148909D01*
X99804603Y-95117650D01*
X99939860Y-95021173D01*
X100098096Y-94863489D01*
X100149439Y-94792038D01*
X100225435Y-94686277D01*
X100228453Y-94682077D01*
X100232145Y-94674608D01*
X100325136Y-94486453D01*
X100325137Y-94486451D01*
X100327430Y-94481811D01*
X100392370Y-94268069D01*
X100421529Y-94046590D01*
X100423156Y-93980000D01*
X100404852Y-93757361D01*
X100350431Y-93540702D01*
X100261354Y-93335840D01*
X100140014Y-93148277D01*
X99989670Y-92983051D01*
X99985619Y-92979852D01*
X99985615Y-92979848D01*
X99818414Y-92847800D01*
X99818410Y-92847798D01*
X99814359Y-92844598D01*
X99773053Y-92821796D01*
X99723084Y-92771364D01*
X99708312Y-92701921D01*
X99733428Y-92635516D01*
X99760780Y-92608909D01*
X99804603Y-92577650D01*
X99939860Y-92481173D01*
X100098096Y-92323489D01*
X100157594Y-92240689D01*
X100225435Y-92146277D01*
X100228453Y-92142077D01*
X100249320Y-92099857D01*
X100325136Y-91946453D01*
X100325137Y-91946451D01*
X100327430Y-91941811D01*
X100392370Y-91728069D01*
X100421529Y-91506590D01*
X100423156Y-91440000D01*
X100404852Y-91217361D01*
X100350431Y-91000702D01*
X100261354Y-90795840D01*
X100140014Y-90608277D01*
X99989670Y-90443051D01*
X99985619Y-90439852D01*
X99985615Y-90439848D01*
X99818414Y-90307800D01*
X99818410Y-90307798D01*
X99814359Y-90304598D01*
X99773053Y-90281796D01*
X99723084Y-90231364D01*
X99708312Y-90161921D01*
X99733428Y-90095516D01*
X99760780Y-90068909D01*
X99804603Y-90037650D01*
X99939860Y-89941173D01*
X100098096Y-89783489D01*
X100157594Y-89700689D01*
X100225435Y-89606277D01*
X100228453Y-89602077D01*
X100327430Y-89401811D01*
X100392370Y-89188069D01*
X100421529Y-88966590D01*
X100423156Y-88900000D01*
X100404852Y-88677361D01*
X100350431Y-88460702D01*
X100261354Y-88255840D01*
X100140014Y-88068277D01*
X99989670Y-87903051D01*
X99985619Y-87899852D01*
X99985615Y-87899848D01*
X99818414Y-87767800D01*
X99818410Y-87767798D01*
X99814359Y-87764598D01*
X99773053Y-87741796D01*
X99723084Y-87691364D01*
X99708312Y-87621921D01*
X99733428Y-87555516D01*
X99760780Y-87528909D01*
X99804603Y-87497650D01*
X99939860Y-87401173D01*
X100098096Y-87243489D01*
X100157594Y-87160689D01*
X100225435Y-87066277D01*
X100228453Y-87062077D01*
X100327430Y-86861811D01*
X100392370Y-86648069D01*
X100421529Y-86426590D01*
X100423156Y-86360000D01*
X100404852Y-86137361D01*
X100350431Y-85920702D01*
X100261354Y-85715840D01*
X100140014Y-85528277D01*
X99989670Y-85363051D01*
X99985619Y-85359852D01*
X99985615Y-85359848D01*
X99818414Y-85227800D01*
X99818410Y-85227798D01*
X99814359Y-85224598D01*
X99773053Y-85201796D01*
X99723084Y-85151364D01*
X99708312Y-85081921D01*
X99733428Y-85015516D01*
X99760780Y-84988909D01*
X99804603Y-84957650D01*
X99939860Y-84861173D01*
X100098096Y-84703489D01*
X100157594Y-84620689D01*
X100225435Y-84526277D01*
X100228453Y-84522077D01*
X100327430Y-84321811D01*
X100392370Y-84108069D01*
X100421529Y-83886590D01*
X100423156Y-83820000D01*
X100404852Y-83597361D01*
X100350431Y-83380702D01*
X100261354Y-83175840D01*
X100140014Y-82988277D01*
X99989670Y-82823051D01*
X99985619Y-82819852D01*
X99985615Y-82819848D01*
X99818414Y-82687800D01*
X99818410Y-82687798D01*
X99814359Y-82684598D01*
X99773053Y-82661796D01*
X99723084Y-82611364D01*
X99708312Y-82541921D01*
X99733428Y-82475516D01*
X99760780Y-82448909D01*
X99804603Y-82417650D01*
X99939860Y-82321173D01*
X100098096Y-82163489D01*
X100157594Y-82080689D01*
X100225435Y-81986277D01*
X100228453Y-81982077D01*
X100327430Y-81781811D01*
X100392370Y-81568069D01*
X100421529Y-81346590D01*
X100423156Y-81280000D01*
X100404852Y-81057361D01*
X100350431Y-80840702D01*
X100261354Y-80635840D01*
X100215223Y-80564532D01*
X100142822Y-80452617D01*
X100142820Y-80452614D01*
X100140014Y-80448277D01*
X99989670Y-80283051D01*
X99985619Y-80279852D01*
X99985615Y-80279848D01*
X99818414Y-80147800D01*
X99818410Y-80147798D01*
X99814359Y-80144598D01*
X99773053Y-80121796D01*
X99723084Y-80071364D01*
X99708312Y-80001921D01*
X99733428Y-79935516D01*
X99760780Y-79908909D01*
X99804603Y-79877650D01*
X99939860Y-79781173D01*
X100098096Y-79623489D01*
X100157594Y-79540689D01*
X100225435Y-79446277D01*
X100228453Y-79442077D01*
X100249320Y-79399857D01*
X100325136Y-79246453D01*
X100325137Y-79246451D01*
X100327430Y-79241811D01*
X100392370Y-79028069D01*
X100421529Y-78806590D01*
X100423156Y-78740000D01*
X100404852Y-78517361D01*
X100350431Y-78300702D01*
X100261354Y-78095840D01*
X100140014Y-77908277D01*
X99989670Y-77743051D01*
X99985619Y-77739852D01*
X99985615Y-77739848D01*
X99818414Y-77607800D01*
X99818410Y-77607798D01*
X99814359Y-77604598D01*
X99773053Y-77581796D01*
X99723084Y-77531364D01*
X99708312Y-77461921D01*
X99733428Y-77395516D01*
X99760780Y-77368909D01*
X99804603Y-77337650D01*
X99939860Y-77241173D01*
X100098096Y-77083489D01*
X100157594Y-77000689D01*
X100225435Y-76906277D01*
X100228453Y-76902077D01*
X100327430Y-76701811D01*
X100392370Y-76488069D01*
X100421529Y-76266590D01*
X100423156Y-76200000D01*
X100404852Y-75977361D01*
X100350431Y-75760702D01*
X100261354Y-75555840D01*
X100140014Y-75368277D01*
X99989670Y-75203051D01*
X99985619Y-75199852D01*
X99985615Y-75199848D01*
X99818414Y-75067800D01*
X99818410Y-75067798D01*
X99814359Y-75064598D01*
X99773053Y-75041796D01*
X99723084Y-74991364D01*
X99708312Y-74921921D01*
X99733428Y-74855516D01*
X99760780Y-74828909D01*
X99804603Y-74797650D01*
X99939860Y-74701173D01*
X100098096Y-74543489D01*
X100157594Y-74460689D01*
X100225435Y-74366277D01*
X100228453Y-74362077D01*
X100327430Y-74161811D01*
X100392370Y-73948069D01*
X100421529Y-73726590D01*
X100423156Y-73660000D01*
X100404852Y-73437361D01*
X100350431Y-73220702D01*
X100261354Y-73015840D01*
X100140014Y-72828277D01*
X99989670Y-72663051D01*
X99985619Y-72659852D01*
X99985615Y-72659848D01*
X99818414Y-72527800D01*
X99818410Y-72527798D01*
X99814359Y-72524598D01*
X99773053Y-72501796D01*
X99723084Y-72451364D01*
X99708312Y-72381921D01*
X99733428Y-72315516D01*
X99760780Y-72288909D01*
X99804603Y-72257650D01*
X99939860Y-72161173D01*
X100098096Y-72003489D01*
X100157594Y-71920689D01*
X100225435Y-71826277D01*
X100228453Y-71822077D01*
X100327430Y-71621811D01*
X100392370Y-71408069D01*
X100421529Y-71186590D01*
X100423156Y-71120000D01*
X100404852Y-70897361D01*
X100350431Y-70680702D01*
X100261354Y-70475840D01*
X100140014Y-70288277D01*
X99989670Y-70123051D01*
X99985619Y-70119852D01*
X99985615Y-70119848D01*
X99818414Y-69987800D01*
X99818410Y-69987798D01*
X99814359Y-69984598D01*
X99773053Y-69961796D01*
X99723084Y-69911364D01*
X99708312Y-69841921D01*
X99733428Y-69775516D01*
X99760780Y-69748909D01*
X99804603Y-69717650D01*
X99939860Y-69621173D01*
X100098096Y-69463489D01*
X100157594Y-69380689D01*
X100225435Y-69286277D01*
X100228453Y-69282077D01*
X100327430Y-69081811D01*
X100392370Y-68868069D01*
X100421529Y-68646590D01*
X100423156Y-68580000D01*
X100404852Y-68357361D01*
X100350431Y-68140702D01*
X100261354Y-67935840D01*
X100204535Y-67848011D01*
X100142822Y-67752617D01*
X100142820Y-67752614D01*
X100140014Y-67748277D01*
X99989670Y-67583051D01*
X99985619Y-67579852D01*
X99985615Y-67579848D01*
X99818414Y-67447800D01*
X99818410Y-67447798D01*
X99814359Y-67444598D01*
X99772569Y-67421529D01*
X99722598Y-67371097D01*
X99707826Y-67301654D01*
X99732942Y-67235248D01*
X99760293Y-67208642D01*
X99809247Y-67173723D01*
X99817648Y-67163023D01*
X99810660Y-67149870D01*
X98701922Y-66041132D01*
X99424408Y-66041132D01*
X99424539Y-66042965D01*
X99428790Y-66049580D01*
X100170474Y-66791264D01*
X100182484Y-66797823D01*
X100194223Y-66788855D01*
X100225004Y-66746019D01*
X100230315Y-66737180D01*
X100324670Y-66546267D01*
X100328469Y-66536672D01*
X100390376Y-66332915D01*
X100392555Y-66322834D01*
X100420590Y-66109887D01*
X100421109Y-66103212D01*
X100422572Y-66043364D01*
X100422378Y-66036646D01*
X100404781Y-65822604D01*
X100403096Y-65812424D01*
X100351214Y-65605875D01*
X100347894Y-65596124D01*
X100262972Y-65400814D01*
X100258105Y-65391739D01*
X100193063Y-65291197D01*
X100182377Y-65281995D01*
X100172812Y-65286398D01*
X99432022Y-66027188D01*
X99424408Y-66041132D01*
X98701922Y-66041132D01*
X97949849Y-65289059D01*
X97938313Y-65282759D01*
X97926031Y-65292382D01*
X97893499Y-65340072D01*
X97838587Y-65385075D01*
X97768063Y-65393246D01*
X97704316Y-65361992D01*
X97683618Y-65337508D01*
X97602822Y-65212617D01*
X97602820Y-65212614D01*
X97600014Y-65208277D01*
X97449670Y-65043051D01*
X97407006Y-65009357D01*
X97365944Y-64951441D01*
X97362712Y-64880518D01*
X97398337Y-64819107D01*
X97431647Y-64796376D01*
X97437007Y-64793865D01*
X97443946Y-64791550D01*
X97594348Y-64698478D01*
X97667845Y-64624853D01*
X98299977Y-64624853D01*
X98305258Y-64631907D01*
X98352479Y-64659501D01*
X98401203Y-64711139D01*
X98414274Y-64780922D01*
X98387543Y-64846694D01*
X98347087Y-64880053D01*
X98338466Y-64884541D01*
X98329734Y-64890039D01*
X98309677Y-64905099D01*
X98301223Y-64916427D01*
X98307968Y-64928758D01*
X99047188Y-65667978D01*
X99061132Y-65675592D01*
X99062965Y-65675461D01*
X99069580Y-65671210D01*
X99813389Y-64927401D01*
X99820410Y-64914544D01*
X99813611Y-64905213D01*
X99809559Y-64902521D01*
X99772116Y-64881852D01*
X99722145Y-64831420D01*
X99707373Y-64761977D01*
X99732489Y-64695572D01*
X99759840Y-64668965D01*
X99809247Y-64633723D01*
X99817648Y-64623023D01*
X99810660Y-64609870D01*
X99072812Y-63872022D01*
X99058868Y-63864408D01*
X99057035Y-63864539D01*
X99050420Y-63868790D01*
X98306737Y-64612473D01*
X98299977Y-64624853D01*
X97667845Y-64624853D01*
X97719305Y-64573303D01*
X97723146Y-64567072D01*
X97808275Y-64428968D01*
X97808276Y-64428966D01*
X97812115Y-64422738D01*
X97836913Y-64347975D01*
X97877342Y-64289616D01*
X97906630Y-64271934D01*
X97945694Y-64255096D01*
X98687978Y-63512812D01*
X98694356Y-63501132D01*
X99424408Y-63501132D01*
X99424539Y-63502965D01*
X99428790Y-63509580D01*
X100170474Y-64251264D01*
X100182484Y-64257823D01*
X100194223Y-64248855D01*
X100225004Y-64206019D01*
X100230315Y-64197180D01*
X100324670Y-64006267D01*
X100328469Y-63996672D01*
X100390376Y-63792915D01*
X100392555Y-63782834D01*
X100420590Y-63569887D01*
X100421109Y-63563212D01*
X100422572Y-63503364D01*
X100422378Y-63496646D01*
X100404781Y-63282604D01*
X100403096Y-63272424D01*
X100351214Y-63065875D01*
X100347894Y-63056124D01*
X100262972Y-62860814D01*
X100258105Y-62851739D01*
X100193063Y-62751197D01*
X100182377Y-62741995D01*
X100172812Y-62746398D01*
X99432022Y-63487188D01*
X99424408Y-63501132D01*
X98694356Y-63501132D01*
X98695592Y-63498868D01*
X98695461Y-63497035D01*
X98691210Y-63490420D01*
X97949849Y-62749059D01*
X97909510Y-62727031D01*
X97896523Y-62724206D01*
X97846322Y-62674003D01*
X97837388Y-62653497D01*
X97813870Y-62583007D01*
X97813869Y-62583005D01*
X97811550Y-62576054D01*
X97718478Y-62425652D01*
X97669167Y-62376427D01*
X98301223Y-62376427D01*
X98307968Y-62388758D01*
X99047188Y-63127978D01*
X99061132Y-63135592D01*
X99062965Y-63135461D01*
X99069580Y-63131210D01*
X99813389Y-62387401D01*
X99820410Y-62374544D01*
X99813611Y-62365213D01*
X99809554Y-62362518D01*
X99623117Y-62259599D01*
X99613705Y-62255369D01*
X99412959Y-62184280D01*
X99402989Y-62181646D01*
X99193327Y-62144301D01*
X99183073Y-62143331D01*
X98970116Y-62140728D01*
X98959832Y-62141448D01*
X98749321Y-62173661D01*
X98739293Y-62176050D01*
X98536868Y-62242212D01*
X98527359Y-62246209D01*
X98338466Y-62344540D01*
X98329734Y-62350039D01*
X98309677Y-62365099D01*
X98301223Y-62376427D01*
X97669167Y-62376427D01*
X97593303Y-62300695D01*
X97587072Y-62296854D01*
X97448968Y-62211725D01*
X97448966Y-62211724D01*
X97442738Y-62207885D01*
X97282254Y-62154655D01*
X97281389Y-62154368D01*
X97281387Y-62154368D01*
X97274861Y-62152203D01*
X97268020Y-62151502D01*
X97268015Y-62151501D01*
X97266651Y-62151361D01*
X97265864Y-62151040D01*
X97261290Y-62150059D01*
X97261465Y-62149243D01*
X97200925Y-62124517D01*
X97160146Y-62066400D01*
X97153500Y-62026018D01*
X97153500Y-58498767D01*
X97154027Y-58487584D01*
X97155702Y-58480091D01*
X97153562Y-58412014D01*
X97153500Y-58408055D01*
X97153500Y-58380144D01*
X97152995Y-58376144D01*
X97152062Y-58364301D01*
X97150922Y-58328029D01*
X97150673Y-58320110D01*
X97145022Y-58300658D01*
X97141014Y-58281306D01*
X97139467Y-58269063D01*
X97138474Y-58261203D01*
X97135556Y-58253832D01*
X97122200Y-58220097D01*
X97118355Y-58208870D01*
X97117295Y-58205223D01*
X97106018Y-58166407D01*
X97095707Y-58148972D01*
X97087012Y-58131224D01*
X97079552Y-58112383D01*
X97053564Y-58076613D01*
X97047048Y-58066693D01*
X97028580Y-58035465D01*
X97028578Y-58035462D01*
X97024542Y-58028638D01*
X97010221Y-58014317D01*
X96997380Y-57999283D01*
X96990131Y-57989306D01*
X96985472Y-57982893D01*
X96951395Y-57954702D01*
X96942616Y-57946712D01*
X91438328Y-52442423D01*
X91404302Y-52380111D01*
X91405716Y-52320717D01*
X91412691Y-52294685D01*
X91412692Y-52294681D01*
X91414115Y-52289371D01*
X91433307Y-52070000D01*
X91414115Y-51850629D01*
X91357120Y-51637924D01*
X91293774Y-51502077D01*
X91266382Y-51443334D01*
X91266379Y-51443329D01*
X91264056Y-51438347D01*
X91250523Y-51419020D01*
X91140908Y-51262473D01*
X91140906Y-51262470D01*
X91137749Y-51257962D01*
X90982038Y-51102251D01*
X90801654Y-50975944D01*
X90708923Y-50932703D01*
X96950743Y-50932703D01*
X96951302Y-50936947D01*
X96951302Y-50936951D01*
X96956130Y-50973619D01*
X96988268Y-51217734D01*
X97064129Y-51495036D01*
X97065813Y-51498984D01*
X97174676Y-51754207D01*
X97176923Y-51759476D01*
X97242316Y-51868739D01*
X97302103Y-51968636D01*
X97324561Y-52006161D01*
X97504313Y-52230528D01*
X97712851Y-52428423D01*
X97946317Y-52596186D01*
X97950112Y-52598195D01*
X97950113Y-52598196D01*
X97971869Y-52609715D01*
X98200392Y-52730712D01*
X98470373Y-52829511D01*
X98751264Y-52890755D01*
X98779841Y-52893004D01*
X98974282Y-52908307D01*
X98974291Y-52908307D01*
X98976739Y-52908500D01*
X99132271Y-52908500D01*
X99134407Y-52908354D01*
X99134418Y-52908354D01*
X99342548Y-52894165D01*
X99342554Y-52894164D01*
X99346825Y-52893873D01*
X99351020Y-52893004D01*
X99351022Y-52893004D01*
X99487583Y-52864724D01*
X99628342Y-52835574D01*
X99899343Y-52739607D01*
X100154812Y-52607750D01*
X100158313Y-52605289D01*
X100158317Y-52605287D01*
X100338407Y-52478717D01*
X100390023Y-52442441D01*
X100516676Y-52324748D01*
X100597479Y-52249661D01*
X100597481Y-52249658D01*
X100600622Y-52246740D01*
X100782713Y-52024268D01*
X100932927Y-51779142D01*
X100936927Y-51770031D01*
X101046757Y-51519830D01*
X101048483Y-51515898D01*
X101071859Y-51433838D01*
X101126068Y-51243534D01*
X101127244Y-51239406D01*
X101164740Y-50975944D01*
X101167146Y-50959036D01*
X101167146Y-50959034D01*
X101167751Y-50954784D01*
X101167845Y-50936951D01*
X101169235Y-50671583D01*
X101169235Y-50671576D01*
X101169257Y-50667297D01*
X101131732Y-50382266D01*
X101055871Y-50104964D01*
X100988242Y-49946411D01*
X100944763Y-49844476D01*
X100944761Y-49844472D01*
X100943077Y-49840524D01*
X100839704Y-49667800D01*
X100797643Y-49597521D01*
X100797640Y-49597517D01*
X100795439Y-49593839D01*
X100615687Y-49369472D01*
X100407149Y-49171577D01*
X100173683Y-49003814D01*
X100151843Y-48992250D01*
X100102303Y-48966020D01*
X99919608Y-48869288D01*
X99649627Y-48770489D01*
X99368736Y-48709245D01*
X99337685Y-48706801D01*
X99145718Y-48691693D01*
X99145709Y-48691693D01*
X99143261Y-48691500D01*
X98987729Y-48691500D01*
X98985593Y-48691646D01*
X98985582Y-48691646D01*
X98777452Y-48705835D01*
X98777446Y-48705836D01*
X98773175Y-48706127D01*
X98768980Y-48706996D01*
X98768978Y-48706996D01*
X98632417Y-48735276D01*
X98491658Y-48764426D01*
X98220657Y-48860393D01*
X97965188Y-48992250D01*
X97961687Y-48994711D01*
X97961683Y-48994713D01*
X97951594Y-49001804D01*
X97729977Y-49157559D01*
X97711717Y-49174527D01*
X97642963Y-49238418D01*
X97519378Y-49353260D01*
X97337287Y-49575732D01*
X97187073Y-49820858D01*
X97185347Y-49824791D01*
X97185346Y-49824792D01*
X97107442Y-50002262D01*
X97071517Y-50084102D01*
X96992756Y-50360594D01*
X96952249Y-50645216D01*
X96952227Y-50649505D01*
X96952226Y-50649512D01*
X96950765Y-50928417D01*
X96950743Y-50932703D01*
X90708923Y-50932703D01*
X90602076Y-50882880D01*
X90389371Y-50825885D01*
X90170000Y-50806693D01*
X89950629Y-50825885D01*
X89737924Y-50882880D01*
X89644562Y-50926415D01*
X89543334Y-50973618D01*
X89543329Y-50973621D01*
X89538347Y-50975944D01*
X89533840Y-50979100D01*
X89533838Y-50979101D01*
X89362473Y-51099092D01*
X89362470Y-51099094D01*
X89357962Y-51102251D01*
X89202251Y-51257962D01*
X89199094Y-51262470D01*
X89199092Y-51262473D01*
X89089477Y-51419020D01*
X89075944Y-51438347D01*
X89073621Y-51443329D01*
X89073618Y-51443334D01*
X89046226Y-51502077D01*
X88982880Y-51637924D01*
X88925885Y-51850629D01*
X88906693Y-52070000D01*
X88925885Y-52289371D01*
X88982880Y-52502076D01*
X89025595Y-52593679D01*
X89073618Y-52696666D01*
X89073621Y-52696671D01*
X89075944Y-52701653D01*
X89079100Y-52706160D01*
X89079101Y-52706162D01*
X89196952Y-52874470D01*
X89202251Y-52882038D01*
X89357962Y-53037749D01*
X89362471Y-53040906D01*
X89362473Y-53040908D01*
X89409995Y-53074183D01*
X89538346Y-53164056D01*
X89737924Y-53257120D01*
X89950629Y-53314115D01*
X90170000Y-53333307D01*
X90389371Y-53314115D01*
X90404556Y-53310046D01*
X90420717Y-53305716D01*
X90491694Y-53307406D01*
X90542423Y-53338328D01*
X95849595Y-58645500D01*
X95883621Y-58707812D01*
X95886500Y-58734595D01*
X95886500Y-62026144D01*
X95866498Y-62094265D01*
X95812842Y-62140758D01*
X95773504Y-62151471D01*
X95763834Y-62152474D01*
X95757298Y-62154655D01*
X95757296Y-62154655D01*
X95707963Y-62171114D01*
X95596054Y-62208450D01*
X95445652Y-62301522D01*
X95320695Y-62426697D01*
X95227885Y-62577262D01*
X95172203Y-62745139D01*
X95171503Y-62751975D01*
X95171502Y-62751978D01*
X95169500Y-62771518D01*
X95161500Y-62849600D01*
X95161500Y-64150400D01*
X95161837Y-64153646D01*
X95161837Y-64153650D01*
X95166354Y-64197180D01*
X95172474Y-64256166D01*
X95174655Y-64262702D01*
X95174655Y-64262704D01*
X95203104Y-64347976D01*
X95228450Y-64423946D01*
X95321522Y-64574348D01*
X95446697Y-64699305D01*
X95452927Y-64703145D01*
X95452928Y-64703146D01*
X95579104Y-64780922D01*
X95597262Y-64792115D01*
X95604209Y-64794419D01*
X95606276Y-64795383D01*
X95659561Y-64842299D01*
X95679023Y-64910576D01*
X95658482Y-64978536D01*
X95628681Y-65010337D01*
X95614965Y-65020635D01*
X95460629Y-65182138D01*
X95385426Y-65292382D01*
X95379203Y-65301504D01*
X95324292Y-65346507D01*
X95275115Y-65356500D01*
X94315305Y-65356500D01*
X94247184Y-65336498D01*
X94226210Y-65319595D01*
X90890405Y-61983790D01*
X90856379Y-61921478D01*
X90853500Y-61894695D01*
X90853500Y-58273344D01*
X90873502Y-58205223D01*
X90907229Y-58170131D01*
X90912548Y-58166407D01*
X90937447Y-58148972D01*
X90977527Y-58120908D01*
X90977529Y-58120906D01*
X90982038Y-58117749D01*
X91137749Y-57962038D01*
X91143170Y-57954297D01*
X91260899Y-57786162D01*
X91260900Y-57786160D01*
X91264056Y-57781653D01*
X91266379Y-57776671D01*
X91266382Y-57776666D01*
X91340163Y-57618440D01*
X91357120Y-57582076D01*
X91414115Y-57369371D01*
X91433307Y-57150000D01*
X91414115Y-56930629D01*
X91357120Y-56717924D01*
X91313585Y-56624562D01*
X91266382Y-56523334D01*
X91266379Y-56523329D01*
X91264056Y-56518347D01*
X91250523Y-56499020D01*
X91140908Y-56342473D01*
X91140906Y-56342470D01*
X91137749Y-56337962D01*
X90982038Y-56182251D01*
X90801654Y-56055944D01*
X90602076Y-55962880D01*
X90389371Y-55905885D01*
X90170000Y-55886693D01*
X89950629Y-55905885D01*
X89737924Y-55962880D01*
X89644562Y-56006415D01*
X89543334Y-56053618D01*
X89543329Y-56053621D01*
X89538347Y-56055944D01*
X89533840Y-56059100D01*
X89533838Y-56059101D01*
X89362473Y-56179092D01*
X89362470Y-56179094D01*
X89357962Y-56182251D01*
X89202251Y-56337962D01*
X89199094Y-56342470D01*
X89199092Y-56342473D01*
X89089477Y-56499020D01*
X89075944Y-56518347D01*
X89073621Y-56523329D01*
X89073618Y-56523334D01*
X89026415Y-56624562D01*
X88982880Y-56717924D01*
X88925885Y-56930629D01*
X88906693Y-57150000D01*
X88925885Y-57369371D01*
X88982880Y-57582076D01*
X88999837Y-57618440D01*
X89073618Y-57776666D01*
X89073621Y-57776671D01*
X89075944Y-57781653D01*
X89079100Y-57786160D01*
X89079101Y-57786162D01*
X89196831Y-57954297D01*
X89202251Y-57962038D01*
X89357962Y-58117749D01*
X89362471Y-58120906D01*
X89362473Y-58120908D01*
X89402553Y-58148972D01*
X89427453Y-58166407D01*
X89432771Y-58170131D01*
X89477099Y-58225588D01*
X89486500Y-58273344D01*
X89486500Y-60275695D01*
X89466498Y-60343816D01*
X89412842Y-60390309D01*
X89342568Y-60400413D01*
X89277988Y-60370919D01*
X89271405Y-60364790D01*
X84700007Y-55793392D01*
X84665981Y-55731080D01*
X84671046Y-55660265D01*
X84699928Y-55615280D01*
X84751631Y-55563486D01*
X84756805Y-55558303D01*
X84759602Y-55553765D01*
X84816853Y-55513176D01*
X84887776Y-55509946D01*
X84949187Y-55545572D01*
X84956562Y-55554068D01*
X84964598Y-55564207D01*
X85079329Y-55678739D01*
X85090740Y-55687751D01*
X85228743Y-55772816D01*
X85241924Y-55778963D01*
X85396210Y-55830138D01*
X85409586Y-55833005D01*
X85503938Y-55842672D01*
X85510354Y-55843000D01*
X85622885Y-55843000D01*
X85638124Y-55838525D01*
X85639329Y-55837135D01*
X85641000Y-55829452D01*
X85641000Y-55824884D01*
X86149000Y-55824884D01*
X86153475Y-55840123D01*
X86154865Y-55841328D01*
X86162548Y-55842999D01*
X86279595Y-55842999D01*
X86286114Y-55842662D01*
X86381706Y-55832743D01*
X86395100Y-55829851D01*
X86549284Y-55778412D01*
X86562462Y-55772239D01*
X86700307Y-55686937D01*
X86711708Y-55677901D01*
X86826239Y-55563171D01*
X86835251Y-55551760D01*
X86920316Y-55413757D01*
X86926463Y-55400576D01*
X86977638Y-55246290D01*
X86980505Y-55232914D01*
X86990172Y-55138562D01*
X86990500Y-55132146D01*
X86990500Y-54882115D01*
X86986025Y-54866876D01*
X86984635Y-54865671D01*
X86976952Y-54864000D01*
X86167115Y-54864000D01*
X86151876Y-54868475D01*
X86150671Y-54869865D01*
X86149000Y-54877548D01*
X86149000Y-55824884D01*
X85641000Y-55824884D01*
X85641000Y-54337885D01*
X86149000Y-54337885D01*
X86153475Y-54353124D01*
X86154865Y-54354329D01*
X86162548Y-54356000D01*
X86972384Y-54356000D01*
X86987623Y-54351525D01*
X86988828Y-54350135D01*
X86990499Y-54342452D01*
X86990499Y-54087905D01*
X86990162Y-54081386D01*
X86980243Y-53985794D01*
X86977351Y-53972400D01*
X86925912Y-53818216D01*
X86919739Y-53805038D01*
X86834437Y-53667193D01*
X86825401Y-53655792D01*
X86710671Y-53541261D01*
X86699260Y-53532249D01*
X86561257Y-53447184D01*
X86548076Y-53441037D01*
X86393790Y-53389862D01*
X86380414Y-53386995D01*
X86286062Y-53377328D01*
X86279645Y-53377000D01*
X86167115Y-53377000D01*
X86151876Y-53381475D01*
X86150671Y-53382865D01*
X86149000Y-53390548D01*
X86149000Y-54337885D01*
X85641000Y-54337885D01*
X85641000Y-53395116D01*
X85636525Y-53379877D01*
X85635135Y-53378672D01*
X85627452Y-53377001D01*
X85510405Y-53377001D01*
X85503886Y-53377338D01*
X85408294Y-53387257D01*
X85394900Y-53390149D01*
X85240716Y-53441588D01*
X85227538Y-53447761D01*
X85089693Y-53533063D01*
X85078292Y-53542099D01*
X84963762Y-53656828D01*
X84956706Y-53665762D01*
X84898788Y-53706823D01*
X84827865Y-53710053D01*
X84766454Y-53674426D01*
X84759654Y-53666593D01*
X84755978Y-53660652D01*
X84630803Y-53535695D01*
X84563384Y-53494137D01*
X84515890Y-53441364D01*
X84503500Y-53386877D01*
X84503500Y-52023105D01*
X84523502Y-51954984D01*
X84563197Y-51915961D01*
X84625620Y-51877332D01*
X84631848Y-51873478D01*
X84756805Y-51748303D01*
X84759602Y-51743765D01*
X84816853Y-51703176D01*
X84887776Y-51699946D01*
X84949187Y-51735572D01*
X84956562Y-51744068D01*
X84964598Y-51754207D01*
X85079329Y-51868739D01*
X85090740Y-51877751D01*
X85228743Y-51962816D01*
X85241924Y-51968963D01*
X85396210Y-52020138D01*
X85409586Y-52023005D01*
X85503938Y-52032672D01*
X85510354Y-52033000D01*
X85622885Y-52033000D01*
X85638124Y-52028525D01*
X85639329Y-52027135D01*
X85641000Y-52019452D01*
X85641000Y-52014884D01*
X86149000Y-52014884D01*
X86153475Y-52030123D01*
X86154865Y-52031328D01*
X86162548Y-52032999D01*
X86279595Y-52032999D01*
X86286114Y-52032662D01*
X86381706Y-52022743D01*
X86395100Y-52019851D01*
X86549284Y-51968412D01*
X86562462Y-51962239D01*
X86700307Y-51876937D01*
X86711708Y-51867901D01*
X86826239Y-51753171D01*
X86835251Y-51741760D01*
X86920316Y-51603757D01*
X86926463Y-51590576D01*
X86977638Y-51436290D01*
X86980505Y-51422914D01*
X86990172Y-51328562D01*
X86990500Y-51322146D01*
X86990500Y-51072115D01*
X86986025Y-51056876D01*
X86984635Y-51055671D01*
X86976952Y-51054000D01*
X86167115Y-51054000D01*
X86151876Y-51058475D01*
X86150671Y-51059865D01*
X86149000Y-51067548D01*
X86149000Y-52014884D01*
X85641000Y-52014884D01*
X85641000Y-50527885D01*
X86149000Y-50527885D01*
X86153475Y-50543124D01*
X86154865Y-50544329D01*
X86162548Y-50546000D01*
X86972384Y-50546000D01*
X86987623Y-50541525D01*
X86988828Y-50540135D01*
X86990499Y-50532452D01*
X86990499Y-50277905D01*
X86990162Y-50271386D01*
X86980243Y-50175794D01*
X86977351Y-50162400D01*
X86925912Y-50008216D01*
X86919739Y-49995038D01*
X86834437Y-49857193D01*
X86825401Y-49845792D01*
X86710671Y-49731261D01*
X86699260Y-49722249D01*
X86561257Y-49637184D01*
X86548076Y-49631037D01*
X86393790Y-49579862D01*
X86380414Y-49576995D01*
X86286062Y-49567328D01*
X86279645Y-49567000D01*
X86167115Y-49567000D01*
X86151876Y-49571475D01*
X86150671Y-49572865D01*
X86149000Y-49580548D01*
X86149000Y-50527885D01*
X85641000Y-50527885D01*
X85641000Y-49585116D01*
X85636525Y-49569877D01*
X85635135Y-49568672D01*
X85627452Y-49567001D01*
X85510405Y-49567001D01*
X85503886Y-49567338D01*
X85408294Y-49577257D01*
X85394900Y-49580149D01*
X85240716Y-49631588D01*
X85227538Y-49637761D01*
X85089693Y-49723063D01*
X85078292Y-49732099D01*
X84963762Y-49846828D01*
X84956706Y-49855762D01*
X84898788Y-49896823D01*
X84827865Y-49900053D01*
X84766454Y-49864426D01*
X84759654Y-49856593D01*
X84755978Y-49850652D01*
X84630803Y-49725695D01*
X84543279Y-49671744D01*
X84486468Y-49636725D01*
X84486466Y-49636724D01*
X84480238Y-49632885D01*
X84373618Y-49597521D01*
X84318889Y-49579368D01*
X84318887Y-49579368D01*
X84312361Y-49577203D01*
X84305525Y-49576503D01*
X84305522Y-49576502D01*
X84262469Y-49572091D01*
X84207900Y-49566500D01*
X83432100Y-49566500D01*
X83428854Y-49566837D01*
X83428850Y-49566837D01*
X83333192Y-49576762D01*
X83333188Y-49576763D01*
X83326334Y-49577474D01*
X83319798Y-49579655D01*
X83319796Y-49579655D01*
X83239644Y-49606396D01*
X83158554Y-49633450D01*
X83008152Y-49726522D01*
X82883195Y-49851697D01*
X82879355Y-49857927D01*
X82879354Y-49857928D01*
X82808659Y-49972617D01*
X82790385Y-50002262D01*
X82781129Y-50030169D01*
X82740697Y-50088528D01*
X82675133Y-50115764D01*
X82661536Y-50116500D01*
X79984459Y-50116500D01*
X79916338Y-50096498D01*
X79878667Y-50058940D01*
X79822822Y-49972617D01*
X79822820Y-49972614D01*
X79820014Y-49968277D01*
X79669670Y-49803051D01*
X79665619Y-49799852D01*
X79665615Y-49799848D01*
X79498414Y-49667800D01*
X79498410Y-49667798D01*
X79494359Y-49664598D01*
X79452569Y-49641529D01*
X79402598Y-49591097D01*
X79387826Y-49521654D01*
X79412942Y-49455248D01*
X79440294Y-49428641D01*
X79615328Y-49303792D01*
X79623200Y-49297139D01*
X79774052Y-49146812D01*
X79780730Y-49138965D01*
X79905003Y-48966020D01*
X79910313Y-48957183D01*
X80004670Y-48766267D01*
X80008469Y-48756672D01*
X80070377Y-48552910D01*
X80072555Y-48542837D01*
X80073986Y-48531962D01*
X80071775Y-48517778D01*
X80058617Y-48514000D01*
X74860116Y-48514000D01*
X74844877Y-48518475D01*
X74843672Y-48519865D01*
X74842001Y-48527548D01*
X74842001Y-49154669D01*
X74842371Y-49161490D01*
X74847895Y-49212352D01*
X74851521Y-49227604D01*
X74896676Y-49348054D01*
X74905214Y-49363649D01*
X74981715Y-49465724D01*
X74994276Y-49478285D01*
X75096351Y-49554786D01*
X75111946Y-49563324D01*
X75220827Y-49604142D01*
X75277591Y-49646784D01*
X75302291Y-49713345D01*
X75287083Y-49782694D01*
X75267691Y-49809175D01*
X75223172Y-49855762D01*
X75140629Y-49942138D01*
X75014743Y-50126680D01*
X74920688Y-50329305D01*
X74860989Y-50544570D01*
X74837251Y-50766695D01*
X74850110Y-50989715D01*
X74851247Y-50994761D01*
X74851248Y-50994767D01*
X74865606Y-51058475D01*
X74899222Y-51207639D01*
X74983266Y-51414616D01*
X75025478Y-51483500D01*
X75097291Y-51600688D01*
X75099987Y-51605088D01*
X75246250Y-51773938D01*
X75418126Y-51916632D01*
X75479979Y-51952776D01*
X75491955Y-51959774D01*
X75540679Y-52011412D01*
X75553750Y-52081195D01*
X75527019Y-52146967D01*
X75486562Y-52180327D01*
X75478457Y-52184546D01*
X75469738Y-52190036D01*
X75299433Y-52317905D01*
X75291726Y-52324748D01*
X75144590Y-52478717D01*
X75138104Y-52486727D01*
X75018098Y-52662649D01*
X75013000Y-52671623D01*
X74923338Y-52864783D01*
X74919775Y-52874470D01*
X74864389Y-53074183D01*
X74865912Y-53082607D01*
X74878292Y-53086000D01*
X80058344Y-53086000D01*
X80071875Y-53082027D01*
X80073180Y-53072947D01*
X80031214Y-52905875D01*
X80027894Y-52896124D01*
X79942972Y-52700814D01*
X79938105Y-52691739D01*
X79822426Y-52512926D01*
X79816136Y-52504757D01*
X79672806Y-52347240D01*
X79665273Y-52340215D01*
X79498139Y-52208222D01*
X79489556Y-52202520D01*
X79452602Y-52182120D01*
X79402631Y-52131687D01*
X79387859Y-52062245D01*
X79412975Y-51995839D01*
X79440327Y-51969232D01*
X79463797Y-51952491D01*
X79619860Y-51841173D01*
X79778096Y-51683489D01*
X79831629Y-51608990D01*
X79884096Y-51535974D01*
X79940091Y-51492326D01*
X79986419Y-51483500D01*
X82661643Y-51483500D01*
X82729764Y-51503502D01*
X82776257Y-51557158D01*
X82781166Y-51569622D01*
X82788630Y-51591995D01*
X82788633Y-51592002D01*
X82790950Y-51598946D01*
X82884022Y-51749348D01*
X83009197Y-51874305D01*
X83015427Y-51878145D01*
X83015428Y-51878146D01*
X83076616Y-51915863D01*
X83124110Y-51968636D01*
X83136500Y-52023123D01*
X83136500Y-53386895D01*
X83116498Y-53455016D01*
X83076803Y-53494039D01*
X83008152Y-53536522D01*
X82883195Y-53661697D01*
X82879355Y-53667927D01*
X82879354Y-53667928D01*
X82827362Y-53752275D01*
X82790385Y-53812262D01*
X82734703Y-53980139D01*
X82724000Y-54084600D01*
X82724000Y-55118635D01*
X82703998Y-55186756D01*
X82650342Y-55233249D01*
X82585849Y-55242051D01*
X82585811Y-55243269D01*
X82578587Y-55243042D01*
X82578287Y-55243083D01*
X82577890Y-55243020D01*
X82577885Y-55243020D01*
X82570057Y-55241780D01*
X82562165Y-55242526D01*
X82526039Y-55245941D01*
X82514181Y-55246500D01*
X80016805Y-55246500D01*
X79948684Y-55226498D01*
X79911013Y-55188940D01*
X79822822Y-55052617D01*
X79822820Y-55052614D01*
X79820014Y-55048277D01*
X79669670Y-54883051D01*
X79665619Y-54879852D01*
X79665615Y-54879848D01*
X79498414Y-54747800D01*
X79498410Y-54747798D01*
X79494359Y-54744598D01*
X79452569Y-54721529D01*
X79402598Y-54671097D01*
X79387826Y-54601654D01*
X79412942Y-54535248D01*
X79440294Y-54508641D01*
X79615328Y-54383792D01*
X79623200Y-54377139D01*
X79774052Y-54226812D01*
X79780730Y-54218965D01*
X79905003Y-54046020D01*
X79910313Y-54037183D01*
X80004670Y-53846267D01*
X80008469Y-53836672D01*
X80070377Y-53632910D01*
X80072555Y-53622837D01*
X80073986Y-53611962D01*
X80071775Y-53597778D01*
X80058617Y-53594000D01*
X74883225Y-53594000D01*
X74869694Y-53597973D01*
X74868257Y-53607966D01*
X74898565Y-53742446D01*
X74901645Y-53752275D01*
X74981770Y-53949603D01*
X74986413Y-53958794D01*
X75097694Y-54140388D01*
X75103777Y-54148699D01*
X75243213Y-54309667D01*
X75250580Y-54316883D01*
X75414434Y-54452916D01*
X75422881Y-54458831D01*
X75491969Y-54499203D01*
X75540693Y-54550842D01*
X75553764Y-54620625D01*
X75527033Y-54686396D01*
X75486584Y-54719752D01*
X75473607Y-54726507D01*
X75469474Y-54729610D01*
X75469471Y-54729612D01*
X75445247Y-54747800D01*
X75294965Y-54860635D01*
X75140629Y-55022138D01*
X75014743Y-55206680D01*
X74920688Y-55409305D01*
X74860989Y-55624570D01*
X74837251Y-55846695D01*
X74850110Y-56069715D01*
X74851247Y-56074761D01*
X74851248Y-56074767D01*
X74874760Y-56179092D01*
X74899222Y-56287639D01*
X74983266Y-56494616D01*
X75099987Y-56685088D01*
X75246250Y-56853938D01*
X75418126Y-56996632D01*
X75450798Y-57015724D01*
X75491445Y-57039476D01*
X75540169Y-57091114D01*
X75553240Y-57160897D01*
X75526509Y-57226669D01*
X75486055Y-57260027D01*
X75473607Y-57266507D01*
X75469474Y-57269610D01*
X75469471Y-57269612D01*
X75299100Y-57397530D01*
X75294965Y-57400635D01*
X75291393Y-57404373D01*
X75153667Y-57548495D01*
X75140629Y-57562138D01*
X75014743Y-57746680D01*
X74920688Y-57949305D01*
X74860989Y-58164570D01*
X74837251Y-58386695D01*
X74837548Y-58391848D01*
X74837548Y-58391851D01*
X74838597Y-58410042D01*
X74850110Y-58609715D01*
X74851247Y-58614761D01*
X74851248Y-58614767D01*
X74872217Y-58707812D01*
X74899222Y-58827639D01*
X74983266Y-59034616D01*
X75099987Y-59225088D01*
X75246250Y-59393938D01*
X75418126Y-59536632D01*
X75488595Y-59577811D01*
X75491445Y-59579476D01*
X75540169Y-59631114D01*
X75553240Y-59700897D01*
X75526509Y-59766669D01*
X75486055Y-59800027D01*
X75473607Y-59806507D01*
X75469474Y-59809610D01*
X75469471Y-59809612D01*
X75299100Y-59937530D01*
X75294965Y-59940635D01*
X75140629Y-60102138D01*
X75014743Y-60286680D01*
X74920688Y-60489305D01*
X74860989Y-60704570D01*
X74837251Y-60926695D01*
X74850110Y-61149715D01*
X74851247Y-61154761D01*
X74851248Y-61154767D01*
X74875304Y-61261508D01*
X74899222Y-61367639D01*
X74983266Y-61574616D01*
X75099987Y-61765088D01*
X75246250Y-61933938D01*
X75418126Y-62076632D01*
X75488595Y-62117811D01*
X75491445Y-62119476D01*
X75540169Y-62171114D01*
X75553240Y-62240897D01*
X75526509Y-62306669D01*
X75486055Y-62340027D01*
X75473607Y-62346507D01*
X75469474Y-62349610D01*
X75469471Y-62349612D01*
X75299100Y-62477530D01*
X75294965Y-62480635D01*
X75291393Y-62484373D01*
X75208580Y-62571032D01*
X75140629Y-62642138D01*
X75014743Y-62826680D01*
X74920688Y-63029305D01*
X74860989Y-63244570D01*
X74837251Y-63466695D01*
X74837548Y-63471848D01*
X74837548Y-63471851D01*
X74839910Y-63512812D01*
X74850110Y-63689715D01*
X74851247Y-63694761D01*
X74851248Y-63694767D01*
X74873367Y-63792915D01*
X74899222Y-63907639D01*
X74983266Y-64114616D01*
X75007186Y-64153650D01*
X75070008Y-64256166D01*
X75099987Y-64305088D01*
X75246250Y-64473938D01*
X75418126Y-64616632D01*
X75429063Y-64623023D01*
X75491445Y-64659476D01*
X75540169Y-64711114D01*
X75553240Y-64780897D01*
X75526509Y-64846669D01*
X75486055Y-64880027D01*
X75473607Y-64886507D01*
X75469474Y-64889610D01*
X75469471Y-64889612D01*
X75299100Y-65017530D01*
X75294965Y-65020635D01*
X75140629Y-65182138D01*
X75014743Y-65366680D01*
X74920688Y-65569305D01*
X74860989Y-65784570D01*
X74837251Y-66006695D01*
X74837548Y-66011848D01*
X74837548Y-66011851D01*
X74843011Y-66106590D01*
X74850110Y-66229715D01*
X74851247Y-66234761D01*
X74851248Y-66234767D01*
X74871119Y-66322939D01*
X74899222Y-66447639D01*
X74983266Y-66654616D01*
X75030844Y-66732256D01*
X75097291Y-66840688D01*
X75099987Y-66845088D01*
X75246250Y-67013938D01*
X75418126Y-67156632D01*
X75429063Y-67163023D01*
X75491445Y-67199476D01*
X75540169Y-67251114D01*
X75553240Y-67320897D01*
X75526509Y-67386669D01*
X75486055Y-67420027D01*
X75473607Y-67426507D01*
X75469474Y-67429610D01*
X75469471Y-67429612D01*
X75445247Y-67447800D01*
X75294965Y-67560635D01*
X75140629Y-67722138D01*
X75014743Y-67906680D01*
X74920688Y-68109305D01*
X74860989Y-68324570D01*
X74837251Y-68546695D01*
X74837548Y-68551848D01*
X74837548Y-68551851D01*
X74843011Y-68646590D01*
X74850110Y-68769715D01*
X74851247Y-68774761D01*
X74851248Y-68774767D01*
X74871119Y-68862939D01*
X74899222Y-68987639D01*
X74983266Y-69194616D01*
X75099987Y-69385088D01*
X75246250Y-69553938D01*
X75418126Y-69696632D01*
X75488595Y-69737811D01*
X75491445Y-69739476D01*
X75540169Y-69791114D01*
X75553240Y-69860897D01*
X75526509Y-69926669D01*
X75486055Y-69960027D01*
X75473607Y-69966507D01*
X75469474Y-69969610D01*
X75469471Y-69969612D01*
X75445247Y-69987800D01*
X75294965Y-70100635D01*
X75140629Y-70262138D01*
X75014743Y-70446680D01*
X74920688Y-70649305D01*
X74860989Y-70864570D01*
X74837251Y-71086695D01*
X74837548Y-71091848D01*
X74837548Y-71091851D01*
X74843011Y-71186590D01*
X74850110Y-71309715D01*
X74851247Y-71314761D01*
X74851248Y-71314767D01*
X74871119Y-71402939D01*
X74899222Y-71527639D01*
X74983266Y-71734616D01*
X75099987Y-71925088D01*
X75246250Y-72093938D01*
X75418126Y-72236632D01*
X75488595Y-72277811D01*
X75491445Y-72279476D01*
X75540169Y-72331114D01*
X75553240Y-72400897D01*
X75526509Y-72466669D01*
X75486055Y-72500027D01*
X75473607Y-72506507D01*
X75469474Y-72509610D01*
X75469471Y-72509612D01*
X75445247Y-72527800D01*
X75294965Y-72640635D01*
X75140629Y-72802138D01*
X75014743Y-72986680D01*
X74920688Y-73189305D01*
X74860989Y-73404570D01*
X74837251Y-73626695D01*
X74837548Y-73631848D01*
X74837548Y-73631851D01*
X74843011Y-73726590D01*
X74850110Y-73849715D01*
X74851247Y-73854761D01*
X74851248Y-73854767D01*
X74871119Y-73942939D01*
X74899222Y-74067639D01*
X74983266Y-74274616D01*
X75099987Y-74465088D01*
X75246250Y-74633938D01*
X75418126Y-74776632D01*
X75488595Y-74817811D01*
X75491445Y-74819476D01*
X75540169Y-74871114D01*
X75553240Y-74940897D01*
X75526509Y-75006669D01*
X75486055Y-75040027D01*
X75473607Y-75046507D01*
X75469474Y-75049610D01*
X75469471Y-75049612D01*
X75445247Y-75067800D01*
X75294965Y-75180635D01*
X75140629Y-75342138D01*
X75014743Y-75526680D01*
X74920688Y-75729305D01*
X74860989Y-75944570D01*
X74837251Y-76166695D01*
X74837548Y-76171848D01*
X74837548Y-76171851D01*
X74843011Y-76266590D01*
X74850110Y-76389715D01*
X74851247Y-76394761D01*
X74851248Y-76394767D01*
X74871119Y-76482939D01*
X74899222Y-76607639D01*
X74983266Y-76814616D01*
X75099987Y-77005088D01*
X75246250Y-77173938D01*
X75418126Y-77316632D01*
X75488595Y-77357811D01*
X75491445Y-77359476D01*
X75540169Y-77411114D01*
X75553240Y-77480897D01*
X75526509Y-77546669D01*
X75486055Y-77580027D01*
X75473607Y-77586507D01*
X75469474Y-77589610D01*
X75469471Y-77589612D01*
X75445247Y-77607800D01*
X75294965Y-77720635D01*
X75140629Y-77882138D01*
X75014743Y-78066680D01*
X74920688Y-78269305D01*
X74860989Y-78484570D01*
X74837251Y-78706695D01*
X74837548Y-78711848D01*
X74837548Y-78711851D01*
X74843011Y-78806590D01*
X74850110Y-78929715D01*
X74851247Y-78934761D01*
X74851248Y-78934767D01*
X74871119Y-79022939D01*
X74899222Y-79147639D01*
X74983266Y-79354616D01*
X75034019Y-79437438D01*
X75097291Y-79540688D01*
X75099987Y-79545088D01*
X75246250Y-79713938D01*
X75418126Y-79856632D01*
X75488595Y-79897811D01*
X75491445Y-79899476D01*
X75540169Y-79951114D01*
X75553240Y-80020897D01*
X75526509Y-80086669D01*
X75486055Y-80120027D01*
X75473607Y-80126507D01*
X75469474Y-80129610D01*
X75469471Y-80129612D01*
X75445247Y-80147800D01*
X75294965Y-80260635D01*
X75140629Y-80422138D01*
X75014743Y-80606680D01*
X74920688Y-80809305D01*
X74860989Y-81024570D01*
X74837251Y-81246695D01*
X74837548Y-81251848D01*
X74837548Y-81251851D01*
X74843011Y-81346590D01*
X74850110Y-81469715D01*
X74851247Y-81474761D01*
X74851248Y-81474767D01*
X74871119Y-81562939D01*
X74899222Y-81687639D01*
X74983266Y-81894616D01*
X75099987Y-82085088D01*
X75246250Y-82253938D01*
X75418126Y-82396632D01*
X75488595Y-82437811D01*
X75491445Y-82439476D01*
X75540169Y-82491114D01*
X75553240Y-82560897D01*
X75526509Y-82626669D01*
X75486055Y-82660027D01*
X75473607Y-82666507D01*
X75469474Y-82669610D01*
X75469471Y-82669612D01*
X75445247Y-82687800D01*
X75294965Y-82800635D01*
X75140629Y-82962138D01*
X75014743Y-83146680D01*
X74920688Y-83349305D01*
X74860989Y-83564570D01*
X74837251Y-83786695D01*
X74837548Y-83791848D01*
X74837548Y-83791851D01*
X74843011Y-83886590D01*
X74850110Y-84009715D01*
X74851247Y-84014761D01*
X74851248Y-84014767D01*
X74871119Y-84102939D01*
X74899222Y-84227639D01*
X74983266Y-84434616D01*
X75099987Y-84625088D01*
X75246250Y-84793938D01*
X75418126Y-84936632D01*
X75488595Y-84977811D01*
X75491445Y-84979476D01*
X75540169Y-85031114D01*
X75553240Y-85100897D01*
X75526509Y-85166669D01*
X75486055Y-85200027D01*
X75473607Y-85206507D01*
X75469474Y-85209610D01*
X75469471Y-85209612D01*
X75445247Y-85227800D01*
X75294965Y-85340635D01*
X75140629Y-85502138D01*
X75014743Y-85686680D01*
X74920688Y-85889305D01*
X74860989Y-86104570D01*
X74837251Y-86326695D01*
X74837548Y-86331848D01*
X74837548Y-86331851D01*
X74843011Y-86426590D01*
X74850110Y-86549715D01*
X74851247Y-86554761D01*
X74851248Y-86554767D01*
X74871119Y-86642939D01*
X74899222Y-86767639D01*
X74983266Y-86974616D01*
X75099987Y-87165088D01*
X75246250Y-87333938D01*
X75418126Y-87476632D01*
X75488595Y-87517811D01*
X75491445Y-87519476D01*
X75540169Y-87571114D01*
X75553240Y-87640897D01*
X75526509Y-87706669D01*
X75486055Y-87740027D01*
X75473607Y-87746507D01*
X75469474Y-87749610D01*
X75469471Y-87749612D01*
X75445247Y-87767800D01*
X75294965Y-87880635D01*
X75140629Y-88042138D01*
X75014743Y-88226680D01*
X74920688Y-88429305D01*
X74860989Y-88644570D01*
X74837251Y-88866695D01*
X74837548Y-88871848D01*
X74837548Y-88871851D01*
X74843011Y-88966590D01*
X74850110Y-89089715D01*
X74851247Y-89094761D01*
X74851248Y-89094767D01*
X74871119Y-89182939D01*
X74899222Y-89307639D01*
X74983266Y-89514616D01*
X75099987Y-89705088D01*
X75246250Y-89873938D01*
X75418126Y-90016632D01*
X75488595Y-90057811D01*
X75491445Y-90059476D01*
X75540169Y-90111114D01*
X75553240Y-90180897D01*
X75526509Y-90246669D01*
X75486055Y-90280027D01*
X75473607Y-90286507D01*
X75469474Y-90289610D01*
X75469471Y-90289612D01*
X75445247Y-90307800D01*
X75294965Y-90420635D01*
X75140629Y-90582138D01*
X75014743Y-90766680D01*
X74920688Y-90969305D01*
X74860989Y-91184570D01*
X74837251Y-91406695D01*
X74837548Y-91411848D01*
X74837548Y-91411851D01*
X74843011Y-91506590D01*
X74850110Y-91629715D01*
X74851247Y-91634761D01*
X74851248Y-91634767D01*
X74871119Y-91722939D01*
X74899222Y-91847639D01*
X74983266Y-92054616D01*
X75034019Y-92137438D01*
X75097291Y-92240688D01*
X75099987Y-92245088D01*
X75246250Y-92413938D01*
X75418126Y-92556632D01*
X75488595Y-92597811D01*
X75491445Y-92599476D01*
X75540169Y-92651114D01*
X75553240Y-92720897D01*
X75526509Y-92786669D01*
X75486055Y-92820027D01*
X75473607Y-92826507D01*
X75469474Y-92829610D01*
X75469471Y-92829612D01*
X75394444Y-92885944D01*
X75294965Y-92960635D01*
X75140629Y-93122138D01*
X75014743Y-93306680D01*
X74976011Y-93390121D01*
X74939471Y-93468841D01*
X74920688Y-93509305D01*
X74860989Y-93724570D01*
X74837251Y-93946695D01*
X74837548Y-93951848D01*
X74837548Y-93951851D01*
X74843011Y-94046590D01*
X74850110Y-94169715D01*
X74851247Y-94174761D01*
X74851248Y-94174767D01*
X74871119Y-94262939D01*
X74899222Y-94387639D01*
X74983266Y-94594616D01*
X75027763Y-94667229D01*
X75097291Y-94780688D01*
X75099987Y-94785088D01*
X75246250Y-94953938D01*
X75418126Y-95096632D01*
X75488595Y-95137811D01*
X75491445Y-95139476D01*
X75540169Y-95191114D01*
X75553240Y-95260897D01*
X75526509Y-95326669D01*
X75486055Y-95360027D01*
X75473607Y-95366507D01*
X75469474Y-95369610D01*
X75469471Y-95369612D01*
X75445247Y-95387800D01*
X75294965Y-95500635D01*
X75140629Y-95662138D01*
X75014743Y-95846680D01*
X74920688Y-96049305D01*
X74860989Y-96264570D01*
X74837251Y-96486695D01*
X74837548Y-96491848D01*
X74837548Y-96491851D01*
X74843011Y-96586590D01*
X74850110Y-96709715D01*
X74851247Y-96714761D01*
X74851248Y-96714767D01*
X74871119Y-96802939D01*
X74899222Y-96927639D01*
X74954900Y-97064758D01*
X74976817Y-97118733D01*
X74983266Y-97134616D01*
X75031707Y-97213665D01*
X75097291Y-97320688D01*
X75099987Y-97325088D01*
X75246250Y-97493938D01*
X75418126Y-97636632D01*
X75488595Y-97677811D01*
X75491445Y-97679476D01*
X75540169Y-97731114D01*
X75553240Y-97800897D01*
X75526509Y-97866669D01*
X75486055Y-97900027D01*
X75473607Y-97906507D01*
X75469474Y-97909610D01*
X75469471Y-97909612D01*
X75394444Y-97965944D01*
X75294965Y-98040635D01*
X75140629Y-98202138D01*
X75014743Y-98386680D01*
X74994166Y-98431010D01*
X74925249Y-98579480D01*
X74920688Y-98589305D01*
X74860989Y-98804570D01*
X74837251Y-99026695D01*
X74837548Y-99031848D01*
X74837548Y-99031851D01*
X74843011Y-99126590D01*
X74850110Y-99249715D01*
X74851247Y-99254761D01*
X74851248Y-99254767D01*
X74871119Y-99342939D01*
X74899222Y-99467639D01*
X74937461Y-99561811D01*
X74977167Y-99659595D01*
X74983266Y-99674616D01*
X75034019Y-99757438D01*
X75097291Y-99860688D01*
X75099987Y-99865088D01*
X75246250Y-100033938D01*
X75418126Y-100176632D01*
X75488595Y-100217811D01*
X75491445Y-100219476D01*
X75540169Y-100271114D01*
X75553240Y-100340897D01*
X75526509Y-100406669D01*
X75486055Y-100440027D01*
X75473607Y-100446507D01*
X75469474Y-100449610D01*
X75469471Y-100449612D01*
X75445247Y-100467800D01*
X75294965Y-100580635D01*
X75140629Y-100742138D01*
X75014743Y-100926680D01*
X74920688Y-101129305D01*
X74860989Y-101344570D01*
X74837251Y-101566695D01*
X74837548Y-101571848D01*
X74837548Y-101571851D01*
X74843011Y-101666590D01*
X74850110Y-101789715D01*
X74851247Y-101794761D01*
X74851248Y-101794767D01*
X74871119Y-101882939D01*
X74899222Y-102007639D01*
X74983266Y-102214616D01*
X75022057Y-102277918D01*
X75097291Y-102400688D01*
X75099987Y-102405088D01*
X75246250Y-102573938D01*
X75418126Y-102716632D01*
X75488595Y-102757811D01*
X75491445Y-102759476D01*
X75540169Y-102811114D01*
X75553240Y-102880897D01*
X75526509Y-102946669D01*
X75486055Y-102980027D01*
X75473607Y-102986507D01*
X75469474Y-102989610D01*
X75469471Y-102989612D01*
X75394444Y-103045944D01*
X75294965Y-103120635D01*
X75140629Y-103282138D01*
X75014743Y-103466680D01*
X74976011Y-103550121D01*
X74939471Y-103628841D01*
X74920688Y-103669305D01*
X74860989Y-103884570D01*
X74837251Y-104106695D01*
X74837548Y-104111848D01*
X74837548Y-104111851D01*
X74843011Y-104206590D01*
X74850110Y-104329715D01*
X74851247Y-104334761D01*
X74851248Y-104334767D01*
X74871119Y-104422939D01*
X74899222Y-104547639D01*
X74937461Y-104641811D01*
X74977167Y-104739595D01*
X74983266Y-104754616D01*
X75027763Y-104827229D01*
X75097291Y-104940688D01*
X75099987Y-104945088D01*
X75246250Y-105113938D01*
X75418126Y-105256632D01*
X75488595Y-105297811D01*
X75491445Y-105299476D01*
X75540169Y-105351114D01*
X75553240Y-105420897D01*
X75526509Y-105486669D01*
X75486055Y-105520027D01*
X75473607Y-105526507D01*
X75469474Y-105529610D01*
X75469471Y-105529612D01*
X75445247Y-105547800D01*
X75294965Y-105660635D01*
X75291393Y-105664373D01*
X75153667Y-105808495D01*
X75140629Y-105822138D01*
X75137720Y-105826403D01*
X75137714Y-105826411D01*
X75090027Y-105896318D01*
X75014743Y-106006680D01*
X74920688Y-106209305D01*
X74860989Y-106424570D01*
X74837251Y-106646695D01*
X74837548Y-106651848D01*
X74837548Y-106651851D01*
X74843011Y-106746590D01*
X74850110Y-106869715D01*
X74851247Y-106874761D01*
X74851248Y-106874767D01*
X74871119Y-106962939D01*
X74899222Y-107087639D01*
X74983266Y-107294616D01*
X75034019Y-107377438D01*
X75097291Y-107480688D01*
X75099987Y-107485088D01*
X75246250Y-107653938D01*
X75418126Y-107796632D01*
X75488595Y-107837811D01*
X75491445Y-107839476D01*
X75540169Y-107891114D01*
X75553240Y-107960897D01*
X75526509Y-108026669D01*
X75486055Y-108060027D01*
X75473607Y-108066507D01*
X75469474Y-108069610D01*
X75469471Y-108069612D01*
X75445247Y-108087800D01*
X75294965Y-108200635D01*
X75140629Y-108362138D01*
X75014743Y-108546680D01*
X74920688Y-108749305D01*
X74860989Y-108964570D01*
X74837251Y-109186695D01*
X74837548Y-109191848D01*
X74837548Y-109191851D01*
X74843011Y-109286590D01*
X74850110Y-109409715D01*
X74851247Y-109414761D01*
X74851248Y-109414767D01*
X74871119Y-109502939D01*
X74899222Y-109627639D01*
X74983266Y-109834616D01*
X75034019Y-109917438D01*
X75097291Y-110020688D01*
X75099987Y-110025088D01*
X75246250Y-110193938D01*
X75418126Y-110336632D01*
X75488595Y-110377811D01*
X75491445Y-110379476D01*
X75540169Y-110431114D01*
X75553240Y-110500897D01*
X75526509Y-110566669D01*
X75486055Y-110600027D01*
X75473607Y-110606507D01*
X75469474Y-110609610D01*
X75469471Y-110609612D01*
X75445247Y-110627800D01*
X75294965Y-110740635D01*
X75140629Y-110902138D01*
X75014743Y-111086680D01*
X74920688Y-111289305D01*
X74860989Y-111504570D01*
X74837251Y-111726695D01*
X74837548Y-111731848D01*
X74837548Y-111731851D01*
X74843011Y-111826590D01*
X74850110Y-111949715D01*
X74851247Y-111954761D01*
X74851248Y-111954767D01*
X74871119Y-112042939D01*
X74899222Y-112167639D01*
X74983266Y-112374616D01*
X75034019Y-112457438D01*
X75097291Y-112560688D01*
X75099987Y-112565088D01*
X75246250Y-112733938D01*
X75418126Y-112876632D01*
X75488595Y-112917811D01*
X75491445Y-112919476D01*
X75540169Y-112971114D01*
X75553240Y-113040897D01*
X75526509Y-113106669D01*
X75486055Y-113140027D01*
X75473607Y-113146507D01*
X75469474Y-113149610D01*
X75469471Y-113149612D01*
X75445247Y-113167800D01*
X75294965Y-113280635D01*
X75140629Y-113442138D01*
X75014743Y-113626680D01*
X74920688Y-113829305D01*
X74860989Y-114044570D01*
X74837251Y-114266695D01*
X74837548Y-114271848D01*
X74837548Y-114271851D01*
X74843011Y-114366590D01*
X74850110Y-114489715D01*
X74851247Y-114494761D01*
X74851248Y-114494767D01*
X74871119Y-114582939D01*
X74899222Y-114707639D01*
X74983266Y-114914616D01*
X75034019Y-114997438D01*
X75097291Y-115100688D01*
X75099987Y-115105088D01*
X75246250Y-115273938D01*
X75418126Y-115416632D01*
X75488595Y-115457811D01*
X75491445Y-115459476D01*
X75540169Y-115511114D01*
X75553240Y-115580897D01*
X75526509Y-115646669D01*
X75486055Y-115680027D01*
X75473607Y-115686507D01*
X75469474Y-115689610D01*
X75469471Y-115689612D01*
X75299100Y-115817530D01*
X75294965Y-115820635D01*
X75140629Y-115982138D01*
X75014743Y-116166680D01*
X74920688Y-116369305D01*
X74860989Y-116584570D01*
X74837251Y-116806695D01*
X74837548Y-116811848D01*
X74837548Y-116811851D01*
X74843011Y-116906590D01*
X74850110Y-117029715D01*
X74851247Y-117034761D01*
X74851248Y-117034767D01*
X74871119Y-117122939D01*
X74899222Y-117247639D01*
X74983266Y-117454616D01*
X75034019Y-117537438D01*
X75097291Y-117640688D01*
X75099987Y-117645088D01*
X75246250Y-117813938D01*
X75418126Y-117956632D01*
X75488595Y-117997811D01*
X75491445Y-117999476D01*
X75540169Y-118051114D01*
X75553240Y-118120897D01*
X75526509Y-118186669D01*
X75486055Y-118220027D01*
X75473607Y-118226507D01*
X75469474Y-118229610D01*
X75469471Y-118229612D01*
X75445247Y-118247800D01*
X75294965Y-118360635D01*
X75140629Y-118522138D01*
X75014743Y-118706680D01*
X74967716Y-118807992D01*
X74924080Y-118901998D01*
X74920688Y-118909305D01*
X74860989Y-119124570D01*
X74837251Y-119346695D01*
X74837548Y-119351848D01*
X74837548Y-119351851D01*
X74843011Y-119446590D01*
X74850110Y-119569715D01*
X74851247Y-119574761D01*
X74851248Y-119574767D01*
X74871119Y-119662939D01*
X74899222Y-119787639D01*
X74983266Y-119994616D01*
X75034019Y-120077438D01*
X75097291Y-120180688D01*
X75099987Y-120185088D01*
X75246250Y-120353938D01*
X75418126Y-120496632D01*
X75488595Y-120537811D01*
X75491445Y-120539476D01*
X75540169Y-120591114D01*
X75553240Y-120660897D01*
X75526509Y-120726669D01*
X75486055Y-120760027D01*
X75473607Y-120766507D01*
X75469474Y-120769610D01*
X75469471Y-120769612D01*
X75299100Y-120897530D01*
X75294965Y-120900635D01*
X75140629Y-121062138D01*
X75014743Y-121246680D01*
X74991945Y-121295794D01*
X74948071Y-121390314D01*
X74920688Y-121449305D01*
X74860989Y-121664570D01*
X74837251Y-121886695D01*
X74168500Y-121886695D01*
X74168500Y-47987885D01*
X74842000Y-47987885D01*
X74846475Y-48003124D01*
X74847865Y-48004329D01*
X74855548Y-48006000D01*
X75927885Y-48006000D01*
X75943124Y-48001525D01*
X75944329Y-48000135D01*
X75946000Y-47992452D01*
X75946000Y-47987885D01*
X76454000Y-47987885D01*
X76458475Y-48003124D01*
X76459865Y-48004329D01*
X76467548Y-48006000D01*
X78467885Y-48006000D01*
X78483124Y-48001525D01*
X78484329Y-48000135D01*
X78486000Y-47992452D01*
X78486000Y-47987885D01*
X78994000Y-47987885D01*
X78998475Y-48003124D01*
X78999865Y-48004329D01*
X79007548Y-48006000D01*
X80058344Y-48006000D01*
X80071875Y-48002027D01*
X80073180Y-47992947D01*
X80031214Y-47825875D01*
X80027894Y-47816124D01*
X79942972Y-47620814D01*
X79938105Y-47611739D01*
X79822426Y-47432926D01*
X79816136Y-47424757D01*
X79672806Y-47267240D01*
X79665273Y-47260215D01*
X79498139Y-47128222D01*
X79489552Y-47122517D01*
X79303117Y-47019599D01*
X79293705Y-47015369D01*
X79092959Y-46944280D01*
X79082988Y-46941646D01*
X79011837Y-46928972D01*
X78998540Y-46930432D01*
X78994000Y-46944989D01*
X78994000Y-47987885D01*
X78486000Y-47987885D01*
X78486000Y-46943102D01*
X78482082Y-46929758D01*
X78467806Y-46927771D01*
X78429324Y-46933660D01*
X78419288Y-46936051D01*
X78216868Y-47002212D01*
X78207359Y-47006209D01*
X78018463Y-47104542D01*
X78009738Y-47110036D01*
X77839433Y-47237905D01*
X77831726Y-47244748D01*
X77754094Y-47325985D01*
X77692570Y-47361415D01*
X77621657Y-47357958D01*
X77563871Y-47316712D01*
X77545018Y-47283164D01*
X77503324Y-47171946D01*
X77494786Y-47156351D01*
X77418285Y-47054276D01*
X77405724Y-47041715D01*
X77303649Y-46965214D01*
X77288054Y-46956676D01*
X77167606Y-46911522D01*
X77152351Y-46907895D01*
X77101486Y-46902369D01*
X77094672Y-46902000D01*
X76472115Y-46902000D01*
X76456876Y-46906475D01*
X76455671Y-46907865D01*
X76454000Y-46915548D01*
X76454000Y-47987885D01*
X75946000Y-47987885D01*
X75946000Y-46920116D01*
X75941525Y-46904877D01*
X75940135Y-46903672D01*
X75932452Y-46902001D01*
X75305331Y-46902001D01*
X75298510Y-46902371D01*
X75247648Y-46907895D01*
X75232396Y-46911521D01*
X75111946Y-46956676D01*
X75096351Y-46965214D01*
X74994276Y-47041715D01*
X74981715Y-47054276D01*
X74905214Y-47156351D01*
X74896676Y-47171946D01*
X74851522Y-47292394D01*
X74847895Y-47307649D01*
X74842369Y-47358514D01*
X74842000Y-47365328D01*
X74842000Y-47987885D01*
X74168500Y-47987885D01*
X74168500Y-46354500D01*
X74188502Y-46286379D01*
X74242158Y-46239886D01*
X74294500Y-46228500D01*
X103505500Y-46228500D01*
X103573621Y-46248502D01*
G37*
%TD.AperFunction*%
%TD*%
M02*
