%TF.GenerationSoftware,KiCad,Pcbnew,6.0.7*%
%TF.CreationDate,2022-09-06T19:52:02+02:00*%
%TF.ProjectId,srambrd,7372616d-6272-4642-9e6b-696361645f70,rev?*%
%TF.SameCoordinates,Original*%
%TF.FileFunction,Soldermask,Bot*%
%TF.FilePolarity,Negative*%
%FSLAX46Y46*%
G04 Gerber Fmt 4.6, Leading zero omitted, Abs format (unit mm)*
G04 Created by KiCad (PCBNEW 6.0.7) date 2022-09-06 19:52:02*
%MOMM*%
%LPD*%
G01*
G04 APERTURE LIST*
%ADD10R,1.700000X1.700000*%
%ADD11O,1.700000X1.700000*%
%ADD12C,5.600000*%
G04 APERTURE END LIST*
D10*
%TO.C,J3*%
X144780000Y-74930000D03*
D11*
X142240000Y-74930000D03*
X139700000Y-74930000D03*
%TD*%
D12*
%TO.C,H1*%
X107950000Y-64770000D03*
%TD*%
D10*
%TO.C,J4*%
X144780000Y-121013269D03*
D11*
X142240000Y-121013269D03*
X139700000Y-121013269D03*
%TD*%
D12*
%TO.C,H2*%
X107950000Y-138430000D03*
%TD*%
D10*
%TO.C,J1*%
X131298000Y-62225000D03*
D11*
X133838000Y-62225000D03*
X131298000Y-64765000D03*
X133838000Y-64765000D03*
X131298000Y-67305000D03*
X133838000Y-67305000D03*
X131298000Y-69845000D03*
X133838000Y-69845000D03*
X131298000Y-72385000D03*
X133838000Y-72385000D03*
X131298000Y-74925000D03*
X133838000Y-74925000D03*
X131298000Y-77465000D03*
X133838000Y-77465000D03*
X131298000Y-80005000D03*
X133838000Y-80005000D03*
X131298000Y-82545000D03*
X133838000Y-82545000D03*
X131298000Y-85085000D03*
X133838000Y-85085000D03*
X131298000Y-87625000D03*
X133838000Y-87625000D03*
X131298000Y-90165000D03*
X133838000Y-90165000D03*
X131298000Y-92705000D03*
X133838000Y-92705000D03*
X131298000Y-95245000D03*
X133838000Y-95245000D03*
X131298000Y-97785000D03*
X133838000Y-97785000D03*
X131298000Y-100325000D03*
X133838000Y-100325000D03*
X131298000Y-102865000D03*
X133838000Y-102865000D03*
X131298000Y-105405000D03*
X133838000Y-105405000D03*
X131298000Y-107945000D03*
X133838000Y-107945000D03*
X131298000Y-110485000D03*
X133838000Y-110485000D03*
X131298000Y-113025000D03*
X133838000Y-113025000D03*
X131298000Y-115565000D03*
X133838000Y-115565000D03*
X131298000Y-118105000D03*
X133838000Y-118105000D03*
X131298000Y-120645000D03*
X133838000Y-120645000D03*
X131298000Y-123185000D03*
X133838000Y-123185000D03*
X131298000Y-125725000D03*
X133838000Y-125725000D03*
X131298000Y-128265000D03*
X133838000Y-128265000D03*
X131298000Y-130805000D03*
X133838000Y-130805000D03*
X131298000Y-133345000D03*
X133838000Y-133345000D03*
X131298000Y-135885000D03*
X133838000Y-135885000D03*
X131298000Y-138425000D03*
X133838000Y-138425000D03*
X131298000Y-140965000D03*
X133838000Y-140965000D03*
%TD*%
M02*
