%TF.GenerationSoftware,KiCad,Pcbnew,6.0.7*%
%TF.CreationDate,2022-09-06T19:52:02+02:00*%
%TF.ProjectId,srambrd,7372616d-6272-4642-9e6b-696361645f70,rev?*%
%TF.SameCoordinates,Original*%
%TF.FileFunction,Copper,L1,Top*%
%TF.FilePolarity,Positive*%
%FSLAX46Y46*%
G04 Gerber Fmt 4.6, Leading zero omitted, Abs format (unit mm)*
G04 Created by KiCad (PCBNEW 6.0.7) date 2022-09-06 19:52:02*
%MOMM*%
%LPD*%
G01*
G04 APERTURE LIST*
G04 Aperture macros list*
%AMRoundRect*
0 Rectangle with rounded corners*
0 $1 Rounding radius*
0 $2 $3 $4 $5 $6 $7 $8 $9 X,Y pos of 4 corners*
0 Add a 4 corners polygon primitive as box body*
4,1,4,$2,$3,$4,$5,$6,$7,$8,$9,$2,$3,0*
0 Add four circle primitives for the rounded corners*
1,1,$1+$1,$2,$3*
1,1,$1+$1,$4,$5*
1,1,$1+$1,$6,$7*
1,1,$1+$1,$8,$9*
0 Add four rect primitives between the rounded corners*
20,1,$1+$1,$2,$3,$4,$5,0*
20,1,$1+$1,$4,$5,$6,$7,0*
20,1,$1+$1,$6,$7,$8,$9,0*
20,1,$1+$1,$8,$9,$2,$3,0*%
G04 Aperture macros list end*
%TA.AperFunction,SMDPad,CuDef*%
%ADD10RoundRect,0.250000X-0.450000X0.350000X-0.450000X-0.350000X0.450000X-0.350000X0.450000X0.350000X0*%
%TD*%
%TA.AperFunction,SMDPad,CuDef*%
%ADD11RoundRect,0.250000X-1.250000X-0.550000X1.250000X-0.550000X1.250000X0.550000X-1.250000X0.550000X0*%
%TD*%
%TA.AperFunction,ComponentPad*%
%ADD12R,1.700000X1.700000*%
%TD*%
%TA.AperFunction,ComponentPad*%
%ADD13O,1.700000X1.700000*%
%TD*%
%TA.AperFunction,SMDPad,CuDef*%
%ADD14RoundRect,0.250000X0.475000X-0.337500X0.475000X0.337500X-0.475000X0.337500X-0.475000X-0.337500X0*%
%TD*%
%TA.AperFunction,ComponentPad*%
%ADD15C,5.600000*%
%TD*%
%TA.AperFunction,SMDPad,CuDef*%
%ADD16RoundRect,0.250000X0.450000X-0.350000X0.450000X0.350000X-0.450000X0.350000X-0.450000X-0.350000X0*%
%TD*%
%TA.AperFunction,SMDPad,CuDef*%
%ADD17RoundRect,0.137500X-0.137500X0.625000X-0.137500X-0.625000X0.137500X-0.625000X0.137500X0.625000X0*%
%TD*%
%TA.AperFunction,SMDPad,CuDef*%
%ADD18RoundRect,0.250000X-0.475000X0.337500X-0.475000X-0.337500X0.475000X-0.337500X0.475000X0.337500X0*%
%TD*%
%TA.AperFunction,SMDPad,CuDef*%
%ADD19R,1.750000X0.700000*%
%TD*%
%TA.AperFunction,SMDPad,CuDef*%
%ADD20R,1.000000X1.450000*%
%TD*%
%TA.AperFunction,SMDPad,CuDef*%
%ADD21R,1.550000X1.000000*%
%TD*%
%TA.AperFunction,SMDPad,CuDef*%
%ADD22R,1.400000X0.800000*%
%TD*%
%TA.AperFunction,SMDPad,CuDef*%
%ADD23R,1.500000X1.300000*%
%TD*%
%TA.AperFunction,SMDPad,CuDef*%
%ADD24R,1.500000X0.800000*%
%TD*%
%TA.AperFunction,SMDPad,CuDef*%
%ADD25R,1.500000X1.500000*%
%TD*%
%TA.AperFunction,ViaPad*%
%ADD26C,0.800000*%
%TD*%
%TA.AperFunction,Conductor*%
%ADD27C,0.250000*%
%TD*%
%TA.AperFunction,Conductor*%
%ADD28C,0.400000*%
%TD*%
%TA.AperFunction,Conductor*%
%ADD29C,0.500000*%
%TD*%
G04 APERTURE END LIST*
D10*
%TO.P,R5,1*%
%TO.N,3v3*%
X108712000Y-69358000D03*
%TO.P,R5,2*%
%TO.N,SD_DAT1*%
X108712000Y-71358000D03*
%TD*%
D11*
%TO.P,C7,1*%
%TO.N,Net-(C5-Pad1)*%
X140040000Y-112123269D03*
%TO.P,C7,2*%
%TO.N,AUDIO_L*%
X144440000Y-112123269D03*
%TD*%
D10*
%TO.P,R4,1*%
%TO.N,3v3*%
X110998000Y-69358000D03*
%TO.P,R4,2*%
%TO.N,SD_DAT0*%
X110998000Y-71358000D03*
%TD*%
D12*
%TO.P,J3,1,Pin_1*%
%TO.N,GND*%
X144780000Y-74930000D03*
D13*
%TO.P,J3,2,Pin_2*%
%TO.N,RX*%
X142240000Y-74930000D03*
%TO.P,J3,3,Pin_3*%
%TO.N,TX*%
X139700000Y-74930000D03*
%TD*%
D14*
%TO.P,C4,1*%
%TO.N,Net-(C3-Pad2)*%
X140335000Y-89263269D03*
%TO.P,C4,2*%
%TO.N,Net-(C4-Pad2)*%
X140335000Y-87188269D03*
%TD*%
D15*
%TO.P,H1,1*%
%TO.N,N/C*%
X107950000Y-64770000D03*
%TD*%
D10*
%TO.P,R6,1*%
%TO.N,PWM_L*%
X144145000Y-82548269D03*
%TO.P,R6,2*%
%TO.N,Net-(C3-Pad1)*%
X144145000Y-84548269D03*
%TD*%
D12*
%TO.P,J4,1,Pin_1*%
%TO.N,GND*%
X144780000Y-121013269D03*
D13*
%TO.P,J4,2,Pin_2*%
%TO.N,AUDIO_L*%
X142240000Y-121013269D03*
%TO.P,J4,3,Pin_3*%
%TO.N,AUDIO_R*%
X139700000Y-121013269D03*
%TD*%
D10*
%TO.P,R9,1*%
%TO.N,Net-(C4-Pad2)*%
X140335000Y-92073269D03*
%TO.P,R9,2*%
%TO.N,Net-(C6-Pad2)*%
X140335000Y-94073269D03*
%TD*%
D16*
%TO.P,R1,1*%
%TO.N,3v3*%
X108600000Y-89400000D03*
%TO.P,R1,2*%
%TO.N,SD_DAT2*%
X108600000Y-87400000D03*
%TD*%
D14*
%TO.P,C2,1*%
%TO.N,3v3*%
X115400000Y-100237500D03*
%TO.P,C2,2*%
%TO.N,GND*%
X115400000Y-98162500D03*
%TD*%
D17*
%TO.P,U1,1,A0*%
%TO.N,A0*%
X123400000Y-102662500D03*
%TO.P,U1,2,A1*%
%TO.N,A1*%
X122600000Y-102662500D03*
%TO.P,U1,3,A2*%
%TO.N,A2*%
X121800000Y-102662500D03*
%TO.P,U1,4,A3*%
%TO.N,A3*%
X121000000Y-102662500D03*
%TO.P,U1,5,A4*%
%TO.N,A4*%
X120200000Y-102662500D03*
%TO.P,U1,6,~CE~*%
%TO.N,CE_N*%
X119400000Y-102662500D03*
%TO.P,U1,7,I/O0*%
%TO.N,D0*%
X118600000Y-102662500D03*
%TO.P,U1,8,I/O1*%
%TO.N,D1*%
X117800000Y-102662500D03*
%TO.P,U1,9,I/O2*%
%TO.N,D2*%
X117000000Y-102662500D03*
%TO.P,U1,10,I/O3*%
%TO.N,D3*%
X116200000Y-102662500D03*
%TO.P,U1,11,VDD*%
%TO.N,3v3*%
X115400000Y-102662500D03*
%TO.P,U1,12,GND*%
%TO.N,GND*%
X114600000Y-102662500D03*
%TO.P,U1,13,I/O4*%
%TO.N,D4*%
X113800000Y-102662500D03*
%TO.P,U1,14,I/O5*%
%TO.N,D5*%
X113000000Y-102662500D03*
%TO.P,U1,15,I/O6*%
%TO.N,D6*%
X112200000Y-102662500D03*
%TO.P,U1,16,I/O7*%
%TO.N,D7*%
X111400000Y-102662500D03*
%TO.P,U1,17,~WE~*%
%TO.N,WE_N*%
X110600000Y-102662500D03*
%TO.P,U1,18,A5*%
%TO.N,A5*%
X109800000Y-102662500D03*
%TO.P,U1,19,A6*%
%TO.N,A6*%
X109000000Y-102662500D03*
%TO.P,U1,20,A7*%
%TO.N,A7*%
X108200000Y-102662500D03*
%TO.P,U1,21,A8*%
%TO.N,A8*%
X107400000Y-102662500D03*
%TO.P,U1,22,A9*%
%TO.N,A9*%
X106600000Y-102662500D03*
%TO.P,U1,23,A10*%
%TO.N,A10*%
X106600000Y-113837500D03*
%TO.P,U1,24,A11*%
%TO.N,A11*%
X107400000Y-113837500D03*
%TO.P,U1,25,A12*%
%TO.N,A12*%
X108200000Y-113837500D03*
%TO.P,U1,26,A13*%
%TO.N,A13*%
X109000000Y-113837500D03*
%TO.P,U1,27,A14*%
%TO.N,A14*%
X109800000Y-113837500D03*
%TO.P,U1,28*%
%TO.N,N/C*%
X110600000Y-113837500D03*
%TO.P,U1,29,I/O8*%
%TO.N,D8*%
X111400000Y-113837500D03*
%TO.P,U1,30,I/O9*%
%TO.N,D9*%
X112200000Y-113837500D03*
%TO.P,U1,31,I/O10*%
%TO.N,D10*%
X113000000Y-113837500D03*
%TO.P,U1,32,I/O11*%
%TO.N,D11*%
X113800000Y-113837500D03*
%TO.P,U1,33,VDD*%
%TO.N,3v3*%
X114600000Y-113837500D03*
%TO.P,U1,34,GND*%
%TO.N,GND*%
X115400000Y-113837500D03*
%TO.P,U1,35,I/O12*%
%TO.N,D12*%
X116200000Y-113837500D03*
%TO.P,U1,36,I/O13*%
%TO.N,D13*%
X117000000Y-113837500D03*
%TO.P,U1,37,I/O14*%
%TO.N,D14*%
X117800000Y-113837500D03*
%TO.P,U1,38,I/O15*%
%TO.N,D15*%
X118600000Y-113837500D03*
%TO.P,U1,39,~LB~*%
%TO.N,LB_N*%
X119400000Y-113837500D03*
%TO.P,U1,40,~UB~*%
%TO.N,UB_N*%
X120200000Y-113837500D03*
%TO.P,U1,41,~OE~*%
%TO.N,OE_N*%
X121000000Y-113837500D03*
%TO.P,U1,42,A15*%
%TO.N,A15*%
X121800000Y-113837500D03*
%TO.P,U1,43,A16*%
%TO.N,A16*%
X122600000Y-113837500D03*
%TO.P,U1,44,A17*%
%TO.N,A17*%
X123400000Y-113837500D03*
%TD*%
D10*
%TO.P,R3,1*%
%TO.N,3v3*%
X113284000Y-69358000D03*
%TO.P,R3,2*%
%TO.N,SD_CMD*%
X113284000Y-71358000D03*
%TD*%
D18*
%TO.P,C1,1*%
%TO.N,3v3*%
X114800000Y-116183500D03*
%TO.P,C1,2*%
%TO.N,GND*%
X114800000Y-118258500D03*
%TD*%
D11*
%TO.P,C8,1*%
%TO.N,Net-(C6-Pad2)*%
X140040000Y-103868269D03*
%TO.P,C8,2*%
%TO.N,AUDIO_R*%
X144440000Y-103868269D03*
%TD*%
D14*
%TO.P,C6,1*%
%TO.N,Net-(C3-Pad2)*%
X140335000Y-98958269D03*
%TO.P,C6,2*%
%TO.N,Net-(C6-Pad2)*%
X140335000Y-96883269D03*
%TD*%
D18*
%TO.P,C5,1*%
%TO.N,Net-(C5-Pad1)*%
X144145000Y-96883269D03*
%TO.P,C5,2*%
%TO.N,Net-(C3-Pad2)*%
X144145000Y-98958269D03*
%TD*%
D10*
%TO.P,R7,1*%
%TO.N,PWM_R*%
X140335000Y-82548269D03*
%TO.P,R7,2*%
%TO.N,Net-(C4-Pad2)*%
X140335000Y-84548269D03*
%TD*%
D15*
%TO.P,H2,1*%
%TO.N,N/C*%
X107950000Y-138430000D03*
%TD*%
D18*
%TO.P,C3,1*%
%TO.N,Net-(C3-Pad1)*%
X144145000Y-87188269D03*
%TO.P,C3,2*%
%TO.N,Net-(C3-Pad2)*%
X144145000Y-89263269D03*
%TD*%
D10*
%TO.P,R8,1*%
%TO.N,Net-(C3-Pad1)*%
X144145000Y-92073269D03*
%TO.P,R8,2*%
%TO.N,Net-(C5-Pad1)*%
X144145000Y-94073269D03*
%TD*%
D16*
%TO.P,R2,1*%
%TO.N,3v3*%
X110800000Y-89400000D03*
%TO.P,R2,2*%
%TO.N,SD_DAT3*%
X110800000Y-87400000D03*
%TD*%
D19*
%TO.P,J2,1,DAT2*%
%TO.N,SD_DAT2*%
X106410000Y-82575000D03*
%TO.P,J2,2,DAT3/CD*%
%TO.N,SD_DAT3*%
X106410000Y-81475000D03*
%TO.P,J2,3,CMD*%
%TO.N,SD_CMD*%
X106410000Y-80375000D03*
%TO.P,J2,4,VDD*%
%TO.N,3v3*%
X106410000Y-79275000D03*
%TO.P,J2,5,CLK*%
%TO.N,SD_CLK*%
X106410000Y-78175000D03*
%TO.P,J2,6,VSS*%
%TO.N,GND*%
X106410000Y-77075000D03*
%TO.P,J2,7,DAT0*%
%TO.N,SD_DAT0*%
X106410000Y-75975000D03*
%TO.P,J2,8,DAT1*%
%TO.N,SD_DAT1*%
X106410000Y-74875000D03*
D20*
%TO.P,J2,9,SHIELD*%
%TO.N,GND*%
X115635000Y-73750000D03*
D21*
%TO.P,J2,10*%
%TO.N,N/C*%
X117210000Y-84975000D03*
D22*
%TO.P,J2,11*%
X114785000Y-85375000D03*
D23*
X106535000Y-73675000D03*
D24*
X114135000Y-73425000D03*
D25*
X106535000Y-85025000D03*
%TD*%
D12*
%TO.P,J1,1,Pin_1*%
%TO.N,GND*%
X131298000Y-62225000D03*
D13*
%TO.P,J1,2,Pin_2*%
X133838000Y-62225000D03*
%TO.P,J1,3,Pin_3*%
%TO.N,3v3*%
X131298000Y-64765000D03*
%TO.P,J1,4,Pin_4*%
X133838000Y-64765000D03*
%TO.P,J1,5,Pin_5*%
%TO.N,GND*%
X131298000Y-67305000D03*
%TO.P,J1,6,Pin_6*%
X133838000Y-67305000D03*
%TO.P,J1,7,Pin_7*%
%TO.N,SD_DAT1*%
X131298000Y-69845000D03*
%TO.P,J1,8,Pin_8*%
%TO.N,SD_DAT0*%
X133838000Y-69845000D03*
%TO.P,J1,9,Pin_9*%
%TO.N,SD_CLK*%
X131298000Y-72385000D03*
%TO.P,J1,10,Pin_10*%
%TO.N,SD_CMD*%
X133838000Y-72385000D03*
%TO.P,J1,11,Pin_11*%
%TO.N,SD_DAT3*%
X131298000Y-74925000D03*
%TO.P,J1,12,Pin_12*%
%TO.N,SD_DAT2*%
X133838000Y-74925000D03*
%TO.P,J1,13,Pin_13*%
%TO.N,TX*%
X131298000Y-77465000D03*
%TO.P,J1,14,Pin_14*%
%TO.N,RX*%
X133838000Y-77465000D03*
%TO.P,J1,15,Pin_15*%
%TO.N,unconnected-(J1-Pad15)*%
X131298000Y-80005000D03*
%TO.P,J1,16,Pin_16*%
%TO.N,PWM_L*%
X133838000Y-80005000D03*
%TO.P,J1,17,Pin_17*%
%TO.N,unconnected-(J1-Pad17)*%
X131298000Y-82545000D03*
%TO.P,J1,18,Pin_18*%
%TO.N,PWM_R*%
X133838000Y-82545000D03*
%TO.P,J1,19,Pin_19*%
%TO.N,unconnected-(J1-Pad19)*%
X131298000Y-85085000D03*
%TO.P,J1,20,Pin_20*%
%TO.N,unconnected-(J1-Pad20)*%
X133838000Y-85085000D03*
%TO.P,J1,21,Pin_21*%
%TO.N,A9*%
X131298000Y-87625000D03*
%TO.P,J1,22,Pin_22*%
%TO.N,unconnected-(J1-Pad22)*%
X133838000Y-87625000D03*
%TO.P,J1,23,Pin_23*%
%TO.N,A7*%
X131298000Y-90165000D03*
%TO.P,J1,24,Pin_24*%
%TO.N,A8*%
X133838000Y-90165000D03*
%TO.P,J1,25,Pin_25*%
%TO.N,A5*%
X131298000Y-92705000D03*
%TO.P,J1,26,Pin_26*%
%TO.N,A6*%
X133838000Y-92705000D03*
%TO.P,J1,27,Pin_27*%
%TO.N,CE_N*%
X131298000Y-95245000D03*
%TO.P,J1,28,Pin_28*%
%TO.N,WE_N*%
X133838000Y-95245000D03*
%TO.P,J1,29,Pin_29*%
%TO.N,A3*%
X131298000Y-97785000D03*
%TO.P,J1,30,Pin_30*%
%TO.N,A4*%
X133838000Y-97785000D03*
%TO.P,J1,31,Pin_31*%
%TO.N,A1*%
X131298000Y-100325000D03*
%TO.P,J1,32,Pin_32*%
%TO.N,A2*%
X133838000Y-100325000D03*
%TO.P,J1,33,Pin_33*%
%TO.N,D0*%
X131298000Y-102865000D03*
%TO.P,J1,34,Pin_34*%
%TO.N,A0*%
X133838000Y-102865000D03*
%TO.P,J1,35,Pin_35*%
%TO.N,D2*%
X131298000Y-105405000D03*
%TO.P,J1,36,Pin_36*%
%TO.N,D1*%
X133838000Y-105405000D03*
%TO.P,J1,37,Pin_37*%
%TO.N,D4*%
X131298000Y-107945000D03*
%TO.P,J1,38,Pin_38*%
%TO.N,D3*%
X133838000Y-107945000D03*
%TO.P,J1,39,Pin_39*%
%TO.N,D6*%
X131298000Y-110485000D03*
%TO.P,J1,40,Pin_40*%
%TO.N,D5*%
X133838000Y-110485000D03*
%TO.P,J1,41,Pin_41*%
%TO.N,LB_N*%
X131298000Y-113025000D03*
%TO.P,J1,42,Pin_42*%
%TO.N,D7*%
X133838000Y-113025000D03*
%TO.P,J1,43,Pin_43*%
%TO.N,OE_N*%
X131298000Y-115565000D03*
%TO.P,J1,44,Pin_44*%
%TO.N,UB_N*%
X133838000Y-115565000D03*
%TO.P,J1,45,Pin_45*%
%TO.N,A16*%
X131298000Y-118105000D03*
%TO.P,J1,46,Pin_46*%
%TO.N,A17*%
X133838000Y-118105000D03*
%TO.P,J1,47,Pin_47*%
%TO.N,D15*%
X131298000Y-120645000D03*
%TO.P,J1,48,Pin_48*%
%TO.N,A15*%
X133838000Y-120645000D03*
%TO.P,J1,49,Pin_49*%
%TO.N,D13*%
X131298000Y-123185000D03*
%TO.P,J1,50,Pin_50*%
%TO.N,D14*%
X133838000Y-123185000D03*
%TO.P,J1,51,Pin_51*%
%TO.N,D11*%
X131298000Y-125725000D03*
%TO.P,J1,52,Pin_52*%
%TO.N,D12*%
X133838000Y-125725000D03*
%TO.P,J1,53,Pin_53*%
%TO.N,D9*%
X131298000Y-128265000D03*
%TO.P,J1,54,Pin_54*%
%TO.N,D10*%
X133838000Y-128265000D03*
%TO.P,J1,55,Pin_55*%
%TO.N,A14*%
X131298000Y-130805000D03*
%TO.P,J1,56,Pin_56*%
%TO.N,D8*%
X133838000Y-130805000D03*
%TO.P,J1,57,Pin_57*%
%TO.N,A12*%
X131298000Y-133345000D03*
%TO.P,J1,58,Pin_58*%
%TO.N,A13*%
X133838000Y-133345000D03*
%TO.P,J1,59,Pin_59*%
%TO.N,A10*%
X131298000Y-135885000D03*
%TO.P,J1,60,Pin_60*%
%TO.N,A11*%
X133838000Y-135885000D03*
%TO.P,J1,61,Pin_61*%
%TO.N,GND*%
X131298000Y-138425000D03*
%TO.P,J1,62,Pin_62*%
X133838000Y-138425000D03*
%TO.P,J1,63,Pin_63*%
%TO.N,unconnected-(J1-Pad63)*%
X131298000Y-140965000D03*
%TO.P,J1,64,Pin_64*%
%TO.N,unconnected-(J1-Pad64)*%
X133838000Y-140965000D03*
%TD*%
D26*
%TO.N,GND*%
X114000000Y-101000000D03*
X115697000Y-71800000D03*
X114600000Y-119800000D03*
X108600000Y-77000000D03*
X114000000Y-98171000D03*
X116000000Y-111800000D03*
%TO.N,3v3*%
X114000000Y-111800000D03*
X117000000Y-100200000D03*
X107000000Y-89400000D03*
X104648000Y-79248000D03*
X114800000Y-69342000D03*
%TO.N,D0*%
X118600000Y-101000000D03*
%TO.N,D1*%
X117800000Y-104800000D03*
%TO.N,D2*%
X117000000Y-104000000D03*
%TO.N,D3*%
X116200000Y-104800000D03*
%TO.N,D4*%
X113800000Y-104800000D03*
%TO.N,D5*%
X113000000Y-104000000D03*
%TO.N,D6*%
X112200000Y-104800000D03*
%TO.N,D7*%
X111400000Y-104000000D03*
%TO.N,D8*%
X110800000Y-116400000D03*
%TO.N,D9*%
X111600000Y-115800000D03*
%TO.N,D10*%
X112400000Y-116400000D03*
%TO.N,D11*%
X113200000Y-115800000D03*
%TO.N,D12*%
X116200000Y-115600000D03*
%TO.N,D13*%
X117000000Y-116400000D03*
%TO.N,D14*%
X117800000Y-115600000D03*
%TO.N,D15*%
X118600000Y-116400000D03*
%TO.N,OE_N*%
X121000000Y-111800000D03*
%TO.N,UB_N*%
X120200000Y-112400000D03*
%TO.N,LB_N*%
X119400000Y-111800000D03*
%TO.N,SD_DAT3*%
X108600000Y-81475000D03*
%TO.N,SD_CMD*%
X108600000Y-80400000D03*
%TO.N,SD_CLK*%
X108600000Y-78200000D03*
%TO.N,SD_DAT0*%
X108600000Y-75946000D03*
%TO.N,SD_DAT1*%
X108600000Y-74930000D03*
%TO.N,SD_DAT2*%
X108600000Y-82600000D03*
%TD*%
D27*
%TO.N,A9*%
X127036603Y-87625000D02*
X114775000Y-87625000D01*
X129325000Y-87925000D02*
G75*
G02*
X129625000Y-87625000I300000J0D01*
G01*
X128125000Y-86925000D02*
X128125000Y-87325000D01*
X127825000Y-87625000D02*
X127036603Y-87625000D01*
X128725000Y-87925000D02*
X128725000Y-86925000D01*
X128725000Y-88125000D02*
X128725000Y-87925000D01*
X127825000Y-87625000D02*
G75*
G03*
X128125000Y-87325000I0J300000D01*
G01*
X129325000Y-87925000D02*
X129325000Y-88125000D01*
X128725000Y-88125000D02*
G75*
G03*
X129025000Y-88425000I300000J0D01*
G01*
X128125000Y-86925000D02*
G75*
G02*
X128425000Y-86625000I300000J0D01*
G01*
X131298000Y-87625000D02*
X129625000Y-87625000D01*
X128425000Y-86625000D02*
G75*
G02*
X128725000Y-86925000I0J-300000D01*
G01*
X129025000Y-88425000D02*
G75*
G03*
X129325000Y-88125000I0J300000D01*
G01*
X114775000Y-87625000D02*
X106600000Y-95800000D01*
X106600000Y-95800000D02*
X106600000Y-102662500D01*
%TO.N,A8*%
X125800000Y-89200000D02*
G75*
G02*
X126100000Y-88900000I300000J0D01*
G01*
X124900000Y-88900000D02*
G75*
G02*
X125200000Y-89200000I0J-300000D01*
G01*
X125500000Y-89700000D02*
G75*
G03*
X125800000Y-89400000I0J300000D01*
G01*
X125200000Y-89400000D02*
G75*
G03*
X125500000Y-89700000I300000J0D01*
G01*
X133838000Y-90165000D02*
X132573000Y-88900000D01*
X132573000Y-88900000D02*
X126100000Y-88900000D01*
X125800000Y-89200000D02*
X125800000Y-89400000D01*
X124900000Y-88900000D02*
X124855601Y-88900000D01*
X124855601Y-88900000D02*
X114700000Y-88900000D01*
X125200000Y-89400000D02*
X125200000Y-89200000D01*
X114700000Y-88900000D02*
X107400000Y-96200000D01*
X107400000Y-96200000D02*
X107400000Y-102662500D01*
%TO.N,A7*%
X126235000Y-90165000D02*
G75*
G03*
X126535000Y-89865000I0J300000D01*
G01*
X126835000Y-89365000D02*
G75*
G02*
X127135000Y-89665000I0J-300000D01*
G01*
X128935000Y-89865000D02*
X128935000Y-90665000D01*
X108200000Y-96600000D02*
X108200000Y-102662500D01*
X127735000Y-89665000D02*
G75*
G02*
X128035000Y-89365000I300000J0D01*
G01*
X127135000Y-90665000D02*
G75*
G03*
X127435000Y-90965000I300000J0D01*
G01*
X128035000Y-89365000D02*
G75*
G02*
X128335000Y-89665000I0J-300000D01*
G01*
X131298000Y-90165000D02*
X129835000Y-90165000D01*
X127435000Y-90965000D02*
G75*
G03*
X127735000Y-90665000I0J300000D01*
G01*
X129535000Y-89865000D02*
X129535000Y-89665000D01*
X128335000Y-90665000D02*
G75*
G03*
X128635000Y-90965000I300000J0D01*
G01*
X128635000Y-90965000D02*
G75*
G03*
X128935000Y-90665000I0J300000D01*
G01*
X128935000Y-89665000D02*
G75*
G02*
X129235000Y-89365000I300000J0D01*
G01*
X129235000Y-89365000D02*
G75*
G02*
X129535000Y-89665000I0J-300000D01*
G01*
X125779320Y-90165000D02*
X114635000Y-90165000D01*
X126535000Y-89665000D02*
G75*
G02*
X126835000Y-89365000I300000J0D01*
G01*
X129535000Y-89865000D02*
G75*
G03*
X129835000Y-90165000I300000J0D01*
G01*
X126235000Y-90165000D02*
X125779320Y-90165000D01*
X128935000Y-89665000D02*
X128935000Y-89865000D01*
X128335000Y-90665000D02*
X128335000Y-90165000D01*
X128335000Y-90165000D02*
X128335000Y-89665000D01*
X127135000Y-90165000D02*
X127135000Y-89665000D01*
X127735000Y-89665000D02*
X127735000Y-90165000D01*
X127735000Y-90165000D02*
X127735000Y-90665000D01*
X126535000Y-89665000D02*
X126535000Y-89865000D01*
X127135000Y-90665000D02*
X127135000Y-90165000D01*
X114635000Y-90165000D02*
X108200000Y-96600000D01*
%TO.N,A6*%
X125140000Y-91740000D02*
X125140000Y-91940000D01*
X122740000Y-90940000D02*
X122740000Y-91140000D01*
X133838000Y-92705000D02*
X132573000Y-91440000D01*
X122740000Y-90940000D02*
G75*
G02*
X123040000Y-90640000I300000J0D01*
G01*
X124240000Y-90640000D02*
G75*
G02*
X124540000Y-90940000I0J-300000D01*
G01*
X121699562Y-91440000D02*
X114760000Y-91440000D01*
X123040000Y-90640000D02*
G75*
G02*
X123340000Y-90940000I0J-300000D01*
G01*
X123340000Y-91940000D02*
G75*
G03*
X123640000Y-92240000I300000J0D01*
G01*
X123640000Y-92240000D02*
G75*
G03*
X123940000Y-91940000I0J300000D01*
G01*
X122440000Y-91440000D02*
G75*
G03*
X122740000Y-91140000I0J300000D01*
G01*
X123940000Y-90940000D02*
G75*
G02*
X124240000Y-90640000I300000J0D01*
G01*
X124540000Y-91940000D02*
G75*
G03*
X124840000Y-92240000I300000J0D01*
G01*
X123340000Y-91440000D02*
X123340000Y-90940000D01*
X114760000Y-91440000D02*
X109000000Y-97200000D01*
X124840000Y-92240000D02*
G75*
G03*
X125140000Y-91940000I0J300000D01*
G01*
X125140000Y-91740000D02*
G75*
G02*
X125440000Y-91440000I300000J0D01*
G01*
X132573000Y-91440000D02*
X125440000Y-91440000D01*
X124540000Y-91940000D02*
X124540000Y-91740000D01*
X122440000Y-91440000D02*
X121699562Y-91440000D01*
X124540000Y-91740000D02*
X124540000Y-90940000D01*
X123340000Y-91940000D02*
X123340000Y-91440000D01*
X123940000Y-90940000D02*
X123940000Y-91440000D01*
X123940000Y-91440000D02*
X123940000Y-91940000D01*
X109000000Y-97200000D02*
X109000000Y-102662500D01*
%TO.N,A5*%
X126595000Y-92705000D02*
X126595000Y-92205000D01*
X127195000Y-92205000D02*
X127195000Y-92705000D01*
X127795000Y-93205000D02*
X127795000Y-92705000D01*
X125395000Y-93205000D02*
X125395000Y-93005000D01*
X127195000Y-92705000D02*
X127195000Y-93205000D01*
X128995000Y-93005000D02*
X128995000Y-92205000D01*
X125395000Y-93205000D02*
G75*
G03*
X125695000Y-93505000I300000J0D01*
G01*
X125995000Y-92205000D02*
X125995000Y-92705000D01*
X129595000Y-93005000D02*
G75*
G02*
X129895000Y-92705000I300000J0D01*
G01*
X126895000Y-93505000D02*
G75*
G03*
X127195000Y-93205000I0J300000D01*
G01*
X129595000Y-93005000D02*
X129595000Y-93205000D01*
X127795000Y-93205000D02*
G75*
G03*
X128095000Y-93505000I300000J0D01*
G01*
X129295000Y-93505000D02*
G75*
G03*
X129595000Y-93205000I0J300000D01*
G01*
X128395000Y-92205000D02*
X128395000Y-92705000D01*
X128995000Y-93205000D02*
G75*
G03*
X129295000Y-93505000I300000J0D01*
G01*
X127795000Y-92705000D02*
X127795000Y-92205000D01*
X127195000Y-92205000D02*
G75*
G02*
X127495000Y-91905000I300000J0D01*
G01*
X109800000Y-97800000D02*
X109800000Y-102662500D01*
X126295000Y-91905000D02*
G75*
G02*
X126595000Y-92205000I0J-300000D01*
G01*
X125095000Y-92705000D02*
G75*
G02*
X125395000Y-93005000I0J-300000D01*
G01*
X128695000Y-91905000D02*
G75*
G02*
X128995000Y-92205000I0J-300000D01*
G01*
X128395000Y-92705000D02*
X128395000Y-93205000D01*
X128395000Y-92205000D02*
G75*
G02*
X128695000Y-91905000I300000J0D01*
G01*
X131298000Y-92705000D02*
X129895000Y-92705000D01*
X125995000Y-92205000D02*
G75*
G02*
X126295000Y-91905000I300000J0D01*
G01*
X126595000Y-93205000D02*
X126595000Y-92705000D01*
X125695000Y-93505000D02*
G75*
G03*
X125995000Y-93205000I0J300000D01*
G01*
X127495000Y-91905000D02*
G75*
G02*
X127795000Y-92205000I0J-300000D01*
G01*
X128995000Y-93205000D02*
X128995000Y-93005000D01*
X128095000Y-93505000D02*
G75*
G03*
X128395000Y-93205000I0J300000D01*
G01*
X126595000Y-93205000D02*
G75*
G03*
X126895000Y-93505000I300000J0D01*
G01*
X125995000Y-92705000D02*
X125995000Y-93205000D01*
X125095000Y-92705000D02*
X124419400Y-92705000D01*
X124419400Y-92705000D02*
X114895000Y-92705000D01*
X114895000Y-92705000D02*
X109800000Y-97800000D01*
%TO.N,A4*%
X120502918Y-98497032D02*
G75*
G03*
X120502942Y-98072792I-212118J212132D01*
G01*
X124832000Y-95720000D02*
G75*
G02*
X125132000Y-96020000I0J-300000D01*
G01*
X120220118Y-97789932D02*
G75*
G02*
X120220100Y-97365686I212082J212132D01*
G01*
X128732000Y-96220000D02*
X128732000Y-96020000D01*
X120502942Y-98497056D02*
X120221285Y-98778715D01*
X122058574Y-98355632D02*
G75*
G03*
X122058578Y-97931372I-212174J212132D01*
G01*
X121775734Y-96800000D02*
G75*
G03*
X122200000Y-96800000I212133J212134D01*
G01*
X123032000Y-96520000D02*
G75*
G03*
X123332000Y-96220000I0J300000D01*
G01*
X123032000Y-96520000D02*
X122480000Y-96520000D01*
X123332000Y-96020000D02*
G75*
G02*
X123632000Y-95720000I300000J0D01*
G01*
X125432000Y-97520000D02*
G75*
G03*
X125732000Y-97220000I0J300000D01*
G01*
X123632000Y-95720000D02*
G75*
G02*
X123932000Y-96020000I0J-300000D01*
G01*
X123932000Y-97220000D02*
G75*
G03*
X124232000Y-97520000I300000J0D01*
G01*
X128732000Y-96220000D02*
G75*
G03*
X129032000Y-96520000I300000J0D01*
G01*
X124232000Y-97520000D02*
G75*
G03*
X124532000Y-97220000I0J300000D01*
G01*
X126932000Y-96020000D02*
G75*
G02*
X127232000Y-95720000I300000J0D01*
G01*
X133838000Y-97785000D02*
X132573000Y-96520000D01*
X120220100Y-97789950D02*
X120502942Y-98072792D01*
X126632000Y-97520000D02*
G75*
G03*
X126932000Y-97220000I0J300000D01*
G01*
X121634315Y-98355635D02*
G75*
G03*
X122058577Y-98355635I212131J212131D01*
G01*
X128432000Y-95720000D02*
G75*
G02*
X128732000Y-96020000I0J-300000D01*
G01*
X123332000Y-96020000D02*
X123332000Y-96220000D01*
X120221285Y-98778715D02*
X120200000Y-98800000D01*
X126332000Y-97220000D02*
G75*
G03*
X126632000Y-97520000I300000J0D01*
G01*
X120220101Y-97365687D02*
G75*
G02*
X120644363Y-97365687I212131J-212131D01*
G01*
X127832000Y-97520000D02*
G75*
G03*
X128132000Y-97220000I0J300000D01*
G01*
X126032000Y-95720000D02*
G75*
G02*
X126332000Y-96020000I0J-300000D01*
G01*
X122480000Y-96520000D02*
X122200000Y-96800000D01*
X121068617Y-96941432D02*
G75*
G02*
X121068628Y-96517157I212183J212132D01*
G01*
X126932000Y-96020000D02*
X126932000Y-97220000D01*
X121068629Y-96517158D02*
G75*
G02*
X121492891Y-96517158I212131J-212131D01*
G01*
X126332000Y-97220000D02*
X126332000Y-96020000D01*
X127532000Y-97220000D02*
G75*
G03*
X127832000Y-97520000I300000J0D01*
G01*
X124532000Y-96020000D02*
G75*
G02*
X124832000Y-95720000I300000J0D01*
G01*
X125732000Y-96020000D02*
G75*
G02*
X126032000Y-95720000I300000J0D01*
G01*
X127232000Y-95720000D02*
G75*
G02*
X127532000Y-96020000I0J-300000D01*
G01*
X125132000Y-97220000D02*
G75*
G03*
X125432000Y-97520000I300000J0D01*
G01*
X128132000Y-96020000D02*
G75*
G02*
X128432000Y-95720000I300000J0D01*
G01*
X132573000Y-96520000D02*
X129032000Y-96520000D01*
X128132000Y-96020000D02*
X128132000Y-97220000D01*
X127532000Y-97220000D02*
X127532000Y-96020000D01*
X121068628Y-96941421D02*
X121351470Y-97224263D01*
X125732000Y-96020000D02*
X125732000Y-97220000D01*
X121775734Y-96800000D02*
X121775735Y-96800000D01*
X125132000Y-97220000D02*
X125132000Y-96020000D01*
X124532000Y-96020000D02*
X124532000Y-97220000D01*
X123932000Y-97220000D02*
X123932000Y-96020000D01*
X121775735Y-96800000D02*
X121492892Y-96517157D01*
X121351470Y-97224263D02*
X122058578Y-97931372D01*
X121634314Y-98355636D02*
X121139340Y-97860662D01*
X121139340Y-97860662D02*
X120644364Y-97365686D01*
X120200000Y-98800000D02*
X120200000Y-102662500D01*
%TO.N,A3*%
X127800000Y-101500000D02*
X127100000Y-101500000D01*
X127875000Y-101500000D02*
X127800000Y-101500000D01*
X127500000Y-100900000D02*
X127875000Y-100900000D01*
X127100000Y-103300000D02*
X127800000Y-103300000D01*
X127800000Y-99685000D02*
X127800000Y-100000000D01*
X129700000Y-97785000D02*
X127800000Y-99685000D01*
X127100000Y-102100000D02*
G75*
G02*
X126800000Y-101800000I0J300000D01*
G01*
X127950000Y-103375000D02*
X127950000Y-103825000D01*
X131298000Y-97785000D02*
X129700000Y-97785000D01*
X126492000Y-108400000D02*
X126492000Y-100584000D01*
X127875000Y-102700000D02*
X127800000Y-102700000D01*
X127800000Y-104800000D02*
G75*
G03*
X127500000Y-104500000I-300000J0D01*
G01*
X127100000Y-104500000D02*
G75*
G02*
X126800000Y-104200000I0J300000D01*
G01*
X127100000Y-102100000D02*
X127800000Y-102100000D01*
X127100000Y-100900000D02*
X127500000Y-100900000D01*
X126800000Y-104200000D02*
G75*
G02*
X127100000Y-103900000I300000J0D01*
G01*
X126792000Y-108700000D02*
X126492000Y-108400000D01*
X127500000Y-100300000D02*
G75*
G03*
X127800000Y-100000000I0J300000D01*
G01*
X126800000Y-101800000D02*
G75*
G02*
X127100000Y-101500000I300000J0D01*
G01*
X127950000Y-100975000D02*
X127950000Y-101425000D01*
X127950000Y-103375000D02*
G75*
G03*
X127875000Y-103300000I-75000J0D01*
G01*
X127500000Y-100300000D02*
X127100000Y-100300000D01*
X127800000Y-103300000D02*
X127875000Y-103300000D01*
X127875000Y-103900000D02*
G75*
G03*
X127950000Y-103825000I0J75000D01*
G01*
X127100000Y-100900000D02*
G75*
G02*
X126800000Y-100600000I0J300000D01*
G01*
X126800000Y-100600000D02*
G75*
G02*
X127100000Y-100300000I300000J0D01*
G01*
X126800000Y-103000000D02*
G75*
G02*
X127100000Y-102700000I300000J0D01*
G01*
X127875000Y-101500000D02*
G75*
G03*
X127950000Y-101425000I0J75000D01*
G01*
X127950000Y-102175000D02*
X127950000Y-102625000D01*
X125476000Y-99568000D02*
X121920000Y-99568000D01*
X127950000Y-102175000D02*
G75*
G03*
X127875000Y-102100000I-75000J0D01*
G01*
X127800000Y-102100000D02*
X127875000Y-102100000D01*
X126492000Y-100584000D02*
X125476000Y-99568000D01*
X127875000Y-102700000D02*
G75*
G03*
X127950000Y-102625000I0J75000D01*
G01*
X127950000Y-100975000D02*
G75*
G03*
X127875000Y-100900000I-75000J0D01*
G01*
X127100000Y-103300000D02*
G75*
G02*
X126800000Y-103000000I0J300000D01*
G01*
X127800000Y-102700000D02*
X127100000Y-102700000D01*
X127875000Y-103900000D02*
X127800000Y-103900000D01*
X127800000Y-103900000D02*
X127100000Y-103900000D01*
X127100000Y-104500000D02*
X127500000Y-104500000D01*
X127800000Y-104800000D02*
X127800000Y-105297371D01*
X127800000Y-105297371D02*
X127800000Y-108425000D01*
X127800000Y-108425000D02*
X127525000Y-108700000D01*
X121920000Y-99568000D02*
X121000000Y-100488000D01*
X127525000Y-108700000D02*
X126792000Y-108700000D01*
X121000000Y-100488000D02*
X121000000Y-102662500D01*
%TO.N,A2*%
X126000000Y-110800000D02*
X125730000Y-110530000D01*
X128400000Y-100200000D02*
X128400000Y-109000000D01*
X126750000Y-110800000D02*
X126550000Y-110800000D01*
X128400000Y-110250000D02*
X128400000Y-110600000D01*
X124968000Y-100584000D02*
X122428000Y-100584000D01*
X128400000Y-110200000D02*
X128400000Y-110250000D01*
X126550000Y-110800000D02*
X126000000Y-110800000D01*
X126730000Y-109480000D02*
G75*
G02*
X126430000Y-109780000I-300000J0D01*
G01*
X129540000Y-99060000D02*
X128400000Y-100200000D01*
X127400000Y-109600000D02*
G75*
G02*
X127700000Y-109300000I300000J0D01*
G01*
X128200000Y-110800000D02*
X127750000Y-110800000D01*
X132573000Y-99060000D02*
X129540000Y-99060000D01*
X125430000Y-110230000D02*
X125430000Y-109930000D01*
X125730000Y-108880000D02*
G75*
G03*
X126030000Y-109180000I300000J0D01*
G01*
X128100000Y-109300000D02*
X127700000Y-109300000D01*
X125580000Y-109780000D02*
G75*
G03*
X125430000Y-109930000I0J-150000D01*
G01*
X127700000Y-109900000D02*
G75*
G02*
X127400000Y-109600000I0J300000D01*
G01*
X127350000Y-111200000D02*
X127150000Y-111200000D01*
X128400000Y-110200000D02*
G75*
G03*
X128100000Y-109900000I-300000J0D01*
G01*
X121800000Y-101212000D02*
X121800000Y-102662500D01*
X128400000Y-110600000D02*
X128200000Y-110800000D01*
X133838000Y-100325000D02*
X132573000Y-99060000D01*
X127550000Y-111000000D02*
G75*
G02*
X127750000Y-110800000I200000J0D01*
G01*
X127700000Y-109900000D02*
X128100000Y-109900000D01*
X127350000Y-111200000D02*
G75*
G03*
X127550000Y-111000000I0J200000D01*
G01*
X126950000Y-111000000D02*
G75*
G03*
X127150000Y-111200000I200000J0D01*
G01*
X125580000Y-110380000D02*
G75*
G02*
X125730000Y-110530000I0J-150000D01*
G01*
X126750000Y-110800000D02*
G75*
G02*
X126950000Y-111000000I0J-200000D01*
G01*
X125430000Y-110230000D02*
G75*
G03*
X125580000Y-110380000I150000J0D01*
G01*
X128100000Y-109300000D02*
G75*
G03*
X128400000Y-109000000I0J300000D01*
G01*
X125580000Y-109780000D02*
X125730000Y-109780000D01*
X126430000Y-109180000D02*
G75*
G02*
X126730000Y-109480000I0J-300000D01*
G01*
X125730000Y-109780000D02*
X126430000Y-109780000D01*
X126430000Y-109180000D02*
X126030000Y-109180000D01*
X125730000Y-108880000D02*
X125730000Y-108352302D01*
X122428000Y-100584000D02*
X121800000Y-101212000D01*
X125730000Y-108352302D02*
X125730000Y-101346000D01*
X125730000Y-101346000D02*
X124968000Y-100584000D01*
%TO.N,A1*%
X124968000Y-111768000D02*
X124968000Y-106228000D01*
X126625000Y-112200000D02*
X126420893Y-112200000D01*
X127500000Y-112600000D02*
G75*
G03*
X127800000Y-112900000I300000J0D01*
G01*
X125268000Y-103978000D02*
X125268000Y-103678000D01*
X129000000Y-111800000D02*
X128600000Y-112200000D01*
X125118000Y-103528000D02*
G75*
G02*
X125268000Y-103678000I0J-150000D01*
G01*
X131298000Y-100325000D02*
X129475000Y-100325000D01*
X124668000Y-105928000D02*
X124268000Y-105928000D01*
X124968000Y-103378000D02*
G75*
G03*
X125118000Y-103528000I150000J0D01*
G01*
X125400000Y-112200000D02*
X124968000Y-111768000D01*
X127225000Y-111650000D02*
X127175000Y-111650000D01*
X129475000Y-100325000D02*
X129000000Y-100800000D01*
X129000000Y-100800000D02*
X129000000Y-111800000D01*
X125268000Y-103978000D02*
G75*
G02*
X125118000Y-104128000I-150000J0D01*
G01*
X128100000Y-112500000D02*
X128100000Y-112600000D01*
X124460000Y-101346000D02*
X122936000Y-101346000D01*
X128100000Y-112500000D02*
G75*
G02*
X128400000Y-112200000I300000J0D01*
G01*
X126420893Y-112200000D02*
X125400000Y-112200000D01*
X122600000Y-101682000D02*
X122600000Y-102662500D01*
X126900000Y-111925000D02*
G75*
G02*
X127175000Y-111650000I275000J0D01*
G01*
X126625000Y-112200000D02*
G75*
G03*
X126900000Y-111925000I0J275000D01*
G01*
X124268000Y-104128000D02*
G75*
G03*
X123968000Y-104428000I0J-300000D01*
G01*
X125118000Y-104728000D02*
G75*
G02*
X125268000Y-104878000I0J-150000D01*
G01*
X124268000Y-105328000D02*
X125118000Y-105328000D01*
X127225000Y-111650000D02*
G75*
G02*
X127500000Y-111925000I0J-275000D01*
G01*
X127500000Y-112600000D02*
X127500000Y-112500000D01*
X123968000Y-105628000D02*
G75*
G03*
X124268000Y-105928000I300000J0D01*
G01*
X122936000Y-101346000D02*
X122600000Y-101682000D01*
X127800000Y-112900000D02*
G75*
G03*
X128100000Y-112600000I0J300000D01*
G01*
X124668000Y-105928000D02*
G75*
G02*
X124968000Y-106228000I0J-300000D01*
G01*
X124268000Y-105328000D02*
G75*
G03*
X123968000Y-105628000I0J-300000D01*
G01*
X124268000Y-104128000D02*
X125118000Y-104128000D01*
X125268000Y-105178000D02*
G75*
G02*
X125118000Y-105328000I-150000J0D01*
G01*
X123968000Y-104428000D02*
G75*
G03*
X124268000Y-104728000I300000J0D01*
G01*
X127500000Y-112500000D02*
X127500000Y-111925000D01*
X128600000Y-112200000D02*
X128400000Y-112200000D01*
X125268000Y-105178000D02*
X125268000Y-104878000D01*
X125118000Y-104728000D02*
X124268000Y-104728000D01*
X124968000Y-103378000D02*
X124968000Y-101854000D01*
X124968000Y-101854000D02*
X124460000Y-101346000D01*
%TO.N,A0*%
X123400000Y-111208000D02*
X123400000Y-109430000D01*
X132563000Y-104140000D02*
X129860000Y-104140000D01*
X125392000Y-113200000D02*
X123400000Y-111208000D01*
X127150000Y-113200000D02*
X125392000Y-113200000D01*
X127200000Y-113200000D02*
X127150000Y-113200000D01*
X127800000Y-114200000D02*
G75*
G03*
X128100000Y-113900000I0J300000D01*
G01*
X127500000Y-113900000D02*
X127500000Y-113500000D01*
X122700000Y-107330000D02*
X123850000Y-107330000D01*
X128100000Y-113500000D02*
X128100000Y-113900000D01*
X123400000Y-105830000D02*
G75*
G02*
X123100000Y-106130000I-300000J0D01*
G01*
X127200000Y-113200000D02*
G75*
G02*
X127500000Y-113500000I0J-300000D01*
G01*
X129860000Y-104140000D02*
X129600000Y-104400000D01*
X122400000Y-108830000D02*
G75*
G03*
X122700000Y-109130000I300000J0D01*
G01*
X122400000Y-106430000D02*
G75*
G03*
X122700000Y-106730000I300000J0D01*
G01*
X128600000Y-113200000D02*
X128400000Y-113200000D01*
X128100000Y-113500000D02*
G75*
G02*
X128400000Y-113200000I300000J0D01*
G01*
X123100000Y-109130000D02*
G75*
G02*
X123400000Y-109430000I0J-300000D01*
G01*
X123100000Y-109130000D02*
X122700000Y-109130000D01*
X129600000Y-112200000D02*
X128600000Y-113200000D01*
X124150000Y-107030000D02*
G75*
G02*
X123850000Y-107330000I-300000J0D01*
G01*
X124150000Y-108230000D02*
G75*
G02*
X123850000Y-108530000I-300000J0D01*
G01*
X127500000Y-113900000D02*
G75*
G03*
X127800000Y-114200000I300000J0D01*
G01*
X122700000Y-106130000D02*
X123100000Y-106130000D01*
X129600000Y-104400000D02*
X129600000Y-112200000D01*
X122700000Y-106130000D02*
G75*
G03*
X122400000Y-106430000I0J-300000D01*
G01*
X122700000Y-108530000D02*
G75*
G03*
X122400000Y-108830000I0J-300000D01*
G01*
X133838000Y-102865000D02*
X132563000Y-104140000D01*
X123850000Y-107930000D02*
G75*
G02*
X124150000Y-108230000I0J-300000D01*
G01*
X123850000Y-106730000D02*
G75*
G02*
X124150000Y-107030000I0J-300000D01*
G01*
X122400000Y-107630000D02*
G75*
G03*
X122700000Y-107930000I300000J0D01*
G01*
X122700000Y-107330000D02*
G75*
G03*
X122400000Y-107630000I0J-300000D01*
G01*
X122700000Y-108530000D02*
X123850000Y-108530000D01*
X123850000Y-107930000D02*
X122700000Y-107930000D01*
X123850000Y-106730000D02*
X122700000Y-106730000D01*
X123400000Y-105830000D02*
X123400000Y-102662500D01*
%TO.N,A17*%
X127236000Y-122636000D02*
X127236000Y-122236000D01*
X124952000Y-116678000D02*
G75*
G02*
X124652000Y-116978000I-300000J0D01*
G01*
X132573000Y-116840000D02*
X129360000Y-116840000D01*
X124652000Y-116378000D02*
G75*
G02*
X124952000Y-116678000I0J-300000D01*
G01*
X127762000Y-122936000D02*
X127536000Y-122936000D01*
X129360000Y-116840000D02*
X128400000Y-117800000D01*
X123352000Y-116978000D02*
G75*
G03*
X123052000Y-117278000I0J-300000D01*
G01*
X123952000Y-116078000D02*
G75*
G03*
X124252000Y-116378000I300000J0D01*
G01*
X124652000Y-117578000D02*
G75*
G02*
X124952000Y-117878000I0J-300000D01*
G01*
X124952000Y-120278000D02*
G75*
G02*
X124652000Y-120578000I-300000J0D01*
G01*
X123352000Y-116978000D02*
X124652000Y-116978000D01*
X124952000Y-117878000D02*
G75*
G02*
X124652000Y-118178000I-300000J0D01*
G01*
X123352000Y-118178000D02*
G75*
G03*
X123052000Y-118478000I0J-300000D01*
G01*
X123052000Y-118478000D02*
G75*
G03*
X123352000Y-118778000I300000J0D01*
G01*
X124652000Y-118778000D02*
G75*
G02*
X124952000Y-119078000I0J-300000D01*
G01*
X133838000Y-118105000D02*
X132573000Y-116840000D01*
X127236000Y-122636000D02*
G75*
G03*
X127536000Y-122936000I300000J0D01*
G01*
X126636000Y-122236000D02*
G75*
G02*
X126936000Y-121936000I300000J0D01*
G01*
X123352000Y-119378000D02*
G75*
G03*
X123052000Y-119678000I0J-300000D01*
G01*
X128400000Y-117800000D02*
X128400000Y-122298000D01*
X123052000Y-119678000D02*
G75*
G03*
X123352000Y-119978000I300000J0D01*
G01*
X126936000Y-121936000D02*
G75*
G02*
X127236000Y-122236000I0J-300000D01*
G01*
X128400000Y-122298000D02*
X127762000Y-122936000D01*
X126336000Y-122936000D02*
G75*
G03*
X126636000Y-122636000I0J300000D01*
G01*
X123652000Y-121178000D02*
G75*
G02*
X123952000Y-121478000I0J-300000D01*
G01*
X123952000Y-116078000D02*
X123952000Y-114389500D01*
X124952000Y-119078000D02*
G75*
G02*
X124652000Y-119378000I-300000J0D01*
G01*
X124652000Y-119978000D02*
G75*
G02*
X124952000Y-120278000I0J-300000D01*
G01*
X123052000Y-120878000D02*
G75*
G03*
X123352000Y-121178000I300000J0D01*
G01*
X124652000Y-116378000D02*
X124252000Y-116378000D01*
X123052000Y-117278000D02*
G75*
G03*
X123352000Y-117578000I300000J0D01*
G01*
X123352000Y-120578000D02*
G75*
G03*
X123052000Y-120878000I0J-300000D01*
G01*
X124652000Y-119978000D02*
X123352000Y-119978000D01*
X126636000Y-122236000D02*
X126636000Y-122636000D01*
X126336000Y-122936000D02*
X126286000Y-122936000D01*
X126286000Y-122936000D02*
X124460000Y-122936000D01*
X123652000Y-121178000D02*
X123352000Y-121178000D01*
X124460000Y-122936000D02*
X123952000Y-122428000D01*
X123952000Y-122428000D02*
X123952000Y-121478000D01*
X123352000Y-120578000D02*
X124652000Y-120578000D01*
X123352000Y-119378000D02*
X124652000Y-119378000D01*
X124652000Y-118778000D02*
X123352000Y-118778000D01*
X123352000Y-118178000D02*
X124652000Y-118178000D01*
X124652000Y-117578000D02*
X123352000Y-117578000D01*
X123952000Y-114389500D02*
X123400000Y-113837500D01*
%TO.N,A16*%
X125800000Y-127000000D02*
X125215018Y-127000000D01*
X123190000Y-127000000D02*
X122597018Y-126407018D01*
X126700000Y-126300000D02*
X126700000Y-126700000D01*
X130095919Y-118105000D02*
X129000000Y-119200919D01*
X122250000Y-122692000D02*
G75*
G03*
X122425000Y-122867000I175000J0D01*
G01*
X122425000Y-125267003D02*
G75*
G02*
X122597017Y-125395908I-2600J-182697D01*
G01*
X128270000Y-127000000D02*
X127600000Y-127000000D01*
X127300000Y-126700000D02*
X127300000Y-126300000D01*
X129000000Y-126270000D02*
X128270000Y-127000000D01*
X125800000Y-127000000D02*
G75*
G02*
X126100000Y-127300000I0J-300000D01*
G01*
X122600000Y-122092000D02*
G75*
G02*
X122425000Y-122267000I-175000J0D01*
G01*
X122425000Y-122267000D02*
G75*
G03*
X122250000Y-122442000I0J-175000D01*
G01*
X127300000Y-126700000D02*
G75*
G03*
X127600000Y-127000000I300000J0D01*
G01*
X125215018Y-127000000D02*
X123190000Y-127000000D01*
X123300000Y-122867000D02*
G75*
G02*
X123600000Y-123167000I0J-300000D01*
G01*
X122425000Y-124667000D02*
X123300000Y-124667000D01*
X122425000Y-123467000D02*
X123300000Y-123467000D01*
X123600000Y-123167000D02*
G75*
G02*
X123300000Y-123467000I-300000J0D01*
G01*
X122250000Y-123892000D02*
G75*
G03*
X122425000Y-124067000I175000J0D01*
G01*
X122425000Y-124667000D02*
G75*
G03*
X122250000Y-124842000I0J-175000D01*
G01*
X127000000Y-126000000D02*
G75*
G02*
X127300000Y-126300000I0J-300000D01*
G01*
X131298000Y-118105000D02*
X130095919Y-118105000D01*
X122250000Y-123892000D02*
X122250000Y-123642000D01*
X126700000Y-126300000D02*
G75*
G02*
X127000000Y-126000000I300000J0D01*
G01*
X126400000Y-128000000D02*
G75*
G03*
X126700000Y-127700000I0J300000D01*
G01*
X126700000Y-126700000D02*
X126700000Y-127700000D01*
X122425000Y-123467000D02*
G75*
G03*
X122250000Y-123642000I0J-175000D01*
G01*
X126100000Y-127700000D02*
X126100000Y-127300000D01*
X123300000Y-124067000D02*
G75*
G02*
X123600000Y-124367000I0J-300000D01*
G01*
X126100000Y-127700000D02*
G75*
G03*
X126400000Y-128000000I300000J0D01*
G01*
X122250000Y-125092000D02*
G75*
G03*
X122425000Y-125267000I175000J0D01*
G01*
X122250000Y-125092000D02*
X122250000Y-124842000D01*
X129000000Y-119200919D02*
X129000000Y-126270000D01*
X123600000Y-124367000D02*
G75*
G02*
X123300000Y-124667000I-300000J0D01*
G01*
X122597018Y-126407018D02*
X122597018Y-125395908D01*
X123300000Y-124067000D02*
X122425000Y-124067000D01*
X123300000Y-122867000D02*
X122425000Y-122867000D01*
X122250000Y-122692000D02*
X122250000Y-122442000D01*
X122600000Y-122092000D02*
X122600000Y-113837500D01*
%TO.N,A15*%
X126106000Y-129094000D02*
X126106000Y-129494000D01*
X129600000Y-120000000D02*
X129600000Y-128718000D01*
X132573000Y-119380000D02*
X130220000Y-119380000D01*
X126706000Y-129494000D02*
X126706000Y-129094000D01*
X129600000Y-128718000D02*
X128524000Y-129794000D01*
X133838000Y-120645000D02*
X132573000Y-119380000D01*
X125806000Y-129794000D02*
G75*
G03*
X126106000Y-129494000I0J300000D01*
G01*
X126106000Y-129094000D02*
G75*
G02*
X126406000Y-128794000I300000J0D01*
G01*
X130220000Y-119380000D02*
X129600000Y-120000000D01*
X125806000Y-129794000D02*
X125756000Y-129794000D01*
X126406000Y-128794000D02*
G75*
G02*
X126706000Y-129094000I0J-300000D01*
G01*
X128524000Y-129794000D02*
X127006000Y-129794000D01*
X126706000Y-129494000D02*
G75*
G03*
X127006000Y-129794000I300000J0D01*
G01*
X125756000Y-129794000D02*
X123594000Y-129794000D01*
X121800000Y-128000000D02*
X121800000Y-113837500D01*
X123594000Y-129794000D02*
X121800000Y-128000000D01*
%TO.N,A13*%
X133838000Y-133345000D02*
X132573000Y-132080000D01*
X125580000Y-131580000D02*
X125580000Y-131780000D01*
X125280000Y-132080000D02*
G75*
G03*
X125580000Y-131780000I0J300000D01*
G01*
X126180000Y-132380000D02*
X126180000Y-131580000D01*
X125880000Y-131280000D02*
G75*
G02*
X126180000Y-131580000I0J-300000D01*
G01*
X132573000Y-132080000D02*
X127080000Y-132080000D01*
X126180000Y-132580000D02*
G75*
G03*
X126480000Y-132880000I300000J0D01*
G01*
X125280000Y-132080000D02*
X124860310Y-132080000D01*
X126780000Y-132380000D02*
X126780000Y-132580000D01*
X126480000Y-132880000D02*
G75*
G03*
X126780000Y-132580000I0J300000D01*
G01*
X126180000Y-132580000D02*
X126180000Y-132380000D01*
X122280000Y-132080000D02*
X109000000Y-118800000D01*
X125580000Y-131580000D02*
G75*
G02*
X125880000Y-131280000I300000J0D01*
G01*
X126780000Y-132380000D02*
G75*
G02*
X127080000Y-132080000I300000J0D01*
G01*
X124860310Y-132080000D02*
X122280000Y-132080000D01*
X109000000Y-118800000D02*
X109000000Y-113837500D01*
%TO.N,A12*%
X127845000Y-132845000D02*
X127845000Y-133345000D01*
X128745000Y-134145000D02*
G75*
G03*
X129045000Y-133845000I0J300000D01*
G01*
X128445000Y-133645000D02*
X128445000Y-132845000D01*
X108200000Y-119400000D02*
X108200000Y-113837500D01*
X129045000Y-133645000D02*
X129045000Y-133845000D01*
X131298000Y-133345000D02*
X129345000Y-133345000D01*
X127545000Y-134145000D02*
G75*
G03*
X127845000Y-133845000I0J300000D01*
G01*
X126945000Y-133345000D02*
G75*
G02*
X127245000Y-133645000I0J-300000D01*
G01*
X128445000Y-133845000D02*
X128445000Y-133645000D01*
X127245000Y-133845000D02*
G75*
G03*
X127545000Y-134145000I300000J0D01*
G01*
X127845000Y-132845000D02*
G75*
G02*
X128145000Y-132545000I300000J0D01*
G01*
X126945000Y-133345000D02*
X126367819Y-133345000D01*
X128145000Y-132545000D02*
G75*
G02*
X128445000Y-132845000I0J-300000D01*
G01*
X128445000Y-133845000D02*
G75*
G03*
X128745000Y-134145000I300000J0D01*
G01*
X129045000Y-133645000D02*
G75*
G02*
X129345000Y-133345000I300000J0D01*
G01*
X127845000Y-133345000D02*
X127845000Y-133845000D01*
X127245000Y-133845000D02*
X127245000Y-133645000D01*
X126367819Y-133345000D02*
X122145000Y-133345000D01*
X122145000Y-133345000D02*
X108200000Y-119400000D01*
%TO.N,GND*%
X114800000Y-118258500D02*
X114600000Y-118458500D01*
X108600000Y-77000000D02*
X108525000Y-77075000D01*
D28*
X115400000Y-113837500D02*
X115400000Y-112400000D01*
D27*
X114600000Y-102662500D02*
X114600000Y-101600000D01*
D28*
X114600000Y-118458500D02*
X114600000Y-119800000D01*
D27*
X108525000Y-77075000D02*
X106410000Y-77075000D01*
X115697000Y-71800000D02*
X115635000Y-71862000D01*
X115391500Y-98171000D02*
X115400000Y-98162500D01*
D28*
X114000000Y-98171000D02*
X115391500Y-98171000D01*
X115400000Y-112400000D02*
X116000000Y-111800000D01*
D27*
X115635000Y-71862000D02*
X115635000Y-73750000D01*
X114600000Y-101600000D02*
X114000000Y-101000000D01*
%TO.N,3v3*%
X108600000Y-89400000D02*
X110800000Y-89400000D01*
X113284000Y-69358000D02*
X110998000Y-69358000D01*
X114800000Y-116183500D02*
X114600000Y-115983500D01*
X113300000Y-69342000D02*
X113284000Y-69358000D01*
X107000000Y-89400000D02*
X108600000Y-89400000D01*
D28*
X114600000Y-113837500D02*
X114600000Y-112400000D01*
D27*
X115437500Y-100200000D02*
X115400000Y-100237500D01*
D28*
X115400000Y-102662500D02*
X115400000Y-100237500D01*
D27*
X110998000Y-69358000D02*
X108712000Y-69358000D01*
X106410000Y-79275000D02*
X106383000Y-79248000D01*
D28*
X117000000Y-100200000D02*
X115437500Y-100200000D01*
D27*
X106383000Y-79248000D02*
X104648000Y-79248000D01*
D28*
X114600000Y-112400000D02*
X114000000Y-111800000D01*
D27*
X114800000Y-69342000D02*
X113300000Y-69342000D01*
D28*
X114600000Y-115983500D02*
X114600000Y-113837500D01*
D27*
%TO.N,A10*%
X106600000Y-120600000D02*
X106600000Y-113837500D01*
X131298000Y-135885000D02*
X121885000Y-135885000D01*
X121885000Y-135885000D02*
X106600000Y-120600000D01*
%TO.N,A11*%
X122020000Y-134620000D02*
X132573000Y-134620000D01*
X107400000Y-120000000D02*
X122020000Y-134620000D01*
X132573000Y-134620000D02*
X133838000Y-135885000D01*
X107400000Y-113837500D02*
X107400000Y-120000000D01*
%TO.N,A14*%
X118467577Y-125877627D02*
X118467577Y-125877628D01*
X117371559Y-126125112D02*
X117548336Y-125948336D01*
X117442271Y-126549378D02*
X117442270Y-126549377D01*
X117619045Y-125029096D02*
X117619045Y-125029097D01*
X116699804Y-125099804D02*
X117194778Y-124604829D01*
X118608999Y-126584735D02*
X118609000Y-126584735D01*
X116063406Y-124463407D02*
X115839561Y-124239561D01*
X116523027Y-125276580D02*
X116699804Y-125099804D01*
X116770513Y-124180564D02*
X116770513Y-124180565D01*
X116593738Y-125700845D02*
X116523027Y-125630134D01*
X117619045Y-125029097D02*
X116947292Y-125700845D01*
X122405000Y-130805000D02*
X118609000Y-127009000D01*
X116770513Y-124180565D02*
X116487670Y-124463407D01*
X118467577Y-125877628D02*
X117795824Y-126549377D01*
X117548336Y-125948336D02*
X118043310Y-125453361D01*
X118609000Y-126584735D02*
X118891842Y-126301892D01*
X116593739Y-125700846D02*
X116593738Y-125700845D01*
X115839561Y-124239561D02*
X109800000Y-118200000D01*
X109800000Y-118200000D02*
X109800000Y-113837500D01*
X117442270Y-126549377D02*
X117371559Y-126478666D01*
X131298000Y-130805000D02*
X122405000Y-130805000D01*
X116770468Y-124180519D02*
G75*
G02*
X117194778Y-124180565I212132J-212181D01*
G01*
X117371570Y-126125123D02*
G75*
G03*
X117371559Y-126478666I176730J-176777D01*
G01*
X118609032Y-126584769D02*
G75*
G03*
X118609000Y-127009000I212068J-212131D01*
G01*
X116593724Y-125700861D02*
G75*
G03*
X116947292Y-125700845I176776J176761D01*
G01*
X118891801Y-125877669D02*
G75*
G02*
X118891841Y-126301891I-212101J-212131D01*
G01*
X118043338Y-125029069D02*
G75*
G02*
X118043309Y-125453360I-212138J-212131D01*
G01*
X117194775Y-124180568D02*
G75*
G02*
X117194778Y-124604829I-212175J-212132D01*
G01*
X116523070Y-125276623D02*
G75*
G03*
X116523027Y-125630134I176730J-176777D01*
G01*
X117619069Y-125029120D02*
G75*
G02*
X118043309Y-125029098I212131J-212080D01*
G01*
X117442224Y-126549425D02*
G75*
G03*
X117795824Y-126549377I176776J176825D01*
G01*
X118467568Y-125877618D02*
G75*
G02*
X118891842Y-125877628I212132J-212182D01*
G01*
X116063407Y-124463406D02*
G75*
G03*
X116487669Y-124463406I212131J212131D01*
G01*
%TO.N,D0*%
X118600000Y-101000000D02*
X118600000Y-102662500D01*
%TO.N,D1*%
X117800000Y-104800000D02*
X117800000Y-102662500D01*
%TO.N,D2*%
X117000000Y-104000000D02*
X117000000Y-102662500D01*
%TO.N,D3*%
X116200000Y-104800000D02*
X116200000Y-102662500D01*
%TO.N,D4*%
X113800000Y-104800000D02*
X113800000Y-102662500D01*
%TO.N,D5*%
X113000000Y-104000000D02*
X113000000Y-102662500D01*
%TO.N,D6*%
X112200000Y-104800000D02*
X112200000Y-102662500D01*
%TO.N,D7*%
X111400000Y-104000000D02*
X111400000Y-102662500D01*
%TO.N,D8*%
X110800000Y-116400000D02*
X110800000Y-115400000D01*
X110800000Y-115400000D02*
X111400000Y-114800000D01*
X111400000Y-114800000D02*
X111400000Y-113837500D01*
%TO.N,D9*%
X111600000Y-115800000D02*
X111600000Y-115600000D01*
X111600000Y-115600000D02*
X112200000Y-115000000D01*
X112200000Y-115000000D02*
X112200000Y-113837500D01*
%TO.N,D10*%
X112400000Y-116400000D02*
X112400000Y-115574695D01*
X112400000Y-115574695D02*
X113000000Y-114974695D01*
X113000000Y-114974695D02*
X113000000Y-113837500D01*
%TO.N,D11*%
X113800000Y-115200000D02*
X113800000Y-113837500D01*
X113200000Y-115800000D02*
X113800000Y-115200000D01*
%TO.N,D12*%
X116200000Y-115600000D02*
X116200000Y-113837500D01*
%TO.N,D13*%
X117000000Y-116400000D02*
X117000000Y-113837500D01*
%TO.N,D14*%
X117800000Y-115600000D02*
X117800000Y-113837500D01*
%TO.N,D15*%
X118600000Y-116400000D02*
X118600000Y-113837500D01*
%TO.N,CE_N*%
X119400000Y-97400000D02*
X121555000Y-95245000D01*
X121555000Y-95245000D02*
X131298000Y-95245000D01*
X119400000Y-102662500D02*
X119400000Y-97400000D01*
%TO.N,WE_N*%
X132573000Y-93980000D02*
X133838000Y-95245000D01*
X110600000Y-98800000D02*
X115420000Y-93980000D01*
X115420000Y-93980000D02*
X132573000Y-93980000D01*
X110600000Y-102662500D02*
X110600000Y-98800000D01*
%TO.N,OE_N*%
X121000000Y-113837500D02*
X121000000Y-111800000D01*
%TO.N,UB_N*%
X120200000Y-113837500D02*
X120200000Y-112400000D01*
%TO.N,LB_N*%
X119400000Y-113837500D02*
X119400000Y-111800000D01*
%TO.N,PWM_L*%
X142870000Y-80005000D02*
X144145000Y-81280000D01*
X144145000Y-81280000D02*
X144145000Y-82548269D01*
X133838000Y-80005000D02*
X142870000Y-80005000D01*
%TO.N,PWM_R*%
X135260000Y-82545000D02*
X135263269Y-82548269D01*
X135263269Y-82548269D02*
X140335000Y-82548269D01*
X133838000Y-82545000D02*
X135260000Y-82545000D01*
%TO.N,SD_DAT3*%
X108600000Y-81475000D02*
X110800000Y-83675000D01*
X106410000Y-81475000D02*
X108600000Y-81475000D01*
X110800000Y-83675000D02*
X110800000Y-87400000D01*
%TO.N,SD_CMD*%
X108600000Y-80400000D02*
X108575000Y-80375000D01*
X108575000Y-80375000D02*
X106410000Y-80375000D01*
X111160000Y-74378222D02*
X113284000Y-72254222D01*
X111160000Y-77689000D02*
X111160000Y-74378222D01*
X113284000Y-72254222D02*
X113284000Y-71358000D01*
X108600000Y-80400000D02*
X108600000Y-80249000D01*
X108600000Y-80249000D02*
X111160000Y-77689000D01*
%TO.N,SD_CLK*%
X108600000Y-78200000D02*
X108575000Y-78175000D01*
X108575000Y-78175000D02*
X106410000Y-78175000D01*
%TO.N,SD_DAT0*%
X110000000Y-74000000D02*
X110998000Y-73002000D01*
X109054000Y-75946000D02*
X110000000Y-75000000D01*
X108571000Y-75975000D02*
X106410000Y-75975000D01*
X108600000Y-75946000D02*
X108571000Y-75975000D01*
X108600000Y-75946000D02*
X109054000Y-75946000D01*
X110000000Y-75000000D02*
X110000000Y-74000000D01*
X110998000Y-73002000D02*
X110998000Y-71358000D01*
%TO.N,SD_DAT1*%
X106465000Y-74930000D02*
X106410000Y-74875000D01*
X108600000Y-74930000D02*
X108712000Y-74818000D01*
X108712000Y-74818000D02*
X108712000Y-71358000D01*
X108600000Y-74930000D02*
X106465000Y-74930000D01*
%TO.N,SD_DAT2*%
X108600000Y-82600000D02*
X108600000Y-87400000D01*
X108600000Y-82600000D02*
X106435000Y-82600000D01*
X106435000Y-82600000D02*
X106410000Y-82575000D01*
%TO.N,RX*%
X140975000Y-77465000D02*
X142240000Y-76200000D01*
X133838000Y-77465000D02*
X140975000Y-77465000D01*
X142240000Y-76200000D02*
X142240000Y-74930000D01*
%TO.N,TX*%
X131298000Y-77465000D02*
X132563000Y-76200000D01*
X139065000Y-76200000D02*
X139700000Y-75565000D01*
X132563000Y-76200000D02*
X139065000Y-76200000D01*
X139700000Y-75565000D02*
X139700000Y-74930000D01*
%TO.N,Net-(C3-Pad1)*%
X146070000Y-87823269D02*
X145435000Y-87188269D01*
X146070000Y-91438269D02*
X146070000Y-87823269D01*
X144145000Y-84548269D02*
X144145000Y-87188269D01*
X144145000Y-87188269D02*
X145435000Y-87188269D01*
X146070000Y-91438269D02*
X145435000Y-92073269D01*
X145435000Y-92073269D02*
X144145000Y-92073269D01*
D29*
%TO.N,Net-(C3-Pad2)*%
X141333269Y-89263269D02*
X142260000Y-90190000D01*
X143700000Y-98958269D02*
X144145000Y-98958269D01*
D27*
X142240000Y-97498269D02*
X142260000Y-97518269D01*
D29*
X144145000Y-89263269D02*
X143146731Y-89263269D01*
X142260000Y-97518269D02*
X143700000Y-98958269D01*
X142240000Y-90170000D02*
X142240000Y-97498269D01*
X143146731Y-89263269D02*
X142240000Y-90170000D01*
X142260000Y-90190000D02*
X142260000Y-97518269D01*
X140335000Y-89263269D02*
X141333269Y-89263269D01*
X140335000Y-98958269D02*
X140820000Y-98958269D01*
X140820000Y-98958269D02*
X142260000Y-97518269D01*
D27*
%TO.N,Net-(C4-Pad2)*%
X140335000Y-92073269D02*
X139063269Y-92073269D01*
X138430000Y-87823269D02*
X139065000Y-87188269D01*
X139063269Y-92073269D02*
X138430000Y-91440000D01*
X140335000Y-84548269D02*
X140335000Y-87188269D01*
X139065000Y-87188269D02*
X140335000Y-87188269D01*
X138430000Y-91440000D02*
X138430000Y-87823269D01*
%TO.N,Net-(C5-Pad1)*%
X145415000Y-100965000D02*
X146070000Y-100310000D01*
X146070000Y-100310000D02*
X146070000Y-97518269D01*
X143510000Y-100965000D02*
X145415000Y-100965000D01*
X145435000Y-96883269D02*
X144145000Y-96883269D01*
X142240000Y-102235000D02*
X143510000Y-100965000D01*
X140040000Y-108880000D02*
X142240000Y-106680000D01*
X146070000Y-97518269D02*
X145435000Y-96883269D01*
X140040000Y-112123269D02*
X140040000Y-108880000D01*
X142240000Y-106680000D02*
X142240000Y-102235000D01*
X144145000Y-94073269D02*
X144145000Y-96883269D01*
%TO.N,Net-(C6-Pad2)*%
X139065000Y-100965000D02*
X139700000Y-100965000D01*
X138450000Y-97518269D02*
X138450000Y-100310000D01*
X140040000Y-101305000D02*
X140040000Y-103868269D01*
X140335000Y-94073269D02*
X140335000Y-96883269D01*
X138450000Y-100310000D02*
X139065000Y-100925000D01*
X140335000Y-96883269D02*
X139085000Y-96883269D01*
X139700000Y-100965000D02*
X140040000Y-101305000D01*
X139085000Y-96883269D02*
X138450000Y-97518269D01*
X139065000Y-100925000D02*
X139065000Y-100965000D01*
%TO.N,AUDIO_L*%
X144440000Y-115275000D02*
X142240000Y-117475000D01*
X142240000Y-117475000D02*
X142240000Y-121013269D01*
X144440000Y-112123269D02*
X144440000Y-115275000D01*
%TO.N,AUDIO_R*%
X142240000Y-114935000D02*
X139700000Y-117475000D01*
X144440000Y-103868269D02*
X144440000Y-106385000D01*
X144440000Y-106385000D02*
X142240000Y-108585000D01*
X142240000Y-108585000D02*
X142240000Y-114935000D01*
X139700000Y-117475000D02*
X139700000Y-121013269D01*
%TD*%
M02*
