%TF.GenerationSoftware,KiCad,Pcbnew,6.0.7*%
%TF.CreationDate,2022-09-06T19:52:02+02:00*%
%TF.ProjectId,srambrd,7372616d-6272-4642-9e6b-696361645f70,rev?*%
%TF.SameCoordinates,Original*%
%TF.FileFunction,Legend,Top*%
%TF.FilePolarity,Positive*%
%FSLAX46Y46*%
G04 Gerber Fmt 4.6, Leading zero omitted, Abs format (unit mm)*
G04 Created by KiCad (PCBNEW 6.0.7) date 2022-09-06 19:52:02*
%MOMM*%
%LPD*%
G01*
G04 APERTURE LIST*
%ADD10C,0.357843*%
%ADD11C,0.150000*%
%ADD12C,0.120000*%
G04 APERTURE END LIST*
D10*
X123578921Y-100800000D02*
G75*
G03*
X123578921Y-100800000I-178921J0D01*
G01*
D11*
X107454999Y-123352260D02*
X107791717Y-123688977D01*
X107185625Y-123486947D02*
X108128434Y-123015542D01*
X107657030Y-123958351D01*
X108599839Y-123486947D02*
X108027419Y-124059366D01*
X107993747Y-124160382D01*
X107993747Y-124227725D01*
X108027419Y-124328740D01*
X108162106Y-124463427D01*
X108263121Y-124497099D01*
X108330465Y-124497099D01*
X108431480Y-124463427D01*
X109003900Y-123891008D01*
X109273274Y-124160382D02*
X109037572Y-125338893D01*
X109744678Y-124631786D02*
X108566167Y-124867488D01*
X109845694Y-126147015D02*
X110552800Y-125439908D01*
X110283426Y-126180687D01*
X111024205Y-125911313D01*
X110317098Y-126618419D01*
X110754831Y-127056152D02*
X110721159Y-126955137D01*
X110721159Y-126887793D01*
X110754831Y-126786778D01*
X110956861Y-126584748D01*
X111057877Y-126551076D01*
X111125220Y-126551076D01*
X111226235Y-126584748D01*
X111327251Y-126685763D01*
X111360922Y-126786778D01*
X111360922Y-126854122D01*
X111327251Y-126955137D01*
X111125220Y-127157167D01*
X111024205Y-127190839D01*
X110956861Y-127190839D01*
X110855846Y-127157167D01*
X110754831Y-127056152D01*
X111596625Y-127897946D02*
X112303732Y-127190839D01*
X111630296Y-127864274D02*
X111529281Y-127830602D01*
X111394594Y-127695915D01*
X111360922Y-127594900D01*
X111360922Y-127527557D01*
X111394594Y-127426541D01*
X111596625Y-127224511D01*
X111697640Y-127190839D01*
X111764983Y-127190839D01*
X111865999Y-127224511D01*
X112000686Y-127359198D01*
X112034357Y-127460213D01*
X112707793Y-128066305D02*
X112236388Y-128537709D01*
X112404747Y-127763259D02*
X112034357Y-128133648D01*
X112000686Y-128234664D01*
X112034357Y-128335679D01*
X112135373Y-128436694D01*
X112236388Y-128470366D01*
X112303732Y-128470366D01*
X112674121Y-128975442D02*
X112640449Y-128874427D01*
X112674121Y-128773412D01*
X113280212Y-128167320D01*
X113246541Y-129480518D02*
X113145525Y-129446847D01*
X113010838Y-129312160D01*
X112977167Y-129211144D01*
X113010838Y-129110129D01*
X113280212Y-128840755D01*
X113381228Y-128807083D01*
X113482243Y-128840755D01*
X113616930Y-128975442D01*
X113650602Y-129076457D01*
X113616930Y-129177473D01*
X113549586Y-129244816D01*
X113145525Y-128975442D01*
X114357708Y-130120282D02*
X114896456Y-130659030D01*
X115906609Y-132207930D02*
X116007624Y-131635510D01*
X115502548Y-131803869D02*
X116209655Y-131096762D01*
X116479029Y-131366136D01*
X116512700Y-131467152D01*
X116512700Y-131534495D01*
X116479029Y-131635510D01*
X116378013Y-131736526D01*
X116276998Y-131770197D01*
X116209655Y-131770197D01*
X116108639Y-131736526D01*
X115839265Y-131467152D01*
X116512700Y-132746678D02*
X116411685Y-132713006D01*
X116276998Y-132578319D01*
X116243326Y-132477304D01*
X116276998Y-132376289D01*
X116546372Y-132106915D01*
X116647387Y-132073243D01*
X116748403Y-132106915D01*
X116883090Y-132241602D01*
X116916761Y-132342617D01*
X116883090Y-132443632D01*
X116815746Y-132510976D01*
X116411685Y-132241602D01*
X117219807Y-132578319D02*
X116916761Y-133218083D01*
X117556525Y-132915037D01*
X118499334Y-133521128D02*
X118566677Y-133521128D01*
X118667693Y-133554800D01*
X118836051Y-133723159D01*
X118869723Y-133824174D01*
X118869723Y-133891518D01*
X118836051Y-133992533D01*
X118768708Y-134059877D01*
X118634021Y-134127220D01*
X117825899Y-134127220D01*
X118263632Y-134564953D01*
X119374799Y-135137373D02*
X119913547Y-135676121D01*
X121125730Y-136147525D02*
X121193074Y-136147525D01*
X121294089Y-136181197D01*
X121462448Y-136349556D01*
X121496120Y-136450571D01*
X121496120Y-136517914D01*
X121462448Y-136618930D01*
X121395104Y-136686273D01*
X121260417Y-136753617D01*
X120452295Y-136753617D01*
X120890028Y-137191349D01*
X122034868Y-136921975D02*
X122102211Y-136989319D01*
X122135883Y-137090334D01*
X122135883Y-137157678D01*
X122102211Y-137258693D01*
X122001196Y-137427052D01*
X121832837Y-137595410D01*
X121664478Y-137696426D01*
X121563463Y-137730097D01*
X121496120Y-137730097D01*
X121395104Y-137696426D01*
X121327761Y-137629082D01*
X121294089Y-137528067D01*
X121294089Y-137460723D01*
X121327761Y-137359708D01*
X121428776Y-137191349D01*
X121597135Y-137022991D01*
X121765494Y-136921975D01*
X121866509Y-136888304D01*
X121933852Y-136888304D01*
X122034868Y-136921975D01*
X122472600Y-137494395D02*
X122539944Y-137494395D01*
X122640959Y-137528067D01*
X122809318Y-137696426D01*
X122842990Y-137797441D01*
X122842990Y-137864784D01*
X122809318Y-137965800D01*
X122741974Y-138033143D01*
X122607287Y-138100487D01*
X121799165Y-138100487D01*
X122236898Y-138538219D01*
X123146035Y-138167830D02*
X123213379Y-138167830D01*
X123314394Y-138201502D01*
X123482753Y-138369861D01*
X123516425Y-138470876D01*
X123516425Y-138538219D01*
X123482753Y-138639235D01*
X123415409Y-138706578D01*
X123280722Y-138773922D01*
X122472600Y-138773922D01*
X122910333Y-139211654D01*
X106316557Y-124490702D02*
X106653275Y-124827419D01*
X106047183Y-124625389D02*
X106989992Y-124153984D01*
X106518588Y-125096793D01*
X107225695Y-124861091D02*
X106754290Y-125332495D01*
X107158351Y-124928434D02*
X107225695Y-124928434D01*
X107326710Y-124962106D01*
X107427725Y-125063121D01*
X107461397Y-125164137D01*
X107427725Y-125265152D01*
X107057336Y-125635541D01*
X107697099Y-126275304D02*
X108404206Y-125568198D01*
X107730771Y-126241633D02*
X107629756Y-126207961D01*
X107495069Y-126073274D01*
X107461397Y-125972259D01*
X107461397Y-125904915D01*
X107495069Y-125803900D01*
X107697099Y-125601869D01*
X107798114Y-125568198D01*
X107865458Y-125568198D01*
X107966473Y-125601869D01*
X108101160Y-125736556D01*
X108134832Y-125837572D01*
X108336862Y-126847724D02*
X108235847Y-126814052D01*
X108101160Y-126679365D01*
X108067488Y-126578350D01*
X108101160Y-126477335D01*
X108370534Y-126207961D01*
X108471549Y-126174289D01*
X108572565Y-126207961D01*
X108707252Y-126342648D01*
X108740923Y-126443663D01*
X108707252Y-126544678D01*
X108639908Y-126612022D01*
X108235847Y-126342648D01*
X108639908Y-127218113D02*
X109111313Y-126746709D01*
X108976626Y-126881396D02*
X109077641Y-126847724D01*
X109144984Y-126847724D01*
X109246000Y-126881396D01*
X109313343Y-126948739D01*
X109077641Y-127588503D02*
X109111313Y-127689518D01*
X109246000Y-127824205D01*
X109347015Y-127857877D01*
X109448030Y-127824205D01*
X109481702Y-127790533D01*
X109515374Y-127689518D01*
X109481702Y-127588503D01*
X109380687Y-127487487D01*
X109347015Y-127386472D01*
X109380687Y-127285457D01*
X109414358Y-127251785D01*
X109515374Y-127218113D01*
X109616389Y-127251785D01*
X109717404Y-127352800D01*
X109751076Y-127453816D01*
X110188809Y-128767014D02*
X110895915Y-128059907D01*
X111165290Y-128329281D01*
X111198961Y-128430296D01*
X111198961Y-128497640D01*
X111165290Y-128598655D01*
X111064274Y-128699670D01*
X110963259Y-128733342D01*
X110895915Y-128733342D01*
X110794900Y-128699670D01*
X110525526Y-128430296D01*
X110895915Y-129474121D02*
X111367320Y-129002716D01*
X111603022Y-128767014D02*
X111535679Y-128767014D01*
X111535679Y-128834357D01*
X111603022Y-128834357D01*
X111603022Y-128767014D01*
X111535679Y-128834357D01*
X111232633Y-129743495D02*
X111266305Y-129844510D01*
X111400992Y-129979197D01*
X111502007Y-130012869D01*
X111603022Y-129979197D01*
X111636694Y-129945525D01*
X111670366Y-129844510D01*
X111636694Y-129743495D01*
X111535679Y-129642480D01*
X111502007Y-129541464D01*
X111535679Y-129440449D01*
X111569351Y-129406777D01*
X111670366Y-129373106D01*
X111771381Y-129406777D01*
X111872396Y-129507793D01*
X111906068Y-129608808D01*
X112175442Y-129810838D02*
X112444816Y-130080212D01*
X112512160Y-129676151D02*
X111906068Y-130282243D01*
X111872396Y-130383258D01*
X111906068Y-130484273D01*
X111973412Y-130551617D01*
X112310129Y-130888334D02*
X112276457Y-130787319D01*
X112276457Y-130719976D01*
X112310129Y-130618960D01*
X112512160Y-130416930D01*
X112613175Y-130383258D01*
X112680518Y-130383258D01*
X112781534Y-130416930D01*
X112882549Y-130517945D01*
X112916221Y-130618960D01*
X112916221Y-130686304D01*
X112882549Y-130787319D01*
X112680518Y-130989350D01*
X112579503Y-131023021D01*
X112512160Y-131023021D01*
X112411144Y-130989350D01*
X112310129Y-130888334D01*
X112949892Y-131528098D02*
X112916221Y-131427082D01*
X112949892Y-131326067D01*
X113555984Y-130719976D01*
G36*
X144806883Y-118811847D02*
G01*
X144171883Y-117541847D01*
X145441883Y-117541847D01*
X144806883Y-118811847D01*
G37*
X144806883Y-118811847D02*
X144171883Y-117541847D01*
X145441883Y-117541847D01*
X144806883Y-118811847D01*
G36*
X129540000Y-62230000D02*
G01*
X128270000Y-62865000D01*
X128270000Y-61595000D01*
X129540000Y-62230000D01*
G37*
X129540000Y-62230000D02*
X128270000Y-62865000D01*
X128270000Y-61595000D01*
X129540000Y-62230000D01*
G36*
X129540000Y-67310000D02*
G01*
X128270000Y-67945000D01*
X128270000Y-66675000D01*
X129540000Y-67310000D01*
G37*
X129540000Y-67310000D02*
X128270000Y-67945000D01*
X128270000Y-66675000D01*
X129540000Y-67310000D01*
G36*
X145415000Y-78740000D02*
G01*
X144145000Y-78740000D01*
X144780000Y-77470000D01*
X145415000Y-78740000D01*
G37*
X145415000Y-78740000D02*
X144145000Y-78740000D01*
X144780000Y-77470000D01*
X145415000Y-78740000D01*
G36*
X129540000Y-138430000D02*
G01*
X128270000Y-139065000D01*
X128270000Y-137795000D01*
X129540000Y-138430000D01*
G37*
X129540000Y-138430000D02*
X128270000Y-139065000D01*
X128270000Y-137795000D01*
X129540000Y-138430000D01*
X142073333Y-78557380D02*
X141740000Y-78081190D01*
X141501904Y-78557380D02*
X141501904Y-77557380D01*
X141882857Y-77557380D01*
X141978095Y-77605000D01*
X142025714Y-77652619D01*
X142073333Y-77747857D01*
X142073333Y-77890714D01*
X142025714Y-77985952D01*
X141978095Y-78033571D01*
X141882857Y-78081190D01*
X141501904Y-78081190D01*
X142406666Y-77557380D02*
X143073333Y-78557380D01*
X143073333Y-77557380D02*
X142406666Y-78557380D01*
X138938095Y-77557380D02*
X139509523Y-77557380D01*
X139223809Y-78557380D02*
X139223809Y-77557380D01*
X139747619Y-77557380D02*
X140414285Y-78557380D01*
X140414285Y-77557380D02*
X139747619Y-78557380D01*
X140644761Y-71842380D02*
X140644761Y-72651904D01*
X140692380Y-72747142D01*
X140740000Y-72794761D01*
X140835238Y-72842380D01*
X141025714Y-72842380D01*
X141120952Y-72794761D01*
X141168571Y-72747142D01*
X141216190Y-72651904D01*
X141216190Y-71842380D01*
X141644761Y-72556666D02*
X142120952Y-72556666D01*
X141549523Y-72842380D02*
X141882857Y-71842380D01*
X142216190Y-72842380D01*
X143120952Y-72842380D02*
X142787619Y-72366190D01*
X142549523Y-72842380D02*
X142549523Y-71842380D01*
X142930476Y-71842380D01*
X143025714Y-71890000D01*
X143073333Y-71937619D01*
X143120952Y-72032857D01*
X143120952Y-72175714D01*
X143073333Y-72270952D01*
X143025714Y-72318571D01*
X142930476Y-72366190D01*
X142549523Y-72366190D01*
X143406666Y-71842380D02*
X143978095Y-71842380D01*
X143692380Y-72842380D02*
X143692380Y-71842380D01*
X142549523Y-118925649D02*
X142073333Y-118925649D01*
X142073333Y-117925649D01*
X140009523Y-118925649D02*
X139676190Y-118449459D01*
X139438095Y-118925649D02*
X139438095Y-117925649D01*
X139819047Y-117925649D01*
X139914285Y-117973269D01*
X139961904Y-118020888D01*
X140009523Y-118116126D01*
X140009523Y-118258983D01*
X139961904Y-118354221D01*
X139914285Y-118401840D01*
X139819047Y-118449459D01*
X139438095Y-118449459D01*
X128204404Y-140422380D02*
X128013928Y-140422380D01*
X127918690Y-140470000D01*
X127871071Y-140517619D01*
X127775833Y-140660476D01*
X127728214Y-140850952D01*
X127728214Y-141231904D01*
X127775833Y-141327142D01*
X127823452Y-141374761D01*
X127918690Y-141422380D01*
X128109166Y-141422380D01*
X128204404Y-141374761D01*
X128252023Y-141327142D01*
X128299642Y-141231904D01*
X128299642Y-140993809D01*
X128252023Y-140898571D01*
X128204404Y-140850952D01*
X128109166Y-140803333D01*
X127918690Y-140803333D01*
X127823452Y-140850952D01*
X127775833Y-140898571D01*
X127728214Y-140993809D01*
X128632976Y-140422380D02*
X129252023Y-140422380D01*
X128918690Y-140803333D01*
X129061547Y-140803333D01*
X129156785Y-140850952D01*
X129204404Y-140898571D01*
X129252023Y-140993809D01*
X129252023Y-141231904D01*
X129204404Y-141327142D01*
X129156785Y-141374761D01*
X129061547Y-141422380D01*
X128775833Y-141422380D01*
X128680595Y-141374761D01*
X128632976Y-141327142D01*
X140372399Y-123991666D02*
X140848589Y-123991666D01*
X140277161Y-124277380D02*
X140610494Y-123277380D01*
X140943828Y-124277380D01*
X141277161Y-123277380D02*
X141277161Y-124086904D01*
X141324780Y-124182142D01*
X141372399Y-124229761D01*
X141467637Y-124277380D01*
X141658113Y-124277380D01*
X141753351Y-124229761D01*
X141800970Y-124182142D01*
X141848589Y-124086904D01*
X141848589Y-123277380D01*
X142324780Y-124277380D02*
X142324780Y-123277380D01*
X142562875Y-123277380D01*
X142705732Y-123325000D01*
X142800970Y-123420238D01*
X142848589Y-123515476D01*
X142896209Y-123705952D01*
X142896209Y-123848809D01*
X142848589Y-124039285D01*
X142800970Y-124134523D01*
X142705732Y-124229761D01*
X142562875Y-124277380D01*
X142324780Y-124277380D01*
X143324780Y-124277380D02*
X143324780Y-123277380D01*
X143991447Y-123277380D02*
X144181923Y-123277380D01*
X144277161Y-123325000D01*
X144372399Y-123420238D01*
X144420018Y-123610714D01*
X144420018Y-123944047D01*
X144372399Y-124134523D01*
X144277161Y-124229761D01*
X144181923Y-124277380D01*
X143991447Y-124277380D01*
X143896209Y-124229761D01*
X143800970Y-124134523D01*
X143753351Y-123944047D01*
X143753351Y-123610714D01*
X143800970Y-123420238D01*
X143896209Y-123325000D01*
X143991447Y-123277380D01*
X127920714Y-62682380D02*
X127349285Y-62682380D01*
X127635000Y-62682380D02*
X127635000Y-61682380D01*
X127539761Y-61825238D01*
X127444523Y-61920476D01*
X127349285Y-61968095D01*
%TO.C,R5*%
X113052380Y-67366666D02*
X112576190Y-67700000D01*
X113052380Y-67938095D02*
X112052380Y-67938095D01*
X112052380Y-67557142D01*
X112100000Y-67461904D01*
X112147619Y-67414285D01*
X112242857Y-67366666D01*
X112385714Y-67366666D01*
X112480952Y-67414285D01*
X112528571Y-67461904D01*
X112576190Y-67557142D01*
X112576190Y-67938095D01*
X112052380Y-66461904D02*
X112052380Y-66938095D01*
X112528571Y-66985714D01*
X112480952Y-66938095D01*
X112433333Y-66842857D01*
X112433333Y-66604761D01*
X112480952Y-66509523D01*
X112528571Y-66461904D01*
X112623809Y-66414285D01*
X112861904Y-66414285D01*
X112957142Y-66461904D01*
X113004761Y-66509523D01*
X113052380Y-66604761D01*
X113052380Y-66842857D01*
X113004761Y-66938095D01*
X112957142Y-66985714D01*
%TO.C,C7*%
X137512299Y-112306407D02*
X137559918Y-112354026D01*
X137607537Y-112496883D01*
X137607537Y-112592121D01*
X137559918Y-112734979D01*
X137464680Y-112830217D01*
X137369442Y-112877836D01*
X137178966Y-112925455D01*
X137036109Y-112925455D01*
X136845633Y-112877836D01*
X136750395Y-112830217D01*
X136655157Y-112734979D01*
X136607537Y-112592121D01*
X136607537Y-112496883D01*
X136655157Y-112354026D01*
X136702776Y-112306407D01*
X136607537Y-111973074D02*
X136607537Y-111306407D01*
X137607537Y-111734979D01*
%TO.C,R4*%
X114852380Y-67366666D02*
X114376190Y-67700000D01*
X114852380Y-67938095D02*
X113852380Y-67938095D01*
X113852380Y-67557142D01*
X113900000Y-67461904D01*
X113947619Y-67414285D01*
X114042857Y-67366666D01*
X114185714Y-67366666D01*
X114280952Y-67414285D01*
X114328571Y-67461904D01*
X114376190Y-67557142D01*
X114376190Y-67938095D01*
X114185714Y-66509523D02*
X114852380Y-66509523D01*
X113804761Y-66747619D02*
X114519047Y-66985714D01*
X114519047Y-66366666D01*
%TO.C,J3*%
X136612380Y-75263333D02*
X137326666Y-75263333D01*
X137469523Y-75310952D01*
X137564761Y-75406190D01*
X137612380Y-75549047D01*
X137612380Y-75644285D01*
X136612380Y-74882380D02*
X136612380Y-74263333D01*
X136993333Y-74596666D01*
X136993333Y-74453809D01*
X137040952Y-74358571D01*
X137088571Y-74310952D01*
X137183809Y-74263333D01*
X137421904Y-74263333D01*
X137517142Y-74310952D01*
X137564761Y-74358571D01*
X137612380Y-74453809D01*
X137612380Y-74739523D01*
X137564761Y-74834761D01*
X137517142Y-74882380D01*
%TO.C,C4*%
X138787142Y-88392435D02*
X138834761Y-88440054D01*
X138882380Y-88582911D01*
X138882380Y-88678149D01*
X138834761Y-88821007D01*
X138739523Y-88916245D01*
X138644285Y-88963864D01*
X138453809Y-89011483D01*
X138310952Y-89011483D01*
X138120476Y-88963864D01*
X138025238Y-88916245D01*
X137930000Y-88821007D01*
X137882380Y-88678149D01*
X137882380Y-88582911D01*
X137930000Y-88440054D01*
X137977619Y-88392435D01*
X138215714Y-87535292D02*
X138882380Y-87535292D01*
X137834761Y-87773388D02*
X138549047Y-88011483D01*
X138549047Y-87392435D01*
%TO.C,H1*%
X112038095Y-65252380D02*
X112038095Y-64252380D01*
X112038095Y-64728571D02*
X112609523Y-64728571D01*
X112609523Y-65252380D02*
X112609523Y-64252380D01*
X113609523Y-65252380D02*
X113038095Y-65252380D01*
X113323809Y-65252380D02*
X113323809Y-64252380D01*
X113228571Y-64395238D01*
X113133333Y-64490476D01*
X113038095Y-64538095D01*
%TO.C,R6*%
X142692380Y-83714935D02*
X142216190Y-84048269D01*
X142692380Y-84286364D02*
X141692380Y-84286364D01*
X141692380Y-83905411D01*
X141740000Y-83810173D01*
X141787619Y-83762554D01*
X141882857Y-83714935D01*
X142025714Y-83714935D01*
X142120952Y-83762554D01*
X142168571Y-83810173D01*
X142216190Y-83905411D01*
X142216190Y-84286364D01*
X141692380Y-82857792D02*
X141692380Y-83048269D01*
X141740000Y-83143507D01*
X141787619Y-83191126D01*
X141930476Y-83286364D01*
X142120952Y-83333983D01*
X142501904Y-83333983D01*
X142597142Y-83286364D01*
X142644761Y-83238745D01*
X142692380Y-83143507D01*
X142692380Y-82953030D01*
X142644761Y-82857792D01*
X142597142Y-82810173D01*
X142501904Y-82762554D01*
X142263809Y-82762554D01*
X142168571Y-82810173D01*
X142120952Y-82857792D01*
X142073333Y-82953030D01*
X142073333Y-83143507D01*
X142120952Y-83238745D01*
X142168571Y-83286364D01*
X142263809Y-83333983D01*
%TO.C,J4*%
X136612380Y-121346602D02*
X137326666Y-121346602D01*
X137469523Y-121394221D01*
X137564761Y-121489459D01*
X137612380Y-121632316D01*
X137612380Y-121727554D01*
X136945714Y-120441840D02*
X137612380Y-120441840D01*
X136564761Y-120679935D02*
X137279047Y-120918030D01*
X137279047Y-120298983D01*
%TO.C,R9*%
X138882380Y-93239935D02*
X138406190Y-93573269D01*
X138882380Y-93811364D02*
X137882380Y-93811364D01*
X137882380Y-93430411D01*
X137930000Y-93335173D01*
X137977619Y-93287554D01*
X138072857Y-93239935D01*
X138215714Y-93239935D01*
X138310952Y-93287554D01*
X138358571Y-93335173D01*
X138406190Y-93430411D01*
X138406190Y-93811364D01*
X138882380Y-92763745D02*
X138882380Y-92573269D01*
X138834761Y-92478030D01*
X138787142Y-92430411D01*
X138644285Y-92335173D01*
X138453809Y-92287554D01*
X138072857Y-92287554D01*
X137977619Y-92335173D01*
X137930000Y-92382792D01*
X137882380Y-92478030D01*
X137882380Y-92668507D01*
X137930000Y-92763745D01*
X137977619Y-92811364D01*
X138072857Y-92858983D01*
X138310952Y-92858983D01*
X138406190Y-92811364D01*
X138453809Y-92763745D01*
X138501428Y-92668507D01*
X138501428Y-92478030D01*
X138453809Y-92382792D01*
X138406190Y-92335173D01*
X138310952Y-92287554D01*
%TO.C,R1*%
X109052380Y-91766666D02*
X108576190Y-92100000D01*
X109052380Y-92338095D02*
X108052380Y-92338095D01*
X108052380Y-91957142D01*
X108100000Y-91861904D01*
X108147619Y-91814285D01*
X108242857Y-91766666D01*
X108385714Y-91766666D01*
X108480952Y-91814285D01*
X108528571Y-91861904D01*
X108576190Y-91957142D01*
X108576190Y-92338095D01*
X109052380Y-90814285D02*
X109052380Y-91385714D01*
X109052380Y-91100000D02*
X108052380Y-91100000D01*
X108195238Y-91195238D01*
X108290476Y-91290476D01*
X108338095Y-91385714D01*
%TO.C,C2*%
X114077142Y-99366666D02*
X114124761Y-99414285D01*
X114172380Y-99557142D01*
X114172380Y-99652380D01*
X114124761Y-99795238D01*
X114029523Y-99890476D01*
X113934285Y-99938095D01*
X113743809Y-99985714D01*
X113600952Y-99985714D01*
X113410476Y-99938095D01*
X113315238Y-99890476D01*
X113220000Y-99795238D01*
X113172380Y-99652380D01*
X113172380Y-99557142D01*
X113220000Y-99414285D01*
X113267619Y-99366666D01*
X113267619Y-98985714D02*
X113220000Y-98938095D01*
X113172380Y-98842857D01*
X113172380Y-98604761D01*
X113220000Y-98509523D01*
X113267619Y-98461904D01*
X113362857Y-98414285D01*
X113458095Y-98414285D01*
X113600952Y-98461904D01*
X114172380Y-99033333D01*
X114172380Y-98414285D01*
%TO.C,U1*%
X124612380Y-109011904D02*
X125421904Y-109011904D01*
X125517142Y-108964285D01*
X125564761Y-108916666D01*
X125612380Y-108821428D01*
X125612380Y-108630952D01*
X125564761Y-108535714D01*
X125517142Y-108488095D01*
X125421904Y-108440476D01*
X124612380Y-108440476D01*
X125612380Y-107440476D02*
X125612380Y-108011904D01*
X125612380Y-107726190D02*
X124612380Y-107726190D01*
X124755238Y-107821428D01*
X124850476Y-107916666D01*
X124898095Y-108011904D01*
%TO.C,R3*%
X116652380Y-67366666D02*
X116176190Y-67700000D01*
X116652380Y-67938095D02*
X115652380Y-67938095D01*
X115652380Y-67557142D01*
X115700000Y-67461904D01*
X115747619Y-67414285D01*
X115842857Y-67366666D01*
X115985714Y-67366666D01*
X116080952Y-67414285D01*
X116128571Y-67461904D01*
X116176190Y-67557142D01*
X116176190Y-67938095D01*
X115652380Y-67033333D02*
X115652380Y-66414285D01*
X116033333Y-66747619D01*
X116033333Y-66604761D01*
X116080952Y-66509523D01*
X116128571Y-66461904D01*
X116223809Y-66414285D01*
X116461904Y-66414285D01*
X116557142Y-66461904D01*
X116604761Y-66509523D01*
X116652380Y-66604761D01*
X116652380Y-66890476D01*
X116604761Y-66985714D01*
X116557142Y-67033333D01*
%TO.C,C1*%
X113252142Y-117387666D02*
X113299761Y-117435285D01*
X113347380Y-117578142D01*
X113347380Y-117673380D01*
X113299761Y-117816238D01*
X113204523Y-117911476D01*
X113109285Y-117959095D01*
X112918809Y-118006714D01*
X112775952Y-118006714D01*
X112585476Y-117959095D01*
X112490238Y-117911476D01*
X112395000Y-117816238D01*
X112347380Y-117673380D01*
X112347380Y-117578142D01*
X112395000Y-117435285D01*
X112442619Y-117387666D01*
X113347380Y-116435285D02*
X113347380Y-117006714D01*
X113347380Y-116721000D02*
X112347380Y-116721000D01*
X112490238Y-116816238D01*
X112585476Y-116911476D01*
X112633095Y-117006714D01*
%TO.C,C8*%
X137512299Y-104051407D02*
X137559918Y-104099026D01*
X137607537Y-104241883D01*
X137607537Y-104337121D01*
X137559918Y-104479979D01*
X137464680Y-104575217D01*
X137369442Y-104622836D01*
X137178966Y-104670455D01*
X137036109Y-104670455D01*
X136845633Y-104622836D01*
X136750395Y-104575217D01*
X136655157Y-104479979D01*
X136607537Y-104337121D01*
X136607537Y-104241883D01*
X136655157Y-104099026D01*
X136702776Y-104051407D01*
X137036109Y-103479979D02*
X136988490Y-103575217D01*
X136940871Y-103622836D01*
X136845633Y-103670455D01*
X136798014Y-103670455D01*
X136702776Y-103622836D01*
X136655157Y-103575217D01*
X136607537Y-103479979D01*
X136607537Y-103289502D01*
X136655157Y-103194264D01*
X136702776Y-103146645D01*
X136798014Y-103099026D01*
X136845633Y-103099026D01*
X136940871Y-103146645D01*
X136988490Y-103194264D01*
X137036109Y-103289502D01*
X137036109Y-103479979D01*
X137083728Y-103575217D01*
X137131347Y-103622836D01*
X137226585Y-103670455D01*
X137417061Y-103670455D01*
X137512299Y-103622836D01*
X137559918Y-103575217D01*
X137607537Y-103479979D01*
X137607537Y-103289502D01*
X137559918Y-103194264D01*
X137512299Y-103146645D01*
X137417061Y-103099026D01*
X137226585Y-103099026D01*
X137131347Y-103146645D01*
X137083728Y-103194264D01*
X137036109Y-103289502D01*
%TO.C,C6*%
X138787142Y-98087435D02*
X138834761Y-98135054D01*
X138882380Y-98277911D01*
X138882380Y-98373149D01*
X138834761Y-98516007D01*
X138739523Y-98611245D01*
X138644285Y-98658864D01*
X138453809Y-98706483D01*
X138310952Y-98706483D01*
X138120476Y-98658864D01*
X138025238Y-98611245D01*
X137930000Y-98516007D01*
X137882380Y-98373149D01*
X137882380Y-98277911D01*
X137930000Y-98135054D01*
X137977619Y-98087435D01*
X137882380Y-97230292D02*
X137882380Y-97420769D01*
X137930000Y-97516007D01*
X137977619Y-97563626D01*
X138120476Y-97658864D01*
X138310952Y-97706483D01*
X138691904Y-97706483D01*
X138787142Y-97658864D01*
X138834761Y-97611245D01*
X138882380Y-97516007D01*
X138882380Y-97325530D01*
X138834761Y-97230292D01*
X138787142Y-97182673D01*
X138691904Y-97135054D01*
X138453809Y-97135054D01*
X138358571Y-97182673D01*
X138310952Y-97230292D01*
X138263333Y-97325530D01*
X138263333Y-97516007D01*
X138310952Y-97611245D01*
X138358571Y-97658864D01*
X138453809Y-97706483D01*
%TO.C,C5*%
X146407142Y-98087435D02*
X146454761Y-98135054D01*
X146502380Y-98277911D01*
X146502380Y-98373149D01*
X146454761Y-98516007D01*
X146359523Y-98611245D01*
X146264285Y-98658864D01*
X146073809Y-98706483D01*
X145930952Y-98706483D01*
X145740476Y-98658864D01*
X145645238Y-98611245D01*
X145550000Y-98516007D01*
X145502380Y-98373149D01*
X145502380Y-98277911D01*
X145550000Y-98135054D01*
X145597619Y-98087435D01*
X145502380Y-97182673D02*
X145502380Y-97658864D01*
X145978571Y-97706483D01*
X145930952Y-97658864D01*
X145883333Y-97563626D01*
X145883333Y-97325530D01*
X145930952Y-97230292D01*
X145978571Y-97182673D01*
X146073809Y-97135054D01*
X146311904Y-97135054D01*
X146407142Y-97182673D01*
X146454761Y-97230292D01*
X146502380Y-97325530D01*
X146502380Y-97563626D01*
X146454761Y-97658864D01*
X146407142Y-97706483D01*
%TO.C,R7*%
X138882380Y-83714935D02*
X138406190Y-84048269D01*
X138882380Y-84286364D02*
X137882380Y-84286364D01*
X137882380Y-83905411D01*
X137930000Y-83810173D01*
X137977619Y-83762554D01*
X138072857Y-83714935D01*
X138215714Y-83714935D01*
X138310952Y-83762554D01*
X138358571Y-83810173D01*
X138406190Y-83905411D01*
X138406190Y-84286364D01*
X137882380Y-83381602D02*
X137882380Y-82714935D01*
X138882380Y-83143507D01*
%TO.C,H2*%
X107238095Y-134452380D02*
X107238095Y-133452380D01*
X107238095Y-133928571D02*
X107809523Y-133928571D01*
X107809523Y-134452380D02*
X107809523Y-133452380D01*
X108238095Y-133547619D02*
X108285714Y-133500000D01*
X108380952Y-133452380D01*
X108619047Y-133452380D01*
X108714285Y-133500000D01*
X108761904Y-133547619D01*
X108809523Y-133642857D01*
X108809523Y-133738095D01*
X108761904Y-133880952D01*
X108190476Y-134452380D01*
X108809523Y-134452380D01*
%TO.C,C3*%
X146407142Y-88392435D02*
X146454761Y-88440054D01*
X146502380Y-88582911D01*
X146502380Y-88678149D01*
X146454761Y-88821007D01*
X146359523Y-88916245D01*
X146264285Y-88963864D01*
X146073809Y-89011483D01*
X145930952Y-89011483D01*
X145740476Y-88963864D01*
X145645238Y-88916245D01*
X145550000Y-88821007D01*
X145502380Y-88678149D01*
X145502380Y-88582911D01*
X145550000Y-88440054D01*
X145597619Y-88392435D01*
X145502380Y-88059102D02*
X145502380Y-87440054D01*
X145883333Y-87773388D01*
X145883333Y-87630530D01*
X145930952Y-87535292D01*
X145978571Y-87487673D01*
X146073809Y-87440054D01*
X146311904Y-87440054D01*
X146407142Y-87487673D01*
X146454761Y-87535292D01*
X146502380Y-87630530D01*
X146502380Y-87916245D01*
X146454761Y-88011483D01*
X146407142Y-88059102D01*
%TO.C,R8*%
X146502380Y-93239935D02*
X146026190Y-93573269D01*
X146502380Y-93811364D02*
X145502380Y-93811364D01*
X145502380Y-93430411D01*
X145550000Y-93335173D01*
X145597619Y-93287554D01*
X145692857Y-93239935D01*
X145835714Y-93239935D01*
X145930952Y-93287554D01*
X145978571Y-93335173D01*
X146026190Y-93430411D01*
X146026190Y-93811364D01*
X145930952Y-92668507D02*
X145883333Y-92763745D01*
X145835714Y-92811364D01*
X145740476Y-92858983D01*
X145692857Y-92858983D01*
X145597619Y-92811364D01*
X145550000Y-92763745D01*
X145502380Y-92668507D01*
X145502380Y-92478030D01*
X145550000Y-92382792D01*
X145597619Y-92335173D01*
X145692857Y-92287554D01*
X145740476Y-92287554D01*
X145835714Y-92335173D01*
X145883333Y-92382792D01*
X145930952Y-92478030D01*
X145930952Y-92668507D01*
X145978571Y-92763745D01*
X146026190Y-92811364D01*
X146121428Y-92858983D01*
X146311904Y-92858983D01*
X146407142Y-92811364D01*
X146454761Y-92763745D01*
X146502380Y-92668507D01*
X146502380Y-92478030D01*
X146454761Y-92382792D01*
X146407142Y-92335173D01*
X146311904Y-92287554D01*
X146121428Y-92287554D01*
X146026190Y-92335173D01*
X145978571Y-92382792D01*
X145930952Y-92478030D01*
%TO.C,R2*%
X111252380Y-91766666D02*
X110776190Y-92100000D01*
X111252380Y-92338095D02*
X110252380Y-92338095D01*
X110252380Y-91957142D01*
X110300000Y-91861904D01*
X110347619Y-91814285D01*
X110442857Y-91766666D01*
X110585714Y-91766666D01*
X110680952Y-91814285D01*
X110728571Y-91861904D01*
X110776190Y-91957142D01*
X110776190Y-92338095D01*
X110347619Y-91385714D02*
X110300000Y-91338095D01*
X110252380Y-91242857D01*
X110252380Y-91004761D01*
X110300000Y-90909523D01*
X110347619Y-90861904D01*
X110442857Y-90814285D01*
X110538095Y-90814285D01*
X110680952Y-90861904D01*
X111252380Y-91433333D01*
X111252380Y-90814285D01*
%TO.C,J2*%
X118837380Y-79708333D02*
X119551666Y-79708333D01*
X119694523Y-79755952D01*
X119789761Y-79851190D01*
X119837380Y-79994047D01*
X119837380Y-80089285D01*
X118932619Y-79279761D02*
X118885000Y-79232142D01*
X118837380Y-79136904D01*
X118837380Y-78898809D01*
X118885000Y-78803571D01*
X118932619Y-78755952D01*
X119027857Y-78708333D01*
X119123095Y-78708333D01*
X119265952Y-78755952D01*
X119837380Y-79327380D01*
X119837380Y-78708333D01*
%TO.C,J1*%
X128357380Y-79708333D02*
X129071666Y-79708333D01*
X129214523Y-79755952D01*
X129309761Y-79851190D01*
X129357380Y-79994047D01*
X129357380Y-80089285D01*
X129357380Y-78708333D02*
X129357380Y-79279761D01*
X129357380Y-78994047D02*
X128357380Y-78994047D01*
X128500238Y-79089285D01*
X128595476Y-79184523D01*
X128643095Y-79279761D01*
D12*
%TO.C,R5*%
X109447000Y-70130936D02*
X109447000Y-70585064D01*
X107977000Y-70130936D02*
X107977000Y-70585064D01*
%TO.C,C7*%
X140544437Y-114883269D02*
X145000000Y-114883269D01*
X145000000Y-109363269D02*
X145000000Y-111063269D01*
X139480000Y-113818832D02*
X140544437Y-114883269D01*
X139480000Y-113818832D02*
X139480000Y-113183269D01*
X139480000Y-110427706D02*
X139480000Y-111063269D01*
X138927500Y-110125769D02*
X138927500Y-110750769D01*
X145000000Y-114883269D02*
X145000000Y-113183269D01*
X138615000Y-110438269D02*
X139240000Y-110438269D01*
X139480000Y-110427706D02*
X140544437Y-109363269D01*
X140544437Y-109363269D02*
X145000000Y-109363269D01*
%TO.C,R4*%
X111733000Y-70130936D02*
X111733000Y-70585064D01*
X110263000Y-70130936D02*
X110263000Y-70585064D01*
%TO.C,J3*%
X143510000Y-76260000D02*
X138370000Y-76260000D01*
X143510000Y-73600000D02*
X138370000Y-73600000D01*
X144780000Y-73600000D02*
X146110000Y-73600000D01*
X146110000Y-73600000D02*
X146110000Y-74930000D01*
X138370000Y-73600000D02*
X138370000Y-76260000D01*
X143510000Y-73600000D02*
X143510000Y-76260000D01*
%TO.C,C4*%
X139600000Y-88487021D02*
X139600000Y-87964517D01*
X141070000Y-88487021D02*
X141070000Y-87964517D01*
%TO.C,R6*%
X144880000Y-83321205D02*
X144880000Y-83775333D01*
X143410000Y-83321205D02*
X143410000Y-83775333D01*
%TO.C,J4*%
X143510000Y-119683269D02*
X143510000Y-122343269D01*
X146110000Y-119683269D02*
X146110000Y-121013269D01*
X144780000Y-119683269D02*
X146110000Y-119683269D01*
X138370000Y-119683269D02*
X138370000Y-122343269D01*
X143510000Y-122343269D02*
X138370000Y-122343269D01*
X143510000Y-119683269D02*
X138370000Y-119683269D01*
%TO.C,R9*%
X141070000Y-92846205D02*
X141070000Y-93300333D01*
X139600000Y-92846205D02*
X139600000Y-93300333D01*
%TO.C,R1*%
X109335000Y-88627064D02*
X109335000Y-88172936D01*
X107865000Y-88627064D02*
X107865000Y-88172936D01*
%TO.C,C2*%
X114665000Y-99461252D02*
X114665000Y-98938748D01*
X116135000Y-99461252D02*
X116135000Y-98938748D01*
%TO.C,U1*%
X123935000Y-103060000D02*
X123935000Y-101900000D01*
X124315000Y-108250000D02*
X124315000Y-103060000D01*
X124315000Y-113440000D02*
X123935000Y-113440000D01*
X105685000Y-103060000D02*
X106065000Y-103060000D01*
X105685000Y-108250000D02*
X105685000Y-113440000D01*
X124315000Y-108250000D02*
X124315000Y-113440000D01*
X124315000Y-103060000D02*
X123935000Y-103060000D01*
X105685000Y-108250000D02*
X105685000Y-103060000D01*
X105685000Y-113440000D02*
X106065000Y-113440000D01*
%TO.C,R3*%
X112549000Y-70130936D02*
X112549000Y-70585064D01*
X114019000Y-70130936D02*
X114019000Y-70585064D01*
%TO.C,C1*%
X114065000Y-116959748D02*
X114065000Y-117482252D01*
X115535000Y-116959748D02*
X115535000Y-117482252D01*
%TO.C,C8*%
X140544437Y-101108269D02*
X145000000Y-101108269D01*
X138615000Y-102183269D02*
X139240000Y-102183269D01*
X145000000Y-106628269D02*
X145000000Y-104928269D01*
X139480000Y-102172706D02*
X139480000Y-102808269D01*
X145000000Y-101108269D02*
X145000000Y-102808269D01*
X139480000Y-105563832D02*
X140544437Y-106628269D01*
X140544437Y-106628269D02*
X145000000Y-106628269D01*
X139480000Y-105563832D02*
X139480000Y-104928269D01*
X139480000Y-102172706D02*
X140544437Y-101108269D01*
X138927500Y-101870769D02*
X138927500Y-102495769D01*
%TO.C,C6*%
X141070000Y-98182021D02*
X141070000Y-97659517D01*
X139600000Y-98182021D02*
X139600000Y-97659517D01*
%TO.C,C5*%
X143410000Y-97659517D02*
X143410000Y-98182021D01*
X144880000Y-97659517D02*
X144880000Y-98182021D01*
%TO.C,R7*%
X141070000Y-83321205D02*
X141070000Y-83775333D01*
X139600000Y-83321205D02*
X139600000Y-83775333D01*
%TO.C,C3*%
X144880000Y-87964517D02*
X144880000Y-88487021D01*
X143410000Y-87964517D02*
X143410000Y-88487021D01*
%TO.C,R8*%
X144880000Y-92846205D02*
X144880000Y-93300333D01*
X143410000Y-92846205D02*
X143410000Y-93300333D01*
%TO.C,R2*%
X111535000Y-88627064D02*
X111535000Y-88172936D01*
X110065000Y-88627064D02*
X110065000Y-88172936D01*
%TO.C,J2*%
X113835000Y-85835000D02*
X107535000Y-85835000D01*
X116385000Y-72965000D02*
X117545000Y-72965000D01*
X113135000Y-72965000D02*
X107535000Y-72965000D01*
X117545000Y-85725000D02*
X117545000Y-85835000D01*
X117545000Y-72965000D02*
X117545000Y-84225000D01*
X117545000Y-85835000D02*
X115735000Y-85835000D01*
%TD*%
M02*
