M48
; DRILL file {KiCad 6.0.7} date Tue 06 Sep 2022 07:51:59 PM CEST
; FORMAT={-:-/ absolute / metric / decimal}
; #@! TF.CreationDate,2022-09-06T19:51:59+02:00
; #@! TF.GenerationSoftware,Kicad,Pcbnew,6.0.7
; #@! TF.FileFunction,Plated,1,4,PTH
FMAT,2
METRIC
; #@! TA.AperFunction,Plated,PTH,ViaDrill
T1C0.400
; #@! TA.AperFunction,Plated,PTH,ComponentDrill
T2C1.000
; #@! TA.AperFunction,Plated,PTH,ComponentDrill
T3C3.200
%
G90
G05
T1
X104.648Y-79.248
X107.0Y-89.4
X108.6Y-74.93
X108.6Y-75.946
X108.6Y-77.0
X108.6Y-78.2
X108.6Y-80.4
X108.6Y-81.475
X108.6Y-82.6
X110.8Y-116.4
X111.4Y-104.0
X111.6Y-115.8
X112.2Y-104.8
X112.4Y-116.4
X113.0Y-104.0
X113.2Y-115.8
X113.8Y-104.8
X114.0Y-98.171
X114.0Y-101.0
X114.0Y-111.8
X114.6Y-119.8
X114.8Y-69.342
X115.697Y-71.8
X116.0Y-111.8
X116.2Y-104.8
X116.2Y-115.6
X117.0Y-100.2
X117.0Y-104.0
X117.0Y-116.4
X117.8Y-104.8
X117.8Y-115.6
X118.6Y-101.0
X118.6Y-116.4
X119.4Y-111.8
X120.2Y-112.4
X121.0Y-111.8
T2
X131.298Y-62.225
X131.298Y-64.765
X131.298Y-67.305
X131.298Y-69.845
X131.298Y-72.385
X131.298Y-74.925
X131.298Y-77.465
X131.298Y-80.005
X131.298Y-82.545
X131.298Y-85.085
X131.298Y-87.625
X131.298Y-90.165
X131.298Y-92.705
X131.298Y-95.245
X131.298Y-97.785
X131.298Y-100.325
X131.298Y-102.865
X131.298Y-105.405
X131.298Y-107.945
X131.298Y-110.485
X131.298Y-113.025
X131.298Y-115.565
X131.298Y-118.105
X131.298Y-120.645
X131.298Y-123.185
X131.298Y-125.725
X131.298Y-128.265
X131.298Y-130.805
X131.298Y-133.345
X131.298Y-135.885
X131.298Y-138.425
X131.298Y-140.965
X133.838Y-62.225
X133.838Y-64.765
X133.838Y-67.305
X133.838Y-69.845
X133.838Y-72.385
X133.838Y-74.925
X133.838Y-77.465
X133.838Y-80.005
X133.838Y-82.545
X133.838Y-85.085
X133.838Y-87.625
X133.838Y-90.165
X133.838Y-92.705
X133.838Y-95.245
X133.838Y-97.785
X133.838Y-100.325
X133.838Y-102.865
X133.838Y-105.405
X133.838Y-107.945
X133.838Y-110.485
X133.838Y-113.025
X133.838Y-115.565
X133.838Y-118.105
X133.838Y-120.645
X133.838Y-123.185
X133.838Y-125.725
X133.838Y-128.265
X133.838Y-130.805
X133.838Y-133.345
X133.838Y-135.885
X133.838Y-138.425
X133.838Y-140.965
X139.7Y-74.93
X139.7Y-121.013
X142.24Y-74.93
X142.24Y-121.013
X144.78Y-74.93
X144.78Y-121.013
T3
X107.95Y-64.77
X107.95Y-138.43
T0
M30
