M48
; DRILL file {KiCad 6.0.4-6f826c9f35~116~ubuntu21.10.1} date Sat 23 Apr 2022 09:14:32 PM CEST
; FORMAT={-:-/ absolute / inch / decimal}
; #@! TF.CreationDate,2022-04-23T21:14:32+02:00
; #@! TF.GenerationSoftware,Kicad,Pcbnew,6.0.4-6f826c9f35~116~ubuntu21.10.1
; #@! TF.FileFunction,Plated,1,2,PTH
FMAT,2
INCH
; #@! TA.AperFunction,Plated,PTH,ViaDrill
T1C0.0157
; #@! TA.AperFunction,Plated,PTH,ComponentDrill
T2C0.0394
; #@! TA.AperFunction,Plated,PTH,ComponentDrill
T3C0.1260
%
G90
G05
T1
X4.275Y-4.475
X4.275Y-4.7
X4.275Y-4.925
X4.3Y-4.55
X4.3Y-4.625
X4.3Y-4.775
X4.3202Y-4.8798
X4.5Y-2.8
X4.5Y-4.225
X4.65Y-4.0
X4.825Y-3.525
X4.9Y-3.075
X5.725Y-4.775
X5.725Y-4.9
X5.725Y-5.025
T2
X4.2Y-3.075
X4.2Y-3.175
X4.2Y-3.275
X4.2Y-3.7
X4.2Y-3.8
X4.2Y-3.9
X5.1692Y-2.4498
X5.1692Y-2.5498
X5.1692Y-2.6498
X5.1692Y-2.7498
X5.1692Y-2.8498
X5.1692Y-2.9498
X5.1692Y-3.0498
X5.1692Y-3.1498
X5.1692Y-3.2498
X5.1692Y-3.3498
X5.1692Y-3.4498
X5.1692Y-3.5498
X5.1692Y-3.6498
X5.1692Y-3.7498
X5.1692Y-3.8498
X5.1692Y-3.9498
X5.1692Y-4.0498
X5.1692Y-4.1498
X5.1692Y-4.2498
X5.1692Y-4.3498
X5.1692Y-4.4498
X5.1692Y-4.5498
X5.1692Y-4.6498
X5.1692Y-4.7498
X5.1692Y-4.8498
X5.1692Y-4.9498
X5.1692Y-5.0498
X5.1692Y-5.1498
X5.1692Y-5.2498
X5.1692Y-5.3498
X5.1692Y-5.4498
X5.1692Y-5.5498
X5.2692Y-2.4498
X5.2692Y-2.5498
X5.2692Y-2.6498
X5.2692Y-2.7498
X5.2692Y-2.8498
X5.2692Y-2.9498
X5.2692Y-3.0498
X5.2692Y-3.1498
X5.2692Y-3.2498
X5.2692Y-3.3498
X5.2692Y-3.4498
X5.2692Y-3.5498
X5.2692Y-3.6498
X5.2692Y-3.7498
X5.2692Y-3.8498
X5.2692Y-3.9498
X5.2692Y-4.0498
X5.2692Y-4.1498
X5.2692Y-4.2498
X5.2692Y-4.3498
X5.2692Y-4.4498
X5.2692Y-4.5498
X5.2692Y-4.6498
X5.2692Y-4.7498
X5.2692Y-4.8498
X5.2692Y-4.9498
X5.2692Y-5.0498
X5.2692Y-5.1498
X5.2692Y-5.2498
X5.2692Y-5.3498
X5.2692Y-5.4498
X5.2692Y-5.5498
T3
X4.25Y-2.55
X4.25Y-5.45
T0
M30
