%TF.GenerationSoftware,KiCad,Pcbnew,6.0.4-6f826c9f35~116~ubuntu21.10.1*%
%TF.CreationDate,2022-04-23T21:14:11+02:00*%
%TF.ProjectId,qm k7 aux brd,716d206b-3720-4617-9578-206272642e6b,rev?*%
%TF.SameCoordinates,Original*%
%TF.FileFunction,Soldermask,Top*%
%TF.FilePolarity,Negative*%
%FSLAX46Y46*%
G04 Gerber Fmt 4.6, Leading zero omitted, Abs format (unit mm)*
G04 Created by KiCad (PCBNEW 6.0.4-6f826c9f35~116~ubuntu21.10.1) date 2022-04-23 21:14:11*
%MOMM*%
%LPD*%
G01*
G04 APERTURE LIST*
G04 Aperture macros list*
%AMRoundRect*
0 Rectangle with rounded corners*
0 $1 Rounding radius*
0 $2 $3 $4 $5 $6 $7 $8 $9 X,Y pos of 4 corners*
0 Add a 4 corners polygon primitive as box body*
4,1,4,$2,$3,$4,$5,$6,$7,$8,$9,$2,$3,0*
0 Add four circle primitives for the rounded corners*
1,1,$1+$1,$2,$3*
1,1,$1+$1,$4,$5*
1,1,$1+$1,$6,$7*
1,1,$1+$1,$8,$9*
0 Add four rect primitives between the rounded corners*
20,1,$1+$1,$2,$3,$4,$5,0*
20,1,$1+$1,$4,$5,$6,$7,0*
20,1,$1+$1,$6,$7,$8,$9,0*
20,1,$1+$1,$8,$9,$2,$3,0*%
G04 Aperture macros list end*
%ADD10C,0.150000*%
%ADD11RoundRect,0.250000X-0.450000X0.350000X-0.450000X-0.350000X0.450000X-0.350000X0.450000X0.350000X0*%
%ADD12RoundRect,0.250000X-0.350000X-0.450000X0.350000X-0.450000X0.350000X0.450000X-0.350000X0.450000X0*%
%ADD13R,1.700000X1.700000*%
%ADD14O,1.700000X1.700000*%
%ADD15C,5.600000*%
%ADD16RoundRect,0.250000X-1.250000X-0.550000X1.250000X-0.550000X1.250000X0.550000X-1.250000X0.550000X0*%
%ADD17RoundRect,0.250000X0.337500X0.475000X-0.337500X0.475000X-0.337500X-0.475000X0.337500X-0.475000X0*%
%ADD18R,1.500000X2.000000*%
%ADD19R,3.800000X2.000000*%
%ADD20RoundRect,0.250000X0.350000X0.450000X-0.350000X0.450000X-0.350000X-0.450000X0.350000X-0.450000X0*%
%ADD21RoundRect,0.250000X0.450000X-0.350000X0.450000X0.350000X-0.450000X0.350000X-0.450000X-0.350000X0*%
%ADD22R,1.302499X0.304800*%
%ADD23C,2.500000*%
%ADD24RoundRect,0.250000X0.475000X-0.337500X0.475000X0.337500X-0.475000X0.337500X-0.475000X-0.337500X0*%
%ADD25R,1.750000X0.700000*%
%ADD26R,1.000000X1.450000*%
%ADD27R,1.550000X1.000000*%
%ADD28R,1.400000X0.800000*%
%ADD29R,1.500000X1.300000*%
%ADD30R,1.500000X1.500000*%
%ADD31R,1.500000X0.800000*%
G04 APERTURE END LIST*
D10*
X113665000Y-141605000D02*
X122555000Y-141605000D01*
X122555000Y-141605000D02*
X122555000Y-143510000D01*
X122555000Y-143510000D02*
X113665000Y-143510000D01*
X113665000Y-143510000D02*
X113665000Y-141605000D01*
G36*
X113665000Y-141605000D02*
G01*
X122555000Y-141605000D01*
X122555000Y-143510000D01*
X113665000Y-143510000D01*
X113665000Y-141605000D01*
G37*
D11*
%TO.C,R5*%
X106680000Y-108220000D03*
X106680000Y-110220000D03*
%TD*%
D12*
%TO.C,R6*%
X116110000Y-86360000D03*
X118110000Y-86360000D03*
%TD*%
D11*
%TO.C,R4*%
X109220000Y-108220000D03*
X109220000Y-110220000D03*
%TD*%
D13*
%TO.C,J3*%
X106680000Y-99060000D03*
D14*
X106680000Y-96520000D03*
X106680000Y-93980000D03*
%TD*%
D15*
%TO.C,H1*%
X107950000Y-64770000D03*
%TD*%
D16*
%TO.C,C1*%
X140380000Y-92710000D03*
X144780000Y-92710000D03*
%TD*%
D17*
%TO.C,C9*%
X126365000Y-71120000D03*
X124290000Y-71120000D03*
%TD*%
%TO.C,C4*%
X118110000Y-78740000D03*
X116035000Y-78740000D03*
%TD*%
D18*
%TO.C,U1*%
X139940000Y-83770000D03*
X142240000Y-83770000D03*
D19*
X142240000Y-77470000D03*
D18*
X144540000Y-83770000D03*
%TD*%
D20*
%TO.C,R9*%
X112797500Y-78740000D03*
X110797500Y-78740000D03*
%TD*%
D17*
%TO.C,C5*%
X112797500Y-86360000D03*
X110722500Y-86360000D03*
%TD*%
D21*
%TO.C,R1*%
X107950000Y-131810000D03*
X107950000Y-129810000D03*
%TD*%
D13*
%TO.C,J4*%
X106680000Y-83185000D03*
D14*
X106680000Y-80645000D03*
X106680000Y-78105000D03*
%TD*%
D11*
%TO.C,R3*%
X111760000Y-108220000D03*
X111760000Y-110220000D03*
%TD*%
D16*
%TO.C,C2*%
X140380000Y-68580000D03*
X144780000Y-68580000D03*
%TD*%
D17*
%TO.C,C6*%
X112797500Y-74930000D03*
X110722500Y-74930000D03*
%TD*%
D12*
%TO.C,R7*%
X116110000Y-74930000D03*
X118110000Y-74930000D03*
%TD*%
D20*
%TO.C,R8*%
X112760000Y-82550000D03*
X110760000Y-82550000D03*
%TD*%
D17*
%TO.C,C3*%
X118110000Y-82550000D03*
X116035000Y-82550000D03*
%TD*%
D22*
%TO.C,U2*%
X126609848Y-82280001D03*
X126609848Y-81779999D03*
X126609848Y-81280000D03*
X126609848Y-80780001D03*
X126609848Y-80279999D03*
X122310152Y-80279999D03*
X122310152Y-80780001D03*
X122310152Y-81280000D03*
X122310152Y-81779999D03*
X122310152Y-82280001D03*
%TD*%
D23*
%TO.C,TP1*%
X123190000Y-64770000D03*
%TD*%
D15*
%TO.C,H2*%
X107950000Y-138430000D03*
%TD*%
D17*
%TO.C,C8*%
X126365000Y-74930000D03*
X124290000Y-74930000D03*
%TD*%
D24*
%TO.C,C7*%
X121285000Y-76835000D03*
X121285000Y-74760000D03*
%TD*%
D21*
%TO.C,R2*%
X110490000Y-131810000D03*
X110490000Y-129810000D03*
%TD*%
D25*
%TO.C,J2*%
X106410000Y-122850000D03*
X106410000Y-121750000D03*
X106410000Y-120650000D03*
X106410000Y-119550000D03*
X106410000Y-118450000D03*
X106410000Y-117350000D03*
X106410000Y-116250000D03*
X106410000Y-115150000D03*
D26*
X115635000Y-114025000D03*
D27*
X117210000Y-125250000D03*
D28*
X114785000Y-125650000D03*
D29*
X106535000Y-113950000D03*
D30*
X106535000Y-125300000D03*
D31*
X114135000Y-113700000D03*
%TD*%
D13*
%TO.C,J1*%
X131298000Y-62225000D03*
D14*
X133838000Y-62225000D03*
X131298000Y-64765000D03*
X133838000Y-64765000D03*
X131298000Y-67305000D03*
X133838000Y-67305000D03*
X131298000Y-69845000D03*
X133838000Y-69845000D03*
X131298000Y-72385000D03*
X133838000Y-72385000D03*
X131298000Y-74925000D03*
X133838000Y-74925000D03*
X131298000Y-77465000D03*
X133838000Y-77465000D03*
X131298000Y-80005000D03*
X133838000Y-80005000D03*
X131298000Y-82545000D03*
X133838000Y-82545000D03*
X131298000Y-85085000D03*
X133838000Y-85085000D03*
X131298000Y-87625000D03*
X133838000Y-87625000D03*
X131298000Y-90165000D03*
X133838000Y-90165000D03*
X131298000Y-92705000D03*
X133838000Y-92705000D03*
X131298000Y-95245000D03*
X133838000Y-95245000D03*
X131298000Y-97785000D03*
X133838000Y-97785000D03*
X131298000Y-100325000D03*
X133838000Y-100325000D03*
X131298000Y-102865000D03*
X133838000Y-102865000D03*
X131298000Y-105405000D03*
X133838000Y-105405000D03*
X131298000Y-107945000D03*
X133838000Y-107945000D03*
X131298000Y-110485000D03*
X133838000Y-110485000D03*
X131298000Y-113025000D03*
X133838000Y-113025000D03*
X131298000Y-115565000D03*
X133838000Y-115565000D03*
X131298000Y-118105000D03*
X133838000Y-118105000D03*
X131298000Y-120645000D03*
X133838000Y-120645000D03*
X131298000Y-123185000D03*
X133838000Y-123185000D03*
X131298000Y-125725000D03*
X133838000Y-125725000D03*
X131298000Y-128265000D03*
X133838000Y-128265000D03*
X131298000Y-130805000D03*
X133838000Y-130805000D03*
X131298000Y-133345000D03*
X133838000Y-133345000D03*
X131298000Y-135885000D03*
X133838000Y-135885000D03*
X131298000Y-138425000D03*
X133838000Y-138425000D03*
X131298000Y-140965000D03*
X133838000Y-140965000D03*
%TD*%
M02*
